G04*
G04 #@! TF.GenerationSoftware,Altium Limited,Altium Designer,25.4.2 (15)*
G04*
G04 Layer_Color=65535*
%FSLAX45Y45*%
%MOMM*%
G71*
G04*
G04 #@! TF.SameCoordinates,D7BB9B6E-8E0F-4C10-A838-266EBE977BF3*
G04*
G04*
G04 #@! TF.FilePolarity,Positive*
G04*
G01*
G75*
%ADD10C,0.05000*%
%ADD11C,0.20000*%
%ADD12C,0.10000*%
%ADD13C,0.15000*%
%ADD14C,0.25000*%
%ADD15C,0.02540*%
%ADD16C,0.25400*%
%ADD17C,0.60000*%
%ADD18C,0.15240*%
%ADD19C,0.16000*%
%ADD20C,0.07620*%
G36*
X2740000Y360000D02*
X2815000D01*
Y380000D01*
X2765000Y430000D01*
X2740000D01*
Y360000D01*
D02*
G37*
G36*
X3176498D02*
X3251498D01*
Y380000D01*
X3201498Y430000D01*
X3176498D01*
Y360000D01*
D02*
G37*
G36*
X6435000Y3492500D02*
X6479999D01*
Y3482500D01*
X6450000Y3452500D01*
X6435000D01*
Y3492500D01*
D02*
G37*
G36*
X6140000Y3970000D02*
Y4015000D01*
X6150000D01*
X6180000Y3985000D01*
Y3970000D01*
X6140000D01*
D02*
G37*
G36*
X520000Y4955000D02*
Y4915000D01*
X445000Y4840000D01*
X405000D01*
Y4950000D01*
X400000Y4955000D01*
X520000D01*
D02*
G37*
G36*
X2751501Y7240950D02*
X2726101D01*
Y7279050D01*
X2751501D01*
Y7240950D01*
D02*
G37*
G36*
X4810003Y6629999D02*
X4770003D01*
X4780003Y6659999D01*
X4810003Y6669999D01*
Y6629999D01*
D02*
G37*
G36*
X6477500Y5100000D02*
X6522500D01*
Y5090000D01*
X6492500Y5060000D01*
X6477500D01*
Y5100000D01*
D02*
G37*
D10*
X1246371Y5122555D02*
G03*
X1246371Y5117555I0J-2500D01*
G01*
D02*
G03*
X1246371Y5122555I0J2500D01*
G01*
X3705903Y4486467D02*
Y4516947D01*
X3703363Y4486467D02*
Y4516947D01*
X3700823Y4489007D02*
Y4519487D01*
X3698283Y4509327D02*
X3718461Y4490683D01*
X3708443Y4489007D02*
Y4499167D01*
X3705903Y4491547D02*
X3708443Y4499167D01*
X3705903Y4491547D02*
X3713523Y4489007D01*
X3698283Y4519487D02*
X3713523Y4489007D01*
X3698283D02*
Y4519487D01*
X3703363Y4514407D02*
X3732390Y4489007D01*
X3703363Y4514407D02*
X3728763Y4486467D01*
X3700823Y4511867D02*
X3728763Y4486467D01*
X3700823Y4511867D02*
Y4519487D01*
X3736383Y4486467D01*
X3698283Y4524567D02*
X3736383Y4486467D01*
X3698283D02*
Y4524567D01*
Y4486467D02*
X3736383D01*
X3698283Y4489007D02*
X3732390D01*
X2990121Y4437943D02*
Y4480163D01*
X3029725D01*
X2990121Y3780159D02*
X3033301D01*
X2990121D02*
Y3822303D01*
X3644405Y3780159D02*
X3690125D01*
Y3822303D01*
X3641865Y4480163D02*
X3688926D01*
X3690125Y4434443D02*
Y4480163D01*
D11*
X405000Y4840000D02*
G03*
X520000Y4955000I0J115000D01*
G01*
X4810003Y6669999D02*
G03*
X4770003Y6629999I0J-40000D01*
G01*
X2842317Y5432682D02*
G03*
X3042318Y5232682I200000J0D01*
G01*
X3842317D02*
G03*
X4042318Y5432682I0J200000D01*
G01*
Y6232682D02*
G03*
X3842317Y6432683I-200000J0D01*
G01*
X3042318D02*
G03*
X2842317Y6232682I0J-200000D01*
G01*
X6440000Y3452500D02*
G03*
X6479999Y3492500I0J40000D01*
G01*
X6180000Y3975000D02*
G03*
X6140000Y4015000I-40000J0D01*
G01*
X6482500Y5060000D02*
G03*
X6522500Y5100000I0J40000D01*
G01*
X2810000Y360000D02*
G03*
X2740000Y430000I-70000J0D01*
G01*
X3246498Y360000D02*
G03*
X3176498Y430000I-70000J0D01*
G01*
X5107883Y357900D02*
X5234883D01*
X5082483Y330000D02*
X5107883Y357900D01*
X5234883D02*
X5260283Y330000D01*
X5488883Y357900D02*
X5514283Y330000D01*
X5336483D02*
X5361883Y357900D01*
X5488883D01*
X5028383Y970000D02*
X5558383D01*
X5028383Y330000D02*
Y970000D01*
Y330000D02*
X5568383D01*
Y970000D01*
X5558383D02*
X5568383D01*
X3890002Y479500D02*
X4605002D01*
X3890002D02*
Y1509501D01*
X4605002D01*
Y479500D02*
Y1509501D01*
X4640003Y482497D02*
X4810001D01*
X1507503Y6882500D02*
Y7472506D01*
X1057506Y6882500D02*
X1507503D01*
X1057506D02*
Y7472506D01*
X1507503D01*
X2592499Y3850842D02*
Y3910842D01*
X2210001Y3254323D02*
Y3434323D01*
X2090001D02*
X2210001D01*
X2090001Y3254323D02*
X2210001D01*
X2090001D02*
Y3434323D01*
X9631302Y4257501D02*
X9783803D01*
X9818799Y3754500D02*
Y4244502D01*
Y3754500D02*
X10138804D01*
Y4244502D01*
X9818799D02*
X10138804D01*
X1496373Y6330057D02*
X1761371D01*
Y5565059D02*
Y6330057D01*
X1496373Y5300056D02*
X1761371Y5565059D01*
X731370Y6330057D02*
X996369D01*
X731370Y5565059D02*
Y6330057D01*
Y5565059D02*
X996369Y5300056D01*
X359200Y6724000D02*
Y6851000D01*
X331301Y6876400D02*
X359200Y6851000D01*
X331301Y6698600D02*
X359200Y6724000D01*
X331301Y6444600D02*
X359200Y6470000D01*
X331301Y6622400D02*
X359200Y6597000D01*
Y6470000D02*
Y6597000D01*
X971304Y6400500D02*
Y6930502D01*
X331301D02*
X971304D01*
X331301Y6390498D02*
Y6930502D01*
Y6390498D02*
X971304D01*
Y6400500D01*
X400002Y4955001D02*
X420002D01*
X400002Y4655001D02*
Y4955001D01*
X900001D01*
Y4655001D02*
Y4955001D01*
X560001Y4125000D02*
Y4215002D01*
Y4435002D02*
Y4524999D01*
Y4435002D02*
X600001D01*
Y4215002D02*
Y4435002D01*
X560001Y4215002D02*
X600001D01*
X560001D02*
Y4435002D01*
X400002Y3694998D02*
X900001D01*
Y3994997D01*
X400002Y3694998D02*
Y3994997D01*
Y4839999D02*
X405000D01*
X1109371Y4140934D02*
X1209371D01*
X1159369D02*
X1199369Y4210931D01*
X1109371D02*
X1159369Y4140934D01*
X1109371Y4210931D02*
X1199369D01*
X1159369Y4120934D02*
Y4140934D01*
Y4210931D02*
Y4240934D01*
X607504Y3307501D02*
Y3367501D01*
Y3107496D02*
Y3167496D01*
X347505Y3107496D02*
Y3367501D01*
Y3267496D02*
X387505Y3307501D01*
X1070000Y3583877D02*
Y3633874D01*
X930001Y3463877D02*
X1010001D01*
X930001D02*
Y3536374D01*
Y3753874D02*
X1010001D01*
X930001Y3681377D02*
Y3753874D01*
X987499Y3220003D02*
Y3280003D01*
X1283637Y3188364D02*
X1369997D01*
Y3104321D02*
Y3187323D01*
X1281097Y3188364D02*
Y3309324D01*
X1370434Y3102004D02*
X1484297D01*
Y3102325D02*
Y3309324D01*
X1281097D02*
X1484297D01*
X1076904Y2953376D02*
X1106902D01*
Y2693377D02*
Y2953376D01*
X1076904Y2693377D02*
X1106902D01*
X981903Y2953376D02*
X1011901D01*
X981903Y2693377D02*
Y2953376D01*
Y2693377D02*
X1011901D01*
X981903Y2823379D02*
X1106902D01*
X569999Y2662503D02*
X729999D01*
X680001Y2512501D02*
X729999D01*
Y2812500D01*
X680001D02*
X729999D01*
X569999Y2512501D02*
X620001D01*
X569999D02*
Y2812500D01*
X620001D01*
X746249Y2685003D02*
Y2715005D01*
Y2685003D02*
X986249D01*
Y2715005D01*
X746249Y2785002D02*
Y2815005D01*
X986249D01*
Y2785002D02*
Y2815005D01*
X866249Y2685003D02*
Y2815005D01*
X302501Y2782498D02*
Y2812500D01*
X562501D01*
Y2782498D02*
Y2812500D01*
X302501Y2687497D02*
Y2717499D01*
Y2687497D02*
X562501D01*
Y2717499D01*
X432504Y2687497D02*
Y2812500D01*
X1855000Y2910001D02*
X2035000D01*
X1855000Y2790001D02*
Y2910001D01*
X2035000Y2790001D02*
Y2910001D01*
X1855000Y2790001D02*
X2035000D01*
X1783789Y3754343D02*
Y3814342D01*
X2133581Y3758501D02*
Y3818501D01*
X2494999Y3715003D02*
X2554999D01*
X2742507Y4060499D02*
X2802506D01*
X2808460Y3741140D02*
Y3827500D01*
X2809502D02*
X2892504D01*
X2687500Y3738600D02*
X2808460D01*
X2894820Y3827936D02*
Y3941800D01*
X2687500D02*
X2894500D01*
X2687500Y3738600D02*
Y3941800D01*
X2978925Y2990006D02*
X3158924D01*
Y3110005D01*
X2978925Y2990006D02*
Y3110005D01*
X3158924D01*
X2978925Y3223721D02*
X3158924D01*
X2978925Y3103716D02*
Y3223721D01*
X3158924Y3103716D02*
Y3223721D01*
X2978925Y3103716D02*
X3158924D01*
X4212344Y3790964D02*
X4521944D01*
Y3935963D01*
X4212344Y3790964D02*
Y3935963D01*
X4521944D01*
X2446999Y5614321D02*
X2466999D01*
X2536996D02*
X2546998D01*
X2466999Y5564319D02*
Y5654321D01*
Y5564319D02*
X2536996Y5614321D01*
X2466999Y5654321D02*
X2536996Y5614321D01*
Y5564319D02*
Y5664319D01*
X2871997Y5449221D02*
Y5588921D01*
X2128696Y5449221D02*
X2871997D01*
X2852596Y5588921D02*
X2871997D01*
X2852596Y5449221D02*
Y5588921D01*
Y5639721D02*
Y5779421D01*
Y5639721D02*
X2871997D01*
X2128696Y5449221D02*
Y5496821D01*
X2871997Y5639721D02*
Y5779421D01*
X2128696Y5731822D02*
Y5779421D01*
X2871997D01*
X4787501Y5225003D02*
Y5325002D01*
Y5275000D02*
X4857504Y5235000D01*
X4787501Y5275000D02*
X4857504Y5325002D01*
Y5235000D02*
Y5325002D01*
X4767501Y5275000D02*
X4787501D01*
X4857504D02*
X4887501D01*
X4787501Y5425002D02*
Y5525002D01*
Y5474999D02*
X4857504Y5435000D01*
X4787501Y5474999D02*
X4857504Y5525002D01*
Y5435000D02*
Y5525002D01*
X4767501Y5474999D02*
X4787501D01*
X4857504D02*
X4887501D01*
X4677504Y6144996D02*
Y6305000D01*
X4877504D01*
Y6144996D02*
Y6305000D01*
X4677504Y6144996D02*
X4877504D01*
X4652505Y6024996D02*
Y6109999D01*
X4730001Y6630004D02*
X4810001D01*
X4730001Y6850003D02*
X4810001D01*
Y6630004D02*
Y6850003D01*
X4730001Y6630004D02*
Y6850003D01*
X4659998Y7242499D02*
Y7307498D01*
X4950000D01*
Y7242499D02*
Y7307498D01*
X4659998Y7242499D02*
X4950000D01*
X4655000Y7092502D02*
Y7207498D01*
X4705002Y7635000D02*
X4885002D01*
X4705002Y7515000D02*
Y7635000D01*
X4885002Y7515000D02*
Y7635000D01*
X4705002Y7515000D02*
X4885002D01*
X3060301Y6737379D02*
X3146661D01*
Y6653341D02*
Y6736338D01*
X3057761Y6737379D02*
Y6858339D01*
X3147103Y6651019D02*
X3260961D01*
Y6651340D02*
Y6858339D01*
X3057761D02*
X3260961D01*
X1783551Y6385520D02*
X2173553D01*
X2078552Y6090519D02*
X2173553D01*
Y6680520D01*
X2078552D02*
X2173553D01*
X1783551D02*
X1878552D01*
X1783551Y6090519D02*
Y6680520D01*
Y6090519D02*
X1878552D01*
X2842316Y5432678D02*
Y6232681D01*
X4042319Y5432678D02*
Y6232681D01*
X3042315Y5232678D02*
X3132318D01*
Y5532678D01*
X3752317D01*
Y5232678D02*
Y5532678D01*
Y5232678D02*
X3842319D01*
X3752317Y6432681D02*
X3842319D01*
X3042315D02*
X3132318D01*
X2691503Y6321195D02*
Y6473697D01*
X2188502Y6286199D02*
X2678504D01*
X2188502Y5966195D02*
Y6286199D01*
Y5966195D02*
X2678504D01*
Y6286199D01*
X1675006Y7452501D02*
X1715005D01*
X1555006Y7332501D02*
X1675006Y7452501D01*
X1555006Y6922505D02*
Y7332501D01*
Y6922505D02*
X1715005D01*
X1935005Y7452501D02*
X1975005D01*
X2095005Y7332501D01*
Y6922505D02*
Y7332501D01*
X1935005Y6922505D02*
X2095005D01*
X4000000Y7424998D02*
Y7624998D01*
X6435001Y3492499D02*
X6524998D01*
X6435001Y3192500D02*
X6524998D01*
X6435001D02*
Y3492499D01*
X6524998Y3192500D02*
Y3492499D01*
X6435001Y3452499D02*
X6440000D01*
X6140000Y3969999D02*
Y4060001D01*
X6440000Y3969999D02*
Y4060001D01*
X6140000Y3969999D02*
X6440000D01*
X6140000Y4060001D02*
X6440000D01*
X6180000Y3969999D02*
Y3975002D01*
X6477500Y5099999D02*
X6567498D01*
X6477500Y4800000D02*
X6567498D01*
X6477500D02*
Y5099999D01*
X6567498Y4800000D02*
Y5099999D01*
X6477500Y5059999D02*
X6482499D01*
X5155004Y1815002D02*
X5335003D01*
X5155004Y1695002D02*
Y1815002D01*
X5335003Y1695002D02*
Y1815002D01*
X5155004Y1695002D02*
X5335003D01*
X4965007Y1875002D02*
X5045006D01*
Y1797501D02*
Y1875002D01*
X4965007Y1575002D02*
X5045006D01*
Y1652503D01*
X5345001Y1924994D02*
X5465000D01*
X3245000Y1515002D02*
X3355002D01*
X3389998Y1200002D02*
Y1489999D01*
Y1200002D02*
X3429998D01*
Y1489999D01*
X3389998D02*
X3429998D01*
X3235002Y1844999D02*
X3345000D01*
X3380001Y1529998D02*
Y1820000D01*
Y1529998D02*
X3420001D01*
Y1820000D01*
X3380001D02*
X3420001D01*
X2784899Y1181698D02*
Y1924999D01*
Y1181698D02*
X2832499D01*
X2784899Y1924999D02*
X2924599D01*
X3067500Y1181698D02*
X3115099D01*
X2924599Y1905598D02*
Y1924999D01*
X2784899Y1905598D02*
X2924599D01*
X2975399D02*
X3115099D01*
X2975399D02*
Y1924999D01*
X3115099Y1181698D02*
Y1924999D01*
X2975399D02*
X3115099D01*
X2900002Y1589998D02*
X3000002D01*
X2909999Y1520001D02*
X2949999Y1589998D01*
X3000002Y1520001D01*
X2909999D02*
X3000002D01*
X2949999Y1589998D02*
Y1600001D01*
Y1500001D02*
Y1520001D01*
X2739997Y940002D02*
X3109999D01*
X2739997Y360003D02*
Y940002D01*
X3109999Y360003D02*
Y940002D01*
X2739997Y360003D02*
X3109999D01*
X3176496Y940002D02*
X3546498D01*
X3176496Y359998D02*
Y940002D01*
X3546498Y359998D02*
Y940002D01*
X3176496Y359998D02*
X3546498D01*
X2038500Y357900D02*
X2063900Y330001D01*
X1886100D02*
X1911500Y357900D01*
X2038500D01*
X2165500D02*
X2292500D01*
X2140100Y330001D02*
X2165500Y357900D01*
X2292500D02*
X2317900Y330001D01*
X2546500Y357900D02*
X2571900Y330001D01*
X2394100D02*
X2419500Y357900D01*
X2546500D01*
X1324003Y970000D02*
X2615999D01*
X1324003Y330001D02*
Y970000D01*
Y330001D02*
X2626002D01*
Y970000D01*
X2615999D02*
X2626002D01*
X1657500Y357900D02*
X1784500D01*
X1632100Y330001D02*
X1657500Y357900D01*
X1784500D02*
X1809900Y330001D01*
X1530500Y357900D02*
X1555900Y330001D01*
X1378100D02*
X1403500Y357900D01*
X1530500D01*
X10125001Y3099998D02*
Y3239998D01*
X9825002Y3065002D02*
X10125001D01*
X9825002Y2835000D02*
Y3065002D01*
Y2835000D02*
X10125001D01*
Y3065002D01*
X8774996Y2750001D02*
X9624997D01*
X8774996Y3150000D02*
X9624997D01*
X8774996Y2750001D02*
Y3150000D01*
X9624997Y2750001D02*
Y3150000D01*
X10402501Y2750001D02*
X11252497D01*
X10402501Y3150000D02*
X11252497D01*
X10402501Y2750001D02*
Y3150000D01*
X11252497Y2750001D02*
Y3150000D01*
X10402501Y5250001D02*
X11252502D01*
X10402501Y4850002D02*
X11252502D01*
Y5250001D01*
X10402501Y4850002D02*
Y5250001D01*
X8775001Y5249996D02*
X9625002D01*
X8775001Y4849997D02*
X9625002D01*
Y5249996D01*
X8775001Y4849997D02*
Y5249996D01*
X10174999Y4935001D02*
Y5165003D01*
X9874999Y4935001D02*
X10174999D01*
X9874999D02*
Y5165003D01*
X10174999D01*
Y5199999D02*
Y5339998D01*
X9860344Y50001D02*
X10240343D01*
X9859343Y1780001D02*
X10240343D01*
X9478343D02*
X9859343D01*
X9479344Y50001D02*
X9859343D01*
X8716343Y1780001D02*
X9097343D01*
X8717343Y50001D02*
X9097343D01*
X8336343D02*
X8716343D01*
X8335343Y1780001D02*
X8716343D01*
X7954343D02*
X8335343D01*
X7955343Y50001D02*
X8335343D01*
X7574343D02*
X7954343D01*
X7573343Y1780001D02*
X7954343D01*
X10240343D02*
X10621343D01*
X10241343Y50001D02*
X10621343D01*
X7192343Y1780001D02*
X7573343D01*
X7193344Y50001D02*
X7573343D01*
X9098344D02*
X9478343D01*
X9097343Y1780001D02*
X9478343D01*
X10622343Y50001D02*
X11002343D01*
X10621343Y1780001D02*
X11002343D01*
X9095006Y7950001D02*
X9475005D01*
X9095006Y6220002D02*
X9476006D01*
X8714006D02*
X9095006D01*
X8714006Y7950001D02*
X9094005D01*
X8333006D02*
X8713005D01*
X8333006Y6220002D02*
X8714006D01*
X9857006Y7950001D02*
X10237005D01*
X9857006Y6220002D02*
X10238006D01*
X10619006D01*
X10238006Y7950001D02*
X10618005D01*
X10619006D02*
X10999005D01*
X10619006Y6220002D02*
X11000006D01*
X7571006Y7950001D02*
X7951005D01*
X7571006Y6220002D02*
X7952006D01*
X8333006D01*
X7952006Y7950001D02*
X8332005D01*
X9476006Y6220002D02*
X9857006D01*
X9476006Y7950001D02*
X9856005D01*
X7190006Y6220002D02*
X7571006D01*
X7190006Y7950001D02*
X7570005D01*
X4612902Y5618301D02*
Y5738301D01*
X4627903Y5773302D02*
X4917900D01*
Y5833302D01*
X4627903D02*
X4917900D01*
X4627903Y5773302D02*
Y5833302D01*
D12*
X1736061Y3209322D02*
G03*
X1736061Y3209322I-5000J0D01*
G01*
X5193003Y1177499D02*
G03*
X5193003Y1187499I0J5000D01*
G01*
D02*
G03*
X5193003Y1177499I0J-5000D01*
G01*
X1225000Y2240000D02*
Y2400000D01*
X1305000Y2240000D02*
Y2400000D01*
X1445000Y2020000D02*
X1605000D01*
X1445000Y2100000D02*
X1465000D01*
X1605000D01*
X4790000Y2260000D02*
Y2400000D01*
Y2240000D02*
Y2260000D01*
X4870000Y2240000D02*
Y2400000D01*
X4490000Y2100000D02*
X4650000D01*
X4490000Y2020000D02*
X4650000D01*
X4870000Y4665000D02*
Y4825000D01*
X4790000Y4665000D02*
Y4825000D01*
X4490000Y5045000D02*
X4650000D01*
X4630000Y4965000D02*
X4650000D01*
X4490000D02*
X4630000D01*
X1245000Y4665000D02*
Y4805000D01*
Y4825000D01*
X1165000Y4665000D02*
Y4825000D01*
X1385000Y4965000D02*
X1545000D01*
X1385000Y5045000D02*
X1545000D01*
X5362999Y1230497D02*
X5413002D01*
X5362999Y1624497D02*
X5413002D01*
X5233002Y1230497D02*
X5282999D01*
X5233002Y1624497D02*
X5282999D01*
X5135004Y1230497D02*
Y1627499D01*
X5511000Y1227500D02*
Y1627499D01*
X1335001Y1375003D02*
Y1465000D01*
X1815000D01*
Y1375003D02*
Y1465000D01*
X1335001Y1085001D02*
Y1174998D01*
Y1085001D02*
X1815000D01*
Y1174998D01*
X2614999Y1085001D02*
Y1174998D01*
X2135000Y1085001D02*
X2614999D01*
X2135000D02*
Y1174998D01*
X2614999Y1375003D02*
Y1465000D01*
X2135000D02*
X2614999D01*
X2135000Y1375003D02*
Y1465000D01*
X2590000Y1560001D02*
Y1649998D01*
X2110001Y1560001D02*
X2590000D01*
X2110001D02*
Y1649998D01*
X2590000Y1849998D02*
Y1940000D01*
X2110001D02*
X2590000D01*
X2110001Y1849998D02*
Y1940000D01*
X1335001Y1849998D02*
Y1940000D01*
X1815000D01*
Y1849998D02*
Y1940000D01*
X1335001Y1560001D02*
Y1649998D01*
Y1560001D02*
X1815000D01*
Y1649998D01*
D13*
X1701060Y3209322D02*
G03*
X1731061Y3239322I0J30000D01*
G01*
X2272500Y3689999D02*
Y3720002D01*
X1992500D02*
X2272500D01*
X1992500Y3689999D02*
Y3720002D01*
Y3580002D02*
Y3609999D01*
Y3580002D02*
X2272500D01*
Y3609999D01*
X2132500Y3580002D02*
Y3720002D01*
X1914644Y3215802D02*
Y3234999D01*
X2214649D01*
Y3215802D02*
Y3234999D01*
Y3114999D02*
Y3134202D01*
X1914644Y3114999D02*
Y3134202D01*
Y3114999D02*
X2214649D01*
X2064647D02*
Y3234999D01*
X1761061Y3064997D02*
Y3094994D01*
X1481061D02*
X1761061D01*
X1481061Y3064997D02*
Y3094994D01*
Y2954994D02*
Y2984997D01*
Y2954994D02*
X1761061D01*
Y2984997D01*
X1621061Y2954994D02*
Y3094994D01*
X1767502Y2954999D02*
Y2985002D01*
Y2954999D02*
X2047502D01*
Y2985002D01*
Y3065002D02*
Y3095004D01*
X1767502D02*
X2047502D01*
X1767502Y3065002D02*
Y3095004D01*
X1907502Y2954999D02*
Y3095004D01*
X2050001Y3239322D02*
Y3258524D01*
X1750002Y3239322D02*
X2050001D01*
X1750002D02*
Y3258524D01*
Y3340124D02*
Y3359322D01*
X2050001Y3340124D02*
Y3359322D01*
X1750002D02*
X2050001D01*
X1899999Y3239322D02*
Y3359322D01*
X2190001Y2802498D02*
X2220003D01*
Y3082497D01*
X2190001D02*
X2220003D01*
X2080003D02*
X2110001D01*
X2080003Y2802498D02*
Y3082497D01*
Y2802498D02*
X2110001D01*
X2080003Y2942498D02*
X2220003D01*
X9890001Y4524999D02*
X10010000D01*
Y4375002D02*
Y4675001D01*
X9990798Y4375002D02*
X10010000D01*
X9990798Y4675001D02*
X10010000D01*
X9890001D02*
X9909198D01*
X9890001Y4375002D02*
Y4675001D01*
Y4375002D02*
X9909198D01*
X9724997Y4630002D02*
Y4770002D01*
X9865002Y4630002D02*
Y4660000D01*
X9584997Y4630002D02*
X9865002D01*
X9584997D02*
Y4660000D01*
Y4740000D02*
Y4770002D01*
X9865002D01*
Y4740000D02*
Y4770002D01*
X8667504Y3225007D02*
Y3365006D01*
X8527504Y3335004D02*
Y3365006D01*
X8807503D01*
Y3335004D02*
Y3365006D01*
Y3225007D02*
Y3255004D01*
X8527504Y3225007D02*
X8807503D01*
X8527504D02*
Y3255004D01*
X6732933Y6646625D02*
Y6665823D01*
X6432934Y6646625D02*
X6732933D01*
X6432934D02*
Y6665823D01*
Y6747423D02*
Y6766625D01*
X6732933Y6747423D02*
Y6766625D01*
X6432934D02*
X6732933D01*
X6582931Y6646625D02*
Y6766625D01*
X6732933Y7271623D02*
Y7290820D01*
X6432934Y7271623D02*
X6732933D01*
X6432934D02*
Y7290820D01*
Y7372420D02*
Y7391623D01*
X6732933Y7372420D02*
Y7391623D01*
X6432934D02*
X6732933D01*
X6582936Y7271623D02*
Y7391623D01*
X6732933Y7146624D02*
Y7165822D01*
X6432934Y7146624D02*
X6732933D01*
X6432934D02*
Y7165822D01*
Y7247422D02*
Y7266624D01*
X6732933Y7247422D02*
Y7266624D01*
X6432934D02*
X6732933D01*
X6582931Y7146624D02*
Y7266624D01*
X6732933Y7021621D02*
Y7040823D01*
X6432934Y7021621D02*
X6732933D01*
X6432934D02*
Y7040823D01*
Y7122423D02*
Y7141620D01*
X6732933Y7122423D02*
Y7141620D01*
X6432934D02*
X6732933D01*
X6582931Y7021621D02*
Y7141620D01*
X6732933Y6896622D02*
Y6915825D01*
X6432934Y6896622D02*
X6732933D01*
X6432934D02*
Y6915825D01*
Y6997425D02*
Y7016622D01*
X6732933Y6997425D02*
Y7016622D01*
X6432934D02*
X6732933D01*
X6582931Y6896622D02*
Y7016622D01*
X6732933Y6771624D02*
Y6790821D01*
X6432934Y6771624D02*
X6732933D01*
X6432934D02*
Y6790821D01*
Y6872421D02*
Y6891624D01*
X6732933Y6872421D02*
Y6891624D01*
X6432934D02*
X6732933D01*
X6582931Y6771624D02*
Y6891624D01*
X6732933Y6521622D02*
Y6540824D01*
X6432934Y6521622D02*
X6732933D01*
X6432934D02*
Y6540824D01*
Y6622424D02*
Y6641621D01*
X6732933Y6622424D02*
Y6641621D01*
X6432934D02*
X6732933D01*
X6582931Y6521622D02*
Y6641621D01*
X6732933Y6396623D02*
Y6415826D01*
X6432934Y6396623D02*
X6732933D01*
X6432934D02*
Y6415826D01*
Y6497426D02*
Y6516623D01*
X6732933Y6497426D02*
Y6516623D01*
X6432934D02*
X6732933D01*
X6582931Y6396623D02*
Y6516623D01*
X1079369Y4003134D02*
X1092069Y4015834D01*
X1079369Y4003134D02*
Y4358734D01*
X1106872D01*
X1092069Y4015834D02*
X1133969D01*
Y4003134D02*
Y4015834D01*
X1079369Y4003134D02*
X1133969D01*
X1226674Y4015834D02*
X1239374Y4003134D01*
Y4358734D01*
X1211871D02*
X1239374D01*
X1184769Y4015834D02*
X1226674D01*
X1184769Y4003134D02*
Y4015834D01*
Y4003134D02*
X1239374D01*
X1074303Y3804787D02*
Y3924792D01*
X924300Y3804787D02*
X1224300D01*
X924300D02*
Y3823989D01*
X1224300Y3804787D02*
Y3823989D01*
Y3905589D02*
Y3924792D01*
X924300D02*
X1224300D01*
X924300Y3905589D02*
Y3924792D01*
X772733Y3317130D02*
Y3347132D01*
Y3317130D02*
X1052732D01*
Y3347132D01*
Y3427132D02*
Y3457130D01*
X772733D02*
X1052732D01*
X772733Y3427132D02*
Y3457130D01*
X912732Y3317130D02*
Y3457130D01*
X1202500Y3042502D02*
X1232502D01*
Y3322502D01*
X1202500D02*
X1232502D01*
X1092502D02*
X1122500D01*
X1092502Y3042502D02*
Y3322502D01*
Y3042502D02*
X1122500D01*
X1092502Y3182502D02*
X1232502D01*
X852498Y3035004D02*
X882500D01*
Y3315004D01*
X852498D02*
X882500D01*
X742500D02*
X772498D01*
X742500Y3035004D02*
Y3315004D01*
Y3035004D02*
X772498D01*
X742500Y3175004D02*
X882500D01*
X1471064Y2890803D02*
Y2910001D01*
X1771063D01*
Y2890803D02*
Y2910001D01*
Y2790001D02*
Y2809203D01*
X1471064Y2790001D02*
Y2809203D01*
Y2790001D02*
X1771063D01*
X1621061D02*
Y2910001D01*
X1541061Y3389324D02*
X1701061D01*
X1541061Y3209325D02*
X1701061D01*
X2064813Y3552502D02*
Y3582504D01*
X1784814D02*
X2064813D01*
X1784814Y3552502D02*
Y3582504D01*
Y3442505D02*
Y3472502D01*
Y3442505D02*
X2064813D01*
Y3472502D01*
X1924814Y3442505D02*
Y3582504D01*
X1646289Y3729030D02*
X1676286D01*
X1646289Y3449031D02*
Y3729030D01*
Y3449031D02*
X1676286D01*
X1756286D02*
X1786288D01*
Y3729030D01*
X1756286D02*
X1786288D01*
X1646289Y3589031D02*
X1786288D01*
X1879999Y3989999D02*
X1910001D01*
X1879999Y3709999D02*
Y3989999D01*
Y3709999D02*
X1910001D01*
X1990001D02*
X2019999D01*
Y3989999D01*
X1990001D02*
X2019999D01*
X1879999Y3849999D02*
X2019999D01*
X2254999Y3999996D02*
X2285002D01*
X2254999Y3719997D02*
Y3999996D01*
Y3719997D02*
X2285002D01*
X2365002D02*
X2394999D01*
Y3999996D01*
X2365002D02*
X2394999D01*
X2254999Y3859996D02*
X2394999D01*
X2399998Y4135160D02*
Y4165162D01*
Y4135160D02*
X2679997D01*
Y4165162D01*
Y4245162D02*
Y4275159D01*
X2399998D02*
X2679997D01*
X2399998Y4245162D02*
Y4275159D01*
X2539997Y4135160D02*
Y4275159D01*
X2365002Y3990502D02*
X2395004D01*
Y4270501D01*
X2365002D02*
X2395004D01*
X2255004D02*
X2285002D01*
X2255004Y3990502D02*
Y4270501D01*
Y3990502D02*
X2285002D01*
X2255004Y4130501D02*
X2395004D01*
X2452500Y3922999D02*
Y3953001D01*
Y3922999D02*
X2732499D01*
Y3953001D01*
Y4033001D02*
Y4062998D01*
X2452500D02*
X2732499D01*
X2452500Y4033001D02*
Y4062998D01*
X2592499Y3922999D02*
Y4062998D01*
X2794998Y3427500D02*
X2825001D01*
Y3707500D01*
X2794998D02*
X2825001D01*
X2685001D02*
X2714998D01*
X2685001Y3427500D02*
Y3707500D01*
Y3427500D02*
X2714998D01*
X2685001Y3567500D02*
X2825001D01*
X2940002Y3425006D02*
X2969999D01*
Y3705006D01*
X2940002D02*
X2969999D01*
X2829999D02*
X2860002D01*
X2829999Y3425006D02*
Y3705006D01*
Y3425006D02*
X2860002D01*
X2829999Y3565006D02*
X2969999D01*
X3313620Y3189360D02*
Y3329360D01*
X3453620Y3189360D02*
Y3219363D01*
X3173621Y3189360D02*
X3453620D01*
X3173621D02*
Y3219363D01*
Y3299362D02*
Y3329360D01*
X3453620D01*
Y3299362D02*
Y3329360D01*
X3066880Y3258996D02*
X3096877D01*
Y3538995D01*
X3066880D02*
X3096877D01*
X2956877D02*
X2986880D01*
X2956877Y3258996D02*
Y3538995D01*
Y3258996D02*
X2986880D01*
X2956877Y3398995D02*
X3096877D01*
X3311121Y3429822D02*
X3451121D01*
X3311121Y3289822D02*
X3341119D01*
X3311121D02*
Y3569822D01*
X3341119D01*
X3421118D02*
X3451121D01*
Y3289822D02*
Y3569822D01*
X3421118Y3289822D02*
X3451121D01*
X4022905Y4131954D02*
Y4271954D01*
X3882906Y4241951D02*
Y4271954D01*
X4162910D01*
Y4241951D02*
Y4271954D01*
Y4131954D02*
Y4161952D01*
X3882906Y4131954D02*
X4162910D01*
X3882906D02*
Y4161952D01*
X4157134Y4053463D02*
Y4083460D01*
X3877135D02*
X4157134D01*
X3877135Y4053463D02*
Y4083460D01*
Y3943461D02*
Y3973463D01*
Y3943461D02*
X4157134D01*
Y3973463D01*
X4017134Y3943461D02*
Y4083460D01*
X4157134Y3928460D02*
Y3958462D01*
X3877135D02*
X4157134D01*
X3877135Y3928460D02*
Y3958462D01*
Y3818462D02*
Y3848460D01*
Y3818462D02*
X4157134D01*
Y3848460D01*
X4017134Y3818462D02*
Y3958462D01*
X4367502Y3636913D02*
Y3776913D01*
X4507502Y3636913D02*
Y3666911D01*
X4227502Y3636913D02*
X4507502D01*
X4227502D02*
Y3666911D01*
Y3746910D02*
Y3776913D01*
X4507502D01*
Y3746910D02*
Y3776913D01*
X4227502Y3943456D02*
Y3973458D01*
Y3943456D02*
X4507502D01*
Y3973458D01*
Y4053458D02*
Y4083455D01*
X4227502D02*
X4507502D01*
X4227502Y4053458D02*
Y4083455D01*
X4367502Y3943456D02*
Y4083455D01*
X3947137Y4454676D02*
X4087137D01*
X4057139Y4594676D02*
X4087137D01*
Y4314677D02*
Y4594676D01*
X4057139Y4314677D02*
X4087137D01*
X3947137D02*
X3977140D01*
X3947137D02*
Y4594676D01*
X3977140D01*
X4072141D02*
X4102143D01*
X4072141Y4314677D02*
Y4594676D01*
Y4314677D02*
X4102143D01*
X4182143D02*
X4212140D01*
Y4594676D01*
X4182143D02*
X4212140D01*
X4072141Y4454676D02*
X4212140D01*
X1827474Y5591079D02*
X1864975D01*
X1827474D02*
Y6066079D01*
X1864975D01*
X2114972D02*
X2152472D01*
Y5591079D02*
Y6066079D01*
X2114972Y5591079D02*
X2152472D01*
X1827474Y5828579D02*
X2152472D01*
X2932509Y4801193D02*
Y4820391D01*
X2632509Y4801193D02*
X2932509D01*
X2632509D02*
Y4820391D01*
Y4901991D02*
Y4921193D01*
X2932509Y4901991D02*
Y4921193D01*
X2632509D02*
X2932509D01*
X2782512Y4801193D02*
Y4921193D01*
X2932499Y4675001D02*
Y4694198D01*
X2632499Y4675001D02*
X2932499D01*
X2632499D02*
Y4694198D01*
Y4775798D02*
Y4795001D01*
X2932499Y4775798D02*
Y4795001D01*
X2632499D02*
X2932499D01*
X2782501Y4675001D02*
Y4795001D01*
X3217380Y4735133D02*
X3247382D01*
Y5015132D01*
X3217380D02*
X3247382D01*
X3107383D02*
X3137380D01*
X3107383Y4735133D02*
Y5015132D01*
Y4735133D02*
X3137380D01*
X3107383Y4875133D02*
X3247382D01*
X2962521D02*
X3102521D01*
X2962521Y4735133D02*
X2992519D01*
X2962521D02*
Y5015132D01*
X2992519D01*
X3072519D02*
X3102521D01*
Y4735133D02*
Y5015132D01*
X3072519Y4735133D02*
X3102521D01*
X5057503Y5342503D02*
Y5366602D01*
X4598901D02*
X5057503D01*
X4586201D02*
X4598901D01*
X4586201Y5300400D02*
Y5366602D01*
Y5300400D02*
X4598901D01*
Y5366602D01*
Y5183402D02*
Y5249600D01*
X4586201D02*
X4598901D01*
X4586201Y5183402D02*
Y5249600D01*
Y5183402D02*
X4598901D01*
X5057503D01*
Y5207502D01*
Y5542503D02*
Y5566602D01*
X4598901D02*
X5057503D01*
X4586201D02*
X4598901D01*
X4586201Y5500399D02*
Y5566602D01*
Y5500399D02*
X4598901D01*
Y5566602D01*
Y5383402D02*
Y5449599D01*
X4586201D02*
X4598901D01*
X4586201Y5383402D02*
Y5449599D01*
Y5383402D02*
X4598901D01*
X5057503D01*
Y5407502D01*
X4922502Y6589999D02*
Y6620001D01*
X4642503D02*
X4922502D01*
X4642503Y6589999D02*
Y6620001D01*
Y6480001D02*
Y6509999D01*
Y6480001D02*
X4922502D01*
Y6509999D01*
X4782502Y6480001D02*
Y6620001D01*
X4539999Y6050005D02*
X4559201D01*
X4539999D02*
Y6350004D01*
X4559201D01*
X4640801D02*
X4659998D01*
X4640801Y6050005D02*
X4659998D01*
Y6350004D01*
X4539999Y6200002D02*
X4659998D01*
X4929995Y6347500D02*
X4959998D01*
X4929995Y6067500D02*
Y6347500D01*
Y6067500D02*
X4959998D01*
X5039998D02*
X5069995D01*
Y6347500D01*
X5039998D02*
X5069995D01*
X4929995Y6207500D02*
X5069995D01*
X4930000Y5965001D02*
X4959998D01*
X4930000Y5685002D02*
Y5965001D01*
Y5685002D02*
X4959998D01*
X5039998D02*
X5070000D01*
Y5965001D01*
X5039998D02*
X5070000D01*
X4930000Y5825001D02*
X5070000D01*
X4932901Y6864994D02*
Y6884197D01*
X4632902Y6864994D02*
X4932901D01*
X4632902D02*
Y6884197D01*
Y6965797D02*
Y6984999D01*
X4932901Y6965797D02*
Y6984999D01*
X4632902D02*
X4932901D01*
X4782904Y6864994D02*
Y6984999D01*
X3715001Y7077501D02*
X3745004D01*
Y7357500D01*
X3715001D02*
X3745004D01*
X3605004D02*
X3635002D01*
X3605004Y7077501D02*
Y7357500D01*
Y7077501D02*
X3635002D01*
X3605004Y7217500D02*
X3745004D01*
X3840000Y7077501D02*
X3870002D01*
Y7357500D01*
X3840000D02*
X3870002D01*
X3730003D02*
X3760000D01*
X3730003Y7077501D02*
Y7357500D01*
Y7077501D02*
X3760000D01*
X3730003Y7217500D02*
X3870002D01*
X4239999Y7092497D02*
X4270002D01*
Y7372496D01*
X4239999D02*
X4270002D01*
X4130002D02*
X4159999D01*
X4130002Y7092497D02*
Y7372496D01*
Y7092497D02*
X4159999D01*
X4130002Y7232497D02*
X4270002D01*
X4364998Y7092497D02*
X4394995D01*
Y7372496D01*
X4364998D02*
X4394995D01*
X4254995D02*
X4284998D01*
X4254995Y7092497D02*
Y7372496D01*
Y7092497D02*
X4284998D01*
X4254995Y7232497D02*
X4394995D01*
X3940000Y6679856D02*
X3959202D01*
X3940000D02*
Y6979860D01*
X3959202D01*
X4040802D02*
X4059999D01*
X4040802Y6679856D02*
X4059999D01*
Y6979860D01*
X3940000Y6829858D02*
X4059999D01*
X3590003Y6890003D02*
Y6920000D01*
X3309998D02*
X3590003D01*
X3309998Y6890003D02*
Y6920000D01*
Y6780001D02*
Y6810003D01*
Y6780001D02*
X3590003D01*
Y6810003D01*
X3449998Y6780001D02*
Y6920000D01*
X2432500Y6907499D02*
Y7047503D01*
X2305500Y7028301D02*
Y7047503D01*
X2559500D01*
Y7028301D02*
Y7047503D01*
Y6907499D02*
Y6926701D01*
X2305500Y6907499D02*
X2559500D01*
X2305500D02*
Y6926701D01*
X2110001Y6907504D02*
X2130001D01*
X2110001D02*
Y7247503D01*
X2130001D01*
X2270001Y6907504D02*
X2290001D01*
Y7247503D01*
X2270001D02*
X2290001D01*
X2110001Y7077501D02*
X2290001D01*
X2432500Y7107503D02*
Y7247503D01*
X2305500Y7228301D02*
Y7247503D01*
X2559500D01*
Y7228301D02*
Y7247503D01*
Y7107503D02*
Y7126701D01*
X2305500Y7107503D02*
X2559500D01*
X2305500D02*
Y7126701D01*
X2579997Y7260279D02*
X2610000D01*
X2579997Y6980280D02*
Y7260279D01*
Y6980280D02*
X2610000D01*
X2690000D02*
X2719997D01*
Y7260279D01*
X2690000D02*
X2719997D01*
X2579997Y7120279D02*
X2719997D01*
X2129996Y7382504D02*
X2269995D01*
X2239998Y7522504D02*
X2269995D01*
Y7242504D02*
Y7522504D01*
X2239998Y7242504D02*
X2269995D01*
X2129996D02*
X2159998D01*
X2129996D02*
Y7522504D01*
X2159998D01*
X2559500Y7500797D02*
Y7519999D01*
X2305500D02*
X2559500D01*
X2305500Y7500797D02*
Y7519999D01*
Y7379999D02*
Y7399197D01*
Y7379999D02*
X2559500D01*
Y7399197D01*
X2432500Y7379999D02*
Y7519999D01*
X3597501Y7564998D02*
Y7595000D01*
X3317497D02*
X3597501D01*
X3317497Y7564998D02*
Y7595000D01*
Y7455001D02*
Y7484998D01*
Y7455001D02*
X3597501D01*
Y7484998D01*
X3457496Y7455001D02*
Y7595000D01*
X10300002Y3225001D02*
Y3365001D01*
X10160003Y3335004D02*
Y3365001D01*
X10440002D01*
Y3335004D02*
Y3365001D01*
Y3225001D02*
Y3255004D01*
X10160003Y3225001D02*
X10440002D01*
X10160003D02*
Y3255004D01*
X9990000Y3415004D02*
X10110000D01*
X9990000Y3265001D02*
Y3565001D01*
X10009203D01*
X9990000Y3265001D02*
X10009203D01*
X10090803D02*
X10110000D01*
Y3565001D01*
X10090803D02*
X10110000D01*
X6587498Y3067501D02*
X6727502D01*
X6587498Y2927501D02*
X6617500D01*
X6587498D02*
Y3207501D01*
X6617500D01*
X6697500D02*
X6727502D01*
Y2927501D02*
Y3207501D01*
X6697500Y2927501D02*
X6727502D01*
X6275001Y2922498D02*
Y2941700D01*
Y2922498D02*
X6529001D01*
Y2941700D01*
Y3043300D02*
Y3062502D01*
X6275001D02*
X6529001D01*
X6275001Y3043300D02*
Y3062502D01*
X6402001Y2922498D02*
Y3062502D01*
X6415001Y3059998D02*
Y3199998D01*
X6555001Y3059998D02*
Y3090000D01*
X6275001Y3059998D02*
X6555001D01*
X6275001D02*
Y3090000D01*
Y3170000D02*
Y3199998D01*
X6555001D01*
Y3170000D02*
Y3199998D01*
X6450002Y3662501D02*
Y3802501D01*
X6310003Y3772498D02*
Y3802501D01*
X6590002D01*
Y3772498D02*
Y3802501D01*
Y3662501D02*
Y3692499D01*
X6310003Y3662501D02*
X6590002D01*
X6310003D02*
Y3692499D01*
X6775000Y3727500D02*
Y3847500D01*
X6624998Y3727500D02*
X6924998D01*
X6624998D02*
Y3746702D01*
X6924998Y3727500D02*
Y3746702D01*
Y3828302D02*
Y3847500D01*
X6624998D02*
X6924998D01*
X6624998Y3828302D02*
Y3847500D01*
X6599999D02*
Y3967499D01*
X6450002Y3847500D02*
X6750002D01*
X6450002D02*
Y3866702D01*
X6750002Y3847500D02*
Y3866702D01*
Y3948302D02*
Y3967499D01*
X6450002D02*
X6750002D01*
X6450002Y3948302D02*
Y3967499D01*
X6317501Y4660498D02*
Y4679700D01*
Y4660498D02*
X6571501D01*
Y4679700D01*
Y4781300D02*
Y4800497D01*
X6317501D02*
X6571501D01*
X6317501Y4781300D02*
Y4800497D01*
X6444501Y4660498D02*
Y4800497D01*
X6457500Y4517999D02*
Y4657998D01*
X6597500Y4517999D02*
Y4547996D01*
X6317501Y4517999D02*
X6597500D01*
X6317501D02*
Y4547996D01*
Y4627996D02*
Y4657998D01*
X6597500D01*
Y4627996D02*
Y4657998D01*
X6630002Y4657500D02*
X6770002D01*
X6630002Y4517501D02*
X6659999D01*
X6630002D02*
Y4797500D01*
X6659999D01*
X6739999D02*
X6770002D01*
Y4517501D02*
Y4797500D01*
X6739999Y4517501D02*
X6770002D01*
X6775000Y4172498D02*
Y4292497D01*
X6624998Y4172498D02*
X6924998D01*
X6624998D02*
Y4191700D01*
X6924998Y4172498D02*
Y4191700D01*
Y4273300D02*
Y4292497D01*
X6624998D02*
X6924998D01*
X6624998Y4273300D02*
Y4292497D01*
X6790002Y3982501D02*
X6930001D01*
X6790002Y3842501D02*
X6819999D01*
X6790002D02*
Y4122500D01*
X6819999D01*
X6899999D02*
X6930001D01*
Y3842501D02*
Y4122500D01*
X6899999Y3842501D02*
X6930001D01*
X6724998Y3488694D02*
X6744200D01*
X6724998Y3234694D02*
Y3488694D01*
Y3234694D02*
X6744200D01*
X6845800D02*
X6864998D01*
Y3488694D01*
X6845800D02*
X6864998D01*
X6724998Y3361694D02*
X6864998D01*
X9675640Y3084174D02*
X9705637D01*
X9675640Y2804174D02*
Y3084174D01*
Y2804174D02*
X9705637D01*
X9785637D02*
X9815639D01*
Y3084174D01*
X9785637D02*
X9815639D01*
X9675640Y2944174D02*
X9815639D01*
X5053305Y2182500D02*
X5072502D01*
Y1882501D02*
Y2182500D01*
X5053305Y1882501D02*
X5072502D01*
X4952502D02*
X4971705D01*
X4952502Y2182500D02*
X4971705D01*
X4952502Y1882501D02*
Y2182500D01*
Y2032498D02*
X5072502D01*
X5325001Y1795804D02*
Y1815002D01*
X5625000D01*
Y1795804D02*
Y1815002D01*
Y1695002D02*
Y1714204D01*
X5325001Y1695002D02*
Y1714204D01*
Y1695002D02*
X5625000D01*
X5474998D02*
Y1815002D01*
X5254994Y2210858D02*
Y2230061D01*
X4954995Y2210858D02*
X5254994D01*
X4954995D02*
Y2230061D01*
Y2311661D02*
Y2330863D01*
X5254994Y2311661D02*
Y2330863D01*
X4954995D02*
X5254994D01*
X5104997Y2210858D02*
Y2330863D01*
X5590802Y2175001D02*
X5610004D01*
Y1875002D02*
Y2175001D01*
X5590802Y1875002D02*
X5610004D01*
X5490004D02*
X5509202D01*
X5490004Y2175001D02*
X5509202D01*
X5490004Y1875002D02*
Y2175001D01*
Y2024999D02*
X5610004D01*
X4864997Y1194998D02*
X4904997D01*
X4864997D02*
Y1534997D01*
X4904997D01*
X5004996D02*
X5044996D01*
Y1194998D02*
Y1534997D01*
X5004996Y1194998D02*
X5044996D01*
X4864997Y1365000D02*
X5044996D01*
X4047503Y1535002D02*
Y1575002D01*
X3707503Y1535002D02*
X4047503D01*
X3707503D02*
Y1575002D01*
Y1675002D02*
Y1715002D01*
X4047503D01*
Y1675002D02*
Y1715002D01*
X3877501Y1535002D02*
Y1715002D01*
X537797Y3527182D02*
Y3667182D01*
X397797Y3637180D02*
Y3667182D01*
X677796D01*
Y3637180D02*
Y3667182D01*
Y3527182D02*
Y3557180D01*
X397797Y3527182D02*
X677796D01*
X397797D02*
Y3557180D01*
X6582931Y6112011D02*
Y6232011D01*
X6432934D02*
X6732933D01*
Y6212814D02*
Y6232011D01*
X6432934Y6212814D02*
Y6232011D01*
Y6112011D02*
Y6131214D01*
Y6112011D02*
X6732933D01*
Y6131214D01*
X6582931Y6246062D02*
Y6366062D01*
X6432934D02*
X6732933D01*
Y6346865D02*
Y6366062D01*
X6432934Y6346865D02*
Y6366062D01*
Y6246062D02*
Y6265265D01*
Y6246062D02*
X6732933D01*
Y6265265D01*
X6579649Y456625D02*
Y576625D01*
X6429652D02*
X6729651D01*
Y557422D02*
Y576625D01*
X6429652Y557422D02*
Y576625D01*
Y456625D02*
Y475822D01*
Y456625D02*
X6729651D01*
Y475822D01*
X6583764Y584499D02*
Y704498D01*
X6433767D02*
X6733766D01*
Y685296D02*
Y704498D01*
X6433767Y685296D02*
Y704498D01*
Y584499D02*
Y603696D01*
Y584499D02*
X6733766D01*
Y603696D01*
X6582931Y1209156D02*
Y1329156D01*
X6432928D02*
X6732933D01*
Y1309953D02*
Y1329156D01*
X6432928Y1309953D02*
Y1329156D01*
Y1209156D02*
Y1228353D01*
Y1209156D02*
X6732933D01*
Y1228353D01*
X6582931Y1584151D02*
Y1704156D01*
X6432934D02*
X6732933D01*
Y1684954D02*
Y1704156D01*
X6432934Y1684954D02*
Y1704156D01*
Y1584151D02*
Y1603354D01*
Y1584151D02*
X6732933D01*
Y1603354D01*
X6582936Y1459158D02*
Y1579158D01*
X6432934D02*
X6732933D01*
Y1559955D02*
Y1579158D01*
X6432934Y1559955D02*
Y1579158D01*
Y1459158D02*
Y1478355D01*
Y1459158D02*
X6732933D01*
Y1478355D01*
X6582936Y1334154D02*
Y1454154D01*
X6432934D02*
X6732933D01*
Y1434952D02*
Y1454154D01*
X6432934Y1434952D02*
Y1454154D01*
Y1334154D02*
Y1353352D01*
Y1334154D02*
X6732933D01*
Y1353352D01*
X6582931Y1084157D02*
Y1204157D01*
X6432934D02*
X6732933D01*
Y1184955D02*
Y1204157D01*
X6432934Y1184955D02*
Y1204157D01*
Y1084157D02*
Y1103355D01*
Y1084157D02*
X6732933D01*
Y1103355D01*
X6582936Y834150D02*
Y954155D01*
X6432934D02*
X6732933D01*
Y934953D02*
Y954155D01*
X6432934Y934953D02*
Y954155D01*
Y834150D02*
Y853353D01*
Y834150D02*
X6732933D01*
Y853353D01*
X6582931Y709152D02*
Y829157D01*
X6432934D02*
X6732933D01*
Y809954D02*
Y829157D01*
X6432934Y809954D02*
Y829157D01*
Y709152D02*
Y728354D01*
Y709152D02*
X6732933D01*
Y728354D01*
X6582936Y959159D02*
Y1079159D01*
X6432934D02*
X6732933D01*
Y1059956D02*
Y1079159D01*
X6432934Y1059956D02*
Y1079159D01*
Y959159D02*
Y978356D01*
Y959159D02*
X6732933D01*
Y978356D01*
X11090003Y4090720D02*
X11109206D01*
X11090003D02*
Y4390719D01*
X11109206D01*
X11190806D02*
X11210003D01*
X11190806Y4090720D02*
X11210003D01*
Y4390719D01*
X11090003Y4240717D02*
X11210003D01*
X10965005D02*
X11085004D01*
Y4090720D02*
Y4390719D01*
X11065802Y4090720D02*
X11085004D01*
X11065802Y4390719D02*
X11085004D01*
X10965005D02*
X10984202D01*
X10965005Y4090720D02*
Y4390719D01*
Y4090720D02*
X10984202D01*
X10710004Y4240722D02*
X10830004D01*
X10710004Y4090720D02*
Y4390719D01*
X10729206D01*
X10710004Y4090720D02*
X10729206D01*
X10810806D02*
X10830004D01*
Y4390719D01*
X10810806D02*
X10830004D01*
X10590004Y4240722D02*
X10710004D01*
X10590004Y4090720D02*
Y4390719D01*
X10609202D01*
X10590004Y4090720D02*
X10609202D01*
X10690802D02*
X10710004D01*
Y4390719D01*
X10690802D02*
X10710004D01*
X9440004Y4240722D02*
X9560004D01*
X9440004Y4090720D02*
Y4390719D01*
X9459201D01*
X9440004Y4090720D02*
X9459201D01*
X9540801D02*
X9560004D01*
Y4390719D01*
X9540801D02*
X9560004D01*
X9315005Y4240722D02*
X9435005D01*
X9315005Y4090720D02*
Y4390719D01*
X9334203D01*
X9315005Y4090720D02*
X9334203D01*
X9415803D02*
X9435005D01*
Y4390719D01*
X9415803D02*
X9435005D01*
X9065003Y4240717D02*
X9185003D01*
Y4090720D02*
Y4390719D01*
X9165801Y4090720D02*
X9185003D01*
X9165801Y4390719D02*
X9185003D01*
X9065003D02*
X9084201D01*
X9065003Y4090720D02*
Y4390719D01*
Y4090720D02*
X9084201D01*
X8940005Y4240717D02*
X9060005D01*
Y4090720D02*
Y4390719D01*
X9040807Y4090720D02*
X9060005D01*
X9040807Y4390719D02*
X9060005D01*
X8940005D02*
X8959207D01*
X8940005Y4090720D02*
Y4390719D01*
Y4090720D02*
X8959207D01*
X8965004Y3750004D02*
X9085003D01*
Y3600002D02*
Y3900001D01*
X9065801Y3600002D02*
X9085003D01*
X9065801Y3900001D02*
X9085003D01*
X8965004D02*
X8984201D01*
X8965004Y3600002D02*
Y3900001D01*
Y3600002D02*
X8984201D01*
X9189997Y3749999D02*
X9309997D01*
X9189997Y3600002D02*
Y3900001D01*
X9209199D01*
X9189997Y3600002D02*
X9209199D01*
X9290799D02*
X9309997D01*
Y3900001D01*
X9290799D02*
X9309997D01*
X9315000Y3749999D02*
X9435000D01*
X9315000Y3600002D02*
Y3900001D01*
X9334203D01*
X9315000Y3600002D02*
X9334203D01*
X9415803D02*
X9435000D01*
Y3900001D01*
X9415803D02*
X9435000D01*
X9854999Y3407495D02*
X9994999D01*
X9965002Y3547495D02*
X9994999D01*
Y3267496D02*
Y3547495D01*
X9965002Y3267496D02*
X9994999D01*
X9854999D02*
X9885002D01*
X9854999D02*
Y3547495D01*
X9885002D01*
X10540007Y3750004D02*
X10660007D01*
X10540007Y3600002D02*
Y3900001D01*
X10559204D01*
X10540007Y3600002D02*
X10559204D01*
X10640804D02*
X10660007D01*
Y3900001D01*
X10640804D02*
X10660007D01*
X11357501Y4629997D02*
Y4769997D01*
X11497501Y4629997D02*
Y4660000D01*
X11217501Y4629997D02*
X11497501D01*
X11217501D02*
Y4660000D01*
Y4740000D02*
Y4769997D01*
X11497501D01*
Y4740000D02*
Y4769997D01*
X10940006Y3749999D02*
X11060006D01*
Y3599997D02*
Y3900001D01*
X11040803Y3599997D02*
X11060006D01*
X11040803Y3900001D02*
X11060006D01*
X10940006D02*
X10959203D01*
X10940006Y3599997D02*
Y3900001D01*
Y3599997D02*
X10959203D01*
X11215002Y5884280D02*
X11335001D01*
X11215002Y5734278D02*
Y6034277D01*
X11234204D01*
X11215002Y5734278D02*
X11234204D01*
X11315804D02*
X11335001D01*
Y6034277D01*
X11315804D02*
X11335001D01*
X11089998Y5884280D02*
X11209998D01*
X11089998Y5734278D02*
Y6034277D01*
X11109195D01*
X11089998Y5734278D02*
X11109195D01*
X11190796D02*
X11209998D01*
Y6034277D01*
X11190796D02*
X11209998D01*
X10969998Y5884275D02*
X11089998D01*
X10969998Y5734278D02*
Y6034277D01*
X10989201D01*
X10969998Y5734278D02*
X10989201D01*
X11070801D02*
X11089998D01*
Y6034277D01*
X11070801D02*
X11089998D01*
X10940799D02*
X10960001D01*
Y5734278D02*
Y6034277D01*
X10940799Y5734278D02*
X10960001D01*
X10840001D02*
X10859198D01*
X10840001Y6034277D02*
X10859198D01*
X10840001Y5734278D02*
Y6034277D01*
Y5884280D02*
X10960001D01*
X10714998Y5884275D02*
X10834997D01*
X10714998Y5734278D02*
Y6034277D01*
X10734200D01*
X10714998Y5734278D02*
X10734200D01*
X10815800D02*
X10834997D01*
Y6034277D01*
X10815800D02*
X10834997D01*
X10589999Y5884280D02*
X10709999D01*
X10589999Y5734278D02*
Y6034277D01*
X10609196D01*
X10589999Y5734278D02*
X10609196D01*
X10690796D02*
X10709999D01*
Y6034277D01*
X10690796D02*
X10709999D01*
X10460002Y5884275D02*
X10580002D01*
X10460002Y5734278D02*
Y6034277D01*
X10479199D01*
X10460002Y5734278D02*
X10479199D01*
X10560799D02*
X10580002D01*
Y6034277D01*
X10560799D02*
X10580002D01*
X10340002Y5884280D02*
X10460002D01*
X10340002Y5734278D02*
Y6034277D01*
X10359205D01*
X10340002Y5734278D02*
X10359205D01*
X10440805D02*
X10460002D01*
Y6034277D01*
X10440805D02*
X10460002D01*
X9540842Y5884275D02*
X9660842D01*
Y5734278D02*
Y6034277D01*
X9641644Y5734278D02*
X9660842D01*
X9641644Y6034277D02*
X9660842D01*
X9540842D02*
X9560044D01*
X9540842Y5734278D02*
Y6034277D01*
Y5734278D02*
X9560044D01*
X9415843Y5884275D02*
X9535843D01*
Y5734278D02*
Y6034277D01*
X9516641Y5734278D02*
X9535843D01*
X9516641Y6034277D02*
X9535843D01*
X9415843D02*
X9435041D01*
X9415843Y5734278D02*
Y6034277D01*
Y5734278D02*
X9435041D01*
X9293339Y5884275D02*
X9413339D01*
Y5734278D02*
Y6034277D01*
X9394137Y5734278D02*
X9413339D01*
X9394137Y6034277D02*
X9413339D01*
X9293339D02*
X9312537D01*
X9293339Y5734278D02*
Y6034277D01*
Y5734278D02*
X9312537D01*
X9056738Y5884275D02*
X9176738D01*
Y5734278D02*
Y6034277D01*
X9157541Y5734278D02*
X9176738D01*
X9157541Y6034277D02*
X9176738D01*
X9056738D02*
X9075941D01*
X9056738Y5734278D02*
Y6034277D01*
Y5734278D02*
X9075941D01*
X9175712Y5884275D02*
X9295712D01*
Y5734278D02*
Y6034277D01*
X9276509Y5734278D02*
X9295712D01*
X9276509Y6034277D02*
X9295712D01*
X9175712D02*
X9194909D01*
X9175712Y5734278D02*
Y6034277D01*
Y5734278D02*
X9194909D01*
X8940000Y5884275D02*
X9060000D01*
Y5734278D02*
Y6034277D01*
X9040797Y5734278D02*
X9060000D01*
X9040797Y6034277D02*
X9060000D01*
X8940000D02*
X8959197D01*
X8940000Y5734278D02*
Y6034277D01*
Y5734278D02*
X8959197D01*
X8693340Y5884275D02*
X8813340D01*
Y5734278D02*
Y6034277D01*
X8794138Y5734278D02*
X8813340D01*
X8794138Y6034277D02*
X8813340D01*
X8693340D02*
X8712538D01*
X8693340Y5734278D02*
Y6034277D01*
Y5734278D02*
X8712538D01*
X8818339Y5884275D02*
X8938344D01*
Y5734278D02*
Y6034277D01*
X8919141Y5734278D02*
X8938344D01*
X8919141Y6034277D02*
X8938344D01*
X8818339D02*
X8837541D01*
X8818339Y5734278D02*
Y6034277D01*
Y5734278D02*
X8837541D01*
X9550844Y2116012D02*
X9670844D01*
X9550844Y1966010D02*
Y2266009D01*
X9570047D01*
X9550844Y1966010D02*
X9570047D01*
X9651647D02*
X9670844D01*
Y2266009D01*
X9651647D02*
X9670844D01*
X9425846Y2116012D02*
X9545846D01*
X9425846Y1966010D02*
Y2266009D01*
X9445043D01*
X9425846Y1966010D02*
X9445043D01*
X9526643D02*
X9545846D01*
Y2266009D01*
X9526643D02*
X9545846D01*
X9303342Y2116007D02*
X9423342D01*
X9303342Y1966010D02*
Y2266009D01*
X9322544D01*
X9303342Y1966010D02*
X9322544D01*
X9404144D02*
X9423342D01*
Y2266009D01*
X9404144D02*
X9423342D01*
X9178343Y2116012D02*
X9298343D01*
X9178343Y1966010D02*
Y2266009D01*
X9197541D01*
X9178343Y1966010D02*
X9197541D01*
X9279141D02*
X9298343D01*
Y2266009D01*
X9279141D02*
X9298343D01*
X9060005Y2116012D02*
X9180004D01*
X9060005Y1966010D02*
Y2266009D01*
X9079202D01*
X9060005Y1966010D02*
X9079202D01*
X9160802D02*
X9180004D01*
Y2266009D01*
X9160802D02*
X9180004D01*
X8940000Y2116012D02*
X9060000D01*
X8940000Y1966010D02*
Y2266009D01*
X8959197D01*
X8940000Y1966010D02*
X8959197D01*
X9040797D02*
X9060000D01*
Y2266009D01*
X9040797D02*
X9060000D01*
X8818344Y2116012D02*
X8938344D01*
X8818344Y1966010D02*
Y2266009D01*
X8837541D01*
X8818344Y1966010D02*
X8837541D01*
X8919141D02*
X8938344D01*
Y2266009D01*
X8919141D02*
X8938344D01*
X8693340Y2116012D02*
X8813340D01*
X8693340Y1966010D02*
Y2266009D01*
X8712543D01*
X8693340Y1966010D02*
X8712543D01*
X8794143D02*
X8813340D01*
Y2266009D01*
X8794143D02*
X8813340D01*
X11069998Y2116007D02*
X11189998D01*
Y1966010D02*
Y2266009D01*
X11170796Y1966010D02*
X11189998D01*
X11170796Y2266009D02*
X11189998D01*
X11069998D02*
X11089196D01*
X11069998Y1966010D02*
Y2266009D01*
Y1966010D02*
X11089196D01*
X10949998Y2116012D02*
X11069998D01*
Y1966010D02*
Y2266009D01*
X11050796Y1966010D02*
X11069998D01*
X11050796Y2266009D02*
X11069998D01*
X10949998D02*
X10969196D01*
X10949998Y1966010D02*
Y2266009D01*
Y1966010D02*
X10969196D01*
X10830004Y2116007D02*
X10950003D01*
Y1966010D02*
Y2266009D01*
X10930806Y1966010D02*
X10950003D01*
X10930806Y2266009D02*
X10950003D01*
X10830004D02*
X10849206D01*
X10830004Y1966010D02*
Y2266009D01*
Y1966010D02*
X10849206D01*
X10705000Y2116007D02*
X10825000D01*
Y1966010D02*
Y2266009D01*
X10805803Y1966010D02*
X10825000D01*
X10805803Y2266009D02*
X10825000D01*
X10705000D02*
X10724203D01*
X10705000Y1966010D02*
Y2266009D01*
Y1966010D02*
X10724203D01*
X10580002Y2116007D02*
X10700001D01*
Y1966010D02*
Y2266009D01*
X10680804Y1966010D02*
X10700001D01*
X10680804Y2266009D02*
X10700001D01*
X10580002D02*
X10599204D01*
X10580002Y1966010D02*
Y2266009D01*
Y1966010D02*
X10599204D01*
X10460002Y2116007D02*
X10580002D01*
Y1966010D02*
Y2266009D01*
X10560799Y1966010D02*
X10580002D01*
X10560799Y2266009D02*
X10580002D01*
X10460002D02*
X10479199D01*
X10460002Y1966010D02*
Y2266009D01*
Y1966010D02*
X10479199D01*
X10340002Y2116007D02*
X10460002D01*
Y1966010D02*
Y2266009D01*
X10440805Y1966010D02*
X10460002D01*
X10440805Y2266009D02*
X10460002D01*
X10340002D02*
X10359205D01*
X10340002Y1966010D02*
Y2266009D01*
Y1966010D02*
X10359205D01*
X10005002Y4524999D02*
X10145001D01*
X10005002Y4384999D02*
X10035004D01*
X10005002D02*
Y4664999D01*
X10035004D01*
X10115004D02*
X10145001D01*
Y4384999D02*
Y4664999D01*
X10115004Y4384999D02*
X10145001D01*
X8840000Y3749999D02*
X8960005D01*
Y3600002D02*
Y3900001D01*
X8940803Y3600002D02*
X8960005D01*
X8940803Y3900001D02*
X8960005D01*
X8840000D02*
X8859203D01*
X8840000Y3600002D02*
Y3900001D01*
Y3600002D02*
X8859203D01*
X6450002Y4090801D02*
Y4109998D01*
X6750002D01*
Y4090801D02*
Y4109998D01*
Y3989999D02*
Y4009201D01*
X6450002Y3989999D02*
Y4009201D01*
Y3989999D02*
X6750002D01*
X6599999D02*
Y4109998D01*
X10510797Y3900001D02*
X10529999D01*
Y3600002D02*
Y3900001D01*
X10510797Y3600002D02*
X10529999D01*
X10409994D02*
X10429197D01*
X10409994Y3900001D02*
X10429197D01*
X10409994Y3600002D02*
Y3900001D01*
Y3750004D02*
X10529999D01*
X10815002Y3600002D02*
X10834205D01*
X10815002D02*
Y3900001D01*
X10834205D01*
X10915805D02*
X10935002D01*
X10915805Y3600002D02*
X10935002D01*
Y3900001D01*
X10815002Y3749999D02*
X10935002D01*
X11195002Y1966010D02*
X11214199D01*
X11195002D02*
Y2266009D01*
X11214199D01*
X11295799D02*
X11315001D01*
X11295799Y1966010D02*
X11315001D01*
Y2266009D01*
X11195002Y2116007D02*
X11315001D01*
D14*
X4890003Y6599998D02*
G03*
X4890003Y6599998I-12500J0D01*
G01*
X3847500Y7060000D02*
G03*
X3847500Y7060000I-12500J0D01*
G01*
X3454818Y5142682D02*
G03*
X3454818Y5142682I-12500J0D01*
G01*
X6392500Y3512500D02*
G03*
X6392500Y3512500I-12500J0D01*
G01*
X6132500Y3915000D02*
G03*
X6132500Y3915000I-12500J0D01*
G01*
X6435000Y5120000D02*
G03*
X6435000Y5120000I-12500J0D01*
G01*
X4872500Y1907500D02*
G03*
X4872500Y1907500I-12500J0D01*
G01*
X2697500Y350000D02*
G03*
X2697500Y350000I-12500J0D01*
G01*
X3133998D02*
G03*
X3133998Y350000I-12500J0D01*
G01*
X8782499Y2605000D02*
G03*
X8782499Y2605000I-12500J0D01*
G01*
X10410001D02*
G03*
X10410001Y2605000I-12500J0D01*
G01*
X11270000Y5395000D02*
G03*
X11270000Y5395000I-12500J0D01*
G01*
X9642500D02*
G03*
X9642500Y5395000I-12500J0D01*
G01*
D15*
X3683814Y4456288D02*
G03*
X3683814Y4456288I-17961J0D01*
G01*
X2990121Y3780159D02*
X3033301D01*
X2990121Y4480163D02*
X3029725D01*
X3690125Y3780159D02*
Y3822303D01*
X3688926Y4480163D02*
X3690125D01*
X2990121Y4437943D02*
Y4480163D01*
D16*
X3693035Y2349000D02*
G03*
X3693035Y2349000I-12700J0D01*
G01*
X5094407Y1259531D02*
X5043623D01*
X5069015D01*
Y1132572D01*
X5043623Y1107180D01*
X5018232D01*
X4992840Y1132572D01*
X5145191Y1234139D02*
X5170582Y1259531D01*
X5221366D01*
X5246758Y1234139D01*
Y1208747D01*
X5195974Y1157963D01*
Y1132572D02*
Y1107180D01*
D17*
X8904999Y2850000D02*
G03*
X8904999Y2850000I-30000J0D01*
G01*
X10532501D02*
G03*
X10532501Y2850000I-30000J0D01*
G01*
X11182500Y5150000D02*
G03*
X11182500Y5150000I-30000J0D01*
G01*
X9555000D02*
G03*
X9555000Y5150000I-30000J0D01*
G01*
D18*
X2904609Y6927031D02*
X3379589D01*
X2904609Y7462971D02*
X3379589D01*
X3529277Y2393541D02*
Y2657701D01*
X4235397D01*
Y2393541D02*
Y2657701D01*
X3529277Y2393541D02*
X3712437D01*
X4052233D02*
X4235397D01*
D19*
X5457983Y6619545D02*
Y6729510D01*
X5512966D01*
X5531293Y6711182D01*
Y6674527D01*
X5512966Y6656200D01*
X5457983D01*
X5494638D02*
X5531293Y6619545D01*
X5641257D02*
X5567948D01*
X5641257Y6692855D01*
Y6711182D01*
X5622930Y6729510D01*
X5586275D01*
X5567948Y6711182D01*
X5677912D02*
X5696240Y6729510D01*
X5732895D01*
X5751222Y6711182D01*
Y6637872D01*
X5732895Y6619545D01*
X5696240D01*
X5677912Y6637872D01*
Y6711182D01*
X5787877Y6601218D02*
X5861186D01*
X5897841Y6729510D02*
Y6619545D01*
X5934496Y6656200D01*
X5971151Y6619545D01*
Y6729510D01*
X6081115Y6711182D02*
X6062788Y6729510D01*
X6026133D01*
X6007806Y6711182D01*
Y6692855D01*
X6026133Y6674527D01*
X6062788D01*
X6081115Y6656200D01*
Y6637872D01*
X6062788Y6619545D01*
X6026133D01*
X6007806Y6637872D01*
X6117770Y6619545D02*
X6154425D01*
X6136097D01*
Y6729510D01*
X6117770Y6711182D01*
X6282717Y6729510D02*
X6246062Y6711182D01*
X6209407Y6674527D01*
Y6637872D01*
X6227735Y6619545D01*
X6264390D01*
X6282717Y6637872D01*
Y6656200D01*
X6264390Y6674527D01*
X6209407D01*
X4116329Y1056236D02*
X4152984D01*
X4134656D01*
Y946272D01*
X4116329D01*
X4152984D01*
X4281276Y1037909D02*
X4262949Y1056236D01*
X4226294D01*
X4207966Y1037909D01*
Y964599D01*
X4226294Y946272D01*
X4262949D01*
X4281276Y964599D01*
X4317931Y1037909D02*
X4336258Y1056236D01*
X4372913D01*
X4391240Y1037909D01*
Y1019581D01*
X4372913Y1001254D01*
X4391240Y982926D01*
Y964599D01*
X4372913Y946272D01*
X4336258D01*
X4317931Y964599D01*
Y982926D01*
X4336258Y1001254D01*
X4317931Y1019581D01*
Y1037909D01*
X4336258Y1001254D02*
X4372913D01*
X1167436Y2036705D02*
X1057472D01*
X1094126Y2073360D01*
X1057472Y2110015D01*
X1167436D01*
Y2146670D02*
X1057472D01*
Y2201652D01*
X1075799Y2219979D01*
X1112454D01*
X1130781Y2201652D01*
Y2146670D01*
X1167436Y2256634D02*
Y2293289D01*
Y2274961D01*
X1057472D01*
X1075799Y2256634D01*
X4447323Y2149215D02*
Y2259180D01*
X4483978Y2222525D01*
X4520633Y2259180D01*
Y2149215D01*
X4557287D02*
Y2259180D01*
X4612270D01*
X4630597Y2240852D01*
Y2204198D01*
X4612270Y2185870D01*
X4557287D01*
X4740562Y2149215D02*
X4667252D01*
X4740562Y2222525D01*
Y2240852D01*
X4722234Y2259180D01*
X4685579D01*
X4667252Y2240852D01*
X4393379Y4749692D02*
Y4859656D01*
X4430034Y4823002D01*
X4466689Y4859656D01*
Y4749692D01*
X4503344D02*
Y4859656D01*
X4558326D01*
X4576654Y4841329D01*
Y4804674D01*
X4558326Y4786347D01*
X4503344D01*
X4613308Y4841329D02*
X4631636Y4859656D01*
X4668291D01*
X4686618Y4841329D01*
Y4823002D01*
X4668291Y4804674D01*
X4649963D01*
X4668291D01*
X4686618Y4786347D01*
Y4768019D01*
X4668291Y4749692D01*
X4631636D01*
X4613308Y4768019D01*
X1294847Y4765409D02*
Y4875373D01*
X1331501Y4838718D01*
X1368156Y4875373D01*
Y4765409D01*
X1404811D02*
Y4875373D01*
X1459793D01*
X1478121Y4857046D01*
Y4820391D01*
X1459793Y4802063D01*
X1404811D01*
X1569758Y4765409D02*
Y4875373D01*
X1514775Y4820391D01*
X1588085D01*
X10212877Y2615908D02*
X10194550Y2597581D01*
Y2560926D01*
X10212877Y2542598D01*
X10231205D01*
X10249532Y2560926D01*
Y2597581D01*
X10267860Y2615908D01*
X10286187D01*
X10304514Y2597581D01*
Y2560926D01*
X10286187Y2542598D01*
X10304514Y2725873D02*
Y2652563D01*
X10231205Y2725873D01*
X10212877D01*
X10194550Y2707545D01*
Y2670890D01*
X10212877Y2652563D01*
X10322842Y2762527D02*
Y2835837D01*
X10212877Y2945802D02*
X10194550Y2927474D01*
Y2890819D01*
X10212877Y2872492D01*
X10231205D01*
X10249532Y2890819D01*
Y2927474D01*
X10267860Y2945802D01*
X10286187D01*
X10304514Y2927474D01*
Y2890819D01*
X10286187Y2872492D01*
X10194550Y2982456D02*
Y3019111D01*
Y3000784D01*
X10304514D01*
Y2982456D01*
Y3019111D01*
X10212877Y3074093D02*
X10194550Y3092421D01*
Y3129076D01*
X10212877Y3147403D01*
X10286187D01*
X10304514Y3129076D01*
Y3092421D01*
X10286187Y3074093D01*
X10212877D01*
X7056134Y3190804D02*
X6946169D01*
Y3245786D01*
X6964497Y3264113D01*
X7001152D01*
X7019479Y3245786D01*
Y3190804D01*
Y3227458D02*
X7056134Y3264113D01*
X6946169Y3374078D02*
X6964497Y3337423D01*
X7001152Y3300768D01*
X7037807D01*
X7056134Y3319095D01*
Y3355750D01*
X7037807Y3374078D01*
X7019479D01*
X7001152Y3355750D01*
Y3300768D01*
X6964497Y3410733D02*
X6946169Y3429060D01*
Y3465715D01*
X6964497Y3484042D01*
X6982824D01*
X7001152Y3465715D01*
Y3447387D01*
Y3465715D01*
X7019479Y3484042D01*
X7037807D01*
X7056134Y3465715D01*
Y3429060D01*
X7037807Y3410733D01*
X9932790Y5544757D02*
X9914462Y5563084D01*
X9877807D01*
X9859480Y5544757D01*
Y5526430D01*
X9877807Y5508102D01*
X9914462D01*
X9932790Y5489775D01*
Y5471447D01*
X9914462Y5453120D01*
X9877807D01*
X9859480Y5471447D01*
X10042754Y5453120D02*
X9969444D01*
X10042754Y5526430D01*
Y5544757D01*
X10024427Y5563084D01*
X9987772D01*
X9969444Y5544757D01*
X10079409Y5434793D02*
X10152719D01*
X10262683Y5544757D02*
X10244356Y5563084D01*
X10207701D01*
X10189373Y5544757D01*
Y5526430D01*
X10207701Y5508102D01*
X10244356D01*
X10262683Y5489775D01*
Y5471447D01*
X10244356Y5453120D01*
X10207701D01*
X10189373Y5471447D01*
X10299338Y5563084D02*
X10335993D01*
X10317665D01*
Y5453120D01*
X10299338D01*
X10335993D01*
X10390975D02*
X10427630D01*
X10409302D01*
Y5563084D01*
X10390975Y5544757D01*
X5928991Y2920165D02*
Y3030129D01*
X5983974D01*
X6002301Y3011802D01*
Y2975147D01*
X5983974Y2956819D01*
X5928991D01*
X5965646D02*
X6002301Y2920165D01*
X6112265Y3030129D02*
X6075610Y3011802D01*
X6038956Y2975147D01*
Y2938492D01*
X6057283Y2920165D01*
X6093938D01*
X6112265Y2938492D01*
Y2956819D01*
X6093938Y2975147D01*
X6038956D01*
X6148920Y3011802D02*
X6167248Y3030129D01*
X6203903D01*
X6222230Y3011802D01*
Y2938492D01*
X6203903Y2920165D01*
X6167248D01*
X6148920Y2938492D01*
Y3011802D01*
X6953786Y3557870D02*
Y3667834D01*
X7008768D01*
X7027095Y3649507D01*
Y3612852D01*
X7008768Y3594524D01*
X6953786D01*
X6990440D02*
X7027095Y3557870D01*
X7137060Y3667834D02*
X7063750D01*
Y3612852D01*
X7100405Y3631179D01*
X7118733D01*
X7137060Y3612852D01*
Y3576197D01*
X7118733Y3557870D01*
X7082078D01*
X7063750Y3576197D01*
X7173715Y3667834D02*
X7247024D01*
Y3649507D01*
X7173715Y3576197D01*
Y3557870D01*
X6951305Y3709232D02*
Y3819196D01*
X7006287D01*
X7024614Y3800869D01*
Y3764214D01*
X7006287Y3745887D01*
X6951305D01*
X6987959D02*
X7024614Y3709232D01*
X7134579Y3819196D02*
X7061269D01*
Y3764214D01*
X7097924Y3782542D01*
X7116251D01*
X7134579Y3764214D01*
Y3727559D01*
X7116251Y3709232D01*
X7079596D01*
X7061269Y3727559D01*
X7171234Y3800869D02*
X7189561Y3819196D01*
X7226216D01*
X7244543Y3800869D01*
Y3782542D01*
X7226216Y3764214D01*
X7207888D01*
X7226216D01*
X7244543Y3745887D01*
Y3727559D01*
X7226216Y3709232D01*
X7189561D01*
X7171234Y3727559D01*
X6313795Y4230313D02*
Y4340278D01*
X6368778D01*
X6387105Y4321950D01*
Y4285296D01*
X6368778Y4266968D01*
X6313795D01*
X6350450D02*
X6387105Y4230313D01*
X6423760D02*
X6460415D01*
X6442087D01*
Y4340278D01*
X6423760Y4321950D01*
X6515397Y4230313D02*
X6552052D01*
X6533724D01*
Y4340278D01*
X6515397Y4321950D01*
X6645337Y4329567D02*
Y4439532D01*
X6700320D01*
X6718647Y4421205D01*
Y4384550D01*
X6700320Y4366222D01*
X6645337D01*
X6681992D02*
X6718647Y4329567D01*
X6755302D02*
X6791957D01*
X6773629D01*
Y4439532D01*
X6755302Y4421205D01*
X6846939D02*
X6865266Y4439532D01*
X6901921D01*
X6920249Y4421205D01*
Y4347895D01*
X6901921Y4329567D01*
X6865266D01*
X6846939Y4347895D01*
Y4421205D01*
X6078264Y4684399D02*
Y4794364D01*
X6133247D01*
X6151574Y4776036D01*
Y4739382D01*
X6133247Y4721054D01*
X6078264D01*
X6114919D02*
X6151574Y4684399D01*
X6261538Y4794364D02*
X6188229D01*
Y4739382D01*
X6224883Y4757709D01*
X6243211D01*
X6261538Y4739382D01*
Y4702727D01*
X6243211Y4684399D01*
X6206556D01*
X6188229Y4702727D01*
X5958005Y3590912D02*
X5994660D01*
X5976333D01*
Y3480948D01*
X5958005D01*
X5994660D01*
X6122952Y3572585D02*
X6104625Y3590912D01*
X6067970D01*
X6049642Y3572585D01*
Y3499275D01*
X6067970Y3480948D01*
X6104625D01*
X6122952Y3499275D01*
X6159607Y3572585D02*
X6177934Y3590912D01*
X6214589D01*
X6232917Y3572585D01*
Y3554258D01*
X6214589Y3535930D01*
X6196262D01*
X6214589D01*
X6232917Y3517603D01*
Y3499275D01*
X6214589Y3480948D01*
X6177934D01*
X6159607Y3499275D01*
X5958594Y3850079D02*
Y3886734D01*
Y3868406D01*
X6068558D01*
Y3850079D01*
Y3886734D01*
X5976921Y4015026D02*
X5958594Y3996698D01*
Y3960043D01*
X5976921Y3941716D01*
X6050231D01*
X6068558Y3960043D01*
Y3996698D01*
X6050231Y4015026D01*
X6068558Y4124990D02*
Y4051680D01*
X5995249Y4124990D01*
X5976921D01*
X5958594Y4106663D01*
Y4070008D01*
X5976921Y4051680D01*
X6373348Y5288150D02*
X6410003D01*
X6391676D01*
Y5178186D01*
X6373348D01*
X6410003D01*
X6538295Y5269823D02*
X6519968Y5288150D01*
X6483313D01*
X6464985Y5269823D01*
Y5196513D01*
X6483313Y5178186D01*
X6519968D01*
X6538295Y5196513D01*
X6574950Y5178186D02*
X6611605D01*
X6593277D01*
Y5288150D01*
X6574950Y5269823D01*
X6798247Y2966352D02*
X6779919Y2948025D01*
Y2911370D01*
X6798247Y2893042D01*
X6871556D01*
X6889884Y2911370D01*
Y2948025D01*
X6871556Y2966352D01*
X6779919Y3076317D02*
X6798247Y3039662D01*
X6834901Y3003007D01*
X6871556D01*
X6889884Y3021334D01*
Y3057989D01*
X6871556Y3076317D01*
X6853229D01*
X6834901Y3057989D01*
Y3003007D01*
X6779919Y3186281D02*
Y3112971D01*
X6834901D01*
X6816574Y3149626D01*
Y3167954D01*
X6834901Y3186281D01*
X6871556D01*
X6889884Y3167954D01*
Y3131299D01*
X6871556Y3112971D01*
X6009745Y3158201D02*
X5991418Y3176529D01*
X5954763D01*
X5936435Y3158201D01*
Y3084891D01*
X5954763Y3066564D01*
X5991418D01*
X6009745Y3084891D01*
X6119710Y3176529D02*
X6083055Y3158201D01*
X6046400Y3121546D01*
Y3084891D01*
X6064727Y3066564D01*
X6101382D01*
X6119710Y3084891D01*
Y3103219D01*
X6101382Y3121546D01*
X6046400D01*
X6211347Y3066564D02*
Y3176529D01*
X6156364Y3121546D01*
X6229674D01*
X6362096Y3624694D02*
X6343769Y3643021D01*
X6307114D01*
X6288786Y3624694D01*
Y3551384D01*
X6307114Y3533056D01*
X6343769D01*
X6362096Y3551384D01*
X6472060Y3643021D02*
X6435405Y3624694D01*
X6398751Y3588039D01*
Y3551384D01*
X6417078Y3533056D01*
X6453733D01*
X6472060Y3551384D01*
Y3569711D01*
X6453733Y3588039D01*
X6398751D01*
X6508715Y3624694D02*
X6527043Y3643021D01*
X6563698D01*
X6582025Y3624694D01*
Y3606366D01*
X6563698Y3588039D01*
X6545370D01*
X6563698D01*
X6582025Y3569711D01*
Y3551384D01*
X6563698Y3533056D01*
X6527043D01*
X6508715Y3551384D01*
X6989310Y3936557D02*
X6970982Y3918230D01*
Y3881575D01*
X6989310Y3863247D01*
X7062619D01*
X7080947Y3881575D01*
Y3918230D01*
X7062619Y3936557D01*
X6970982Y4046521D02*
X6989310Y4009867D01*
X7025964Y3973212D01*
X7062619D01*
X7080947Y3991539D01*
Y4028194D01*
X7062619Y4046521D01*
X7044292D01*
X7025964Y4028194D01*
Y3973212D01*
X7080947Y4156486D02*
Y4083176D01*
X7007637Y4156486D01*
X6989310D01*
X6970982Y4138159D01*
Y4101504D01*
X6989310Y4083176D01*
X6790803Y4914206D02*
X6772475Y4895879D01*
Y4859224D01*
X6790803Y4840896D01*
X6864112D01*
X6882440Y4859224D01*
Y4895879D01*
X6864112Y4914206D01*
X6790803Y4950861D02*
X6772475Y4969188D01*
Y5005843D01*
X6790803Y5024171D01*
X6809130D01*
X6827457Y5005843D01*
Y4987516D01*
Y5005843D01*
X6845785Y5024171D01*
X6864112D01*
X6882440Y5005843D01*
Y4969188D01*
X6864112Y4950861D01*
X6772475Y5134135D02*
Y5060825D01*
X6827457D01*
X6809130Y5097480D01*
Y5115808D01*
X6827457Y5134135D01*
X6864112D01*
X6882440Y5115808D01*
Y5079153D01*
X6864112Y5060825D01*
X6339763Y4475794D02*
X6321436Y4494121D01*
X6284781D01*
X6266454Y4475794D01*
Y4402484D01*
X6284781Y4384157D01*
X6321436D01*
X6339763Y4402484D01*
X6449728Y4384157D02*
X6376418D01*
X6449728Y4457466D01*
Y4475794D01*
X6431400Y4494121D01*
X6394745D01*
X6376418Y4475794D01*
X6559692Y4494121D02*
X6523037Y4475794D01*
X6486383Y4439139D01*
Y4402484D01*
X6504710Y4384157D01*
X6541365D01*
X6559692Y4402484D01*
Y4420811D01*
X6541365Y4439139D01*
X6486383D01*
X1294322Y4051080D02*
X1404286D01*
Y4106063D01*
X1385959Y4124390D01*
X1312649D01*
X1294322Y4106063D01*
Y4051080D01*
X1404286Y4161045D02*
Y4197700D01*
Y4179372D01*
X1294322D01*
X1312649Y4161045D01*
X1404286Y4307664D02*
X1294322D01*
X1349304Y4252682D01*
Y4325992D01*
X1830241Y2369463D02*
Y2479427D01*
X1885223D01*
X1903551Y2461100D01*
Y2424445D01*
X1885223Y2406117D01*
X1830241D01*
X1866896D02*
X1903551Y2369463D01*
X1995188D02*
Y2479427D01*
X1940205Y2424445D01*
X2013515D01*
X2050170Y2387790D02*
X2068497Y2369463D01*
X2105152D01*
X2123480Y2387790D01*
Y2461100D01*
X2105152Y2479427D01*
X2068497D01*
X2050170Y2461100D01*
Y2442772D01*
X2068497Y2424445D01*
X2123480D01*
X1252153Y3824793D02*
Y3934757D01*
X1307135D01*
X1325463Y3916430D01*
Y3879775D01*
X1307135Y3861448D01*
X1252153D01*
X1288808D02*
X1325463Y3824793D01*
X1417100D02*
Y3934757D01*
X1362117Y3879775D01*
X1435427D01*
X1545392Y3934757D02*
X1508737Y3916430D01*
X1472082Y3879775D01*
Y3843120D01*
X1490409Y3824793D01*
X1527064D01*
X1545392Y3843120D01*
Y3861448D01*
X1527064Y3879775D01*
X1472082D01*
X1426535Y2538483D02*
X1463190D01*
X1444862D01*
Y2428519D01*
X1426535D01*
X1463190D01*
X1591482Y2520156D02*
X1573155Y2538483D01*
X1536500D01*
X1518172Y2520156D01*
Y2446846D01*
X1536500Y2428519D01*
X1573155D01*
X1591482Y2446846D01*
X1628137Y2428519D02*
X1664791D01*
X1646464D01*
Y2538483D01*
X1628137Y2520156D01*
X1719774D02*
X1738101Y2538483D01*
X1774756D01*
X1793084Y2520156D01*
Y2501828D01*
X1774756Y2483501D01*
X1793084Y2465173D01*
Y2446846D01*
X1774756Y2428519D01*
X1738101D01*
X1719774Y2446846D01*
Y2465173D01*
X1738101Y2483501D01*
X1719774Y2501828D01*
Y2520156D01*
X1738101Y2483501D02*
X1774756D01*
X1177412Y3385632D02*
Y3422287D01*
Y3403959D01*
X1287376D01*
Y3385632D01*
Y3422287D01*
X1195739Y3550579D02*
X1177412Y3532252D01*
Y3495597D01*
X1195739Y3477269D01*
X1269049D01*
X1287376Y3495597D01*
Y3532252D01*
X1269049Y3550579D01*
X1287376Y3587234D02*
Y3623888D01*
Y3605561D01*
X1177412D01*
X1195739Y3587234D01*
X1177412Y3678871D02*
Y3752180D01*
X1195739D01*
X1269049Y3678871D01*
X1287376D01*
X1541530Y1804980D02*
X1468221D01*
Y1749998D01*
X1504875D01*
X1468221D01*
Y1695016D01*
X1651495Y1804980D02*
X1614840Y1786653D01*
X1578185Y1749998D01*
Y1713343D01*
X1596512Y1695016D01*
X1633167D01*
X1651495Y1713343D01*
Y1731671D01*
X1633167Y1749998D01*
X1578185D01*
X1550345Y1343077D02*
X1477035D01*
Y1288095D01*
X1513690D01*
X1477035D01*
Y1233113D01*
X1660309Y1343077D02*
X1586999D01*
Y1288095D01*
X1623654Y1306423D01*
X1641982D01*
X1660309Y1288095D01*
Y1251440D01*
X1641982Y1233113D01*
X1605327D01*
X1586999Y1251440D01*
X2364790Y1325712D02*
X2291480D01*
Y1270730D01*
X2328135D01*
X2291480D01*
Y1215747D01*
X2456427D02*
Y1325712D01*
X2401445Y1270730D01*
X2474755D01*
X2335269Y1801528D02*
X2261959D01*
Y1746546D01*
X2298614D01*
X2261959D01*
Y1691564D01*
X2371923Y1783201D02*
X2390251Y1801528D01*
X2426906D01*
X2445233Y1783201D01*
Y1764873D01*
X2426906Y1746546D01*
X2408578D01*
X2426906D01*
X2445233Y1728218D01*
Y1709891D01*
X2426906Y1691564D01*
X2390251D01*
X2371923Y1709891D01*
X2859776Y2117039D02*
Y2007074D01*
X2914759D01*
X2933086Y2025402D01*
Y2098711D01*
X2914759Y2117039D01*
X2859776D01*
X3043051D02*
X3006396Y2098711D01*
X2969741Y2062057D01*
Y2025402D01*
X2988068Y2007074D01*
X3024723D01*
X3043051Y2025402D01*
Y2043729D01*
X3024723Y2062057D01*
X2969741D01*
X4581810Y1846165D02*
Y1956129D01*
X4636793D01*
X4655120Y1937802D01*
Y1901147D01*
X4636793Y1882820D01*
X4581810D01*
X4618465D02*
X4655120Y1846165D01*
X4746757D02*
Y1956129D01*
X4691775Y1901147D01*
X4765085D01*
X4875049Y1846165D02*
X4801739D01*
X4875049Y1919475D01*
Y1937802D01*
X4856722Y1956129D01*
X4820067D01*
X4801739Y1937802D01*
X4957532Y2343004D02*
Y2452968D01*
X5012514D01*
X5030842Y2434641D01*
Y2397986D01*
X5012514Y2379659D01*
X4957532D01*
X4994187D02*
X5030842Y2343004D01*
X5122479D02*
Y2452968D01*
X5067496Y2397986D01*
X5140806D01*
X5177461Y2434641D02*
X5195788Y2452968D01*
X5232443D01*
X5250771Y2434641D01*
Y2361331D01*
X5232443Y2343004D01*
X5195788D01*
X5177461Y2361331D01*
Y2434641D01*
X1906638Y6006773D02*
X1888310Y6025100D01*
X1851655D01*
X1833328Y6006773D01*
Y5933463D01*
X1851655Y5915136D01*
X1888310D01*
X1906638Y5933463D01*
X1943293Y6006773D02*
X1961620Y6025100D01*
X1998275D01*
X2016602Y6006773D01*
Y5988445D01*
X1998275Y5970118D01*
X1979947D01*
X1998275D01*
X2016602Y5951790D01*
Y5933463D01*
X1998275Y5915136D01*
X1961620D01*
X1943293Y5933463D01*
X2053257Y6006773D02*
X2071584Y6025100D01*
X2108239D01*
X2126567Y6006773D01*
Y5933463D01*
X2108239Y5915136D01*
X2071584D01*
X2053257Y5933463D01*
Y6006773D01*
X1201360Y5886610D02*
X1183033Y5904937D01*
X1146378D01*
X1128050Y5886610D01*
Y5813300D01*
X1146378Y5794973D01*
X1183033D01*
X1201360Y5813300D01*
X1238015Y5794973D02*
X1274670D01*
X1256342D01*
Y5904937D01*
X1238015Y5886610D01*
X1384634Y5794973D02*
Y5904937D01*
X1329652Y5849955D01*
X1402962D01*
X2926574Y6630026D02*
X2908247Y6611698D01*
Y6575043D01*
X2926574Y6556716D01*
X2944901D01*
X2963229Y6575043D01*
Y6611698D01*
X2981556Y6630026D01*
X2999884D01*
X3018211Y6611698D01*
Y6575043D01*
X2999884Y6556716D01*
X2908247Y6666681D02*
X3018211D01*
Y6721663D01*
X2999884Y6739990D01*
X2981556D01*
X2963229Y6721663D01*
Y6666681D01*
Y6721663D01*
X2944901Y6739990D01*
X2926574D01*
X2908247Y6721663D01*
Y6666681D01*
X2999884Y6776645D02*
X3018211Y6794972D01*
Y6831627D01*
X2999884Y6849955D01*
X2926574D01*
X2908247Y6831627D01*
Y6794972D01*
X2926574Y6776645D01*
X2944901D01*
X2963229Y6794972D01*
Y6849955D01*
X11655938Y4823379D02*
X11545974D01*
Y4878361D01*
X11564301Y4896689D01*
X11600956D01*
X11619284Y4878361D01*
Y4823379D01*
Y4860034D02*
X11655938Y4896689D01*
Y4933343D02*
Y4969998D01*
Y4951671D01*
X11545974D01*
X11564301Y4933343D01*
X11637611Y5024981D02*
X11655938Y5043308D01*
Y5079963D01*
X11637611Y5098290D01*
X11564301D01*
X11545974Y5079963D01*
Y5043308D01*
X11564301Y5024981D01*
X11582629D01*
X11600956Y5043308D01*
Y5098290D01*
X11674266Y5134945D02*
Y5208255D01*
X11545974Y5244909D02*
X11655938D01*
X11619284Y5281564D01*
X11655938Y5318219D01*
X11545974D01*
X11564301Y5428184D02*
X11545974Y5409856D01*
Y5373201D01*
X11564301Y5354874D01*
X11582629D01*
X11600956Y5373201D01*
Y5409856D01*
X11619284Y5428184D01*
X11637611D01*
X11655938Y5409856D01*
Y5373201D01*
X11637611Y5354874D01*
X11655938Y5464838D02*
Y5501493D01*
Y5483166D01*
X11545974D01*
X11564301Y5464838D01*
X11637611Y5556476D02*
X11655938Y5574803D01*
Y5611458D01*
X11637611Y5629785D01*
X11564301D01*
X11545974Y5611458D01*
Y5574803D01*
X11564301Y5556476D01*
X11582629D01*
X11600956Y5574803D01*
Y5629785D01*
X10796732Y6968676D02*
X10906697D01*
X10870042Y7005330D01*
X10906697Y7041985D01*
X10796732D01*
X10815060Y7151950D02*
X10796732Y7133623D01*
Y7096968D01*
X10815060Y7078640D01*
X10833387D01*
X10851714Y7096968D01*
Y7133623D01*
X10870042Y7151950D01*
X10888369D01*
X10906697Y7133623D01*
Y7096968D01*
X10888369Y7078640D01*
X10906697Y7261914D02*
Y7188605D01*
X10833387Y7261914D01*
X10815060D01*
X10796732Y7243587D01*
Y7206932D01*
X10815060Y7188605D01*
Y7298569D02*
X10796732Y7316896D01*
Y7353551D01*
X10815060Y7371879D01*
X10888369D01*
X10906697Y7353551D01*
Y7316896D01*
X10888369Y7298569D01*
X10815060D01*
X10373180Y6968676D02*
X10483145D01*
X10446490Y7005330D01*
X10483145Y7041985D01*
X10373180D01*
X10391508Y7151950D02*
X10373180Y7133623D01*
Y7096968D01*
X10391508Y7078640D01*
X10409835D01*
X10428162Y7096968D01*
Y7133623D01*
X10446490Y7151950D01*
X10464817D01*
X10483145Y7133623D01*
Y7096968D01*
X10464817Y7078640D01*
X10483145Y7188605D02*
Y7225259D01*
Y7206932D01*
X10373180D01*
X10391508Y7188605D01*
X10464817Y7280242D02*
X10483145Y7298569D01*
Y7335224D01*
X10464817Y7353551D01*
X10391508D01*
X10373180Y7335224D01*
Y7298569D01*
X10391508Y7280242D01*
X10409835D01*
X10428162Y7298569D01*
Y7353551D01*
X9999653Y6968676D02*
X10109617D01*
X10072963Y7005330D01*
X10109617Y7041985D01*
X9999653D01*
X10017980Y7151950D02*
X9999653Y7133623D01*
Y7096968D01*
X10017980Y7078640D01*
X10036308D01*
X10054635Y7096968D01*
Y7133623D01*
X10072963Y7151950D01*
X10091290D01*
X10109617Y7133623D01*
Y7096968D01*
X10091290Y7078640D01*
X10109617Y7188605D02*
Y7225259D01*
Y7206932D01*
X9999653D01*
X10017980Y7188605D01*
Y7280242D02*
X9999653Y7298569D01*
Y7335224D01*
X10017980Y7353551D01*
X10036308D01*
X10054635Y7335224D01*
X10072963Y7353551D01*
X10091290D01*
X10109617Y7335224D01*
Y7298569D01*
X10091290Y7280242D01*
X10072963D01*
X10054635Y7298569D01*
X10036308Y7280242D01*
X10017980D01*
X10054635Y7298569D02*
Y7335224D01*
X9642802Y6968676D02*
X9752767D01*
X9716112Y7005330D01*
X9752767Y7041985D01*
X9642802D01*
X9661130Y7151950D02*
X9642802Y7133623D01*
Y7096968D01*
X9661130Y7078640D01*
X9679457D01*
X9697784Y7096968D01*
Y7133623D01*
X9716112Y7151950D01*
X9734439D01*
X9752767Y7133623D01*
Y7096968D01*
X9734439Y7078640D01*
X9752767Y7188605D02*
Y7225259D01*
Y7206932D01*
X9642802D01*
X9661130Y7188605D01*
X9642802Y7280242D02*
Y7353551D01*
X9661130D01*
X9734439Y7280242D01*
X9752767D01*
X9209244Y6968676D02*
X9319209D01*
X9282554Y7005330D01*
X9319209Y7041985D01*
X9209244D01*
X9227572Y7151950D02*
X9209244Y7133623D01*
Y7096968D01*
X9227572Y7078640D01*
X9245899D01*
X9264227Y7096968D01*
Y7133623D01*
X9282554Y7151950D01*
X9300882D01*
X9319209Y7133623D01*
Y7096968D01*
X9300882Y7078640D01*
X9319209Y7188605D02*
Y7225259D01*
Y7206932D01*
X9209244D01*
X9227572Y7188605D01*
X9209244Y7353551D02*
X9227572Y7316896D01*
X9264227Y7280242D01*
X9300882D01*
X9319209Y7298569D01*
Y7335224D01*
X9300882Y7353551D01*
X9282554D01*
X9264227Y7335224D01*
Y7280242D01*
X8864347Y6968676D02*
X8974311D01*
X8937657Y7005330D01*
X8974311Y7041985D01*
X8864347D01*
X8882674Y7151950D02*
X8864347Y7133623D01*
Y7096968D01*
X8882674Y7078640D01*
X8901002D01*
X8919329Y7096968D01*
Y7133623D01*
X8937657Y7151950D01*
X8955984D01*
X8974311Y7133623D01*
Y7096968D01*
X8955984Y7078640D01*
X8974311Y7188605D02*
Y7225259D01*
Y7206932D01*
X8864347D01*
X8882674Y7188605D01*
X8864347Y7353551D02*
Y7280242D01*
X8919329D01*
X8901002Y7316896D01*
Y7335224D01*
X8919329Y7353551D01*
X8955984D01*
X8974311Y7335224D01*
Y7298569D01*
X8955984Y7280242D01*
X8492208Y6968676D02*
X8602172D01*
X8565517Y7005330D01*
X8602172Y7041985D01*
X8492208D01*
X8510535Y7151950D02*
X8492208Y7133623D01*
Y7096968D01*
X8510535Y7078640D01*
X8528862D01*
X8547190Y7096968D01*
Y7133623D01*
X8565517Y7151950D01*
X8583845D01*
X8602172Y7133623D01*
Y7096968D01*
X8583845Y7078640D01*
X8602172Y7188605D02*
Y7225259D01*
Y7206932D01*
X8492208D01*
X8510535Y7188605D01*
X8602172Y7335224D02*
X8492208D01*
X8547190Y7280242D01*
Y7353551D01*
X8105770Y6756602D02*
X8215735D01*
X8179080Y6793257D01*
X8215735Y6829912D01*
X8105770D01*
X8124098Y6939877D02*
X8105770Y6921549D01*
Y6884894D01*
X8124098Y6866567D01*
X8142425D01*
X8160752Y6884894D01*
Y6921549D01*
X8179080Y6939877D01*
X8197407D01*
X8215735Y6921549D01*
Y6884894D01*
X8197407Y6866567D01*
X8215735Y6976531D02*
Y7013186D01*
Y6994859D01*
X8105770D01*
X8124098Y6976531D01*
Y7068168D02*
X8105770Y7086496D01*
Y7123151D01*
X8124098Y7141478D01*
X8142425D01*
X8160752Y7123151D01*
Y7104823D01*
Y7123151D01*
X8179080Y7141478D01*
X8197407D01*
X8215735Y7123151D01*
Y7086496D01*
X8197407Y7068168D01*
X7695018Y6756602D02*
X7804982D01*
X7768328Y6793257D01*
X7804982Y6829912D01*
X7695018D01*
X7713345Y6939877D02*
X7695018Y6921549D01*
Y6884894D01*
X7713345Y6866567D01*
X7731673D01*
X7750000Y6884894D01*
Y6921549D01*
X7768328Y6939877D01*
X7786655D01*
X7804982Y6921549D01*
Y6884894D01*
X7786655Y6866567D01*
X7804982Y6976531D02*
Y7013186D01*
Y6994859D01*
X7695018D01*
X7713345Y6976531D01*
X7804982Y7141478D02*
Y7068168D01*
X7731673Y7141478D01*
X7713345D01*
X7695018Y7123151D01*
Y7086496D01*
X7713345Y7068168D01*
X7331431Y6754936D02*
X7441395D01*
X7404741Y6791591D01*
X7441395Y6828246D01*
X7331431D01*
X7349758Y6938210D02*
X7331431Y6919883D01*
Y6883228D01*
X7349758Y6864901D01*
X7368086D01*
X7386413Y6883228D01*
Y6919883D01*
X7404741Y6938210D01*
X7423068D01*
X7441395Y6919883D01*
Y6883228D01*
X7423068Y6864901D01*
X7441395Y6974865D02*
Y7011520D01*
Y6993193D01*
X7331431D01*
X7349758Y6974865D01*
X7441395Y7066502D02*
Y7103157D01*
Y7084830D01*
X7331431D01*
X7349758Y7066502D01*
X10735688Y670647D02*
X10845653D01*
X10808998Y707301D01*
X10845653Y743956D01*
X10735688D01*
X10754016Y853921D02*
X10735688Y835593D01*
Y798938D01*
X10754016Y780611D01*
X10772343D01*
X10790670Y798938D01*
Y835593D01*
X10808998Y853921D01*
X10827325D01*
X10845653Y835593D01*
Y798938D01*
X10827325Y780611D01*
X10845653Y890576D02*
Y927230D01*
Y908903D01*
X10735688D01*
X10754016Y890576D01*
Y982213D02*
X10735688Y1000540D01*
Y1037195D01*
X10754016Y1055522D01*
X10827325D01*
X10845653Y1037195D01*
Y1000540D01*
X10827325Y982213D01*
X10754016D01*
X10370847Y670647D02*
X10480811D01*
X10444156Y707301D01*
X10480811Y743956D01*
X10370847D01*
X10389174Y853921D02*
X10370847Y835593D01*
Y798938D01*
X10389174Y780611D01*
X10407501D01*
X10425829Y798938D01*
Y835593D01*
X10444156Y853921D01*
X10462484D01*
X10480811Y835593D01*
Y798938D01*
X10462484Y780611D01*
Y890576D02*
X10480811Y908903D01*
Y945558D01*
X10462484Y963885D01*
X10389174D01*
X10370847Y945558D01*
Y908903D01*
X10389174Y890576D01*
X10407501D01*
X10425829Y908903D01*
Y963885D01*
X9984062Y670647D02*
X10094026D01*
X10057371Y707301D01*
X10094026Y743956D01*
X9984062D01*
X10002389Y853921D02*
X9984062Y835593D01*
Y798938D01*
X10002389Y780611D01*
X10020716D01*
X10039044Y798938D01*
Y835593D01*
X10057371Y853921D01*
X10075699D01*
X10094026Y835593D01*
Y798938D01*
X10075699Y780611D01*
X10002389Y890576D02*
X9984062Y908903D01*
Y945558D01*
X10002389Y963885D01*
X10020716D01*
X10039044Y945558D01*
X10057371Y963885D01*
X10075699D01*
X10094026Y945558D01*
Y908903D01*
X10075699Y890576D01*
X10057371D01*
X10039044Y908903D01*
X10020716Y890576D01*
X10002389D01*
X10039044Y908903D02*
Y945558D01*
X9594531Y670647D02*
X9704496D01*
X9667841Y707301D01*
X9704496Y743956D01*
X9594531D01*
X9612859Y853921D02*
X9594531Y835593D01*
Y798938D01*
X9612859Y780611D01*
X9631186D01*
X9649513Y798938D01*
Y835593D01*
X9667841Y853921D01*
X9686168D01*
X9704496Y835593D01*
Y798938D01*
X9686168Y780611D01*
X9594531Y890576D02*
Y963885D01*
X9612859D01*
X9686168Y890576D01*
X9704496D01*
X9215974Y670647D02*
X9325938D01*
X9289283Y707301D01*
X9325938Y743956D01*
X9215974D01*
X9234301Y853921D02*
X9215974Y835593D01*
Y798938D01*
X9234301Y780611D01*
X9252628D01*
X9270956Y798938D01*
Y835593D01*
X9289283Y853921D01*
X9307611D01*
X9325938Y835593D01*
Y798938D01*
X9307611Y780611D01*
X9215974Y963885D02*
X9234301Y927230D01*
X9270956Y890576D01*
X9307611D01*
X9325938Y908903D01*
Y945558D01*
X9307611Y963885D01*
X9289283D01*
X9270956Y945558D01*
Y890576D01*
X8842904Y670647D02*
X8952868D01*
X8916213Y707301D01*
X8952868Y743956D01*
X8842904D01*
X8861231Y853921D02*
X8842904Y835593D01*
Y798938D01*
X8861231Y780611D01*
X8879558D01*
X8897886Y798938D01*
Y835593D01*
X8916213Y853921D01*
X8934541D01*
X8952868Y835593D01*
Y798938D01*
X8934541Y780611D01*
X8842904Y963885D02*
Y890576D01*
X8897886D01*
X8879558Y927230D01*
Y945558D01*
X8897886Y963885D01*
X8934541D01*
X8952868Y945558D01*
Y908903D01*
X8934541Y890576D01*
X8456116Y670647D02*
X8566081D01*
X8529426Y707301D01*
X8566081Y743956D01*
X8456116D01*
X8474444Y853921D02*
X8456116Y835593D01*
Y798938D01*
X8474444Y780611D01*
X8492771D01*
X8511099Y798938D01*
Y835593D01*
X8529426Y853921D01*
X8547754D01*
X8566081Y835593D01*
Y798938D01*
X8547754Y780611D01*
X8566081Y945558D02*
X8456116D01*
X8511099Y890576D01*
Y963885D01*
X8072073Y670647D02*
X8182037D01*
X8145382Y707301D01*
X8182037Y743956D01*
X8072073D01*
X8090400Y853921D02*
X8072073Y835593D01*
Y798938D01*
X8090400Y780611D01*
X8108727D01*
X8127055Y798938D01*
Y835593D01*
X8145382Y853921D01*
X8163710D01*
X8182037Y835593D01*
Y798938D01*
X8163710Y780611D01*
X8090400Y890576D02*
X8072073Y908903D01*
Y945558D01*
X8090400Y963885D01*
X8108727D01*
X8127055Y945558D01*
Y927230D01*
Y945558D01*
X8145382Y963885D01*
X8163710D01*
X8182037Y945558D01*
Y908903D01*
X8163710Y890576D01*
X7690773Y670647D02*
X7800737D01*
X7764083Y707301D01*
X7800737Y743956D01*
X7690773D01*
X7709100Y853921D02*
X7690773Y835593D01*
Y798938D01*
X7709100Y780611D01*
X7727428D01*
X7745755Y798938D01*
Y835593D01*
X7764083Y853921D01*
X7782410D01*
X7800737Y835593D01*
Y798938D01*
X7782410Y780611D01*
X7800737Y963885D02*
Y890576D01*
X7727428Y963885D01*
X7709100D01*
X7690773Y945558D01*
Y908903D01*
X7709100Y890576D01*
X7329280Y799569D02*
X7439244D01*
X7402590Y836223D01*
X7439244Y872878D01*
X7329280D01*
X7347607Y982843D02*
X7329280Y964515D01*
Y927860D01*
X7347607Y909533D01*
X7365935D01*
X7384262Y927860D01*
Y964515D01*
X7402590Y982843D01*
X7420917D01*
X7439244Y964515D01*
Y927860D01*
X7420917Y909533D01*
X7439244Y1019498D02*
Y1056152D01*
Y1037825D01*
X7329280D01*
X7347607Y1019498D01*
X2979960Y4704045D02*
Y4612408D01*
X2998287Y4594080D01*
X3034942D01*
X3053270Y4612408D01*
Y4704045D01*
X3144907Y4594080D02*
Y4704045D01*
X3089924Y4649063D01*
X3163234D01*
X5643893Y1623621D02*
X5625566Y1641948D01*
X5588911D01*
X5570583Y1623621D01*
Y1605293D01*
X5588911Y1586966D01*
X5625566D01*
X5643893Y1568638D01*
Y1550311D01*
X5625566Y1531983D01*
X5588911D01*
X5570583Y1550311D01*
X5680548Y1641948D02*
Y1531983D01*
X5735530D01*
X5753858Y1550311D01*
Y1568638D01*
X5735530Y1586966D01*
X5680548D01*
X5735530D01*
X5753858Y1605293D01*
Y1623621D01*
X5735530Y1641948D01*
X5680548D01*
X5863822Y1531983D02*
X5790512D01*
X5863822Y1605293D01*
Y1623621D01*
X5845495Y1641948D01*
X5808840D01*
X5790512Y1623621D01*
X5900477D02*
X5918804Y1641948D01*
X5955459D01*
X5973787Y1623621D01*
Y1550311D01*
X5955459Y1531983D01*
X5918804D01*
X5900477Y1550311D01*
Y1623621D01*
X1406606Y2753954D02*
X1388278Y2735627D01*
Y2698972D01*
X1406606Y2680645D01*
X1424933D01*
X1443260Y2698972D01*
Y2735627D01*
X1461588Y2753954D01*
X1479915D01*
X1498243Y2735627D01*
Y2698972D01*
X1479915Y2680645D01*
X1388278Y2790609D02*
X1498243D01*
Y2845591D01*
X1479915Y2863919D01*
X1461588D01*
X1443260Y2845591D01*
Y2790609D01*
Y2845591D01*
X1424933Y2863919D01*
X1406606D01*
X1388278Y2845591D01*
Y2790609D01*
X1498243Y2900574D02*
Y2937228D01*
Y2918901D01*
X1388278D01*
X1406606Y2900574D01*
X1388278Y3065520D02*
Y2992211D01*
X1443260D01*
X1424933Y3028865D01*
Y3047193D01*
X1443260Y3065520D01*
X1479915D01*
X1498243Y3047193D01*
Y3010538D01*
X1479915Y2992211D01*
X4707166Y7788250D02*
X4688838Y7806578D01*
X4652183D01*
X4633856Y7788250D01*
Y7769923D01*
X4652183Y7751596D01*
X4688838D01*
X4707166Y7733268D01*
Y7714941D01*
X4688838Y7696613D01*
X4652183D01*
X4633856Y7714941D01*
X4743820Y7806578D02*
Y7696613D01*
X4798803D01*
X4817130Y7714941D01*
Y7733268D01*
X4798803Y7751596D01*
X4743820D01*
X4798803D01*
X4817130Y7769923D01*
Y7788250D01*
X4798803Y7806578D01*
X4743820D01*
X4853785Y7696613D02*
X4890440D01*
X4872112D01*
Y7806578D01*
X4853785Y7788250D01*
X4945422D02*
X4963749Y7806578D01*
X5000404D01*
X5018732Y7788250D01*
Y7769923D01*
X5000404Y7751596D01*
X4982077D01*
X5000404D01*
X5018732Y7733268D01*
Y7714941D01*
X5000404Y7696613D01*
X4963749D01*
X4945422Y7714941D01*
X2591816Y3466072D02*
X2573489Y3447745D01*
Y3411090D01*
X2591816Y3392763D01*
X2610144D01*
X2628471Y3411090D01*
Y3447745D01*
X2646799Y3466072D01*
X2665126D01*
X2683453Y3447745D01*
Y3411090D01*
X2665126Y3392763D01*
X2573489Y3502727D02*
X2683453D01*
Y3557709D01*
X2665126Y3576037D01*
X2646799D01*
X2628471Y3557709D01*
Y3502727D01*
Y3557709D01*
X2610144Y3576037D01*
X2591816D01*
X2573489Y3557709D01*
Y3502727D01*
X2683453Y3612692D02*
Y3649346D01*
Y3631019D01*
X2573489D01*
X2591816Y3612692D01*
Y3704329D02*
X2573489Y3722656D01*
Y3759311D01*
X2591816Y3777638D01*
X2665126D01*
X2683453Y3759311D01*
Y3722656D01*
X2665126Y3704329D01*
X2591816D01*
X3281358Y3148077D02*
X3263031Y3166405D01*
X3226376D01*
X3208048Y3148077D01*
Y3129750D01*
X3226376Y3111423D01*
X3263031D01*
X3281358Y3093095D01*
Y3074768D01*
X3263031Y3056440D01*
X3226376D01*
X3208048Y3074768D01*
X3318013Y3166405D02*
Y3056440D01*
X3372995D01*
X3391322Y3074768D01*
Y3093095D01*
X3372995Y3111423D01*
X3318013D01*
X3372995D01*
X3391322Y3129750D01*
Y3148077D01*
X3372995Y3166405D01*
X3318013D01*
X3427977Y3148077D02*
X3446305Y3166405D01*
X3482960D01*
X3501287Y3148077D01*
Y3129750D01*
X3482960Y3111423D01*
X3501287Y3093095D01*
Y3074768D01*
X3482960Y3056440D01*
X3446305D01*
X3427977Y3074768D01*
Y3093095D01*
X3446305Y3111423D01*
X3427977Y3129750D01*
Y3148077D01*
X3446305Y3111423D02*
X3482960D01*
X3292802Y3001216D02*
X3274474Y3019543D01*
X3237819D01*
X3219492Y3001216D01*
Y2982889D01*
X3237819Y2964561D01*
X3274474D01*
X3292802Y2946234D01*
Y2927906D01*
X3274474Y2909579D01*
X3237819D01*
X3219492Y2927906D01*
X3329456Y3019543D02*
Y2909579D01*
X3384439D01*
X3402766Y2927906D01*
Y2946234D01*
X3384439Y2964561D01*
X3329456D01*
X3384439D01*
X3402766Y2982889D01*
Y3001216D01*
X3384439Y3019543D01*
X3329456D01*
X3439421D02*
X3512731D01*
Y3001216D01*
X3439421Y2927906D01*
Y2909579D01*
X1903551Y2190179D02*
X1885223Y2208506D01*
X1848568D01*
X1830241Y2190179D01*
Y2171851D01*
X1848568Y2153524D01*
X1885223D01*
X1903551Y2135196D01*
Y2116869D01*
X1885223Y2098542D01*
X1848568D01*
X1830241Y2116869D01*
X1940205Y2208506D02*
Y2098542D01*
X1995188D01*
X2013515Y2116869D01*
Y2135196D01*
X1995188Y2153524D01*
X1940205D01*
X1995188D01*
X2013515Y2171851D01*
Y2190179D01*
X1995188Y2208506D01*
X1940205D01*
X2123480D02*
X2086825Y2190179D01*
X2050170Y2153524D01*
Y2116869D01*
X2068497Y2098542D01*
X2105152D01*
X2123480Y2116869D01*
Y2135196D01*
X2105152Y2153524D01*
X2050170D01*
X2302211Y3140542D02*
X2283884Y3122215D01*
Y3085560D01*
X2302211Y3067233D01*
X2320538D01*
X2338866Y3085560D01*
Y3122215D01*
X2357193Y3140542D01*
X2375521D01*
X2393848Y3122215D01*
Y3085560D01*
X2375521Y3067233D01*
X2283884Y3177197D02*
X2393848D01*
Y3232179D01*
X2375521Y3250507D01*
X2357193D01*
X2338866Y3232179D01*
Y3177197D01*
Y3232179D01*
X2320538Y3250507D01*
X2302211D01*
X2283884Y3232179D01*
Y3177197D01*
Y3360471D02*
Y3287162D01*
X2338866D01*
X2320538Y3323816D01*
Y3342144D01*
X2338866Y3360471D01*
X2375521D01*
X2393848Y3342144D01*
Y3305489D01*
X2375521Y3287162D01*
X1469172Y2154115D02*
Y2264080D01*
X1524154D01*
X1542481Y2245752D01*
Y2209098D01*
X1524154Y2190770D01*
X1469172D01*
X1505826D02*
X1542481Y2154115D01*
X1579136Y2245752D02*
X1597463Y2264080D01*
X1634118D01*
X1652446Y2245752D01*
Y2227425D01*
X1634118Y2209098D01*
X1615791D01*
X1634118D01*
X1652446Y2190770D01*
Y2172443D01*
X1634118Y2154115D01*
X1597463D01*
X1579136Y2172443D01*
X2200519Y2439529D02*
Y2549493D01*
X2255501D01*
X2273829Y2531166D01*
Y2494511D01*
X2255501Y2476183D01*
X2200519D01*
X2237174D02*
X2273829Y2439529D01*
X2383793D02*
X2310483D01*
X2383793Y2512838D01*
Y2531166D01*
X2365466Y2549493D01*
X2328811D01*
X2310483Y2531166D01*
X2826677Y3965802D02*
X2936641D01*
Y4039112D01*
X2845004Y4075767D02*
X2826677Y4094094D01*
Y4130749D01*
X2845004Y4149076D01*
X2863331D01*
X2881659Y4130749D01*
X2899986Y4149076D01*
X2918314D01*
X2936641Y4130749D01*
Y4094094D01*
X2918314Y4075767D01*
X2899986D01*
X2881659Y4094094D01*
X2863331Y4075767D01*
X2845004D01*
X2881659Y4094094D02*
Y4130749D01*
X1350763Y3462385D02*
Y3352421D01*
X1424073D01*
X1460728Y3462385D02*
X1534038D01*
Y3444058D01*
X1460728Y3370748D01*
Y3352421D01*
X2490124Y4401563D02*
Y4291599D01*
X2563433D01*
X2673398Y4401563D02*
X2636743Y4383236D01*
X2600088Y4346581D01*
Y4309926D01*
X2618415Y4291599D01*
X2655070D01*
X2673398Y4309926D01*
Y4328254D01*
X2655070Y4346581D01*
X2600088D01*
X1677543Y3968583D02*
Y3858618D01*
X1750853D01*
X1860817Y3968583D02*
X1787507D01*
Y3913601D01*
X1824162Y3931928D01*
X1842490D01*
X1860817Y3913601D01*
Y3876946D01*
X1842490Y3858618D01*
X1805835D01*
X1787507Y3876946D01*
X2021764Y4102104D02*
Y3992140D01*
X2095074D01*
X2186711D02*
Y4102104D01*
X2131728Y4047122D01*
X2205038D01*
X2440364Y3393136D02*
X2550328D01*
Y3466446D01*
X2458691Y3503100D02*
X2440364Y3521428D01*
Y3558083D01*
X2458691Y3576410D01*
X2477018D01*
X2495346Y3558083D01*
Y3539755D01*
Y3558083D01*
X2513673Y3576410D01*
X2532001D01*
X2550328Y3558083D01*
Y3521428D01*
X2532001Y3503100D01*
X4587853Y3917878D02*
Y3807913D01*
X4661163D01*
X4697818D02*
X4734472D01*
X4716145D01*
Y3917878D01*
X4697818Y3899550D01*
X9935841Y3803536D02*
Y3840191D01*
Y3821863D01*
X10045805D01*
Y3803536D01*
Y3840191D01*
X9954168Y3968483D02*
X9935841Y3950155D01*
Y3913500D01*
X9954168Y3895173D01*
X10027478D01*
X10045805Y3913500D01*
Y3950155D01*
X10027478Y3968483D01*
X10045805Y4005138D02*
Y4041792D01*
Y4023465D01*
X9935841D01*
X9954168Y4005138D01*
X9935841Y4170084D02*
X9954168Y4133429D01*
X9990823Y4096775D01*
X10027478D01*
X10045805Y4115102D01*
Y4151757D01*
X10027478Y4170084D01*
X10009150D01*
X9990823Y4151757D01*
Y4096775D01*
X3520185Y3419572D02*
X3501858Y3401244D01*
Y3364589D01*
X3520185Y3346262D01*
X3593495D01*
X3611822Y3364589D01*
Y3401244D01*
X3593495Y3419572D01*
X3501858Y3456226D02*
Y3529536D01*
X3520185D01*
X3593495Y3456226D01*
X3611822D01*
X3593495Y3566191D02*
X3611822Y3584518D01*
Y3621173D01*
X3593495Y3639500D01*
X3520185D01*
X3501858Y3621173D01*
Y3584518D01*
X3520185Y3566191D01*
X3538513D01*
X3556840Y3584518D01*
Y3639500D01*
X3143644Y3329053D02*
X3125317Y3310725D01*
Y3274070D01*
X3143644Y3255743D01*
X3216954D01*
X3235281Y3274070D01*
Y3310725D01*
X3216954Y3329053D01*
X3125317Y3439017D02*
Y3365708D01*
X3180299D01*
X3161971Y3402362D01*
Y3420690D01*
X3180299Y3439017D01*
X3216954D01*
X3235281Y3420690D01*
Y3384035D01*
X3216954Y3365708D01*
X3125317Y3475672D02*
Y3548982D01*
X3143644D01*
X3216954Y3475672D01*
X3235281D01*
X3567452Y3289217D02*
X3549124Y3307544D01*
X3512469D01*
X3494142Y3289217D01*
Y3215907D01*
X3512469Y3197580D01*
X3549124D01*
X3567452Y3215907D01*
X3604107Y3289217D02*
X3622434Y3307544D01*
X3659089D01*
X3677416Y3289217D01*
Y3270890D01*
X3659089Y3252562D01*
X3640761D01*
X3659089D01*
X3677416Y3234235D01*
Y3215907D01*
X3659089Y3197580D01*
X3622434D01*
X3604107Y3215907D01*
X3714071Y3307544D02*
X3787381D01*
Y3289217D01*
X3714071Y3215907D01*
Y3197580D01*
X2545820Y4497677D02*
X2527492Y4516004D01*
X2490837D01*
X2472510Y4497677D01*
Y4424367D01*
X2490837Y4406040D01*
X2527492D01*
X2545820Y4424367D01*
X2582474Y4497677D02*
X2600802Y4516004D01*
X2637457D01*
X2655784Y4497677D01*
Y4479349D01*
X2637457Y4461022D01*
X2619129D01*
X2637457D01*
X2655784Y4442694D01*
Y4424367D01*
X2637457Y4406040D01*
X2600802D01*
X2582474Y4424367D01*
X2765749Y4516004D02*
X2729094Y4497677D01*
X2692439Y4461022D01*
Y4424367D01*
X2710766Y4406040D01*
X2747421D01*
X2765749Y4424367D01*
Y4442694D01*
X2747421Y4461022D01*
X2692439D01*
X1228281Y2774064D02*
X1209954Y2755736D01*
Y2719081D01*
X1228281Y2700754D01*
X1301591D01*
X1319918Y2719081D01*
Y2755736D01*
X1301591Y2774064D01*
X1228281Y2810718D02*
X1209954Y2829046D01*
Y2865701D01*
X1228281Y2884028D01*
X1246609D01*
X1264936Y2865701D01*
Y2847373D01*
Y2865701D01*
X1283264Y2884028D01*
X1301591D01*
X1319918Y2865701D01*
Y2829046D01*
X1301591Y2810718D01*
X1319918Y2975665D02*
X1209954D01*
X1264936Y2920683D01*
Y2993992D01*
X934448Y2971892D02*
X916120Y2953565D01*
Y2916910D01*
X934448Y2898583D01*
X1007757D01*
X1026085Y2916910D01*
Y2953565D01*
X1007757Y2971892D01*
X934448Y3008547D02*
X916120Y3026875D01*
Y3063530D01*
X934448Y3081857D01*
X952775D01*
X971102Y3063530D01*
Y3045202D01*
Y3063530D01*
X989430Y3081857D01*
X1007757D01*
X1026085Y3063530D01*
Y3026875D01*
X1007757Y3008547D01*
X934448Y3118512D02*
X916120Y3136839D01*
Y3173494D01*
X934448Y3191821D01*
X952775D01*
X971102Y3173494D01*
Y3155166D01*
Y3173494D01*
X989430Y3191821D01*
X1007757D01*
X1026085Y3173494D01*
Y3136839D01*
X1007757Y3118512D01*
X2283527Y4392383D02*
X2265200Y4374056D01*
Y4337401D01*
X2283527Y4319074D01*
X2356837D01*
X2375164Y4337401D01*
Y4374056D01*
X2356837Y4392383D01*
X2283527Y4429038D02*
X2265200Y4447366D01*
Y4484020D01*
X2283527Y4502348D01*
X2301855D01*
X2320182Y4484020D01*
Y4465693D01*
Y4484020D01*
X2338510Y4502348D01*
X2356837D01*
X2375164Y4484020D01*
Y4447366D01*
X2356837Y4429038D01*
X2375164Y4612312D02*
Y4539003D01*
X2301855Y4612312D01*
X2283527D01*
X2265200Y4593985D01*
Y4557330D01*
X2283527Y4539003D01*
X2548155Y4623795D02*
X2529828Y4642123D01*
X2493173D01*
X2474846Y4623795D01*
Y4550486D01*
X2493173Y4532158D01*
X2529828D01*
X2548155Y4550486D01*
X2658120Y4532158D02*
X2584810D01*
X2658120Y4605468D01*
Y4623795D01*
X2639793Y4642123D01*
X2603138D01*
X2584810Y4623795D01*
X2694775Y4550486D02*
X2713102Y4532158D01*
X2749757D01*
X2768084Y4550486D01*
Y4623795D01*
X2749757Y4642123D01*
X2713102D01*
X2694775Y4623795D01*
Y4605468D01*
X2713102Y4587141D01*
X2768084D01*
X1519350Y2380504D02*
X1501022Y2398831D01*
X1464367D01*
X1446040Y2380504D01*
Y2307194D01*
X1464367Y2288867D01*
X1501022D01*
X1519350Y2307194D01*
X1629314Y2288867D02*
X1556005D01*
X1629314Y2362177D01*
Y2380504D01*
X1610987Y2398831D01*
X1574332D01*
X1556005Y2380504D01*
X1665969D02*
X1684296Y2398831D01*
X1720951D01*
X1739279Y2380504D01*
Y2362177D01*
X1720951Y2343849D01*
X1739279Y2325522D01*
Y2307194D01*
X1720951Y2288867D01*
X1684296D01*
X1665969Y2307194D01*
Y2325522D01*
X1684296Y2343849D01*
X1665969Y2362177D01*
Y2380504D01*
X1684296Y2343849D02*
X1720951D01*
X1321596Y3541638D02*
X1303269Y3559965D01*
X1266614D01*
X1248287Y3541638D01*
Y3468328D01*
X1266614Y3450000D01*
X1303269D01*
X1321596Y3468328D01*
X1431561Y3450000D02*
X1358251D01*
X1431561Y3523310D01*
Y3541638D01*
X1413233Y3559965D01*
X1376578D01*
X1358251Y3541638D01*
X1468216Y3559965D02*
X1541525D01*
Y3541638D01*
X1468216Y3468328D01*
Y3450000D01*
X1903551Y2610573D02*
X1885223Y2628901D01*
X1848568D01*
X1830241Y2610573D01*
Y2537263D01*
X1848568Y2518936D01*
X1885223D01*
X1903551Y2537263D01*
X2013515Y2518936D02*
X1940205D01*
X2013515Y2592246D01*
Y2610573D01*
X1995188Y2628901D01*
X1958533D01*
X1940205Y2610573D01*
X2123480Y2628901D02*
X2050170D01*
Y2573918D01*
X2086825Y2592246D01*
X2105152D01*
X2123480Y2573918D01*
Y2537263D01*
X2105152Y2518936D01*
X2068497D01*
X2050170Y2537263D01*
X2292275Y3477448D02*
X2273947Y3459121D01*
Y3422466D01*
X2292275Y3404139D01*
X2365584D01*
X2383912Y3422466D01*
Y3459121D01*
X2365584Y3477448D01*
X2383912Y3587413D02*
Y3514103D01*
X2310602Y3587413D01*
X2292275D01*
X2273947Y3569086D01*
Y3532431D01*
X2292275Y3514103D01*
X2383912Y3679050D02*
X2273947D01*
X2328929Y3624068D01*
Y3697377D01*
X1898767Y4115058D02*
X1880439Y4096730D01*
Y4060075D01*
X1898767Y4041748D01*
X1972076D01*
X1990404Y4060075D01*
Y4096730D01*
X1972076Y4115058D01*
X1990404Y4225022D02*
Y4151712D01*
X1917094Y4225022D01*
X1898767D01*
X1880439Y4206695D01*
Y4170040D01*
X1898767Y4151712D01*
Y4261677D02*
X1880439Y4280004D01*
Y4316659D01*
X1898767Y4334987D01*
X1917094D01*
X1935421Y4316659D01*
Y4298332D01*
Y4316659D01*
X1953749Y4334987D01*
X1972076D01*
X1990404Y4316659D01*
Y4280004D01*
X1972076Y4261677D01*
X1671500Y4058241D02*
X1653172Y4039914D01*
Y4003259D01*
X1671500Y3984932D01*
X1744809D01*
X1763137Y4003259D01*
Y4039914D01*
X1744809Y4058241D01*
X1763137Y4168206D02*
Y4094896D01*
X1689827Y4168206D01*
X1671500D01*
X1653172Y4149878D01*
Y4113223D01*
X1671500Y4094896D01*
X1763137Y4278170D02*
Y4204861D01*
X1689827Y4278170D01*
X1671500D01*
X1653172Y4259843D01*
Y4223188D01*
X1671500Y4204861D01*
X2087700Y3925474D02*
X2069373Y3943801D01*
X2032718D01*
X2014391Y3925474D01*
Y3852164D01*
X2032718Y3833837D01*
X2069373D01*
X2087700Y3852164D01*
X2197665Y3833837D02*
X2124355D01*
X2197665Y3907146D01*
Y3925474D01*
X2179338Y3943801D01*
X2142683D01*
X2124355Y3925474D01*
X2234320Y3833837D02*
X2270974D01*
X2252647D01*
Y3943801D01*
X2234320Y3925474D01*
X3083000Y3682119D02*
X3064672Y3700447D01*
X3028017D01*
X3009690Y3682119D01*
Y3608810D01*
X3028017Y3590482D01*
X3064672D01*
X3083000Y3608810D01*
X3192964Y3590482D02*
X3119654D01*
X3192964Y3663792D01*
Y3682119D01*
X3174637Y3700447D01*
X3137982D01*
X3119654Y3682119D01*
X3229619D02*
X3247946Y3700447D01*
X3284601D01*
X3302929Y3682119D01*
Y3608810D01*
X3284601Y3590482D01*
X3247946D01*
X3229619Y3608810D01*
Y3682119D01*
X2719122Y3167436D02*
X2700795Y3149109D01*
Y3112454D01*
X2719122Y3094126D01*
X2792432D01*
X2810759Y3112454D01*
Y3149109D01*
X2792432Y3167436D01*
X2810759Y3204091D02*
Y3240745D01*
Y3222418D01*
X2700795D01*
X2719122Y3204091D01*
X2792432Y3295728D02*
X2810759Y3314055D01*
Y3350710D01*
X2792432Y3369037D01*
X2719122D01*
X2700795Y3350710D01*
Y3314055D01*
X2719122Y3295728D01*
X2737450D01*
X2755777Y3314055D01*
Y3369037D01*
X1903551Y2325639D02*
X1885223Y2343967D01*
X1848568D01*
X1830241Y2325639D01*
Y2252330D01*
X1848568Y2234002D01*
X1885223D01*
X1903551Y2252330D01*
X1940205Y2234002D02*
X1976860D01*
X1958533D01*
Y2343967D01*
X1940205Y2325639D01*
X2031843Y2343967D02*
X2105152D01*
Y2325639D01*
X2031843Y2252330D01*
Y2234002D01*
X2304547Y2834410D02*
X2286219Y2816083D01*
Y2779428D01*
X2304547Y2761100D01*
X2377857D01*
X2396184Y2779428D01*
Y2816083D01*
X2377857Y2834410D01*
X2396184Y2871065D02*
Y2907720D01*
Y2889392D01*
X2286219D01*
X2304547Y2871065D01*
X2286219Y3036012D02*
Y2962702D01*
X2341202D01*
X2322874Y2999357D01*
Y3017684D01*
X2341202Y3036012D01*
X2377857D01*
X2396184Y3017684D01*
Y2981029D01*
X2377857Y2962702D01*
X487305Y3814442D02*
X468977Y3832770D01*
X432322D01*
X413995Y3814442D01*
Y3741132D01*
X432322Y3722805D01*
X468977D01*
X487305Y3741132D01*
X523960Y3722805D02*
X560614D01*
X542287D01*
Y3832770D01*
X523960Y3814442D01*
X615597D02*
X633924Y3832770D01*
X670579D01*
X688906Y3814442D01*
Y3796115D01*
X670579Y3777787D01*
X652251D01*
X670579D01*
X688906Y3759460D01*
Y3741132D01*
X670579Y3722805D01*
X633924D01*
X615597Y3741132D01*
X3976028Y4706621D02*
X3957701Y4688294D01*
Y4651639D01*
X3976028Y4633311D01*
X4049338D01*
X4067665Y4651639D01*
Y4688294D01*
X4049338Y4706621D01*
X4067665Y4743276D02*
Y4779930D01*
Y4761603D01*
X3957701D01*
X3976028Y4743276D01*
X4067665Y4908223D02*
Y4834913D01*
X3994355Y4908223D01*
X3976028D01*
X3957701Y4889895D01*
Y4853240D01*
X3976028Y4834913D01*
X4115261Y4753558D02*
X4096933Y4735231D01*
Y4698576D01*
X4115261Y4680248D01*
X4188570D01*
X4206898Y4698576D01*
Y4735231D01*
X4188570Y4753558D01*
X4206898Y4790213D02*
Y4826867D01*
Y4808540D01*
X4096933D01*
X4115261Y4790213D01*
X4206898Y4881850D02*
Y4918505D01*
Y4900177D01*
X4096933D01*
X4115261Y4881850D01*
X3988634Y3741245D02*
X3970307Y3759572D01*
X3933652D01*
X3915324Y3741245D01*
Y3667935D01*
X3933652Y3649608D01*
X3970307D01*
X3988634Y3667935D01*
X4025289Y3741245D02*
X4043616Y3759572D01*
X4080271D01*
X4098598Y3741245D01*
Y3722918D01*
X4080271Y3704590D01*
X4098598Y3686263D01*
Y3667935D01*
X4080271Y3649608D01*
X4043616D01*
X4025289Y3667935D01*
Y3686263D01*
X4043616Y3704590D01*
X4025289Y3722918D01*
Y3741245D01*
X4043616Y3704590D02*
X4080271D01*
X3984819Y3569589D02*
X3966492Y3587916D01*
X3929837D01*
X3911510Y3569589D01*
Y3496279D01*
X3929837Y3477952D01*
X3966492D01*
X3984819Y3496279D01*
X4021474Y3587916D02*
X4094784D01*
Y3569589D01*
X4021474Y3496279D01*
Y3477952D01*
X4663816Y4046412D02*
X4645488Y4064739D01*
X4608833D01*
X4590506Y4046412D01*
Y3973102D01*
X4608833Y3954775D01*
X4645488D01*
X4663816Y3973102D01*
X4773780Y4064739D02*
X4737125Y4046412D01*
X4700470Y4009757D01*
Y3973102D01*
X4718798Y3954775D01*
X4755453D01*
X4773780Y3973102D01*
Y3991429D01*
X4755453Y4009757D01*
X4700470D01*
X4295708Y4240956D02*
X4277381Y4259283D01*
X4240726D01*
X4222398Y4240956D01*
Y4167646D01*
X4240726Y4149319D01*
X4277381D01*
X4295708Y4167646D01*
X4387345Y4149319D02*
Y4259283D01*
X4332363Y4204301D01*
X4405673D01*
X3374486Y4906601D02*
X3356158Y4924928D01*
X3319503D01*
X3301176Y4906601D01*
Y4833291D01*
X3319503Y4814964D01*
X3356158D01*
X3374486Y4833291D01*
X3411140Y4906601D02*
X3429468Y4924928D01*
X3466123D01*
X3484450Y4906601D01*
Y4888274D01*
X3466123Y4869946D01*
X3447795D01*
X3466123D01*
X3484450Y4851619D01*
Y4833291D01*
X3466123Y4814964D01*
X3429468D01*
X3411140Y4833291D01*
X3059783Y5162178D02*
X3041455Y5180505D01*
X3004800D01*
X2986473Y5162178D01*
Y5088868D01*
X3004800Y5070541D01*
X3041455D01*
X3059783Y5088868D01*
X3169747Y5070541D02*
X3096438D01*
X3169747Y5143851D01*
Y5162178D01*
X3151420Y5180505D01*
X3114765D01*
X3096438Y5162178D01*
X4659255Y3741245D02*
X4640928Y3759572D01*
X4604273D01*
X4585946Y3741245D01*
Y3667935D01*
X4604273Y3649608D01*
X4640928D01*
X4659255Y3667935D01*
X4695910Y3649608D02*
X4732565D01*
X4714237D01*
Y3759572D01*
X4695910Y3741245D01*
X3079201Y7056926D02*
X3170838D01*
X3189165Y7075253D01*
Y7111908D01*
X3170838Y7130236D01*
X3079201D01*
X3189165Y7166890D02*
Y7203545D01*
Y7185218D01*
X3079201D01*
X3097528Y7166890D01*
Y7258528D02*
X3079201Y7276855D01*
Y7313510D01*
X3097528Y7331837D01*
X3170838D01*
X3189165Y7313510D01*
Y7276855D01*
X3170838Y7258528D01*
X3097528D01*
X8900928Y5064146D02*
Y4972509D01*
X8919256Y4954181D01*
X8955911D01*
X8974238Y4972509D01*
Y5064146D01*
X9084203D02*
X9010893D01*
Y5009164D01*
X9047548Y5027491D01*
X9065875D01*
X9084203Y5009164D01*
Y4972509D01*
X9065875Y4954181D01*
X9029220D01*
X9010893Y4972509D01*
X9120857Y4935854D02*
X9194167D01*
X9304132Y5045818D02*
X9285804Y5064146D01*
X9249149D01*
X9230822Y5045818D01*
Y5027491D01*
X9249149Y5009164D01*
X9285804D01*
X9304132Y4990836D01*
Y4972509D01*
X9285804Y4954181D01*
X9249149D01*
X9230822Y4972509D01*
X9340786Y5064146D02*
X9377441D01*
X9359114D01*
Y4954181D01*
X9340786D01*
X9377441D01*
X9432423D02*
X9469078D01*
X9450751D01*
Y5064146D01*
X9432423Y5045818D01*
X8871407Y3029689D02*
Y2938052D01*
X8889734Y2919725D01*
X8926389D01*
X8944716Y2938052D01*
Y3029689D01*
X9054681D02*
X8981371D01*
Y2974707D01*
X9018026Y2993035D01*
X9036354D01*
X9054681Y2974707D01*
Y2938052D01*
X9036354Y2919725D01*
X8999699D01*
X8981371Y2938052D01*
X9091336Y2901398D02*
X9164645D01*
X9274610Y3011362D02*
X9256282Y3029689D01*
X9219627D01*
X9201300Y3011362D01*
Y2993035D01*
X9219627Y2974707D01*
X9256282D01*
X9274610Y2956380D01*
Y2938052D01*
X9256282Y2919725D01*
X9219627D01*
X9201300Y2938052D01*
X9311265Y3029689D02*
X9347919D01*
X9329592D01*
Y2919725D01*
X9311265D01*
X9347919D01*
X9402902Y3011362D02*
X9421229Y3029689D01*
X9457884D01*
X9476211Y3011362D01*
Y2938052D01*
X9457884Y2919725D01*
X9421229D01*
X9402902Y2938052D01*
Y3011362D01*
X10560086Y5064146D02*
Y4972509D01*
X10578414Y4954181D01*
X10615069D01*
X10633396Y4972509D01*
Y5064146D01*
X10670051Y4954181D02*
X10706706D01*
X10688378D01*
Y5064146D01*
X10670051Y5045818D01*
X10761688Y4935854D02*
X10834998D01*
X10944962Y5045818D02*
X10926635Y5064146D01*
X10889980D01*
X10871652Y5045818D01*
Y5027491D01*
X10889980Y5009164D01*
X10926635D01*
X10944962Y4990836D01*
Y4972509D01*
X10926635Y4954181D01*
X10889980D01*
X10871652Y4972509D01*
X10981617Y5064146D02*
X11018272D01*
X10999944D01*
Y4954181D01*
X10981617D01*
X11018272D01*
X11073254D02*
X11109909D01*
X11091581D01*
Y5064146D01*
X11073254Y5045818D01*
X10521294Y3006251D02*
Y2914614D01*
X10539622Y2896286D01*
X10576277D01*
X10594604Y2914614D01*
Y3006251D01*
X10631259Y2896286D02*
X10667914D01*
X10649586D01*
Y3006251D01*
X10631259Y2987923D01*
X10722896Y2877959D02*
X10796206D01*
X10906170Y2987923D02*
X10887843Y3006251D01*
X10851188D01*
X10832860Y2987923D01*
Y2969596D01*
X10851188Y2951269D01*
X10887843D01*
X10906170Y2932941D01*
Y2914614D01*
X10887843Y2896286D01*
X10851188D01*
X10832860Y2914614D01*
X10942825Y3006251D02*
X10979480D01*
X10961152D01*
Y2896286D01*
X10942825D01*
X10979480D01*
X11034462Y2987923D02*
X11052789Y3006251D01*
X11089444D01*
X11107772Y2987923D01*
Y2914614D01*
X11089444Y2896286D01*
X11052789D01*
X11034462Y2914614D01*
Y2987923D01*
X3287721Y686059D02*
X3269393Y704386D01*
X3232738D01*
X3214411Y686059D01*
Y667731D01*
X3232738Y649404D01*
X3269393D01*
X3287721Y631076D01*
Y612749D01*
X3269393Y594422D01*
X3232738D01*
X3214411Y612749D01*
X3324375Y704386D02*
Y594422D01*
X3361030Y631076D01*
X3397685Y594422D01*
Y704386D01*
X3507650Y594422D02*
X3434340D01*
X3507650Y667731D01*
Y686059D01*
X3489322Y704386D01*
X3452667D01*
X3434340Y686059D01*
X2866673Y687809D02*
X2848345Y706137D01*
X2811690D01*
X2793363Y687809D01*
Y669482D01*
X2811690Y651154D01*
X2848345D01*
X2866673Y632827D01*
Y614499D01*
X2848345Y596172D01*
X2811690D01*
X2793363Y614499D01*
X2903327Y706137D02*
Y596172D01*
X2939982Y632827D01*
X2976637Y596172D01*
Y706137D01*
X3013292Y596172D02*
X3049947D01*
X3031619D01*
Y706137D01*
X3013292Y687809D01*
X4624314Y6368622D02*
X4514350D01*
Y6423604D01*
X4532677Y6441932D01*
X4569332D01*
X4587659Y6423604D01*
Y6368622D01*
Y6405277D02*
X4624314Y6441932D01*
X4514350Y6478586D02*
Y6551896D01*
X4532677D01*
X4605987Y6478586D01*
X4624314D01*
X4532677Y6588551D02*
X4514350Y6606878D01*
Y6643533D01*
X4532677Y6661861D01*
X4605987D01*
X4624314Y6643533D01*
Y6606878D01*
X4605987Y6588551D01*
X4532677D01*
X5685682Y1697851D02*
Y1807816D01*
X5740664D01*
X5758991Y1789488D01*
Y1752833D01*
X5740664Y1734506D01*
X5685682D01*
X5722336D02*
X5758991Y1697851D01*
X5868956Y1807816D02*
X5795646D01*
Y1752833D01*
X5832301Y1771161D01*
X5850628D01*
X5868956Y1752833D01*
Y1716178D01*
X5850628Y1697851D01*
X5813973D01*
X5795646Y1716178D01*
X5905610D02*
X5923938Y1697851D01*
X5960593D01*
X5978920Y1716178D01*
Y1789488D01*
X5960593Y1807816D01*
X5923938D01*
X5905610Y1789488D01*
Y1771161D01*
X5923938Y1752833D01*
X5978920D01*
X5803493Y1877253D02*
X5693529D01*
Y1932235D01*
X5711856Y1950563D01*
X5748511D01*
X5766839Y1932235D01*
Y1877253D01*
Y1913908D02*
X5803493Y1950563D01*
X5693529Y2060527D02*
Y1987217D01*
X5748511D01*
X5730184Y2023872D01*
Y2042200D01*
X5748511Y2060527D01*
X5785166D01*
X5803493Y2042200D01*
Y2005545D01*
X5785166Y1987217D01*
X5711856Y2097182D02*
X5693529Y2115509D01*
Y2152164D01*
X5711856Y2170491D01*
X5730184D01*
X5748511Y2152164D01*
X5766839Y2170491D01*
X5785166D01*
X5803493Y2152164D01*
Y2115509D01*
X5785166Y2097182D01*
X5766839D01*
X5748511Y2115509D01*
X5730184Y2097182D01*
X5711856D01*
X5748511Y2115509D02*
Y2152164D01*
X2302084Y4816871D02*
Y4926835D01*
X2357066D01*
X2375394Y4908508D01*
Y4871853D01*
X2357066Y4853526D01*
X2302084D01*
X2338739D02*
X2375394Y4816871D01*
X2412049Y4908508D02*
X2430376Y4926835D01*
X2467031D01*
X2485358Y4908508D01*
Y4890181D01*
X2467031Y4871853D01*
X2448703D01*
X2467031D01*
X2485358Y4853526D01*
Y4835198D01*
X2467031Y4816871D01*
X2430376D01*
X2412049Y4835198D01*
X2522013Y4908508D02*
X2540340Y4926835D01*
X2576995D01*
X2595323Y4908508D01*
Y4890181D01*
X2576995Y4871853D01*
X2595323Y4853526D01*
Y4835198D01*
X2576995Y4816871D01*
X2540340D01*
X2522013Y4835198D01*
Y4853526D01*
X2540340Y4871853D01*
X2522013Y4890181D01*
Y4908508D01*
X2540340Y4871853D02*
X2576995D01*
X2296362Y4671917D02*
Y4781881D01*
X2351345D01*
X2369672Y4763554D01*
Y4726899D01*
X2351345Y4708571D01*
X2296362D01*
X2333017D02*
X2369672Y4671917D01*
X2406327Y4763554D02*
X2424654Y4781881D01*
X2461309D01*
X2479637Y4763554D01*
Y4745226D01*
X2461309Y4726899D01*
X2442982D01*
X2461309D01*
X2479637Y4708571D01*
Y4690244D01*
X2461309Y4671917D01*
X2424654D01*
X2406327Y4690244D01*
X2516291Y4781881D02*
X2589601D01*
Y4763554D01*
X2516291Y4690244D01*
Y4671917D01*
X3777847Y6961752D02*
X3887811D01*
Y6906770D01*
X3869484Y6888442D01*
X3832829D01*
X3814502Y6906770D01*
Y6961752D01*
Y6925097D02*
X3777847Y6888442D01*
X3869484Y6851787D02*
X3887811Y6833460D01*
Y6796805D01*
X3869484Y6778478D01*
X3851157D01*
X3832829Y6796805D01*
Y6815133D01*
Y6796805D01*
X3814502Y6778478D01*
X3796174D01*
X3777847Y6796805D01*
Y6833460D01*
X3796174Y6851787D01*
X3869484Y6741823D02*
X3887811Y6723496D01*
Y6686841D01*
X3869484Y6668513D01*
X3851157D01*
X3832829Y6686841D01*
Y6705168D01*
Y6686841D01*
X3814502Y6668513D01*
X3796174D01*
X3777847Y6686841D01*
Y6723496D01*
X3796174Y6741823D01*
X4983494Y6872223D02*
Y6982187D01*
X5038477D01*
X5056804Y6963860D01*
Y6927205D01*
X5038477Y6908877D01*
X4983494D01*
X5020149D02*
X5056804Y6872223D01*
X5093459Y6963860D02*
X5111786Y6982187D01*
X5148441D01*
X5166768Y6963860D01*
Y6945532D01*
X5148441Y6927205D01*
X5130113D01*
X5148441D01*
X5166768Y6908877D01*
Y6890550D01*
X5148441Y6872223D01*
X5111786D01*
X5093459Y6890550D01*
X5276733Y6872223D02*
X5203423D01*
X5276733Y6945532D01*
Y6963860D01*
X5258406Y6982187D01*
X5221751D01*
X5203423Y6963860D01*
X2315088Y6727969D02*
Y6837933D01*
X2370071D01*
X2388398Y6819606D01*
Y6782951D01*
X2370071Y6764624D01*
X2315088D01*
X2351743D02*
X2388398Y6727969D01*
X2425053Y6819606D02*
X2443380Y6837933D01*
X2480035D01*
X2498363Y6819606D01*
Y6801279D01*
X2480035Y6782951D01*
X2461708D01*
X2480035D01*
X2498363Y6764624D01*
Y6746296D01*
X2480035Y6727969D01*
X2443380D01*
X2425053Y6746296D01*
X2535017Y6819606D02*
X2553345Y6837933D01*
X2590000D01*
X2608327Y6819606D01*
Y6746296D01*
X2590000Y6727969D01*
X2553345D01*
X2535017Y6746296D01*
Y6819606D01*
X2245713Y6575326D02*
X2135748D01*
Y6630309D01*
X2154076Y6648636D01*
X2190730D01*
X2209058Y6630309D01*
Y6575326D01*
Y6611981D02*
X2245713Y6648636D01*
Y6758600D02*
Y6685291D01*
X2172403Y6758600D01*
X2154076D01*
X2135748Y6740273D01*
Y6703618D01*
X2154076Y6685291D01*
X2227385Y6795255D02*
X2245713Y6813583D01*
Y6850238D01*
X2227385Y6868565D01*
X2154076D01*
X2135748Y6850238D01*
Y6813583D01*
X2154076Y6795255D01*
X2172403D01*
X2190730Y6813583D01*
Y6868565D01*
X2295521Y7252188D02*
Y7362153D01*
X2350503D01*
X2368830Y7343826D01*
Y7307171D01*
X2350503Y7288843D01*
X2295521D01*
X2332175D02*
X2368830Y7252188D01*
X2478795D02*
X2405485D01*
X2478795Y7325498D01*
Y7343826D01*
X2460468Y7362153D01*
X2423813D01*
X2405485Y7343826D01*
X2515450D02*
X2533777Y7362153D01*
X2570432D01*
X2588759Y7343826D01*
Y7325498D01*
X2570432Y7307171D01*
X2588759Y7288843D01*
Y7270516D01*
X2570432Y7252188D01*
X2533777D01*
X2515450Y7270516D01*
Y7288843D01*
X2533777Y7307171D01*
X2515450Y7325498D01*
Y7343826D01*
X2533777Y7307171D02*
X2570432D01*
X2290970Y7550829D02*
Y7660794D01*
X2345952D01*
X2364279Y7642467D01*
Y7605812D01*
X2345952Y7587484D01*
X2290970D01*
X2327624D02*
X2364279Y7550829D01*
X2474244D02*
X2400934D01*
X2474244Y7624139D01*
Y7642467D01*
X2455916Y7660794D01*
X2419261D01*
X2400934Y7642467D01*
X2584208Y7660794D02*
X2547553Y7642467D01*
X2510898Y7605812D01*
Y7569157D01*
X2529226Y7550829D01*
X2565881D01*
X2584208Y7569157D01*
Y7587484D01*
X2565881Y7605812D01*
X2510898D01*
X8516460Y4520808D02*
X8406496D01*
Y4575790D01*
X8424823Y4594118D01*
X8461478D01*
X8479805Y4575790D01*
Y4520808D01*
Y4557463D02*
X8516460Y4594118D01*
Y4704082D02*
Y4630773D01*
X8443150Y4704082D01*
X8424823D01*
X8406496Y4685755D01*
Y4649100D01*
X8424823Y4630773D01*
X8516460Y4814047D02*
Y4740737D01*
X8443150Y4814047D01*
X8424823D01*
X8406496Y4795719D01*
Y4759064D01*
X8424823Y4740737D01*
X8534787Y4850701D02*
Y4924011D01*
X8406496Y4960666D02*
X8516460D01*
X8479805Y4997321D01*
X8516460Y5033976D01*
X8406496D01*
X8424823Y5143940D02*
X8406496Y5125613D01*
Y5088958D01*
X8424823Y5070630D01*
X8443150D01*
X8461478Y5088958D01*
Y5125613D01*
X8479805Y5143940D01*
X8498133D01*
X8516460Y5125613D01*
Y5088958D01*
X8498133Y5070630D01*
X8516460Y5253905D02*
Y5180595D01*
X8443150Y5253905D01*
X8424823D01*
X8406496Y5235577D01*
Y5198922D01*
X8424823Y5180595D01*
Y5290559D02*
X8406496Y5308887D01*
Y5345542D01*
X8424823Y5363869D01*
X8498133D01*
X8516460Y5345542D01*
Y5308887D01*
X8498133Y5290559D01*
X8424823D01*
X8663790Y4520808D02*
X8553826D01*
Y4575790D01*
X8572153Y4594118D01*
X8608808D01*
X8627135Y4575790D01*
Y4520808D01*
Y4557463D02*
X8663790Y4594118D01*
Y4704082D02*
Y4630773D01*
X8590480Y4704082D01*
X8572153D01*
X8553826Y4685755D01*
Y4649100D01*
X8572153Y4630773D01*
X8663790Y4814047D02*
Y4740737D01*
X8590480Y4814047D01*
X8572153D01*
X8553826Y4795719D01*
Y4759064D01*
X8572153Y4740737D01*
X8682118Y4850701D02*
Y4924011D01*
X8553826Y4960666D02*
X8663790D01*
X8627135Y4997321D01*
X8663790Y5033976D01*
X8553826D01*
X8572153Y5143940D02*
X8553826Y5125613D01*
Y5088958D01*
X8572153Y5070630D01*
X8590480D01*
X8608808Y5088958D01*
Y5125613D01*
X8627135Y5143940D01*
X8645463D01*
X8663790Y5125613D01*
Y5088958D01*
X8645463Y5070630D01*
X8663790Y5180595D02*
Y5217250D01*
Y5198922D01*
X8553826D01*
X8572153Y5180595D01*
X8645463Y5272232D02*
X8663790Y5290559D01*
Y5327214D01*
X8645463Y5345542D01*
X8572153D01*
X8553826Y5327214D01*
Y5290559D01*
X8572153Y5272232D01*
X8590480D01*
X8608808Y5290559D01*
Y5345542D01*
X9764100Y6068039D02*
X9654135D01*
Y6123021D01*
X9672462Y6141348D01*
X9709117D01*
X9727445Y6123021D01*
Y6068039D01*
Y6104693D02*
X9764100Y6141348D01*
Y6251313D02*
Y6178003D01*
X9690790Y6251313D01*
X9672462D01*
X9654135Y6232986D01*
Y6196331D01*
X9672462Y6178003D01*
X9764100Y6361277D02*
Y6287968D01*
X9690790Y6361277D01*
X9672462D01*
X9654135Y6342950D01*
Y6306295D01*
X9672462Y6287968D01*
X9782427Y6397932D02*
Y6471242D01*
X9654135Y6507897D02*
X9764100D01*
X9727445Y6544551D01*
X9764100Y6581206D01*
X9654135D01*
X9672462Y6691171D02*
X9654135Y6672843D01*
Y6636188D01*
X9672462Y6617861D01*
X9690790D01*
X9709117Y6636188D01*
Y6672843D01*
X9727445Y6691171D01*
X9745772D01*
X9764100Y6672843D01*
Y6636188D01*
X9745772Y6617861D01*
X9764100Y6727826D02*
Y6764480D01*
Y6746153D01*
X9654135D01*
X9672462Y6727826D01*
Y6819463D02*
X9654135Y6837790D01*
Y6874445D01*
X9672462Y6892772D01*
X9690790D01*
X9709117Y6874445D01*
X9727445Y6892772D01*
X9745772D01*
X9764100Y6874445D01*
Y6837790D01*
X9745772Y6819463D01*
X9727445D01*
X9709117Y6837790D01*
X9690790Y6819463D01*
X9672462D01*
X9709117Y6837790D02*
Y6874445D01*
X9608098Y6068039D02*
X9498134D01*
Y6123021D01*
X9516461Y6141349D01*
X9553116D01*
X9571443Y6123021D01*
Y6068039D01*
Y6104694D02*
X9608098Y6141349D01*
Y6251313D02*
Y6178003D01*
X9534788Y6251313D01*
X9516461D01*
X9498134Y6232986D01*
Y6196331D01*
X9516461Y6178003D01*
X9608098Y6361278D02*
Y6287968D01*
X9534788Y6361278D01*
X9516461D01*
X9498134Y6342950D01*
Y6306295D01*
X9516461Y6287968D01*
X9626426Y6397932D02*
Y6471242D01*
X9498134Y6507897D02*
X9608098D01*
X9571443Y6544552D01*
X9608098Y6581207D01*
X9498134D01*
X9516461Y6691171D02*
X9498134Y6672844D01*
Y6636189D01*
X9516461Y6617861D01*
X9534788D01*
X9553116Y6636189D01*
Y6672844D01*
X9571443Y6691171D01*
X9589771D01*
X9608098Y6672844D01*
Y6636189D01*
X9589771Y6617861D01*
X9608098Y6727826D02*
Y6764481D01*
Y6746153D01*
X9498134D01*
X9516461Y6727826D01*
X9498134Y6819463D02*
Y6892773D01*
X9516461D01*
X9589771Y6819463D01*
X9608098D01*
X9445459Y6068039D02*
X9335494D01*
Y6123021D01*
X9353822Y6141349D01*
X9390477D01*
X9408804Y6123021D01*
Y6068039D01*
Y6104694D02*
X9445459Y6141349D01*
Y6251313D02*
Y6178003D01*
X9372149Y6251313D01*
X9353822D01*
X9335494Y6232986D01*
Y6196331D01*
X9353822Y6178003D01*
X9445459Y6361278D02*
Y6287968D01*
X9372149Y6361278D01*
X9353822D01*
X9335494Y6342950D01*
Y6306295D01*
X9353822Y6287968D01*
X9463786Y6397932D02*
Y6471242D01*
X9335494Y6507897D02*
X9445459D01*
X9408804Y6544552D01*
X9445459Y6581207D01*
X9335494D01*
X9353822Y6691171D02*
X9335494Y6672844D01*
Y6636189D01*
X9353822Y6617861D01*
X9372149D01*
X9390477Y6636189D01*
Y6672844D01*
X9408804Y6691171D01*
X9427132D01*
X9445459Y6672844D01*
Y6636189D01*
X9427132Y6617861D01*
X9445459Y6727826D02*
Y6764481D01*
Y6746153D01*
X9335494D01*
X9353822Y6727826D01*
X9335494Y6892773D02*
X9353822Y6856118D01*
X9390477Y6819463D01*
X9427132D01*
X9445459Y6837790D01*
Y6874445D01*
X9427132Y6892773D01*
X9408804D01*
X9390477Y6874445D01*
Y6819463D01*
X9291117Y6068039D02*
X9181153D01*
Y6123021D01*
X9199480Y6141348D01*
X9236135D01*
X9254462Y6123021D01*
Y6068039D01*
Y6104693D02*
X9291117Y6141348D01*
Y6251313D02*
Y6178003D01*
X9217807Y6251313D01*
X9199480D01*
X9181153Y6232986D01*
Y6196331D01*
X9199480Y6178003D01*
X9291117Y6361277D02*
Y6287968D01*
X9217807Y6361277D01*
X9199480D01*
X9181153Y6342950D01*
Y6306295D01*
X9199480Y6287968D01*
X9309444Y6397932D02*
Y6471242D01*
X9181153Y6507897D02*
X9291117D01*
X9254462Y6544551D01*
X9291117Y6581206D01*
X9181153D01*
X9199480Y6691171D02*
X9181153Y6672843D01*
Y6636188D01*
X9199480Y6617861D01*
X9217807D01*
X9236135Y6636188D01*
Y6672843D01*
X9254462Y6691171D01*
X9272790D01*
X9291117Y6672843D01*
Y6636188D01*
X9272790Y6617861D01*
X9291117Y6727826D02*
Y6764480D01*
Y6746153D01*
X9181153D01*
X9199480Y6727826D01*
X9181153Y6892772D02*
Y6819463D01*
X9236135D01*
X9217807Y6856117D01*
Y6874445D01*
X9236135Y6892772D01*
X9272790D01*
X9291117Y6874445D01*
Y6837790D01*
X9272790Y6819463D01*
X9151712Y6068039D02*
X9041747D01*
Y6123021D01*
X9060075Y6141348D01*
X9096729D01*
X9115057Y6123021D01*
Y6068039D01*
Y6104693D02*
X9151712Y6141348D01*
Y6251313D02*
Y6178003D01*
X9078402Y6251313D01*
X9060075D01*
X9041747Y6232986D01*
Y6196331D01*
X9060075Y6178003D01*
X9151712Y6361277D02*
Y6287968D01*
X9078402Y6361277D01*
X9060075D01*
X9041747Y6342950D01*
Y6306295D01*
X9060075Y6287968D01*
X9170039Y6397932D02*
Y6471242D01*
X9041747Y6507897D02*
X9151712D01*
X9115057Y6544551D01*
X9151712Y6581206D01*
X9041747D01*
X9060075Y6691171D02*
X9041747Y6672843D01*
Y6636188D01*
X9060075Y6617861D01*
X9078402D01*
X9096729Y6636188D01*
Y6672843D01*
X9115057Y6691171D01*
X9133384D01*
X9151712Y6672843D01*
Y6636188D01*
X9133384Y6617861D01*
X9151712Y6727826D02*
Y6764480D01*
Y6746153D01*
X9041747D01*
X9060075Y6727826D01*
X9151712Y6874445D02*
X9041747D01*
X9096729Y6819463D01*
Y6892772D01*
X8997370Y6068039D02*
X8887406D01*
Y6123021D01*
X8905733Y6141348D01*
X8942388D01*
X8960715Y6123021D01*
Y6068039D01*
Y6104693D02*
X8997370Y6141348D01*
Y6251313D02*
Y6178003D01*
X8924060Y6251313D01*
X8905733D01*
X8887406Y6232986D01*
Y6196331D01*
X8905733Y6178003D01*
X8997370Y6361277D02*
Y6287968D01*
X8924060Y6361277D01*
X8905733D01*
X8887406Y6342950D01*
Y6306295D01*
X8905733Y6287968D01*
X9015697Y6397932D02*
Y6471242D01*
X8887406Y6507897D02*
X8997370D01*
X8960715Y6544551D01*
X8997370Y6581206D01*
X8887406D01*
X8905733Y6691171D02*
X8887406Y6672843D01*
Y6636188D01*
X8905733Y6617861D01*
X8924060D01*
X8942388Y6636188D01*
Y6672843D01*
X8960715Y6691171D01*
X8979043D01*
X8997370Y6672843D01*
Y6636188D01*
X8979043Y6617861D01*
X8997370Y6727826D02*
Y6764480D01*
Y6746153D01*
X8887406D01*
X8905733Y6727826D01*
Y6819463D02*
X8887406Y6837790D01*
Y6874445D01*
X8905733Y6892772D01*
X8924060D01*
X8942388Y6874445D01*
Y6856117D01*
Y6874445D01*
X8960715Y6892772D01*
X8979043D01*
X8997370Y6874445D01*
Y6837790D01*
X8979043Y6819463D01*
X8844859Y6068039D02*
X8734894D01*
Y6123021D01*
X8753222Y6141349D01*
X8789876D01*
X8808204Y6123021D01*
Y6068039D01*
Y6104694D02*
X8844859Y6141349D01*
Y6251313D02*
Y6178003D01*
X8771549Y6251313D01*
X8753222D01*
X8734894Y6232986D01*
Y6196331D01*
X8753222Y6178003D01*
X8844859Y6361278D02*
Y6287968D01*
X8771549Y6361278D01*
X8753222D01*
X8734894Y6342950D01*
Y6306295D01*
X8753222Y6287968D01*
X8863186Y6397932D02*
Y6471242D01*
X8734894Y6507897D02*
X8844859D01*
X8808204Y6544552D01*
X8844859Y6581207D01*
X8734894D01*
X8753222Y6691171D02*
X8734894Y6672844D01*
Y6636189D01*
X8753222Y6617861D01*
X8771549D01*
X8789876Y6636189D01*
Y6672844D01*
X8808204Y6691171D01*
X8826531D01*
X8844859Y6672844D01*
Y6636189D01*
X8826531Y6617861D01*
X8844859Y6727826D02*
Y6764481D01*
Y6746153D01*
X8734894D01*
X8753222Y6727826D01*
X8844859Y6892773D02*
Y6819463D01*
X8771549Y6892773D01*
X8753222D01*
X8734894Y6874445D01*
Y6837790D01*
X8753222Y6819463D01*
X8670854Y6068039D02*
X8560890D01*
Y6123021D01*
X8579217Y6141348D01*
X8615872D01*
X8634200Y6123021D01*
Y6068039D01*
Y6104693D02*
X8670854Y6141348D01*
Y6251313D02*
Y6178003D01*
X8597545Y6251313D01*
X8579217D01*
X8560890Y6232986D01*
Y6196331D01*
X8579217Y6178003D01*
X8670854Y6361277D02*
Y6287968D01*
X8597545Y6361277D01*
X8579217D01*
X8560890Y6342950D01*
Y6306295D01*
X8579217Y6287968D01*
X8689182Y6397932D02*
Y6471242D01*
X8560890Y6507897D02*
X8670854D01*
X8634200Y6544551D01*
X8670854Y6581206D01*
X8560890D01*
X8579217Y6691171D02*
X8560890Y6672843D01*
Y6636188D01*
X8579217Y6617861D01*
X8597545D01*
X8615872Y6636188D01*
Y6672843D01*
X8634200Y6691171D01*
X8652527D01*
X8670854Y6672843D01*
Y6636188D01*
X8652527Y6617861D01*
X8670854Y6727826D02*
Y6764480D01*
Y6746153D01*
X8560890D01*
X8579217Y6727826D01*
X8670854Y6819463D02*
Y6856117D01*
Y6837790D01*
X8560890D01*
X8579217Y6819463D01*
X8355736Y3633656D02*
X8245771D01*
Y3688638D01*
X8264099Y3706965D01*
X8300754D01*
X8319081Y3688638D01*
Y3633656D01*
Y3670310D02*
X8355736Y3706965D01*
Y3816930D02*
Y3743620D01*
X8282426Y3816930D01*
X8264099D01*
X8245771Y3798603D01*
Y3761948D01*
X8264099Y3743620D01*
X8355736Y3926894D02*
Y3853585D01*
X8282426Y3926894D01*
X8264099D01*
X8245771Y3908567D01*
Y3871912D01*
X8264099Y3853585D01*
X8374063Y3963549D02*
Y4036859D01*
X8245771Y4073514D02*
X8355736D01*
X8319081Y4110168D01*
X8355736Y4146823D01*
X8245771D01*
X8264099Y4256788D02*
X8245771Y4238460D01*
Y4201805D01*
X8264099Y4183478D01*
X8282426D01*
X8300754Y4201805D01*
Y4238460D01*
X8319081Y4256788D01*
X8337409D01*
X8355736Y4238460D01*
Y4201805D01*
X8337409Y4183478D01*
X8355736Y4293443D02*
Y4330097D01*
Y4311770D01*
X8245771D01*
X8264099Y4293443D01*
Y4385080D02*
X8245771Y4403407D01*
Y4440062D01*
X8264099Y4458389D01*
X8337409D01*
X8355736Y4440062D01*
Y4403407D01*
X8337409Y4385080D01*
X8264099D01*
X8184967Y3630307D02*
X8075002D01*
Y3685289D01*
X8093330Y3703617D01*
X8129984D01*
X8148312Y3685289D01*
Y3630307D01*
Y3666962D02*
X8184967Y3703617D01*
Y3813581D02*
Y3740271D01*
X8111657Y3813581D01*
X8093330D01*
X8075002Y3795254D01*
Y3758599D01*
X8093330Y3740271D01*
X8184967Y3923546D02*
Y3850236D01*
X8111657Y3923546D01*
X8093330D01*
X8075002Y3905218D01*
Y3868563D01*
X8093330Y3850236D01*
X8203294Y3960200D02*
Y4033510D01*
X8075002Y4070165D02*
X8184967D01*
X8148312Y4106820D01*
X8184967Y4143475D01*
X8075002D01*
X8093330Y4253439D02*
X8075002Y4235112D01*
Y4198457D01*
X8093330Y4180129D01*
X8111657D01*
X8129984Y4198457D01*
Y4235112D01*
X8148312Y4253439D01*
X8166639D01*
X8184967Y4235112D01*
Y4198457D01*
X8166639Y4180129D01*
Y4290094D02*
X8184967Y4308421D01*
Y4345076D01*
X8166639Y4363404D01*
X8093330D01*
X8075002Y4345076D01*
Y4308421D01*
X8093330Y4290094D01*
X8111657D01*
X8129984Y4308421D01*
Y4363404D01*
X8709158Y1133452D02*
X8599193D01*
Y1188434D01*
X8617520Y1206762D01*
X8654175D01*
X8672503Y1188434D01*
Y1133452D01*
Y1170107D02*
X8709158Y1206762D01*
Y1316726D02*
Y1243416D01*
X8635848Y1316726D01*
X8617520D01*
X8599193Y1298399D01*
Y1261744D01*
X8617520Y1243416D01*
X8709158Y1426691D02*
Y1353381D01*
X8635848Y1426691D01*
X8617520D01*
X8599193Y1408363D01*
Y1371708D01*
X8617520Y1353381D01*
X8727485Y1463345D02*
Y1536655D01*
X8599193Y1573310D02*
X8709158D01*
X8672503Y1609965D01*
X8709158Y1646620D01*
X8599193D01*
X8617520Y1756584D02*
X8599193Y1738257D01*
Y1701602D01*
X8617520Y1683274D01*
X8635848D01*
X8654175Y1701602D01*
Y1738257D01*
X8672503Y1756584D01*
X8690830D01*
X8709158Y1738257D01*
Y1701602D01*
X8690830Y1683274D01*
X8617520Y1793239D02*
X8599193Y1811566D01*
Y1848221D01*
X8617520Y1866548D01*
X8635848D01*
X8654175Y1848221D01*
X8672503Y1866548D01*
X8690830D01*
X8709158Y1848221D01*
Y1811566D01*
X8690830Y1793239D01*
X8672503D01*
X8654175Y1811566D01*
X8635848Y1793239D01*
X8617520D01*
X8654175Y1811566D02*
Y1848221D01*
X8864157Y1133452D02*
X8754192D01*
Y1188434D01*
X8772519Y1206762D01*
X8809174D01*
X8827502Y1188434D01*
Y1133452D01*
Y1170107D02*
X8864157Y1206762D01*
Y1316726D02*
Y1243416D01*
X8790847Y1316726D01*
X8772519D01*
X8754192Y1298399D01*
Y1261744D01*
X8772519Y1243416D01*
X8864157Y1426691D02*
Y1353381D01*
X8790847Y1426691D01*
X8772519D01*
X8754192Y1408363D01*
Y1371708D01*
X8772519Y1353381D01*
X8882484Y1463345D02*
Y1536655D01*
X8754192Y1573310D02*
X8864157D01*
X8827502Y1609965D01*
X8864157Y1646620D01*
X8754192D01*
X8772519Y1756584D02*
X8754192Y1738257D01*
Y1701602D01*
X8772519Y1683274D01*
X8790847D01*
X8809174Y1701602D01*
Y1738257D01*
X8827502Y1756584D01*
X8845829D01*
X8864157Y1738257D01*
Y1701602D01*
X8845829Y1683274D01*
X8754192Y1793239D02*
Y1866548D01*
X8772519D01*
X8845829Y1793239D01*
X8864157D01*
X9015700Y1133452D02*
X8905735D01*
Y1188434D01*
X8924062Y1206762D01*
X8960717D01*
X8979045Y1188434D01*
Y1133452D01*
Y1170107D02*
X9015700Y1206762D01*
Y1316726D02*
Y1243416D01*
X8942390Y1316726D01*
X8924062D01*
X8905735Y1298399D01*
Y1261744D01*
X8924062Y1243416D01*
X9015700Y1426691D02*
Y1353381D01*
X8942390Y1426691D01*
X8924062D01*
X8905735Y1408363D01*
Y1371708D01*
X8924062Y1353381D01*
X9034027Y1463345D02*
Y1536655D01*
X8905735Y1573310D02*
X9015700D01*
X8979045Y1609965D01*
X9015700Y1646620D01*
X8905735D01*
X8924062Y1756584D02*
X8905735Y1738257D01*
Y1701602D01*
X8924062Y1683274D01*
X8942390D01*
X8960717Y1701602D01*
Y1738257D01*
X8979045Y1756584D01*
X8997372D01*
X9015700Y1738257D01*
Y1701602D01*
X8997372Y1683274D01*
X8905735Y1866548D02*
X8924062Y1829893D01*
X8960717Y1793239D01*
X8997372D01*
X9015700Y1811566D01*
Y1848221D01*
X8997372Y1866548D01*
X8979045D01*
X8960717Y1848221D01*
Y1793239D01*
X9177352Y1133452D02*
X9067387D01*
Y1188434D01*
X9085715Y1206762D01*
X9122369D01*
X9140697Y1188434D01*
Y1133452D01*
Y1170107D02*
X9177352Y1206762D01*
Y1316726D02*
Y1243416D01*
X9104042Y1316726D01*
X9085715D01*
X9067387Y1298399D01*
Y1261744D01*
X9085715Y1243416D01*
X9177352Y1426691D02*
Y1353381D01*
X9104042Y1426691D01*
X9085715D01*
X9067387Y1408363D01*
Y1371708D01*
X9085715Y1353381D01*
X9195679Y1463345D02*
Y1536655D01*
X9067387Y1573310D02*
X9177352D01*
X9140697Y1609965D01*
X9177352Y1646620D01*
X9067387D01*
X9085715Y1756584D02*
X9067387Y1738257D01*
Y1701602D01*
X9085715Y1683274D01*
X9104042D01*
X9122369Y1701602D01*
Y1738257D01*
X9140697Y1756584D01*
X9159024D01*
X9177352Y1738257D01*
Y1701602D01*
X9159024Y1683274D01*
X9067387Y1866548D02*
Y1793239D01*
X9122369D01*
X9104042Y1829893D01*
Y1848221D01*
X9122369Y1866548D01*
X9159024D01*
X9177352Y1848221D01*
Y1811566D01*
X9159024Y1793239D01*
X9344160Y1133452D02*
X9234195D01*
Y1188434D01*
X9252523Y1206762D01*
X9289177D01*
X9307505Y1188434D01*
Y1133452D01*
Y1170107D02*
X9344160Y1206762D01*
Y1316726D02*
Y1243416D01*
X9270850Y1316726D01*
X9252523D01*
X9234195Y1298399D01*
Y1261744D01*
X9252523Y1243416D01*
X9344160Y1426691D02*
Y1353381D01*
X9270850Y1426691D01*
X9252523D01*
X9234195Y1408363D01*
Y1371708D01*
X9252523Y1353381D01*
X9362487Y1463345D02*
Y1536655D01*
X9234195Y1573310D02*
X9344160D01*
X9307505Y1609965D01*
X9344160Y1646620D01*
X9234195D01*
X9252523Y1756584D02*
X9234195Y1738257D01*
Y1701602D01*
X9252523Y1683274D01*
X9270850D01*
X9289177Y1701602D01*
Y1738257D01*
X9307505Y1756584D01*
X9325832D01*
X9344160Y1738257D01*
Y1701602D01*
X9325832Y1683274D01*
X9344160Y1848221D02*
X9234195D01*
X9289177Y1793239D01*
Y1866548D01*
X9506699Y1133452D02*
X9396735D01*
Y1188434D01*
X9415062Y1206762D01*
X9451717D01*
X9470045Y1188434D01*
Y1133452D01*
Y1170107D02*
X9506699Y1206762D01*
Y1316726D02*
Y1243416D01*
X9433390Y1316726D01*
X9415062D01*
X9396735Y1298399D01*
Y1261744D01*
X9415062Y1243416D01*
X9506699Y1426691D02*
Y1353381D01*
X9433390Y1426691D01*
X9415062D01*
X9396735Y1408363D01*
Y1371708D01*
X9415062Y1353381D01*
X9525027Y1463345D02*
Y1536655D01*
X9396735Y1573310D02*
X9506699D01*
X9470045Y1609965D01*
X9506699Y1646620D01*
X9396735D01*
X9415062Y1756584D02*
X9396735Y1738257D01*
Y1701602D01*
X9415062Y1683274D01*
X9433390D01*
X9451717Y1701602D01*
Y1738257D01*
X9470045Y1756584D01*
X9488372D01*
X9506699Y1738257D01*
Y1701602D01*
X9488372Y1683274D01*
X9415062Y1793239D02*
X9396735Y1811566D01*
Y1848221D01*
X9415062Y1866548D01*
X9433390D01*
X9451717Y1848221D01*
Y1829893D01*
Y1848221D01*
X9470045Y1866548D01*
X9488372D01*
X9506699Y1848221D01*
Y1811566D01*
X9488372Y1793239D01*
X9678357Y1133452D02*
X9568392D01*
Y1188434D01*
X9586720Y1206762D01*
X9623374D01*
X9641702Y1188434D01*
Y1133452D01*
Y1170107D02*
X9678357Y1206762D01*
Y1316726D02*
Y1243416D01*
X9605047Y1316726D01*
X9586720D01*
X9568392Y1298399D01*
Y1261744D01*
X9586720Y1243416D01*
X9678357Y1426691D02*
Y1353381D01*
X9605047Y1426691D01*
X9586720D01*
X9568392Y1408363D01*
Y1371708D01*
X9586720Y1353381D01*
X9696684Y1463345D02*
Y1536655D01*
X9568392Y1573310D02*
X9678357D01*
X9641702Y1609965D01*
X9678357Y1646620D01*
X9568392D01*
X9586720Y1756584D02*
X9568392Y1738257D01*
Y1701602D01*
X9586720Y1683274D01*
X9605047D01*
X9623374Y1701602D01*
Y1738257D01*
X9641702Y1756584D01*
X9660029D01*
X9678357Y1738257D01*
Y1701602D01*
X9660029Y1683274D01*
X9678357Y1866548D02*
Y1793239D01*
X9605047Y1866548D01*
X9586720D01*
X9568392Y1848221D01*
Y1811566D01*
X9586720Y1793239D01*
X9832466Y1133452D02*
X9722502D01*
Y1188434D01*
X9740829Y1206762D01*
X9777484D01*
X9795812Y1188434D01*
Y1133452D01*
Y1170107D02*
X9832466Y1206762D01*
Y1316726D02*
Y1243416D01*
X9759157Y1316726D01*
X9740829D01*
X9722502Y1298399D01*
Y1261744D01*
X9740829Y1243416D01*
X9832466Y1426691D02*
Y1353381D01*
X9759157Y1426691D01*
X9740829D01*
X9722502Y1408363D01*
Y1371708D01*
X9740829Y1353381D01*
X9850794Y1463345D02*
Y1536655D01*
X9722502Y1573310D02*
X9832466D01*
X9795812Y1609965D01*
X9832466Y1646620D01*
X9722502D01*
X9740829Y1756584D02*
X9722502Y1738257D01*
Y1701602D01*
X9740829Y1683274D01*
X9759157D01*
X9777484Y1701602D01*
Y1738257D01*
X9795812Y1756584D01*
X9814139D01*
X9832466Y1738257D01*
Y1701602D01*
X9814139Y1683274D01*
X9832466Y1793239D02*
Y1829893D01*
Y1811566D01*
X9722502D01*
X9740829Y1793239D01*
X5457983Y6173305D02*
Y6283270D01*
X5512966D01*
X5531293Y6264942D01*
Y6228288D01*
X5512966Y6209960D01*
X5457983D01*
X5494638D02*
X5531293Y6173305D01*
X5641257D02*
X5567948D01*
X5641257Y6246615D01*
Y6264942D01*
X5622930Y6283270D01*
X5586275D01*
X5567948Y6264942D01*
X5677912D02*
X5696240Y6283270D01*
X5732895D01*
X5751222Y6264942D01*
Y6191633D01*
X5732895Y6173305D01*
X5696240D01*
X5677912Y6191633D01*
Y6264942D01*
X5787877Y6154978D02*
X5861186D01*
X5897841Y6283270D02*
Y6173305D01*
X5934496Y6209960D01*
X5971151Y6173305D01*
Y6283270D01*
X6081115Y6264942D02*
X6062788Y6283270D01*
X6026133D01*
X6007806Y6264942D01*
Y6246615D01*
X6026133Y6228288D01*
X6062788D01*
X6081115Y6209960D01*
Y6191633D01*
X6062788Y6173305D01*
X6026133D01*
X6007806Y6191633D01*
X6191080Y6173305D02*
X6117770D01*
X6191080Y6246615D01*
Y6264942D01*
X6172752Y6283270D01*
X6136097D01*
X6117770Y6264942D01*
X6227735D02*
X6246062Y6283270D01*
X6282717D01*
X6301044Y6264942D01*
Y6191633D01*
X6282717Y6173305D01*
X6246062D01*
X6227735Y6191633D01*
Y6264942D01*
X5457983Y6047236D02*
Y6157200D01*
X5512966D01*
X5531293Y6138873D01*
Y6102218D01*
X5512966Y6083891D01*
X5457983D01*
X5494638D02*
X5531293Y6047236D01*
X5641257D02*
X5567948D01*
X5641257Y6120546D01*
Y6138873D01*
X5622930Y6157200D01*
X5586275D01*
X5567948Y6138873D01*
X5677912D02*
X5696240Y6157200D01*
X5732895D01*
X5751222Y6138873D01*
Y6065563D01*
X5732895Y6047236D01*
X5696240D01*
X5677912Y6065563D01*
Y6138873D01*
X5787877Y6028908D02*
X5861186D01*
X5897841Y6157200D02*
Y6047236D01*
X5934496Y6083891D01*
X5971151Y6047236D01*
Y6157200D01*
X6081115Y6138873D02*
X6062788Y6157200D01*
X6026133D01*
X6007806Y6138873D01*
Y6120546D01*
X6026133Y6102218D01*
X6062788D01*
X6081115Y6083891D01*
Y6065563D01*
X6062788Y6047236D01*
X6026133D01*
X6007806Y6065563D01*
X6117770Y6047236D02*
X6154425D01*
X6136097D01*
Y6157200D01*
X6117770Y6138873D01*
X6209407Y6065563D02*
X6227735Y6047236D01*
X6264390D01*
X6282717Y6065563D01*
Y6138873D01*
X6264390Y6157200D01*
X6227735D01*
X6209407Y6138873D01*
Y6120546D01*
X6227735Y6102218D01*
X6282717D01*
X5457983Y6316504D02*
Y6426468D01*
X5512966D01*
X5531293Y6408141D01*
Y6371486D01*
X5512966Y6353159D01*
X5457983D01*
X5494638D02*
X5531293Y6316504D01*
X5641257D02*
X5567948D01*
X5641257Y6389814D01*
Y6408141D01*
X5622930Y6426468D01*
X5586275D01*
X5567948Y6408141D01*
X5677912D02*
X5696240Y6426468D01*
X5732895D01*
X5751222Y6408141D01*
Y6334831D01*
X5732895Y6316504D01*
X5696240D01*
X5677912Y6334831D01*
Y6408141D01*
X5787877Y6298177D02*
X5861186D01*
X5897841Y6426468D02*
Y6316504D01*
X5934496Y6353159D01*
X5971151Y6316504D01*
Y6426468D01*
X6081115Y6408141D02*
X6062788Y6426468D01*
X6026133D01*
X6007806Y6408141D01*
Y6389814D01*
X6026133Y6371486D01*
X6062788D01*
X6081115Y6353159D01*
Y6334831D01*
X6062788Y6316504D01*
X6026133D01*
X6007806Y6334831D01*
X6117770Y6316504D02*
X6154425D01*
X6136097D01*
Y6426468D01*
X6117770Y6408141D01*
X6209407D02*
X6227735Y6426468D01*
X6264390D01*
X6282717Y6408141D01*
Y6389814D01*
X6264390Y6371486D01*
X6282717Y6353159D01*
Y6334831D01*
X6264390Y6316504D01*
X6227735D01*
X6209407Y6334831D01*
Y6353159D01*
X6227735Y6371486D01*
X6209407Y6389814D01*
Y6408141D01*
X6227735Y6371486D02*
X6264390D01*
X5457983Y6462121D02*
Y6572085D01*
X5512966D01*
X5531293Y6553758D01*
Y6517103D01*
X5512966Y6498776D01*
X5457983D01*
X5494638D02*
X5531293Y6462121D01*
X5641257D02*
X5567948D01*
X5641257Y6535431D01*
Y6553758D01*
X5622930Y6572085D01*
X5586275D01*
X5567948Y6553758D01*
X5677912D02*
X5696240Y6572085D01*
X5732895D01*
X5751222Y6553758D01*
Y6480448D01*
X5732895Y6462121D01*
X5696240D01*
X5677912Y6480448D01*
Y6553758D01*
X5787877Y6443794D02*
X5861186D01*
X5897841Y6572085D02*
Y6462121D01*
X5934496Y6498776D01*
X5971151Y6462121D01*
Y6572085D01*
X6081115Y6553758D02*
X6062788Y6572085D01*
X6026133D01*
X6007806Y6553758D01*
Y6535431D01*
X6026133Y6517103D01*
X6062788D01*
X6081115Y6498776D01*
Y6480448D01*
X6062788Y6462121D01*
X6026133D01*
X6007806Y6480448D01*
X6117770Y6462121D02*
X6154425D01*
X6136097D01*
Y6572085D01*
X6117770Y6553758D01*
X6209407Y6572085D02*
X6282717D01*
Y6553758D01*
X6209407Y6480448D01*
Y6462121D01*
X5457983Y6756319D02*
Y6866283D01*
X5512966D01*
X5531293Y6847956D01*
Y6811301D01*
X5512966Y6792974D01*
X5457983D01*
X5494638D02*
X5531293Y6756319D01*
X5641257D02*
X5567948D01*
X5641257Y6829629D01*
Y6847956D01*
X5622930Y6866283D01*
X5586275D01*
X5567948Y6847956D01*
X5677912D02*
X5696240Y6866283D01*
X5732895D01*
X5751222Y6847956D01*
Y6774646D01*
X5732895Y6756319D01*
X5696240D01*
X5677912Y6774646D01*
Y6847956D01*
X5787877Y6737992D02*
X5861186D01*
X5897841Y6866283D02*
Y6756319D01*
X5934496Y6792974D01*
X5971151Y6756319D01*
Y6866283D01*
X6081115Y6847956D02*
X6062788Y6866283D01*
X6026133D01*
X6007806Y6847956D01*
Y6829629D01*
X6026133Y6811301D01*
X6062788D01*
X6081115Y6792974D01*
Y6774646D01*
X6062788Y6756319D01*
X6026133D01*
X6007806Y6774646D01*
X6117770Y6756319D02*
X6154425D01*
X6136097D01*
Y6866283D01*
X6117770Y6847956D01*
X6282717Y6866283D02*
X6209407D01*
Y6811301D01*
X6246062Y6829629D01*
X6264390D01*
X6282717Y6811301D01*
Y6774646D01*
X6264390Y6756319D01*
X6227735D01*
X6209407Y6774646D01*
X5457983Y6909434D02*
Y7019398D01*
X5512966D01*
X5531293Y7001071D01*
Y6964416D01*
X5512966Y6946089D01*
X5457983D01*
X5494638D02*
X5531293Y6909434D01*
X5641257D02*
X5567948D01*
X5641257Y6982744D01*
Y7001071D01*
X5622930Y7019398D01*
X5586275D01*
X5567948Y7001071D01*
X5677912D02*
X5696240Y7019398D01*
X5732895D01*
X5751222Y7001071D01*
Y6927761D01*
X5732895Y6909434D01*
X5696240D01*
X5677912Y6927761D01*
Y7001071D01*
X5787877Y6891107D02*
X5861186D01*
X5897841Y7019398D02*
Y6909434D01*
X5934496Y6946089D01*
X5971151Y6909434D01*
Y7019398D01*
X6081115Y7001071D02*
X6062788Y7019398D01*
X6026133D01*
X6007806Y7001071D01*
Y6982744D01*
X6026133Y6964416D01*
X6062788D01*
X6081115Y6946089D01*
Y6927761D01*
X6062788Y6909434D01*
X6026133D01*
X6007806Y6927761D01*
X6117770Y6909434D02*
X6154425D01*
X6136097D01*
Y7019398D01*
X6117770Y7001071D01*
X6264390Y6909434D02*
Y7019398D01*
X6209407Y6964416D01*
X6282717D01*
X5457983Y7049434D02*
Y7159398D01*
X5512966D01*
X5531293Y7141071D01*
Y7104416D01*
X5512966Y7086088D01*
X5457983D01*
X5494638D02*
X5531293Y7049434D01*
X5641257D02*
X5567948D01*
X5641257Y7122743D01*
Y7141071D01*
X5622930Y7159398D01*
X5586275D01*
X5567948Y7141071D01*
X5677912D02*
X5696240Y7159398D01*
X5732895D01*
X5751222Y7141071D01*
Y7067761D01*
X5732895Y7049434D01*
X5696240D01*
X5677912Y7067761D01*
Y7141071D01*
X5787877Y7031106D02*
X5861186D01*
X5897841Y7159398D02*
Y7049434D01*
X5934496Y7086088D01*
X5971151Y7049434D01*
Y7159398D01*
X6081115Y7141071D02*
X6062788Y7159398D01*
X6026133D01*
X6007806Y7141071D01*
Y7122743D01*
X6026133Y7104416D01*
X6062788D01*
X6081115Y7086088D01*
Y7067761D01*
X6062788Y7049434D01*
X6026133D01*
X6007806Y7067761D01*
X6117770Y7049434D02*
X6154425D01*
X6136097D01*
Y7159398D01*
X6117770Y7141071D01*
X6209407D02*
X6227735Y7159398D01*
X6264390D01*
X6282717Y7141071D01*
Y7122743D01*
X6264390Y7104416D01*
X6246062D01*
X6264390D01*
X6282717Y7086088D01*
Y7067761D01*
X6264390Y7049434D01*
X6227735D01*
X6209407Y7067761D01*
X5457983Y7186935D02*
Y7296899D01*
X5512966D01*
X5531293Y7278572D01*
Y7241917D01*
X5512966Y7223589D01*
X5457983D01*
X5494638D02*
X5531293Y7186935D01*
X5641257D02*
X5567948D01*
X5641257Y7260244D01*
Y7278572D01*
X5622930Y7296899D01*
X5586275D01*
X5567948Y7278572D01*
X5677912D02*
X5696240Y7296899D01*
X5732895D01*
X5751222Y7278572D01*
Y7205262D01*
X5732895Y7186935D01*
X5696240D01*
X5677912Y7205262D01*
Y7278572D01*
X5787877Y7168607D02*
X5861186D01*
X5897841Y7296899D02*
Y7186935D01*
X5934496Y7223589D01*
X5971151Y7186935D01*
Y7296899D01*
X6081115Y7278572D02*
X6062788Y7296899D01*
X6026133D01*
X6007806Y7278572D01*
Y7260244D01*
X6026133Y7241917D01*
X6062788D01*
X6081115Y7223589D01*
Y7205262D01*
X6062788Y7186935D01*
X6026133D01*
X6007806Y7205262D01*
X6117770Y7186935D02*
X6154425D01*
X6136097D01*
Y7296899D01*
X6117770Y7278572D01*
X6282717Y7186935D02*
X6209407D01*
X6282717Y7260244D01*
Y7278572D01*
X6264390Y7296899D01*
X6227735D01*
X6209407Y7278572D01*
X5457983Y7329805D02*
Y7439769D01*
X5512966D01*
X5531293Y7421442D01*
Y7384787D01*
X5512966Y7366459D01*
X5457983D01*
X5494638D02*
X5531293Y7329805D01*
X5641257D02*
X5567948D01*
X5641257Y7403114D01*
Y7421442D01*
X5622930Y7439769D01*
X5586275D01*
X5567948Y7421442D01*
X5677912D02*
X5696240Y7439769D01*
X5732895D01*
X5751222Y7421442D01*
Y7348132D01*
X5732895Y7329805D01*
X5696240D01*
X5677912Y7348132D01*
Y7421442D01*
X5787877Y7311477D02*
X5861186D01*
X5897841Y7439769D02*
Y7329805D01*
X5934496Y7366459D01*
X5971151Y7329805D01*
Y7439769D01*
X6081115Y7421442D02*
X6062788Y7439769D01*
X6026133D01*
X6007806Y7421442D01*
Y7403114D01*
X6026133Y7384787D01*
X6062788D01*
X6081115Y7366459D01*
Y7348132D01*
X6062788Y7329805D01*
X6026133D01*
X6007806Y7348132D01*
X6117770Y7329805D02*
X6154425D01*
X6136097D01*
Y7439769D01*
X6117770Y7421442D01*
X6209407Y7329805D02*
X6246062D01*
X6227735D01*
Y7439769D01*
X6209407Y7421442D01*
X6833555Y331738D02*
Y441703D01*
X6888537D01*
X6906865Y423375D01*
Y386721D01*
X6888537Y368393D01*
X6833555D01*
X6870210D02*
X6906865Y331738D01*
X7016829D02*
X6943519D01*
X7016829Y405048D01*
Y423375D01*
X6998502Y441703D01*
X6961847D01*
X6943519Y423375D01*
X7053484D02*
X7071811Y441703D01*
X7108466D01*
X7126793Y423375D01*
Y350066D01*
X7108466Y331738D01*
X7071811D01*
X7053484Y350066D01*
Y423375D01*
X7163448Y313411D02*
X7236758D01*
X7273413Y441703D02*
Y331738D01*
X7310067Y368393D01*
X7346722Y331738D01*
Y441703D01*
X7456687Y423375D02*
X7438360Y441703D01*
X7401705D01*
X7383377Y423375D01*
Y405048D01*
X7401705Y386721D01*
X7438360D01*
X7456687Y368393D01*
Y350066D01*
X7438360Y331738D01*
X7401705D01*
X7383377Y350066D01*
X7493342Y331738D02*
X7529996D01*
X7511669D01*
Y441703D01*
X7493342Y423375D01*
X7584979D02*
X7603306Y441703D01*
X7639961D01*
X7658288Y423375D01*
Y350066D01*
X7639961Y331738D01*
X7603306D01*
X7584979Y350066D01*
Y423375D01*
X6849151Y483394D02*
Y593358D01*
X6904134D01*
X6922461Y575031D01*
Y538376D01*
X6904134Y520049D01*
X6849151D01*
X6885806D02*
X6922461Y483394D01*
X7032426D02*
X6959116D01*
X7032426Y556704D01*
Y575031D01*
X7014098Y593358D01*
X6977443D01*
X6959116Y575031D01*
X7069080D02*
X7087408Y593358D01*
X7124063D01*
X7142390Y575031D01*
Y501721D01*
X7124063Y483394D01*
X7087408D01*
X7069080Y501721D01*
Y575031D01*
X7179045Y465067D02*
X7252355D01*
X7289009Y593358D02*
Y483394D01*
X7325664Y520049D01*
X7362319Y483394D01*
Y593358D01*
X7472284Y575031D02*
X7453956Y593358D01*
X7417301D01*
X7398974Y575031D01*
Y556704D01*
X7417301Y538376D01*
X7453956D01*
X7472284Y520049D01*
Y501721D01*
X7453956Y483394D01*
X7417301D01*
X7398974Y501721D01*
X7508938D02*
X7527266Y483394D01*
X7563921D01*
X7582248Y501721D01*
Y575031D01*
X7563921Y593358D01*
X7527266D01*
X7508938Y575031D01*
Y556704D01*
X7527266Y538376D01*
X7582248D01*
X6832778Y630651D02*
Y740615D01*
X6887760D01*
X6906087Y722288D01*
Y685633D01*
X6887760Y667305D01*
X6832778D01*
X6869432D02*
X6906087Y630651D01*
X7016052D02*
X6942742D01*
X7016052Y703960D01*
Y722288D01*
X6997724Y740615D01*
X6961069D01*
X6942742Y722288D01*
X7052706D02*
X7071034Y740615D01*
X7107689D01*
X7126016Y722288D01*
Y648978D01*
X7107689Y630651D01*
X7071034D01*
X7052706Y648978D01*
Y722288D01*
X7162671Y612323D02*
X7235981D01*
X7272635Y740615D02*
Y630651D01*
X7309290Y667305D01*
X7345945Y630651D01*
Y740615D01*
X7455910Y722288D02*
X7437582Y740615D01*
X7400927D01*
X7382600Y722288D01*
Y703960D01*
X7400927Y685633D01*
X7437582D01*
X7455910Y667305D01*
Y648978D01*
X7437582Y630651D01*
X7400927D01*
X7382600Y648978D01*
X7492564Y722288D02*
X7510892Y740615D01*
X7547547D01*
X7565874Y722288D01*
Y703960D01*
X7547547Y685633D01*
X7565874Y667305D01*
Y648978D01*
X7547547Y630651D01*
X7510892D01*
X7492564Y648978D01*
Y667305D01*
X7510892Y685633D01*
X7492564Y703960D01*
Y722288D01*
X7510892Y685633D02*
X7547547D01*
X6832393Y782537D02*
Y892501D01*
X6887375D01*
X6905703Y874174D01*
Y837519D01*
X6887375Y819191D01*
X6832393D01*
X6869048D02*
X6905703Y782537D01*
X7015667D02*
X6942357D01*
X7015667Y855846D01*
Y874174D01*
X6997340Y892501D01*
X6960685D01*
X6942357Y874174D01*
X7052322D02*
X7070649Y892501D01*
X7107304D01*
X7125632Y874174D01*
Y800864D01*
X7107304Y782537D01*
X7070649D01*
X7052322Y800864D01*
Y874174D01*
X7162286Y764209D02*
X7235596D01*
X7272251Y892501D02*
Y782537D01*
X7308906Y819191D01*
X7345561Y782537D01*
Y892501D01*
X7455525Y874174D02*
X7437198Y892501D01*
X7400543D01*
X7382215Y874174D01*
Y855846D01*
X7400543Y837519D01*
X7437198D01*
X7455525Y819191D01*
Y800864D01*
X7437198Y782537D01*
X7400543D01*
X7382215Y800864D01*
X7492180Y892501D02*
X7565490D01*
Y874174D01*
X7492180Y800864D01*
Y782537D01*
X6832393Y917539D02*
Y1027503D01*
X6887375D01*
X6905703Y1009176D01*
Y972521D01*
X6887375Y954194D01*
X6832393D01*
X6869048D02*
X6905703Y917539D01*
X7015667D02*
X6942357D01*
X7015667Y990849D01*
Y1009176D01*
X6997340Y1027503D01*
X6960685D01*
X6942357Y1009176D01*
X7052322D02*
X7070649Y1027503D01*
X7107304D01*
X7125632Y1009176D01*
Y935866D01*
X7107304Y917539D01*
X7070649D01*
X7052322Y935866D01*
Y1009176D01*
X7162286Y899212D02*
X7235596D01*
X7272251Y1027503D02*
Y917539D01*
X7308906Y954194D01*
X7345561Y917539D01*
Y1027503D01*
X7455525Y1009176D02*
X7437198Y1027503D01*
X7400543D01*
X7382215Y1009176D01*
Y990849D01*
X7400543Y972521D01*
X7437198D01*
X7455525Y954194D01*
Y935866D01*
X7437198Y917539D01*
X7400543D01*
X7382215Y935866D01*
X7565490Y1027503D02*
X7528835Y1009176D01*
X7492180Y972521D01*
Y935866D01*
X7510507Y917539D01*
X7547162D01*
X7565490Y935866D01*
Y954194D01*
X7547162Y972521D01*
X7492180D01*
X6832393Y1057537D02*
Y1167502D01*
X6887375D01*
X6905703Y1149174D01*
Y1112520D01*
X6887375Y1094192D01*
X6832393D01*
X6869048D02*
X6905703Y1057537D01*
X7015667D02*
X6942357D01*
X7015667Y1130847D01*
Y1149174D01*
X6997340Y1167502D01*
X6960685D01*
X6942357Y1149174D01*
X7052322D02*
X7070649Y1167502D01*
X7107304D01*
X7125632Y1149174D01*
Y1075865D01*
X7107304Y1057537D01*
X7070649D01*
X7052322Y1075865D01*
Y1149174D01*
X7162286Y1039210D02*
X7235596D01*
X7272251Y1167502D02*
Y1057537D01*
X7308906Y1094192D01*
X7345561Y1057537D01*
Y1167502D01*
X7455525Y1149174D02*
X7437198Y1167502D01*
X7400543D01*
X7382215Y1149174D01*
Y1130847D01*
X7400543Y1112520D01*
X7437198D01*
X7455525Y1094192D01*
Y1075865D01*
X7437198Y1057537D01*
X7400543D01*
X7382215Y1075865D01*
X7565490Y1167502D02*
X7492180D01*
Y1112520D01*
X7528835Y1130847D01*
X7547162D01*
X7565490Y1112520D01*
Y1075865D01*
X7547162Y1057537D01*
X7510507D01*
X7492180Y1075865D01*
X6832388Y1209882D02*
Y1319846D01*
X6887370D01*
X6905698Y1301519D01*
Y1264864D01*
X6887370Y1246536D01*
X6832388D01*
X6869043D02*
X6905698Y1209882D01*
X7015662D02*
X6942352D01*
X7015662Y1283191D01*
Y1301519D01*
X6997335Y1319846D01*
X6960680D01*
X6942352Y1301519D01*
X7052317D02*
X7070644Y1319846D01*
X7107299D01*
X7125627Y1301519D01*
Y1228209D01*
X7107299Y1209882D01*
X7070644D01*
X7052317Y1228209D01*
Y1301519D01*
X7162281Y1191554D02*
X7235591D01*
X7272246Y1319846D02*
Y1209882D01*
X7308901Y1246536D01*
X7345556Y1209882D01*
Y1319846D01*
X7455520Y1301519D02*
X7437193Y1319846D01*
X7400538D01*
X7382210Y1301519D01*
Y1283191D01*
X7400538Y1264864D01*
X7437193D01*
X7455520Y1246536D01*
Y1228209D01*
X7437193Y1209882D01*
X7400538D01*
X7382210Y1228209D01*
X7547157Y1209882D02*
Y1319846D01*
X7492175Y1264864D01*
X7565484D01*
X6832393Y1365675D02*
Y1475639D01*
X6887375D01*
X6905703Y1457312D01*
Y1420657D01*
X6887375Y1402329D01*
X6832393D01*
X6869048D02*
X6905703Y1365675D01*
X7015667D02*
X6942357D01*
X7015667Y1438984D01*
Y1457312D01*
X6997340Y1475639D01*
X6960685D01*
X6942357Y1457312D01*
X7052322D02*
X7070649Y1475639D01*
X7107304D01*
X7125632Y1457312D01*
Y1384002D01*
X7107304Y1365675D01*
X7070649D01*
X7052322Y1384002D01*
Y1457312D01*
X7162286Y1347347D02*
X7235596D01*
X7272251Y1475639D02*
Y1365675D01*
X7308906Y1402329D01*
X7345561Y1365675D01*
Y1475639D01*
X7455525Y1457312D02*
X7437198Y1475639D01*
X7400543D01*
X7382215Y1457312D01*
Y1438984D01*
X7400543Y1420657D01*
X7437198D01*
X7455525Y1402329D01*
Y1384002D01*
X7437198Y1365675D01*
X7400543D01*
X7382215Y1384002D01*
X7492180Y1457312D02*
X7510507Y1475639D01*
X7547162D01*
X7565490Y1457312D01*
Y1438984D01*
X7547162Y1420657D01*
X7528835D01*
X7547162D01*
X7565490Y1402329D01*
Y1384002D01*
X7547162Y1365675D01*
X7510507D01*
X7492180Y1384002D01*
X6832393Y1524130D02*
Y1634094D01*
X6887375D01*
X6905703Y1615767D01*
Y1579112D01*
X6887375Y1560785D01*
X6832393D01*
X6869048D02*
X6905703Y1524130D01*
X7015667D02*
X6942357D01*
X7015667Y1597440D01*
Y1615767D01*
X6997340Y1634094D01*
X6960685D01*
X6942357Y1615767D01*
X7052322D02*
X7070649Y1634094D01*
X7107304D01*
X7125632Y1615767D01*
Y1542457D01*
X7107304Y1524130D01*
X7070649D01*
X7052322Y1542457D01*
Y1615767D01*
X7162286Y1505802D02*
X7235596D01*
X7272251Y1634094D02*
Y1524130D01*
X7308906Y1560785D01*
X7345561Y1524130D01*
Y1634094D01*
X7455525Y1615767D02*
X7437198Y1634094D01*
X7400543D01*
X7382215Y1615767D01*
Y1597440D01*
X7400543Y1579112D01*
X7437198D01*
X7455525Y1560785D01*
Y1542457D01*
X7437198Y1524130D01*
X7400543D01*
X7382215Y1542457D01*
X7565490Y1524130D02*
X7492180D01*
X7565490Y1597440D01*
Y1615767D01*
X7547162Y1634094D01*
X7510507D01*
X7492180Y1615767D01*
X6835307Y1675957D02*
Y1785921D01*
X6890289D01*
X6908617Y1767594D01*
Y1730939D01*
X6890289Y1712611D01*
X6835307D01*
X6871962D02*
X6908617Y1675957D01*
X7018581D02*
X6945272D01*
X7018581Y1749266D01*
Y1767594D01*
X7000254Y1785921D01*
X6963599D01*
X6945272Y1767594D01*
X7055236D02*
X7073563Y1785921D01*
X7110218D01*
X7128546Y1767594D01*
Y1694284D01*
X7110218Y1675957D01*
X7073563D01*
X7055236Y1694284D01*
Y1767594D01*
X7165201Y1657629D02*
X7238510D01*
X7275165Y1785921D02*
Y1675957D01*
X7311820Y1712611D01*
X7348475Y1675957D01*
Y1785921D01*
X7458439Y1767594D02*
X7440112Y1785921D01*
X7403457D01*
X7385130Y1767594D01*
Y1749266D01*
X7403457Y1730939D01*
X7440112D01*
X7458439Y1712611D01*
Y1694284D01*
X7440112Y1675957D01*
X7403457D01*
X7385130Y1694284D01*
X7495094Y1675957D02*
X7531749D01*
X7513421D01*
Y1785921D01*
X7495094Y1767594D01*
X11498000Y4830238D02*
X11388036D01*
Y4885220D01*
X11406363Y4903548D01*
X11443018D01*
X11461346Y4885220D01*
Y4830238D01*
Y4866893D02*
X11498000Y4903548D01*
Y4940202D02*
Y4976857D01*
Y4958530D01*
X11388036D01*
X11406363Y4940202D01*
X11479673Y5031840D02*
X11498000Y5050167D01*
Y5086822D01*
X11479673Y5105149D01*
X11406363D01*
X11388036Y5086822D01*
Y5050167D01*
X11406363Y5031840D01*
X11424691D01*
X11443018Y5050167D01*
Y5105149D01*
X11516328Y5141804D02*
Y5215114D01*
X11388036Y5251769D02*
X11498000D01*
X11461346Y5288423D01*
X11498000Y5325078D01*
X11388036D01*
X11406363Y5435043D02*
X11388036Y5416715D01*
Y5380060D01*
X11406363Y5361733D01*
X11424691D01*
X11443018Y5380060D01*
Y5416715D01*
X11461346Y5435043D01*
X11479673D01*
X11498000Y5416715D01*
Y5380060D01*
X11479673Y5361733D01*
X11498000Y5545007D02*
Y5471697D01*
X11424691Y5545007D01*
X11406363D01*
X11388036Y5526680D01*
Y5490025D01*
X11406363Y5471697D01*
Y5581662D02*
X11388036Y5599989D01*
Y5636644D01*
X11406363Y5654972D01*
X11479673D01*
X11498000Y5636644D01*
Y5599989D01*
X11479673Y5581662D01*
X11406363D01*
X11625798Y6068039D02*
X11515833D01*
Y6123021D01*
X11534161Y6141349D01*
X11570816D01*
X11589143Y6123021D01*
Y6068039D01*
Y6104694D02*
X11625798Y6141349D01*
Y6178003D02*
Y6214658D01*
Y6196331D01*
X11515833D01*
X11534161Y6178003D01*
X11607471Y6269640D02*
X11625798Y6287968D01*
Y6324623D01*
X11607471Y6342950D01*
X11534161D01*
X11515833Y6324623D01*
Y6287968D01*
X11534161Y6269640D01*
X11552488D01*
X11570816Y6287968D01*
Y6342950D01*
X11644125Y6379605D02*
Y6452915D01*
X11515833Y6489569D02*
X11625798D01*
X11589143Y6526224D01*
X11625798Y6562879D01*
X11515833D01*
X11534161Y6672844D02*
X11515833Y6654516D01*
Y6617861D01*
X11534161Y6599534D01*
X11552488D01*
X11570816Y6617861D01*
Y6654516D01*
X11589143Y6672844D01*
X11607471D01*
X11625798Y6654516D01*
Y6617861D01*
X11607471Y6599534D01*
X11625798Y6709498D02*
Y6746153D01*
Y6727826D01*
X11515833D01*
X11534161Y6709498D01*
Y6801135D02*
X11515833Y6819463D01*
Y6856118D01*
X11534161Y6874445D01*
X11552488D01*
X11570816Y6856118D01*
X11589143Y6874445D01*
X11607471D01*
X11625798Y6856118D01*
Y6819463D01*
X11607471Y6801135D01*
X11589143D01*
X11570816Y6819463D01*
X11552488Y6801135D01*
X11534161D01*
X11570816Y6819463D02*
Y6856118D01*
X11476598Y6068039D02*
X11366634D01*
Y6123021D01*
X11384961Y6141349D01*
X11421616D01*
X11439944Y6123021D01*
Y6068039D01*
Y6104694D02*
X11476598Y6141349D01*
Y6178003D02*
Y6214658D01*
Y6196331D01*
X11366634D01*
X11384961Y6178003D01*
X11458271Y6269640D02*
X11476598Y6287968D01*
Y6324623D01*
X11458271Y6342950D01*
X11384961D01*
X11366634Y6324623D01*
Y6287968D01*
X11384961Y6269640D01*
X11403289D01*
X11421616Y6287968D01*
Y6342950D01*
X11494926Y6379605D02*
Y6452915D01*
X11366634Y6489569D02*
X11476598D01*
X11439944Y6526224D01*
X11476598Y6562879D01*
X11366634D01*
X11384961Y6672844D02*
X11366634Y6654516D01*
Y6617861D01*
X11384961Y6599534D01*
X11403289D01*
X11421616Y6617861D01*
Y6654516D01*
X11439944Y6672844D01*
X11458271D01*
X11476598Y6654516D01*
Y6617861D01*
X11458271Y6599534D01*
X11476598Y6709498D02*
Y6746153D01*
Y6727826D01*
X11366634D01*
X11384961Y6709498D01*
X11366634Y6801135D02*
Y6874445D01*
X11384961D01*
X11458271Y6801135D01*
X11476598D01*
X11310802Y6068039D02*
X11200838D01*
Y6123021D01*
X11219165Y6141349D01*
X11255820D01*
X11274148Y6123021D01*
Y6068039D01*
Y6104694D02*
X11310802Y6141349D01*
Y6178003D02*
Y6214658D01*
Y6196331D01*
X11200838D01*
X11219165Y6178003D01*
X11292475Y6269640D02*
X11310802Y6287968D01*
Y6324623D01*
X11292475Y6342950D01*
X11219165D01*
X11200838Y6324623D01*
Y6287968D01*
X11219165Y6269640D01*
X11237493D01*
X11255820Y6287968D01*
Y6342950D01*
X11329130Y6379605D02*
Y6452915D01*
X11200838Y6489569D02*
X11310802D01*
X11274148Y6526224D01*
X11310802Y6562879D01*
X11200838D01*
X11219165Y6672844D02*
X11200838Y6654516D01*
Y6617861D01*
X11219165Y6599534D01*
X11237493D01*
X11255820Y6617861D01*
Y6654516D01*
X11274148Y6672844D01*
X11292475D01*
X11310802Y6654516D01*
Y6617861D01*
X11292475Y6599534D01*
X11310802Y6709498D02*
Y6746153D01*
Y6727826D01*
X11200838D01*
X11219165Y6709498D01*
X11200838Y6874445D02*
X11219165Y6837790D01*
X11255820Y6801135D01*
X11292475D01*
X11310802Y6819463D01*
Y6856118D01*
X11292475Y6874445D01*
X11274148D01*
X11255820Y6856118D01*
Y6801135D01*
X11144996Y6068039D02*
X11035032D01*
Y6123021D01*
X11053359Y6141349D01*
X11090014D01*
X11108342Y6123021D01*
Y6068039D01*
Y6104694D02*
X11144996Y6141349D01*
Y6178003D02*
Y6214658D01*
Y6196331D01*
X11035032D01*
X11053359Y6178003D01*
X11126669Y6269640D02*
X11144996Y6287968D01*
Y6324623D01*
X11126669Y6342950D01*
X11053359D01*
X11035032Y6324623D01*
Y6287968D01*
X11053359Y6269640D01*
X11071687D01*
X11090014Y6287968D01*
Y6342950D01*
X11163324Y6379605D02*
Y6452915D01*
X11035032Y6489569D02*
X11144996D01*
X11108342Y6526224D01*
X11144996Y6562879D01*
X11035032D01*
X11053359Y6672844D02*
X11035032Y6654516D01*
Y6617861D01*
X11053359Y6599534D01*
X11071687D01*
X11090014Y6617861D01*
Y6654516D01*
X11108342Y6672844D01*
X11126669D01*
X11144996Y6654516D01*
Y6617861D01*
X11126669Y6599534D01*
X11144996Y6709498D02*
Y6746153D01*
Y6727826D01*
X11035032D01*
X11053359Y6709498D01*
X11035032Y6874445D02*
Y6801135D01*
X11090014D01*
X11071687Y6837790D01*
Y6856118D01*
X11090014Y6874445D01*
X11126669D01*
X11144996Y6856118D01*
Y6819463D01*
X11126669Y6801135D01*
X11000800Y6068039D02*
X10890836D01*
Y6123021D01*
X10909163Y6141349D01*
X10945818D01*
X10964146Y6123021D01*
Y6068039D01*
Y6104694D02*
X11000800Y6141349D01*
Y6178003D02*
Y6214658D01*
Y6196331D01*
X10890836D01*
X10909163Y6178003D01*
X10982473Y6269640D02*
X11000800Y6287968D01*
Y6324623D01*
X10982473Y6342950D01*
X10909163D01*
X10890836Y6324623D01*
Y6287968D01*
X10909163Y6269640D01*
X10927491D01*
X10945818Y6287968D01*
Y6342950D01*
X11019128Y6379605D02*
Y6452915D01*
X10890836Y6489569D02*
X11000800D01*
X10964146Y6526224D01*
X11000800Y6562879D01*
X10890836D01*
X10909163Y6672844D02*
X10890836Y6654516D01*
Y6617861D01*
X10909163Y6599534D01*
X10927491D01*
X10945818Y6617861D01*
Y6654516D01*
X10964146Y6672844D01*
X10982473D01*
X11000800Y6654516D01*
Y6617861D01*
X10982473Y6599534D01*
X11000800Y6709498D02*
Y6746153D01*
Y6727826D01*
X10890836D01*
X10909163Y6709498D01*
X11000800Y6856118D02*
X10890836D01*
X10945818Y6801135D01*
Y6874445D01*
X10870795Y6068039D02*
X10760831D01*
Y6123021D01*
X10779158Y6141349D01*
X10815813D01*
X10834140Y6123021D01*
Y6068039D01*
Y6104694D02*
X10870795Y6141349D01*
Y6178003D02*
Y6214658D01*
Y6196331D01*
X10760831D01*
X10779158Y6178003D01*
X10852468Y6269640D02*
X10870795Y6287968D01*
Y6324623D01*
X10852468Y6342950D01*
X10779158D01*
X10760831Y6324623D01*
Y6287968D01*
X10779158Y6269640D01*
X10797485D01*
X10815813Y6287968D01*
Y6342950D01*
X10889122Y6379605D02*
Y6452915D01*
X10760831Y6489569D02*
X10870795D01*
X10834140Y6526224D01*
X10870795Y6562879D01*
X10760831D01*
X10779158Y6672844D02*
X10760831Y6654516D01*
Y6617861D01*
X10779158Y6599534D01*
X10797485D01*
X10815813Y6617861D01*
Y6654516D01*
X10834140Y6672844D01*
X10852468D01*
X10870795Y6654516D01*
Y6617861D01*
X10852468Y6599534D01*
X10870795Y6709498D02*
Y6746153D01*
Y6727826D01*
X10760831D01*
X10779158Y6709498D01*
Y6801135D02*
X10760831Y6819463D01*
Y6856118D01*
X10779158Y6874445D01*
X10797485D01*
X10815813Y6856118D01*
Y6837790D01*
Y6856118D01*
X10834140Y6874445D01*
X10852468D01*
X10870795Y6856118D01*
Y6819463D01*
X10852468Y6801135D01*
X10721596Y6068039D02*
X10611631D01*
Y6123021D01*
X10629958Y6141349D01*
X10666613D01*
X10684941Y6123021D01*
Y6068039D01*
Y6104694D02*
X10721596Y6141349D01*
Y6178003D02*
Y6214658D01*
Y6196331D01*
X10611631D01*
X10629958Y6178003D01*
X10703268Y6269640D02*
X10721596Y6287968D01*
Y6324623D01*
X10703268Y6342950D01*
X10629958D01*
X10611631Y6324623D01*
Y6287968D01*
X10629958Y6269640D01*
X10648286D01*
X10666613Y6287968D01*
Y6342950D01*
X10739923Y6379605D02*
Y6452915D01*
X10611631Y6489569D02*
X10721596D01*
X10684941Y6526224D01*
X10721596Y6562879D01*
X10611631D01*
X10629958Y6672844D02*
X10611631Y6654516D01*
Y6617861D01*
X10629958Y6599534D01*
X10648286D01*
X10666613Y6617861D01*
Y6654516D01*
X10684941Y6672844D01*
X10703268D01*
X10721596Y6654516D01*
Y6617861D01*
X10703268Y6599534D01*
X10721596Y6709498D02*
Y6746153D01*
Y6727826D01*
X10611631D01*
X10629958Y6709498D01*
X10721596Y6874445D02*
Y6801135D01*
X10648286Y6874445D01*
X10629958D01*
X10611631Y6856118D01*
Y6819463D01*
X10629958Y6801135D01*
X10562342Y6068039D02*
X10452378D01*
Y6123021D01*
X10470705Y6141348D01*
X10507360D01*
X10525688Y6123021D01*
Y6068039D01*
Y6104693D02*
X10562342Y6141348D01*
Y6178003D02*
Y6214658D01*
Y6196331D01*
X10452378D01*
X10470705Y6178003D01*
X10544015Y6269640D02*
X10562342Y6287968D01*
Y6324623D01*
X10544015Y6342950D01*
X10470705D01*
X10452378Y6324623D01*
Y6287968D01*
X10470705Y6269640D01*
X10489033D01*
X10507360Y6287968D01*
Y6342950D01*
X10580670Y6379605D02*
Y6452914D01*
X10452378Y6489569D02*
X10562342D01*
X10525688Y6526224D01*
X10562342Y6562879D01*
X10452378D01*
X10470705Y6672843D02*
X10452378Y6654516D01*
Y6617861D01*
X10470705Y6599534D01*
X10489033D01*
X10507360Y6617861D01*
Y6654516D01*
X10525688Y6672843D01*
X10544015D01*
X10562342Y6654516D01*
Y6617861D01*
X10544015Y6599534D01*
X10562342Y6709498D02*
Y6746153D01*
Y6727826D01*
X10452378D01*
X10470705Y6709498D01*
X10562342Y6801135D02*
Y6837790D01*
Y6819463D01*
X10452378D01*
X10470705Y6801135D01*
X11372659Y3339172D02*
X11262695D01*
Y3394155D01*
X11281022Y3412482D01*
X11317677D01*
X11336005Y3394155D01*
Y3339172D01*
Y3375827D02*
X11372659Y3412482D01*
Y3449137D02*
Y3485791D01*
Y3467464D01*
X11262695D01*
X11281022Y3449137D01*
X11354332Y3540774D02*
X11372659Y3559101D01*
Y3595756D01*
X11354332Y3614083D01*
X11281022D01*
X11262695Y3595756D01*
Y3559101D01*
X11281022Y3540774D01*
X11299350D01*
X11317677Y3559101D01*
Y3614083D01*
X11390987Y3650738D02*
Y3724048D01*
X11262695Y3760703D02*
X11372659D01*
X11336005Y3797357D01*
X11372659Y3834012D01*
X11262695D01*
X11281022Y3943977D02*
X11262695Y3925650D01*
Y3888995D01*
X11281022Y3870667D01*
X11299350D01*
X11317677Y3888995D01*
Y3925650D01*
X11336005Y3943977D01*
X11354332D01*
X11372659Y3925650D01*
Y3888995D01*
X11354332Y3870667D01*
X11372659Y3980632D02*
Y4017286D01*
Y3998959D01*
X11262695D01*
X11281022Y3980632D01*
Y4072269D02*
X11262695Y4090596D01*
Y4127251D01*
X11281022Y4145578D01*
X11354332D01*
X11372659Y4127251D01*
Y4090596D01*
X11354332Y4072269D01*
X11281022D01*
X11215284Y3344810D02*
X11105319D01*
Y3399792D01*
X11123647Y3418120D01*
X11160302D01*
X11178629Y3399792D01*
Y3344810D01*
Y3381465D02*
X11215284Y3418120D01*
Y3454774D02*
Y3491429D01*
Y3473102D01*
X11105319D01*
X11123647Y3454774D01*
X11196957Y3546411D02*
X11215284Y3564739D01*
Y3601394D01*
X11196957Y3619721D01*
X11123647D01*
X11105319Y3601394D01*
Y3564739D01*
X11123647Y3546411D01*
X11141974D01*
X11160302Y3564739D01*
Y3619721D01*
X11233611Y3656376D02*
Y3729686D01*
X11105319Y3766340D02*
X11215284D01*
X11178629Y3802995D01*
X11215284Y3839650D01*
X11105319D01*
X11123647Y3949615D02*
X11105319Y3931287D01*
Y3894632D01*
X11123647Y3876305D01*
X11141974D01*
X11160302Y3894632D01*
Y3931287D01*
X11178629Y3949615D01*
X11196957D01*
X11215284Y3931287D01*
Y3894632D01*
X11196957Y3876305D01*
Y3986269D02*
X11215284Y4004597D01*
Y4041252D01*
X11196957Y4059579D01*
X11123647D01*
X11105319Y4041252D01*
Y4004597D01*
X11123647Y3986269D01*
X11141974D01*
X11160302Y4004597D01*
Y4059579D01*
X10342524Y1133452D02*
X10232559D01*
Y1188434D01*
X10250887Y1206762D01*
X10287542D01*
X10305869Y1188434D01*
Y1133452D01*
Y1170107D02*
X10342524Y1206762D01*
Y1243416D02*
Y1280071D01*
Y1261744D01*
X10232559D01*
X10250887Y1243416D01*
X10324197Y1335053D02*
X10342524Y1353381D01*
Y1390036D01*
X10324197Y1408363D01*
X10250887D01*
X10232559Y1390036D01*
Y1353381D01*
X10250887Y1335053D01*
X10269214D01*
X10287542Y1353381D01*
Y1408363D01*
X10360851Y1445018D02*
Y1518328D01*
X10232559Y1554982D02*
X10342524D01*
X10305869Y1591637D01*
X10342524Y1628292D01*
X10232559D01*
X10250887Y1738257D02*
X10232559Y1719929D01*
Y1683274D01*
X10250887Y1664947D01*
X10269214D01*
X10287542Y1683274D01*
Y1719929D01*
X10305869Y1738257D01*
X10324197D01*
X10342524Y1719929D01*
Y1683274D01*
X10324197Y1664947D01*
X10250887Y1774911D02*
X10232559Y1793239D01*
Y1829894D01*
X10250887Y1848221D01*
X10269214D01*
X10287542Y1829894D01*
X10305869Y1848221D01*
X10324197D01*
X10342524Y1829894D01*
Y1793239D01*
X10324197Y1774911D01*
X10305869D01*
X10287542Y1793239D01*
X10269214Y1774911D01*
X10250887D01*
X10287542Y1793239D02*
Y1829894D01*
X10492516Y1133452D02*
X10382551D01*
Y1188434D01*
X10400879Y1206762D01*
X10437534D01*
X10455861Y1188434D01*
Y1133452D01*
Y1170107D02*
X10492516Y1206762D01*
Y1243416D02*
Y1280071D01*
Y1261744D01*
X10382551D01*
X10400879Y1243416D01*
X10474189Y1335053D02*
X10492516Y1353381D01*
Y1390036D01*
X10474189Y1408363D01*
X10400879D01*
X10382551Y1390036D01*
Y1353381D01*
X10400879Y1335053D01*
X10419206D01*
X10437534Y1353381D01*
Y1408363D01*
X10510843Y1445018D02*
Y1518328D01*
X10382551Y1554982D02*
X10492516D01*
X10455861Y1591637D01*
X10492516Y1628292D01*
X10382551D01*
X10400879Y1738257D02*
X10382551Y1719929D01*
Y1683274D01*
X10400879Y1664947D01*
X10419206D01*
X10437534Y1683274D01*
Y1719929D01*
X10455861Y1738257D01*
X10474189D01*
X10492516Y1719929D01*
Y1683274D01*
X10474189Y1664947D01*
X10382551Y1774911D02*
Y1848221D01*
X10400879D01*
X10474189Y1774911D01*
X10492516D01*
X10623320Y1133452D02*
X10513356D01*
Y1188434D01*
X10531683Y1206761D01*
X10568338D01*
X10586666Y1188434D01*
Y1133452D01*
Y1170106D02*
X10623320Y1206761D01*
Y1243416D02*
Y1280071D01*
Y1261743D01*
X10513356D01*
X10531683Y1243416D01*
X10604993Y1335053D02*
X10623320Y1353381D01*
Y1390036D01*
X10604993Y1408363D01*
X10531683D01*
X10513356Y1390036D01*
Y1353381D01*
X10531683Y1335053D01*
X10550011D01*
X10568338Y1353381D01*
Y1408363D01*
X10641648Y1445018D02*
Y1518327D01*
X10513356Y1554982D02*
X10623320D01*
X10586666Y1591637D01*
X10623320Y1628292D01*
X10513356D01*
X10531683Y1738256D02*
X10513356Y1719929D01*
Y1683274D01*
X10531683Y1664947D01*
X10550011D01*
X10568338Y1683274D01*
Y1719929D01*
X10586666Y1738256D01*
X10604993D01*
X10623320Y1719929D01*
Y1683274D01*
X10604993Y1664947D01*
X10513356Y1848221D02*
X10531683Y1811566D01*
X10568338Y1774911D01*
X10604993D01*
X10623320Y1793238D01*
Y1829893D01*
X10604993Y1848221D01*
X10586666D01*
X10568338Y1829893D01*
Y1774911D01*
X10770821Y1133452D02*
X10660856D01*
Y1188434D01*
X10679184Y1206762D01*
X10715838D01*
X10734166Y1188434D01*
Y1133452D01*
Y1170107D02*
X10770821Y1206762D01*
Y1243416D02*
Y1280071D01*
Y1261744D01*
X10660856D01*
X10679184Y1243416D01*
X10752493Y1335053D02*
X10770821Y1353381D01*
Y1390036D01*
X10752493Y1408363D01*
X10679184D01*
X10660856Y1390036D01*
Y1353381D01*
X10679184Y1335053D01*
X10697511D01*
X10715838Y1353381D01*
Y1408363D01*
X10789148Y1445018D02*
Y1518328D01*
X10660856Y1554982D02*
X10770821D01*
X10734166Y1591637D01*
X10770821Y1628292D01*
X10660856D01*
X10679184Y1738257D02*
X10660856Y1719929D01*
Y1683274D01*
X10679184Y1664947D01*
X10697511D01*
X10715838Y1683274D01*
Y1719929D01*
X10734166Y1738257D01*
X10752493D01*
X10770821Y1719929D01*
Y1683274D01*
X10752493Y1664947D01*
X10660856Y1848221D02*
Y1774911D01*
X10715838D01*
X10697511Y1811566D01*
Y1829894D01*
X10715838Y1848221D01*
X10752493D01*
X10770821Y1829894D01*
Y1793239D01*
X10752493Y1774911D01*
X10920820Y1133452D02*
X10810856D01*
Y1188434D01*
X10829183Y1206761D01*
X10865838D01*
X10884166Y1188434D01*
Y1133452D01*
Y1170106D02*
X10920820Y1206761D01*
Y1243416D02*
Y1280071D01*
Y1261743D01*
X10810856D01*
X10829183Y1243416D01*
X10902493Y1335053D02*
X10920820Y1353381D01*
Y1390036D01*
X10902493Y1408363D01*
X10829183D01*
X10810856Y1390036D01*
Y1353381D01*
X10829183Y1335053D01*
X10847511D01*
X10865838Y1353381D01*
Y1408363D01*
X10939148Y1445018D02*
Y1518327D01*
X10810856Y1554982D02*
X10920820D01*
X10884166Y1591637D01*
X10920820Y1628292D01*
X10810856D01*
X10829183Y1738256D02*
X10810856Y1719929D01*
Y1683274D01*
X10829183Y1664947D01*
X10847511D01*
X10865838Y1683274D01*
Y1719929D01*
X10884166Y1738256D01*
X10902493D01*
X10920820Y1719929D01*
Y1683274D01*
X10902493Y1664947D01*
X10920820Y1829893D02*
X10810856D01*
X10865838Y1774911D01*
Y1848221D01*
X11060821Y1133452D02*
X10950856D01*
Y1188434D01*
X10969184Y1206762D01*
X11005838D01*
X11024166Y1188434D01*
Y1133452D01*
Y1170107D02*
X11060821Y1206762D01*
Y1243416D02*
Y1280071D01*
Y1261744D01*
X10950856D01*
X10969184Y1243416D01*
X11042493Y1335053D02*
X11060821Y1353381D01*
Y1390036D01*
X11042493Y1408363D01*
X10969184D01*
X10950856Y1390036D01*
Y1353381D01*
X10969184Y1335053D01*
X10987511D01*
X11005838Y1353381D01*
Y1408363D01*
X11079148Y1445018D02*
Y1518328D01*
X10950856Y1554982D02*
X11060821D01*
X11024166Y1591637D01*
X11060821Y1628292D01*
X10950856D01*
X10969184Y1738257D02*
X10950856Y1719929D01*
Y1683274D01*
X10969184Y1664947D01*
X10987511D01*
X11005838Y1683274D01*
Y1719929D01*
X11024166Y1738257D01*
X11042493D01*
X11060821Y1719929D01*
Y1683274D01*
X11042493Y1664947D01*
X10969184Y1774911D02*
X10950856Y1793239D01*
Y1829894D01*
X10969184Y1848221D01*
X10987511D01*
X11005838Y1829894D01*
Y1811566D01*
Y1829894D01*
X11024166Y1848221D01*
X11042493D01*
X11060821Y1829894D01*
Y1793239D01*
X11042493Y1774911D01*
X11210820Y1133452D02*
X11100856D01*
Y1188434D01*
X11119183Y1206761D01*
X11155838D01*
X11174166Y1188434D01*
Y1133452D01*
Y1170106D02*
X11210820Y1206761D01*
Y1243416D02*
Y1280071D01*
Y1261743D01*
X11100856D01*
X11119183Y1243416D01*
X11192493Y1335053D02*
X11210820Y1353381D01*
Y1390036D01*
X11192493Y1408363D01*
X11119183D01*
X11100856Y1390036D01*
Y1353381D01*
X11119183Y1335053D01*
X11137511D01*
X11155838Y1353381D01*
Y1408363D01*
X11229148Y1445018D02*
Y1518327D01*
X11100856Y1554982D02*
X11210820D01*
X11174166Y1591637D01*
X11210820Y1628292D01*
X11100856D01*
X11119183Y1738256D02*
X11100856Y1719929D01*
Y1683274D01*
X11119183Y1664947D01*
X11137511D01*
X11155838Y1683274D01*
Y1719929D01*
X11174166Y1738256D01*
X11192493D01*
X11210820Y1719929D01*
Y1683274D01*
X11192493Y1664947D01*
X11210820Y1848221D02*
Y1774911D01*
X11137511Y1848221D01*
X11119183D01*
X11100856Y1829893D01*
Y1793238D01*
X11119183Y1774911D01*
X11360821Y1133452D02*
X11250856D01*
Y1188434D01*
X11269183Y1206762D01*
X11305838D01*
X11324166Y1188434D01*
Y1133452D01*
Y1170107D02*
X11360821Y1206762D01*
Y1243416D02*
Y1280071D01*
Y1261744D01*
X11250856D01*
X11269183Y1243416D01*
X11342493Y1335053D02*
X11360821Y1353381D01*
Y1390036D01*
X11342493Y1408363D01*
X11269183D01*
X11250856Y1390036D01*
Y1353381D01*
X11269183Y1335053D01*
X11287511D01*
X11305838Y1353381D01*
Y1408363D01*
X11379148Y1445018D02*
Y1518328D01*
X11250856Y1554982D02*
X11360821D01*
X11324166Y1591637D01*
X11360821Y1628292D01*
X11250856D01*
X11269183Y1738257D02*
X11250856Y1719929D01*
Y1683274D01*
X11269183Y1664947D01*
X11287511D01*
X11305838Y1683274D01*
Y1719929D01*
X11324166Y1738257D01*
X11342493D01*
X11360821Y1719929D01*
Y1683274D01*
X11342493Y1664947D01*
X11360821Y1774911D02*
Y1811566D01*
Y1793239D01*
X11250856D01*
X11269183Y1774911D01*
X11369312Y4832211D02*
X11259347D01*
Y4887193D01*
X11277675Y4905520D01*
X11314329D01*
X11332657Y4887193D01*
Y4832211D01*
Y4868865D02*
X11369312Y4905520D01*
Y4942175D02*
Y4978830D01*
Y4960502D01*
X11259347D01*
X11277675Y4942175D01*
Y5033812D02*
X11259347Y5052140D01*
Y5088794D01*
X11277675Y5107122D01*
X11296002D01*
X11314329Y5088794D01*
X11332657Y5107122D01*
X11350984D01*
X11369312Y5088794D01*
Y5052140D01*
X11350984Y5033812D01*
X11332657D01*
X11314329Y5052140D01*
X11296002Y5033812D01*
X11277675D01*
X11314329Y5052140D02*
Y5088794D01*
X11387639Y5143777D02*
Y5217086D01*
X11277675Y5327051D02*
X11259347Y5308723D01*
Y5272068D01*
X11277675Y5253741D01*
X11296002D01*
X11314329Y5272068D01*
Y5308723D01*
X11332657Y5327051D01*
X11350984D01*
X11369312Y5308723D01*
Y5272068D01*
X11350984Y5253741D01*
X11259347Y5363706D02*
Y5400360D01*
Y5382033D01*
X11369312D01*
Y5363706D01*
Y5400360D01*
Y5455343D02*
Y5491997D01*
Y5473670D01*
X11259347D01*
X11277675Y5455343D01*
X11516642Y3347276D02*
X11406677D01*
Y3402259D01*
X11425005Y3420586D01*
X11461659D01*
X11479987Y3402259D01*
Y3347276D01*
Y3383931D02*
X11516642Y3420586D01*
Y3457241D02*
Y3493895D01*
Y3475568D01*
X11406677D01*
X11425005Y3457241D01*
Y3548878D02*
X11406677Y3567205D01*
Y3603860D01*
X11425005Y3622188D01*
X11443332D01*
X11461659Y3603860D01*
X11479987Y3622188D01*
X11498314D01*
X11516642Y3603860D01*
Y3567205D01*
X11498314Y3548878D01*
X11479987D01*
X11461659Y3567205D01*
X11443332Y3548878D01*
X11425005D01*
X11461659Y3567205D02*
Y3603860D01*
X11534969Y3658842D02*
Y3732152D01*
X11425005Y3842117D02*
X11406677Y3823789D01*
Y3787134D01*
X11425005Y3768807D01*
X11443332D01*
X11461659Y3787134D01*
Y3823789D01*
X11479987Y3842117D01*
X11498314D01*
X11516642Y3823789D01*
Y3787134D01*
X11498314Y3768807D01*
X11406677Y3878771D02*
Y3915426D01*
Y3897099D01*
X11516642D01*
Y3878771D01*
Y3915426D01*
X11425005Y3970408D02*
X11406677Y3988736D01*
Y4025391D01*
X11425005Y4043718D01*
X11498314D01*
X11516642Y4025391D01*
Y3988736D01*
X11498314Y3970408D01*
X11425005D01*
X8355736Y4520808D02*
X8245771D01*
Y4575790D01*
X8264099Y4594118D01*
X8300754D01*
X8319081Y4575790D01*
Y4520808D01*
Y4557463D02*
X8355736Y4594118D01*
Y4630773D02*
Y4667427D01*
Y4649100D01*
X8245771D01*
X8264099Y4630773D01*
X8245771Y4795719D02*
X8264099Y4759064D01*
X8300754Y4722410D01*
X8337409D01*
X8355736Y4740737D01*
Y4777392D01*
X8337409Y4795719D01*
X8319081D01*
X8300754Y4777392D01*
Y4722410D01*
X8374063Y4832374D02*
Y4905684D01*
X8264099Y5015648D02*
X8245771Y4997321D01*
Y4960666D01*
X8264099Y4942339D01*
X8282426D01*
X8300754Y4960666D01*
Y4997321D01*
X8319081Y5015648D01*
X8337409D01*
X8355736Y4997321D01*
Y4960666D01*
X8337409Y4942339D01*
X8245771Y5052303D02*
Y5088958D01*
Y5070630D01*
X8355736D01*
Y5052303D01*
Y5088958D01*
Y5143940D02*
Y5180595D01*
Y5162268D01*
X8245771D01*
X8264099Y5143940D01*
X8519807Y3633655D02*
X8409843D01*
Y3688638D01*
X8428170Y3706965D01*
X8464825D01*
X8483153Y3688638D01*
Y3633655D01*
Y3670310D02*
X8519807Y3706965D01*
Y3743620D02*
Y3780275D01*
Y3761947D01*
X8409843D01*
X8428170Y3743620D01*
X8409843Y3908567D02*
X8428170Y3871912D01*
X8464825Y3835257D01*
X8501480D01*
X8519807Y3853584D01*
Y3890239D01*
X8501480Y3908567D01*
X8483153D01*
X8464825Y3890239D01*
Y3835257D01*
X8538135Y3945221D02*
Y4018531D01*
X8428170Y4128496D02*
X8409843Y4110168D01*
Y4073513D01*
X8428170Y4055186D01*
X8446498D01*
X8464825Y4073513D01*
Y4110168D01*
X8483153Y4128496D01*
X8501480D01*
X8519807Y4110168D01*
Y4073513D01*
X8501480Y4055186D01*
X8409843Y4165150D02*
Y4201805D01*
Y4183478D01*
X8519807D01*
Y4165150D01*
Y4201805D01*
X8428170Y4256788D02*
X8409843Y4275115D01*
Y4311770D01*
X8428170Y4330097D01*
X8501480D01*
X8519807Y4311770D01*
Y4275115D01*
X8501480Y4256788D01*
X8428170D01*
X10498723Y3948229D02*
X10388758D01*
Y4003211D01*
X10407086Y4021538D01*
X10443740D01*
X10462068Y4003211D01*
Y3948229D01*
Y3984883D02*
X10498723Y4021538D01*
Y4058193D02*
Y4094848D01*
Y4076520D01*
X10388758D01*
X10407086Y4058193D01*
X10498723Y4204813D02*
X10388758D01*
X10443740Y4149830D01*
Y4223140D01*
X10517050Y4259795D02*
Y4333104D01*
X10407086Y4443069D02*
X10388758Y4424741D01*
Y4388086D01*
X10407086Y4369759D01*
X10425413D01*
X10443740Y4388086D01*
Y4424741D01*
X10462068Y4443069D01*
X10480395D01*
X10498723Y4424741D01*
Y4388086D01*
X10480395Y4369759D01*
X10388758Y4479724D02*
Y4516378D01*
Y4498051D01*
X10498723D01*
Y4479724D01*
Y4516378D01*
Y4571361D02*
Y4608015D01*
Y4589688D01*
X10388758D01*
X10407086Y4571361D01*
X11663972Y3357321D02*
X11554007D01*
Y3412304D01*
X11572335Y3430631D01*
X11608989D01*
X11627317Y3412304D01*
Y3357321D01*
Y3393976D02*
X11663972Y3430631D01*
Y3467286D02*
Y3503941D01*
Y3485613D01*
X11554007D01*
X11572335Y3467286D01*
X11663972Y3613905D02*
X11554007D01*
X11608989Y3558923D01*
Y3632233D01*
X11682299Y3668888D02*
Y3742197D01*
X11572335Y3852162D02*
X11554007Y3833834D01*
Y3797179D01*
X11572335Y3778852D01*
X11590662D01*
X11608989Y3797179D01*
Y3833834D01*
X11627317Y3852162D01*
X11645644D01*
X11663972Y3833834D01*
Y3797179D01*
X11645644Y3778852D01*
X11554007Y3888816D02*
Y3925471D01*
Y3907144D01*
X11663972D01*
Y3888816D01*
Y3925471D01*
X11572335Y3980454D02*
X11554007Y3998781D01*
Y4035436D01*
X11572335Y4053763D01*
X11645644D01*
X11663972Y4035436D01*
Y3998781D01*
X11645644Y3980454D01*
X11572335D01*
X8188315Y4520808D02*
X8078351D01*
Y4575790D01*
X8096678Y4594118D01*
X8133333D01*
X8151661Y4575790D01*
Y4520808D01*
Y4557463D02*
X8188315Y4594118D01*
Y4630773D02*
Y4667427D01*
Y4649100D01*
X8078351D01*
X8096678Y4630773D01*
X8188315Y4795719D02*
Y4722410D01*
X8115006Y4795719D01*
X8096678D01*
X8078351Y4777392D01*
Y4740737D01*
X8096678Y4722410D01*
X8206643Y4832374D02*
Y4905684D01*
X8096678Y5015648D02*
X8078351Y4997321D01*
Y4960666D01*
X8096678Y4942339D01*
X8115006D01*
X8133333Y4960666D01*
Y4997321D01*
X8151661Y5015648D01*
X8169988D01*
X8188315Y4997321D01*
Y4960666D01*
X8169988Y4942339D01*
X8078351Y5052303D02*
Y5088958D01*
Y5070630D01*
X8188315D01*
Y5052303D01*
Y5088958D01*
Y5143940D02*
Y5180595D01*
Y5162268D01*
X8078351D01*
X8096678Y5143940D01*
X8697274Y3633655D02*
X8587310D01*
Y3688638D01*
X8605637Y3706965D01*
X8642292D01*
X8660619Y3688638D01*
Y3633655D01*
Y3670310D02*
X8697274Y3706965D01*
Y3743620D02*
Y3780275D01*
Y3761947D01*
X8587310D01*
X8605637Y3743620D01*
X8697274Y3908567D02*
Y3835257D01*
X8623964Y3908567D01*
X8605637D01*
X8587310Y3890239D01*
Y3853584D01*
X8605637Y3835257D01*
X8715602Y3945221D02*
Y4018531D01*
X8605637Y4128496D02*
X8587310Y4110168D01*
Y4073513D01*
X8605637Y4055186D01*
X8623964D01*
X8642292Y4073513D01*
Y4110168D01*
X8660619Y4128496D01*
X8678947D01*
X8697274Y4110168D01*
Y4073513D01*
X8678947Y4055186D01*
X8587310Y4165150D02*
Y4201805D01*
Y4183478D01*
X8697274D01*
Y4165150D01*
Y4201805D01*
X8605637Y4256788D02*
X8587310Y4275115D01*
Y4311770D01*
X8605637Y4330097D01*
X8678947D01*
X8697274Y4311770D01*
Y4275115D01*
X8678947Y4256788D01*
X8605637D01*
X9241318Y4449950D02*
Y4559915D01*
X9296300D01*
X9314628Y4541588D01*
Y4504933D01*
X9296300Y4486605D01*
X9241318D01*
X9277973D02*
X9314628Y4449950D01*
X9406265D02*
Y4559915D01*
X9351282Y4504933D01*
X9424592D01*
X9461247Y4431623D02*
X9534556D01*
X9644521Y4541588D02*
X9626194Y4559915D01*
X9589539D01*
X9571211Y4541588D01*
Y4523260D01*
X9589539Y4504933D01*
X9626194D01*
X9644521Y4486605D01*
Y4468278D01*
X9626194Y4449950D01*
X9589539D01*
X9571211Y4468278D01*
X9681176Y4559915D02*
X9717830D01*
X9699503D01*
Y4449950D01*
X9681176D01*
X9717830D01*
X9772813D02*
X9809468D01*
X9791140D01*
Y4559915D01*
X9772813Y4541588D01*
X10096913Y2036986D02*
X9986949D01*
Y2091968D01*
X10005276Y2110296D01*
X10041931D01*
X10060258Y2091968D01*
Y2036986D01*
Y2073641D02*
X10096913Y2110296D01*
Y2201933D02*
X9986949D01*
X10041931Y2146950D01*
Y2220260D01*
X10115240Y2256915D02*
Y2330225D01*
X10005276Y2440189D02*
X9986949Y2421862D01*
Y2385207D01*
X10005276Y2366879D01*
X10023603D01*
X10041931Y2385207D01*
Y2421862D01*
X10060258Y2440189D01*
X10078586D01*
X10096913Y2421862D01*
Y2385207D01*
X10078586Y2366879D01*
X9986949Y2476844D02*
Y2513499D01*
Y2495171D01*
X10096913D01*
Y2476844D01*
Y2513499D01*
X10005276Y2568481D02*
X9986949Y2586808D01*
Y2623463D01*
X10005276Y2641791D01*
X10078586D01*
X10096913Y2623463D01*
Y2586808D01*
X10078586Y2568481D01*
X10005276D01*
X776075Y2637425D02*
Y2527460D01*
X849385D01*
X886040D02*
X922694D01*
X904367D01*
Y2637425D01*
X886040Y2619097D01*
X1032659Y2527460D02*
Y2637425D01*
X977677Y2582443D01*
X1050986D01*
X607740Y2840834D02*
X717705D01*
Y2914144D01*
Y2950798D02*
Y2987453D01*
Y2969126D01*
X607740D01*
X626068Y2950798D01*
Y3042435D02*
X607740Y3060763D01*
Y3097418D01*
X626068Y3115745D01*
X644395D01*
X662722Y3097418D01*
Y3079090D01*
Y3097418D01*
X681050Y3115745D01*
X699377D01*
X717705Y3097418D01*
Y3060763D01*
X699377Y3042435D01*
X3303450Y5926256D02*
Y5816292D01*
X3376760D01*
X3413415D02*
X3450070D01*
X3431742D01*
Y5926256D01*
X3413415Y5907929D01*
X3505052D02*
X3523379Y5926256D01*
X3560034D01*
X3578362Y5907929D01*
Y5834619D01*
X3560034Y5816292D01*
X3523379D01*
X3505052Y5834619D01*
Y5907929D01*
X3880364Y7950508D02*
Y7840544D01*
X3953674D01*
X3990329Y7858871D02*
X4008656Y7840544D01*
X4045311D01*
X4063638Y7858871D01*
Y7932181D01*
X4045311Y7950508D01*
X4008656D01*
X3990329Y7932181D01*
Y7913854D01*
X4008656Y7895526D01*
X4063638D01*
X984488Y4784059D02*
Y4747404D01*
Y4765731D01*
X1076125D01*
X1094452Y4747404D01*
Y4729076D01*
X1076125Y4710749D01*
X984488Y4894023D02*
X1002815Y4857368D01*
X1039470Y4820713D01*
X1076125D01*
X1094452Y4839041D01*
Y4875696D01*
X1076125Y4894023D01*
X1057797D01*
X1039470Y4875696D01*
Y4820713D01*
X1126624Y698814D02*
X1089969D01*
X1108297D01*
Y607177D01*
X1089969Y588850D01*
X1071642D01*
X1053315Y607177D01*
X1236589Y698814D02*
X1163279D01*
Y643832D01*
X1199934Y662160D01*
X1218261D01*
X1236589Y643832D01*
Y607177D01*
X1218261Y588850D01*
X1181606D01*
X1163279Y607177D01*
X443657Y2995451D02*
X407002D01*
X425330D01*
Y2903814D01*
X407002Y2885487D01*
X388675D01*
X370348Y2903814D01*
X535295Y2885487D02*
Y2995451D01*
X480312Y2940469D01*
X553622D01*
X672909Y6205761D02*
X709564D01*
X691237D01*
Y6297398D01*
X709564Y6315725D01*
X727892D01*
X746219Y6297398D01*
X636255Y6224088D02*
X617927Y6205761D01*
X581272D01*
X562945Y6224088D01*
Y6242416D01*
X581272Y6260743D01*
X599600D01*
X581272D01*
X562945Y6279071D01*
Y6297398D01*
X581272Y6315725D01*
X617927D01*
X636255Y6297398D01*
X1268429Y7651696D02*
X1231774D01*
X1250101D01*
Y7560059D01*
X1231774Y7541731D01*
X1213446D01*
X1195119Y7560059D01*
X1378393Y7541731D02*
X1305083D01*
X1378393Y7615041D01*
Y7633368D01*
X1360066Y7651696D01*
X1323411D01*
X1305083Y7633368D01*
X5016596Y7346305D02*
X5053251D01*
X5034923D01*
Y7236341D01*
X5016596D01*
X5053251D01*
X5181543Y7327978D02*
X5163215Y7346305D01*
X5126560D01*
X5108233Y7327978D01*
Y7254668D01*
X5126560Y7236341D01*
X5163215D01*
X5181543Y7254668D01*
X5218198Y7236341D02*
X5254852D01*
X5236525D01*
Y7346305D01*
X5218198Y7327978D01*
X5383144Y7346305D02*
X5309835D01*
Y7291323D01*
X5346489Y7309651D01*
X5364817D01*
X5383144Y7291323D01*
Y7254668D01*
X5364817Y7236341D01*
X5328162D01*
X5309835Y7254668D01*
X4983494Y6799340D02*
X5020149D01*
X5001822D01*
Y6689375D01*
X4983494D01*
X5020149D01*
X5148441Y6781012D02*
X5130114Y6799340D01*
X5093459D01*
X5075131Y6781012D01*
Y6707703D01*
X5093459Y6689375D01*
X5130114D01*
X5148441Y6707703D01*
X5185096Y6689375D02*
X5221751D01*
X5203423D01*
Y6799340D01*
X5185096Y6781012D01*
X5331715Y6689375D02*
Y6799340D01*
X5276733Y6744358D01*
X5350043D01*
X3793483Y7793565D02*
X3830138D01*
X3811810D01*
Y7683600D01*
X3793483D01*
X3830138D01*
X3958430Y7775237D02*
X3940102Y7793565D01*
X3903447D01*
X3885120Y7775237D01*
Y7701928D01*
X3903447Y7683600D01*
X3940102D01*
X3958430Y7701928D01*
X3995084Y7683600D02*
X4031739D01*
X4013412D01*
Y7793565D01*
X3995084Y7775237D01*
X4086722D02*
X4105049Y7793565D01*
X4141704D01*
X4160031Y7775237D01*
Y7756910D01*
X4141704Y7738583D01*
X4123376D01*
X4141704D01*
X4160031Y7720255D01*
Y7701928D01*
X4141704Y7683600D01*
X4105049D01*
X4086722Y7701928D01*
X5153993Y1478278D02*
X5190647D01*
X5172320D01*
Y1368313D01*
X5153993D01*
X5190647D01*
X5318940Y1459951D02*
X5300612Y1478278D01*
X5263957D01*
X5245630Y1459951D01*
Y1386641D01*
X5263957Y1368313D01*
X5300612D01*
X5318940Y1386641D01*
X5355594Y1368313D02*
X5392249D01*
X5373922D01*
Y1478278D01*
X5355594Y1459951D01*
X5447231Y1368313D02*
X5483886D01*
X5465559D01*
Y1478278D01*
X5447231Y1459951D01*
X5286533Y2168149D02*
Y2204803D01*
Y2186476D01*
X5396498D01*
Y2168149D01*
Y2204803D01*
X5304861Y2333095D02*
X5286533Y2314768D01*
Y2278113D01*
X5304861Y2259786D01*
X5378170D01*
X5396498Y2278113D01*
Y2314768D01*
X5378170Y2333095D01*
X5396498Y2369750D02*
Y2406405D01*
Y2388078D01*
X5286533D01*
X5304861Y2369750D01*
Y2461387D02*
X5286533Y2479715D01*
Y2516370D01*
X5304861Y2534697D01*
X5378170D01*
X5396498Y2516370D01*
Y2479715D01*
X5378170Y2461387D01*
X5304861D01*
X4439677Y1794757D02*
X4476332D01*
X4458004D01*
Y1684793D01*
X4439677D01*
X4476332D01*
X4604624Y1776430D02*
X4586296Y1794757D01*
X4549641D01*
X4531314Y1776430D01*
Y1703120D01*
X4549641Y1684793D01*
X4586296D01*
X4604624Y1703120D01*
X4641278D02*
X4659606Y1684793D01*
X4696261D01*
X4714588Y1703120D01*
Y1776430D01*
X4696261Y1794757D01*
X4659606D01*
X4641278Y1776430D01*
Y1758103D01*
X4659606Y1739775D01*
X4714588D01*
X2301711Y6178019D02*
X2338366D01*
X2320039D01*
Y6068055D01*
X2301711D01*
X2338366D01*
X2466658Y6159692D02*
X2448331Y6178019D01*
X2411676D01*
X2393349Y6159692D01*
Y6086382D01*
X2411676Y6068055D01*
X2448331D01*
X2466658Y6086382D01*
X2503313Y6178019D02*
X2576623D01*
Y6159692D01*
X2503313Y6086382D01*
Y6068055D01*
X4609300Y6193004D02*
X4645955D01*
X4627627D01*
Y6083040D01*
X4609300D01*
X4645955D01*
X4774247Y6174677D02*
X4755919Y6193004D01*
X4719264D01*
X4700937Y6174677D01*
Y6101367D01*
X4719264Y6083040D01*
X4755919D01*
X4774247Y6101367D01*
X4884211Y6193004D02*
X4847556Y6174677D01*
X4810901Y6138022D01*
Y6101367D01*
X4829229Y6083040D01*
X4865884D01*
X4884211Y6101367D01*
Y6119695D01*
X4865884Y6138022D01*
X4810901D01*
X4920048Y6469985D02*
X4956702D01*
X4938375D01*
Y6360021D01*
X4920048D01*
X4956702D01*
X5084994Y6451658D02*
X5066667Y6469985D01*
X5030012D01*
X5011685Y6451658D01*
Y6378348D01*
X5030012Y6360021D01*
X5066667D01*
X5084994Y6378348D01*
X5194959Y6469985D02*
X5121649D01*
Y6415003D01*
X5158304Y6433330D01*
X5176632D01*
X5194959Y6415003D01*
Y6378348D01*
X5176632Y6360021D01*
X5139977D01*
X5121649Y6378348D01*
X4261127Y5325821D02*
Y5215857D01*
X4316109D01*
X4334437Y5234184D01*
Y5307494D01*
X4316109Y5325821D01*
X4261127D01*
X4371091Y5215857D02*
X4407746D01*
X4389419D01*
Y5325821D01*
X4371091Y5307494D01*
X4462728Y5325821D02*
X4536038D01*
Y5307494D01*
X4462728Y5234184D01*
Y5215857D01*
X4258540Y5532790D02*
Y5422826D01*
X4313522D01*
X4331849Y5441153D01*
Y5514463D01*
X4313522Y5532790D01*
X4258540D01*
X4368504Y5422826D02*
X4405159D01*
X4386831D01*
Y5532790D01*
X4368504Y5514463D01*
X4533451Y5532790D02*
X4496796Y5514463D01*
X4460141Y5477808D01*
Y5441153D01*
X4478469Y5422826D01*
X4515124D01*
X4533451Y5441153D01*
Y5459480D01*
X4515124Y5477808D01*
X4460141D01*
X3244580Y1129757D02*
Y1019793D01*
X3299563D01*
X3317890Y1038120D01*
Y1111430D01*
X3299563Y1129757D01*
X3244580D01*
X3354545Y1019793D02*
X3391199D01*
X3372872D01*
Y1129757D01*
X3354545Y1111430D01*
X3446182D02*
X3464509Y1129757D01*
X3501164D01*
X3519492Y1111430D01*
Y1093102D01*
X3501164Y1074775D01*
X3482837D01*
X3501164D01*
X3519492Y1056447D01*
Y1038120D01*
X3501164Y1019793D01*
X3464509D01*
X3446182Y1038120D01*
X3234077Y2031264D02*
Y1921299D01*
X3289060D01*
X3307387Y1939627D01*
Y2012937D01*
X3289060Y2031264D01*
X3234077D01*
X3344042Y1921299D02*
X3380697D01*
X3362369D01*
Y2031264D01*
X3344042Y2012937D01*
X3508989Y1921299D02*
X3435679D01*
X3508989Y1994609D01*
Y2012937D01*
X3490661Y2031264D01*
X3454006D01*
X3435679Y2012937D01*
X2131161Y5701781D02*
X2021196D01*
Y5646799D01*
X2039524Y5628471D01*
X2112833D01*
X2131161Y5646799D01*
Y5701781D01*
X2021196Y5536834D02*
X2131161D01*
X2076179Y5591817D01*
Y5518507D01*
X3779611Y1850140D02*
X3761284Y1868468D01*
X3724629D01*
X3706301Y1850140D01*
Y1776831D01*
X3724629Y1758503D01*
X3761284D01*
X3779611Y1776831D01*
X3816266Y1850140D02*
X3834593Y1868468D01*
X3871248D01*
X3889575Y1850140D01*
Y1831813D01*
X3871248Y1813486D01*
X3889575Y1795158D01*
Y1776831D01*
X3871248Y1758503D01*
X3834593D01*
X3816266Y1776831D01*
Y1795158D01*
X3834593Y1813486D01*
X3816266Y1831813D01*
Y1850140D01*
X3834593Y1813486D02*
X3871248D01*
X3926230Y1868468D02*
X3999540D01*
Y1850140D01*
X3926230Y1776831D01*
Y1758503D01*
X4952045Y1126451D02*
X4933718Y1144779D01*
X4897063D01*
X4878736Y1126451D01*
Y1053141D01*
X4897063Y1034814D01*
X4933718D01*
X4952045Y1053141D01*
X4988700Y1126451D02*
X5007028Y1144779D01*
X5043683D01*
X5062010Y1126451D01*
Y1108124D01*
X5043683Y1089796D01*
X5062010Y1071469D01*
Y1053141D01*
X5043683Y1034814D01*
X5007028D01*
X4988700Y1053141D01*
Y1071469D01*
X5007028Y1089796D01*
X4988700Y1108124D01*
Y1126451D01*
X5007028Y1089796D02*
X5043683D01*
X5171974Y1144779D02*
X5098665D01*
Y1089796D01*
X5135319Y1108124D01*
X5153647D01*
X5171974Y1089796D01*
Y1053141D01*
X5153647Y1034814D01*
X5116992D01*
X5098665Y1053141D01*
X1005132Y2436198D02*
X986804Y2417870D01*
Y2381215D01*
X1005132Y2362888D01*
X1078442D01*
X1096769Y2381215D01*
Y2417870D01*
X1078442Y2436198D01*
X1005132Y2472852D02*
X986804Y2491180D01*
Y2527835D01*
X1005132Y2546162D01*
X1023459D01*
X1041787Y2527835D01*
X1060114Y2546162D01*
X1078442D01*
X1096769Y2527835D01*
Y2491180D01*
X1078442Y2472852D01*
X1060114D01*
X1041787Y2491180D01*
X1023459Y2472852D01*
X1005132D01*
X1041787Y2491180D02*
Y2527835D01*
X1005132Y2582817D02*
X986804Y2601144D01*
Y2637799D01*
X1005132Y2656127D01*
X1023459D01*
X1041787Y2637799D01*
Y2619472D01*
Y2637799D01*
X1060114Y2656127D01*
X1078442D01*
X1096769Y2637799D01*
Y2601144D01*
X1078442Y2582817D01*
X315745Y2612104D02*
X297417Y2630432D01*
X260762D01*
X242435Y2612104D01*
Y2538795D01*
X260762Y2520467D01*
X297417D01*
X315745Y2538795D01*
X352400Y2612104D02*
X370727Y2630432D01*
X407382D01*
X425709Y2612104D01*
Y2593777D01*
X407382Y2575450D01*
X425709Y2557122D01*
Y2538795D01*
X407382Y2520467D01*
X370727D01*
X352400Y2538795D01*
Y2557122D01*
X370727Y2575450D01*
X352400Y2593777D01*
Y2612104D01*
X370727Y2575450D02*
X407382D01*
X535674Y2520467D02*
X462364D01*
X535674Y2593777D01*
Y2612104D01*
X517346Y2630432D01*
X480691D01*
X462364Y2612104D01*
X2061000Y6115008D02*
X2079327Y6096681D01*
X2115982D01*
X2134309Y6115008D01*
Y6188318D01*
X2115982Y6206645D01*
X2079327D01*
X2061000Y6188318D01*
X2024345Y6096681D02*
X1951035D01*
Y6115008D01*
X2024345Y6188318D01*
Y6206645D01*
X1914380D02*
X1877726D01*
X1896053D01*
Y6096681D01*
X1914380Y6115008D01*
X3754342Y6785719D02*
X3736014Y6767391D01*
Y6730736D01*
X3754342Y6712409D01*
X3827651D01*
X3845979Y6730736D01*
Y6767391D01*
X3827651Y6785719D01*
X3736014Y6895683D02*
X3754342Y6859028D01*
X3790996Y6822373D01*
X3827651D01*
X3845979Y6840701D01*
Y6877356D01*
X3827651Y6895683D01*
X3809324D01*
X3790996Y6877356D01*
Y6822373D01*
X3736014Y6932338D02*
Y7005648D01*
X3754342D01*
X3827651Y6932338D01*
X3845979D01*
X3635189Y7492291D02*
X3616861Y7473963D01*
Y7437308D01*
X3635189Y7418981D01*
X3708499D01*
X3726826Y7437308D01*
Y7473963D01*
X3708499Y7492291D01*
X3616861Y7602255D02*
X3635189Y7565600D01*
X3671844Y7528946D01*
X3708499D01*
X3726826Y7547273D01*
Y7583928D01*
X3708499Y7602255D01*
X3690171D01*
X3671844Y7583928D01*
Y7528946D01*
X3616861Y7712220D02*
X3635189Y7675565D01*
X3671844Y7638910D01*
X3708499D01*
X3726826Y7657237D01*
Y7693892D01*
X3708499Y7712220D01*
X3690171D01*
X3671844Y7693892D01*
Y7638910D01*
X4312745Y7496503D02*
X4294418Y7478176D01*
Y7441521D01*
X4312745Y7423193D01*
X4386055D01*
X4404382Y7441521D01*
Y7478176D01*
X4386055Y7496503D01*
X4294418Y7606467D02*
X4312745Y7569812D01*
X4349400Y7533158D01*
X4386055D01*
X4404382Y7551485D01*
Y7588140D01*
X4386055Y7606467D01*
X4367727D01*
X4349400Y7588140D01*
Y7533158D01*
X4404382Y7643122D02*
Y7679777D01*
Y7661449D01*
X4294418D01*
X4312745Y7643122D01*
X4165314Y7489154D02*
X4146986Y7470827D01*
Y7434172D01*
X4165314Y7415845D01*
X4238623D01*
X4256951Y7434172D01*
Y7470827D01*
X4238623Y7489154D01*
X4146986Y7599119D02*
X4165314Y7562464D01*
X4201968Y7525809D01*
X4238623D01*
X4256951Y7544137D01*
Y7580792D01*
X4238623Y7599119D01*
X4220296D01*
X4201968Y7580792D01*
Y7525809D01*
X4165314Y7635774D02*
X4146986Y7654101D01*
Y7690756D01*
X4165314Y7709083D01*
X4238623D01*
X4256951Y7690756D01*
Y7654101D01*
X4238623Y7635774D01*
X4165314D01*
X5046171Y6598164D02*
X5027843Y6616491D01*
X4991188D01*
X4972861Y6598164D01*
Y6524854D01*
X4991188Y6506527D01*
X5027843D01*
X5046171Y6524854D01*
X5156135Y6616491D02*
X5082825D01*
Y6561509D01*
X5119480Y6579836D01*
X5137808D01*
X5156135Y6561509D01*
Y6524854D01*
X5137808Y6506527D01*
X5101153D01*
X5082825Y6524854D01*
X5192790D02*
X5211117Y6506527D01*
X5247772D01*
X5266100Y6524854D01*
Y6598164D01*
X5247772Y6616491D01*
X5211117D01*
X5192790Y6598164D01*
Y6579836D01*
X5211117Y6561509D01*
X5266100D01*
X5123825Y6098630D02*
X5105498Y6080303D01*
Y6043648D01*
X5123825Y6025321D01*
X5197135D01*
X5215462Y6043648D01*
Y6080303D01*
X5197135Y6098630D01*
X5105498Y6208595D02*
Y6135285D01*
X5160480D01*
X5142152Y6171940D01*
Y6190268D01*
X5160480Y6208595D01*
X5197135D01*
X5215462Y6190268D01*
Y6153613D01*
X5197135Y6135285D01*
X5123825Y6245250D02*
X5105498Y6263577D01*
Y6300232D01*
X5123825Y6318559D01*
X5142152D01*
X5160480Y6300232D01*
X5178807Y6318559D01*
X5197135D01*
X5215462Y6300232D01*
Y6263577D01*
X5197135Y6245250D01*
X5178807D01*
X5160480Y6263577D01*
X5142152Y6245250D01*
X5123825D01*
X5160480Y6263577D02*
Y6300232D01*
X5123825Y5731687D02*
X5105498Y5713359D01*
Y5676704D01*
X5123825Y5658377D01*
X5197135D01*
X5215462Y5676704D01*
Y5713359D01*
X5197135Y5731687D01*
X5105498Y5841651D02*
Y5768342D01*
X5160480D01*
X5142152Y5804996D01*
Y5823324D01*
X5160480Y5841651D01*
X5197135D01*
X5215462Y5823324D01*
Y5786669D01*
X5197135Y5768342D01*
X5105498Y5951616D02*
X5123825Y5914961D01*
X5160480Y5878306D01*
X5197135D01*
X5215462Y5896633D01*
Y5933288D01*
X5197135Y5951616D01*
X5178807D01*
X5160480Y5933288D01*
Y5878306D01*
X2647792Y7362255D02*
X2629465Y7343928D01*
Y7307273D01*
X2647792Y7288945D01*
X2721102D01*
X2739429Y7307273D01*
Y7343928D01*
X2721102Y7362255D01*
X2629465Y7472219D02*
Y7398910D01*
X2684447D01*
X2666120Y7435565D01*
Y7453892D01*
X2684447Y7472219D01*
X2721102D01*
X2739429Y7453892D01*
Y7417237D01*
X2721102Y7398910D01*
X2647792Y7508874D02*
X2629465Y7527202D01*
Y7563857D01*
X2647792Y7582184D01*
X2666120D01*
X2684447Y7563857D01*
Y7545529D01*
Y7563857D01*
X2702775Y7582184D01*
X2721102D01*
X2739429Y7563857D01*
Y7527202D01*
X2721102Y7508874D01*
X2159751Y7627556D02*
X2141423Y7609229D01*
Y7572574D01*
X2159751Y7554246D01*
X2233060D01*
X2251388Y7572574D01*
Y7609229D01*
X2233060Y7627556D01*
X2141423Y7737520D02*
Y7664211D01*
X2196405D01*
X2178078Y7700865D01*
Y7719193D01*
X2196405Y7737520D01*
X2233060D01*
X2251388Y7719193D01*
Y7682538D01*
X2233060Y7664211D01*
X2251388Y7847485D02*
Y7774175D01*
X2178078Y7847485D01*
X2159751D01*
X2141423Y7829158D01*
Y7792503D01*
X2159751Y7774175D01*
X1610847Y7111164D02*
X1592520Y7092836D01*
Y7056181D01*
X1610847Y7037854D01*
X1684157D01*
X1702484Y7056181D01*
Y7092836D01*
X1684157Y7111164D01*
X1592520Y7221128D02*
Y7147818D01*
X1647502D01*
X1629174Y7184473D01*
Y7202801D01*
X1647502Y7221128D01*
X1684157D01*
X1702484Y7202801D01*
Y7166146D01*
X1684157Y7147818D01*
X1702484Y7257783D02*
Y7294438D01*
Y7276110D01*
X1592520D01*
X1610847Y7257783D01*
X3381506Y6723132D02*
X3363178Y6741459D01*
X3326523D01*
X3308196Y6723132D01*
Y6649822D01*
X3326523Y6631495D01*
X3363178D01*
X3381506Y6649822D01*
X3473143Y6631495D02*
Y6741459D01*
X3418160Y6686477D01*
X3491470D01*
X3528125Y6649822D02*
X3546452Y6631495D01*
X3583107D01*
X3601435Y6649822D01*
Y6723132D01*
X3583107Y6741459D01*
X3546452D01*
X3528125Y6723132D01*
Y6704804D01*
X3546452Y6686477D01*
X3601435D01*
X3376690Y7736655D02*
X3358363Y7754982D01*
X3321708D01*
X3303381Y7736655D01*
Y7663345D01*
X3321708Y7645018D01*
X3358363D01*
X3376690Y7663345D01*
X3468328Y7645018D02*
Y7754982D01*
X3413345Y7700000D01*
X3486655D01*
X3523310Y7736655D02*
X3541637Y7754982D01*
X3578292D01*
X3596619Y7736655D01*
Y7718328D01*
X3578292Y7700000D01*
X3596619Y7681673D01*
Y7663345D01*
X3578292Y7645018D01*
X3541637D01*
X3523310Y7663345D01*
Y7681673D01*
X3541637Y7700000D01*
X3523310Y7718328D01*
Y7736655D01*
X3541637Y7700000D02*
X3578292D01*
X8381293Y2748436D02*
X8362966Y2730109D01*
Y2693454D01*
X8381293Y2675127D01*
X8454603D01*
X8472930Y2693454D01*
Y2730109D01*
X8454603Y2748436D01*
X8472930Y2840074D02*
X8362966D01*
X8417948Y2785091D01*
Y2858401D01*
X8472930Y2968365D02*
Y2895056D01*
X8399620Y2968365D01*
X8381293D01*
X8362966Y2950038D01*
Y2913383D01*
X8381293Y2895056D01*
X8491258Y3005020D02*
Y3078330D01*
X8381293Y3188294D02*
X8362966Y3169967D01*
Y3133312D01*
X8381293Y3114985D01*
X8399620D01*
X8417948Y3133312D01*
Y3169967D01*
X8436275Y3188294D01*
X8454603D01*
X8472930Y3169967D01*
Y3133312D01*
X8454603Y3114985D01*
X8362966Y3224949D02*
Y3261604D01*
Y3243276D01*
X8472930D01*
Y3224949D01*
Y3261604D01*
X8381293Y3316586D02*
X8362966Y3334914D01*
Y3371569D01*
X8381293Y3389896D01*
X8454603D01*
X8472930Y3371569D01*
Y3334914D01*
X8454603Y3316586D01*
X8381293D01*
X9700569Y4915566D02*
X9682242Y4897239D01*
Y4860584D01*
X9700569Y4842256D01*
X9773879D01*
X9792206Y4860584D01*
Y4897239D01*
X9773879Y4915566D01*
X9792206Y5007203D02*
X9682242D01*
X9737224Y4952221D01*
Y5025530D01*
X9792206Y5062185D02*
Y5098840D01*
Y5080513D01*
X9682242D01*
X9700569Y5062185D01*
X9810534Y5153822D02*
Y5227132D01*
X9700569Y5337097D02*
X9682242Y5318769D01*
Y5282114D01*
X9700569Y5263787D01*
X9718897D01*
X9737224Y5282114D01*
Y5318769D01*
X9755552Y5337097D01*
X9773879D01*
X9792206Y5318769D01*
Y5282114D01*
X9773879Y5263787D01*
X9682242Y5373751D02*
Y5410406D01*
Y5392079D01*
X9792206D01*
Y5373751D01*
Y5410406D01*
Y5465388D02*
Y5502043D01*
Y5483716D01*
X9682242D01*
X9700569Y5465388D01*
X9724008Y2104658D02*
X9705681Y2086331D01*
Y2049676D01*
X9724008Y2031348D01*
X9797318D01*
X9815645Y2049676D01*
Y2086331D01*
X9797318Y2104658D01*
X9815645Y2196295D02*
X9705681D01*
X9760663Y2141313D01*
Y2214623D01*
X9815645Y2251277D02*
Y2287932D01*
Y2269605D01*
X9705681D01*
X9724008Y2251277D01*
X9833973Y2342915D02*
Y2416224D01*
X9724008Y2526189D02*
X9705681Y2507861D01*
Y2471206D01*
X9724008Y2452879D01*
X9742336D01*
X9760663Y2471206D01*
Y2507861D01*
X9778991Y2526189D01*
X9797318D01*
X9815645Y2507861D01*
Y2471206D01*
X9797318Y2452879D01*
X9705681Y2562843D02*
Y2599498D01*
Y2581171D01*
X9815645D01*
Y2562843D01*
Y2599498D01*
X9724008Y2654481D02*
X9705681Y2672808D01*
Y2709463D01*
X9724008Y2727790D01*
X9797318D01*
X9815645Y2709463D01*
Y2672808D01*
X9797318Y2654481D01*
X9724008D01*
X11027609Y4541588D02*
X11009282Y4559915D01*
X10972627D01*
X10954300Y4541588D01*
Y4468278D01*
X10972627Y4449950D01*
X11009282D01*
X11027609Y4468278D01*
X11119246Y4449950D02*
Y4559915D01*
X11064264Y4504933D01*
X11137574D01*
X11174229Y4541588D02*
X11192556Y4559915D01*
X11229211D01*
X11247538Y4541588D01*
Y4468278D01*
X11229211Y4449950D01*
X11192556D01*
X11174229Y4468278D01*
Y4541588D01*
X11284193Y4431623D02*
X11357503D01*
X11467467Y4541588D02*
X11449140Y4559915D01*
X11412485D01*
X11394158Y4541588D01*
Y4523260D01*
X11412485Y4504933D01*
X11449140D01*
X11467467Y4486605D01*
Y4468278D01*
X11449140Y4449950D01*
X11412485D01*
X11394158Y4468278D01*
X11504122Y4559915D02*
X11540777D01*
X11522449D01*
Y4449950D01*
X11504122D01*
X11540777D01*
X11595759D02*
X11632414D01*
X11614086D01*
Y4559915D01*
X11595759Y4541588D01*
X10238031Y3530229D02*
X10219704Y3548556D01*
X10183049D01*
X10164721Y3530229D01*
Y3456919D01*
X10183049Y3438592D01*
X10219704D01*
X10238031Y3456919D01*
X10329668Y3438592D02*
Y3548556D01*
X10274686Y3493574D01*
X10347996D01*
X10384650Y3530229D02*
X10402978Y3548556D01*
X10439633D01*
X10457960Y3530229D01*
Y3456919D01*
X10439633Y3438592D01*
X10402978D01*
X10384650Y3456919D01*
Y3530229D01*
X10494615Y3420264D02*
X10567925D01*
X10677889Y3530229D02*
X10659562Y3548556D01*
X10622907D01*
X10604579Y3530229D01*
Y3511901D01*
X10622907Y3493574D01*
X10659562D01*
X10677889Y3475246D01*
Y3456919D01*
X10659562Y3438592D01*
X10622907D01*
X10604579Y3456919D01*
X10714544Y3548556D02*
X10751198D01*
X10732871D01*
Y3438592D01*
X10714544D01*
X10751198D01*
X10806181Y3530229D02*
X10824508Y3548556D01*
X10861163D01*
X10879491Y3530229D01*
Y3456919D01*
X10861163Y3438592D01*
X10824508D01*
X10806181Y3456919D01*
Y3530229D01*
X10266452Y4430045D02*
X10248125Y4411718D01*
Y4375063D01*
X10266452Y4356735D01*
X10339762D01*
X10358089Y4375063D01*
Y4411718D01*
X10339762Y4430045D01*
X10358089Y4466700D02*
Y4503354D01*
Y4485027D01*
X10248125D01*
X10266452Y4466700D01*
X10248125Y4631647D02*
X10266452Y4594992D01*
X10303107Y4558337D01*
X10339762D01*
X10358089Y4576664D01*
Y4613319D01*
X10339762Y4631647D01*
X10321434D01*
X10303107Y4613319D01*
Y4558337D01*
X10376416Y4668301D02*
Y4741611D01*
X10266452Y4851576D02*
X10248125Y4833248D01*
Y4796593D01*
X10266452Y4778266D01*
X10284779D01*
X10303107Y4796593D01*
Y4833248D01*
X10321434Y4851576D01*
X10339762D01*
X10358089Y4833248D01*
Y4796593D01*
X10339762Y4778266D01*
X10248125Y4888230D02*
Y4924885D01*
Y4906558D01*
X10358089D01*
Y4888230D01*
Y4924885D01*
Y4979867D02*
Y5016522D01*
Y4998195D01*
X10248125D01*
X10266452Y4979867D01*
X9857945Y2004205D02*
X9839618Y1985878D01*
Y1949223D01*
X9857945Y1930896D01*
X9931255D01*
X9949583Y1949223D01*
Y1985878D01*
X9931255Y2004205D01*
X9949583Y2040860D02*
Y2077515D01*
Y2059187D01*
X9839618D01*
X9857945Y2040860D01*
X9839618Y2205807D02*
X9857945Y2169152D01*
X9894600Y2132497D01*
X9931255D01*
X9949583Y2150825D01*
Y2187479D01*
X9931255Y2205807D01*
X9912928D01*
X9894600Y2187479D01*
Y2132497D01*
X9967910Y2242462D02*
Y2315771D01*
X9857945Y2425736D02*
X9839618Y2407408D01*
Y2370753D01*
X9857945Y2352426D01*
X9876273D01*
X9894600Y2370753D01*
Y2407408D01*
X9912928Y2425736D01*
X9931255D01*
X9949583Y2407408D01*
Y2370753D01*
X9931255Y2352426D01*
X9839618Y2462391D02*
Y2499045D01*
Y2480718D01*
X9949583D01*
Y2462391D01*
Y2499045D01*
X9857945Y2554028D02*
X9839618Y2572355D01*
Y2609010D01*
X9857945Y2627337D01*
X9931255D01*
X9949583Y2609010D01*
Y2572355D01*
X9931255Y2554028D01*
X9857945D01*
X3524720Y2855444D02*
Y2745480D01*
X3579702D01*
X3598030Y2763807D01*
Y2782135D01*
X3579702Y2800462D01*
X3524720D01*
X3579702D01*
X3598030Y2818790D01*
Y2837117D01*
X3579702Y2855444D01*
X3524720D01*
X3634684Y2745480D02*
X3671339D01*
X3653012D01*
Y2855444D01*
X3634684Y2837117D01*
X565162Y1888765D02*
Y1962074D01*
X601817Y1998729D01*
X638472Y1962074D01*
Y1888765D01*
Y1943747D01*
X565162D01*
X675127Y1888765D02*
X711782D01*
X693454D01*
Y1998729D01*
X675127Y1980402D01*
D20*
X3491351Y6871422D02*
X3406712Y6956061D01*
X3491351D02*
X3406712Y6871422D01*
X3491351Y6913741D02*
X3406712D01*
X3449032Y6956061D02*
Y6871422D01*
M02*
