G04*
G04 #@! TF.GenerationSoftware,Altium Limited,Altium Designer,25.4.2 (15)*
G04*
G04 Layer_Color=128*
%FSLAX45Y45*%
%MOMM*%
G71*
G04*
G04 #@! TF.SameCoordinates,D7BB9B6E-8E0F-4C10-A838-266EBE977BF3*
G04*
G04*
G04 #@! TF.FilePolarity,Positive*
G04*
G01*
G75*
%ADD25R,1.10000X1.00000*%
%ADD31R,0.65000X0.70000*%
%ADD32R,0.90000X1.00000*%
%ADD33R,0.90000X0.80000*%
%ADD34R,1.00000X0.90000*%
%ADD35R,0.70000X0.55000*%
%ADD36R,0.80000X0.90000*%
%ADD44R,0.55000X0.70000*%
%ADD47R,1.13000X0.76000*%
%ADD63R,0.85000X0.95000*%
%ADD65R,3.50000X1.60000*%
%ADD71R,0.95000X0.85000*%
%ADD77R,1.40000X1.30000*%
%ADD78R,1.30000X1.40000*%
%ADD79R,1.70000X2.50000*%
%ADD84O,0.35000X2.10000*%
%ADD170R,0.72500X1.00000*%
%ADD171R,1.35000X1.15000*%
%ADD172R,1.05000X0.60000*%
%ADD173R,0.60000X0.80000*%
%ADD174R,0.95000X0.90000*%
%ADD175R,1.90000X1.40000*%
%ADD176R,1.25000X1.65000*%
%ADD177R,1.20000X1.45000*%
%ADD178R,2.45000X2.15000*%
%ADD179R,1.65000X1.25000*%
%ADD180O,2.10000X0.35000*%
%ADD181R,0.60000X1.05000*%
%ADD182R,0.90000X1.20000*%
D25*
X2262502Y1594997D02*
D03*
Y1405000D02*
D03*
X2042503Y1499996D02*
D03*
X1662504Y1405000D02*
D03*
Y1594997D02*
D03*
X1882503Y1500001D02*
D03*
D31*
X3208002Y7270002D02*
D03*
X3073001D02*
D03*
D32*
X4385003Y3082497D02*
D03*
X4250002D02*
D03*
X3200001Y6995002D02*
D03*
X3065000D02*
D03*
Y7407503D02*
D03*
X3200001D02*
D03*
X2502502Y6977501D02*
D03*
X2367501D02*
D03*
Y7177501D02*
D03*
X2502502D02*
D03*
X3880005Y4424999D02*
D03*
X4015001D02*
D03*
X4357505Y3582501D02*
D03*
X4222504D02*
D03*
X4357500Y4232503D02*
D03*
X4222504D02*
D03*
X6357501Y4015002D02*
D03*
X6222500D02*
D03*
X8125000Y3295004D02*
D03*
X7990004D02*
D03*
X6932501Y4700000D02*
D03*
X7067497D02*
D03*
D33*
X6659999Y3782501D02*
D03*
X6490002D02*
D03*
X6410002Y4149998D02*
D03*
X6240000D02*
D03*
X6480000Y3134999D02*
D03*
X6650002D02*
D03*
X6487498Y2992500D02*
D03*
X6317501D02*
D03*
X6530002Y4587996D02*
D03*
X6360000D02*
D03*
X6522499Y4730500D02*
D03*
X6692501D02*
D03*
X414998Y4325004D02*
D03*
X585000D02*
D03*
X414998Y4570404D02*
D03*
X585000D02*
D03*
Y4451994D02*
D03*
X414998D02*
D03*
Y4200001D02*
D03*
X585000D02*
D03*
D34*
X2693307Y2975010D02*
D03*
Y2840014D02*
D03*
X3175003Y2707497D02*
D03*
Y2842498D02*
D03*
X6913573Y6401830D02*
D03*
Y6266829D02*
D03*
X6949722Y827956D02*
D03*
Y692955D02*
D03*
X10025002Y5110001D02*
D03*
Y4975000D02*
D03*
D35*
X3311759Y600000D02*
D03*
X3311764Y690003D02*
D03*
X3424999Y599998D02*
D03*
X3425005Y690000D02*
D03*
X2200003Y6977501D02*
D03*
X2199998Y6887499D02*
D03*
X3674996Y4554996D02*
D03*
X3675002Y4644999D02*
D03*
X417502Y4672502D02*
D03*
Y4762504D02*
D03*
D36*
X4105003Y2842498D02*
D03*
Y3012500D02*
D03*
X4999998Y5405002D02*
D03*
Y5574999D02*
D03*
X7584874Y4310003D02*
D03*
Y4140001D02*
D03*
X7480780Y3665920D02*
D03*
Y3835922D02*
D03*
X7707536Y4310003D02*
D03*
Y4140001D02*
D03*
X7358088Y3665920D02*
D03*
Y3835917D02*
D03*
X7297499Y4140001D02*
D03*
Y4309998D02*
D03*
X7175000Y4139996D02*
D03*
Y4309998D02*
D03*
X7370508Y5969278D02*
D03*
Y5799281D02*
D03*
X7125002Y2031008D02*
D03*
Y2201011D02*
D03*
X7374999Y2031008D02*
D03*
Y2201011D02*
D03*
X7500003Y2031008D02*
D03*
Y2201011D02*
D03*
X7624996Y2031008D02*
D03*
Y2201011D02*
D03*
X7120506Y5969278D02*
D03*
Y5799281D02*
D03*
X7874998Y2031008D02*
D03*
Y2201011D02*
D03*
X7750000Y2031008D02*
D03*
Y2201011D02*
D03*
X8000002Y2031008D02*
D03*
Y2201011D02*
D03*
X7874998Y3834998D02*
D03*
Y3665001D02*
D03*
X7620500Y5969273D02*
D03*
Y5799276D02*
D03*
X7245505Y5969278D02*
D03*
Y5799281D02*
D03*
X7495502Y5969278D02*
D03*
Y5799276D02*
D03*
X7870502Y5969278D02*
D03*
Y5799276D02*
D03*
X7995501Y5969278D02*
D03*
Y5799276D02*
D03*
X7745504Y5969278D02*
D03*
Y5799276D02*
D03*
X7752504Y3835003D02*
D03*
Y3665006D02*
D03*
X7249996Y2031008D02*
D03*
Y2201011D02*
D03*
D44*
X2391687Y3252505D02*
D03*
X2481689D02*
D03*
Y4575560D02*
D03*
X2391687D02*
D03*
X4105003Y4022500D02*
D03*
X4015001D02*
D03*
X4110002Y3782501D02*
D03*
X4020000D02*
D03*
D47*
X3349998Y2837499D02*
D03*
Y3012495D02*
D03*
D63*
X3073001Y7142504D02*
D03*
X3203003D02*
D03*
X2095000Y7383860D02*
D03*
X2224997D02*
D03*
X6224999Y3880001D02*
D03*
X6355001D02*
D03*
D65*
X2095000Y6305000D02*
D03*
Y5914999D02*
D03*
X2494999Y6304995D02*
D03*
Y5914999D02*
D03*
D71*
X2839997Y3112495D02*
D03*
Y2982492D02*
D03*
X3434199Y7069998D02*
D03*
Y7200000D02*
D03*
X10000003Y4100001D02*
D03*
Y3970004D02*
D03*
D77*
X4957498Y1287500D02*
D03*
Y1447499D02*
D03*
D78*
X3962499Y1625000D02*
D03*
X3802499D02*
D03*
D79*
X2949999Y1100002D02*
D03*
Y1500001D02*
D03*
D84*
X7882501Y2605003D02*
D03*
X7817503D02*
D03*
X7752504D02*
D03*
X7687500D02*
D03*
X7622502D02*
D03*
X7557503D02*
D03*
X7492500D02*
D03*
X7427501D02*
D03*
X7362502D02*
D03*
X7297504D02*
D03*
X7232500D02*
D03*
X7167502D02*
D03*
X7882501Y3295004D02*
D03*
X7817503D02*
D03*
X7752504D02*
D03*
X7687500D02*
D03*
X7622502D02*
D03*
X7557503D02*
D03*
X7492500D02*
D03*
X7427501D02*
D03*
X7362502D02*
D03*
X7297504D02*
D03*
X7232500D02*
D03*
X7167502D02*
D03*
X7882496Y4704998D02*
D03*
X7817498D02*
D03*
X7752499D02*
D03*
X7687495D02*
D03*
X7622497D02*
D03*
X7557498D02*
D03*
X7492495D02*
D03*
X7427496D02*
D03*
X7362497D02*
D03*
X7297499D02*
D03*
X7232495D02*
D03*
X7167496D02*
D03*
X7882496Y5394995D02*
D03*
X7817498D02*
D03*
X7752499D02*
D03*
X7687495D02*
D03*
X7622497D02*
D03*
X7557498D02*
D03*
X7492495D02*
D03*
X7427496D02*
D03*
X7362497D02*
D03*
X7297499D02*
D03*
X7232495D02*
D03*
X7167496D02*
D03*
D170*
X2149998Y4575563D02*
D03*
X2292498Y4577163D02*
D03*
D171*
X4712500Y1335003D02*
D03*
Y1160002D02*
D03*
X3775001Y1000002D02*
D03*
Y1175003D02*
D03*
X3025000Y662502D02*
D03*
Y487501D02*
D03*
X3775001Y650000D02*
D03*
Y825001D02*
D03*
D172*
X2825001Y480003D02*
D03*
Y670005D02*
D03*
D173*
X3025000Y2827497D02*
D03*
X2860002D02*
D03*
Y2707497D02*
D03*
X3025000D02*
D03*
D174*
X3775001Y3082502D02*
D03*
Y2767507D02*
D03*
X3962504Y2767497D02*
D03*
Y3082497D02*
D03*
D175*
X4297500Y3782501D02*
D03*
Y4022500D02*
D03*
D176*
X1577500Y7390002D02*
D03*
X1922498D02*
D03*
D177*
X3847503Y4682499D02*
D03*
X4017505D02*
D03*
D178*
X895918Y6075004D02*
D03*
X465917D02*
D03*
D179*
X430001Y6613266D02*
D03*
Y6268263D02*
D03*
D180*
X6221920Y6526930D02*
D03*
Y6591929D02*
D03*
Y6656933D02*
D03*
Y6721931D02*
D03*
Y6786930D02*
D03*
Y6851928D02*
D03*
Y6916932D02*
D03*
Y6981931D02*
D03*
Y7046929D02*
D03*
Y7111933D02*
D03*
Y7176932D02*
D03*
Y7241930D02*
D03*
X6911917Y6526930D02*
D03*
Y6591929D02*
D03*
Y6656933D02*
D03*
Y6721931D02*
D03*
Y6786930D02*
D03*
Y6851928D02*
D03*
Y6916932D02*
D03*
Y6981931D02*
D03*
Y7046929D02*
D03*
Y7111933D02*
D03*
Y7176932D02*
D03*
Y7241930D02*
D03*
X6221920Y922878D02*
D03*
Y987876D02*
D03*
Y1052875D02*
D03*
Y1117878D02*
D03*
Y1182877D02*
D03*
Y1247876D02*
D03*
Y1312879D02*
D03*
Y1377878D02*
D03*
Y1442876D02*
D03*
Y1507875D02*
D03*
Y1572879D02*
D03*
Y1637877D02*
D03*
X6911917Y922878D02*
D03*
Y987876D02*
D03*
Y1052875D02*
D03*
Y1117878D02*
D03*
Y1182877D02*
D03*
Y1247876D02*
D03*
Y1312879D02*
D03*
Y1377878D02*
D03*
Y1442876D02*
D03*
Y1507875D02*
D03*
Y1572879D02*
D03*
Y1637877D02*
D03*
D181*
X7752499Y6934997D02*
D03*
X7657498Y6714997D02*
D03*
X7847500D02*
D03*
X7375004Y6934997D02*
D03*
X7280003Y6714997D02*
D03*
X7470000D02*
D03*
X8519005Y6934997D02*
D03*
X8424004Y6714997D02*
D03*
X8614001D02*
D03*
X8138005Y6934997D02*
D03*
X8043004Y6714997D02*
D03*
X8233006D02*
D03*
X8907498Y6934997D02*
D03*
X8812502Y6714997D02*
D03*
X9002499D02*
D03*
X10425001Y6934997D02*
D03*
X10330000Y6714997D02*
D03*
X10520002D02*
D03*
X10805005Y6934997D02*
D03*
X10710004Y6714997D02*
D03*
X10900001D02*
D03*
X10043000Y6934997D02*
D03*
X9948004Y6714997D02*
D03*
X10138001D02*
D03*
X9281005Y6934997D02*
D03*
X9186004Y6714997D02*
D03*
X9376006D02*
D03*
X9662010Y6934997D02*
D03*
X9567009Y6714997D02*
D03*
X9757006D02*
D03*
X9202504Y1185006D02*
D03*
X9392501D02*
D03*
X9297500Y965006D02*
D03*
X8812497Y1185000D02*
D03*
X9002499D02*
D03*
X8907498Y965001D02*
D03*
X9579999Y1185000D02*
D03*
X9769996D02*
D03*
X9675000Y965001D02*
D03*
X10354998Y1185006D02*
D03*
X10544995D02*
D03*
X10449999Y965006D02*
D03*
X9954999Y1185000D02*
D03*
X10145001D02*
D03*
X10050000Y965001D02*
D03*
X10729999Y1185006D02*
D03*
X10920001D02*
D03*
X10825000Y965006D02*
D03*
X8429998Y1185000D02*
D03*
X8620001D02*
D03*
X8524999Y965001D02*
D03*
X8054998Y1185000D02*
D03*
X8245000D02*
D03*
X8149999Y965001D02*
D03*
X7680002Y1185000D02*
D03*
X7870005D02*
D03*
X7775003Y965001D02*
D03*
X7304997Y1185000D02*
D03*
X7494999D02*
D03*
X7399998Y965001D02*
D03*
D182*
X3500001Y1775002D02*
D03*
X3289999D02*
D03*
Y1425000D02*
D03*
X3500001D02*
D03*
Y1600001D02*
D03*
X3289999D02*
D03*
X3290004Y1249999D02*
D03*
X3500001D02*
D03*
M02*
