G04*
G04 #@! TF.GenerationSoftware,Altium Limited,Altium Designer,25.4.2 (15)*
G04*
G04 Layer_Physical_Order=3*
G04 Layer_Color=16440176*
%FSLAX45Y45*%
%MOMM*%
G71*
G04*
G04 #@! TF.SameCoordinates,D7BB9B6E-8E0F-4C10-A838-266EBE977BF3*
G04*
G04*
G04 #@! TF.FilePolarity,Positive*
G04*
G01*
G75*
%ADD14C,0.25000*%
%ADD16C,0.25400*%
%ADD17C,0.60000*%
%ADD157C,0.50000*%
%ADD162O,1.75000X2.50000*%
%ADD163O,2.50000X1.50000*%
%ADD164O,2.50000X1.75000*%
%ADD165C,1.38100*%
%ADD166C,1.65000*%
%ADD167C,3.00000*%
%ADD168C,0.65000*%
%ADD169C,1.52400*%
G36*
X6700640Y7092697D02*
Y7069823D01*
X6709394Y7048689D01*
X6725569Y7032514D01*
X6746703Y7023760D01*
X6769577D01*
X6790711Y7032514D01*
X6806886Y7048689D01*
X6809959Y7056107D01*
X6833550Y7060799D01*
X7102938Y6791412D01*
X7099372Y6773486D01*
X7083198Y6757311D01*
X7077360Y6743218D01*
X7074444Y6736178D01*
X7054613Y6724740D01*
X7051503D01*
X7030369Y6715986D01*
X7014194Y6699811D01*
X7005440Y6678677D01*
Y6655803D01*
X7014194Y6634669D01*
X7030368Y6618494D01*
X7032534Y6607609D01*
X7008147Y6583222D01*
X6999859Y6570818D01*
X6996948Y6556186D01*
Y4849162D01*
X6976948Y4842181D01*
X6965710Y4853420D01*
X6944576Y4862174D01*
X6921701D01*
X6900567Y4853420D01*
X6884392Y4837245D01*
X6875639Y4816111D01*
Y4793237D01*
X6884392Y4772103D01*
X6900567Y4755928D01*
X6921701Y4747174D01*
X6944576D01*
X6965710Y4755928D01*
X6976948Y4767166D01*
X6996948Y4760186D01*
Y4477894D01*
X6764738D01*
X6755498Y4491723D01*
Y4514597D01*
X6746744Y4535731D01*
X6730569Y4551906D01*
X6709435Y4560660D01*
X6686560D01*
X6665427Y4551906D01*
X6649252Y4535731D01*
X6640498Y4514597D01*
Y4491723D01*
X6631258Y4477894D01*
X6592592D01*
X6582498Y4493000D01*
Y4515874D01*
X6573745Y4537008D01*
X6557570Y4553183D01*
X6536436Y4561937D01*
X6513561D01*
X6492427Y4553183D01*
X6476252Y4537008D01*
X6468656Y4518669D01*
X6458801Y4516231D01*
X6447832Y4516680D01*
X6441680Y4531533D01*
X6425505Y4547708D01*
X6404371Y4556462D01*
X6381496D01*
X6360362Y4547708D01*
X6344187Y4531533D01*
X6339323Y4519790D01*
X6316956Y4513873D01*
X6061273Y4769555D01*
X6048869Y4777843D01*
X6034238Y4780754D01*
X6000637D01*
X6000000Y4781390D01*
Y6561371D01*
X6007920Y6580492D01*
Y6603366D01*
X6000000Y6622487D01*
Y6678752D01*
X6020000Y6682730D01*
X6023594Y6674054D01*
X6039769Y6657879D01*
X6060903Y6649125D01*
X6083777D01*
X6104911Y6657879D01*
X6121086Y6674054D01*
X6129840Y6695188D01*
Y6718063D01*
X6121086Y6739196D01*
X6104911Y6755371D01*
X6083777Y6764125D01*
X6060903D01*
X6039769Y6755371D01*
X6023594Y6739196D01*
X6020000Y6730520D01*
X6000000Y6734498D01*
Y6794428D01*
X6017737D01*
X6038871Y6803182D01*
X6055046Y6819357D01*
X6063800Y6840491D01*
Y6863366D01*
X6055046Y6884500D01*
X6038871Y6900675D01*
X6017737Y6909428D01*
X6000000D01*
Y6954327D01*
X6020000Y6958305D01*
X6023594Y6949629D01*
X6039769Y6933454D01*
X6060903Y6924700D01*
X6083777D01*
X6104911Y6933454D01*
X6121086Y6949629D01*
X6129840Y6970763D01*
Y6993637D01*
X6121086Y7014771D01*
X6104911Y7030946D01*
X6083777Y7039700D01*
X6060903D01*
X6039769Y7030946D01*
X6023594Y7014771D01*
X6020000Y7006095D01*
X6000000Y7010073D01*
Y7076824D01*
X6020000Y7089117D01*
X6030616Y7084720D01*
X6053490D01*
X6074624Y7093474D01*
X6090216Y7109066D01*
X6689703D01*
X6700640Y7092697D01*
D02*
G37*
G36*
X8127446Y6767220D02*
X8150321D01*
X8166063Y6773740D01*
X8492704D01*
X8508446Y6767220D01*
X8531321D01*
X8547063Y6773740D01*
X8782544D01*
X8790197Y6755263D01*
X8586970Y6552036D01*
X8578682Y6539632D01*
X8575772Y6525000D01*
Y6451046D01*
X8572513Y6450173D01*
X8548000Y6436020D01*
X8527985Y6416005D01*
X8513832Y6391492D01*
X8506506Y6364152D01*
Y6335846D01*
X8513832Y6308506D01*
X8515775Y6305141D01*
X8499771Y6292861D01*
X8399990Y6392642D01*
X8411319Y6409597D01*
X8412567Y6409080D01*
X8435441D01*
X8456575Y6417834D01*
X8472750Y6434009D01*
X8481504Y6455143D01*
Y6478017D01*
X8472750Y6499151D01*
X8456575Y6515326D01*
X8435441Y6524080D01*
X8412567D01*
X8391433Y6515326D01*
X8385718Y6509611D01*
X8367596Y6511396D01*
X8321876Y6557116D01*
X8309472Y6565404D01*
X8294840Y6568314D01*
X8172920D01*
X8158288Y6565404D01*
X8145884Y6557116D01*
X8090004Y6501236D01*
X8081716Y6488832D01*
X8078806Y6474200D01*
Y6265920D01*
X8081716Y6251288D01*
X8090004Y6238884D01*
X8282115Y6046773D01*
X8273831Y6026773D01*
X8265623D01*
X8244489Y6018019D01*
X8233977Y6007508D01*
X7942076D01*
X7675275Y6274309D01*
Y6457515D01*
X7672365Y6472147D01*
X7664077Y6484551D01*
X7398189Y6750438D01*
X7402882Y6774030D01*
X7403942Y6774469D01*
X7733920D01*
X7747903Y6768677D01*
X7770778D01*
X7784761Y6774469D01*
X8109946D01*
X8127446Y6767220D01*
D02*
G37*
G36*
X2792463Y6735947D02*
Y6713073D01*
X2801217Y6691939D01*
X2817392Y6675764D01*
X2838526Y6667010D01*
X2853392D01*
X2922164Y6598238D01*
Y6284483D01*
X2765462Y6127781D01*
X2757174Y6115377D01*
X2754263Y6100745D01*
Y5064403D01*
X2743751Y5053891D01*
X2734998Y5032757D01*
Y5009883D01*
X2743751Y4988749D01*
X2759926Y4972574D01*
X2781060Y4963820D01*
X2803935D01*
X2825069Y4972574D01*
X2841244Y4988749D01*
X2849998Y5009883D01*
Y5032757D01*
X2841244Y5053891D01*
X2830732Y5064403D01*
Y6084908D01*
X2869586Y6123762D01*
X2889586Y6115477D01*
Y6072880D01*
Y5064403D01*
X2879074Y5053891D01*
X2870320Y5032757D01*
Y5009883D01*
X2879074Y4988749D01*
X2895249Y4972574D01*
X2916383Y4963820D01*
X2939257D01*
X2960391Y4972574D01*
X2967106Y4979289D01*
X2980172Y4986702D01*
X2993238Y4979289D01*
X2999953Y4972574D01*
X3017652Y4965242D01*
X3023030Y4952478D01*
X3024514Y4943820D01*
X2921280Y4840586D01*
X2912992Y4828182D01*
X2910082Y4813550D01*
Y4684428D01*
X2912992Y4669796D01*
X2916453Y4664617D01*
X2907141Y4644617D01*
X2817815D01*
X2803184Y4641706D01*
X2790780Y4633418D01*
X2710235Y4552874D01*
X2690619Y4556775D01*
X2689995Y4558283D01*
X2673820Y4574458D01*
X2652686Y4583212D01*
X2629811D01*
X2608678Y4574458D01*
X2592503Y4558283D01*
X2583749Y4537149D01*
Y4514274D01*
X2592503Y4493140D01*
X2608678Y4476965D01*
X2610185Y4476341D01*
X2614086Y4456725D01*
X2539313Y4381952D01*
X2531025Y4369548D01*
X2528115Y4354916D01*
Y4301325D01*
X2531025Y4286693D01*
X2539313Y4274289D01*
X2668606Y4144997D01*
Y3826911D01*
X2648605Y3813547D01*
X2645812Y3814704D01*
X2622937D01*
X2601803Y3805950D01*
X2585628Y3789775D01*
X2576874Y3768641D01*
Y3745767D01*
X2585628Y3724633D01*
X2601803Y3708458D01*
X2622937Y3699704D01*
X2645812D01*
X2648605Y3700861D01*
X2668606Y3687498D01*
Y3045200D01*
X2671516Y3030568D01*
X2679804Y3018164D01*
X2953878Y2744091D01*
X2967558Y2729791D01*
X2966861Y2730547D01*
X2967559Y2729790D01*
X2967559Y2729790D01*
Y2729790D01*
X2988009Y2716126D01*
X3012395Y2711276D01*
Y2711766D01*
X3926002D01*
X4817446Y1820323D01*
Y848003D01*
X4806934Y837491D01*
X4798180Y816357D01*
Y793483D01*
X4806934Y772349D01*
X4823109Y756174D01*
X4844243Y747420D01*
X4867117D01*
X4888251Y756174D01*
X4904426Y772349D01*
X4913180Y793483D01*
Y816357D01*
X4904426Y837491D01*
X4893914Y848003D01*
Y1090790D01*
X4913914Y1104154D01*
X4917903Y1102502D01*
X4936655D01*
X4938841Y1100770D01*
X4945628Y1091924D01*
X4949120Y1084309D01*
X4942960Y1069438D01*
Y1046563D01*
X4951714Y1025429D01*
X4967889Y1009254D01*
X4989023Y1000500D01*
X5011897D01*
X5033031Y1009254D01*
X5049206Y1025429D01*
X5057960Y1046563D01*
Y1069438D01*
X5049206Y1090572D01*
X5033031Y1106747D01*
X5011897Y1115500D01*
X4993144D01*
X4990959Y1117232D01*
X4984172Y1126078D01*
X4980680Y1133693D01*
X4986840Y1148564D01*
Y1171439D01*
X4978086Y1192573D01*
X4961911Y1208748D01*
X4940777Y1217502D01*
X4917903D01*
X4913914Y1215850D01*
X4893914Y1229213D01*
Y1836160D01*
X4901438Y1854263D01*
X4922572Y1863017D01*
X4938747Y1879192D01*
X4947500Y1900326D01*
Y1923201D01*
X4938747Y1944334D01*
X4928235Y1954846D01*
Y2025617D01*
X5188700Y2305360D01*
X5201433D01*
X5222567Y2314114D01*
X5238742Y2330289D01*
X5247495Y2351423D01*
Y2374297D01*
X5238742Y2395431D01*
X5222567Y2411606D01*
X5201433Y2420360D01*
X5178558D01*
X5157424Y2411606D01*
X5141249Y2395431D01*
X5132495Y2374297D01*
Y2357212D01*
X4868721Y2073915D01*
X4868721Y2073915D01*
X4868661Y2073970D01*
X4856127Y2055211D01*
X4851276Y2030825D01*
X4851766D01*
Y1954846D01*
X4841254Y1944334D01*
X4837917Y1936278D01*
X4814326Y1931586D01*
X3990340Y2755571D01*
X3976544Y2770060D01*
X3976544Y2770060D01*
X3955871Y2783874D01*
X3931485Y2788724D01*
Y2788234D01*
X3017877D01*
X2745074Y3061037D01*
Y3339522D01*
X2766436D01*
X2766725Y3339642D01*
X2783354Y3328530D01*
Y3222551D01*
X2786265Y3207919D01*
X2794553Y3195515D01*
X2875400Y3114668D01*
Y3099803D01*
X2884154Y3078669D01*
X2900329Y3062494D01*
X2921463Y3053740D01*
X2944337D01*
X2965471Y3062494D01*
X2981646Y3078669D01*
X2990400Y3099803D01*
Y3122677D01*
X2984434Y3137080D01*
X2988331Y3138694D01*
X3004506Y3154869D01*
X3013260Y3176003D01*
Y3194940D01*
X3035361D01*
X3056495Y3203694D01*
X3069251Y3216451D01*
X3085369Y3212555D01*
X3089251Y3210319D01*
Y3057030D01*
X3092162Y3042399D01*
X3100450Y3029994D01*
X3211340Y2919104D01*
X3223744Y2910816D01*
X3238376Y2907906D01*
X5892000D01*
X5906632Y2910816D01*
X5919036Y2919104D01*
X5931942Y2932011D01*
X5950420Y2924357D01*
Y1596481D01*
X5945381Y1584316D01*
Y1561441D01*
X5950420Y1549277D01*
Y1481041D01*
X5938169Y1475966D01*
X5921994Y1459791D01*
X5913240Y1438657D01*
Y1415783D01*
X5921994Y1394649D01*
X5938169Y1378474D01*
X5950420Y1373399D01*
Y288440D01*
X4500000D01*
Y2000000D01*
X1000000D01*
Y2500000D01*
X288438D01*
Y2624304D01*
X307501Y2626568D01*
X316254Y2605434D01*
X332429Y2589259D01*
X353563Y2580505D01*
X376438D01*
X397572Y2589259D01*
X413747Y2605434D01*
X422501Y2626568D01*
Y2649443D01*
X413747Y2670576D01*
X397572Y2686751D01*
X376438Y2695505D01*
X353563D01*
X332429Y2686751D01*
X316254Y2670576D01*
X307501Y2649443D01*
X288438Y2651706D01*
Y2841652D01*
X307501Y2843916D01*
X316254Y2822782D01*
X332429Y2806607D01*
X353563Y2797853D01*
X376438D01*
X397572Y2806607D01*
X413747Y2822782D01*
X422501Y2843916D01*
Y2866791D01*
X413747Y2887924D01*
X397572Y2904099D01*
X376438Y2912853D01*
X353563D01*
X332429Y2904099D01*
X316254Y2887924D01*
X307501Y2866791D01*
X288438Y2869054D01*
Y3552642D01*
X308438Y3559266D01*
X319930Y3547774D01*
X341063Y3539020D01*
X363938D01*
X385072Y3547774D01*
X401247Y3563949D01*
X410001Y3585083D01*
Y3607958D01*
X401247Y3629092D01*
X385072Y3645267D01*
X363938Y3654020D01*
X341063D01*
X319930Y3645267D01*
X308438Y3633775D01*
X288438Y3640399D01*
Y6750000D01*
X507564D01*
X515531Y6730765D01*
X533564Y6707264D01*
X557064Y6689231D01*
X584431Y6677895D01*
X613800Y6674029D01*
X688800D01*
X718168Y6677895D01*
X745535Y6689231D01*
X769036Y6707264D01*
X787069Y6730765D01*
X795036Y6750000D01*
X1825914D01*
X1839278Y6730000D01*
X1836440Y6723150D01*
Y6700275D01*
X1845194Y6679141D01*
X1861369Y6662966D01*
X1882503Y6654212D01*
X1905377D01*
X1926511Y6662966D01*
X1933660Y6670115D01*
X1942191Y6661584D01*
X1963324Y6652830D01*
X1986199D01*
X2007333Y6661584D01*
X2013576Y6667827D01*
X2018437Y6662966D01*
X2039570Y6654212D01*
X2062445D01*
X2083579Y6662966D01*
X2099754Y6679141D01*
X2108508Y6700275D01*
Y6723150D01*
X2105670Y6730000D01*
X2119034Y6750000D01*
X2144703D01*
X2155235Y6745637D01*
X2178110D01*
X2188643Y6750000D01*
X2225579D01*
X2236111Y6745637D01*
X2258986D01*
X2269519Y6750000D01*
X2783074D01*
X2792463Y6735947D01*
D02*
G37*
G36*
X5711766Y3197360D02*
X5714676Y3182728D01*
X5722964Y3170324D01*
X5821800Y3071488D01*
Y3056623D01*
X5830554Y3035489D01*
X5846729Y3019314D01*
X5859308Y3014103D01*
X5867613Y2994229D01*
X5867560Y2990685D01*
X5863263Y2984374D01*
X3254213D01*
X3229146Y3009442D01*
X3237430Y3029442D01*
X3306691D01*
X3328151Y3033710D01*
X3346343Y3045866D01*
X3514187Y3213710D01*
X3526343Y3231903D01*
X3530612Y3253363D01*
Y3319674D01*
X3534045Y3321683D01*
X3550612Y3325805D01*
X3563269Y3313148D01*
X3584403Y3304394D01*
X3607277D01*
X3628411Y3313148D01*
X3644586Y3329323D01*
X3653340Y3350457D01*
Y3373332D01*
X3644586Y3394465D01*
X3628411Y3410640D01*
X3607277Y3419394D01*
X3584403D01*
X3563269Y3410640D01*
X3550612Y3397984D01*
X3534045Y3402105D01*
X3530612Y3404115D01*
Y3466238D01*
X3532035Y3469673D01*
Y3492548D01*
X3523281Y3513682D01*
X3517671Y3519291D01*
X3516017Y3534640D01*
X3530526Y3550526D01*
X3690015D01*
X3701475Y3530525D01*
X3696489Y3518488D01*
Y3495613D01*
X3705243Y3474479D01*
X3721418Y3458304D01*
X3742552Y3449551D01*
X3765426D01*
X3786560Y3458304D01*
X3802735Y3474479D01*
X3811489Y3495613D01*
Y3518488D01*
X3806503Y3530525D01*
X3817963Y3550526D01*
X3980807D01*
X3995439Y3553436D01*
X4007843Y3561724D01*
X4867156Y4421037D01*
X4875444Y4433441D01*
X4878354Y4448072D01*
Y5231917D01*
X4888866Y5242429D01*
X4897620Y5263562D01*
Y5286437D01*
X4888866Y5307571D01*
X4872691Y5323746D01*
X4851557Y5332500D01*
X4828682D01*
X4807549Y5323746D01*
X4791374Y5307571D01*
X4782620Y5286437D01*
Y5263562D01*
X4791374Y5242429D01*
X4801885Y5231917D01*
Y4463910D01*
X4152446Y3814470D01*
X4133968Y3822124D01*
Y4542321D01*
X4146254Y4550530D01*
X4169129D01*
X4190262Y4559283D01*
X4206437Y4575458D01*
X4215191Y4596592D01*
Y4619467D01*
X4206437Y4640601D01*
X4190262Y4656776D01*
X4169129Y4665530D01*
X4146254D01*
X4133968Y4673739D01*
Y4898526D01*
X4131058Y4913157D01*
X4122770Y4925561D01*
X4108000Y4940331D01*
Y4955197D01*
X4099246Y4976331D01*
X4083071Y4992506D01*
X4072186Y4997015D01*
X4066624Y5019737D01*
X4483651Y5436765D01*
X4789737D01*
X4800249Y5426253D01*
X4821383Y5417499D01*
X4844257D01*
X4865391Y5426253D01*
X4881566Y5442428D01*
X4890320Y5463562D01*
Y5486437D01*
X4881566Y5507571D01*
X4865391Y5523746D01*
X4844257Y5532499D01*
X4821383D01*
X4800249Y5523746D01*
X4789737Y5513234D01*
X4467814D01*
X4453183Y5510323D01*
X4440779Y5502035D01*
X3969494Y5030750D01*
X3952538Y5042080D01*
X3958140Y5055603D01*
Y5078477D01*
X3949386Y5099611D01*
X3933211Y5115786D01*
X3912077Y5124540D01*
X3889203D01*
X3868069Y5115786D01*
X3857557Y5105274D01*
X3723607D01*
X3707770Y5121111D01*
X3695366Y5129400D01*
X3680735Y5132310D01*
X3156198D01*
X3141566Y5129400D01*
X3129162Y5121111D01*
X3087482Y5079431D01*
X3086093Y5077353D01*
X3066250Y5070467D01*
X3060322Y5072043D01*
X3043961Y5078820D01*
X3021086D01*
X2999953Y5070066D01*
X2993238Y5063351D01*
X2983278Y5057700D01*
X2966054Y5067882D01*
Y6072880D01*
Y6112923D01*
X3064070Y6210938D01*
X3072358Y6223342D01*
X3075268Y6237974D01*
Y6681384D01*
X3085823Y6691939D01*
X3094577Y6713073D01*
Y6735947D01*
X3103967Y6750000D01*
X3455998D01*
X3460001Y6744009D01*
Y6721135D01*
X3468755Y6700001D01*
X3484930Y6683826D01*
X3506064Y6675072D01*
X3528939D01*
X3550072Y6683826D01*
X3566247Y6700001D01*
X3575001Y6721135D01*
Y6744009D01*
X3579004Y6750000D01*
X3606404D01*
X3616936Y6745637D01*
X3639811D01*
X3650344Y6750000D01*
X3785326D01*
Y6746633D01*
X3794080Y6725499D01*
X3810255Y6709324D01*
X3831389Y6700571D01*
X3854264D01*
X3875397Y6709324D01*
X3891572Y6725499D01*
X3900326Y6746633D01*
Y6750000D01*
X4529507D01*
X4540040Y6745637D01*
X4562914D01*
X4573447Y6750000D01*
X5040966D01*
Y6597243D01*
X5020966Y6588959D01*
X5017791Y6592133D01*
X4996657Y6600887D01*
X4973783D01*
X4952649Y6592133D01*
X4936474Y6575958D01*
X4927720Y6554825D01*
Y6531950D01*
X4936474Y6510816D01*
X4952649Y6494641D01*
X4973783Y6485887D01*
X4996657D01*
X5017791Y6494641D01*
X5020966Y6497816D01*
X5040966Y6489531D01*
Y6469023D01*
X5030454Y6458511D01*
X5021700Y6437377D01*
Y6414503D01*
X5030454Y6393369D01*
X5040966Y6382857D01*
Y5730421D01*
X5020965Y5717492D01*
X5011435Y5721440D01*
X4988560D01*
X4967426Y5712686D01*
X4951251Y5696511D01*
X4942498Y5675377D01*
Y5652503D01*
X4951251Y5631369D01*
X4967426Y5615194D01*
X4988560Y5606440D01*
X5011435D01*
X5020965Y5610388D01*
X5040966Y5597459D01*
Y3283190D01*
X4992464D01*
X4987203Y3291064D01*
Y3313938D01*
X4978450Y3335072D01*
X4962275Y3351247D01*
X4941141Y3360001D01*
X4918266D01*
X4897132Y3351247D01*
X4880957Y3335072D01*
X4872203Y3313938D01*
Y3291064D01*
X4866943Y3283190D01*
X3832501D01*
Y3297937D01*
X3823747Y3319071D01*
X3807573Y3335246D01*
X3786439Y3344000D01*
X3763564D01*
X3742430Y3335246D01*
X3726255Y3319071D01*
X3717501Y3297937D01*
Y3275063D01*
X3726255Y3253929D01*
X3742430Y3237754D01*
X3763564Y3229000D01*
X3778430D01*
X3789510Y3217920D01*
X3801914Y3209632D01*
X3816546Y3206721D01*
X5064555D01*
X5079187Y3209632D01*
X5091591Y3217920D01*
X5106236Y3232565D01*
X5114524Y3244969D01*
X5117434Y3259601D01*
Y6382857D01*
X5127946Y6393369D01*
X5136700Y6414503D01*
Y6437377D01*
X5127946Y6458511D01*
X5117434Y6469023D01*
Y6750000D01*
X5711766D01*
Y3197360D01*
D02*
G37*
G36*
X10736763Y6647745D02*
Y6357263D01*
X10726251Y6346751D01*
X10717497Y6325617D01*
Y6302743D01*
X10726251Y6281609D01*
X10742426Y6265434D01*
X10763560Y6256680D01*
X10786435D01*
X10807569Y6265434D01*
X10809880Y6267745D01*
X10811940Y6267490D01*
X10829196Y6258776D01*
Y6111769D01*
X10809204Y6109757D01*
X10800916Y6122161D01*
X10617493Y6305584D01*
X10619180Y6308506D01*
X10626506Y6335846D01*
Y6364152D01*
X10619180Y6391492D01*
X10608116Y6410656D01*
X10611597Y6427900D01*
X10615091Y6434227D01*
X10617428Y6435035D01*
X10638562Y6426281D01*
X10661436D01*
X10682570Y6435035D01*
X10698745Y6451210D01*
X10707499Y6472343D01*
Y6495218D01*
X10698745Y6516352D01*
X10682570Y6532527D01*
X10661436Y6541281D01*
X10638562D01*
X10617428Y6532527D01*
X10606916Y6522015D01*
X9554101D01*
X9548404Y6520882D01*
X9538551Y6539314D01*
X9550086Y6550849D01*
X9558840Y6571983D01*
Y6594857D01*
X9550086Y6615991D01*
X9533911Y6632166D01*
X9512777Y6640920D01*
X9489903D01*
X9468769Y6632166D01*
X9452594Y6615991D01*
X9443840Y6594857D01*
Y6579991D01*
X9371203Y6507354D01*
X8917140D01*
X8902508Y6504444D01*
X8890104Y6496156D01*
X8741506Y6347558D01*
X8721506Y6355842D01*
Y6364152D01*
X8714180Y6391492D01*
X8700028Y6416005D01*
X8680013Y6436020D01*
X8655500Y6450173D01*
X8652241Y6451046D01*
Y6509163D01*
X8876223Y6733146D01*
X10651363D01*
X10736763Y6647745D01*
D02*
G37*
G36*
X10442526Y6425546D02*
X10432985Y6416005D01*
X10418832Y6391492D01*
X10411506Y6364152D01*
Y6335846D01*
X10418832Y6308506D01*
X10432985Y6283993D01*
X10453000Y6263978D01*
X10477513Y6249825D01*
X10504854Y6242499D01*
X10533159D01*
X10560500Y6249825D01*
X10563422Y6251512D01*
X10735646Y6079288D01*
Y5276323D01*
X10715646Y5272345D01*
X10713406Y5277751D01*
X10697231Y5293926D01*
X10676097Y5302680D01*
X10653223D01*
X10632089Y5293926D01*
X10617675Y5307797D01*
X10573354Y5352117D01*
Y5498375D01*
X10588565Y5508538D01*
X10611439D01*
X10632573Y5517292D01*
X10648748Y5533467D01*
X10657502Y5554601D01*
Y5577476D01*
X10648748Y5598609D01*
X10632573Y5614784D01*
X10628694Y5634284D01*
X10646571Y5652160D01*
X10661436D01*
X10682570Y5660914D01*
X10698745Y5677089D01*
X10707499Y5698223D01*
Y5721097D01*
X10698745Y5742231D01*
X10682570Y5758406D01*
X10661436Y5767160D01*
X10638562D01*
X10617428Y5758406D01*
X10601253Y5742231D01*
X10592499Y5721097D01*
Y5706231D01*
X10508084Y5621817D01*
X10501273Y5611624D01*
X10481437Y5619840D01*
X10458562D01*
X10437428Y5611086D01*
X10421253Y5594911D01*
X10412499Y5573777D01*
Y5550903D01*
X10421253Y5529769D01*
X10437428Y5513594D01*
X10458562Y5504840D01*
X10481436D01*
X10496886Y5494517D01*
Y5381057D01*
X10478408Y5373404D01*
X10300536Y5551276D01*
X10288132Y5559564D01*
X10273500Y5562474D01*
X10083000D01*
X10068368Y5559564D01*
X10055964Y5551276D01*
X10001498Y5496809D01*
X9978885Y5502481D01*
X9974266Y5513631D01*
X9958091Y5529806D01*
X9936957Y5538560D01*
X9922091D01*
X9736656Y5723996D01*
X9724252Y5732284D01*
X9709620Y5735194D01*
X8773985D01*
X8759354Y5732284D01*
X8746950Y5723996D01*
X8460772Y5437818D01*
X8442294Y5445471D01*
Y5674798D01*
X8550682Y5783186D01*
X9678266D01*
X9692898Y5786096D01*
X9705302Y5794384D01*
X9784042Y5873124D01*
X9792330Y5885528D01*
X9795241Y5900160D01*
Y6248952D01*
X9798500Y6249825D01*
X9823013Y6263978D01*
X9843028Y6283993D01*
X9857180Y6308506D01*
X9864506Y6335846D01*
Y6364152D01*
X9857180Y6391492D01*
X9843028Y6416005D01*
X9833487Y6425546D01*
X9841771Y6445546D01*
X10053241D01*
X10061526Y6425546D01*
X10051985Y6416005D01*
X10037832Y6391492D01*
X10030506Y6364152D01*
Y6335846D01*
X10037832Y6308506D01*
X10051985Y6283993D01*
X10072000Y6263978D01*
X10096513Y6249825D01*
X10123854Y6242499D01*
X10152159D01*
X10179500Y6249825D01*
X10204013Y6263978D01*
X10224028Y6283993D01*
X10238180Y6308506D01*
X10245506Y6335846D01*
Y6364152D01*
X10238180Y6391492D01*
X10224028Y6416005D01*
X10214487Y6425546D01*
X10222771Y6445546D01*
X10434241D01*
X10442526Y6425546D01*
D02*
G37*
G36*
X9287029Y6410886D02*
X9275832Y6391492D01*
X9268506Y6364152D01*
Y6335846D01*
X9275832Y6308506D01*
X9289985Y6283993D01*
X9310000Y6263978D01*
X9334513Y6249825D01*
X9361854Y6242499D01*
X9390159D01*
X9417500Y6249825D01*
X9442013Y6263978D01*
X9445646Y6267611D01*
X9465646Y6259326D01*
Y5956637D01*
X9432163Y5923154D01*
X8643723D01*
X8633815Y5943154D01*
X8639898Y5957841D01*
Y5980716D01*
X8631145Y6001850D01*
X8614970Y6018025D01*
X8593836Y6026778D01*
X8570961D01*
X8549827Y6018025D01*
X8543574Y6011772D01*
X8523574Y6020056D01*
Y6097665D01*
X8520664Y6112297D01*
X8512376Y6124701D01*
X8335684Y6301393D01*
X8341121Y6319739D01*
X8359849Y6324639D01*
X8486244Y6198244D01*
X8498648Y6189956D01*
X8513280Y6187046D01*
X8673300D01*
X8687932Y6189956D01*
X8700336Y6198244D01*
X8868399Y6366308D01*
X8887506Y6357130D01*
Y6335846D01*
X8894832Y6308506D01*
X8908985Y6283993D01*
X8929000Y6263978D01*
X8953513Y6249825D01*
X8980854Y6242499D01*
X9009159D01*
X9036500Y6249825D01*
X9061013Y6263978D01*
X9081028Y6283993D01*
X9095180Y6308506D01*
X9102506Y6335846D01*
Y6364152D01*
X9095180Y6391492D01*
X9083984Y6410886D01*
X9091988Y6430886D01*
X9279024D01*
X9287029Y6410886D01*
D02*
G37*
G36*
X7432772Y6536723D02*
Y6451046D01*
X7429513Y6450173D01*
X7405000Y6436020D01*
X7384985Y6416005D01*
X7370832Y6391492D01*
X7363506Y6364152D01*
Y6335846D01*
X7370832Y6308506D01*
X7384985Y6283993D01*
X7405000Y6263978D01*
X7429513Y6249825D01*
X7456854Y6242499D01*
X7485159D01*
X7512500Y6249825D01*
X7537013Y6263978D01*
X7557028Y6283993D01*
X7571180Y6308506D01*
X7578506Y6335846D01*
Y6364152D01*
X7571180Y6391492D01*
X7557028Y6416005D01*
X7537013Y6436020D01*
X7512500Y6450173D01*
X7509241Y6451046D01*
Y6505112D01*
X7527718Y6512766D01*
X7598806Y6441678D01*
Y6258472D01*
X7601717Y6243840D01*
X7610005Y6231436D01*
X7680260Y6161181D01*
X7669612Y6145591D01*
X7648478Y6154345D01*
X7625603D01*
X7604470Y6145591D01*
X7588295Y6129416D01*
X7579541Y6108283D01*
Y6085408D01*
X7588295Y6064274D01*
X7604470Y6048099D01*
X7625603Y6039345D01*
X7648478D01*
X7669612Y6048099D01*
X7685787Y6064274D01*
X7694541Y6085408D01*
Y6108283D01*
X7685787Y6129416D01*
X7701377Y6140064D01*
X7899203Y5942238D01*
X7911607Y5933949D01*
X7926239Y5931039D01*
X8233977D01*
X8244489Y5920527D01*
X8265623Y5911773D01*
X8288497D01*
X8304866Y5900836D01*
Y5565010D01*
X7826418Y5086562D01*
X7811470Y5094767D01*
X7808780Y5097208D01*
Y5119117D01*
X7800026Y5140251D01*
X7783851Y5156426D01*
X7782301Y5157068D01*
X7782851Y5172003D01*
X7784658Y5177740D01*
X7804171Y5185822D01*
X7820346Y5201997D01*
X7829100Y5223131D01*
Y5246006D01*
X7820346Y5267139D01*
X7804171Y5283314D01*
X7783037Y5292068D01*
X7768171D01*
X7466934Y5593305D01*
Y6002276D01*
X7483564Y6013388D01*
X7484065Y6013180D01*
X7506939D01*
X7528073Y6021934D01*
X7544248Y6038109D01*
X7553002Y6059243D01*
Y6082118D01*
X7544248Y6103251D01*
X7528073Y6119426D01*
X7506939Y6128180D01*
X7484065D01*
X7467389Y6121273D01*
X7464024Y6123072D01*
X7455736Y6135476D01*
X7318990Y6272221D01*
Y6624374D01*
X7337468Y6632027D01*
X7432772Y6536723D01*
D02*
G37*
G36*
X10790681Y6793886D02*
X11308816Y6275751D01*
Y5779232D01*
X11288816Y5765868D01*
X11285697Y5767160D01*
X11262823D01*
X11241689Y5758406D01*
X11225514Y5742231D01*
X11216760Y5721097D01*
Y5698223D01*
X11225514Y5677089D01*
X11241689Y5660914D01*
X11262823Y5652160D01*
X11285697D01*
X11288816Y5653452D01*
X11308816Y5640088D01*
Y5414689D01*
X11251525Y5357398D01*
X11240474Y5340859D01*
X11236593Y5321350D01*
Y5302340D01*
X11214563D01*
X11193429Y5293586D01*
X11177254Y5277411D01*
X11168500Y5256277D01*
Y5233403D01*
X11177254Y5212269D01*
X11193429Y5196094D01*
X11214563Y5187340D01*
X11236593D01*
Y4880109D01*
X11218115Y4872456D01*
X10905664Y5184907D01*
Y6143378D01*
X10924930Y6152396D01*
X10946064Y6143643D01*
X10968938D01*
X10976971Y6125322D01*
X10981674Y6113969D01*
X10997849Y6097794D01*
X11018983Y6089040D01*
X11041857D01*
X11062991Y6097794D01*
X11079166Y6113969D01*
X11087920Y6135103D01*
Y6157977D01*
X11079166Y6179111D01*
X11062991Y6195286D01*
X11041857Y6204040D01*
X11018983D01*
X11010950Y6222361D01*
X11006247Y6233714D01*
X10990072Y6249889D01*
X10983097Y6252778D01*
X10978405Y6276369D01*
X10986028Y6283993D01*
X11000180Y6308506D01*
X11007506Y6335846D01*
Y6364152D01*
X11000180Y6391492D01*
X10986028Y6416005D01*
X10966013Y6436020D01*
X10941500Y6450173D01*
X10914159Y6457499D01*
X10885854D01*
X10858513Y6450173D01*
X10834000Y6436020D01*
X10833232Y6435253D01*
X10813232Y6443537D01*
Y6663582D01*
X10810322Y6678214D01*
X10802033Y6690618D01*
X10712956Y6779696D01*
X10720609Y6798173D01*
X10780331D01*
X10790681Y6793886D01*
D02*
G37*
G36*
X9680526Y6425546D02*
X9670985Y6416005D01*
X9656832Y6391492D01*
X9649506Y6364152D01*
Y6335846D01*
X9656832Y6308506D01*
X9670985Y6283993D01*
X9691000Y6263978D01*
X9715513Y6249825D01*
X9718772Y6248952D01*
Y5915997D01*
X9662429Y5859654D01*
X9502937D01*
X9495284Y5878132D01*
X9530916Y5913764D01*
X9539204Y5926168D01*
X9542114Y5940800D01*
Y6008864D01*
X9562114Y6017148D01*
X9567829Y6011434D01*
X9588963Y6002680D01*
X9611837D01*
X9632971Y6011434D01*
X9649146Y6027609D01*
X9657900Y6048743D01*
Y6071617D01*
X9649146Y6092751D01*
X9632971Y6108926D01*
X9611837Y6117680D01*
X9588963D01*
X9567829Y6108926D01*
X9562114Y6103212D01*
X9542114Y6111496D01*
Y6417723D01*
X9569938Y6445546D01*
X9672241D01*
X9680526Y6425546D01*
D02*
G37*
G36*
X7155340Y6604472D02*
X7171515Y6588297D01*
X7192649Y6579543D01*
X7215524D01*
X7222521Y6582442D01*
X7242521Y6569078D01*
Y6256384D01*
X7245432Y6241752D01*
X7253720Y6229348D01*
X7390466Y6092603D01*
Y5997890D01*
X7370466Y5989606D01*
X7303320Y6056751D01*
Y6071617D01*
X7294566Y6092751D01*
X7278391Y6108926D01*
X7257257Y6117680D01*
X7234383D01*
X7213249Y6108926D01*
X7197074Y6092751D01*
X7188320Y6071617D01*
Y6048743D01*
X7197074Y6027609D01*
X7213249Y6011434D01*
X7234383Y6002680D01*
X7249248D01*
X7324426Y5927503D01*
Y5376920D01*
X7327336Y5362288D01*
X7335624Y5349884D01*
X7457525Y5227983D01*
X7443454Y5213911D01*
X7434700Y5192777D01*
Y5169903D01*
X7443454Y5148769D01*
X7459629Y5132594D01*
X7480763Y5123840D01*
X7495628D01*
X7669152Y4950317D01*
X7681556Y4942028D01*
X7696187Y4939118D01*
X8294052D01*
X8308684Y4942028D01*
X8321088Y4950317D01*
X8395608Y5024836D01*
X8414086Y5017183D01*
Y4452957D01*
X8365363Y4404234D01*
X7820492D01*
X7807128Y4424234D01*
X7808780Y4428223D01*
Y4451097D01*
X7800026Y4472231D01*
X7783851Y4488406D01*
X7762717Y4497160D01*
X7739843D01*
X7718709Y4488406D01*
X7708197Y4477894D01*
X7073417D01*
Y5651841D01*
X7091989Y5660516D01*
X7109580Y5651475D01*
Y5634723D01*
X7118334Y5613589D01*
X7134509Y5597414D01*
X7155643Y5588660D01*
X7178517D01*
X7199651Y5597414D01*
X7215826Y5613589D01*
X7224580Y5634723D01*
Y5657597D01*
X7215826Y5678731D01*
X7199651Y5694906D01*
X7178517Y5703660D01*
X7178006D01*
Y5723637D01*
X7169253Y5744771D01*
X7153078Y5760946D01*
X7131944Y5769700D01*
X7109069D01*
X7093417Y5763217D01*
X7073417Y5772559D01*
Y6065857D01*
X7088749Y6076101D01*
X7111624D01*
X7132758Y6084855D01*
X7148933Y6101030D01*
X7157686Y6122164D01*
Y6145039D01*
X7148933Y6166172D01*
X7132758Y6182347D01*
X7111624Y6191101D01*
X7088749D01*
X7073417Y6201346D01*
Y6540349D01*
X7140493Y6607425D01*
X7155340Y6604472D01*
D02*
G37*
G36*
X8447106Y6081828D02*
Y5938260D01*
X8450016Y5923628D01*
X8458304Y5911224D01*
X8501341Y5868188D01*
X8507006Y5850903D01*
X8500578Y5841225D01*
X8399812Y5740459D01*
X8381334Y5748112D01*
Y6039860D01*
X8378424Y6054492D01*
X8370136Y6066896D01*
X8213831Y6223201D01*
X8216332Y6232809D01*
X8222817Y6242499D01*
X8247159D01*
X8274500Y6249825D01*
X8277422Y6251512D01*
X8447106Y6081828D01*
D02*
G37*
G36*
X9862924Y5385444D02*
X9875328Y5377156D01*
X9889960Y5374246D01*
X9971240D01*
X9985872Y5377156D01*
X9998276Y5385444D01*
X10098837Y5486006D01*
X10257663D01*
X10481646Y5262023D01*
Y5189741D01*
X10461645Y5181077D01*
X10444835Y5188040D01*
X10421961D01*
X10400827Y5179286D01*
X10384652Y5163111D01*
X10383747Y5160926D01*
X10360155Y5156234D01*
X10167814Y5348575D01*
X10173747Y5354509D01*
X10182501Y5375643D01*
Y5398517D01*
X10173747Y5419651D01*
X10157573Y5435826D01*
X10136439Y5444580D01*
X10113564D01*
X10092430Y5435826D01*
X10076255Y5419651D01*
X10067501Y5398517D01*
Y5375643D01*
X10076255Y5354509D01*
X10086767Y5343997D01*
Y5337316D01*
X10089677Y5322685D01*
X10097966Y5310280D01*
X10474526Y4933720D01*
X10466242Y4913720D01*
X10458562D01*
X10437428Y4904966D01*
X10421253Y4888791D01*
X10412499Y4867657D01*
Y4852791D01*
X10283982Y4724274D01*
X8974579D01*
X8959948Y4721364D01*
X8947544Y4713076D01*
X8845928Y4611460D01*
X8831062D01*
X8822974Y4608110D01*
X8802974Y4621474D01*
Y4813712D01*
X8818555Y4824123D01*
X8841430D01*
X8862564Y4832877D01*
X8878739Y4849052D01*
X8887493Y4870186D01*
Y4893061D01*
X8878739Y4914195D01*
X8862564Y4930370D01*
X8841430Y4939123D01*
X8818555D01*
X8802974Y4949534D01*
Y5173517D01*
X8822974Y5181801D01*
X8826181Y5178595D01*
X8847315Y5169841D01*
X8870189D01*
X8891323Y5178595D01*
X8907498Y5194770D01*
X8916252Y5215903D01*
Y5238778D01*
X8907498Y5259912D01*
X8891323Y5276087D01*
X8870189Y5284841D01*
X8847315D01*
X8826181Y5276087D01*
X8822974Y5272880D01*
X8802974Y5281165D01*
Y5502165D01*
X8839706Y5538897D01*
X8862095D01*
X8872607Y5528385D01*
X8893741Y5519631D01*
X8916615D01*
X8920670Y5521311D01*
X8944076Y5517068D01*
X8960251Y5500894D01*
X8981384Y5492140D01*
X9004259D01*
X9025393Y5500894D01*
X9041568Y5517069D01*
X9050322Y5538203D01*
Y5561077D01*
X9041568Y5582211D01*
X9031988Y5591791D01*
X9040272Y5611791D01*
X9636577D01*
X9862924Y5385444D01*
D02*
G37*
G36*
X7629757Y5322340D02*
X7621472Y5302340D01*
X7612843D01*
X7591709Y5293586D01*
X7575534Y5277411D01*
X7566780Y5256277D01*
Y5255156D01*
X7546780Y5246871D01*
X7400894Y5392757D01*
Y5522918D01*
X7420894Y5531202D01*
X7629757Y5322340D01*
D02*
G37*
G36*
X10735646Y5214037D02*
Y4726680D01*
X10738556Y4712048D01*
X10746844Y4699644D01*
X10787484Y4659004D01*
X10799888Y4650716D01*
X10814520Y4647806D01*
X10930763D01*
X11111769Y4466800D01*
Y4148243D01*
X11101257Y4137731D01*
X11098328Y4130660D01*
X11076680D01*
X11073751Y4137731D01*
X11057576Y4153906D01*
X11036442Y4162660D01*
X11013567D01*
X10999754Y4156939D01*
X10979754Y4167358D01*
Y4178040D01*
X10976844Y4192672D01*
X10968556Y4205076D01*
X10963476Y4210156D01*
X10951072Y4218444D01*
X10936440Y4221354D01*
X10599406D01*
X10599398Y4221359D01*
X10587690Y4241354D01*
X10592498Y4252963D01*
Y4275837D01*
X10583744Y4296971D01*
X10569733Y4310982D01*
X10694236Y4435484D01*
X10702524Y4447888D01*
X10705434Y4462520D01*
Y4922260D01*
X10702524Y4936892D01*
X10694236Y4949296D01*
X10566896Y5076635D01*
X10568265Y5089506D01*
X10588494Y5101489D01*
X10589723Y5100980D01*
X10612597D01*
X10633731Y5109734D01*
X10649906Y5125909D01*
X10658660Y5147043D01*
Y5169917D01*
X10672950Y5187680D01*
X10676097D01*
X10697231Y5196434D01*
X10713406Y5212609D01*
X10715646Y5218016D01*
X10735646Y5214037D01*
D02*
G37*
G36*
X8365826Y5491695D02*
Y5103197D01*
X8278215Y5015587D01*
X7889717D01*
X7882063Y5034065D01*
X8347348Y5499349D01*
X8365826Y5491695D01*
D02*
G37*
G36*
X3680735Y5040004D02*
X3693139Y5031716D01*
X3707770Y5028806D01*
X3857557D01*
X3868069Y5018294D01*
X3889203Y5009540D01*
X3912077D01*
X3925600Y5015141D01*
X3936929Y4998186D01*
X3908646Y4969903D01*
X3900358Y4957499D01*
X3897447Y4942867D01*
Y4854179D01*
X3644716Y4601448D01*
X3636242Y4603134D01*
X3620067Y4619309D01*
X3598934Y4628062D01*
X3576059D01*
X3565837Y4623828D01*
X3558654Y4630206D01*
X3552519Y4639960D01*
X3559968Y4657945D01*
Y4680819D01*
X3551214Y4701953D01*
X3535039Y4718128D01*
X3513906Y4726882D01*
X3491031D01*
X3482867Y4745148D01*
X3479260Y4753856D01*
X3463085Y4770031D01*
X3441951Y4778784D01*
X3419076D01*
X3397942Y4770031D01*
X3381767Y4753856D01*
X3373014Y4732722D01*
Y4709847D01*
X3373838Y4707856D01*
X3368577Y4702596D01*
X3353683Y4695036D01*
X3343986Y4699052D01*
X3332550Y4703789D01*
X3309968D01*
X3304260Y4717571D01*
X3288085Y4733746D01*
X3266951Y4742500D01*
X3244076D01*
X3223742Y4734077D01*
X3223493Y4734679D01*
X3207318Y4750854D01*
X3186184Y4759608D01*
X3163310D01*
X3142176Y4750854D01*
X3126001Y4734679D01*
X3117247Y4713545D01*
Y4691163D01*
X3117098Y4691041D01*
X2995775D01*
X2986551Y4700265D01*
Y4797713D01*
X3141553Y4952716D01*
X3149841Y4965120D01*
X3154764Y4967751D01*
X3164254Y4963820D01*
X3187128D01*
X3208262Y4972574D01*
X3224437Y4988749D01*
X3233191Y5009883D01*
Y5032757D01*
X3231914Y5035841D01*
X3245277Y5055841D01*
X3664897D01*
X3680735Y5040004D01*
D02*
G37*
G36*
X10840394Y5142034D02*
X11179881Y4802547D01*
Y4535115D01*
X11159881Y4526830D01*
X10973636Y4713076D01*
X10961232Y4721364D01*
X10946600Y4724274D01*
X10830357D01*
X10812114Y4742517D01*
Y5152426D01*
X10832106Y5154438D01*
X10840394Y5142034D01*
D02*
G37*
G36*
X4001754Y4911188D02*
X4017929Y4895014D01*
X4039063Y4886260D01*
X4053928D01*
X4057500Y4882688D01*
Y3778475D01*
X3944254Y3665229D01*
X3731740D01*
X3722590Y3678923D01*
Y3701797D01*
X3713836Y3722931D01*
X3699586Y3737181D01*
X3698597Y3750111D01*
X3699440Y3760017D01*
X3709056Y3766442D01*
X3744203Y3801589D01*
X3756359Y3819782D01*
X3760627Y3841241D01*
Y3918515D01*
X3780627Y3922494D01*
X3785419Y3910925D01*
X3801594Y3894750D01*
X3822728Y3885997D01*
X3845603D01*
X3866736Y3894750D01*
X3882911Y3910925D01*
X3891665Y3932059D01*
Y3954934D01*
X3885993Y3968629D01*
X3891823Y3971044D01*
X3907998Y3987219D01*
X3916751Y4008352D01*
Y4031227D01*
X3907998Y4052361D01*
X3909462Y4059724D01*
X3912038Y4060791D01*
X3928213Y4076966D01*
X3936967Y4098100D01*
Y4120974D01*
X3928213Y4142108D01*
X3912038Y4158283D01*
X3890905Y4167037D01*
X3868030D01*
X3862539Y4164762D01*
X3844566Y4162800D01*
X3838396Y4174763D01*
X3834650Y4183807D01*
X3818475Y4199982D01*
X3818086Y4201941D01*
X3851095Y4234949D01*
X3863878D01*
X3865003Y4234483D01*
X3887878D01*
X3909012Y4243237D01*
X3925187Y4259412D01*
X3933941Y4280546D01*
Y4303421D01*
X3925187Y4324554D01*
X3909012Y4340729D01*
X3887878Y4349483D01*
X3865003D01*
X3859259Y4347104D01*
X3827867D01*
X3806407Y4342835D01*
X3788214Y4330679D01*
X3664897Y4207363D01*
X3652741Y4189170D01*
X3648473Y4167710D01*
Y3864470D01*
X3646175Y3862172D01*
X3372260D01*
X3350800Y3857903D01*
X3332607Y3845747D01*
X3224270Y3737410D01*
X3218369Y3728579D01*
X3194299Y3724365D01*
X3044659Y3874005D01*
Y4362862D01*
X3041748Y4377494D01*
X3033460Y4389898D01*
X2985107Y4438251D01*
Y4454514D01*
X2988747Y4460991D01*
X3000775Y4472075D01*
X3017850D01*
X3038984Y4480829D01*
X3041842Y4483687D01*
X3049234D01*
X3061877Y4471044D01*
X3074281Y4462756D01*
X3088913Y4459846D01*
X3595420D01*
X3610051Y4462756D01*
X3622456Y4471044D01*
X3678877Y4527466D01*
X3698493Y4523564D01*
X3699219Y4521811D01*
X3715394Y4505636D01*
X3736528Y4496882D01*
X3759403D01*
X3780537Y4505636D01*
X3788767Y4513867D01*
X3800846Y4520005D01*
X3814899Y4513867D01*
X3822268Y4506497D01*
X3843402Y4497743D01*
X3866277D01*
X3887411Y4506497D01*
X3903586Y4522672D01*
X3912340Y4543806D01*
Y4566680D01*
X3903586Y4587814D01*
X3887411Y4603989D01*
X3866277Y4612743D01*
X3843402D01*
X3822268Y4603989D01*
X3814038Y4595759D01*
X3801959Y4589620D01*
X3787906Y4595759D01*
X3780537Y4603128D01*
X3778783Y4603854D01*
X3774882Y4623470D01*
X3962718Y4811306D01*
X3971006Y4823710D01*
X3973916Y4838342D01*
Y4907194D01*
X3979836Y4911840D01*
X4001754Y4911188D01*
D02*
G37*
G36*
X10496886Y4788397D02*
Y4458037D01*
X10147404Y4108556D01*
X10147235Y4108302D01*
X10127235Y4114369D01*
Y4298541D01*
X10133755Y4314283D01*
Y4337158D01*
X10125001Y4358292D01*
X10108826Y4374467D01*
X10087693Y4383221D01*
X10064818D01*
X10049076Y4376700D01*
X9974659D01*
X9958917Y4383221D01*
X9936042D01*
X9914908Y4374467D01*
X9898733Y4358292D01*
X9889979Y4337158D01*
Y4314283D01*
X9898733Y4293149D01*
X9914908Y4276974D01*
X9936042Y4268221D01*
X9958917D01*
X9974659Y4274741D01*
X10021045D01*
X10021756Y4263225D01*
X10005253Y4247498D01*
X9988565D01*
X9967432Y4238744D01*
X9951257Y4222569D01*
X9942503Y4201436D01*
Y4178561D01*
X9951257Y4157427D01*
X9967432Y4141252D01*
X9988565Y4132498D01*
X10011440D01*
X10025276Y4123254D01*
Y3739928D01*
X10014785Y3729438D01*
X10003734Y3712899D01*
X9999854Y3693390D01*
Y3620959D01*
X9999217Y3620322D01*
X9992353Y3603751D01*
X9975602Y3601208D01*
X9971529Y3601762D01*
X9967996Y3610292D01*
X9951821Y3626467D01*
X9930687Y3635221D01*
X9907812D01*
X9894067Y3644405D01*
Y3718812D01*
X9914456Y3739200D01*
X9922744Y3751604D01*
X9925654Y3766236D01*
Y3889854D01*
X9936166Y3900366D01*
X9944920Y3921500D01*
Y3944375D01*
X9936166Y3965508D01*
X9919991Y3981683D01*
X9898857Y3990437D01*
X9875983D01*
X9854849Y3981683D01*
X9838674Y3965508D01*
X9829920Y3944375D01*
Y3921500D01*
X9838674Y3900366D01*
X9849186Y3889854D01*
Y3782073D01*
X9828797Y3761685D01*
X9820509Y3749281D01*
X9817599Y3734649D01*
Y3517087D01*
X9714100Y3413589D01*
X9705812Y3401185D01*
X9702902Y3386554D01*
Y3257656D01*
X9705812Y3243024D01*
X9714100Y3230620D01*
X9760286Y3184435D01*
Y3159045D01*
X9751986Y3153500D01*
X9729111D01*
X9707978Y3144746D01*
X9691803Y3128571D01*
X9683049Y3107437D01*
Y3084563D01*
X9691803Y3063429D01*
X9707978Y3047254D01*
X9729111Y3038500D01*
X9751986D01*
X9760286Y3032954D01*
Y2683893D01*
X9740286Y2675609D01*
X9739651Y2676243D01*
X9718517Y2684997D01*
X9695643D01*
X9674509Y2676243D01*
X9658334Y2660068D01*
X9649580Y2638934D01*
Y2616060D01*
X9658334Y2594926D01*
X9668846Y2584414D01*
Y2527040D01*
X9671756Y2512408D01*
X9680044Y2500004D01*
X9730844Y2449204D01*
X9743248Y2440916D01*
X9757880Y2438006D01*
X9798520D01*
X9813152Y2440916D01*
X9825556Y2449204D01*
X9987507Y2611156D01*
X9995796Y2623560D01*
X9998706Y2638192D01*
Y2733196D01*
X10018706Y2741481D01*
X10507652Y2252534D01*
X10499368Y2232534D01*
X8863800D01*
X8849168Y2229624D01*
X8836764Y2221336D01*
X8785964Y2170536D01*
X8777676Y2158132D01*
X8774766Y2143500D01*
Y1795520D01*
X8774853Y1795081D01*
X8774776Y1794642D01*
X8775791Y1750425D01*
X8774849Y1750172D01*
X8750336Y1736020D01*
X8730321Y1716005D01*
X8716168Y1691492D01*
X8708843Y1664151D01*
Y1635846D01*
X8716168Y1608505D01*
X8730321Y1583992D01*
X8750336Y1563977D01*
X8774849Y1549824D01*
X8778108Y1548951D01*
Y1234169D01*
X8758108Y1225885D01*
X8748970Y1235023D01*
X8727836Y1243777D01*
X8704961D01*
X8683827Y1235023D01*
X8667652Y1218848D01*
X8658899Y1197715D01*
Y1174840D01*
X8667652Y1153706D01*
X8683827Y1137531D01*
X8704961Y1128777D01*
X8727836D01*
X8748970Y1137531D01*
X8758108Y1146670D01*
X8778108Y1138385D01*
Y1051018D01*
X8781019Y1036386D01*
X8789307Y1023982D01*
X8840110Y973179D01*
Y571536D01*
X8827780Y563297D01*
X8804905D01*
X8783771Y554543D01*
X8767596Y538368D01*
X8758843Y517234D01*
Y494360D01*
X8767596Y473226D01*
X8783771Y457051D01*
X8804905Y448297D01*
X8827780D01*
X8838631Y441046D01*
X8839743Y421292D01*
X8804405Y385954D01*
X8655015D01*
X8652382Y405954D01*
X8666833Y409826D01*
X8691346Y423979D01*
X8711361Y443994D01*
X8725514Y468507D01*
X8732840Y495848D01*
Y524153D01*
X8725514Y551494D01*
X8711361Y576007D01*
X8691346Y596022D01*
X8666833Y610175D01*
X8639492Y617500D01*
X8611187D01*
X8583846Y610175D01*
X8559333Y596022D01*
X8539318Y576007D01*
X8525166Y551494D01*
X8517840Y524153D01*
X8517839Y507682D01*
X8498004Y507286D01*
X8495081Y514342D01*
X8489250Y528419D01*
X8473075Y544594D01*
X8451941Y553348D01*
X8429066D01*
X8407933Y544594D01*
X8391758Y528419D01*
X8383004Y507285D01*
Y484411D01*
X8391758Y463277D01*
X8407933Y447102D01*
X8429066Y438348D01*
X8451941D01*
X8473075Y447102D01*
X8489250Y463277D01*
X8498004Y484411D01*
X8498004Y495451D01*
X8517839Y495847D01*
X8519839Y488386D01*
X8525166Y468507D01*
X8539318Y443994D01*
X8559333Y423979D01*
X8583846Y409826D01*
X8598298Y405954D01*
X8595665Y385954D01*
X8274015D01*
X8271382Y405954D01*
X8285833Y409826D01*
X8310346Y423979D01*
X8330361Y443994D01*
X8344514Y468507D01*
X8351840Y495848D01*
Y524153D01*
X8344514Y551494D01*
X8330361Y576007D01*
X8310346Y596022D01*
X8285833Y610175D01*
X8258492Y617500D01*
X8230187D01*
X8202846Y610175D01*
X8178333Y596022D01*
X8158318Y576007D01*
X8144166Y551494D01*
X8138585Y530668D01*
X8117535Y529226D01*
X8113748Y538368D01*
X8097573Y554543D01*
X8076439Y563297D01*
X8053564D01*
X8032430Y554543D01*
X8016255Y538368D01*
X8007502Y517234D01*
Y494360D01*
X8016255Y473226D01*
X8032430Y457051D01*
X8053564Y448297D01*
X8076439D01*
X8097573Y457051D01*
X8113748Y473226D01*
X8118877Y485610D01*
X8139953Y484228D01*
X8144166Y468507D01*
X8158318Y443994D01*
X8178333Y423979D01*
X8202846Y409826D01*
X8217298Y405954D01*
X8214665Y385954D01*
X7893015D01*
X7890382Y405954D01*
X7904833Y409826D01*
X7929346Y423979D01*
X7949361Y443994D01*
X7963514Y468507D01*
X7970840Y495848D01*
Y524153D01*
X7963514Y551494D01*
X7949361Y576007D01*
X7929346Y596022D01*
X7904833Y610175D01*
X7877492Y617500D01*
X7849187D01*
X7821846Y610175D01*
X7818924Y608487D01*
X7435436Y991976D01*
X7434869Y992354D01*
X7435652Y1015885D01*
X7442603Y1021545D01*
X7747824D01*
X7763566Y1015024D01*
X7786441D01*
X7802183Y1021545D01*
X8121901D01*
X8137643Y1015024D01*
X8160517D01*
X8176259Y1021545D01*
X8494658D01*
X8510400Y1015024D01*
X8533274D01*
X8554408Y1023778D01*
X8570583Y1039953D01*
X8579337Y1061087D01*
Y1083962D01*
X8570583Y1105095D01*
X8558680Y1116998D01*
X8556848Y1130979D01*
X8559335Y1140877D01*
X8572164Y1153706D01*
X8580918Y1174840D01*
Y1197715D01*
X8572164Y1218848D01*
X8555989Y1235023D01*
X8534855Y1243777D01*
X8511981D01*
X8490847Y1235023D01*
X8474672Y1218848D01*
X8465918Y1197715D01*
Y1174840D01*
X8474672Y1153706D01*
X8484874Y1143504D01*
X8476590Y1123504D01*
X8387388D01*
X8379104Y1143504D01*
X8389306Y1153706D01*
X8398060Y1174840D01*
Y1197715D01*
X8389306Y1218848D01*
X8373131Y1235023D01*
X8351997Y1243777D01*
X8329123D01*
X8307989Y1235023D01*
X8291814Y1218848D01*
X8283060Y1197715D01*
Y1174840D01*
X8291814Y1153706D01*
X8302016Y1143504D01*
X8293732Y1123504D01*
X8193128D01*
X8184843Y1143504D01*
X8195046Y1153706D01*
X8203800Y1174840D01*
Y1197715D01*
X8195046Y1218848D01*
X8178871Y1235023D01*
X8157737Y1243777D01*
X8134862D01*
X8113729Y1235023D01*
X8097554Y1218848D01*
X8088800Y1197715D01*
Y1174840D01*
X8097554Y1153706D01*
X8107756Y1143504D01*
X8099471Y1123504D01*
X8011886D01*
X8003601Y1143504D01*
X8013804Y1153706D01*
X8022558Y1174840D01*
Y1197715D01*
X8013804Y1218848D01*
X7997629Y1235023D01*
X7976495Y1243777D01*
X7953620D01*
X7932487Y1235023D01*
X7916312Y1218848D01*
X7907558Y1197715D01*
Y1174840D01*
X7916312Y1153706D01*
X7926514Y1143504D01*
X7918230Y1123504D01*
X7814460D01*
X7809422Y1138471D01*
X7809066Y1143504D01*
X7824240Y1158678D01*
X7832994Y1179812D01*
Y1202686D01*
X7824240Y1223820D01*
X7808065Y1239995D01*
X7786932Y1248749D01*
X7764057D01*
X7742923Y1239995D01*
X7726748Y1223820D01*
X7717994Y1202686D01*
Y1179812D01*
X7726748Y1158678D01*
X7741922Y1143504D01*
X7741566Y1138471D01*
X7736529Y1123504D01*
X7630302D01*
X7622018Y1143504D01*
X7632220Y1153706D01*
X7640974Y1174840D01*
Y1197715D01*
X7632220Y1218848D01*
X7616045Y1235023D01*
X7594911Y1243777D01*
X7572036D01*
X7550903Y1235023D01*
X7534728Y1218848D01*
X7525974Y1197715D01*
Y1174840D01*
X7534728Y1153706D01*
X7544930Y1143504D01*
X7536646Y1123504D01*
X7443146D01*
X7434862Y1143504D01*
X7445064Y1153706D01*
X7453818Y1174840D01*
Y1197715D01*
X7445064Y1218848D01*
X7428889Y1235023D01*
X7407756Y1243777D01*
X7384881D01*
X7363747Y1235023D01*
X7347572Y1218848D01*
X7338818Y1197715D01*
Y1174840D01*
X7347572Y1153706D01*
X7360383Y1140896D01*
X7362865Y1130918D01*
X7361012Y1117016D01*
X7349091Y1105095D01*
X7340337Y1083962D01*
Y1061087D01*
X7349091Y1039953D01*
X7365266Y1023778D01*
X7366723Y1023174D01*
X7362745Y1003174D01*
X7178721D01*
X7173340Y1011437D01*
X7168755Y1023174D01*
X7176320Y1041437D01*
Y1064312D01*
X7167566Y1085446D01*
X7151391Y1101621D01*
X7130257Y1110375D01*
X7107383D01*
X7086249Y1101621D01*
X7070074Y1085446D01*
X7061320Y1064312D01*
Y1055055D01*
X7041320Y1043879D01*
X7035134Y1047686D01*
Y1523717D01*
X7164843Y1653425D01*
X7184843Y1645141D01*
Y1635846D01*
X7192168Y1608505D01*
X7206321Y1583992D01*
X7226336Y1563977D01*
X7250849Y1549824D01*
X7278190Y1542498D01*
X7306495D01*
X7333836Y1549824D01*
X7358349Y1563977D01*
X7378364Y1583992D01*
X7392517Y1608505D01*
X7395866Y1621003D01*
X7415866Y1618370D01*
Y1567517D01*
X7329308Y1480960D01*
X7249436D01*
X7235077Y1495319D01*
X7213943Y1504073D01*
X7191068D01*
X7169934Y1495319D01*
X7153759Y1479144D01*
X7145006Y1458010D01*
Y1435135D01*
X7153759Y1414001D01*
X7169934Y1397827D01*
X7191068Y1389073D01*
X7203781D01*
X7217741Y1370762D01*
X7217776Y1370595D01*
X7214432Y1362524D01*
Y1339649D01*
X7223186Y1318516D01*
X7239361Y1302341D01*
X7260495Y1293587D01*
X7283370D01*
X7304504Y1302341D01*
X7320679Y1318516D01*
X7329432Y1339649D01*
Y1362524D01*
X7320679Y1383658D01*
X7319845Y1384491D01*
X7328130Y1404491D01*
X7345145D01*
X7359777Y1407401D01*
X7372181Y1415690D01*
X7481136Y1524644D01*
X7489424Y1537048D01*
X7492334Y1551680D01*
Y1878652D01*
X7498543Y1882800D01*
X7521417D01*
X7542551Y1891554D01*
X7548984Y1897987D01*
X7562050Y1905753D01*
X7575116Y1897987D01*
X7581549Y1891554D01*
X7602683Y1882800D01*
X7625557D01*
X7646691Y1891554D01*
X7662866Y1907729D01*
X7671620Y1928863D01*
Y1951737D01*
X7662866Y1972871D01*
X7646691Y1989046D01*
X7625557Y1997800D01*
X7602683D01*
X7581549Y1989046D01*
X7575116Y1982613D01*
X7562050Y1974847D01*
X7548984Y1982613D01*
X7542551Y1989046D01*
X7521417Y1997800D01*
X7498543D01*
X7492334Y2001948D01*
Y2120043D01*
X7585276Y2212984D01*
X7593564Y2225388D01*
X7596474Y2240020D01*
Y3144260D01*
X7593564Y3158892D01*
X7585276Y3171296D01*
X7396322Y3360249D01*
Y3878417D01*
X7406834Y3888929D01*
X7415588Y3910063D01*
Y3927674D01*
X7419963Y3936302D01*
X7432005Y3945564D01*
X7447534D01*
X7459365Y3950465D01*
X7479366Y3938885D01*
Y3774180D01*
X7482276Y3759548D01*
X7490564Y3747144D01*
X8509104Y2728604D01*
X8521508Y2720316D01*
X8536140Y2717406D01*
X9450637D01*
X9461149Y2706894D01*
X9482283Y2698140D01*
X9505157D01*
X9526291Y2706894D01*
X9542466Y2723069D01*
X9551220Y2744203D01*
Y2767077D01*
X9542466Y2788211D01*
X9526291Y2804386D01*
X9505157Y2813140D01*
X9482283D01*
X9461149Y2804386D01*
X9450637Y2793874D01*
X9026957D01*
X8835994Y2984837D01*
Y3591300D01*
X8833084Y3605932D01*
X8824796Y3618336D01*
X8802974Y3640157D01*
Y3925106D01*
X8822974Y3938470D01*
X8831062Y3935120D01*
X8842505D01*
Y3912603D01*
X8851259Y3891469D01*
X8867434Y3875294D01*
X8888568Y3866540D01*
X8911442D01*
X8932576Y3875294D01*
X8948751Y3891469D01*
X8957505Y3912603D01*
Y3935477D01*
X8956561Y3937756D01*
X8967673Y3954386D01*
X9161892D01*
X9173004Y3937756D01*
X9172060Y3935477D01*
Y3912603D01*
X9180814Y3891469D01*
X9196989Y3875294D01*
X9218123Y3866540D01*
X9240997D01*
X9250065Y3870296D01*
X9270066Y3857097D01*
Y3392423D01*
X9272976Y3377791D01*
X9281264Y3365387D01*
X9499999Y3146652D01*
Y3131786D01*
X9508753Y3110652D01*
X9524928Y3094477D01*
X9546062Y3085724D01*
X9568937D01*
X9590070Y3094477D01*
X9606245Y3110652D01*
X9614999Y3131786D01*
Y3154661D01*
X9606245Y3175795D01*
X9590070Y3191970D01*
X9568937Y3200724D01*
X9554071D01*
X9346534Y3408260D01*
Y3855603D01*
X9362903Y3866540D01*
X9385777D01*
X9406911Y3875294D01*
X9423086Y3891469D01*
X9431840Y3912603D01*
Y3935477D01*
X9423086Y3956611D01*
X9406911Y3972786D01*
X9385777Y3981540D01*
X9362903D01*
X9341769Y3972786D01*
X9335335Y3976476D01*
X9319512Y3992299D01*
X9324205Y4015891D01*
X9328171Y4017534D01*
X9344346Y4033709D01*
X9353100Y4054843D01*
Y4077717D01*
X9344346Y4098851D01*
X9328171Y4115026D01*
X9307037Y4123780D01*
X9284163D01*
X9263029Y4115026D01*
X9246854Y4098851D01*
X9238100Y4077717D01*
Y4054843D01*
X9239752Y4050854D01*
X9226388Y4030854D01*
X9194215D01*
X9180851Y4050854D01*
X9182503Y4054843D01*
Y4077717D01*
X9173749Y4098851D01*
X9157575Y4115026D01*
X9136441Y4123780D01*
X9113566D01*
X9092432Y4115026D01*
X9076257Y4098851D01*
X9073526Y4092257D01*
X9051878D01*
X9048751Y4099806D01*
X9032576Y4115981D01*
X9011442Y4124735D01*
X8988567D01*
X8967434Y4115981D01*
X8951259Y4099806D01*
X8942505Y4078672D01*
Y4055798D01*
X8944552Y4050854D01*
X8931189Y4030854D01*
X8885582D01*
X8875071Y4041366D01*
X8853937Y4050120D01*
X8831062D01*
X8822974Y4046770D01*
X8802974Y4060134D01*
Y4486446D01*
X8822974Y4499810D01*
X8831062Y4496460D01*
X8853937D01*
X8875071Y4505214D01*
X8891246Y4521389D01*
X8899999Y4542523D01*
Y4557388D01*
X8990417Y4647806D01*
X10299819D01*
X10314451Y4650716D01*
X10326855Y4659004D01*
X10466571Y4798720D01*
X10481436D01*
X10496886Y4788397D01*
D02*
G37*
G36*
X10628966Y4787783D02*
Y4478357D01*
X10593354Y4442746D01*
X10573354Y4451030D01*
Y4787783D01*
X10589723Y4798720D01*
X10612597D01*
X10628966Y4787783D01*
D02*
G37*
G36*
X8538546Y5381317D02*
Y4290397D01*
X8520303Y4272154D01*
X7865580D01*
X7850948Y4269244D01*
X7838544Y4260956D01*
X7681064Y4103476D01*
X7679774Y4101544D01*
X7675529Y4099786D01*
X7659354Y4083611D01*
X7657311Y4078680D01*
X7635663D01*
X7633620Y4083611D01*
X7617446Y4099786D01*
X7596312Y4108540D01*
X7573437D01*
X7552303Y4099786D01*
X7536128Y4083611D01*
X7521658Y4080733D01*
X7496376Y4106016D01*
X7483972Y4114304D01*
X7469340Y4117214D01*
X7289000D01*
X7274368Y4114304D01*
X7261964Y4106016D01*
X7244000Y4088051D01*
X7224534Y4085549D01*
X7218758Y4090098D01*
X7207271Y4101584D01*
X7186137Y4110338D01*
X7163263D01*
X7142129Y4101584D01*
X7125954Y4085409D01*
X7117200Y4064276D01*
Y4041401D01*
X7125954Y4020267D01*
X7142129Y4004092D01*
X7163263Y3995338D01*
X7186137D01*
X7202825Y4002251D01*
X7222826Y3993515D01*
Y3534381D01*
X6854537Y3166092D01*
X6834922Y3169994D01*
X6833897Y3172468D01*
X6817722Y3188643D01*
X6796588Y3197397D01*
X6773714D01*
X6752580Y3188643D01*
X6736405Y3172468D01*
X6727651Y3151334D01*
Y3128459D01*
X6736405Y3107326D01*
X6752580Y3091151D01*
X6755053Y3090126D01*
X6758955Y3070510D01*
X6751424Y3062979D01*
X6743136Y3050575D01*
X6740226Y3035943D01*
Y2458363D01*
X6729714Y2447851D01*
X6726380Y2439802D01*
X6710635Y2429271D01*
X6702819Y2431205D01*
X6688297Y2437220D01*
X6665423D01*
X6644289Y2428466D01*
X6624724Y2437186D01*
Y2513887D01*
X6693354Y2582516D01*
X6704405Y2599055D01*
X6708286Y2618564D01*
Y2873276D01*
X6714806Y2889018D01*
Y2911893D01*
X6706052Y2933027D01*
X6689877Y2949202D01*
X6668743Y2957955D01*
X6645869D01*
X6624735Y2949202D01*
X6608560Y2933027D01*
X6599806Y2911893D01*
Y2889018D01*
X6606326Y2873276D01*
Y2639681D01*
X6569027Y2602381D01*
X6550549Y2610034D01*
Y3995519D01*
X6612599Y4057569D01*
X6612600Y4057570D01*
X6620932Y4070040D01*
X6623858Y4084750D01*
Y4290264D01*
X6634166Y4300571D01*
X6642920Y4321705D01*
Y4344580D01*
X6653134Y4359866D01*
X6992143D01*
X7013044Y4338964D01*
X7025448Y4330676D01*
X7040080Y4327766D01*
X8381200D01*
X8395832Y4330676D01*
X8408236Y4338964D01*
X8479356Y4410084D01*
X8487644Y4422488D01*
X8490554Y4437120D01*
Y5359457D01*
X8520068Y5388971D01*
X8538546Y5381317D01*
D02*
G37*
G36*
X10961557Y7000000D02*
X10964483Y6985290D01*
X10972815Y6972820D01*
X10985286Y6964488D01*
X10999996Y6961562D01*
X11711558D01*
Y1038441D01*
X10999996D01*
X10985286Y1035515D01*
X10972815Y1027182D01*
X10964483Y1014712D01*
X10961557Y1000002D01*
Y809384D01*
X10952087Y803675D01*
X10941557Y799721D01*
X10922777Y807500D01*
X10899902D01*
X10878768Y798746D01*
X10862593Y782571D01*
X10853840Y761437D01*
Y738563D01*
X10862593Y717429D01*
X10878768Y701254D01*
X10899902Y692500D01*
X10922777D01*
X10941557Y700279D01*
X10952087Y696325D01*
X10961557Y690616D01*
Y626771D01*
X10941557Y613196D01*
X10925492Y617500D01*
X10897187D01*
X10869846Y610175D01*
X10845333Y596022D01*
X10825318Y576007D01*
X10811166Y551494D01*
X10803840Y524153D01*
Y495848D01*
X10811166Y468507D01*
X10825318Y443994D01*
X10845333Y423979D01*
X10869846Y409826D01*
X10897187Y402501D01*
X10925492D01*
X10941557Y406805D01*
X10961557Y393230D01*
Y288440D01*
X9464201D01*
X9456547Y306917D01*
X9539372Y389742D01*
X9547660Y402146D01*
X9550570Y416778D01*
Y425604D01*
X9570571Y438967D01*
X9572066Y438348D01*
X9594941D01*
X9616075Y447102D01*
X9632250Y463277D01*
X9641004Y484411D01*
X9641004Y495451D01*
X9660839Y495847D01*
X9662839Y488386D01*
X9668166Y468507D01*
X9682318Y443994D01*
X9702333Y423979D01*
X9726846Y409826D01*
X9754187Y402501D01*
X9782492D01*
X9809833Y409826D01*
X9834346Y423979D01*
X9854361Y443994D01*
X9868514Y468507D01*
X9875840Y495848D01*
Y524153D01*
X9868514Y551494D01*
X9854361Y576007D01*
X9834346Y596022D01*
X9809833Y610175D01*
X9782492Y617500D01*
X9754187D01*
X9726846Y610175D01*
X9702333Y596022D01*
X9682318Y576007D01*
X9668166Y551494D01*
X9660840Y524153D01*
X9660839Y507682D01*
X9641004Y507286D01*
X9638081Y514342D01*
X9632250Y528419D01*
X9616075Y544594D01*
X9594941Y553348D01*
X9572066D01*
X9570571Y552728D01*
X9550570Y566092D01*
Y692744D01*
X9605378Y747552D01*
X9613667Y759956D01*
X9616577Y774588D01*
Y1019399D01*
X9636577Y1027684D01*
X9640483Y1023778D01*
X9661616Y1015024D01*
X9684491D01*
X9700233Y1021545D01*
X10022821D01*
X10038563Y1015024D01*
X10061438D01*
X10077179Y1021545D01*
X10420663D01*
X10436405Y1015024D01*
X10459280D01*
X10475022Y1021545D01*
X10797821D01*
X10813563Y1015024D01*
X10836437D01*
X10857571Y1023778D01*
X10858208Y1024415D01*
X10898702D01*
X10918211Y1028295D01*
X10934750Y1039346D01*
X10976521Y1081117D01*
X10987572Y1097656D01*
X10991453Y1117166D01*
Y1128777D01*
X11009757D01*
X11030891Y1137531D01*
X11047066Y1153706D01*
X11055820Y1174840D01*
Y1197715D01*
X11047066Y1218848D01*
X11030891Y1235023D01*
X11009757Y1243777D01*
X10986883D01*
X10969024Y1236380D01*
X10674980Y1530423D01*
X10685333Y1548355D01*
X10707190Y1542498D01*
X10735495D01*
X10762836Y1549824D01*
X10787349Y1563977D01*
X10807364Y1583992D01*
X10821517Y1608505D01*
X10822390Y1611764D01*
X11007644D01*
X11022276Y1614674D01*
X11034680Y1622962D01*
X11049325Y1637607D01*
X11057613Y1650011D01*
X11060524Y1664643D01*
Y1905323D01*
X11078284Y1909805D01*
X11080524Y1909868D01*
X11096298Y1894094D01*
X11117432Y1885340D01*
X11140307D01*
X11161440Y1894094D01*
X11177615Y1910269D01*
X11186369Y1931403D01*
Y1954277D01*
X11177615Y1975411D01*
X11161440Y1991586D01*
X11140307Y2000340D01*
X11117432D01*
X11096298Y1991586D01*
X11080123Y1975411D01*
X11076206Y1965955D01*
X11072032Y1964735D01*
X11054338Y1965424D01*
X11049325Y1972926D01*
X10636854Y2385397D01*
Y3878417D01*
X10647366Y3888929D01*
X10656120Y3910063D01*
Y3932937D01*
X10647366Y3954071D01*
X10631191Y3970246D01*
X10610057Y3979000D01*
X10587183D01*
X10566049Y3970246D01*
X10558644Y3962841D01*
X10540097Y3960330D01*
X10533941Y3964270D01*
X10521971Y3976240D01*
X10500837Y3984994D01*
X10477963D01*
X10456829Y3976240D01*
X10440654Y3960065D01*
X10431900Y3938932D01*
Y3916057D01*
X10440654Y3894923D01*
X10456829Y3878748D01*
X10477963Y3869994D01*
X10500837D01*
X10521971Y3878748D01*
X10529376Y3886153D01*
X10544434Y3888192D01*
X10560386Y3874539D01*
Y2372277D01*
X10553957Y2367386D01*
X10541279Y2363100D01*
X10098943Y2805436D01*
Y3057969D01*
X10118943Y3061947D01*
X10125694Y3045649D01*
X10141869Y3029474D01*
X10163003Y3020720D01*
X10185877D01*
X10207011Y3029474D01*
X10223186Y3045649D01*
X10231940Y3066783D01*
Y3089657D01*
X10223186Y3110791D01*
X10212674Y3121303D01*
Y4065683D01*
X10410846Y4263854D01*
X10430846Y4255570D01*
Y4178040D01*
X10433756Y4163408D01*
X10442044Y4151004D01*
X10503004Y4090044D01*
X10515408Y4081756D01*
X10530040Y4078846D01*
X10582783D01*
X10591920Y4069708D01*
Y4054843D01*
X10600674Y4033709D01*
X10616849Y4017534D01*
X10637983Y4008780D01*
X10660857D01*
X10667502Y4011532D01*
X10687502Y3998169D01*
Y3988803D01*
X10696256Y3967669D01*
X10712431Y3951494D01*
X10733565Y3942740D01*
X10756439D01*
X10777573Y3951494D01*
X10793748Y3967669D01*
X10798950Y3980227D01*
X10799592Y3980348D01*
X10819774Y3978238D01*
X10826256Y3962589D01*
X10842431Y3946414D01*
X10863565Y3937660D01*
X10886439D01*
X10895666Y3931495D01*
Y3629400D01*
X10898576Y3614768D01*
X10906864Y3602364D01*
X11061820Y3447408D01*
Y3432543D01*
X11070574Y3411409D01*
X11086749Y3395234D01*
X11107883Y3386480D01*
X11130757D01*
X11151891Y3395234D01*
X11168066Y3411409D01*
X11176820Y3432543D01*
Y3455417D01*
X11168066Y3476551D01*
X11151891Y3492726D01*
X11130757Y3501480D01*
X11115891D01*
X10972134Y3645237D01*
Y3816723D01*
X10988503Y3827660D01*
X11011377D01*
X11032511Y3836414D01*
X11048686Y3852589D01*
X11057440Y3873723D01*
Y3896597D01*
X11048686Y3917731D01*
X11032511Y3933906D01*
X11011377Y3942660D01*
X10994214D01*
X10994070Y3942721D01*
X10981521Y3955487D01*
X10978888Y3960325D01*
X10979754Y3964680D01*
Y4042962D01*
X10999754Y4053381D01*
X11013567Y4047660D01*
X11017609D01*
X11064921Y4000348D01*
X11077325Y3992060D01*
X11091957Y3989149D01*
X11177851D01*
X11192482Y3992060D01*
X11204886Y4000348D01*
X11245151Y4040613D01*
X11253440Y4053017D01*
X11256350Y4067648D01*
Y4274596D01*
X11272979Y4285707D01*
X11276135Y4284400D01*
X11299010D01*
X11320144Y4293154D01*
X11336319Y4309329D01*
X11345073Y4330463D01*
Y4353337D01*
X11338552Y4369079D01*
Y5300233D01*
X11395844Y5357524D01*
X11406895Y5374063D01*
X11410775Y5393573D01*
Y6296867D01*
X11406895Y6316376D01*
X11395844Y6332915D01*
X11302914Y6425845D01*
X11305900Y6440855D01*
X11309421Y6447622D01*
X11323748Y6461949D01*
X11332502Y6483083D01*
Y6505957D01*
X11323748Y6527091D01*
X11307573Y6543266D01*
X11286439Y6552020D01*
X11263564D01*
X11242430Y6543266D01*
X11226255Y6527091D01*
X11225942Y6526335D01*
X11206326Y6522433D01*
X10862777Y6865982D01*
X10856256Y6881724D01*
X10840081Y6897899D01*
X10818947Y6906653D01*
X10796073D01*
X10780331Y6900133D01*
X10453493D01*
X10433984Y6896252D01*
X10417445Y6885201D01*
X10414464Y6882220D01*
X10413563D01*
X10397821Y6875699D01*
X10075357D01*
X10059615Y6882220D01*
X10036741D01*
X10020999Y6875699D01*
X9694357D01*
X9678615Y6882220D01*
X9655741D01*
X9639999Y6875699D01*
X9313357D01*
X9297615Y6882220D01*
X9274741D01*
X9258999Y6875699D01*
X8939683D01*
X8923941Y6882220D01*
X8901067D01*
X8885325Y6875699D01*
X8547063D01*
X8531321Y6882220D01*
X8508446D01*
X8492704Y6875699D01*
X8166063D01*
X8150321Y6882220D01*
X8127446D01*
X8113463Y6876428D01*
X7788279D01*
X7770778Y6883677D01*
X7747903D01*
X7730403Y6876428D01*
X7400425D01*
X7386442Y6882220D01*
X7363567D01*
X7342433Y6873466D01*
X7339238Y6870271D01*
X7319238Y6878556D01*
Y7388954D01*
X7322497Y7389828D01*
X7347010Y7403980D01*
X7367025Y7423995D01*
X7381178Y7448508D01*
X7388504Y7475849D01*
Y7504154D01*
X7381178Y7531495D01*
X7367025Y7556008D01*
X7347010Y7576023D01*
X7322497Y7590176D01*
X7295157Y7597502D01*
X7266851D01*
X7239511Y7590176D01*
X7214998Y7576023D01*
X7194983Y7556008D01*
X7180830Y7531495D01*
X7173504Y7504154D01*
Y7475849D01*
X7180830Y7448508D01*
X7194983Y7423995D01*
X7214998Y7403980D01*
X7239511Y7389828D01*
X7242770Y7388954D01*
Y7298965D01*
X7222770Y7290680D01*
X7145435Y7368014D01*
Y7381714D01*
X7136681Y7402848D01*
X7120506Y7419023D01*
X7099373Y7427777D01*
X7076498D01*
X7055364Y7419023D01*
X7039189Y7402848D01*
X7030435Y7381714D01*
Y7358839D01*
X7039189Y7337705D01*
X7055364Y7321530D01*
X7076498Y7312777D01*
X7092530D01*
X7175014Y7230292D01*
Y7209887D01*
X7155014Y7205909D01*
X7153174Y7210351D01*
X7136999Y7226526D01*
X7115866Y7235280D01*
X7092991D01*
X7071857Y7226526D01*
X7055682Y7210351D01*
X7046928Y7189217D01*
Y7166343D01*
X7055682Y7145209D01*
X7071857Y7129034D01*
X7092991Y7120280D01*
X7115866D01*
X7136999Y7129034D01*
X7153174Y7145209D01*
X7155014Y7149651D01*
X7175014Y7145673D01*
Y7073594D01*
X7158385Y7062482D01*
X7158197Y7062560D01*
X7135323D01*
X7114189Y7053806D01*
X7098014Y7037631D01*
X7089260Y7016497D01*
Y6993623D01*
X7098014Y6972489D01*
X7114189Y6956314D01*
X7135323Y6947560D01*
X7158197D01*
X7158385Y6947638D01*
X7175014Y6936526D01*
Y6853610D01*
X7156537Y6845956D01*
X6828157Y7174336D01*
X6815753Y7182624D01*
X6801122Y7185534D01*
X6462644D01*
X6449280Y7205534D01*
X6449880Y7206983D01*
Y7229857D01*
X6441126Y7250991D01*
X6424951Y7267166D01*
X6403817Y7275920D01*
X6380943D01*
X6359809Y7267166D01*
X6343634Y7250991D01*
X6334880Y7229857D01*
Y7206983D01*
X6335480Y7205534D01*
X6322116Y7185534D01*
X6094689D01*
X6086405Y7205534D01*
X6090799Y7209929D01*
X6099553Y7231063D01*
Y7253937D01*
X6090799Y7275071D01*
X6074624Y7291246D01*
X6053490Y7300000D01*
X6030616D01*
X6020000Y7295603D01*
X6000000Y7307895D01*
Y7711563D01*
X10961557D01*
Y7000000D01*
D02*
G37*
G36*
X10903286Y4063682D02*
X10886656Y4052570D01*
X10886440Y4052660D01*
X10863565D01*
X10842431Y4043906D01*
X10826256Y4027731D01*
X10821054Y4015173D01*
X10820413Y4015052D01*
X10800230Y4017162D01*
X10793748Y4032811D01*
X10777573Y4048986D01*
X10756439Y4057740D01*
X10733565D01*
X10726920Y4054988D01*
X10706920Y4068351D01*
Y4077717D01*
X10698166Y4098851D01*
X10681991Y4115026D01*
X10665312Y4121935D01*
X10663064Y4124886D01*
X10671887Y4143392D01*
X10673857Y4144886D01*
X10903286D01*
Y4063682D01*
D02*
G37*
G36*
X2951868Y4548148D02*
X2948912Y4541012D01*
Y4521261D01*
X2945272Y4514784D01*
X2933244Y4503700D01*
X2916170D01*
X2895036Y4494947D01*
X2878861Y4478772D01*
X2870107Y4457638D01*
Y4434763D01*
X2878861Y4413629D01*
X2895036Y4397454D01*
X2916170Y4388700D01*
X2926515D01*
X2968190Y4347025D01*
Y3858168D01*
X2971100Y3843536D01*
X2979389Y3831132D01*
X3103621Y3706900D01*
X3095336Y3686900D01*
X3092943D01*
X3071809Y3678146D01*
X3061297Y3667634D01*
X2930360D01*
X2915728Y3664724D01*
X2903324Y3656436D01*
X2794553Y3547664D01*
X2786265Y3535260D01*
X2783354Y3520629D01*
Y3465514D01*
X2766725Y3454402D01*
X2766436Y3454522D01*
X2745074D01*
Y4160834D01*
X2744388Y4164282D01*
X2762181Y4177352D01*
X2775238Y4171943D01*
X2778647D01*
X2798366Y4169493D01*
X2807120Y4148359D01*
X2823295Y4132184D01*
X2831289Y4128873D01*
X2827359Y4119384D01*
Y4096509D01*
X2836112Y4075375D01*
X2852287Y4059200D01*
X2873421Y4050447D01*
X2896296D01*
X2917430Y4059200D01*
X2933605Y4075375D01*
X2942359Y4096509D01*
Y4119384D01*
X2933605Y4140518D01*
X2917430Y4156693D01*
X2909436Y4160004D01*
X2913367Y4169493D01*
Y4192368D01*
X2904613Y4213502D01*
X2888438Y4229677D01*
X2867304Y4238430D01*
X2863895D01*
X2844176Y4240881D01*
X2835422Y4262015D01*
X2819247Y4278190D01*
X2798113Y4286943D01*
X2788595D01*
Y4305881D01*
X2779842Y4327015D01*
X2763667Y4343189D01*
X2762790Y4365201D01*
X2766782Y4369193D01*
X2775536Y4390327D01*
Y4413201D01*
X2766782Y4434335D01*
X2750607Y4450510D01*
X2746147Y4452358D01*
X2741454Y4475949D01*
X2833652Y4568148D01*
X2938504D01*
X2951868Y4548148D01*
D02*
G37*
G36*
X8726506Y5502054D02*
Y3624320D01*
X8729416Y3609688D01*
X8737704Y3597284D01*
X8759526Y3575463D01*
Y3494838D01*
X8742896Y3483727D01*
X8741758Y3484198D01*
X8718884D01*
X8715449Y3482775D01*
X8066739D01*
X8052242Y3488780D01*
X8029367D01*
X8008233Y3480026D01*
X7992058Y3463851D01*
X7983304Y3442717D01*
Y3419843D01*
X7992058Y3398709D01*
X8008233Y3382534D01*
X8022981Y3376425D01*
X8025280Y3374889D01*
X8027991Y3374350D01*
X8029367Y3373780D01*
X8030856D01*
X8046740Y3370620D01*
X8225037D01*
X8229016Y3350620D01*
X8212429Y3343750D01*
X8196254Y3327575D01*
X8187500Y3306441D01*
Y3283566D01*
X8196254Y3262433D01*
X8212429Y3246258D01*
X8233563Y3237504D01*
X8256437D01*
X8277571Y3246258D01*
X8293746Y3262433D01*
X8302500Y3283566D01*
Y3306441D01*
X8293746Y3327575D01*
X8277571Y3343750D01*
X8260984Y3350620D01*
X8264963Y3370620D01*
X8715449D01*
X8718884Y3369198D01*
X8741758D01*
X8742896Y3369669D01*
X8759526Y3358557D01*
Y2969000D01*
X8762436Y2954368D01*
X8770724Y2941964D01*
X8900336Y2812352D01*
X8892683Y2793874D01*
X8551977D01*
X7555834Y3790017D01*
Y3982832D01*
X7572464Y3993943D01*
X7573437Y3993540D01*
X7596312D01*
X7617446Y4002294D01*
X7633620Y4018469D01*
X7635663Y4023400D01*
X7657311D01*
X7659354Y4018469D01*
X7675529Y4002294D01*
X7696663Y3993540D01*
X7716554D01*
X7719537Y3993539D01*
X7726700Y3975063D01*
X7724039Y3973960D01*
X7721214Y3972790D01*
X7705039Y3956615D01*
X7696285Y3935481D01*
Y3912606D01*
X7705039Y3891472D01*
X7721214Y3875297D01*
X7742348Y3866543D01*
X7765222D01*
X7786356Y3875297D01*
X7802531Y3891472D01*
X7811285Y3912606D01*
Y3935481D01*
X7802531Y3956615D01*
X7786356Y3972790D01*
X7765222Y3981543D01*
X7745331D01*
X7742348Y3981544D01*
X7735185Y4000021D01*
X7737846Y4001124D01*
X7740671Y4002294D01*
X7756846Y4018469D01*
X7765600Y4039603D01*
Y4062477D01*
X7760506Y4074775D01*
X7881417Y4195686D01*
X8536140D01*
X8550772Y4198596D01*
X8563176Y4206884D01*
X8603816Y4247524D01*
X8612104Y4259928D01*
X8615014Y4274560D01*
Y5418847D01*
X8706506Y5510339D01*
X8726506Y5502054D01*
D02*
G37*
G36*
X3071809Y3580654D02*
X3092943Y3571900D01*
X3115817D01*
X3127014Y3576538D01*
X3147014Y3564585D01*
Y3528792D01*
X3133849Y3519996D01*
X3110975D01*
X3089841Y3511242D01*
X3073666Y3495067D01*
X3069912Y3486004D01*
X2977502Y3393594D01*
X2957502Y3401878D01*
Y3403657D01*
X2948748Y3424791D01*
X2932573Y3440966D01*
X2911439Y3449720D01*
X2888564D01*
X2879823Y3446099D01*
X2859823Y3459463D01*
Y3504792D01*
X2946197Y3591166D01*
X3061297D01*
X3071809Y3580654D01*
D02*
G37*
G36*
X6310061Y4412624D02*
X6317071Y4407940D01*
X6313155Y4391307D01*
X6311655Y4387647D01*
X6291229Y4379186D01*
X6275054Y4363011D01*
X6266300Y4341877D01*
Y4319003D01*
X6275054Y4297869D01*
X6291229Y4281694D01*
X6312363Y4272940D01*
X6335237D01*
X6356371Y4281694D01*
X6372246Y4297568D01*
X6373957Y4297532D01*
X6392246Y4293165D01*
Y3500457D01*
X6188583Y3296794D01*
X6000000D01*
Y4700423D01*
X6020000Y4702686D01*
X6310061Y4412624D01*
D02*
G37*
G36*
X9996984Y3545923D02*
Y3167762D01*
X9976984Y3159478D01*
X9847087Y3289374D01*
Y3296914D01*
X9857599Y3307426D01*
X9866353Y3328560D01*
Y3351435D01*
X9857599Y3372569D01*
X9841424Y3388744D01*
X9830293Y3393354D01*
X9824629Y3415975D01*
X9882869Y3474215D01*
X9891157Y3486619D01*
X9894067Y3501250D01*
Y3511036D01*
X9907812Y3520221D01*
X9930687D01*
X9951821Y3528974D01*
X9967995Y3545149D01*
X9991773Y3550290D01*
X9996984Y3545923D01*
D02*
G37*
G36*
X3307701Y3441458D02*
X3325894Y3429302D01*
X3347354Y3425033D01*
X3418457D01*
Y3276591D01*
X3283463Y3141596D01*
X3206488D01*
X3205363Y3142063D01*
X3182488D01*
X3182349Y3142005D01*
X3165720Y3153117D01*
Y3367906D01*
X3212284Y3414470D01*
X3220572Y3426874D01*
X3223483Y3441505D01*
Y3497392D01*
X3243483Y3505676D01*
X3307701Y3441458D01*
D02*
G37*
G36*
X5950420Y6649429D02*
X5938983D01*
X5917849Y6640675D01*
X5901674Y6624500D01*
X5892920Y6603366D01*
Y6580492D01*
X5901674Y6559358D01*
X5917849Y6543183D01*
X5938983Y6534429D01*
X5950420D01*
Y4800019D01*
X5946116D01*
X5924983Y4791266D01*
X5908808Y4775091D01*
X5900054Y4753957D01*
Y4731082D01*
X5908808Y4709948D01*
X5924983Y4693773D01*
X5946116Y4685019D01*
X5950420D01*
Y3271991D01*
X5923384Y3244956D01*
X5915096Y3232552D01*
X5912186Y3217920D01*
Y3138324D01*
X5892185Y3124960D01*
X5890737Y3125560D01*
X5875871D01*
X5788234Y3213197D01*
Y6750000D01*
X5950420D01*
Y6649429D01*
D02*
G37*
G36*
X10136206Y3682537D02*
Y3121303D01*
X10125694Y3110791D01*
X10118943Y3094493D01*
X10098943Y3098471D01*
Y3560572D01*
X10105463Y3576314D01*
Y3599189D01*
X10101813Y3608002D01*
Y3672273D01*
X10112303Y3682764D01*
X10116206Y3688604D01*
X10136206Y3682537D01*
D02*
G37*
G36*
X9875983Y2908960D02*
X9898857D01*
X9902237Y2910360D01*
X9922237Y2896996D01*
Y2654029D01*
X9856754Y2588546D01*
X9836754Y2596830D01*
Y2907524D01*
X9847478Y2913563D01*
X9856754Y2916924D01*
X9875983Y2908960D01*
D02*
G37*
G36*
X7319854Y3857560D02*
Y3344412D01*
X7322764Y3329780D01*
X7331052Y3317376D01*
X7520006Y3128423D01*
Y2255857D01*
X7427064Y2162916D01*
X7418776Y2150512D01*
X7415866Y2135880D01*
Y1999236D01*
X7405142Y1993197D01*
X7395866Y1989835D01*
X7376637Y1997800D01*
X7353763D01*
X7332629Y1989046D01*
X7317342Y1973759D01*
X7313492Y1977609D01*
X7292359Y1986363D01*
X7269484D01*
X7248350Y1977609D01*
X7232175Y1961434D01*
X7223421Y1940300D01*
Y1917425D01*
X7232175Y1896291D01*
X7242687Y1885780D01*
Y1839412D01*
X6969864Y1566590D01*
X6961576Y1554186D01*
X6958666Y1539554D01*
Y1025988D01*
X6952460Y1021223D01*
X6939581Y1016788D01*
X6815640Y1140729D01*
Y1155595D01*
X6806886Y1176728D01*
X6790711Y1192903D01*
X6769577Y1201657D01*
X6746703D01*
X6725569Y1192903D01*
X6709394Y1176728D01*
X6700640Y1155595D01*
Y1132720D01*
X6709394Y1111586D01*
X6725569Y1095411D01*
X6733311Y1092204D01*
Y1070556D01*
X6729847Y1069122D01*
X6713672Y1052947D01*
X6704918Y1031813D01*
Y1008938D01*
X6713672Y987804D01*
X6729847Y971629D01*
X6742832Y966251D01*
Y944603D01*
X6729804Y939206D01*
X6713629Y923031D01*
X6704875Y901897D01*
Y894627D01*
X6665064Y854816D01*
X6656776Y842412D01*
X6653866Y827780D01*
Y637280D01*
X6656776Y622648D01*
X6665064Y610244D01*
X6710072Y565237D01*
X6722183Y551217D01*
X6706009Y535042D01*
X6697255Y513909D01*
Y491034D01*
X6706009Y469900D01*
X6722184Y453725D01*
X6743317Y444971D01*
X6766192D01*
X6787326Y453725D01*
X6803501Y469900D01*
X6812255Y491034D01*
Y513909D01*
X6809473Y520625D01*
X6822836Y540626D01*
X6937883D01*
X7171591Y306917D01*
X7163937Y288440D01*
X6000000D01*
Y937914D01*
X6020000Y946199D01*
X6027069Y939130D01*
X6048203Y930376D01*
X6071077D01*
X6092211Y939130D01*
X6108386Y955305D01*
X6117140Y976439D01*
Y999313D01*
X6108386Y1020447D01*
X6092211Y1036622D01*
X6084110Y1039978D01*
X6083896Y1052768D01*
X6086099Y1060802D01*
X6104911Y1068594D01*
X6121086Y1084769D01*
X6129840Y1105903D01*
Y1128777D01*
X6121086Y1149911D01*
X6104911Y1166086D01*
X6083777Y1174840D01*
X6060903D01*
X6039769Y1166086D01*
X6023594Y1149911D01*
X6020000Y1141235D01*
X6000000Y1145213D01*
Y1351087D01*
X6020000Y1355065D01*
X6023594Y1346389D01*
X6039769Y1330214D01*
X6060903Y1321460D01*
X6083777D01*
X6104911Y1330214D01*
X6121086Y1346389D01*
X6129840Y1367523D01*
Y1390397D01*
X6121086Y1411531D01*
X6104911Y1427706D01*
X6083777Y1436460D01*
X6060903D01*
X6048240Y1431215D01*
X6030857Y1437684D01*
X6026729Y1442305D01*
X6019486Y1459791D01*
X6003311Y1475966D01*
X6000000Y1477338D01*
Y1515379D01*
X6014318D01*
X6035452Y1524133D01*
X6051627Y1540308D01*
X6060381Y1561441D01*
Y1584316D01*
X6051627Y1605450D01*
X6035452Y1621625D01*
X6014318Y1630379D01*
X6000000D01*
Y3213428D01*
X6006897Y3220326D01*
X6204420D01*
X6219052Y3223236D01*
X6231456Y3231524D01*
X6362678Y3362746D01*
X6376905Y3355606D01*
X6380600Y3352384D01*
Y3330877D01*
X6389354Y3309743D01*
X6405529Y3293568D01*
X6426663Y3284814D01*
X6449537D01*
X6453672Y3286527D01*
X6473672Y3273163D01*
Y1078850D01*
X6438706Y1043884D01*
X6426479Y1048781D01*
X6420228Y1053691D01*
Y1074160D01*
X6413134Y1091286D01*
X6423092Y1095411D01*
X6439267Y1111586D01*
X6448021Y1132720D01*
Y1155595D01*
X6439267Y1176728D01*
X6423092Y1192903D01*
X6422265Y1193246D01*
X6418363Y1212862D01*
X6420806Y1215304D01*
X6429560Y1236438D01*
Y1259313D01*
X6420806Y1280447D01*
X6413258Y1287995D01*
X6425891Y1300628D01*
X6434645Y1321762D01*
Y1344637D01*
X6425891Y1365770D01*
X6411241Y1380420D01*
X6420806Y1389985D01*
X6429560Y1411119D01*
Y1433994D01*
X6420806Y1455128D01*
X6404631Y1471303D01*
X6383497Y1480056D01*
X6360623D01*
X6339489Y1471303D01*
X6323314Y1455128D01*
X6314560Y1433994D01*
Y1411119D01*
X6323314Y1389985D01*
X6337964Y1375335D01*
X6328399Y1365770D01*
X6319645Y1344637D01*
Y1321762D01*
X6328399Y1300628D01*
X6335947Y1293080D01*
X6323314Y1280447D01*
X6314560Y1259313D01*
Y1236438D01*
X6323314Y1215304D01*
X6339489Y1199129D01*
X6340315Y1198787D01*
X6344217Y1179171D01*
X6341774Y1176728D01*
X6333021Y1155595D01*
Y1132720D01*
X6340115Y1115593D01*
X6330157Y1111469D01*
X6313982Y1095294D01*
X6305228Y1074160D01*
Y1056037D01*
X6278984Y1029793D01*
X6270696Y1017389D01*
X6267786Y1002758D01*
Y876040D01*
X6270696Y861408D01*
X6276460Y852782D01*
Y836663D01*
X6285214Y815529D01*
X6301389Y799354D01*
X6309800Y795870D01*
X6301374Y775527D01*
Y752652D01*
X6310128Y731518D01*
X6326303Y715343D01*
X6344683Y707730D01*
X6347104Y698036D01*
X6346672Y686906D01*
X6336845Y682835D01*
X6320670Y666660D01*
X6311916Y645527D01*
Y622652D01*
X6320670Y601518D01*
X6336845Y585343D01*
X6357978Y576589D01*
X6380853D01*
X6401987Y585343D01*
X6418162Y601518D01*
X6426916Y622652D01*
Y645527D01*
X6418162Y666660D01*
X6401987Y682835D01*
X6383606Y690449D01*
X6381185Y700142D01*
X6381617Y711273D01*
X6391445Y715343D01*
X6407620Y731518D01*
X6416374Y752652D01*
Y775527D01*
X6407620Y796661D01*
X6391445Y812836D01*
X6383034Y816320D01*
X6391460Y836663D01*
Y859537D01*
X6388229Y867337D01*
X6404631Y874131D01*
X6420806Y890306D01*
X6429560Y911440D01*
Y926017D01*
X6539291Y1035748D01*
X6547623Y1048218D01*
X6550549Y1062928D01*
X6550549Y1062929D01*
Y2290490D01*
X6569027Y2298144D01*
X6619484Y2247687D01*
X6628114Y2226853D01*
X6644289Y2210678D01*
X6665423Y2201924D01*
X6688297D01*
X6709431Y2210678D01*
X6725606Y2226853D01*
X6734360Y2247986D01*
Y2270861D01*
X6725606Y2291995D01*
X6709431Y2308170D01*
X6708036Y2308748D01*
Y2330396D01*
X6709431Y2330974D01*
X6725606Y2347149D01*
X6728940Y2355198D01*
X6744685Y2365728D01*
X6752501Y2363795D01*
X6767023Y2357780D01*
X6789897D01*
X6811031Y2366534D01*
X6827206Y2382709D01*
X6835960Y2403843D01*
Y2426717D01*
X6827206Y2447851D01*
X6816694Y2458363D01*
Y2570358D01*
X6836694Y2574336D01*
X6842661Y2559932D01*
X6858836Y2543757D01*
X6879970Y2535003D01*
X6902844D01*
X6923978Y2543757D01*
X6940153Y2559932D01*
X6948907Y2581065D01*
Y2603940D01*
X6940523Y2624181D01*
Y2969820D01*
X6945180Y2981063D01*
Y3003937D01*
X6936426Y3025071D01*
X6920251Y3041246D01*
X6899117Y3050000D01*
X6876243D01*
X6873903Y3049031D01*
X6862574Y3065986D01*
X7288096Y3491508D01*
X7296384Y3503912D01*
X7299294Y3518543D01*
Y3847243D01*
X7319294Y3857933D01*
X7319854Y3857560D01*
D02*
G37*
G36*
X10585715Y2064233D02*
X10575863Y2045801D01*
X10569260Y2047114D01*
X9284710D01*
X9270079Y2044204D01*
X9257675Y2035916D01*
X9252449Y2030690D01*
X9246512Y2030938D01*
X9231213Y2037739D01*
X9229539Y2046156D01*
X9221251Y2058561D01*
X9179720Y2100091D01*
X9167316Y2108380D01*
X9152684Y2111290D01*
X9027036D01*
X9012404Y2108380D01*
X9000000Y2100091D01*
X8972964Y2073056D01*
X8964676Y2060651D01*
X8961765Y2046020D01*
Y1983383D01*
X8951254Y1972871D01*
X8949996Y1969835D01*
X8928348D01*
X8927090Y1972871D01*
X8910915Y1989046D01*
X8889781Y1997800D01*
X8866907D01*
X8851234Y2008272D01*
Y2127663D01*
X8879637Y2156066D01*
X10493883D01*
X10585715Y2064233D01*
D02*
G37*
G36*
X10589094Y1907728D02*
X10605268Y1891554D01*
X10626402Y1882800D01*
X10649277D01*
X10652143Y1883987D01*
X10663472Y1867032D01*
X10589899Y1793459D01*
X10569386D01*
X10549877Y1789579D01*
X10533338Y1778528D01*
X10504049Y1749238D01*
X10492998Y1732699D01*
X10489117Y1713190D01*
Y1593211D01*
X10492998Y1573702D01*
X10504049Y1557163D01*
X10800993Y1260219D01*
X10796300Y1236627D01*
X10792429Y1235023D01*
X10776254Y1218848D01*
X10767500Y1197715D01*
Y1174840D01*
X10776254Y1153706D01*
X10786456Y1143504D01*
X10778172Y1123504D01*
X10682149D01*
X10673865Y1143504D01*
X10684067Y1153706D01*
X10692821Y1174840D01*
Y1197715D01*
X10684067Y1218848D01*
X10667892Y1235023D01*
X10646758Y1243777D01*
X10623884D01*
X10602750Y1235023D01*
X10586575Y1218848D01*
X10577821Y1197715D01*
Y1174840D01*
X10586575Y1153706D01*
X10596777Y1143504D01*
X10588493Y1123504D01*
X10491146D01*
X10482862Y1143504D01*
X10493064Y1153706D01*
X10501818Y1174840D01*
Y1197715D01*
X10493064Y1218848D01*
X10476889Y1235023D01*
X10455756Y1243777D01*
X10432881D01*
X10411747Y1235023D01*
X10395572Y1218848D01*
X10386818Y1197715D01*
Y1174840D01*
X10395572Y1153706D01*
X10405774Y1143504D01*
X10397490Y1123504D01*
X10096828D01*
X10088544Y1143504D01*
X10098746Y1153706D01*
X10107500Y1174840D01*
Y1197715D01*
X10098746Y1218848D01*
X10082571Y1235023D01*
X10061438Y1243777D01*
X10038563D01*
X10017429Y1235023D01*
X10001254Y1218848D01*
X9992500Y1197715D01*
Y1174840D01*
X10001254Y1153706D01*
X10011456Y1143504D01*
X10003172Y1123504D01*
X9907356D01*
X9899071Y1143504D01*
X9909274Y1153706D01*
X9918028Y1174840D01*
Y1197715D01*
X9909274Y1218848D01*
X9893099Y1235023D01*
X9871965Y1243777D01*
X9849090D01*
X9827956Y1235023D01*
X9811781Y1218848D01*
X9803028Y1197715D01*
Y1174840D01*
X9811781Y1153706D01*
X9821984Y1143504D01*
X9813699Y1123504D01*
X9720855D01*
X9712570Y1143504D01*
X9722773Y1153706D01*
X9731527Y1174840D01*
Y1197715D01*
X9722773Y1218848D01*
X9706598Y1235023D01*
X9685464Y1243777D01*
X9662589D01*
X9641455Y1235023D01*
X9636577Y1230145D01*
X9616577Y1238429D01*
Y1548951D01*
X9619836Y1549824D01*
X9644349Y1563977D01*
X9664364Y1583992D01*
X9678517Y1608505D01*
X9685842Y1635846D01*
Y1664151D01*
X9678517Y1691492D01*
X9676830Y1694414D01*
X9887021Y1904606D01*
X10476919D01*
X10487431Y1894094D01*
X10508564Y1885340D01*
X10531439D01*
X10552573Y1894094D01*
X10567083Y1908604D01*
X10578576Y1909042D01*
X10589094Y1907728D01*
D02*
G37*
G36*
X7405142Y1887403D02*
X7415866Y1881364D01*
Y1681626D01*
X7395866Y1678993D01*
X7392517Y1691492D01*
X7378364Y1716005D01*
X7358349Y1736020D01*
X7333836Y1750172D01*
X7306495Y1757498D01*
X7297200D01*
X7288916Y1777498D01*
X7307957Y1796539D01*
X7316245Y1808944D01*
X7319156Y1823575D01*
Y1877134D01*
X7322702Y1880929D01*
X7337620Y1889486D01*
X7353763Y1882800D01*
X7376637D01*
X7395866Y1890764D01*
X7405142Y1887403D01*
D02*
G37*
G36*
X9824918Y1950646D02*
X9688344Y1814072D01*
X9676498Y1817380D01*
X9667554Y1821566D01*
X9659591Y1840791D01*
X9643416Y1856966D01*
X9622282Y1865720D01*
X9599407D01*
X9578273Y1856966D01*
X9564668Y1843361D01*
X9552533Y1845566D01*
X9544668Y1849492D01*
Y1860096D01*
X9535914Y1881230D01*
X9519739Y1897405D01*
X9498605Y1906159D01*
X9475731D01*
X9454597Y1897405D01*
X9438422Y1881230D01*
X9429668Y1860096D01*
Y1837222D01*
X9438422Y1816088D01*
X9454597Y1799913D01*
X9475731Y1791159D01*
X9498605D01*
X9519739Y1799913D01*
X9533344Y1813518D01*
X9545479Y1811313D01*
X9553344Y1807387D01*
Y1796783D01*
X9561751Y1776488D01*
X9561773Y1776310D01*
X9561856Y1774985D01*
X9554548Y1754915D01*
X9536849Y1750172D01*
X9512336Y1736020D01*
X9492321Y1716005D01*
X9478168Y1691492D01*
X9470843Y1664151D01*
Y1635846D01*
X9478168Y1608505D01*
X9492321Y1583992D01*
X9512336Y1563977D01*
X9536849Y1549824D01*
X9540108Y1548951D01*
Y1239331D01*
X9520108Y1231046D01*
X9516131Y1235023D01*
X9494997Y1243777D01*
X9472123D01*
X9450989Y1235023D01*
X9434814Y1218848D01*
X9426060Y1197715D01*
Y1174840D01*
X9434814Y1153706D01*
X9450989Y1137531D01*
X9472123Y1128777D01*
X9494997D01*
X9516131Y1137531D01*
X9520108Y1141508D01*
X9540108Y1133224D01*
Y790425D01*
X9485300Y735617D01*
X9477012Y723213D01*
X9474102Y708581D01*
Y603551D01*
X9454102Y595266D01*
X9453346Y596022D01*
X9428833Y610175D01*
X9401492Y617500D01*
X9373187D01*
X9345846Y610175D01*
X9342924Y608487D01*
X9086067Y865344D01*
Y1121726D01*
X9096621Y1128777D01*
X9119495D01*
X9140629Y1137531D01*
X9156804Y1153706D01*
X9165558Y1174840D01*
Y1197715D01*
X9156804Y1218848D01*
X9140629Y1235023D01*
X9119495Y1243777D01*
X9096621D01*
X9086067Y1250829D01*
Y1587732D01*
X9106067Y1593091D01*
X9111321Y1583992D01*
X9131336Y1563977D01*
X9155849Y1549824D01*
X9183190Y1542498D01*
X9211495D01*
X9238836Y1549824D01*
X9263349Y1563977D01*
X9283364Y1583992D01*
X9297517Y1608505D01*
X9304842Y1635846D01*
Y1664151D01*
X9297517Y1691492D01*
X9294531Y1696663D01*
X9297101Y1699234D01*
X9305390Y1711638D01*
X9308300Y1726270D01*
Y1886578D01*
X9328300Y1894863D01*
X9331609Y1891554D01*
X9352743Y1882800D01*
X9375617D01*
X9396751Y1891554D01*
X9412926Y1907729D01*
X9421680Y1928863D01*
Y1951737D01*
X9420736Y1954016D01*
X9431848Y1970646D01*
X9816634D01*
X9824918Y1950646D01*
D02*
G37*
G36*
X4100000Y288440D02*
X3048982D01*
X3043918Y295581D01*
X3038676Y308440D01*
X3046001Y326123D01*
Y348997D01*
X3037247Y370131D01*
X3021072Y386306D01*
X2999938Y395060D01*
X2977063D01*
X2955929Y386306D01*
X2939754Y370131D01*
X2935824Y360643D01*
X2914177D01*
X2910247Y370131D01*
X2894072Y386306D01*
X2872938Y395060D01*
X2850063D01*
X2828929Y386306D01*
X2812754Y370131D01*
X2804000Y348997D01*
Y326123D01*
X2811325Y308440D01*
X2806083Y295581D01*
X2801019Y288440D01*
X1038439D01*
Y1000002D01*
X1035513Y1014712D01*
X1027181Y1027182D01*
X1014710Y1035515D01*
X1000000Y1038441D01*
Y1850000D01*
X1270108D01*
X1275467Y1830000D01*
X1267251Y1825257D01*
X1249740Y1807746D01*
X1237358Y1786300D01*
X1230949Y1762380D01*
Y1737616D01*
X1237358Y1713696D01*
X1249740Y1692250D01*
X1267251Y1674739D01*
X1288697Y1662358D01*
X1312617Y1655948D01*
X1337381D01*
X1361301Y1662358D01*
X1382747Y1674739D01*
X1400257Y1692250D01*
X1412639Y1713696D01*
X1419048Y1737616D01*
Y1762380D01*
X1412639Y1786300D01*
X1400257Y1807746D01*
X1382747Y1825257D01*
X1374531Y1830000D01*
X1379890Y1850000D01*
X1770107D01*
X1775466Y1830000D01*
X1767250Y1825257D01*
X1749739Y1807746D01*
X1737357Y1786300D01*
X1730948Y1762380D01*
Y1737616D01*
X1737357Y1713696D01*
X1749739Y1692250D01*
X1767250Y1674739D01*
X1788696Y1662358D01*
X1812616Y1655948D01*
X1837380D01*
X1861300Y1662358D01*
X1882746Y1674739D01*
X1900256Y1692250D01*
X1912638Y1713696D01*
X1919047Y1737616D01*
Y1762380D01*
X1912638Y1786300D01*
X1900256Y1807746D01*
X1882746Y1825257D01*
X1874530Y1830000D01*
X1879889Y1850000D01*
X2045107D01*
X2050466Y1830000D01*
X2042250Y1825257D01*
X2024740Y1807746D01*
X2012358Y1786300D01*
X2005948Y1762380D01*
Y1737616D01*
X2012358Y1713696D01*
X2024740Y1692250D01*
X2042250Y1674739D01*
X2063696Y1662358D01*
X2087616Y1655948D01*
X2112380D01*
X2136300Y1662358D01*
X2157746Y1674739D01*
X2175257Y1692250D01*
X2187639Y1713696D01*
X2194048Y1737616D01*
Y1762380D01*
X2187639Y1786300D01*
X2175257Y1807746D01*
X2157746Y1825257D01*
X2149530Y1830000D01*
X2154889Y1850000D01*
X2545111D01*
X2550470Y1830000D01*
X2542255Y1825257D01*
X2524744Y1807746D01*
X2512362Y1786300D01*
X2505953Y1762380D01*
Y1737616D01*
X2512362Y1713696D01*
X2524744Y1692250D01*
X2542255Y1674739D01*
X2563700Y1662358D01*
X2587620Y1655948D01*
X2612384D01*
X2636304Y1662358D01*
X2657750Y1674739D01*
X2675261Y1692250D01*
X2687643Y1713696D01*
X2694052Y1737616D01*
Y1762380D01*
X2687643Y1786300D01*
X2675261Y1807746D01*
X2657750Y1825257D01*
X2649534Y1830000D01*
X2654893Y1850000D01*
X3027380D01*
X3040743Y1830000D01*
X3038994Y1825777D01*
Y1802902D01*
X3047748Y1781769D01*
X3063923Y1765594D01*
X3085057Y1756840D01*
X3107932D01*
X3121211Y1747967D01*
X3124880Y1742212D01*
X3133074Y1722431D01*
X3149249Y1706256D01*
X3170383Y1697502D01*
X3185248D01*
X3320614Y1562137D01*
X3312329Y1542137D01*
X2830276D01*
X2822786Y1549626D01*
X2801652Y1558380D01*
X2778778D01*
X2757644Y1549626D01*
X2741469Y1533451D01*
X2732715Y1512317D01*
Y1489443D01*
X2741469Y1468309D01*
X2757644Y1452134D01*
X2778778Y1443380D01*
X2801652D01*
X2822786Y1452134D01*
X2836320Y1465668D01*
X3123950D01*
X3137314Y1445668D01*
X3135001Y1440084D01*
Y1417210D01*
X3143755Y1396076D01*
X3159930Y1379901D01*
X3181063Y1371147D01*
X3203938D01*
X3225072Y1379901D01*
X3241247Y1396076D01*
X3250001Y1417210D01*
Y1440084D01*
X3247688Y1445668D01*
X3261052Y1465668D01*
X3320440D01*
X3345297Y1440812D01*
Y1425946D01*
X3354050Y1404812D01*
X3370225Y1388637D01*
X3391359Y1379883D01*
X3414234D01*
X3428066Y1370641D01*
Y1227157D01*
X3348220Y1147311D01*
X3328220Y1155596D01*
Y1156717D01*
X3319466Y1177851D01*
X3303291Y1194026D01*
X3282157Y1202780D01*
X3259283D01*
X3238149Y1194026D01*
X3221974Y1177851D01*
X3213220Y1156717D01*
Y1133843D01*
X3221974Y1112709D01*
X3238149Y1096534D01*
X3259283Y1087780D01*
X3261637D01*
X3272327Y1067780D01*
X3271367Y1066342D01*
X3268456Y1051711D01*
Y793399D01*
X3263013Y787956D01*
X3254259Y766822D01*
Y743947D01*
X3263013Y722813D01*
X3279188Y706638D01*
X3300322Y697885D01*
X3323196D01*
X3344330Y706638D01*
X3355809Y718118D01*
X3370039Y720141D01*
X3379901Y717377D01*
X3392428Y704849D01*
X3413562Y696096D01*
X3436437D01*
X3457571Y704849D01*
X3473746Y721024D01*
X3482500Y742158D01*
Y765033D01*
X3473746Y786167D01*
X3457571Y802342D01*
X3436437Y811096D01*
X3413562D01*
X3392428Y802342D01*
X3380949Y790863D01*
X3366719Y788839D01*
X3356857Y791603D01*
X3344925Y803536D01*
Y1035873D01*
X3429606Y1120555D01*
X3449222Y1116653D01*
X3450574Y1113389D01*
X3466749Y1097214D01*
X3487883Y1088461D01*
X3510757D01*
X3531891Y1097214D01*
X3548066Y1113389D01*
X3556820Y1134523D01*
Y1157398D01*
X3548066Y1178532D01*
X3531891Y1194707D01*
X3510758Y1203461D01*
X3504490Y1211097D01*
X3504534Y1211320D01*
Y1470522D01*
X3501624Y1485153D01*
X3493336Y1497558D01*
X3239320Y1751573D01*
Y1766439D01*
X3230566Y1787573D01*
X3214391Y1803748D01*
X3193257Y1812502D01*
X3170383D01*
X3164850Y1816199D01*
X3160844Y1831973D01*
X3174336Y1850000D01*
X3562947D01*
X3566926Y1830000D01*
X3551831Y1823748D01*
X3535656Y1807573D01*
X3526903Y1786439D01*
Y1763564D01*
X3535656Y1742431D01*
X3551831Y1726256D01*
X3572965Y1717502D01*
X3595840D01*
X3616974Y1726256D01*
X3633149Y1742431D01*
X3641903Y1763564D01*
Y1786439D01*
X3633149Y1807573D01*
X3616974Y1823748D01*
X3601880Y1830000D01*
X3605858Y1850000D01*
X4100000D01*
Y288440D01*
D02*
G37*
G36*
X8951254Y1907729D02*
X8967429Y1891554D01*
X8982283Y1885401D01*
X8989489Y1864322D01*
X8979304Y1854137D01*
X8971016Y1841733D01*
X8968105Y1827102D01*
Y1742480D01*
Y1233939D01*
X8948105Y1225655D01*
X8938737Y1235023D01*
X8917603Y1243777D01*
X8894728D01*
X8873595Y1235023D01*
X8854577Y1244290D01*
Y1548951D01*
X8857836Y1549824D01*
X8882349Y1563977D01*
X8902364Y1583992D01*
X8916517Y1608505D01*
X8923842Y1635846D01*
Y1664151D01*
X8916517Y1691492D01*
X8902364Y1716005D01*
X8882349Y1736020D01*
X8857836Y1750172D01*
X8852252Y1751669D01*
X8851234Y1795956D01*
Y1872328D01*
X8866907Y1882800D01*
X8889781D01*
X8910915Y1891554D01*
X8927090Y1907729D01*
X8928348Y1910765D01*
X8949996D01*
X8951254Y1907729D01*
D02*
G37*
G36*
X7028284Y937904D02*
X7040688Y929616D01*
X7055320Y926706D01*
X7392563D01*
X7764853Y554416D01*
X7763166Y551494D01*
X7755840Y524153D01*
Y495848D01*
X7763166Y468507D01*
X7777318Y443994D01*
X7797333Y423979D01*
X7821846Y409826D01*
X7836298Y405954D01*
X7833665Y385954D01*
X7512015D01*
X7509382Y405954D01*
X7523833Y409826D01*
X7548346Y423979D01*
X7568361Y443994D01*
X7582514Y468507D01*
X7589840Y495848D01*
Y524153D01*
X7582514Y551494D01*
X7568361Y576007D01*
X7548346Y596022D01*
X7523833Y610175D01*
X7496492Y617500D01*
X7468187D01*
X7440846Y610175D01*
X7416333Y596022D01*
X7396318Y576007D01*
X7382166Y551494D01*
X7374840Y524153D01*
Y507681D01*
X7355004Y507285D01*
X7346250Y528419D01*
X7330075Y544594D01*
X7308941Y553348D01*
X7286066D01*
X7264933Y544594D01*
X7248758Y528419D01*
X7240004Y507285D01*
Y484411D01*
X7242891Y477441D01*
X7225936Y466112D01*
X7072462Y619586D01*
X7077154Y643178D01*
X7079219Y644033D01*
X7095394Y660208D01*
X7104148Y681342D01*
Y704216D01*
X7095394Y725350D01*
X7079219Y741525D01*
X7058085Y750279D01*
X7035210D01*
X7017034Y742750D01*
X7005114Y747437D01*
X6997034Y752767D01*
Y784759D01*
X7017034Y792368D01*
X7027829Y781574D01*
X7048963Y772820D01*
X7071837D01*
X7092971Y781574D01*
X7109146Y797749D01*
X7117900Y818883D01*
Y841757D01*
X7109146Y862891D01*
X7092971Y879066D01*
X7071837Y887820D01*
X7048963D01*
X7027829Y879066D01*
X7017034Y868272D01*
X6997034Y875881D01*
Y940870D01*
X7003240Y945634D01*
X7016119Y950069D01*
X7028284Y937904D01*
D02*
G37*
G36*
X6920566Y927660D02*
Y679176D01*
X6923476Y664544D01*
X6931764Y652140D01*
X6946810Y637094D01*
X6938526Y617094D01*
X6845222D01*
X6842651Y620942D01*
Y643816D01*
X6833897Y664950D01*
X6817722Y681125D01*
X6807218Y685476D01*
Y707124D01*
X6818300Y711714D01*
X6834475Y727889D01*
X6843229Y749022D01*
Y771897D01*
X6834475Y793031D01*
X6818300Y809206D01*
X6797166Y817960D01*
X6789861D01*
X6785883Y837960D01*
X6794946Y841714D01*
X6811121Y857889D01*
X6819875Y879023D01*
Y901897D01*
X6811121Y923031D01*
X6794946Y939206D01*
X6781961Y944585D01*
Y966233D01*
X6794989Y971629D01*
X6811164Y987804D01*
X6817307Y1002634D01*
X6838396Y1009830D01*
X6920566Y927660D01*
D02*
G37*
G36*
X8968105Y1024862D02*
Y611048D01*
X8964846Y610175D01*
X8940333Y596022D01*
X8936578Y592267D01*
X8916578Y600552D01*
Y989017D01*
X8915383Y995024D01*
X8916721Y1007079D01*
X8927407Y1019085D01*
X8938737Y1023778D01*
X8948105Y1033147D01*
X8968105Y1024862D01*
D02*
G37*
G36*
X9288853Y554416D02*
X9287166Y551494D01*
X9281585Y530668D01*
X9260535Y529226D01*
X9256748Y538368D01*
X9240573Y554543D01*
X9219439Y563297D01*
X9196564D01*
X9175430Y554543D01*
X9159255Y538368D01*
X9150502Y517234D01*
Y494360D01*
X9159255Y473226D01*
X9175430Y457051D01*
X9196564Y448297D01*
X9219439D01*
X9240573Y457051D01*
X9256748Y473226D01*
X9261877Y485610D01*
X9282953Y484228D01*
X9287166Y468507D01*
X9301318Y443994D01*
X9321333Y423979D01*
X9345846Y409826D01*
X9373187Y402501D01*
X9401492D01*
X9420905Y407702D01*
X9431257Y389771D01*
X9381721Y340234D01*
X8892960D01*
X8885306Y358712D01*
X8905380Y378786D01*
X8913668Y391190D01*
X8916578Y405821D01*
Y419450D01*
X8936578Y427734D01*
X8940333Y423979D01*
X8964846Y409826D01*
X8992187Y402501D01*
X9020492D01*
X9047833Y409826D01*
X9072346Y423979D01*
X9092361Y443994D01*
X9106514Y468507D01*
X9113840Y495848D01*
Y524153D01*
X9106514Y551494D01*
X9092361Y576007D01*
X9072346Y596022D01*
X9047833Y610175D01*
X9044574Y611048D01*
Y772563D01*
X9063052Y780217D01*
X9288853Y554416D01*
D02*
G37*
%LPC*%
G36*
X6764497Y6968580D02*
X6741623D01*
X6720489Y6959826D01*
X6704314Y6943651D01*
X6695560Y6922517D01*
Y6899643D01*
X6704314Y6878509D01*
X6720489Y6862334D01*
X6741623Y6853580D01*
X6764497D01*
X6785631Y6862334D01*
X6801806Y6878509D01*
X6810560Y6899643D01*
Y6922517D01*
X6801806Y6943651D01*
X6785631Y6959826D01*
X6764497Y6968580D01*
D02*
G37*
G36*
X6408897Y7060020D02*
X6386023D01*
X6364889Y7051266D01*
X6348714Y7035091D01*
X6339960Y7013957D01*
Y6991083D01*
X6348714Y6969949D01*
X6348449Y6968618D01*
X6339489Y6964906D01*
X6323314Y6948731D01*
X6314560Y6927597D01*
Y6904723D01*
X6323314Y6883589D01*
X6339489Y6867414D01*
X6347677Y6864022D01*
X6338995Y6843061D01*
Y6820186D01*
X6347749Y6799052D01*
X6363924Y6782877D01*
X6385057Y6774124D01*
X6407932D01*
X6429066Y6782877D01*
X6445241Y6799052D01*
X6453995Y6820186D01*
Y6843061D01*
X6445241Y6864195D01*
X6429066Y6880370D01*
X6420878Y6883761D01*
X6429560Y6904723D01*
Y6927597D01*
X6420806Y6948731D01*
X6421071Y6950062D01*
X6430031Y6953774D01*
X6446206Y6969949D01*
X6454960Y6991083D01*
Y7013957D01*
X6446206Y7035091D01*
X6430031Y7051266D01*
X6408897Y7060020D01*
D02*
G37*
G36*
X6403817Y6673854D02*
X6380943D01*
X6359809Y6665100D01*
X6343634Y6648925D01*
X6334880Y6627791D01*
Y6604916D01*
X6343634Y6583782D01*
X6357090Y6570326D01*
X6359806Y6567531D01*
X6359134Y6546239D01*
X6353794Y6540899D01*
X6345040Y6519765D01*
Y6496890D01*
X6353794Y6475756D01*
X6369969Y6459581D01*
X6391103Y6450827D01*
X6413977D01*
X6435111Y6459581D01*
X6451286Y6475756D01*
X6460040Y6496890D01*
Y6519765D01*
X6451286Y6540899D01*
X6437830Y6554355D01*
X6435114Y6557150D01*
X6435786Y6578442D01*
X6441126Y6583782D01*
X6449880Y6604916D01*
Y6627791D01*
X6441126Y6648925D01*
X6424951Y6665100D01*
X6403817Y6673854D01*
D02*
G37*
G36*
X6764497Y6530219D02*
X6741623D01*
X6720489Y6521465D01*
X6704314Y6505290D01*
X6695560Y6484156D01*
Y6461281D01*
X6704314Y6440148D01*
X6720489Y6423973D01*
X6741623Y6415219D01*
X6764497D01*
X6785631Y6423973D01*
X6801806Y6440148D01*
X6810560Y6461281D01*
Y6484156D01*
X6801806Y6505290D01*
X6785631Y6521465D01*
X6764497Y6530219D01*
D02*
G37*
G36*
X6231935Y6474118D02*
X6209061D01*
X6187927Y6465364D01*
X6171752Y6449189D01*
X6162998Y6428055D01*
Y6405181D01*
X6171752Y6384047D01*
X6187927Y6367872D01*
X6209061Y6359118D01*
X6231935D01*
X6252613Y6367683D01*
X6263390Y6363429D01*
X6271090Y6357609D01*
Y6337515D01*
X6279844Y6316381D01*
X6296019Y6300206D01*
X6317153Y6291452D01*
X6340028D01*
X6361162Y6300206D01*
X6377336Y6316381D01*
X6386090Y6337515D01*
Y6360390D01*
X6377336Y6381524D01*
X6361162Y6397699D01*
X6340028Y6406453D01*
X6317153D01*
X6296476Y6397888D01*
X6285699Y6402141D01*
X6277998Y6407962D01*
Y6428055D01*
X6269244Y6449189D01*
X6253069Y6465364D01*
X6231935Y6474118D01*
D02*
G37*
G36*
X6419057Y6262460D02*
X6396183D01*
X6375049Y6253706D01*
X6358874Y6237531D01*
X6350120Y6216397D01*
Y6193523D01*
X6358874Y6172389D01*
X6375049Y6156214D01*
X6396183Y6147460D01*
X6419057D01*
X6440191Y6156214D01*
X6456366Y6172389D01*
X6465120Y6193523D01*
Y6216397D01*
X6456366Y6237531D01*
X6440191Y6253706D01*
X6419057Y6262460D01*
D02*
G37*
G36*
X6764995Y6363562D02*
X6742120D01*
X6720987Y6354808D01*
X6704812Y6338633D01*
X6696058Y6317499D01*
Y6294625D01*
X6704812Y6273491D01*
X6720987Y6257316D01*
X6742120Y6248562D01*
X6744583D01*
X6746702Y6229440D01*
X6725569Y6220686D01*
X6709394Y6204511D01*
X6700640Y6183377D01*
Y6160503D01*
X6709394Y6139369D01*
X6725569Y6123194D01*
X6746703Y6114440D01*
X6769577D01*
X6790711Y6123194D01*
X6806886Y6139369D01*
X6815640Y6160503D01*
Y6183377D01*
X6806886Y6204511D01*
X6790711Y6220686D01*
X6769577Y6229440D01*
X6767114D01*
X6764995Y6248562D01*
X6786129Y6257316D01*
X6802304Y6273491D01*
X6811058Y6294625D01*
Y6317499D01*
X6802304Y6338633D01*
X6786129Y6354808D01*
X6764995Y6363562D01*
D02*
G37*
G36*
X6925010Y6220914D02*
X6902135D01*
X6881001Y6212161D01*
X6864827Y6195986D01*
X6856073Y6174852D01*
Y6151977D01*
X6864827Y6130843D01*
X6881001Y6114668D01*
X6902135Y6105914D01*
X6925010D01*
X6946144Y6114668D01*
X6962319Y6130843D01*
X6971073Y6151977D01*
Y6174852D01*
X6962319Y6195986D01*
X6946144Y6212161D01*
X6925010Y6220914D01*
D02*
G37*
G36*
X6300839Y5001260D02*
X6277964D01*
X6256830Y4992506D01*
X6240655Y4976331D01*
X6231901Y4955197D01*
Y4932322D01*
X6240655Y4911189D01*
X6256830Y4895014D01*
X6277964Y4886260D01*
X6300839D01*
X6321973Y4895014D01*
X6338148Y4911189D01*
X6346901Y4932322D01*
Y4955197D01*
X6338148Y4976331D01*
X6321973Y4992506D01*
X6300839Y5001260D01*
D02*
G37*
G36*
X6520937Y4912113D02*
X6498062D01*
X6476928Y4903359D01*
X6460753Y4887184D01*
X6451999Y4866050D01*
Y4843175D01*
X6460753Y4822041D01*
X6476928Y4805866D01*
X6498062Y4797113D01*
X6520937D01*
X6542070Y4805866D01*
X6558245Y4822041D01*
X6566999Y4843175D01*
Y4866050D01*
X6558245Y4887184D01*
X6542070Y4903359D01*
X6520937Y4912113D01*
D02*
G37*
G36*
X6820016Y4782498D02*
X6797141D01*
X6776007Y4773745D01*
X6759832Y4757570D01*
X6751078Y4736436D01*
Y4713561D01*
X6759832Y4692427D01*
X6776007Y4676252D01*
X6797141Y4667498D01*
X6820016D01*
X6841149Y4676252D01*
X6857324Y4692427D01*
X6866078Y4713561D01*
Y4736436D01*
X6857324Y4757570D01*
X6841149Y4773745D01*
X6820016Y4782498D01*
D02*
G37*
G36*
X7866159Y6457499D02*
X7837854D01*
X7810513Y6450173D01*
X7786000Y6436020D01*
X7765985Y6416005D01*
X7751832Y6391492D01*
X7744506Y6364152D01*
Y6335846D01*
X7751832Y6308506D01*
X7765985Y6283993D01*
X7786000Y6263978D01*
X7810513Y6249825D01*
X7837854Y6242499D01*
X7866159D01*
X7893500Y6249825D01*
X7918013Y6263978D01*
X7938028Y6283993D01*
X7952180Y6308506D01*
X7959506Y6335846D01*
Y6364152D01*
X7952180Y6391492D01*
X7938028Y6416005D01*
X7918013Y6436020D01*
X7893500Y6450173D01*
X7866159Y6457499D01*
D02*
G37*
G36*
X2258986Y6669250D02*
X2236111D01*
X2214978Y6660496D01*
X2198803Y6644321D01*
X2190049Y6623187D01*
Y6600312D01*
X2198803Y6579179D01*
X2210876Y6567105D01*
X2198803Y6555031D01*
X2190049Y6533897D01*
Y6511023D01*
X2198803Y6489889D01*
X2214978Y6473714D01*
X2236111Y6464960D01*
X2258986D01*
X2280120Y6473714D01*
X2296295Y6489889D01*
X2305049Y6511023D01*
Y6533897D01*
X2296295Y6555031D01*
X2284221Y6567105D01*
X2296295Y6579179D01*
X2305049Y6600312D01*
Y6623187D01*
X2296295Y6644321D01*
X2280120Y6660496D01*
X2258986Y6669250D01*
D02*
G37*
G36*
X688800Y6646970D02*
X613800D01*
X584431Y6643104D01*
X557064Y6631768D01*
X533564Y6613736D01*
X515531Y6590235D01*
X504196Y6562868D01*
X500329Y6533500D01*
X504196Y6504131D01*
X515531Y6476765D01*
X533564Y6453264D01*
X557064Y6435231D01*
X584431Y6423895D01*
X613800Y6420029D01*
X688800D01*
X718168Y6423895D01*
X745535Y6435231D01*
X769036Y6453264D01*
X787069Y6476765D01*
X798404Y6504131D01*
X802271Y6533500D01*
X798404Y6562868D01*
X787069Y6590235D01*
X769036Y6613736D01*
X745535Y6631768D01*
X718168Y6643104D01*
X688800Y6646970D01*
D02*
G37*
G36*
X1425048Y6307557D02*
X1402173D01*
X1381040Y6298803D01*
X1364865Y6282628D01*
X1356111Y6261494D01*
Y6238619D01*
X1364865Y6217486D01*
X1381040Y6201311D01*
X1402173Y6192557D01*
X1425048D01*
X1446182Y6201311D01*
X1462357Y6217486D01*
X1471111Y6238619D01*
Y6261494D01*
X1462357Y6282628D01*
X1446182Y6298803D01*
X1425048Y6307557D01*
D02*
G37*
G36*
X1079306D02*
X1056431D01*
X1035297Y6298803D01*
X1019122Y6282628D01*
X1010369Y6261494D01*
Y6238619D01*
X1019122Y6217486D01*
X1035297Y6201311D01*
X1056431Y6192557D01*
X1079306D01*
X1100440Y6201311D01*
X1116615Y6217486D01*
X1125369Y6238619D01*
Y6261494D01*
X1116615Y6282628D01*
X1100440Y6298803D01*
X1079306Y6307557D01*
D02*
G37*
G36*
X1989989Y6128493D02*
X1967114D01*
X1945981Y6119739D01*
X1933559Y6107318D01*
X1921138Y6119739D01*
X1900004Y6128493D01*
X1877129D01*
X1855995Y6119739D01*
X1839820Y6103564D01*
X1831066Y6082430D01*
Y6059556D01*
X1839820Y6038422D01*
X1855995Y6022247D01*
X1877129Y6013493D01*
X1900004D01*
X1921138Y6022247D01*
X1933559Y6034668D01*
X1945981Y6022247D01*
X1967114Y6013493D01*
X1989989D01*
X2011123Y6022247D01*
X2014128Y6025252D01*
X2028083Y6037428D01*
X2044258Y6021253D01*
X2065392Y6012500D01*
X2088266D01*
X2109400Y6021253D01*
X2125575Y6037428D01*
X2134329Y6058562D01*
Y6081437D01*
X2125575Y6102571D01*
X2109400Y6118746D01*
X2088266Y6127500D01*
X2065392D01*
X2044258Y6118746D01*
X2041253Y6115741D01*
X2027298Y6103564D01*
X2011123Y6119739D01*
X1989989Y6128493D01*
D02*
G37*
G36*
X553937Y5947500D02*
X531063D01*
X509929Y5938746D01*
X504208Y5933026D01*
X498488Y5938746D01*
X477354Y5947500D01*
X454479D01*
X433345Y5938746D01*
X424308Y5929709D01*
X415271Y5938746D01*
X394137Y5947500D01*
X371262D01*
X350128Y5938746D01*
X333953Y5922571D01*
X325200Y5901438D01*
Y5878563D01*
X333953Y5857429D01*
X350128Y5841254D01*
X371262Y5832500D01*
X394137D01*
X415271Y5841254D01*
X424308Y5850291D01*
X433345Y5841254D01*
X454479Y5832500D01*
X477354D01*
X498488Y5841254D01*
X504208Y5846975D01*
X509929Y5841254D01*
X531063Y5832500D01*
X553937D01*
X575071Y5841254D01*
X591246Y5857429D01*
X600000Y5878563D01*
Y5901438D01*
X591246Y5922571D01*
X575071Y5938746D01*
X553937Y5947500D01*
D02*
G37*
G36*
X604997Y4730002D02*
X582123D01*
X560989Y4721248D01*
X544814Y4705073D01*
X536060Y4683939D01*
Y4661064D01*
X544814Y4639931D01*
X560989Y4623756D01*
X582123Y4615002D01*
X604997D01*
X626131Y4623756D01*
X642306Y4639931D01*
X651060Y4661064D01*
Y4683939D01*
X642306Y4705073D01*
X626131Y4721248D01*
X604997Y4730002D01*
D02*
G37*
G36*
X1067277Y4627904D02*
X1044403D01*
X1023269Y4619150D01*
X1007094Y4602975D01*
X998340Y4581841D01*
Y4558966D01*
X1007094Y4537833D01*
X1023269Y4521658D01*
X1044403Y4512904D01*
X1067277D01*
X1088411Y4521658D01*
X1104586Y4537833D01*
X1113340Y4558966D01*
Y4581841D01*
X1104586Y4602975D01*
X1088411Y4619150D01*
X1067277Y4627904D01*
D02*
G37*
G36*
X737077Y4509860D02*
X714203D01*
X693069Y4501106D01*
X676894Y4484931D01*
X668140Y4463797D01*
Y4440923D01*
X676894Y4419789D01*
X693069Y4403614D01*
X714203Y4394860D01*
X737077D01*
X758211Y4403614D01*
X774386Y4419789D01*
X783140Y4440923D01*
Y4463797D01*
X774386Y4484931D01*
X758211Y4501106D01*
X737077Y4509860D01*
D02*
G37*
G36*
X2425625Y4368640D02*
X2402751D01*
X2381617Y4359887D01*
X2365442Y4343712D01*
X2364175Y4343460D01*
X2357264Y4350372D01*
X2336130Y4359126D01*
X2313255D01*
X2292121Y4350372D01*
X2275946Y4334197D01*
X2256630Y4339827D01*
X2247476Y4343619D01*
X2224601D01*
X2203467Y4334865D01*
X2190253Y4321651D01*
X2178623Y4333281D01*
X2157489Y4342034D01*
X2134615D01*
X2113481Y4333281D01*
X2101052Y4320852D01*
X2088623Y4333281D01*
X2067489Y4342034D01*
X2044615D01*
X2023481Y4333281D01*
X2011052Y4320852D01*
X1998623Y4333281D01*
X1977489Y4342034D01*
X1954615D01*
X1933481Y4333281D01*
X1920242Y4320042D01*
X1908638Y4331647D01*
X1887504Y4340401D01*
X1864629D01*
X1843495Y4331647D01*
X1827320Y4315472D01*
X1808828Y4323089D01*
X1798450Y4327388D01*
X1775575D01*
X1754441Y4318634D01*
X1738266Y4302460D01*
X1733512Y4290983D01*
X1712868Y4299534D01*
X1689994D01*
X1668860Y4290780D01*
X1652685Y4274605D01*
X1643931Y4253472D01*
X1642961Y4252824D01*
X1633747Y4256640D01*
X1610873D01*
X1589739Y4247886D01*
X1573564Y4231711D01*
X1564810Y4210578D01*
Y4208407D01*
X1562521Y4201623D01*
X1539647D01*
X1518513Y4192869D01*
X1502338Y4176694D01*
X1493584Y4155560D01*
Y4135597D01*
X1478487D01*
X1457353Y4126843D01*
X1441178Y4110668D01*
X1432424Y4089534D01*
Y4066660D01*
X1416036Y4053960D01*
X1408895Y4051002D01*
X1392720Y4034827D01*
X1383966Y4013694D01*
Y3990819D01*
X1390504Y3975034D01*
X1373814Y3968121D01*
X1357639Y3951946D01*
X1348885Y3930812D01*
Y3907937D01*
X1351778Y3900952D01*
X1352467Y3880689D01*
X1336292Y3864514D01*
X1327538Y3843380D01*
Y3820505D01*
X1336292Y3799372D01*
X1345773Y3789890D01*
X1330578Y3774696D01*
X1321824Y3753562D01*
Y3730687D01*
X1330578Y3709553D01*
X1343007Y3697124D01*
X1330578Y3684695D01*
X1321824Y3663562D01*
Y3640687D01*
X1330578Y3619553D01*
X1343007Y3607124D01*
X1330578Y3594695D01*
X1321824Y3573562D01*
Y3550687D01*
X1330578Y3529553D01*
X1343007Y3517124D01*
X1330578Y3504695D01*
X1321824Y3483561D01*
Y3460687D01*
X1330578Y3439553D01*
X1346753Y3423378D01*
X1367887Y3414624D01*
X1390762D01*
X1411896Y3423378D01*
X1428071Y3439553D01*
X1436824Y3460687D01*
Y3483561D01*
X1428071Y3504695D01*
X1415642Y3517124D01*
X1428071Y3529553D01*
X1436824Y3550687D01*
Y3573562D01*
X1428071Y3594695D01*
X1415642Y3607124D01*
X1428071Y3619553D01*
X1436824Y3640687D01*
Y3663562D01*
X1428071Y3684695D01*
X1415642Y3697124D01*
X1428071Y3709553D01*
X1436824Y3730687D01*
Y3753562D01*
X1428071Y3774696D01*
X1418589Y3784177D01*
X1433784Y3799372D01*
X1442538Y3820505D01*
Y3843380D01*
X1439645Y3850365D01*
X1438956Y3870629D01*
X1455131Y3886804D01*
X1463885Y3907937D01*
Y3930812D01*
X1457347Y3946597D01*
X1474037Y3953510D01*
X1490212Y3969685D01*
X1498966Y3990819D01*
Y4013693D01*
X1515354Y4026393D01*
X1522495Y4029351D01*
X1538670Y4045526D01*
X1547424Y4066659D01*
Y4086623D01*
X1562522D01*
X1583655Y4095377D01*
X1599830Y4111552D01*
X1608584Y4132686D01*
Y4134856D01*
X1610873Y4141640D01*
X1633747D01*
X1654881Y4150394D01*
X1671056Y4166569D01*
X1679810Y4187703D01*
X1680779Y4188351D01*
X1689994Y4184534D01*
X1712868D01*
X1734002Y4193288D01*
X1750177Y4209463D01*
X1754931Y4220939D01*
X1775575Y4212388D01*
X1798450D01*
X1819583Y4221142D01*
X1835758Y4237317D01*
X1854251Y4229699D01*
X1864629Y4225400D01*
X1887504D01*
X1908638Y4234154D01*
X1921876Y4247393D01*
X1933481Y4235788D01*
X1954615Y4227034D01*
X1977489D01*
X1998623Y4235788D01*
X2011052Y4248217D01*
X2023481Y4235788D01*
X2044615Y4227034D01*
X2067489D01*
X2088623Y4235788D01*
X2101052Y4248217D01*
X2113481Y4235788D01*
X2134615Y4227034D01*
X2157489D01*
X2178623Y4235788D01*
X2191837Y4249002D01*
X2203467Y4237373D01*
X2224601Y4228619D01*
X2247476D01*
X2268609Y4237373D01*
X2284784Y4253547D01*
X2304100Y4247918D01*
X2313255Y4244126D01*
X2336130D01*
X2357264Y4252879D01*
X2373438Y4269054D01*
X2374705Y4269306D01*
X2381617Y4262394D01*
X2402751Y4253640D01*
X2425625D01*
X2446759Y4262394D01*
X2462934Y4278569D01*
X2471688Y4299703D01*
Y4322578D01*
X2462934Y4343712D01*
X2446759Y4359887D01*
X2425625Y4368640D01*
D02*
G37*
G36*
X1070736Y4382499D02*
X1047862D01*
X1026728Y4373745D01*
X1010553Y4357570D01*
X1001799Y4336437D01*
Y4313562D01*
X1010553Y4292428D01*
X1026728Y4276253D01*
X1047862Y4267499D01*
X1070736D01*
X1091870Y4276253D01*
X1108045Y4292428D01*
X1116799Y4313562D01*
Y4336437D01*
X1108045Y4357570D01*
X1091870Y4373745D01*
X1070736Y4382499D01*
D02*
G37*
G36*
X2235695Y4168964D02*
X2212821D01*
X2191687Y4160210D01*
X2179258Y4147781D01*
X2166829Y4160210D01*
X2145695Y4168964D01*
X2122820D01*
X2101687Y4160210D01*
X2089258Y4147781D01*
X2076829Y4160210D01*
X2055695Y4168964D01*
X2032820D01*
X2011687Y4160210D01*
X1999258Y4147781D01*
X1986829Y4160210D01*
X1965695Y4168964D01*
X1942820D01*
X1921687Y4160210D01*
X1907795Y4146319D01*
X1896878Y4157236D01*
X1875744Y4165989D01*
X1852870D01*
X1831736Y4157236D01*
X1815561Y4141061D01*
X1794576Y4140686D01*
X1788698Y4143121D01*
X1765823D01*
X1744689Y4134367D01*
X1728514Y4118192D01*
X1726607Y4113588D01*
X1710102Y4099271D01*
X1687228D01*
X1666094Y4090518D01*
X1649919Y4074343D01*
X1641165Y4053209D01*
Y4037202D01*
X1622056D01*
X1600922Y4028448D01*
X1584747Y4012273D01*
X1575993Y3991139D01*
Y3968265D01*
X1577298Y3965115D01*
X1574436Y3960832D01*
X1553302Y3952078D01*
X1537127Y3935903D01*
X1528373Y3914769D01*
Y3891894D01*
X1537127Y3870761D01*
X1537123Y3870740D01*
X1526256Y3866238D01*
X1510081Y3850063D01*
X1501327Y3828929D01*
Y3806055D01*
X1510081Y3784921D01*
X1519179Y3775823D01*
X1503649Y3760293D01*
X1494895Y3739159D01*
Y3716285D01*
X1503649Y3695151D01*
X1516078Y3682722D01*
X1503649Y3670293D01*
X1494895Y3649159D01*
Y3626285D01*
X1503649Y3605151D01*
X1516078Y3592722D01*
X1503649Y3580293D01*
X1494895Y3559159D01*
Y3536285D01*
X1503649Y3515151D01*
X1516078Y3502722D01*
X1503649Y3490293D01*
X1494895Y3469159D01*
Y3446284D01*
X1503649Y3425151D01*
X1519824Y3408976D01*
X1540958Y3400222D01*
X1563832D01*
X1584966Y3408976D01*
X1601141Y3425151D01*
X1609895Y3446284D01*
Y3469159D01*
X1601141Y3490293D01*
X1588712Y3502722D01*
X1601141Y3515151D01*
X1609895Y3536285D01*
Y3559159D01*
X1601141Y3580293D01*
X1588712Y3592722D01*
X1601141Y3605151D01*
X1609895Y3626285D01*
Y3649159D01*
X1601141Y3670293D01*
X1588712Y3682722D01*
X1601141Y3695151D01*
X1609895Y3716285D01*
Y3739159D01*
X1601141Y3760293D01*
X1592043Y3769391D01*
X1607573Y3784921D01*
X1616327Y3806055D01*
Y3828929D01*
X1607573Y3850063D01*
X1607577Y3850084D01*
X1618445Y3854586D01*
X1634620Y3870761D01*
X1643373Y3891894D01*
Y3914769D01*
X1642069Y3917919D01*
X1644931Y3922202D01*
X1666064Y3930956D01*
X1682239Y3947131D01*
X1690993Y3968265D01*
Y3984271D01*
X1710102D01*
X1731236Y3993025D01*
X1747411Y4009200D01*
X1749318Y4013804D01*
X1765823Y4028121D01*
X1788698D01*
X1809832Y4036875D01*
X1826007Y4053049D01*
X1846991Y4053424D01*
X1852870Y4050989D01*
X1875744D01*
X1896878Y4059743D01*
X1910770Y4073635D01*
X1921687Y4062718D01*
X1942820Y4053964D01*
X1965695D01*
X1986829Y4062718D01*
X1999258Y4075147D01*
X2011687Y4062718D01*
X2032820Y4053964D01*
X2055695D01*
X2076829Y4062718D01*
X2089258Y4075147D01*
X2101687Y4062718D01*
X2122820Y4053964D01*
X2145695D01*
X2166829Y4062718D01*
X2179258Y4075147D01*
X2191687Y4062718D01*
X2212821Y4053964D01*
X2235695D01*
X2256829Y4062718D01*
X2273004Y4078893D01*
X2281758Y4100027D01*
Y4122901D01*
X2273004Y4144035D01*
X2256829Y4160210D01*
X2235695Y4168964D01*
D02*
G37*
G36*
X735436Y4257501D02*
X712562D01*
X691428Y4248747D01*
X675253Y4232572D01*
X666499Y4211438D01*
Y4188563D01*
X675253Y4167430D01*
X691428Y4151255D01*
X712562Y4142501D01*
X735436D01*
X756570Y4151255D01*
X772745Y4167430D01*
X781499Y4188563D01*
Y4211438D01*
X772745Y4232572D01*
X756570Y4248747D01*
X735436Y4257501D01*
D02*
G37*
G36*
X582137Y4159340D02*
X559263D01*
X538129Y4150586D01*
X521954Y4134411D01*
X513200Y4113277D01*
Y4090403D01*
X521954Y4069269D01*
X538129Y4053094D01*
X559263Y4044340D01*
X582137D01*
X603271Y4053094D01*
X619446Y4069269D01*
X628200Y4090403D01*
Y4113277D01*
X619446Y4134411D01*
X603271Y4150586D01*
X582137Y4159340D01*
D02*
G37*
G36*
X1170739Y4053012D02*
X1147864D01*
X1126730Y4044259D01*
X1110555Y4028084D01*
X1101801Y4006950D01*
Y3984075D01*
X1110555Y3962941D01*
X1126730Y3946766D01*
X1147864Y3938012D01*
X1170739D01*
X1191872Y3946766D01*
X1208047Y3962941D01*
X1216801Y3984075D01*
Y4006950D01*
X1208047Y4028084D01*
X1191872Y4044259D01*
X1170739Y4053012D01*
D02*
G37*
G36*
X2503557Y4154036D02*
X2480682D01*
X2459548Y4145282D01*
X2443373Y4129107D01*
X2434619Y4107973D01*
Y4085098D01*
X2441468Y4068563D01*
X2441394Y4068211D01*
X2433584Y4054431D01*
X2429122Y4050085D01*
X2414664D01*
X2393530Y4041331D01*
X2377355Y4025156D01*
X2368602Y4004022D01*
Y3981148D01*
X2377355Y3960014D01*
X2393530Y3943839D01*
X2414664Y3935085D01*
X2437539D01*
X2458673Y3943839D01*
X2474848Y3960014D01*
X2483602Y3981148D01*
Y4004022D01*
X2476752Y4020558D01*
X2476827Y4020910D01*
X2484637Y4034690D01*
X2489099Y4039036D01*
X2503557D01*
X2524690Y4047789D01*
X2540865Y4063964D01*
X2549619Y4085098D01*
Y4107973D01*
X2540865Y4129107D01*
X2524690Y4145282D01*
X2503557Y4154036D01*
D02*
G37*
G36*
X421437Y4023167D02*
X398562D01*
X377428Y4014414D01*
X361253Y3998239D01*
X352499Y3977105D01*
Y3954230D01*
X361253Y3933096D01*
X377428Y3916921D01*
X398562Y3908167D01*
X421437D01*
X442570Y3916921D01*
X458745Y3933096D01*
X467499Y3954230D01*
Y3977105D01*
X458745Y3998239D01*
X442570Y4014414D01*
X421437Y4023167D01*
D02*
G37*
G36*
X2142922Y3984994D02*
X2120047D01*
X2098913Y3976240D01*
X2082738Y3960065D01*
X2073984Y3938932D01*
Y3916057D01*
X2082738Y3894923D01*
X2098913Y3878748D01*
X2120047Y3869994D01*
X2142922D01*
X2164055Y3878748D01*
X2180230Y3894923D01*
X2188984Y3916057D01*
Y3938932D01*
X2180230Y3960065D01*
X2164055Y3976240D01*
X2142922Y3984994D01*
D02*
G37*
G36*
X1092872Y3840034D02*
X1069997D01*
X1048864Y3831280D01*
X1032689Y3815105D01*
X1023935Y3793972D01*
Y3771097D01*
X1032689Y3749963D01*
X1048864Y3733788D01*
X1069997Y3725034D01*
X1092872D01*
X1114006Y3733788D01*
X1130181Y3749963D01*
X1138935Y3771097D01*
Y3793972D01*
X1130181Y3815105D01*
X1114006Y3831280D01*
X1092872Y3840034D01*
D02*
G37*
G36*
X1900501Y3703777D02*
X1877626D01*
X1856492Y3695024D01*
X1840317Y3678849D01*
X1831563Y3657715D01*
Y3634840D01*
X1840317Y3613706D01*
X1856492Y3597531D01*
X1877626Y3588777D01*
X1900501D01*
X1921634Y3597531D01*
X1937809Y3613706D01*
X1946563Y3634840D01*
Y3657715D01*
X1937809Y3678849D01*
X1921634Y3695024D01*
X1900501Y3703777D01*
D02*
G37*
G36*
X911436Y3587837D02*
X888561D01*
X867427Y3579083D01*
X851252Y3562908D01*
X842498Y3541774D01*
Y3518900D01*
X851252Y3497766D01*
X867427Y3481591D01*
X888561Y3472837D01*
X911436D01*
X932569Y3481591D01*
X948744Y3497766D01*
X957498Y3518900D01*
Y3541774D01*
X948744Y3562908D01*
X932569Y3579083D01*
X911436Y3587837D01*
D02*
G37*
G36*
X2001438Y3458583D02*
X1978564D01*
X1957430Y3449829D01*
X1941255Y3433654D01*
X1932501Y3412520D01*
Y3389645D01*
X1941255Y3368511D01*
X1957430Y3352336D01*
X1978564Y3343583D01*
X2001438D01*
X2022572Y3352336D01*
X2038747Y3368511D01*
X2047501Y3389645D01*
Y3412520D01*
X2038747Y3433654D01*
X2022572Y3449829D01*
X2001438Y3458583D01*
D02*
G37*
G36*
X671037Y3442022D02*
X648163D01*
X627029Y3433268D01*
X610854Y3417093D01*
X602100Y3395959D01*
Y3373085D01*
X610854Y3351951D01*
X627029Y3335776D01*
X648163Y3327022D01*
X671037D01*
X692171Y3335776D01*
X708346Y3351951D01*
X717100Y3373085D01*
Y3395959D01*
X708346Y3417093D01*
X692171Y3433268D01*
X671037Y3442022D01*
D02*
G37*
G36*
X1092872Y3440803D02*
X1069997D01*
X1048864Y3432049D01*
X1032689Y3415874D01*
X1023935Y3394740D01*
Y3371865D01*
X1032689Y3350731D01*
X1048864Y3334556D01*
X1069997Y3325803D01*
X1092872D01*
X1114006Y3334556D01*
X1130181Y3350731D01*
X1138935Y3371865D01*
Y3394740D01*
X1130181Y3415874D01*
X1114006Y3432049D01*
X1092872Y3440803D01*
D02*
G37*
G36*
X2569985Y3426011D02*
X2547110D01*
X2525976Y3417258D01*
X2509801Y3401083D01*
X2501047Y3379949D01*
Y3357074D01*
X2509801Y3335940D01*
X2525976Y3319765D01*
X2547110Y3311011D01*
X2569985D01*
X2591119Y3319765D01*
X2607293Y3335940D01*
X2616047Y3357074D01*
Y3379949D01*
X2607293Y3401083D01*
X2591119Y3417258D01*
X2569985Y3426011D01*
D02*
G37*
G36*
X488940Y3293686D02*
X466065D01*
X444931Y3284932D01*
X428756Y3268757D01*
X420002Y3247623D01*
Y3224749D01*
X428756Y3203615D01*
X444931Y3187440D01*
X466065Y3178686D01*
X488940D01*
X510073Y3187440D01*
X526248Y3203615D01*
X535002Y3224749D01*
Y3247623D01*
X526248Y3268757D01*
X510073Y3284932D01*
X488940Y3293686D01*
D02*
G37*
G36*
X1630680Y3252957D02*
X1607806D01*
X1586672Y3244203D01*
X1570497Y3228028D01*
X1561743Y3206894D01*
Y3184020D01*
X1570497Y3162886D01*
X1586672Y3146711D01*
X1607806Y3137957D01*
X1630680D01*
X1651814Y3146711D01*
X1667989Y3162886D01*
X1676743Y3184020D01*
Y3206894D01*
X1667989Y3228028D01*
X1651814Y3244203D01*
X1630680Y3252957D01*
D02*
G37*
G36*
X1826438Y3247500D02*
X1803563D01*
X1782429Y3238746D01*
X1766254Y3222571D01*
X1757500Y3201438D01*
Y3178563D01*
X1766254Y3157429D01*
X1782429Y3141254D01*
X1803563Y3132500D01*
X1826438D01*
X1847571Y3141254D01*
X1863746Y3157429D01*
X1872500Y3178563D01*
Y3201438D01*
X1863746Y3222571D01*
X1847571Y3238746D01*
X1826438Y3247500D01*
D02*
G37*
G36*
X2315756Y3233503D02*
X2292881D01*
X2271748Y3224749D01*
X2255573Y3208574D01*
X2246819Y3187440D01*
Y3164565D01*
X2255573Y3143431D01*
X2271748Y3127256D01*
X2292881Y3118503D01*
X2315756D01*
X2336890Y3127256D01*
X2353065Y3143431D01*
X2361819Y3164565D01*
Y3187440D01*
X2353065Y3208574D01*
X2336890Y3224749D01*
X2315756Y3233503D01*
D02*
G37*
G36*
X1170806Y3075820D02*
X1147931D01*
X1126798Y3067066D01*
X1110623Y3050891D01*
X1101869Y3029757D01*
Y3006882D01*
X1110623Y2985748D01*
X1126798Y2969573D01*
X1147931Y2960820D01*
X1170806D01*
X1191940Y2969573D01*
X1208115Y2985748D01*
X1216869Y3006882D01*
Y3029757D01*
X1208115Y3050891D01*
X1191940Y3067066D01*
X1170806Y3075820D01*
D02*
G37*
G36*
X2280493Y3063320D02*
X2257618D01*
X2236484Y3054566D01*
X2220310Y3038391D01*
X2211556Y3017257D01*
Y2994382D01*
X2220310Y2973249D01*
X2236484Y2957074D01*
X2257618Y2948320D01*
X2280493D01*
X2301627Y2957074D01*
X2317802Y2973249D01*
X2326556Y2994382D01*
Y3017257D01*
X2317802Y3038391D01*
X2301627Y3054566D01*
X2280493Y3063320D01*
D02*
G37*
G36*
X488940Y3028675D02*
X466065D01*
X444931Y3019921D01*
X428756Y3003746D01*
X420002Y2982612D01*
Y2959738D01*
X428756Y2938604D01*
X444931Y2922429D01*
X466065Y2913675D01*
X488940D01*
X510073Y2922429D01*
X526248Y2938604D01*
X535002Y2959738D01*
Y2982612D01*
X526248Y3003746D01*
X510073Y3019921D01*
X488940Y3028675D01*
D02*
G37*
G36*
X5016771Y2823300D02*
X4993896D01*
X4972762Y2814546D01*
X4956587Y2798371D01*
X4947833Y2777237D01*
Y2754363D01*
X4956587Y2733229D01*
X4972762Y2717054D01*
X4993896Y2708300D01*
X5016771D01*
X5037905Y2717054D01*
X5054080Y2733229D01*
X5062833Y2754363D01*
Y2777237D01*
X5054080Y2798371D01*
X5037905Y2814546D01*
X5016771Y2823300D01*
D02*
G37*
G36*
X1538249Y2705363D02*
X1515374D01*
X1494241Y2696609D01*
X1478066Y2680434D01*
X1469312Y2659300D01*
Y2636425D01*
X1478066Y2615291D01*
X1494241Y2599116D01*
X1515374Y2590363D01*
X1538249D01*
X1559383Y2599116D01*
X1575558Y2615291D01*
X1584312Y2636425D01*
Y2659300D01*
X1575558Y2680434D01*
X1559383Y2696609D01*
X1538249Y2705363D01*
D02*
G37*
G36*
X3970657Y2513700D02*
X3944010D01*
X3918272Y2506803D01*
X3895195Y2493480D01*
X3882335Y2480620D01*
X3869474Y2493480D01*
X3846398Y2506803D01*
X3820659Y2513700D01*
X3794013D01*
X3768274Y2506803D01*
X3745198Y2493480D01*
X3726356Y2474638D01*
X3713033Y2451562D01*
X3706136Y2425823D01*
Y2399177D01*
X3713033Y2373438D01*
X3726356Y2350362D01*
X3745198Y2331520D01*
X3768274Y2318197D01*
X3794013Y2311300D01*
X3820659D01*
X3846398Y2318197D01*
X3869474Y2331520D01*
X3882335Y2344380D01*
X3895195Y2331520D01*
X3918272Y2318197D01*
X3944010Y2311300D01*
X3970657D01*
X3996395Y2318197D01*
X4019472Y2331520D01*
X4038313Y2350362D01*
X4051637Y2373438D01*
X4058533Y2399177D01*
Y2425823D01*
X4051637Y2451562D01*
X4038313Y2474638D01*
X4019472Y2493480D01*
X3996395Y2506803D01*
X3970657Y2513700D01*
D02*
G37*
G36*
X5075397Y1896200D02*
X5052523D01*
X5031389Y1887446D01*
X5015214Y1871271D01*
X5006460Y1850137D01*
Y1827263D01*
X5015214Y1806129D01*
X5031389Y1789954D01*
X5052523Y1781200D01*
X5075397D01*
X5096531Y1789954D01*
X5112706Y1806129D01*
X5121460Y1827263D01*
Y1850137D01*
X5112706Y1871271D01*
X5096531Y1887446D01*
X5075397Y1896200D01*
D02*
G37*
G36*
X5083017Y1502500D02*
X5060143D01*
X5039009Y1493746D01*
X5022834Y1477571D01*
X5014080Y1456437D01*
Y1433563D01*
X5022834Y1412429D01*
X5039009Y1396254D01*
X5060143Y1387500D01*
X5083017D01*
X5104151Y1396254D01*
X5120326Y1412429D01*
X5129080Y1433563D01*
Y1456437D01*
X5120326Y1477571D01*
X5104151Y1493746D01*
X5083017Y1502500D01*
D02*
G37*
G36*
X5425383Y800971D02*
X5396014Y797104D01*
X5368647Y785769D01*
X5345147Y767736D01*
X5327114Y744235D01*
X5315778Y716869D01*
X5311912Y687500D01*
Y612500D01*
X5315778Y583131D01*
X5327114Y555765D01*
X5345147Y532264D01*
X5368647Y514231D01*
X5396014Y502896D01*
X5425383Y499029D01*
X5454751Y502896D01*
X5482118Y514231D01*
X5505618Y532264D01*
X5523651Y555765D01*
X5534987Y583131D01*
X5538853Y612500D01*
Y687500D01*
X5534987Y716869D01*
X5523651Y744235D01*
X5505618Y767736D01*
X5482118Y785769D01*
X5454751Y797104D01*
X5425383Y800971D01*
D02*
G37*
G36*
X5171383D02*
X5142014Y797104D01*
X5114647Y785769D01*
X5091147Y767736D01*
X5073114Y744235D01*
X5061778Y716869D01*
X5057912Y687500D01*
Y612500D01*
X5061778Y583131D01*
X5073114Y555765D01*
X5091147Y532264D01*
X5114647Y514231D01*
X5142014Y502896D01*
X5171383Y499029D01*
X5200751Y502896D01*
X5228118Y514231D01*
X5251618Y532264D01*
X5269651Y555765D01*
X5280987Y583131D01*
X5284853Y612500D01*
Y687500D01*
X5280987Y716869D01*
X5269651Y744235D01*
X5251618Y767736D01*
X5228118Y785769D01*
X5200751Y797104D01*
X5171383Y800971D01*
D02*
G37*
G36*
X3213091Y6667597D02*
X3190216D01*
X3169083Y6658843D01*
X3152908Y6642668D01*
X3144154Y6621535D01*
Y6598660D01*
X3152908Y6577526D01*
X3169083Y6561351D01*
X3190216Y6552597D01*
X3213091D01*
X3234225Y6561351D01*
X3250400Y6577526D01*
X3259154Y6598660D01*
Y6621535D01*
X3250400Y6642668D01*
X3234225Y6658843D01*
X3213091Y6667597D01*
D02*
G37*
G36*
X3782537Y6656160D02*
X3759663D01*
X3738529Y6647406D01*
X3722354Y6631231D01*
X3713600Y6610097D01*
Y6587223D01*
X3722354Y6566089D01*
X3738529Y6549914D01*
X3759663Y6541160D01*
X3782537D01*
X3803671Y6549914D01*
X3819846Y6566089D01*
X3828600Y6587223D01*
Y6610097D01*
X3819846Y6631231D01*
X3803671Y6647406D01*
X3782537Y6656160D01*
D02*
G37*
G36*
X4709343Y6342500D02*
X4686468D01*
X4665334Y6333747D01*
X4649159Y6317572D01*
X4640405Y6296438D01*
Y6273563D01*
X4649159Y6252429D01*
X4665334Y6236254D01*
X4686468Y6227500D01*
X4709343D01*
X4730476Y6236254D01*
X4746651Y6252429D01*
X4755405Y6273563D01*
Y6296438D01*
X4746651Y6317572D01*
X4730476Y6333747D01*
X4709343Y6342500D01*
D02*
G37*
G36*
X4863942Y6293575D02*
X4841068D01*
X4819934Y6284821D01*
X4803759Y6268646D01*
X4795005Y6247512D01*
Y6224638D01*
X4795488Y6223472D01*
X4789321Y6216474D01*
X4779356Y6210154D01*
X4761443Y6217574D01*
X4738568D01*
X4717434Y6208820D01*
X4701259Y6192645D01*
X4692505Y6171511D01*
Y6148636D01*
X4701259Y6127503D01*
X4717434Y6111328D01*
X4738568Y6102574D01*
X4761443D01*
X4782576Y6111328D01*
X4798751Y6127503D01*
X4807505Y6148636D01*
Y6171511D01*
X4807022Y6172677D01*
X4813189Y6179675D01*
X4823154Y6185995D01*
X4841068Y6178575D01*
X4863942D01*
X4885076Y6187329D01*
X4901251Y6203504D01*
X4910005Y6224638D01*
Y6247512D01*
X4901251Y6268646D01*
X4885076Y6284821D01*
X4863942Y6293575D01*
D02*
G37*
G36*
X4295617Y4588600D02*
X4272743D01*
X4251609Y4579846D01*
X4235434Y4563671D01*
X4226680Y4542537D01*
Y4519663D01*
X4235434Y4498529D01*
X4251609Y4482354D01*
X4272743Y4473600D01*
X4295617D01*
X4316751Y4482354D01*
X4332926Y4498529D01*
X4341680Y4519663D01*
Y4542537D01*
X4332926Y4563671D01*
X4316751Y4579846D01*
X4295617Y4588600D01*
D02*
G37*
G36*
X4475957Y4398100D02*
X4453083D01*
X4431949Y4389346D01*
X4415774Y4373171D01*
X4407020Y4352037D01*
Y4329163D01*
X4415774Y4308029D01*
X4431949Y4291854D01*
X4453083Y4283100D01*
X4475957D01*
X4497091Y4291854D01*
X4513266Y4308029D01*
X4522020Y4329163D01*
Y4352037D01*
X4513266Y4373171D01*
X4497091Y4389346D01*
X4475957Y4398100D01*
D02*
G37*
G36*
X4272757Y4379205D02*
X4249883D01*
X4228749Y4370452D01*
X4212574Y4354277D01*
X4203820Y4333143D01*
Y4310268D01*
X4212574Y4289134D01*
X4228749Y4272959D01*
X4249883Y4264205D01*
X4272757D01*
X4293891Y4272959D01*
X4310066Y4289134D01*
X4318820Y4310268D01*
Y4333143D01*
X4310066Y4354277D01*
X4293891Y4370452D01*
X4272757Y4379205D01*
D02*
G37*
G36*
X4254977Y3544660D02*
X4232103D01*
X4210969Y3535906D01*
X4194794Y3519731D01*
X4186040Y3498597D01*
Y3475723D01*
X4194794Y3454589D01*
X4210969Y3438414D01*
X4232103Y3429660D01*
X4254977D01*
X4276111Y3438414D01*
X4292286Y3454589D01*
X4301040Y3475723D01*
Y3498597D01*
X4292286Y3519731D01*
X4276111Y3535906D01*
X4254977Y3544660D01*
D02*
G37*
G36*
X3973942Y3517553D02*
X3951067D01*
X3929933Y3508799D01*
X3913758Y3492624D01*
X3905004Y3471490D01*
Y3448616D01*
X3913758Y3427482D01*
X3929933Y3411307D01*
X3951067Y3402553D01*
X3973942D01*
X3995075Y3411307D01*
X4011250Y3427482D01*
X4020004Y3448616D01*
Y3471490D01*
X4011250Y3492624D01*
X3995075Y3508799D01*
X3973942Y3517553D01*
D02*
G37*
G36*
X9197817Y6673564D02*
X9174943D01*
X9153809Y6664810D01*
X9137634Y6648635D01*
X9128880Y6627501D01*
Y6604627D01*
X9137634Y6583493D01*
X9153809Y6567318D01*
X9174943Y6558564D01*
X9197817D01*
X9218951Y6567318D01*
X9235126Y6583493D01*
X9243880Y6604627D01*
Y6627501D01*
X9235126Y6648635D01*
X9218951Y6664810D01*
X9197817Y6673564D01*
D02*
G37*
G36*
X10411439Y6117680D02*
X10388565D01*
X10367431Y6108926D01*
X10351256Y6092751D01*
X10342502Y6071617D01*
Y6048743D01*
X10351256Y6027609D01*
X10367431Y6011434D01*
X10388565Y6002680D01*
X10411439D01*
X10432573Y6011434D01*
X10448748Y6027609D01*
X10457502Y6048743D01*
Y6071617D01*
X10448748Y6092751D01*
X10432573Y6108926D01*
X10411439Y6117680D01*
D02*
G37*
G36*
X10411937Y5764620D02*
X10389063D01*
X10367929Y5755866D01*
X10351754Y5739691D01*
X10343000Y5718557D01*
Y5695683D01*
X10351754Y5674549D01*
X10367929Y5658374D01*
X10389063Y5649620D01*
X10411937D01*
X10433071Y5658374D01*
X10449246Y5674549D01*
X10458000Y5695683D01*
Y5718557D01*
X10449246Y5739691D01*
X10433071Y5755866D01*
X10411937Y5764620D01*
D02*
G37*
G36*
X9011437Y6117680D02*
X8988562D01*
X8967429Y6108926D01*
X8951254Y6092751D01*
X8949658Y6088898D01*
X8928010D01*
X8927085Y6091131D01*
X8910910Y6107306D01*
X8889776Y6116060D01*
X8866901D01*
X8845768Y6107306D01*
X8829593Y6091131D01*
X8820839Y6069997D01*
Y6047123D01*
X8829593Y6025989D01*
X8845768Y6009814D01*
X8866901Y6001060D01*
X8889776D01*
X8910910Y6009814D01*
X8927085Y6025989D01*
X8928681Y6029841D01*
X8950329D01*
X8951254Y6027609D01*
X8967429Y6011434D01*
X8988562Y6002680D01*
X9011437D01*
X9032571Y6011434D01*
X9048746Y6027609D01*
X9057500Y6048743D01*
Y6071617D01*
X9048746Y6092751D01*
X9032571Y6108926D01*
X9011437Y6117680D01*
D02*
G37*
G36*
X9246563Y6130891D02*
X9223689D01*
X9202555Y6122137D01*
X9186380Y6105962D01*
X9177626Y6084828D01*
Y6061954D01*
X9186380Y6040820D01*
X9202555Y6024645D01*
X9223689Y6015891D01*
X9246563D01*
X9267697Y6024645D01*
X9283872Y6040820D01*
X9292626Y6061954D01*
Y6084828D01*
X9283872Y6105962D01*
X9267697Y6122137D01*
X9246563Y6130891D01*
D02*
G37*
G36*
X7991863Y5732145D02*
X7968988D01*
X7947854Y5723391D01*
X7931679Y5707217D01*
X7908154Y5702684D01*
X7903074Y5707764D01*
X7881940Y5716517D01*
X7859065D01*
X7837931Y5707764D01*
X7821756Y5691589D01*
X7813002Y5670455D01*
Y5647580D01*
X7821756Y5626446D01*
X7837931Y5610271D01*
X7859065Y5601517D01*
X7881940D01*
X7903074Y5610271D01*
X7919248Y5626446D01*
X7942774Y5630979D01*
X7947854Y5625899D01*
X7968988Y5617145D01*
X7991863D01*
X8012996Y5625899D01*
X8029171Y5642074D01*
X8037925Y5663208D01*
Y5686083D01*
X8029171Y5707216D01*
X8012996Y5723391D01*
X7991863Y5732145D01*
D02*
G37*
G36*
X7736040Y5692621D02*
X7713165D01*
X7692031Y5683867D01*
X7675856Y5667692D01*
X7667103Y5646558D01*
Y5623684D01*
X7675856Y5602550D01*
X7692031Y5586375D01*
X7713165Y5577621D01*
X7736040D01*
X7757174Y5586375D01*
X7773349Y5602550D01*
X7782103Y5623684D01*
Y5646558D01*
X7773349Y5667692D01*
X7757174Y5683867D01*
X7736040Y5692621D01*
D02*
G37*
G36*
X11131438Y5602060D02*
X11108563D01*
X11087429Y5593306D01*
X11071254Y5577131D01*
X11062501Y5555997D01*
Y5533123D01*
X11071254Y5511989D01*
X11087429Y5495814D01*
X11108563Y5487060D01*
X11131438D01*
X11152572Y5495814D01*
X11168747Y5511989D01*
X11177501Y5533123D01*
Y5555997D01*
X11168747Y5577131D01*
X11152572Y5593306D01*
X11131438Y5602060D01*
D02*
G37*
G36*
X7244557Y5203280D02*
X7221683D01*
X7200549Y5194526D01*
X7184374Y5178351D01*
X7175620Y5157217D01*
Y5134343D01*
X7184374Y5113209D01*
X7200549Y5097034D01*
X7221683Y5088280D01*
X7244557D01*
X7265691Y5097034D01*
X7281866Y5113209D01*
X7290620Y5134343D01*
Y5157217D01*
X7281866Y5178351D01*
X7265691Y5194526D01*
X7244557Y5203280D01*
D02*
G37*
G36*
X9934417Y5114380D02*
X9911543D01*
X9890409Y5105626D01*
X9874234Y5089451D01*
X9865480Y5068317D01*
Y5045443D01*
X9874234Y5024309D01*
X9890409Y5008134D01*
X9911543Y4999380D01*
X9934417D01*
X9955551Y5008134D01*
X9971726Y5024309D01*
X9980480Y5045443D01*
Y5068317D01*
X9971726Y5089451D01*
X9955551Y5105626D01*
X9934417Y5114380D01*
D02*
G37*
G36*
X10137617Y5099140D02*
X10114743D01*
X10093609Y5090386D01*
X10077434Y5074211D01*
X10068680Y5053077D01*
Y5030203D01*
X10077434Y5009069D01*
X10093609Y4992894D01*
X10114743Y4984140D01*
X10137617D01*
X10158751Y4992894D01*
X10174926Y5009069D01*
X10183680Y5030203D01*
Y5053077D01*
X10174926Y5074211D01*
X10158751Y5090386D01*
X10137617Y5099140D01*
D02*
G37*
G36*
X9601860Y5100176D02*
X9578985D01*
X9557852Y5091422D01*
X9541677Y5075247D01*
X9532923Y5054114D01*
Y5031239D01*
X9541677Y5010105D01*
X9557852Y4993930D01*
X9578985Y4985176D01*
X9599999D01*
Y4963563D01*
X9608753Y4942429D01*
X9624928Y4926254D01*
X9646062Y4917500D01*
X9668936D01*
X9690070Y4926254D01*
X9706245Y4942429D01*
X9714999Y4963563D01*
Y4986438D01*
X9706245Y5007572D01*
X9690070Y5023747D01*
X9668936Y5032500D01*
X9647923D01*
Y5054114D01*
X9639169Y5075247D01*
X9622994Y5091422D01*
X9601860Y5100176D01*
D02*
G37*
G36*
X8984457Y4913720D02*
X8961583D01*
X8940449Y4904966D01*
X8924274Y4888791D01*
X8915520Y4867657D01*
Y4844783D01*
X8924274Y4823649D01*
X8940449Y4807474D01*
X8961583Y4798720D01*
X8984457D01*
X9005591Y4807474D01*
X9021766Y4823649D01*
X9030520Y4844783D01*
Y4867657D01*
X9021766Y4888791D01*
X9005591Y4904966D01*
X8984457Y4913720D01*
D02*
G37*
G36*
X3489947Y4963662D02*
X3467072D01*
X3445938Y4954908D01*
X3429764Y4938733D01*
X3421010Y4917599D01*
Y4894725D01*
X3429764Y4873591D01*
X3445938Y4857416D01*
X3467072Y4848662D01*
X3489947D01*
X3511081Y4857416D01*
X3527256Y4873591D01*
X3536010Y4894725D01*
Y4917599D01*
X3527256Y4938733D01*
X3511081Y4954908D01*
X3489947Y4963662D01*
D02*
G37*
G36*
X3642837Y4782742D02*
X3619963D01*
X3598829Y4773988D01*
X3582654Y4757813D01*
X3573900Y4736680D01*
Y4713805D01*
X3582654Y4692671D01*
X3598829Y4676496D01*
X3619963Y4667742D01*
X3642837D01*
X3663971Y4676496D01*
X3680146Y4692671D01*
X3688900Y4713805D01*
Y4736680D01*
X3680146Y4757813D01*
X3663971Y4773988D01*
X3642837Y4782742D01*
D02*
G37*
G36*
X3528084Y4367841D02*
X3505209D01*
X3484076Y4359088D01*
X3467901Y4342913D01*
X3459147Y4321779D01*
Y4298904D01*
X3467901Y4277770D01*
X3484076Y4261595D01*
X3505209Y4252841D01*
X3528084D01*
X3549218Y4261595D01*
X3565393Y4277770D01*
X3574147Y4298904D01*
Y4321779D01*
X3565393Y4342913D01*
X3549218Y4359088D01*
X3528084Y4367841D01*
D02*
G37*
G36*
X3350985D02*
X3328110D01*
X3306976Y4359088D01*
X3290801Y4342913D01*
X3282047Y4321779D01*
Y4298904D01*
X3290801Y4277770D01*
X3306976Y4261595D01*
X3328110Y4252841D01*
X3350985D01*
X3372118Y4261595D01*
X3388293Y4277770D01*
X3397047Y4298904D01*
Y4321779D01*
X3388293Y4342913D01*
X3372118Y4359088D01*
X3350985Y4367841D01*
D02*
G37*
G36*
X3174999D02*
X3152125D01*
X3130991Y4359088D01*
X3114816Y4342913D01*
X3106062Y4321779D01*
Y4298904D01*
X3114816Y4277770D01*
X3130991Y4261595D01*
X3152125Y4252841D01*
X3174999D01*
X3196133Y4261595D01*
X3212308Y4277770D01*
X3221062Y4298904D01*
Y4321779D01*
X3212308Y4342913D01*
X3196133Y4359088D01*
X3174999Y4367841D01*
D02*
G37*
G36*
X3528084Y4184059D02*
X3505209D01*
X3484076Y4175305D01*
X3467901Y4159130D01*
X3459147Y4137997D01*
Y4115122D01*
X3467901Y4093988D01*
X3484076Y4077813D01*
X3505209Y4069059D01*
X3528084D01*
X3549218Y4077813D01*
X3565393Y4093988D01*
X3574147Y4115122D01*
Y4137997D01*
X3565393Y4159130D01*
X3549218Y4175305D01*
X3528084Y4184059D01*
D02*
G37*
G36*
X3350985D02*
X3328110D01*
X3306976Y4175305D01*
X3290801Y4159130D01*
X3282047Y4137997D01*
Y4115122D01*
X3290801Y4093988D01*
X3306976Y4077813D01*
X3328110Y4069059D01*
X3350985D01*
X3372118Y4077813D01*
X3388293Y4093988D01*
X3397047Y4115122D01*
Y4137997D01*
X3388293Y4159130D01*
X3372118Y4175305D01*
X3350985Y4184059D01*
D02*
G37*
G36*
X3174999D02*
X3152125D01*
X3130991Y4175305D01*
X3114816Y4159130D01*
X3106062Y4137997D01*
Y4115122D01*
X3114816Y4093988D01*
X3130991Y4077813D01*
X3152125Y4069059D01*
X3174999D01*
X3196133Y4077813D01*
X3212308Y4093988D01*
X3221062Y4115122D01*
Y4137997D01*
X3212308Y4159130D01*
X3196133Y4175305D01*
X3174999Y4184059D01*
D02*
G37*
G36*
X3528084Y4009188D02*
X3505209D01*
X3484076Y4000434D01*
X3467901Y3984259D01*
X3459147Y3963125D01*
Y3940250D01*
X3467901Y3919117D01*
X3484076Y3902942D01*
X3505209Y3894188D01*
X3528084D01*
X3549218Y3902942D01*
X3565393Y3919117D01*
X3574147Y3940250D01*
Y3963125D01*
X3565393Y3984259D01*
X3549218Y4000434D01*
X3528084Y4009188D01*
D02*
G37*
G36*
X3350985D02*
X3328110D01*
X3306976Y4000434D01*
X3290801Y3984259D01*
X3282047Y3963125D01*
Y3940250D01*
X3290801Y3919117D01*
X3306976Y3902942D01*
X3328110Y3894188D01*
X3350985D01*
X3372118Y3902942D01*
X3388293Y3919117D01*
X3397047Y3940250D01*
Y3963125D01*
X3388293Y3984259D01*
X3372118Y4000434D01*
X3350985Y4009188D01*
D02*
G37*
G36*
X3174999D02*
X3152125D01*
X3130991Y4000434D01*
X3114816Y3984259D01*
X3106062Y3963125D01*
Y3940250D01*
X3114816Y3919117D01*
X3130991Y3902942D01*
X3152125Y3894188D01*
X3174999D01*
X3196133Y3902942D01*
X3212308Y3919117D01*
X3221062Y3940250D01*
Y3963125D01*
X3212308Y3984259D01*
X3196133Y4000434D01*
X3174999Y4009188D01*
D02*
G37*
G36*
X3890207Y3841840D02*
X3867332D01*
X3846199Y3833086D01*
X3830024Y3816911D01*
X3821270Y3795777D01*
Y3772903D01*
X3830024Y3751769D01*
X3846199Y3735594D01*
X3867332Y3726840D01*
X3890207D01*
X3911341Y3735594D01*
X3927516Y3751769D01*
X3936270Y3772903D01*
Y3795777D01*
X3927516Y3816911D01*
X3911341Y3833086D01*
X3890207Y3841840D01*
D02*
G37*
G36*
X9510237Y4123780D02*
X9487363D01*
X9466229Y4115026D01*
X9450054Y4098851D01*
X9441300Y4077717D01*
Y4054843D01*
X9450054Y4033709D01*
X9466229Y4017534D01*
X9487363Y4008780D01*
X9510237D01*
X9531371Y4017534D01*
X9547546Y4033709D01*
X9556300Y4054843D01*
Y4077717D01*
X9547546Y4098851D01*
X9531371Y4115026D01*
X9510237Y4123780D01*
D02*
G37*
G36*
X9438934Y3087460D02*
X9416060D01*
X9394926Y3078706D01*
X9378751Y3062531D01*
X9369997Y3041397D01*
Y3018523D01*
X9378751Y2997389D01*
X9394926Y2981214D01*
X9416060Y2972460D01*
X9438934D01*
X9460068Y2981214D01*
X9476243Y2997389D01*
X9484997Y3018523D01*
Y3041397D01*
X9476243Y3062531D01*
X9460068Y3078706D01*
X9438934Y3087460D01*
D02*
G37*
G36*
X9568657Y3016340D02*
X9545783D01*
X9524649Y3007586D01*
X9508474Y2991411D01*
X9499720Y2970277D01*
Y2947403D01*
X9508474Y2926269D01*
X9524649Y2910094D01*
X9545783Y2901340D01*
X9568657D01*
X9589791Y2910094D01*
X9605966Y2926269D01*
X9614720Y2947403D01*
Y2970277D01*
X9605966Y2991411D01*
X9589791Y3007586D01*
X9568657Y3016340D01*
D02*
G37*
G36*
X7893939Y2515137D02*
X7871064D01*
X7849930Y2506383D01*
X7833755Y2490208D01*
X7825001Y2469074D01*
Y2446200D01*
X7833755Y2425066D01*
X7849930Y2408891D01*
X7871064Y2400137D01*
X7893939D01*
X7915073Y2408891D01*
X7931248Y2425066D01*
X7940001Y2446200D01*
Y2469074D01*
X7931248Y2490208D01*
X7915073Y2506383D01*
X7893939Y2515137D01*
D02*
G37*
G36*
X9499894Y2495640D02*
X9477020D01*
X9455886Y2486886D01*
X9439711Y2470711D01*
X9430957Y2449577D01*
Y2426703D01*
X9439711Y2405569D01*
X9455886Y2389394D01*
X9477020Y2380640D01*
X9499894D01*
X9521028Y2389394D01*
X9537203Y2405569D01*
X9545957Y2426703D01*
Y2449577D01*
X9537203Y2470711D01*
X9521028Y2486886D01*
X9499894Y2495640D01*
D02*
G37*
G36*
X7887177Y1997800D02*
X7864303D01*
X7843169Y1989046D01*
X7836350Y1982227D01*
X7823284Y1974940D01*
X7810218Y1982227D01*
X7803399Y1989046D01*
X7782265Y1997800D01*
X7759390D01*
X7738257Y1989046D01*
X7722082Y1972871D01*
X7713328Y1951737D01*
Y1928863D01*
X7722082Y1907729D01*
X7738257Y1891554D01*
X7759390Y1882800D01*
X7782265D01*
X7803399Y1891554D01*
X7810218Y1898373D01*
X7823284Y1905660D01*
X7836350Y1898373D01*
X7843169Y1891554D01*
X7864303Y1882800D01*
X7887177D01*
X7908311Y1891554D01*
X7924486Y1907729D01*
X7933240Y1928863D01*
Y1951737D01*
X7924486Y1972871D01*
X7908311Y1989046D01*
X7887177Y1997800D01*
D02*
G37*
G36*
X8047985Y1999553D02*
X8025110D01*
X8003976Y1990799D01*
X7987801Y1974624D01*
X7979047Y1953490D01*
Y1930615D01*
X7987801Y1909481D01*
X8003976Y1893306D01*
X8025110Y1884552D01*
X8047985D01*
X8069118Y1893306D01*
X8085293Y1909481D01*
X8094047Y1930615D01*
Y1953490D01*
X8085293Y1974624D01*
X8069118Y1990799D01*
X8047985Y1999553D01*
D02*
G37*
G36*
X8449495Y1757498D02*
X8421190D01*
X8393849Y1750172D01*
X8369336Y1736020D01*
X8349321Y1716005D01*
X8335168Y1691492D01*
X8327843Y1664151D01*
Y1635846D01*
X8335168Y1608505D01*
X8349321Y1583992D01*
X8369336Y1563977D01*
X8393849Y1549824D01*
X8421190Y1542498D01*
X8449495D01*
X8476836Y1549824D01*
X8501349Y1563977D01*
X8521364Y1583992D01*
X8535517Y1608505D01*
X8542842Y1635846D01*
Y1664151D01*
X8535517Y1691492D01*
X8521364Y1716005D01*
X8501349Y1736020D01*
X8476836Y1750172D01*
X8449495Y1757498D01*
D02*
G37*
G36*
X8068495D02*
X8040190D01*
X8012849Y1750172D01*
X7988336Y1736020D01*
X7968321Y1716005D01*
X7954168Y1691492D01*
X7946843Y1664151D01*
Y1635846D01*
X7954168Y1608505D01*
X7968321Y1583992D01*
X7988336Y1563977D01*
X8012849Y1549824D01*
X8040190Y1542498D01*
X8068495D01*
X8095836Y1549824D01*
X8120349Y1563977D01*
X8140364Y1583992D01*
X8154517Y1608505D01*
X8161842Y1635846D01*
Y1664151D01*
X8154517Y1691492D01*
X8140364Y1716005D01*
X8120349Y1736020D01*
X8095836Y1750172D01*
X8068495Y1757498D01*
D02*
G37*
G36*
X7687495D02*
X7659190D01*
X7631849Y1750172D01*
X7607336Y1736020D01*
X7587321Y1716005D01*
X7573168Y1691492D01*
X7565843Y1664151D01*
Y1635846D01*
X7573168Y1608505D01*
X7587321Y1583992D01*
X7607336Y1563977D01*
X7631849Y1549824D01*
X7659190Y1542498D01*
X7687495D01*
X7714836Y1549824D01*
X7739349Y1563977D01*
X7759364Y1583992D01*
X7773517Y1608505D01*
X7780842Y1635846D01*
Y1664151D01*
X7773517Y1691492D01*
X7759364Y1716005D01*
X7739349Y1736020D01*
X7714836Y1750172D01*
X7687495Y1757498D01*
D02*
G37*
G36*
X7208997Y1243777D02*
X7186123D01*
X7164989Y1235023D01*
X7148814Y1218848D01*
X7140060Y1197715D01*
Y1174840D01*
X7148814Y1153706D01*
X7164989Y1137531D01*
X7186123Y1128777D01*
X7208997D01*
X7230131Y1137531D01*
X7246306Y1153706D01*
X7255060Y1174840D01*
Y1197715D01*
X7246306Y1218848D01*
X7230131Y1235023D01*
X7208997Y1243777D01*
D02*
G37*
G36*
X7005797Y3972498D02*
X6982923D01*
X6961789Y3963744D01*
X6945614Y3947569D01*
X6936860Y3926435D01*
Y3903560D01*
X6945614Y3882426D01*
X6961789Y3866251D01*
X6982923Y3857497D01*
X7005797D01*
X7026931Y3866251D01*
X7043106Y3882426D01*
X7051860Y3903560D01*
Y3926435D01*
X7043106Y3947569D01*
X7026931Y3963744D01*
X7005797Y3972498D01*
D02*
G37*
G36*
X6870273Y3763100D02*
X6847398D01*
X6826264Y3754346D01*
X6810090Y3738171D01*
X6801336Y3717037D01*
Y3694163D01*
X6810090Y3673029D01*
X6826264Y3656854D01*
X6847398Y3648100D01*
X6870273D01*
X6891407Y3656854D01*
X6907582Y3673029D01*
X6916336Y3694163D01*
Y3717037D01*
X6907582Y3738171D01*
X6891407Y3754346D01*
X6870273Y3763100D01*
D02*
G37*
G36*
X6899117Y3484198D02*
X6876243D01*
X6855109Y3475444D01*
X6838934Y3459269D01*
X6830180Y3438135D01*
Y3415260D01*
X6838934Y3394127D01*
X6855109Y3377952D01*
X6876243Y3369198D01*
X6899117D01*
X6920251Y3377952D01*
X6936426Y3394127D01*
X6945180Y3415260D01*
Y3438135D01*
X6936426Y3459269D01*
X6920251Y3475444D01*
X6899117Y3484198D01*
D02*
G37*
G36*
X10724157Y7597502D02*
X10695851D01*
X10668511Y7590176D01*
X10643998Y7576023D01*
X10623983Y7556008D01*
X10609830Y7531495D01*
X10602504Y7504154D01*
Y7475849D01*
X10609830Y7448508D01*
X10623983Y7423995D01*
X10643998Y7403980D01*
X10668511Y7389828D01*
X10695851Y7382502D01*
X10724157D01*
X10751497Y7389828D01*
X10776010Y7403980D01*
X10796025Y7423995D01*
X10810178Y7448508D01*
X10817504Y7475849D01*
Y7504154D01*
X10810178Y7531495D01*
X10796025Y7556008D01*
X10776010Y7576023D01*
X10751497Y7590176D01*
X10724157Y7597502D01*
D02*
G37*
G36*
X10343157D02*
X10314851D01*
X10287511Y7590176D01*
X10262998Y7576023D01*
X10242983Y7556008D01*
X10228830Y7531495D01*
X10221504Y7504154D01*
Y7475849D01*
X10228830Y7448508D01*
X10242983Y7423995D01*
X10262998Y7403980D01*
X10287511Y7389828D01*
X10314851Y7382502D01*
X10343157D01*
X10370497Y7389828D01*
X10395010Y7403980D01*
X10415025Y7423995D01*
X10429178Y7448508D01*
X10436504Y7475849D01*
Y7504154D01*
X10429178Y7531495D01*
X10415025Y7556008D01*
X10395010Y7576023D01*
X10370497Y7590176D01*
X10343157Y7597502D01*
D02*
G37*
G36*
X9962157D02*
X9933851D01*
X9906511Y7590176D01*
X9881998Y7576023D01*
X9861983Y7556008D01*
X9847830Y7531495D01*
X9840504Y7504154D01*
Y7475849D01*
X9847830Y7448508D01*
X9861983Y7423995D01*
X9881998Y7403980D01*
X9906511Y7389828D01*
X9933851Y7382502D01*
X9962157D01*
X9989497Y7389828D01*
X10014010Y7403980D01*
X10034025Y7423995D01*
X10048178Y7448508D01*
X10055504Y7475849D01*
Y7504154D01*
X10048178Y7531495D01*
X10034025Y7556008D01*
X10014010Y7576023D01*
X9989497Y7590176D01*
X9962157Y7597502D01*
D02*
G37*
G36*
X9581157D02*
X9552851D01*
X9525511Y7590176D01*
X9500998Y7576023D01*
X9480983Y7556008D01*
X9466830Y7531495D01*
X9459504Y7504154D01*
Y7475849D01*
X9466830Y7448508D01*
X9480983Y7423995D01*
X9500998Y7403980D01*
X9525511Y7389828D01*
X9552851Y7382502D01*
X9581157D01*
X9608497Y7389828D01*
X9633010Y7403980D01*
X9653025Y7423995D01*
X9667178Y7448508D01*
X9674504Y7475849D01*
Y7504154D01*
X9667178Y7531495D01*
X9653025Y7556008D01*
X9633010Y7576023D01*
X9608497Y7590176D01*
X9581157Y7597502D01*
D02*
G37*
G36*
X9200157D02*
X9171851D01*
X9144511Y7590176D01*
X9119998Y7576023D01*
X9099983Y7556008D01*
X9085830Y7531495D01*
X9078504Y7504154D01*
Y7475849D01*
X9085830Y7448508D01*
X9099983Y7423995D01*
X9119998Y7403980D01*
X9144511Y7389828D01*
X9171851Y7382502D01*
X9200157D01*
X9227497Y7389828D01*
X9252010Y7403980D01*
X9272025Y7423995D01*
X9286178Y7448508D01*
X9293504Y7475849D01*
Y7504154D01*
X9286178Y7531495D01*
X9272025Y7556008D01*
X9252010Y7576023D01*
X9227497Y7590176D01*
X9200157Y7597502D01*
D02*
G37*
G36*
X8819157D02*
X8790851D01*
X8763511Y7590176D01*
X8738998Y7576023D01*
X8718983Y7556008D01*
X8704830Y7531495D01*
X8697504Y7504154D01*
Y7475849D01*
X8704830Y7448508D01*
X8718983Y7423995D01*
X8738998Y7403980D01*
X8763511Y7389828D01*
X8790851Y7382502D01*
X8819157D01*
X8846497Y7389828D01*
X8871010Y7403980D01*
X8891025Y7423995D01*
X8905178Y7448508D01*
X8912504Y7475849D01*
Y7504154D01*
X8905178Y7531495D01*
X8891025Y7556008D01*
X8871010Y7576023D01*
X8846497Y7590176D01*
X8819157Y7597502D01*
D02*
G37*
G36*
X8438157D02*
X8409851D01*
X8382511Y7590176D01*
X8357998Y7576023D01*
X8337983Y7556008D01*
X8323830Y7531495D01*
X8316504Y7504154D01*
Y7475849D01*
X8323830Y7448508D01*
X8337983Y7423995D01*
X8357998Y7403980D01*
X8382511Y7389828D01*
X8409851Y7382502D01*
X8438157D01*
X8465497Y7389828D01*
X8490010Y7403980D01*
X8510025Y7423995D01*
X8524178Y7448508D01*
X8531504Y7475849D01*
Y7504154D01*
X8524178Y7531495D01*
X8510025Y7556008D01*
X8490010Y7576023D01*
X8465497Y7590176D01*
X8438157Y7597502D01*
D02*
G37*
G36*
X8057157D02*
X8028851D01*
X8001511Y7590176D01*
X7976998Y7576023D01*
X7956983Y7556008D01*
X7942830Y7531495D01*
X7935504Y7504154D01*
Y7475849D01*
X7942830Y7448508D01*
X7956983Y7423995D01*
X7976998Y7403980D01*
X8001511Y7389828D01*
X8028851Y7382502D01*
X8057157D01*
X8084497Y7389828D01*
X8109010Y7403980D01*
X8129025Y7423995D01*
X8143178Y7448508D01*
X8150504Y7475849D01*
Y7504154D01*
X8143178Y7531495D01*
X8129025Y7556008D01*
X8109010Y7576023D01*
X8084497Y7590176D01*
X8057157Y7597502D01*
D02*
G37*
G36*
X7676157D02*
X7647851D01*
X7620511Y7590176D01*
X7595998Y7576023D01*
X7575983Y7556008D01*
X7561830Y7531495D01*
X7554504Y7504154D01*
Y7475849D01*
X7561830Y7448508D01*
X7575983Y7423995D01*
X7595998Y7403980D01*
X7620511Y7389828D01*
X7647851Y7382502D01*
X7676157D01*
X7703497Y7389828D01*
X7728010Y7403980D01*
X7748025Y7423995D01*
X7762178Y7448508D01*
X7769504Y7475849D01*
Y7504154D01*
X7762178Y7531495D01*
X7748025Y7556008D01*
X7728010Y7576023D01*
X7703497Y7590176D01*
X7676157Y7597502D01*
D02*
G37*
G36*
X11152837Y3198350D02*
X11129963D01*
X11108829Y3189596D01*
X11092654Y3173421D01*
X11083900Y3152287D01*
Y3129412D01*
X11092654Y3108279D01*
X11108829Y3092104D01*
X11129963Y3083350D01*
X11152837D01*
X11173971Y3092104D01*
X11190146Y3108279D01*
X11198900Y3129412D01*
Y3152287D01*
X11190146Y3173421D01*
X11173971Y3189596D01*
X11152837Y3198350D01*
D02*
G37*
G36*
X11067257Y3087460D02*
X11044383D01*
X11023249Y3078706D01*
X11007074Y3062531D01*
X10998320Y3041397D01*
Y3018523D01*
X11007074Y2997389D01*
X11023249Y2981214D01*
X11044383Y2972460D01*
X11067257D01*
X11088391Y2981214D01*
X11104566Y2997389D01*
X11113320Y3018523D01*
Y3041397D01*
X11104566Y3062531D01*
X11088391Y3078706D01*
X11067257Y3087460D01*
D02*
G37*
G36*
X11130757Y2813140D02*
X11107883D01*
X11086749Y2804386D01*
X11070574Y2788211D01*
X11061820Y2767077D01*
Y2744203D01*
X11070574Y2723069D01*
X11086749Y2706894D01*
X11107883Y2698140D01*
X11130757D01*
X11151891Y2706894D01*
X11168066Y2723069D01*
X11176820Y2744203D01*
Y2767077D01*
X11168066Y2788211D01*
X11151891Y2804386D01*
X11130757Y2813140D01*
D02*
G37*
G36*
X11271831Y2657280D02*
X11248956D01*
X11227822Y2648526D01*
X11211647Y2632351D01*
X11202894Y2611217D01*
Y2588343D01*
X11211647Y2567209D01*
X11227822Y2551034D01*
X11248956Y2542280D01*
X11271831D01*
X11292965Y2551034D01*
X11309140Y2567209D01*
X11317894Y2588343D01*
Y2611217D01*
X11309140Y2632351D01*
X11292965Y2648526D01*
X11271831Y2657280D01*
D02*
G37*
G36*
X10940473Y2498640D02*
X10917599D01*
X10896465Y2489886D01*
X10880290Y2473711D01*
X10871536Y2452577D01*
Y2429703D01*
X10880290Y2408569D01*
X10896465Y2392394D01*
X10917599Y2383640D01*
X10940473D01*
X10961607Y2392394D01*
X10977782Y2408569D01*
X10986536Y2429703D01*
Y2452577D01*
X10977782Y2473711D01*
X10961607Y2489886D01*
X10940473Y2498640D01*
D02*
G37*
G36*
X11141435Y2494604D02*
X11118561D01*
X11097427Y2485850D01*
X11081252Y2469675D01*
X11072498Y2448541D01*
Y2433102D01*
X11067257Y2429600D01*
X11044383D01*
X11023249Y2420846D01*
X11007074Y2404671D01*
X10998320Y2383537D01*
Y2360663D01*
X11007074Y2339529D01*
X11023249Y2323354D01*
X11044383Y2314600D01*
X11067257D01*
X11088391Y2323354D01*
X11104566Y2339529D01*
X11113320Y2360663D01*
Y2376102D01*
X11118561Y2379604D01*
X11141435D01*
X11162569Y2388357D01*
X11178744Y2404532D01*
X11187498Y2425666D01*
Y2448541D01*
X11178744Y2469675D01*
X11162569Y2485850D01*
X11141435Y2494604D01*
D02*
G37*
G36*
X11355065Y2153302D02*
X11332190D01*
X11311057Y2144548D01*
X11294882Y2128373D01*
X11286128Y2107239D01*
Y2084364D01*
X11294882Y2063230D01*
X11311057Y2047055D01*
X11332190Y2038301D01*
X11355065D01*
X11376199Y2047055D01*
X11392374Y2063230D01*
X11401128Y2084364D01*
Y2107239D01*
X11392374Y2128373D01*
X11376199Y2144548D01*
X11355065Y2153302D01*
D02*
G37*
G36*
X11261136Y1900025D02*
X11238261D01*
X11217127Y1891271D01*
X11200952Y1875096D01*
X11192198Y1853962D01*
Y1831088D01*
X11200952Y1809954D01*
X11217127Y1793779D01*
X11238261Y1785025D01*
X11261136D01*
X11282270Y1793779D01*
X11298445Y1809954D01*
X11307198Y1831088D01*
Y1853962D01*
X11298445Y1875096D01*
X11282270Y1891271D01*
X11261136Y1900025D01*
D02*
G37*
G36*
X11032461Y1449629D02*
X11009586D01*
X10988452Y1440875D01*
X10972277Y1424700D01*
X10963523Y1403566D01*
Y1380691D01*
X10972277Y1359557D01*
X10988452Y1343382D01*
X11009586Y1334629D01*
X11032461D01*
X11053595Y1343382D01*
X11069770Y1359557D01*
X11078523Y1380691D01*
Y1403566D01*
X11069770Y1424700D01*
X11053595Y1440875D01*
X11032461Y1449629D01*
D02*
G37*
G36*
X10268277Y945006D02*
X10245402D01*
X10224268Y936252D01*
X10208093Y920077D01*
X10199340Y898943D01*
Y876069D01*
X10208093Y854935D01*
X10224268Y838760D01*
X10245402Y830006D01*
X10268277D01*
X10289411Y838760D01*
X10305586Y854935D01*
X10314340Y876069D01*
Y898943D01*
X10305586Y920077D01*
X10289411Y936252D01*
X10268277Y945006D01*
D02*
G37*
G36*
X10544492Y617500D02*
X10516187D01*
X10488846Y610175D01*
X10464333Y596022D01*
X10444318Y576007D01*
X10430166Y551494D01*
X10424585Y530668D01*
X10403535Y529226D01*
X10399748Y538368D01*
X10383573Y554543D01*
X10362439Y563297D01*
X10339564D01*
X10318430Y554543D01*
X10302255Y538368D01*
X10293502Y517234D01*
Y494360D01*
X10302255Y473226D01*
X10318430Y457051D01*
X10339564Y448297D01*
X10362439D01*
X10383573Y457051D01*
X10399748Y473226D01*
X10404877Y485610D01*
X10425953Y484228D01*
X10430166Y468507D01*
X10444318Y443994D01*
X10464333Y423979D01*
X10488846Y409826D01*
X10516187Y402501D01*
X10544492D01*
X10571833Y409826D01*
X10596346Y423979D01*
X10616361Y443994D01*
X10630514Y468507D01*
X10637840Y495848D01*
Y524153D01*
X10630514Y551494D01*
X10616361Y576007D01*
X10596346Y596022D01*
X10571833Y610175D01*
X10544492Y617500D01*
D02*
G37*
G36*
X9971909Y564785D02*
X9949034D01*
X9927900Y556031D01*
X9911725Y539856D01*
X9902972Y518723D01*
Y495848D01*
X9911725Y474714D01*
X9927900Y458539D01*
X9949034Y449785D01*
X9971909D01*
X9993043Y458539D01*
X10009218Y474714D01*
X10017972Y495848D01*
Y518723D01*
X10009218Y539856D01*
X9993043Y556031D01*
X9971909Y564785D01*
D02*
G37*
G36*
X10163492Y617500D02*
X10135187D01*
X10107846Y610175D01*
X10083333Y596022D01*
X10063318Y576007D01*
X10049166Y551494D01*
X10041840Y524153D01*
Y495848D01*
X10049166Y468507D01*
X10063318Y443994D01*
X10083333Y423979D01*
X10107846Y409826D01*
X10135187Y402501D01*
X10163492D01*
X10190833Y409826D01*
X10215346Y423979D01*
X10235361Y443994D01*
X10249514Y468507D01*
X10256840Y495848D01*
Y524153D01*
X10249514Y551494D01*
X10235361Y576007D01*
X10215346Y596022D01*
X10190833Y610175D01*
X10163492Y617500D01*
D02*
G37*
G36*
X8611438Y3236980D02*
X8588563D01*
X8567429Y3228226D01*
X8551254Y3212051D01*
X8542501Y3190917D01*
Y3168042D01*
X8551254Y3146908D01*
X8567429Y3130733D01*
X8588563Y3121980D01*
X8611438D01*
X8632572Y3130733D01*
X8648747Y3146908D01*
X8657501Y3168042D01*
Y3190917D01*
X8648747Y3212051D01*
X8632572Y3228226D01*
X8611438Y3236980D01*
D02*
G37*
G36*
X6128933Y3935820D02*
X6106059D01*
X6084925Y3927066D01*
X6068750Y3910891D01*
X6059996Y3889757D01*
Y3866883D01*
X6068750Y3845749D01*
X6084925Y3829574D01*
X6106059Y3820820D01*
X6128933D01*
X6150067Y3829574D01*
X6166242Y3845749D01*
X6174996Y3866883D01*
Y3889757D01*
X6166242Y3910891D01*
X6150067Y3927066D01*
X6128933Y3935820D01*
D02*
G37*
G36*
X6283711Y3789975D02*
X6260836D01*
X6239702Y3781221D01*
X6223527Y3765046D01*
X6214773Y3743912D01*
Y3721038D01*
X6223527Y3699904D01*
X6239702Y3683729D01*
X6260836Y3674975D01*
X6283711D01*
X6304845Y3683729D01*
X6321020Y3699904D01*
X6329773Y3721038D01*
Y3743912D01*
X6321020Y3765046D01*
X6304845Y3781221D01*
X6283711Y3789975D01*
D02*
G37*
G36*
X6169688Y3192499D02*
X6146814D01*
X6125680Y3183745D01*
X6109505Y3167570D01*
X6100751Y3146436D01*
Y3123562D01*
X6109505Y3102428D01*
X6125680Y3086253D01*
X6146814Y3077499D01*
X6169688D01*
X6190822Y3086253D01*
X6206997Y3102428D01*
X6215751Y3123562D01*
Y3146436D01*
X6206997Y3167570D01*
X6190822Y3183745D01*
X6169688Y3192499D01*
D02*
G37*
G36*
X7308057Y3120480D02*
X7285183D01*
X7264049Y3111726D01*
X7247874Y3095551D01*
X7239120Y3074417D01*
Y3051543D01*
X7247874Y3030409D01*
X7264049Y3014234D01*
X7285183Y3005480D01*
X7308057D01*
X7329191Y3014234D01*
X7345366Y3030409D01*
X7354120Y3051543D01*
Y3074417D01*
X7345366Y3095551D01*
X7329191Y3111726D01*
X7308057Y3120480D01*
D02*
G37*
G36*
X6238717Y3050000D02*
X6215843D01*
X6194709Y3041246D01*
X6178534Y3025071D01*
X6169780Y3003937D01*
Y2981063D01*
X6178534Y2959929D01*
X6194709Y2943754D01*
X6215843Y2935000D01*
X6238717D01*
X6259851Y2943754D01*
X6276026Y2959929D01*
X6284780Y2981063D01*
Y3003937D01*
X6276026Y3025071D01*
X6259851Y3041246D01*
X6238717Y3050000D01*
D02*
G37*
G36*
X7243938Y2980780D02*
X7221063D01*
X7199929Y2972026D01*
X7183754Y2955851D01*
X7175000Y2934717D01*
Y2911843D01*
X7183754Y2890709D01*
X7199929Y2874534D01*
X7221063Y2865780D01*
X7243938D01*
X7265071Y2874534D01*
X7281246Y2890709D01*
X7290000Y2911843D01*
Y2934717D01*
X7281246Y2955851D01*
X7265071Y2972026D01*
X7243938Y2980780D01*
D02*
G37*
G36*
X7308941Y2823300D02*
X7286066D01*
X7264933Y2814546D01*
X7248758Y2798371D01*
X7240004Y2777237D01*
Y2754363D01*
X7248758Y2733229D01*
X7264933Y2717054D01*
X7286066Y2708300D01*
X7308941D01*
X7330075Y2717054D01*
X7346250Y2733229D01*
X7355004Y2754363D01*
Y2777237D01*
X7346250Y2798371D01*
X7330075Y2814546D01*
X7308941Y2823300D01*
D02*
G37*
G36*
X6328938Y2757260D02*
X6306063D01*
X6284930Y2748506D01*
X6268755Y2732331D01*
X6260001Y2711197D01*
Y2688323D01*
X6268755Y2667189D01*
X6284930Y2651014D01*
X6306063Y2642260D01*
X6328938D01*
X6350072Y2651014D01*
X6366247Y2667189D01*
X6375001Y2688323D01*
Y2711197D01*
X6366247Y2732331D01*
X6350072Y2748506D01*
X6328938Y2757260D01*
D02*
G37*
G36*
X7374097Y2477860D02*
X7351223D01*
X7330089Y2469106D01*
X7313914Y2452931D01*
X7305160Y2431797D01*
Y2408923D01*
X7313914Y2387789D01*
X7330089Y2371614D01*
X7351223Y2362860D01*
X7374097D01*
X7395231Y2371614D01*
X7411406Y2387789D01*
X7420160Y2408923D01*
Y2431797D01*
X7411406Y2452931D01*
X7395231Y2469106D01*
X7374097Y2477860D01*
D02*
G37*
G36*
X7118268Y2406740D02*
X7095394D01*
X7074260Y2397986D01*
X7058085Y2381811D01*
X7049331Y2360677D01*
Y2337803D01*
X7058085Y2316669D01*
X7074260Y2300494D01*
X7095394Y2291740D01*
X7118268D01*
X7139402Y2300494D01*
X7155577Y2316669D01*
X7164331Y2337803D01*
Y2360677D01*
X7155577Y2381811D01*
X7139402Y2397986D01*
X7118268Y2406740D01*
D02*
G37*
G36*
X7007493Y2316924D02*
X6984618D01*
X6963484Y2308170D01*
X6947309Y2291995D01*
X6938556Y2270861D01*
Y2247986D01*
X6947309Y2226853D01*
X6963484Y2210678D01*
X6984618Y2201924D01*
X7007493D01*
X7028627Y2210678D01*
X7044802Y2226853D01*
X7053556Y2247986D01*
Y2270861D01*
X7044802Y2291995D01*
X7028627Y2308170D01*
X7007493Y2316924D01*
D02*
G37*
G36*
X7141695Y1926546D02*
X7118820D01*
X7097686Y1917792D01*
X7081511Y1901617D01*
X7077499Y1891931D01*
X7069522Y1873588D01*
X7046648D01*
X7025514Y1864834D01*
X7009339Y1848659D01*
X7000585Y1827525D01*
Y1804650D01*
X7009339Y1783517D01*
X7025514Y1767342D01*
X7046648Y1758588D01*
X7069522D01*
X7090656Y1767342D01*
X7106831Y1783517D01*
X7110843Y1793202D01*
X7118820Y1811546D01*
X7141695D01*
X7162828Y1820299D01*
X7179003Y1836474D01*
X7187757Y1857608D01*
Y1880483D01*
X7179003Y1901617D01*
X7162828Y1917792D01*
X7141695Y1926546D01*
D02*
G37*
G36*
X6778610Y1797870D02*
X6755735D01*
X6734601Y1789116D01*
X6718426Y1772941D01*
X6709672Y1751808D01*
Y1728933D01*
X6718426Y1707799D01*
X6734601Y1691624D01*
X6755735Y1682870D01*
X6778610D01*
X6799743Y1691624D01*
X6815918Y1707799D01*
X6824672Y1728933D01*
Y1751808D01*
X6815918Y1772941D01*
X6799743Y1789116D01*
X6778610Y1797870D01*
D02*
G37*
G36*
X6102934Y1760620D02*
X6080059D01*
X6058925Y1751866D01*
X6042750Y1735691D01*
X6033997Y1714557D01*
Y1691682D01*
X6042750Y1670549D01*
X6058925Y1654374D01*
X6080059Y1645620D01*
X6102934D01*
X6124068Y1654374D01*
X6140243Y1670549D01*
X6148997Y1691682D01*
Y1714557D01*
X6140243Y1735691D01*
X6124068Y1751866D01*
X6102934Y1760620D01*
D02*
G37*
G36*
X10354495Y1757498D02*
X10326190D01*
X10298849Y1750172D01*
X10274336Y1736020D01*
X10254321Y1716005D01*
X10240168Y1691492D01*
X10232843Y1664151D01*
Y1635846D01*
X10240168Y1608505D01*
X10254321Y1583992D01*
X10274336Y1563977D01*
X10298849Y1549824D01*
X10326190Y1542498D01*
X10354495D01*
X10381836Y1549824D01*
X10406349Y1563977D01*
X10426364Y1583992D01*
X10440517Y1608505D01*
X10447842Y1635846D01*
Y1664151D01*
X10440517Y1691492D01*
X10426364Y1716005D01*
X10406349Y1736020D01*
X10381836Y1750172D01*
X10354495Y1757498D01*
D02*
G37*
G36*
X9973495D02*
X9945190D01*
X9917849Y1750172D01*
X9893336Y1736020D01*
X9873321Y1716005D01*
X9859168Y1691492D01*
X9851843Y1664151D01*
Y1635846D01*
X9859168Y1608505D01*
X9873321Y1583992D01*
X9893336Y1563977D01*
X9917849Y1549824D01*
X9945190Y1542498D01*
X9973495D01*
X10000836Y1549824D01*
X10025349Y1563977D01*
X10045364Y1583992D01*
X10059517Y1608505D01*
X10066842Y1635846D01*
Y1664151D01*
X10059517Y1691492D01*
X10045364Y1716005D01*
X10025349Y1736020D01*
X10000836Y1750172D01*
X9973495Y1757498D01*
D02*
G37*
G36*
X9309946Y1243777D02*
X9287071D01*
X9265937Y1235023D01*
X9249762Y1218848D01*
X9241008Y1197715D01*
Y1174840D01*
X9249762Y1153706D01*
X9262423Y1141045D01*
X9264855Y1130413D01*
X9262841Y1117166D01*
X9250771Y1105095D01*
X9242017Y1083962D01*
Y1061087D01*
X9250771Y1039953D01*
X9266946Y1023778D01*
X9288080Y1015024D01*
X9310954D01*
X9332088Y1023778D01*
X9348263Y1039953D01*
X9357017Y1061087D01*
Y1083962D01*
X9348263Y1105095D01*
X9335602Y1117756D01*
X9333171Y1128389D01*
X9335184Y1141636D01*
X9347255Y1153706D01*
X9356008Y1174840D01*
Y1197715D01*
X9347255Y1218848D01*
X9331080Y1235023D01*
X9309946Y1243777D01*
D02*
G37*
G36*
X3819010Y1801064D02*
X3796135D01*
X3775001Y1792311D01*
X3758826Y1776136D01*
X3750073Y1755002D01*
Y1732127D01*
X3758826Y1710993D01*
X3775001Y1694818D01*
X3796135Y1686064D01*
X3819010D01*
X3840144Y1694818D01*
X3856319Y1710993D01*
X3865073Y1732127D01*
Y1755002D01*
X3856319Y1776136D01*
X3840144Y1792311D01*
X3819010Y1801064D01*
D02*
G37*
G36*
X3625057Y1659980D02*
X3602183D01*
X3581049Y1651226D01*
X3564874Y1635051D01*
X3556120Y1613917D01*
Y1591043D01*
X3564874Y1569909D01*
X3581049Y1553734D01*
X3602183Y1544980D01*
X3625057D01*
X3646191Y1553734D01*
X3662366Y1569909D01*
X3671120Y1591043D01*
Y1613917D01*
X3662366Y1635051D01*
X3646191Y1651226D01*
X3625057Y1659980D01*
D02*
G37*
G36*
X1793717Y1558380D02*
X1770843D01*
X1749709Y1549626D01*
X1733534Y1533451D01*
X1724780Y1512317D01*
Y1489443D01*
X1733534Y1468309D01*
X1749709Y1452134D01*
X1770843Y1443380D01*
X1793717D01*
X1814851Y1452134D01*
X1831026Y1468309D01*
X1839780Y1489443D01*
Y1512317D01*
X1831026Y1533451D01*
X1814851Y1549626D01*
X1793717Y1558380D01*
D02*
G37*
G36*
X2163597Y1505736D02*
X2140722D01*
X2119589Y1496982D01*
X2103414Y1480807D01*
X2094660Y1459673D01*
Y1436798D01*
X2103414Y1415665D01*
X2119589Y1399490D01*
X2140722Y1390736D01*
X2163597D01*
X2184731Y1399490D01*
X2200906Y1415665D01*
X2209660Y1436798D01*
Y1459673D01*
X2200906Y1480807D01*
X2184731Y1496982D01*
X2163597Y1505736D01*
D02*
G37*
G36*
X2637383Y1369048D02*
X2612619D01*
X2588699Y1362638D01*
X2567253Y1350256D01*
X2549742Y1332746D01*
X2537361Y1311300D01*
X2530951Y1287380D01*
Y1262616D01*
X2537361Y1238696D01*
X2549742Y1217250D01*
X2567253Y1199739D01*
X2588699Y1187357D01*
X2612619Y1180948D01*
X2637383D01*
X2661303Y1187357D01*
X2682749Y1199739D01*
X2700260Y1217250D01*
X2712642Y1238696D01*
X2719051Y1262616D01*
Y1287380D01*
X2712642Y1311300D01*
X2700260Y1332746D01*
X2682749Y1350256D01*
X2661303Y1362638D01*
X2637383Y1369048D01*
D02*
G37*
G36*
X2137379D02*
X2112615D01*
X2088695Y1362638D01*
X2067249Y1350256D01*
X2049738Y1332746D01*
X2037357Y1311300D01*
X2030947Y1287380D01*
Y1262616D01*
X2037357Y1238696D01*
X2049738Y1217250D01*
X2067249Y1199739D01*
X2088695Y1187357D01*
X2112615Y1180948D01*
X2137379D01*
X2161299Y1187357D01*
X2182745Y1199739D01*
X2200256Y1217250D01*
X2212637Y1238696D01*
X2219047Y1262616D01*
Y1287380D01*
X2212637Y1311300D01*
X2200256Y1332746D01*
X2182745Y1350256D01*
X2161299Y1362638D01*
X2137379Y1369048D01*
D02*
G37*
G36*
X1837380D02*
X1812616D01*
X1788696Y1362638D01*
X1767250Y1350256D01*
X1749739Y1332746D01*
X1737357Y1311300D01*
X1730948Y1287380D01*
Y1262616D01*
X1737357Y1238696D01*
X1749739Y1217250D01*
X1767250Y1199739D01*
X1788696Y1187357D01*
X1812616Y1180948D01*
X1837380D01*
X1861300Y1187357D01*
X1882746Y1199739D01*
X1900256Y1217250D01*
X1912638Y1238696D01*
X1919047Y1262616D01*
Y1287380D01*
X1912638Y1311300D01*
X1900256Y1332746D01*
X1882746Y1350256D01*
X1861300Y1362638D01*
X1837380Y1369048D01*
D02*
G37*
G36*
X1337381D02*
X1312617D01*
X1288697Y1362638D01*
X1267251Y1350256D01*
X1249740Y1332746D01*
X1237358Y1311300D01*
X1230949Y1287380D01*
Y1262616D01*
X1237358Y1238696D01*
X1249740Y1217250D01*
X1267251Y1199739D01*
X1288697Y1187357D01*
X1312617Y1180948D01*
X1337381D01*
X1361301Y1187357D01*
X1382747Y1199739D01*
X1400257Y1217250D01*
X1412639Y1238696D01*
X1419048Y1262616D01*
Y1287380D01*
X1412639Y1311300D01*
X1400257Y1332746D01*
X1382747Y1350256D01*
X1361301Y1362638D01*
X1337381Y1369048D01*
D02*
G37*
G36*
X3918940Y1230330D02*
X3896065D01*
X3874932Y1221576D01*
X3858757Y1205401D01*
X3850003Y1184268D01*
Y1161393D01*
X3858757Y1140259D01*
X3874932Y1124084D01*
X3896065Y1115330D01*
X3918940D01*
X3940074Y1124084D01*
X3956249Y1140259D01*
X3965003Y1161393D01*
Y1184268D01*
X3956249Y1205401D01*
X3940074Y1221576D01*
X3918940Y1230330D01*
D02*
G37*
G36*
X3645506Y1110549D02*
X3622632D01*
X3601498Y1101796D01*
X3585323Y1085621D01*
X3576569Y1064487D01*
Y1041612D01*
X3585323Y1020478D01*
X3601498Y1004303D01*
X3622632Y995549D01*
X3645506D01*
X3666640Y1004303D01*
X3682815Y1020478D01*
X3691569Y1041612D01*
Y1064487D01*
X3682815Y1085621D01*
X3666640Y1101796D01*
X3645506Y1110549D01*
D02*
G37*
G36*
X3925452Y1012805D02*
X3902578D01*
X3881444Y1004051D01*
X3865269Y987876D01*
X3856515Y966742D01*
Y943868D01*
X3865269Y922734D01*
X3881444Y906559D01*
X3902578Y897805D01*
X3925452D01*
X3946586Y906559D01*
X3962761Y922734D01*
X3971515Y943868D01*
Y966742D01*
X3962761Y987876D01*
X3946586Y1004051D01*
X3925452Y1012805D01*
D02*
G37*
G36*
X3910111Y865737D02*
X3887236D01*
X3866102Y856984D01*
X3849927Y840809D01*
X3841173Y819675D01*
Y796800D01*
X3849927Y775666D01*
X3866102Y759491D01*
X3887236Y750737D01*
X3910111D01*
X3931245Y759491D01*
X3947420Y775666D01*
X3956173Y796800D01*
Y819675D01*
X3947420Y840809D01*
X3931245Y856984D01*
X3910111Y865737D01*
D02*
G37*
G36*
X2483000Y800971D02*
X2453631Y797105D01*
X2426264Y785769D01*
X2402764Y767736D01*
X2384731Y744236D01*
X2373396Y716869D01*
X2369529Y687500D01*
Y612500D01*
X2373396Y583132D01*
X2384731Y555765D01*
X2402764Y532264D01*
X2426264Y514232D01*
X2453631Y502896D01*
X2483000Y499029D01*
X2512368Y502896D01*
X2539735Y514232D01*
X2563236Y532264D01*
X2581268Y555765D01*
X2592604Y583132D01*
X2596471Y612500D01*
Y687500D01*
X2592604Y716869D01*
X2581268Y744236D01*
X2563236Y767736D01*
X2539735Y785769D01*
X2512368Y797105D01*
X2483000Y800971D01*
D02*
G37*
G36*
X2229000D02*
X2199631Y797105D01*
X2172264Y785769D01*
X2148764Y767736D01*
X2130731Y744236D01*
X2119396Y716869D01*
X2115529Y687500D01*
Y612500D01*
X2119396Y583132D01*
X2130731Y555765D01*
X2148764Y532264D01*
X2172264Y514232D01*
X2199631Y502896D01*
X2229000Y499029D01*
X2258368Y502896D01*
X2285735Y514232D01*
X2309236Y532264D01*
X2327268Y555765D01*
X2338604Y583132D01*
X2342471Y612500D01*
Y687500D01*
X2338604Y716869D01*
X2327268Y744236D01*
X2309236Y767736D01*
X2285735Y785769D01*
X2258368Y797105D01*
X2229000Y800971D01*
D02*
G37*
G36*
X1975000D02*
X1945631Y797105D01*
X1918264Y785769D01*
X1894764Y767736D01*
X1876731Y744236D01*
X1865396Y716869D01*
X1861529Y687500D01*
Y612500D01*
X1865396Y583132D01*
X1876731Y555765D01*
X1894764Y532264D01*
X1918264Y514232D01*
X1945631Y502896D01*
X1975000Y499029D01*
X2004368Y502896D01*
X2031735Y514232D01*
X2055236Y532264D01*
X2073268Y555765D01*
X2084604Y583132D01*
X2088471Y612500D01*
Y687500D01*
X2084604Y716869D01*
X2073268Y744236D01*
X2055236Y767736D01*
X2031735Y785769D01*
X2004368Y797105D01*
X1975000Y800971D01*
D02*
G37*
G36*
X1721000D02*
X1691631Y797105D01*
X1664264Y785769D01*
X1640764Y767736D01*
X1622731Y744236D01*
X1611396Y716869D01*
X1607529Y687500D01*
Y612500D01*
X1611396Y583132D01*
X1622731Y555765D01*
X1640764Y532264D01*
X1664264Y514232D01*
X1691631Y502896D01*
X1721000Y499029D01*
X1750368Y502896D01*
X1777735Y514232D01*
X1801236Y532264D01*
X1819268Y555765D01*
X1830604Y583132D01*
X1834471Y612500D01*
Y687500D01*
X1830604Y716869D01*
X1819268Y744236D01*
X1801236Y767736D01*
X1777735Y785769D01*
X1750368Y797105D01*
X1721000Y800971D01*
D02*
G37*
G36*
X1467000D02*
X1437631Y797105D01*
X1410264Y785769D01*
X1386764Y767736D01*
X1368731Y744236D01*
X1357396Y716869D01*
X1353529Y687500D01*
Y612500D01*
X1357396Y583132D01*
X1368731Y555765D01*
X1386764Y532264D01*
X1410264Y514232D01*
X1437631Y502896D01*
X1467000Y499029D01*
X1496368Y502896D01*
X1523735Y514232D01*
X1547236Y532264D01*
X1565268Y555765D01*
X1576604Y583132D01*
X1580471Y612500D01*
Y687500D01*
X1576604Y716869D01*
X1565268Y744236D01*
X1547236Y767736D01*
X1523735Y785769D01*
X1496368Y797105D01*
X1467000Y800971D01*
D02*
G37*
G36*
X3925452Y603121D02*
X3902578D01*
X3881444Y594368D01*
X3865269Y578193D01*
X3856515Y557059D01*
Y534184D01*
X3865269Y513050D01*
X3881444Y496875D01*
X3902578Y488121D01*
X3925452D01*
X3946586Y496875D01*
X3962761Y513050D01*
X3971515Y534184D01*
Y557059D01*
X3962761Y578193D01*
X3946586Y594368D01*
X3925452Y603121D01*
D02*
G37*
G36*
X3472657Y595176D02*
X3449783D01*
X3428649Y586423D01*
X3412474Y570248D01*
X3403720Y549114D01*
Y526239D01*
X3412474Y505105D01*
X3428649Y488930D01*
X3449783Y480176D01*
X3472657D01*
X3493791Y488930D01*
X3509966Y505105D01*
X3518720Y526239D01*
Y549114D01*
X3509966Y570248D01*
X3493791Y586423D01*
X3472657Y595176D01*
D02*
G37*
G36*
X3274456Y589764D02*
X3251581D01*
X3230447Y581011D01*
X3214272Y564836D01*
X3205519Y543702D01*
Y520827D01*
X3214272Y499693D01*
X3230447Y483518D01*
X3251581Y474764D01*
X3274456D01*
X3295590Y483518D01*
X3311765Y499693D01*
X3320519Y520827D01*
Y543702D01*
X3311765Y564836D01*
X3295590Y581011D01*
X3274456Y589764D01*
D02*
G37*
G36*
X7227652Y678441D02*
X7204777D01*
X7183643Y669688D01*
X7167469Y653513D01*
X7158715Y632379D01*
Y609504D01*
X7167469Y588370D01*
X7183643Y572195D01*
X7204777Y563441D01*
X7227652D01*
X7248786Y572195D01*
X7264961Y588370D01*
X7273715Y609504D01*
Y632379D01*
X7264961Y653513D01*
X7248786Y669688D01*
X7227652Y678441D01*
D02*
G37*
G36*
X7682355Y563297D02*
X7659480D01*
X7638347Y554543D01*
X7622172Y538368D01*
X7613418Y517234D01*
Y494360D01*
X7622172Y473226D01*
X7638347Y457051D01*
X7659480Y448297D01*
X7682355D01*
X7703489Y457051D01*
X7719664Y473226D01*
X7728418Y494360D01*
Y517234D01*
X7719664Y538368D01*
X7703489Y554543D01*
X7682355Y563297D01*
D02*
G37*
%LPD*%
D14*
X4896704Y2047861D02*
G03*
X4890000Y2030825I18297J-17036D01*
G01*
X3949162Y2742678D02*
G03*
X3931485Y2750000I-17678J-17678D01*
G01*
X2994791Y2757249D02*
G03*
X2997395Y2755000I17604J17752D01*
G01*
D02*
G03*
X3012395Y2750000I15000J20000D01*
G01*
X3842826Y6945446D02*
X3876764Y6979384D01*
X3842826Y6758071D02*
Y6945446D01*
X3876764Y6979384D02*
Y7155935D01*
X3663083Y7369617D02*
X3876764Y7155935D01*
X6778460Y2415280D02*
Y3035943D01*
X7261060Y3518543D02*
Y4051040D01*
X6778460Y3035943D02*
X7261060Y3518543D01*
X7280921Y1823575D02*
Y1928863D01*
X6996900Y1539554D02*
X7280921Y1823575D01*
X6692100Y827780D02*
X6754780Y890460D01*
X6762375D01*
X6692100Y637280D02*
Y827780D01*
X3127486Y3383743D02*
X3185248Y3441505D01*
Y3679344D01*
X3006424Y3858168D02*
X3185248Y3679344D01*
X3127486Y3057030D02*
Y3383743D01*
X2930360Y3629400D02*
X3104380D01*
X4050500Y4943760D02*
X4095734Y4898526D01*
Y3762637D02*
Y4898526D01*
X5079200Y3259601D02*
Y6425940D01*
X3775001Y3286500D02*
X3816546Y3244956D01*
X5064555D02*
X5079200Y3259601D01*
X3816546Y3244956D02*
X5064555D01*
X4890000Y1911763D02*
Y2030825D01*
X4896704Y2047861D02*
X5189995Y2362860D01*
X2706840Y3045200D02*
X2994717Y2757322D01*
X3012395Y2750000D02*
X3931485D01*
X3949162Y2742678D02*
X4855680Y1836160D01*
X2994717Y2757322D02*
X2994791Y2757249D01*
X4467814Y5474999D02*
X4832820D01*
X3935682Y4838342D02*
Y4942867D01*
X4467814Y5474999D01*
X3037034Y6237974D02*
Y6724467D01*
X3037077Y6724510D01*
X2927820Y6128760D02*
X3037034Y6237974D01*
X6758140Y1144157D02*
X6958800Y943497D01*
X6362728Y1059466D02*
Y1062723D01*
X6306020Y1002758D02*
X6362728Y1059466D01*
X6306020Y876040D02*
Y1002758D01*
X7202506Y1446573D02*
X7206353Y1442725D01*
X7345145D02*
X7454100Y1551680D01*
X7206353Y1442725D02*
X7345145D01*
X6958800Y679176D02*
X7290256Y347720D01*
X6958800Y679176D02*
Y943497D01*
X7290256Y347720D02*
X8820242D01*
X2960398Y6268646D02*
Y6614075D01*
X2849963Y6724510D02*
X2960398Y6614075D01*
X3065071Y4521921D02*
X3088913Y4498080D01*
X3006412Y4529575D02*
X3014066Y4521921D01*
X3065071D01*
X3088913Y4498080D02*
X3595420D01*
X2792498Y6100745D02*
X2960398Y6268646D01*
X2792498Y5021320D02*
Y6100745D01*
X2927820Y5021320D02*
Y6072880D01*
Y6128760D01*
X9887420Y3766236D02*
Y3932937D01*
X9855833Y3734649D02*
X9887420Y3766236D01*
X5750000Y7139651D02*
X5917849Y7307500D01*
X5750000Y3197360D02*
Y7139651D01*
X2790215Y1500880D02*
X2793237Y1503902D01*
X3336278D01*
X3402797Y1437383D01*
Y1437383D02*
Y1437383D01*
X11091957Y4027384D02*
X11177851D01*
X11025005Y4094336D02*
X11091957Y4027384D01*
X11218115Y4067648D02*
Y4818384D01*
X11177851Y4027384D02*
X11218115Y4067648D01*
X10867430Y5169070D02*
X11218115Y4818384D01*
X8823869Y5577131D02*
X8905178D01*
X8764740Y5518002D02*
X8823869Y5577131D01*
X8764740Y3624320D02*
Y5518002D01*
X7089102Y7370277D02*
X7213249Y7246130D01*
X7087935Y7370277D02*
X7089102D01*
X3466300Y1211320D02*
Y1470522D01*
X3181820Y1755002D02*
X3466300Y1470522D01*
X3306691Y760453D02*
Y1051711D01*
Y760453D02*
X3311759Y755385D01*
X3306691Y1051711D02*
X3466300Y1211320D01*
X3127486Y3057030D02*
X3238376Y2946140D01*
X2821589Y3222551D02*
Y3520629D01*
Y3222551D02*
X2932900Y3111240D01*
X2821589Y3520629D02*
X2930360Y3629400D01*
X10174440Y3078220D02*
Y4081520D01*
X10535120Y4442200D01*
X9960472Y2638192D02*
Y3121918D01*
X9808853Y3273537D02*
X9960472Y3121918D01*
X9798520Y2476240D02*
X9960472Y2638192D01*
X9773120Y2551525D02*
X9798520Y2576925D01*
Y3200272D01*
X9773120Y2542280D02*
Y2551525D01*
X9741136Y3257656D02*
X9798520Y3200272D01*
X9741136Y3257656D02*
Y3386554D01*
X9808853Y3273537D02*
Y3339997D01*
X9855833Y3501250D02*
Y3734649D01*
X9741136Y3386554D02*
X9855833Y3501250D01*
X11007644Y1649998D02*
X11022289Y1664643D01*
X10598620Y2369560D02*
X11022289Y1945890D01*
X10721343Y1649998D02*
X11007644D01*
X11022289Y1664643D02*
Y1945890D01*
X7035183Y6556186D02*
X7131944Y6652947D01*
Y6724740D01*
X6801122Y7147300D02*
X7280756Y6667666D01*
Y6256384D02*
Y6667666D01*
X6047133Y7147300D02*
X6801122D01*
X7213249Y6810318D02*
Y7246130D01*
X7471006Y6349999D02*
Y6552560D01*
X7213249Y6810318D02*
X7471006Y6552560D01*
X7281004Y6813552D02*
Y7490002D01*
Y6813552D02*
X7637041Y6457515D01*
Y6258472D02*
Y6457515D01*
X7280756Y6256384D02*
X7428700Y6108440D01*
X7637041Y6258472D02*
X7926239Y5969273D01*
X8277060D01*
X6306020Y876040D02*
X6333960Y848100D01*
X6887680Y2992500D02*
X6889543Y2990636D01*
X3532370Y3626994D02*
X3960091D01*
X4095734Y3762637D01*
X3486163Y3673201D02*
X3532370Y3626994D01*
X3980807Y3588760D02*
X4840120Y4448072D01*
Y5275000D01*
X3482867Y3588760D02*
X3980807D01*
X3395613Y4639512D02*
Y4675560D01*
X3430514Y4710460D01*
Y4721284D01*
X2927607Y4441679D02*
X3006424Y4362862D01*
Y3858168D02*
Y4362862D01*
X9578343Y774588D02*
Y1649998D01*
X9512336Y708581D02*
X9578343Y774588D01*
X9397558Y302000D02*
X9512336Y416778D01*
Y708581D01*
X9578343Y1649998D02*
X9871184Y1942840D01*
X9047833Y849507D02*
X9387340Y510001D01*
X9047833Y849507D02*
Y1727480D01*
X9194215Y1873862D01*
X8816343Y1051018D02*
X8878344Y989017D01*
X8816343Y1051018D02*
Y1649998D01*
X8878344Y405821D02*
Y989017D01*
X8820242Y347720D02*
X8878344Y405821D01*
X7230580Y302000D02*
X9397558D01*
X9194215Y1873862D02*
Y2031525D01*
X9006340Y1742480D02*
Y1827102D01*
X9119081Y1939843D01*
X9152684Y2073056D02*
X9194215Y2031525D01*
X9000000Y2046020D02*
X9027036Y2073056D01*
X9152684D01*
X9197343Y1649998D02*
Y1653547D01*
X9284710Y2008880D02*
X10569260D01*
X9197343Y1653547D02*
X9270066Y1726270D01*
Y1994235D01*
X9284710Y2008880D01*
X10569260D02*
X10637840Y1940300D01*
X11025005Y4094336D02*
Y4105160D01*
X11150003D02*
Y4482637D01*
X6337097Y4439660D02*
X7035183D01*
X7751280D01*
X7035183D02*
Y6556186D01*
X6034238Y4742519D02*
X6337097Y4439660D01*
X5957554Y4742519D02*
X6034238D01*
X6482900Y4398100D02*
X7007980D01*
X7040080Y4366000D01*
X6430480Y4345680D02*
X6482900Y4398100D01*
X5750000Y3197360D02*
X5879300Y3068060D01*
X10867430Y6265354D02*
X10873219Y6271143D01*
Y6323211D02*
X10900006Y6349999D01*
X10867430Y5169070D02*
Y6265354D01*
X10873219Y6271143D02*
Y6323211D01*
X3470811Y3477387D02*
X3474535Y3481110D01*
X3429263Y3477387D02*
X3470811D01*
X2566349Y4301325D02*
Y4354916D01*
X2817815Y4606382D02*
X3092985D01*
X2566349Y4354916D02*
X2817815Y4606382D01*
X3142737Y4627168D02*
X3190493D01*
X3117099Y4652806D02*
X3142737Y4627168D01*
X2979938Y4652806D02*
X3117099D01*
X3190493Y4627168D02*
X3191112Y4626549D01*
X2948316Y4813550D02*
X3114517Y4979752D01*
X2948316Y4684428D02*
Y4813550D01*
X3114517Y5052395D02*
X3156198Y5094076D01*
X3680735D01*
X3707770Y5067040D02*
X3900640D01*
X3680735Y5094076D02*
X3707770Y5067040D01*
X3114517Y4979752D02*
Y5052395D01*
X2948316Y4684428D02*
X2979938Y4652806D01*
X3092985Y4606382D02*
X3134229Y4565138D01*
X3321239D02*
X3395613Y4639512D01*
X3134229Y4565138D02*
X3321239D01*
X3238376Y2946140D02*
X5892000D01*
X2566349Y4301325D02*
X2706840Y4160834D01*
X2927607Y4441679D02*
Y4446200D01*
X3595420Y4498080D02*
X3935682Y4838342D01*
X5079200Y6425940D02*
Y7424160D01*
X9011120Y2755640D02*
X9493720D01*
X8536140D02*
X9011120D01*
X9006340Y510001D02*
Y1742480D01*
X10125001Y5337316D02*
Y5387080D01*
Y5337316D02*
X10535120Y4927198D01*
Y4442200D02*
Y4927198D01*
X9709620Y5696960D02*
X9925520Y5481060D01*
X8773985Y5696960D02*
X9709620D01*
X8452320Y5375294D02*
X8773985Y5696960D01*
X8452320Y4437120D02*
Y5375294D01*
X8381200Y4366000D02*
X8452320Y4437120D01*
X7040080Y4366000D02*
X8381200D01*
X6430480Y3484620D02*
Y4345680D01*
X6204420Y3258560D02*
X6430480Y3484620D01*
X5991060Y3258560D02*
X6204420D01*
X5950420Y3217920D02*
X5991060Y3258560D01*
X5950420Y3004560D02*
Y3217920D01*
X5892000Y2946140D02*
X5950420Y3004560D01*
X2706840Y3045200D02*
Y4160834D01*
X4855680Y804920D02*
Y1836160D01*
X8842499Y4553960D02*
X8974579Y4686040D01*
X10299819D01*
X10469999Y4856220D01*
X10509720Y2194300D02*
X10763720Y1940300D01*
X8863800Y2194300D02*
X10509720D01*
X8813000Y2143500D02*
X8863800Y2194300D01*
X8813000Y1795520D02*
Y2143500D01*
Y1795520D02*
X8816343Y1649998D01*
X6692100Y637280D02*
X6750520Y578860D01*
X6953720D01*
X7230580Y302000D01*
X9554101Y6483781D02*
X10649999D01*
X9503880Y6433560D02*
X9554101Y6483781D01*
X9503880Y5940800D02*
Y6433560D01*
X9448000Y5884920D02*
X9503880Y5940800D01*
X8538680Y5884920D02*
X9448000D01*
X8485340Y5938260D02*
X8538680Y5884920D01*
X8485340Y5938260D02*
Y6097665D01*
X8233006Y6349999D02*
X8485340Y6097665D01*
X8614006Y6349999D02*
Y6525000D01*
X8860386Y6771380D01*
X10667200D01*
X10774998Y6663582D01*
Y6314180D02*
Y6663582D01*
X9757006Y5900160D02*
Y6349999D01*
X9678266Y5821420D02*
X9757006Y5900160D01*
X8534844Y5821420D02*
X9678266D01*
X8404060Y5690635D02*
X8534844Y5821420D01*
X8404060Y5087360D02*
Y5690635D01*
X8294052Y4977353D02*
X8404060Y5087360D01*
X7696187Y4977353D02*
X8294052D01*
X7492200Y5181340D02*
X7696187Y4977353D01*
X10946600Y4686040D02*
X11150003Y4482637D01*
X10814520Y4686040D02*
X10946600D01*
X10773880Y4726680D02*
X10814520Y4686040D01*
X10773880Y4726680D02*
Y6095125D01*
X10519006Y6349999D02*
X10773880Y6095125D01*
X9000000Y1940300D02*
Y2046020D01*
X7358088Y3344412D02*
Y3921500D01*
Y3344412D02*
X7558240Y3144260D01*
Y2240020D02*
Y3144260D01*
X7454100Y2135880D02*
X7558240Y2240020D01*
X7454100Y1551680D02*
Y2135880D01*
X7708100Y4051040D02*
Y4076440D01*
X7865580Y4233920D01*
X8536140D01*
X8576780Y4274560D01*
Y5434685D01*
X8792121Y5650026D01*
X9652414D01*
X9889960Y5412480D01*
X9971240D01*
X10083000Y5524240D01*
X10273500D01*
X10519880Y5277860D01*
Y5069580D02*
Y5277860D01*
Y5069580D02*
X10667200Y4922260D01*
Y4462520D02*
Y4922260D01*
X10469080Y4264400D02*
X10667200Y4462520D01*
X10469080Y4178040D02*
Y4264400D01*
Y4178040D02*
X10530040Y4117080D01*
X10598620D01*
X10649420Y4066280D01*
X9387040Y6469120D02*
X9501340Y6583420D01*
X8917140Y6469120D02*
X9387040D01*
X8673300Y6225280D02*
X8917140Y6469120D01*
X8513280Y6225280D02*
X8673300D01*
X8340560Y6398000D02*
X8513280Y6225280D01*
X8340560Y6398000D02*
Y6484360D01*
X8294840Y6530080D02*
X8340560Y6484360D01*
X8172920Y6530080D02*
X8294840D01*
X8117040Y6474200D02*
X8172920Y6530080D01*
X8117040Y6265920D02*
Y6474200D01*
Y6265920D02*
X8343100Y6039860D01*
Y5549173D02*
Y6039860D01*
X7816284Y5022356D02*
X8343100Y5549173D01*
X7717224Y5022356D02*
X7816284D01*
X7362660Y5376920D02*
X7717224Y5022356D01*
X7362660Y5376920D02*
Y5943340D01*
X7245820Y6060180D02*
X7362660Y5943340D01*
X6042053Y7142220D02*
X6047133Y7147300D01*
X7428700Y5577468D02*
Y6108440D01*
Y5577468D02*
X7771600Y5234568D01*
X6996900Y1023360D02*
Y1539554D01*
Y1023360D02*
X7055320Y964940D01*
X7408400D01*
X7863340Y510001D01*
X9623260Y3604742D02*
X9828258Y3809740D01*
X9623260Y2730240D02*
Y3604742D01*
X9582620Y2689600D02*
X9623260Y2730240D01*
X8139900Y2689600D02*
X9582620D01*
X7751280Y3078220D02*
X8139900Y2689600D01*
X7517600Y3774180D02*
X8536140Y2755640D01*
X7517600Y3774180D02*
Y4030720D01*
X7469340Y4078980D02*
X7517600Y4030720D01*
X7289000Y4078980D02*
X7469340D01*
X7261060Y4051040D02*
X7289000Y4078980D01*
X9308300Y3392423D02*
X9557499Y3143224D01*
X9308300Y3392423D02*
Y3949440D01*
X9265120Y3992620D02*
X9308300Y3949440D01*
X8842499Y3992620D02*
X9265120D01*
X10933900Y3629400D02*
X11119320Y3443980D01*
X10933900Y3629400D02*
Y3957060D01*
X10941520Y3964680D01*
Y4178040D01*
X10936440Y4183120D02*
X10941520Y4178040D01*
X10534998Y4183120D02*
X10936440D01*
X8764740Y3624320D02*
X8797760Y3591300D01*
Y2969000D02*
Y3591300D01*
Y2969000D02*
X9011120Y2755640D01*
X10598620Y5161020D02*
X10601160Y5158480D01*
X10598620Y5161020D02*
Y5272780D01*
X10535120Y5336280D02*
X10598620Y5272780D01*
X10535120Y5336280D02*
Y5594781D01*
X10649999Y5709660D01*
X10598620Y2369560D02*
Y3921500D01*
X9871184Y1942840D02*
X10520002D01*
X9757880Y2476240D02*
X9798520D01*
X9707080Y2527040D02*
X9757880Y2476240D01*
X9707080Y2527040D02*
Y2627497D01*
D16*
X6372060Y922878D02*
X6512110Y1062928D01*
X6585420Y4084750D02*
Y4333142D01*
X6512110Y4011441D02*
X6585420Y4084750D01*
X6512110Y1062928D02*
Y4011441D01*
D17*
X2100633Y7095542D02*
Y7172234D01*
X2031822Y7241045D02*
X2100633Y7172234D01*
Y7095542D02*
X2166673Y7029501D01*
X2031822Y7241045D02*
Y7242398D01*
X2166673Y6803137D02*
Y7029501D01*
X8040804Y3431280D02*
X8042157D01*
X8046740Y3426698D01*
X8730321D01*
X3194882Y3085519D02*
X3306691D01*
X3474535Y3253363D01*
X3193926Y3084563D02*
X3194882Y3085519D01*
X3875484Y4291027D02*
X3876441Y4291983D01*
X3704550Y4167710D02*
X3827867Y4291027D01*
X3875484D01*
X3704550Y3841241D02*
Y4167710D01*
X3372260Y3806094D02*
X3669403D01*
X3704550Y3841241D01*
X3263923Y3697757D02*
X3372260Y3806094D01*
X3263923Y3564541D02*
Y3697757D01*
X3474535Y3253363D02*
Y3481110D01*
X3347354D02*
X3474535D01*
X3263923Y3564541D02*
X3347354Y3481110D01*
D157*
X3118500Y3462496D02*
X3122412D01*
X2955760Y3299756D02*
X3118500Y3462496D01*
X2955760Y3187440D02*
Y3299756D01*
X2166673Y6803137D02*
X2247549D01*
X7397837Y1072524D02*
X7775003D01*
X8149080D01*
X11287573Y5321350D02*
X11359796Y5393573D01*
X10807510Y6849153D02*
X11359796Y6296867D01*
Y5393573D02*
Y6296867D01*
X6573745Y2365522D02*
X6678351Y2260915D01*
X6573745Y2365522D02*
Y2535003D01*
X6657306Y2618564D01*
Y2900455D01*
X11287573Y4341900D02*
Y5321350D01*
X9947479Y4325721D02*
X10076255D01*
Y3718812D02*
Y4325721D01*
X10050833Y3693390D02*
X10076255Y3718812D01*
X10050833Y3590621D02*
Y3693390D01*
X10047963Y3587751D02*
X10050833Y3590621D01*
X10047963Y2784319D02*
Y3587751D01*
Y2784319D02*
X10883553Y1948730D01*
Y1896433D02*
Y1948730D01*
X10841257Y1854137D02*
X10883553Y1896433D01*
X10722673Y1854137D02*
X10841257D01*
X10611016Y1742480D02*
X10722673Y1854137D01*
X10569386Y1742480D02*
X10611016D01*
X10540097Y1713190D02*
X10569386Y1742480D01*
X10540097Y1593211D02*
Y1713190D01*
Y1593211D02*
X10940473Y1192834D01*
Y1117166D02*
Y1192834D01*
X10898702Y1075394D02*
X10940473Y1117166D01*
X10827870Y1075394D02*
X10898702D01*
X10825000Y1072524D02*
X10827870Y1075394D01*
X10447842Y1072524D02*
X10825000D01*
X10050000D02*
X10447842D01*
X9673054D02*
X10050000D01*
X8149080D02*
X8521837D01*
X7375004Y6824720D02*
X7375733Y6825448D01*
X7758612D01*
X7759341Y6826177D01*
X7760069Y6825448D01*
X8138155D01*
X8138884Y6824720D01*
X8519884D01*
X8912504D01*
X9286178D01*
X9667178D01*
X10048178D01*
X10425001D01*
X10429060D01*
X10453493Y6849153D01*
X10807510D01*
X6889543Y2594366D02*
Y2990636D01*
D162*
X5171383Y650000D02*
D03*
X5425383D02*
D03*
X1975000Y650000D02*
D03*
X2229000D02*
D03*
X2483000D02*
D03*
X1721000D02*
D03*
X1467000D02*
D03*
D163*
X1337506Y7077501D02*
D03*
Y7277500D02*
D03*
D164*
X651300Y6787500D02*
D03*
Y6533500D02*
D03*
D165*
X1324999Y1274998D02*
D03*
X1824998D02*
D03*
X2625001D02*
D03*
X2124997D02*
D03*
X2600002Y1749998D02*
D03*
X2099998D02*
D03*
X1324999D02*
D03*
X1824998D02*
D03*
D166*
X10149340Y510001D02*
D03*
X9959343Y1649998D02*
D03*
X9578343D02*
D03*
X9768340Y510001D02*
D03*
X8816343Y1649998D02*
D03*
X9006340Y510001D02*
D03*
X8625340D02*
D03*
X8435343Y1649998D02*
D03*
X8054343D02*
D03*
X8244340Y510001D02*
D03*
X7863340D02*
D03*
X7673343Y1649998D02*
D03*
X10340343D02*
D03*
X10530340Y510001D02*
D03*
X7292343Y1649998D02*
D03*
X7482340Y510001D02*
D03*
X9387340D02*
D03*
X9197343Y1649998D02*
D03*
X10911340Y510001D02*
D03*
X10721343Y1649998D02*
D03*
X9186004Y7490002D02*
D03*
X9376006Y6349999D02*
D03*
X8995006D02*
D03*
X8805004Y7490002D02*
D03*
X8424004D02*
D03*
X8614006Y6349999D02*
D03*
X9948004Y7490002D02*
D03*
X10138006Y6349999D02*
D03*
X10519006D02*
D03*
X10329004Y7490002D02*
D03*
X10710004D02*
D03*
X10900006Y6349999D02*
D03*
X7662004Y7490002D02*
D03*
X7852006Y6349999D02*
D03*
X8233006D02*
D03*
X8043004Y7490002D02*
D03*
X9757006Y6349999D02*
D03*
X9567004Y7490002D02*
D03*
X7471006Y6349999D02*
D03*
X7281004Y7490002D02*
D03*
D167*
X11500000Y499998D02*
D03*
Y7499999D02*
D03*
X500002D02*
D03*
Y499998D02*
D03*
D168*
X3192501Y1428647D02*
D03*
X3842826Y6758071D02*
D03*
X3619620Y6902197D02*
D03*
X3773890Y7065814D02*
D03*
X4750005Y6160074D02*
D03*
X4697905Y6285000D02*
D03*
X4551477Y6803137D02*
D03*
X6272273Y3732475D02*
D03*
X6785151Y3139897D02*
D03*
X7280921Y1928863D02*
D03*
X7130257Y1869046D02*
D03*
X7245820Y6060180D02*
D03*
X7495502Y6070680D02*
D03*
X7753785Y3924043D02*
D03*
X6762375Y890460D02*
D03*
X6762418Y1020375D02*
D03*
X3122412Y3462496D02*
D03*
X3104380Y3629400D02*
D03*
X3023923Y3252440D02*
D03*
X1990001Y3401083D02*
D03*
X2634374Y3757204D02*
D03*
X1889063Y3646277D02*
D03*
X2269056Y3005820D02*
D03*
X1059299Y4324999D02*
D03*
X4050500Y4943760D02*
D03*
X5005333Y2765800D02*
D03*
X1081435Y3383303D02*
D03*
Y3782534D02*
D03*
X1159301Y3995512D02*
D03*
X1893940Y6711712D02*
D03*
X2051008D02*
D03*
X1974762Y6710330D02*
D03*
X382700Y5890000D02*
D03*
X542500D02*
D03*
X465917D02*
D03*
X2031822Y7242398D02*
D03*
X899998Y3530337D02*
D03*
X1619243Y3195457D02*
D03*
X1815000Y3190000D02*
D03*
X5189995Y2362860D02*
D03*
X5012502Y2360677D02*
D03*
X4890000Y1911763D02*
D03*
X5063960Y1838700D02*
D03*
X1159369Y3018320D02*
D03*
X4157691Y4608030D02*
D03*
X3478510Y4906162D02*
D03*
X4522142Y4030234D02*
D03*
X4735001Y4423211D02*
D03*
X4464520Y4340600D02*
D03*
X4261320Y4321705D02*
D03*
X4599140Y1312000D02*
D03*
X4929703Y3302501D02*
D03*
X3037077Y6724510D02*
D03*
X2166673Y6803137D02*
D03*
X2247549D02*
D03*
X6996056Y2259424D02*
D03*
X8878344Y1940300D02*
D03*
X7362660Y2420360D02*
D03*
X6758140Y1144157D02*
D03*
X6362728Y1062723D02*
D03*
X6390521Y1144157D02*
D03*
X6059640Y987876D02*
D03*
X6072340Y1117340D02*
D03*
X6369416Y634089D02*
D03*
X6358874Y764089D02*
D03*
X6767172Y1740370D02*
D03*
X6372060Y922878D02*
D03*
X7118820Y1052875D02*
D03*
X7202506Y1446573D02*
D03*
X6372060Y1422556D02*
D03*
X7271932Y1351087D02*
D03*
X7216215Y620941D02*
D03*
X5650700Y1755002D02*
D03*
X7396318Y1186277D02*
D03*
X7365200Y1940300D02*
D03*
X7397837Y1072524D02*
D03*
X7197560Y1186277D02*
D03*
X7060400Y830320D02*
D03*
X7058085Y1816088D02*
D03*
X7106831Y2349240D02*
D03*
X7509980Y1940300D02*
D03*
X7614120D02*
D03*
X8040804Y3431280D02*
D03*
X6785729Y760460D02*
D03*
X7046648Y692779D02*
D03*
X6754755Y502471D02*
D03*
X6785151Y632379D02*
D03*
X1067869Y6250057D02*
D03*
X1413611D02*
D03*
X2076829Y6070000D02*
D03*
X1888566Y6070993D02*
D03*
X2247549Y6611750D02*
D03*
X3201654Y6610097D02*
D03*
X2849963Y6724510D02*
D03*
X1978552Y6070993D02*
D03*
X2247549Y6522460D02*
D03*
X3006412Y4529575D02*
D03*
X3174747Y4702108D02*
D03*
X3191112Y4626549D02*
D03*
X3274829Y4807635D02*
D03*
X3175691Y5021320D02*
D03*
X3032524D02*
D03*
X2792498D02*
D03*
X2927820D02*
D03*
X2414188Y4311140D02*
D03*
X2324692Y4301626D02*
D03*
X2236038Y4286119D02*
D03*
X2146052Y4284534D02*
D03*
X2056052D02*
D03*
X1966052D02*
D03*
X1876067Y4282901D02*
D03*
X1787012Y4269888D02*
D03*
X1701431Y4242034D02*
D03*
X1622310Y4199140D02*
D03*
X1551084Y4144123D02*
D03*
X1489924Y4078097D02*
D03*
X1441466Y4002256D02*
D03*
X1406385Y3919375D02*
D03*
X1385038Y3831943D02*
D03*
X1379324Y3742124D02*
D03*
Y3652124D02*
D03*
Y3562124D02*
D03*
Y3472124D02*
D03*
X1552395Y3457722D02*
D03*
Y3547722D02*
D03*
Y3637722D02*
D03*
Y3727722D02*
D03*
X1558827Y3817492D02*
D03*
X1585873Y3903332D02*
D03*
X1633493Y3979702D02*
D03*
X1698665Y4041771D02*
D03*
X1777261Y4085621D02*
D03*
X1864307Y4108489D02*
D03*
X1954258Y4111464D02*
D03*
X2044258D02*
D03*
X2134258D02*
D03*
X2224258D02*
D03*
X2492119Y4096536D02*
D03*
X2131484Y3927494D02*
D03*
X3516647Y4126559D02*
D03*
X3339547D02*
D03*
X3163562D02*
D03*
X3516647Y3951688D02*
D03*
X3339547D02*
D03*
X3163562D02*
D03*
Y4310341D02*
D03*
X3339547D02*
D03*
X3516647D02*
D03*
X2884859Y4107947D02*
D03*
X477502Y3236186D02*
D03*
X409999Y3965667D02*
D03*
X352501Y3596520D02*
D03*
X659600Y3384522D02*
D03*
X477502Y2971175D02*
D03*
X365001Y2855353D02*
D03*
Y2638005D02*
D03*
X1825003Y7209266D02*
D03*
X3250400Y7571480D02*
D03*
X9235126Y6073391D02*
D03*
X725640Y4452360D02*
D03*
X6158251Y3134999D02*
D03*
X3914015Y955305D02*
D03*
X3304459Y7390455D02*
D03*
X2988500Y337560D02*
D03*
X9887420Y3932937D02*
D03*
X6042053Y7242500D02*
D03*
X5917849Y7307500D02*
D03*
X3293580Y7260455D02*
D03*
X2790215Y1500880D02*
D03*
X11287573Y4341900D02*
D03*
X8905178Y5577131D02*
D03*
X8424004Y6466580D02*
D03*
X7751280Y4439660D02*
D03*
X7297504Y2765800D02*
D03*
X7087935Y7370277D02*
D03*
X3096494Y1814340D02*
D03*
X3584403Y1775002D02*
D03*
X3181820Y1755002D02*
D03*
X3402797Y1437383D02*
D03*
X3263019Y532264D02*
D03*
X3311759Y755385D02*
D03*
X3424999Y753596D02*
D03*
X3461220Y537676D02*
D03*
X2861500Y337560D02*
D03*
X3914015Y545621D02*
D03*
X3898673Y808237D02*
D03*
X3907503Y1172830D02*
D03*
X3634069Y1053049D02*
D03*
X3957333Y1511252D02*
D03*
X3753989Y3507051D02*
D03*
X3355142Y3673201D02*
D03*
X2900002Y3392220D02*
D03*
X2754998Y3397022D02*
D03*
X2426102Y3992585D02*
D03*
X2558547Y3368511D02*
D03*
X2557595Y3252505D02*
D03*
X2304319Y3176003D02*
D03*
X3245142Y3163721D02*
D03*
X3193926Y3084563D02*
D03*
X6933139Y4804674D02*
D03*
X6808578Y4724998D02*
D03*
X6438100Y3342314D02*
D03*
X6289401Y4943760D02*
D03*
X8829993Y4881623D02*
D03*
X6913573Y6163414D02*
D03*
X8600001Y3179480D02*
D03*
X8245000Y3295004D02*
D03*
X7980425Y5674645D02*
D03*
X8858752Y5227341D02*
D03*
X6676860Y2259424D02*
D03*
X10174440Y3078220D02*
D03*
X10998320Y1186277D02*
D03*
X10911340Y750000D02*
D03*
X11021023Y1392129D02*
D03*
X11343628Y2095801D02*
D03*
X11249698Y1842525D02*
D03*
X11128869Y1942840D02*
D03*
X11260394Y2599780D02*
D03*
X11141400Y3140850D02*
D03*
X11119320Y2755640D02*
D03*
X9740549Y3096000D02*
D03*
X9887420Y2966460D02*
D03*
X9808853Y3339997D02*
D03*
X7131944Y6724740D02*
D03*
X5250000Y7026764D02*
D03*
X2413564Y6879058D02*
D03*
X2498560Y7083800D02*
D03*
X2510485Y6879058D02*
D03*
X2095000Y7467822D02*
D03*
X2340430Y6879058D02*
D03*
X2959248Y6944187D02*
D03*
X2980172Y7407503D02*
D03*
X3517501Y6732572D02*
D03*
X3628374Y6803137D02*
D03*
X10807510Y6849153D02*
D03*
X6333960Y848100D02*
D03*
X6891407Y2592503D02*
D03*
X10256840Y887506D02*
D03*
X7759341Y6826177D02*
D03*
X6052020Y3947840D02*
D03*
X6106059Y4151236D02*
D03*
X3859251Y4019790D02*
D03*
X3985321Y4115963D02*
D03*
X4455005Y3617149D02*
D03*
X3878770Y3784340D02*
D03*
X3631400Y4725242D02*
D03*
X4284180Y4531100D02*
D03*
X3785904Y4151236D02*
D03*
X3876441Y4291983D02*
D03*
X3355142Y3594820D02*
D03*
X3482867Y3588760D02*
D03*
X3111234Y2957498D02*
D03*
X3854840Y4555243D02*
D03*
X4029642Y4302028D02*
D03*
X3321112Y4646289D02*
D03*
X3430514Y4721284D02*
D03*
X3486163Y3673201D02*
D03*
X3587496Y4570562D02*
D03*
X3502468Y4669382D02*
D03*
X6887680Y2992500D02*
D03*
X8906166Y1072524D02*
D03*
X10050000D02*
D03*
X10447842D02*
D03*
X10825000D02*
D03*
X7583474Y1186277D02*
D03*
X7775494Y1191249D02*
D03*
X7775003Y1072524D02*
D03*
X7965058Y1186277D02*
D03*
X8146300D02*
D03*
X8523418D02*
D03*
X8906166D02*
D03*
X9298508D02*
D03*
X9674027D02*
D03*
X10444318D02*
D03*
X10050000D02*
D03*
X10825000D02*
D03*
X10635321D02*
D03*
X9108058D02*
D03*
X8716399D02*
D03*
X8340560D02*
D03*
X9483560D02*
D03*
X9860528D02*
D03*
X9960472Y507285D02*
D03*
X9583504Y495848D02*
D03*
X10351002Y505797D02*
D03*
X8440504Y495848D02*
D03*
X8816343Y505797D02*
D03*
X9208002D02*
D03*
X8065002D02*
D03*
X7670918D02*
D03*
X7297504Y495848D02*
D03*
X9119081Y1939843D02*
D03*
X10929036Y2441140D02*
D03*
X10637840Y1940300D02*
D03*
X10745002Y4000240D02*
D03*
X10999940Y3885160D02*
D03*
X11150003Y4105160D02*
D03*
X11025005D02*
D03*
X8519884Y6824720D02*
D03*
X10425001D02*
D03*
X10048178D02*
D03*
X9667178D02*
D03*
X9286178D02*
D03*
X8912504D02*
D03*
X8138884D02*
D03*
X7375004D02*
D03*
X9673054Y1072524D02*
D03*
X9299517D02*
D03*
X8521837D02*
D03*
X8149080D02*
D03*
X4210520Y7444480D02*
D03*
X3654883Y7535781D02*
D03*
X3800000Y7368414D02*
D03*
X3663083Y7369617D02*
D03*
X4099999Y7014080D02*
D03*
X4197820Y7062689D02*
D03*
X4323462D02*
D03*
X3676671Y7064999D02*
D03*
X3570440Y7130783D02*
D03*
X4859999Y677000D02*
D03*
X3807573Y1743564D02*
D03*
X4777176Y1630003D02*
D03*
X3879467Y4109537D02*
D03*
X3834165Y3943497D02*
D03*
X3747966Y4554382D02*
D03*
X5957554Y4742519D02*
D03*
X6697998Y4503160D02*
D03*
X6657306Y2900455D02*
D03*
X6858836Y3705600D02*
D03*
X6392934Y4498962D02*
D03*
X6524998Y4504437D02*
D03*
X6509499Y4854613D02*
D03*
X10125001Y5387080D02*
D03*
X8730321Y3426698D02*
D03*
X7637041Y6096845D02*
D03*
X10957501Y6201143D02*
D03*
X7204086Y6637043D02*
D03*
X6753060Y6911080D02*
D03*
Y6472719D02*
D03*
X7062940Y6667240D02*
D03*
X7724603Y5635121D02*
D03*
X9487168Y1848659D02*
D03*
X3908159Y677000D02*
D03*
X8878339Y6058560D02*
D03*
X4985220Y6543387D02*
D03*
X4984458Y7026764D02*
D03*
X9947479Y4325721D02*
D03*
X10076255D02*
D03*
X9919249Y3577721D02*
D03*
X10047963Y3587751D02*
D03*
X4099999Y6841047D02*
D03*
X2641249Y4525712D02*
D03*
X3255513Y4685000D02*
D03*
X3004506Y4722372D02*
D03*
X3474535Y3481110D02*
D03*
X3595840Y3361894D02*
D03*
X3665090Y3690360D02*
D03*
X2731095Y4294444D02*
D03*
X2786676Y4229443D02*
D03*
X2855867Y4180930D02*
D03*
X2927607Y4446200D02*
D03*
X2647666Y4346600D02*
D03*
X2718036Y4401764D02*
D03*
X5079200Y7424160D02*
D03*
X3775001Y3286500D02*
D03*
X5079200Y6425940D02*
D03*
X6117496Y3878320D02*
D03*
X5000460Y1058000D02*
D03*
X10469999Y5562340D02*
D03*
X1782280Y1500880D02*
D03*
X2152160Y1448236D02*
D03*
X9773120Y2542280D02*
D03*
X3291040Y6995002D02*
D03*
X2280120Y7551160D02*
D03*
X4840120Y5275000D02*
D03*
X3900640Y5067040D02*
D03*
X9925520Y5481060D02*
D03*
X4855680Y804920D02*
D03*
X6042053Y7142220D02*
D03*
X10600002Y5566038D02*
D03*
X8992822Y5549640D02*
D03*
X7771600Y5234568D02*
D03*
X11055820Y2372100D02*
D03*
X9488457Y2438140D02*
D03*
X6676860Y2379720D02*
D03*
X6002881Y1572879D02*
D03*
X7104428Y7177780D02*
D03*
X9557220Y2958840D02*
D03*
X10469999Y4856220D02*
D03*
X10763720Y1940300D02*
D03*
X10489400Y3927494D02*
D03*
X10400002Y6060180D02*
D03*
X10649999Y6483781D02*
D03*
X6758140Y7081260D02*
D03*
X10774998Y6314180D02*
D03*
X7492200Y5181340D02*
D03*
X6753558Y6306062D02*
D03*
X9364180Y1940300D02*
D03*
X7770828D02*
D03*
X9000000D02*
D03*
X8036547Y1942053D02*
D03*
X11129998Y2437104D02*
D03*
X7624280Y5244840D02*
D03*
X7870502Y5659017D02*
D03*
X6091497Y1703120D02*
D03*
X6072340Y6982200D02*
D03*
X6006300Y6851928D02*
D03*
X6407620Y6204960D02*
D03*
X6328590Y6348953D02*
D03*
X7358088Y3921500D02*
D03*
X7708100Y4051040D02*
D03*
X10649420Y4066280D02*
D03*
X9590423Y5042676D02*
D03*
X5160480Y5405002D02*
D03*
X1526812Y2647863D02*
D03*
X3499320Y1145961D02*
D03*
X9427497Y3029960D02*
D03*
X11055820D02*
D03*
X6220498Y6416618D02*
D03*
X6585420Y4333142D02*
D03*
X4832820Y5474999D02*
D03*
X7167080Y5646160D02*
D03*
X7584874Y4051040D02*
D03*
X10875002Y3995160D02*
D03*
X5950420Y6591929D02*
D03*
X6402540Y6508327D02*
D03*
X9295600Y4066280D02*
D03*
X7436096Y4003064D02*
D03*
X6758140Y6171940D02*
D03*
X4243540Y3487160D02*
D03*
X7751280Y5107680D02*
D03*
X7232500Y2923280D02*
D03*
X2932900Y3111240D02*
D03*
X2955760Y3187440D02*
D03*
X6392380Y7218420D02*
D03*
X3962504Y3460053D02*
D03*
X6887680Y3426698D02*
D03*
X5879300Y3068060D02*
D03*
X5856440Y7414000D02*
D03*
X7296620Y3062980D02*
D03*
X9610844Y1808220D02*
D03*
X7146760Y7005060D02*
D03*
X10433398Y5130540D02*
D03*
X7882501Y2457637D02*
D03*
X6317501Y2699760D02*
D03*
X9828258Y3809740D02*
D03*
X7751280Y3078220D02*
D03*
X6397460Y7002520D02*
D03*
X3613620Y1602480D02*
D03*
X6994360Y3914998D02*
D03*
X7174700Y4052838D02*
D03*
X6778460Y2415280D02*
D03*
X8842499Y3992620D02*
D03*
X7100186Y6133601D02*
D03*
X9600400Y6060180D02*
D03*
X10534998Y4264400D02*
D03*
X11119320Y3443980D02*
D03*
X10534998Y4183120D02*
D03*
X9493720Y2755640D02*
D03*
X10126180Y5041640D02*
D03*
X11226000Y5244840D02*
D03*
X6392380Y6616354D02*
D03*
X9229560Y3924040D02*
D03*
X11275002Y6494520D02*
D03*
X4852505Y6236075D02*
D03*
X3771100Y6598660D02*
D03*
X9125003Y4066280D02*
D03*
X6227280Y2992500D02*
D03*
X9374340Y3924040D02*
D03*
X2966316Y7130003D02*
D03*
X2623020Y7449997D02*
D03*
X2978620Y7270002D02*
D03*
X9498800Y4066280D02*
D03*
X9000005Y4067235D02*
D03*
X10601160Y5158480D02*
D03*
X10649999Y5709660D02*
D03*
X10664660Y5245180D02*
D03*
X10400500Y5707120D02*
D03*
X11030420Y6146540D02*
D03*
X9501340Y6583420D02*
D03*
X10598620Y3921500D02*
D03*
X10890004Y1765040D02*
D03*
X4999998Y5663940D02*
D03*
X9922980Y5056880D02*
D03*
X9657499Y4975000D02*
D03*
X4606760Y7251440D02*
D03*
X9000000Y6060180D02*
D03*
X7875740Y1940300D02*
D03*
X9557499Y3143224D02*
D03*
X5970740Y1427220D02*
D03*
X10601160Y4856220D02*
D03*
X8973020D02*
D03*
X6512110Y4149998D02*
D03*
X8277060Y5969273D02*
D03*
X10520002Y1942840D02*
D03*
X9707080Y2627497D02*
D03*
X6323800Y4330440D02*
D03*
X570700Y4101840D02*
D03*
X2511524Y4762504D02*
D03*
X1055840Y4570404D02*
D03*
X5071580Y1285000D02*
D03*
Y1445000D02*
D03*
X6372060Y6916160D02*
D03*
X6072340Y1378960D02*
D03*
X4929340Y1160002D02*
D03*
X11274260Y5709660D02*
D03*
X11120001Y5544560D02*
D03*
X10000003Y4189998D02*
D03*
X6372060Y1247876D02*
D03*
X6377145Y1333199D02*
D03*
X7233120Y5145780D02*
D03*
X7120506Y5712200D02*
D03*
X3270720Y1145280D02*
D03*
X9186380Y6616064D02*
D03*
X6396495Y6831624D02*
D03*
X593560Y4672502D02*
D03*
X6072340Y6706625D02*
D03*
X723999Y4200001D02*
D03*
X8582398Y5969278D02*
D03*
X8842499Y4553960D02*
D03*
X8900005Y3924040D02*
D03*
X4710900Y7251440D02*
D03*
X4899998D02*
D03*
D169*
X3957333Y2412500D02*
D03*
X3807336D02*
D03*
M02*
