M48
;Layer_Color=9474304
;FILE_FORMAT=4:4
METRIC,TZ
;TYPE=PLATED
T01F00S00C0.3000
T02F00S00C0.7000
T03F00S00C0.7620
T04F00S00C0.8500
T05F00S00C1.1000
;TYPE=NON_PLATED
T06F00S00C3.2000
%
T01
X286150Y33756
X298850
X326302Y53226
X346122Y53768
X342500Y75360
X331176Y75539
X389867Y80824
X390816Y67700
X391401Y54562
Y95531
X485568Y80492
X486000Y67700
X636942Y63409
X635887Y76409
X633396Y84810
X637206Y92288
X676237Y89046
X678573Y76046
X678515Y63238
X675475Y50247
X704665Y69278
X706040Y83032
X721621Y62094
X729750Y49585
X767092Y50580
X806500
X844050Y49585
X881634Y50580
X920800
X958350Y49585
X996047Y50729
X1035100Y50580
X1025684Y88751
X1091134Y75000
X1082500Y107252
Y118628
X1099832
X1102102Y139213
X1089000Y176504
X1076372Y194030
X1063784
X1052000Y194284
X1112887
X1124970Y184252
X1134363Y209580
X1113000Y243710
X1105582Y237210
X1092904Y244114
X1126039Y259978
X1111932Y275564
X1105582Y302996
X1114140Y314085
X1111932Y344398
X1099994Y388516
X1087500Y399516
X1074500Y400024
X1064942Y406628
X1059862Y392150
X1048940Y392749
X1053500Y418312
Y426440
X1007626Y432572
X994748
X1000000Y419000
X988742Y393294
X982826Y380974
X991925Y357772
X1004796Y358775
X980885Y334000
X974055Y309600
X955750Y314322
X955722Y295884
X942750Y302996
X949372Y275564
X948846Y243814
X977312Y254228
X970708Y262750
X988742Y296646
X1017444Y307822
X937434Y392404
X922956
X929560Y406628
X912500
X900001Y406724
X884250Y399262
X890001Y392404
X884250Y455396
X882999Y488162
X897302Y485622
X949880Y406628
X1102501Y410516
X1115000
X1128757Y434190
X1060116Y485622
X1047000
X1044432Y118628
X1044784Y107252
X1063532Y118628
X1005000
Y107252
X986053Y118628
X967403
X967305Y107252
X948356Y118628
X929851
X929952Y107252
X910806Y118628
X890617
Y107252
X887834Y194030
X900000
X911908Y193984
X936418Y194030
X948717Y184866
X961084Y180822
X871640Y118628
X852342
X852184Y107252
X834056Y118628
X814630
X814908Y107252
X796506Y118628
X777549Y119125
X777500Y107252
X758347Y118628
X739632
X739784Y107252
X711882Y105288
X719756Y118628
X727193Y135109
X720251Y144657
X713026Y186905
X705808Y181609
X728092Y192886
X736520Y194030
X750998
X761412
X777083
X787574
X803655Y194205
X788250Y245764
X736266Y242036
X710683Y234924
X699606Y225942
X667686
Y237972
X677846Y241528
X689141Y259250
X688768Y299250
X678515Y313990
X665731Y290046
X622728Y299250
X615825Y313500
X587930Y306806
X631750Y269976
X643810Y334231
X688768Y342670
X685884Y370560
X699436Y391500
X717470Y405284
X743610Y400306
X735809Y392150
X758487Y405104
X770810
X775378Y392404
X775128Y443966
X669800Y450316
X652500Y450444
X639293Y449896
X632380Y433044
X658542Y433314
X651211Y415000
X610606Y415124
X605202Y394784
X611750Y387832
X627227Y373247
X595755Y474252
X650950Y485461
X680858Y472500
X693314Y480467
X729662Y306298
X723250Y292328
X729750Y276580
X775128Y307822
X804080Y343128
X824500Y329500
X860000Y317948
X873032Y342670
X676717Y174037
X675814Y114416
X676242Y102037
X636273Y106272
X639052Y114416
X637206Y124788
X637715Y133320
X637206Y142256
X607234Y137896
X597074Y142722
X600288Y157288
X609150Y170312
X565070Y175500
X506396Y183870
X489000Y191176
X501250Y236068
X518999Y236286
X500533Y276580
X492970Y330250
X507158Y144500
Y128500
X492934Y116000
X500046Y105800
X605964Y98788
X607234Y111734
X459914Y131200
X477718Y163000
X395733Y151125
X380757Y174356
X358440Y177500
X361362Y160248
X340280Y143738
X319250Y142865
X318182Y175500
X309649Y181434
X279021Y150088
X215216Y144824
X178228Y150088
X152681Y264786
X161924Y319546
X181500Y319000
X199000Y340108
X188906Y364628
X155239Y363772
Y354772
Y345772
X137932Y347212
Y356212
Y365212
Y374212
X138504Y383194
X140639Y391937
X144147Y400226
X148992Y407810
X155108Y414412
X162231Y419914
X170143Y424203
X178701Y426989
X187607Y428290
X196605Y428453
X205605
X214605
X223604Y428612
X232469Y430163
X241419Y431114
X264767Y434660
X271804Y440176
X273109Y429444
X278668Y422944
X285587Y418093
X288486Y410795
X316356Y412656
Y395169
X333955
Y412656
X351665
Y395169
X348616Y367320
X348287Y358876
X347453Y348111
X335514Y359482
Y367320
X310438Y362940
X312241Y346250
X290000Y339222
X275500Y339702
X255855Y336851
X255760Y325251
X230432Y317600
X226906Y300582
X293290Y311124
X295576Y318744
X302392Y325244
X324514Y316372
X319393Y308456
X311123Y295750
X359584Y336189
X377500Y328650
X375399Y350705
X396250Y346005
X424354Y348716
X445500Y361715
X452214Y403023
X446452Y434060
X426132Y432170
X428418Y453110
X415769Y460803
X385484Y455524
X374797Y455438
X358750Y457056
X350247Y466938
X343051Y472128
X332111Y464629
X325551Y468500
X317475Y470211
X319111Y462655
X327483Y480764
X347851Y490616
X363140Y472524
X351665Y431034
X333955
X316356
X292761Y444620
X300641Y452957
X300451Y472237
X251152Y476250
X264125Y452571
X249212Y409654
X242610Y399258
X222426Y411146
X213426
X204426
X195426
X186431Y410849
X177726Y408562
X169867Y404177
X163349Y397970
X158587Y390333
X155883Y381749
X155239Y372772
X108144Y378253
X115930Y399551
X105930Y432500
X105584Y457040
X90000Y353034
X108144Y338330
X115937Y301832
X213148Y392749
X263437Y375720
X366509Y369036
X387877Y378434
X383416Y394350
X385925Y401979
X387947Y410954
X398532Y411596
X402964Y430203
X387644Y429198
X378590Y415124
X473500Y442321
X390750Y117283
X363407Y105305
X349932Y114596
X327072Y114528
X36500Y263801
Y285535
X47750Y297118
Y323619
X65960Y338452
X35250Y359652
X41000Y396567
X57070Y410184
X72400Y420000
X72564Y445236
X59356Y467250
X54250Y589000
X46592
X38270
X106787Y625006
X141361
X188857Y607099
X197855
X207683Y607000
X224755Y652246
Y661175
Y680314
X216667
X205101Y671171
X197476Y671033
X189394Y671171
X182500Y720927
X203182Y724240
X209500Y746782
X228012Y755116
X262302Y745000
X298017Y740750
X297862Y727000
X296632Y713000
X295925Y694419
X303708Y672451
X284996
X320165Y661010
X351750Y673257
X362837Y680314
X361962Y690220
X367667Y706500
X377389Y706581
X357044Y713078
X366308Y736962
X380000Y736841
X365488Y753578
X325040Y757148
X330446Y739045
X329358Y726046
X329104Y699500
X384283Y675807
X377110Y659866
X410000Y684105
Y701408
X419782Y706269
X432346
X460676Y725144
X471090
X455148Y680314
X469790Y628500
X475000Y616007
X421052Y744448
X249856Y708380
X251049Y687906
X241356
X234043
X279250Y502132
X292782
X303252
X317569
X390064Y506704
X405050Y494376
X484012Y527500
X483282Y547500
X500000Y566394
X516048Y540500
X507920Y642594
X498522Y654339
X485251Y623607
X498446Y702676
X525000
X507920Y742416
X490000Y725144
X591785Y730750
X585644Y741400
X604205Y724250
Y714222
X607234Y698220
X600630Y685193
X607234Y670663
X595042Y659193
X622050Y641662
X632859Y634895
X640762Y620496
X640254Y650833
X639238Y661635
X639650Y683162
X637206Y691616
X639746Y700252
X639238Y721842
X675814Y708126
X675306Y691108
Y647272
X675356Y630606
X675814Y617194
X691357Y616341
X710019Y613360
X724582Y606018
X749550Y607068
X763704Y609684
X772460Y563512
X787050Y565902
X798043Y567464
X827706Y596927
X858240Y596928
X842400Y646658
X851988Y682472
X813888
X775934Y682618
X737500Y682472
X713194Y672474
X706294Y666724
X720409Y663704
X714676Y700506
X710443Y717778
X708793Y737028
X712051Y571220
X716708Y564616
X723312Y514578
X749220Y518134
X762428Y524484
X777160Y523457
X775128Y510768
X628940Y494376
X885875Y522734
X890518Y557713
X899282Y554964
X900000Y606018
X887834Y605856
X923513Y607339
X960040Y606018
X950134Y658342
X918638Y661606
X928618Y682472
X891250
X966718
X1004818
X1042500
X1080751Y684915
X1065000Y648378
X1077500Y631418
X1095750Y620114
X1103042Y614654
X1127500Y649452
X1127426Y570966
X1112000Y554456
X1122600Y524484
X1066466Y524518
X1060116Y515848
X1043340Y513054
X1012618Y504164
X992298Y505688
X959042Y504268
X965750Y497500
X992552Y548106
X1012500Y538708
X1047000Y556234
X1060000Y556604
X1065000Y570966
X1040050Y570712
X1040000Y606018
T02
X133751Y707750
Y727750
T03
X380734Y241250
X395733
T04
X132500Y127500
Y175000
X182500
X210000
X212500Y127500
X182500
X262500
X260000Y175000
T05
X146700Y65000
X172100
X197500
X222900
X248300
X517138Y65000
X542538
X748234Y51000
X786334
X824434
X862534
X900634
X938734
X976834
X1014934
X1053034
X1091134
X1072134Y165000
X1034034
X995934
X957834
X919734
X881634
X843534
X805434
X767334
X729234
X65130Y653350
Y678750
X747101Y635000
X785201
X823301
X861401
X842400Y749000
X804300
X766200
X728100
X880500
X918600
X956700
X994800
X1032900
X1071000
X1090001Y635000
X1051901
X1013801
X975701
X937601
X899501
T06
X50000Y50000
X1150000
X50000Y750000
X1150000
M30
