G04*
G04 #@! TF.GenerationSoftware,Altium Limited,Altium Designer,25.4.2 (15)*
G04*
G04 Layer_Physical_Order=2*
G04 Layer_Color=36540*
%FSLAX45Y45*%
%MOMM*%
G71*
G04*
G04 #@! TF.SameCoordinates,D7BB9B6E-8E0F-4C10-A838-266EBE977BF3*
G04*
G04*
G04 #@! TF.FilePolarity,Positive*
G04*
G01*
G75*
%ADD14C,0.25000*%
%ADD16C,0.25400*%
%ADD17C,0.60000*%
%ADD157C,0.50000*%
%ADD161C,0.35000*%
%ADD162O,1.75000X2.50000*%
%ADD163O,2.50000X1.50000*%
%ADD164O,2.50000X1.75000*%
%ADD165C,1.38100*%
%ADD166C,1.65000*%
%ADD167C,3.00000*%
%ADD168C,0.65000*%
%ADD169C,1.52400*%
G36*
X3358584Y7445932D02*
X3338584Y7437648D01*
X3337030Y7439201D01*
X3315896Y7447955D01*
X3293022D01*
X3288634Y7450887D01*
Y7528397D01*
X3299146Y7538909D01*
X3307900Y7560043D01*
Y7582917D01*
X3299146Y7604051D01*
X3282971Y7620226D01*
X3261837Y7628980D01*
X3238963D01*
X3217829Y7620226D01*
X3201654Y7604051D01*
X3192900Y7582917D01*
Y7560043D01*
X3201654Y7538909D01*
X3212166Y7528397D01*
Y7435917D01*
X3193688Y7428264D01*
X3043756Y7578196D01*
X3031352Y7586484D01*
X3016720Y7589394D01*
X2323203D01*
X2312691Y7599906D01*
X2291557Y7608660D01*
X2268683D01*
X2247549Y7599906D01*
X2231374Y7583731D01*
X2222620Y7562597D01*
Y7539723D01*
X2231374Y7518589D01*
X2247549Y7502414D01*
X2268683Y7493660D01*
X2291557D01*
X2312691Y7502414D01*
X2323203Y7512926D01*
X2576404D01*
X2584631Y7492926D01*
X2574274Y7482568D01*
X2565520Y7461434D01*
Y7446568D01*
X2220513Y7101561D01*
X2212225Y7089157D01*
X2209314Y7074526D01*
Y6886061D01*
X2201335Y6876339D01*
X2133067D01*
X2123313Y6874398D01*
X2115044Y6868873D01*
X2099903Y6853732D01*
X2094377Y6845463D01*
X2092437Y6835708D01*
Y6777732D01*
X2072437Y6765074D01*
X2062445Y6769212D01*
X2039570D01*
X2018437Y6760458D01*
X2012194Y6754216D01*
X2007333Y6759076D01*
X1986199Y6767830D01*
X1963324D01*
X1942191Y6759076D01*
X1935042Y6751928D01*
X1926511Y6760458D01*
X1905377Y6769212D01*
X1882503D01*
X1861369Y6760458D01*
X1850910Y6750000D01*
X1000000D01*
Y6961562D01*
X1014710Y6964488D01*
X1027181Y6972820D01*
X1035513Y6985290D01*
X1038439Y7000000D01*
Y7711563D01*
X3358584D01*
Y7445932D01*
D02*
G37*
G36*
X5937720Y7395098D02*
X5921232Y7380954D01*
X5912086Y7399017D01*
X5915066Y7414000D01*
X5910604Y7436435D01*
X5897895Y7455455D01*
X5878875Y7468164D01*
X5856440Y7472626D01*
X5834005Y7468164D01*
X5814985Y7455455D01*
X5802276Y7436435D01*
X5797813Y7414000D01*
X5802276Y7391565D01*
X5814985Y7372545D01*
X5834005Y7359836D01*
X5856440Y7355373D01*
X5856657Y7355417D01*
X5868684Y7337417D01*
X5863685Y7329935D01*
X5859222Y7307500D01*
X5859978Y7303701D01*
X5711331Y7155054D01*
X4611840D01*
X4597208Y7152144D01*
X4584804Y7143856D01*
X2555488Y5114540D01*
X2547200Y5102136D01*
X2544290Y5087504D01*
Y4831988D01*
X2524289Y4818591D01*
X2511524Y4821131D01*
X2489089Y4816668D01*
X2470069Y4803959D01*
X2457360Y4784939D01*
X2452898Y4762504D01*
X2457360Y4740069D01*
X2470069Y4721049D01*
X2489089Y4708340D01*
X2511524Y4703878D01*
X2524289Y4706417D01*
X2544290Y4693020D01*
Y4309651D01*
X2547200Y4295019D01*
X2555488Y4282615D01*
X2629583Y4208520D01*
X2641987Y4200232D01*
X2656619Y4197321D01*
X2738984D01*
X2745221Y4187988D01*
X2764240Y4175280D01*
X2786676Y4170817D01*
X2798773Y4173223D01*
X2801703Y4158495D01*
X2814411Y4139475D01*
X2830381Y4128805D01*
X2826232Y4107947D01*
X2830695Y4085511D01*
X2843404Y4066491D01*
X2862423Y4053783D01*
X2884859Y4049320D01*
X2907294Y4053783D01*
X2926314Y4066491D01*
X2939022Y4085511D01*
X2941928Y4100121D01*
X2959936Y4118128D01*
X2968224Y4130532D01*
X2971134Y4145164D01*
Y4203055D01*
X2968224Y4217687D01*
X2959936Y4230091D01*
X2816391Y4373636D01*
X2803987Y4381924D01*
X2793522Y4384005D01*
X2782699Y4392583D01*
X2776370Y4400295D01*
X2776662Y4401764D01*
X2772199Y4424199D01*
X2759491Y4443219D01*
X2756270Y4445371D01*
Y4954149D01*
X2776270Y4965921D01*
X2792498Y4962693D01*
X2814933Y4967156D01*
X2833953Y4979865D01*
X2846661Y4998885D01*
X2849963Y5015481D01*
X2870354D01*
X2871884Y5007792D01*
X2873656Y4998885D01*
X2886365Y4979865D01*
X2905385Y4967156D01*
X2927820Y4962693D01*
X2950255Y4967156D01*
X2969275Y4979865D01*
X2981984Y4998885D01*
X2986446Y5021320D01*
X2981984Y5043755D01*
X2969275Y5062775D01*
X2950255Y5075484D01*
X2927820Y5079946D01*
X2905385Y5075484D01*
X2886365Y5062775D01*
X2873656Y5043755D01*
X2870354Y5027158D01*
X2849963D01*
X2848433Y5034848D01*
X2846661Y5043755D01*
X2833953Y5062775D01*
X2815307Y5075234D01*
X2814931Y5075492D01*
X2808870Y5097081D01*
X3250685Y5538897D01*
X4788953D01*
X4795020Y5518897D01*
X4791365Y5516455D01*
X4778656Y5497435D01*
X4774193Y5474999D01*
X4778656Y5452564D01*
X4791365Y5433544D01*
X4810385Y5420836D01*
X4832820Y5416373D01*
X4855255Y5420836D01*
X4874275Y5433544D01*
X4886984Y5452564D01*
X4891446Y5474999D01*
X4886984Y5497435D01*
X4874275Y5516455D01*
X4870620Y5518897D01*
X4876687Y5538897D01*
X5937720D01*
Y5112894D01*
X4528020D01*
X4513388Y5109984D01*
X4500984Y5101696D01*
X4303573Y4904284D01*
X4113772D01*
X4113477Y4904835D01*
X4105252Y4924285D01*
X4109126Y4943760D01*
X4104664Y4966195D01*
X4091955Y4985215D01*
X4072935Y4997923D01*
X4050500Y5002386D01*
X4028065Y4997923D01*
X4009045Y4985215D01*
X3996336Y4966195D01*
X3991873Y4943760D01*
X3995747Y4924285D01*
X3987522Y4904835D01*
X3987228Y4904284D01*
X3538677D01*
X3537136Y4906162D01*
X3532673Y4928597D01*
X3519965Y4947617D01*
X3500945Y4960326D01*
X3478510Y4964788D01*
X3456074Y4960326D01*
X3437055Y4947617D01*
X3424346Y4928597D01*
X3419883Y4906162D01*
X3424346Y4883727D01*
X3431662Y4872778D01*
X3421648Y4852778D01*
X3358584D01*
X3343952Y4849868D01*
X3341094Y4847958D01*
X3316284Y4849090D01*
X3297264Y4861799D01*
X3274829Y4866261D01*
X3252394Y4861799D01*
X3233374Y4849090D01*
X3220665Y4830070D01*
X3216203Y4807635D01*
X3220665Y4785199D01*
X3233374Y4766180D01*
X3233455Y4766125D01*
X3229629Y4744628D01*
X3217555Y4741539D01*
X3216202Y4743563D01*
X3197182Y4756271D01*
X3174747Y4760734D01*
X3152312Y4756271D01*
X3133292Y4743563D01*
X3120583Y4724543D01*
X3116346Y4703241D01*
X3087482Y4674376D01*
X3079193Y4661972D01*
X3076283Y4647340D01*
Y4606387D01*
X3079193Y4591755D01*
X3087482Y4579351D01*
X3123306Y4543527D01*
X3135710Y4535238D01*
X3150341Y4532328D01*
X3472524D01*
X3618415Y4386437D01*
X3630819Y4378148D01*
X3645451Y4375238D01*
X3983770D01*
X3989823Y4367837D01*
X3988187Y4343483D01*
X3975478Y4324464D01*
X3971015Y4302028D01*
X3975478Y4279593D01*
X3988187Y4260573D01*
X4007206Y4247865D01*
X4029642Y4243402D01*
X4052077Y4247865D01*
X4071097Y4260573D01*
X4078485Y4271631D01*
X4102008Y4276391D01*
X5025726Y3352674D01*
Y2836133D01*
X5010265Y2823445D01*
X5005333Y2824426D01*
X4999737Y2823313D01*
X4961641Y2858856D01*
X4948957Y2866710D01*
X4934233Y2869112D01*
X4708830Y2861299D01*
X4330961Y3239168D01*
X4339246Y3259168D01*
X4891058D01*
X4907268Y3248337D01*
X4929703Y3243874D01*
X4952139Y3248337D01*
X4971158Y3261046D01*
X4983867Y3280065D01*
X4988330Y3302501D01*
X4983867Y3324936D01*
X4971158Y3343956D01*
X4952139Y3356664D01*
X4929703Y3361127D01*
X4907268Y3356664D01*
X4891058Y3345833D01*
X4332780D01*
X3995766Y3682847D01*
Y3926608D01*
X3992468Y3943190D01*
X3983074Y3957248D01*
X3917219Y4023103D01*
X3913415Y4042225D01*
X3903788Y4056633D01*
X3920922Y4068082D01*
X3922514Y4070464D01*
X3943866Y4074508D01*
X3962885Y4061800D01*
X3968507Y4060681D01*
X4398977Y3630211D01*
X4396378Y3617149D01*
X4400841Y3594713D01*
X4413550Y3575694D01*
X4432569Y3562985D01*
X4455005Y3558522D01*
X4477440Y3562985D01*
X4496460Y3575694D01*
X4509169Y3594713D01*
X4513631Y3617149D01*
X4509169Y3639584D01*
X4503114Y3648645D01*
Y3649149D01*
X4499234Y3668658D01*
X4488183Y3685197D01*
X4040603Y4132777D01*
X4039484Y4138399D01*
X4026776Y4157418D01*
X4007756Y4170127D01*
X3985321Y4174590D01*
X3962885Y4170127D01*
X3943866Y4157418D01*
X3942274Y4155036D01*
X3920922Y4150992D01*
X3901903Y4163701D01*
X3879467Y4168163D01*
X3857032Y4163701D01*
X3848396Y4167278D01*
X3838798Y4175571D01*
X3827359Y4192691D01*
X3808339Y4205400D01*
X3785904Y4209862D01*
X3763469Y4205400D01*
X3744449Y4192691D01*
X3731740Y4173671D01*
X3727278Y4151236D01*
X3731740Y4128800D01*
X3744449Y4109781D01*
X3751134Y4105314D01*
X3754183Y4080079D01*
X3698495Y4024390D01*
X3690206Y4011986D01*
X3687296Y3997354D01*
Y3870777D01*
X3618790Y3802271D01*
X2731713D01*
X2717081Y3799360D01*
X2704677Y3791072D01*
X2296966Y3383361D01*
X1306405D01*
X839209Y3850556D01*
Y4377025D01*
X836299Y4391657D01*
X828010Y4404061D01*
X783511Y4448561D01*
X784266Y4452360D01*
X779804Y4474795D01*
X767095Y4493815D01*
X748075Y4506524D01*
X725640Y4510986D01*
X703205Y4506524D01*
X684185Y4493815D01*
X671476Y4474795D01*
X667013Y4452360D01*
X671476Y4429925D01*
X684185Y4410905D01*
X703205Y4398196D01*
X725640Y4393733D01*
X729439Y4394489D01*
X762740Y4361188D01*
Y4265492D01*
X742740Y4254899D01*
X723999Y4258627D01*
X701564Y4254164D01*
X682544Y4241456D01*
X669835Y4222436D01*
X665373Y4200001D01*
X669835Y4177565D01*
X682544Y4158546D01*
X701564Y4145837D01*
X723999Y4141374D01*
X742740Y4145102D01*
X762740Y4134509D01*
Y3834719D01*
X765650Y3820088D01*
X773939Y3807684D01*
X1263532Y3318091D01*
X1275935Y3309802D01*
X1290567Y3306892D01*
X2312803D01*
X2327435Y3309802D01*
X2339839Y3318091D01*
X2747550Y3725802D01*
X3297108D01*
X3307770Y3705802D01*
X3300978Y3695636D01*
X3296515Y3673201D01*
X3300978Y3650766D01*
X3312173Y3634011D01*
X3300978Y3617255D01*
X3296515Y3594820D01*
X3300978Y3572385D01*
X3313687Y3553365D01*
X3332706Y3540656D01*
X3355142Y3536194D01*
X3377577Y3540656D01*
X3391619Y3550039D01*
X3393506Y3547216D01*
X3427102Y3513619D01*
X3420371Y3503546D01*
X3415908Y3481110D01*
X3420371Y3458675D01*
X3433079Y3439655D01*
X3452099Y3426947D01*
X3474535Y3422484D01*
X3496970Y3426947D01*
X3515990Y3439655D01*
X3528698Y3458675D01*
X3533161Y3481110D01*
X3529561Y3499210D01*
X3532134Y3503061D01*
X3544537Y3511349D01*
X3578210Y3545021D01*
X3687982D01*
X3698937Y3525021D01*
X3695362Y3507051D01*
X3699825Y3484615D01*
X3712534Y3465596D01*
X3731554Y3452887D01*
X3753989Y3448424D01*
X3757788Y3449180D01*
X3980197Y3226772D01*
X3992601Y3218483D01*
X4007232Y3215573D01*
X4049575D01*
X4272768Y2992380D01*
Y2252596D01*
X4275678Y2237964D01*
X4283967Y2225560D01*
X4489526Y2020000D01*
X4481242Y2000000D01*
X1000000D01*
Y2500000D01*
X288438D01*
Y6961562D01*
X951177D01*
Y6678259D01*
X1847138D01*
X1852485Y6670257D01*
X1871505Y6657549D01*
X1893940Y6653086D01*
X1916375Y6657549D01*
X1933317Y6668868D01*
X1952327Y6656166D01*
X1974762Y6651703D01*
X1997197Y6656166D01*
X2013919Y6667339D01*
X2028573Y6657549D01*
X2051008Y6653086D01*
X2073443Y6657549D01*
X2092463Y6670257D01*
X2097810Y6678259D01*
X2117927D01*
Y6835708D01*
X2133067Y6850849D01*
X2263627D01*
X2282761Y6831715D01*
Y6774990D01*
X2340430Y6717320D01*
Y6678259D01*
X2815686D01*
X2827528Y6670347D01*
X2849963Y6665884D01*
X2872399Y6670347D01*
X2884241Y6678259D01*
X3002799D01*
X3014642Y6670347D01*
X3037077Y6665884D01*
X3059513Y6670347D01*
X3071355Y6678259D01*
X3164169D01*
X3170236Y6658259D01*
X3160199Y6651552D01*
X3147490Y6632533D01*
X3143027Y6610097D01*
X3147490Y6587662D01*
X3160199Y6568642D01*
X3179218Y6555934D01*
X3201654Y6551471D01*
X3224089Y6555934D01*
X3243109Y6568642D01*
X3255817Y6587662D01*
X3260280Y6610097D01*
X3255817Y6632533D01*
X3243109Y6651552D01*
X3233071Y6658259D01*
X3239138Y6678259D01*
X3422337D01*
X3426670Y7246226D01*
X4050500D01*
X4065132Y7249136D01*
X4077536Y7257424D01*
X4206721Y7386609D01*
X4210520Y7385853D01*
X4232955Y7390316D01*
X4251975Y7403025D01*
X4264684Y7422045D01*
X4269146Y7444480D01*
X4264684Y7466915D01*
X4251975Y7485935D01*
X4232955Y7498644D01*
X4210520Y7503106D01*
X4188085Y7498644D01*
X4169065Y7485935D01*
X4156356Y7466915D01*
X4151893Y7444480D01*
X4152649Y7440681D01*
X4034663Y7322694D01*
X3862659D01*
X3851969Y7342694D01*
X3854164Y7345979D01*
X3858627Y7368414D01*
X3854164Y7390850D01*
X3841455Y7409869D01*
X3822435Y7422578D01*
X3800000Y7427041D01*
X3777565Y7422578D01*
X3758545Y7409869D01*
X3745836Y7390850D01*
X3741374Y7368414D01*
X3744766Y7351359D01*
X3735258Y7336284D01*
X3731155Y7332524D01*
X3726512Y7337417D01*
X3718128Y7351614D01*
X3721709Y7369617D01*
X3717247Y7392052D01*
X3704538Y7411072D01*
X3685518Y7423781D01*
X3663083Y7428243D01*
X3640648Y7423781D01*
X3621628Y7411072D01*
X3608919Y7392052D01*
X3604456Y7369617D01*
X3608919Y7347182D01*
X3611917Y7342694D01*
X3601227Y7322694D01*
X3441450D01*
X3427362Y7336890D01*
X3430220Y7711563D01*
X5937720D01*
Y7395098D01*
D02*
G37*
G36*
Y7237063D02*
Y7158562D01*
X5758134Y6978976D01*
X4554199D01*
X4546546Y6997454D01*
X4627677Y7078586D01*
X5727169D01*
X5741800Y7081496D01*
X5754204Y7089784D01*
X5914049Y7249629D01*
X5917849Y7248873D01*
X5922259Y7249751D01*
X5937720Y7237063D01*
D02*
G37*
G36*
X3163419Y7350389D02*
Y7331509D01*
X3166330Y7316877D01*
X3174618Y7304473D01*
X3238018Y7241072D01*
X3239888Y7239823D01*
X3244834Y7227883D01*
X3261009Y7211708D01*
X3282143Y7202955D01*
X3305017D01*
X3326151Y7211708D01*
X3338584Y7224141D01*
X3356137Y7219496D01*
X3358584Y7218010D01*
Y7034454D01*
X3344428Y7029272D01*
X3338584Y7028775D01*
X3323611Y7043748D01*
X3302477Y7052502D01*
X3279603D01*
X3258469Y7043748D01*
X3247957Y7033236D01*
X3179689D01*
X3165057Y7030326D01*
X3152653Y7022037D01*
X2984488Y6853871D01*
X2577172D01*
X2567985Y6867621D01*
Y6890495D01*
X2559231Y6911629D01*
X2543056Y6927804D01*
X2521923Y6936558D01*
X2499048D01*
X2477914Y6927804D01*
X2461739Y6911629D01*
X2452985Y6890495D01*
Y6867621D01*
X2443798Y6853871D01*
X2333810D01*
X2285783Y6901898D01*
Y7058688D01*
X2619591Y7392497D01*
X2634457D01*
X2655591Y7401251D01*
X2671766Y7417426D01*
X2680520Y7438559D01*
Y7461434D01*
X2671766Y7482568D01*
X2661408Y7492926D01*
X2669636Y7512926D01*
X3000883D01*
X3163419Y7350389D01*
D02*
G37*
G36*
X3344428Y6960731D02*
X3358584Y6955549D01*
Y6750000D01*
X3088757D01*
X3085823Y6757081D01*
X3069648Y6773256D01*
X3048515Y6782010D01*
X3040769Y6802010D01*
X3195526Y6956767D01*
X3247957D01*
X3258469Y6946255D01*
X3279603Y6937501D01*
X3302477D01*
X3323611Y6946255D01*
X3338584Y6961228D01*
X3344428Y6960731D01*
D02*
G37*
G36*
X6878407Y7051702D02*
Y6865936D01*
X6859929Y6858282D01*
X6810560Y6907651D01*
Y6922517D01*
X6801806Y6943651D01*
X6785631Y6959826D01*
X6764497Y6968580D01*
X6741623D01*
X6729511Y6976673D01*
X6728230Y6997278D01*
X6754711Y7023760D01*
X6769577D01*
X6790711Y7032514D01*
X6806886Y7048689D01*
X6815640Y7069823D01*
Y7086184D01*
X6834388Y7095721D01*
X6878407Y7051702D01*
D02*
G37*
G36*
X6916641Y6693427D02*
Y6657724D01*
X6919551Y6643092D01*
X6927840Y6630688D01*
X6999885Y6558642D01*
X6998836Y6547988D01*
X6961802Y6510953D01*
X6796143D01*
X6785631Y6521465D01*
X6764497Y6530219D01*
X6741623D01*
X6726291Y6540463D01*
Y6843335D01*
X6741623Y6853580D01*
X6756488D01*
X6916641Y6693427D01*
D02*
G37*
G36*
X11217502Y6497948D02*
Y6483083D01*
X11226255Y6461949D01*
X11242430Y6445774D01*
X11263564Y6437020D01*
X11286439D01*
X11302066Y6426578D01*
Y6271597D01*
X11128883Y6098414D01*
X11089743D01*
X11081008Y6118414D01*
X11087920Y6135103D01*
Y6157977D01*
X11079166Y6179111D01*
X11062991Y6195286D01*
X11041857Y6204040D01*
X11018983D01*
X11010950Y6222361D01*
X11006247Y6233714D01*
X10990072Y6249889D01*
X10983097Y6252778D01*
X10978405Y6276369D01*
X10986028Y6283993D01*
X11000180Y6308506D01*
X11007506Y6335846D01*
Y6364152D01*
X11000180Y6391492D01*
X10986028Y6416005D01*
X10966013Y6436020D01*
X10941500Y6450173D01*
X10914159Y6457499D01*
X10885854D01*
X10858513Y6450173D01*
X10834000Y6436020D01*
X10813985Y6416005D01*
X10799832Y6391492D01*
X10795755Y6376276D01*
X10786435Y6371680D01*
X10763560D01*
X10742426Y6362926D01*
X10726251Y6346751D01*
X10717497Y6325617D01*
Y6302743D01*
X10726251Y6281609D01*
X10742426Y6265434D01*
X10763560Y6256680D01*
X10786435D01*
X10807569Y6265434D01*
X10820056Y6277921D01*
X10834000Y6263978D01*
X10836413Y6262584D01*
X10839023Y6242755D01*
X10789582Y6193314D01*
X10250617D01*
X10242964Y6211792D01*
X10342936Y6311765D01*
X10417959D01*
X10418832Y6308506D01*
X10432985Y6283993D01*
X10453000Y6263978D01*
X10477513Y6249825D01*
X10504854Y6242499D01*
X10533159D01*
X10560500Y6249825D01*
X10585013Y6263978D01*
X10605028Y6283993D01*
X10619180Y6308506D01*
X10626506Y6335846D01*
Y6364152D01*
X10619180Y6391492D01*
X10605028Y6416005D01*
X10585013Y6436020D01*
X10560500Y6450173D01*
X10533159Y6457499D01*
X10504854D01*
X10477513Y6450173D01*
X10453000Y6436020D01*
X10432985Y6416005D01*
X10418832Y6391492D01*
X10417959Y6388233D01*
X10327099D01*
X10312467Y6385323D01*
X10300063Y6377035D01*
X10265506Y6342478D01*
X10245506Y6350762D01*
Y6364152D01*
X10238180Y6391492D01*
X10236493Y6394414D01*
X10351839Y6509760D01*
X10582782D01*
X10592499Y6495218D01*
Y6472343D01*
X10601253Y6451210D01*
X10617428Y6435035D01*
X10638562Y6426281D01*
X10661436D01*
X10682570Y6435035D01*
X10698745Y6451210D01*
X10707499Y6472343D01*
Y6495218D01*
X10717216Y6509760D01*
X11205690D01*
X11217502Y6497948D01*
D02*
G37*
G36*
X5924029Y7008444D02*
X5922346Y6999980D01*
Y6769437D01*
X5829404Y6676496D01*
X5821116Y6664092D01*
X5818206Y6649460D01*
Y5836660D01*
X5821116Y5822028D01*
X5829404Y5809624D01*
X5870044Y5768984D01*
X5882448Y5760696D01*
X5897080Y5757786D01*
X5937720D01*
Y5615365D01*
X5060750D01*
X5050059Y5635365D01*
X5054161Y5641505D01*
X5058624Y5663940D01*
X5054161Y5686375D01*
X5041453Y5705395D01*
X5022433Y5718104D01*
X4999998Y5722566D01*
X4977562Y5718104D01*
X4958543Y5705395D01*
X4945834Y5686375D01*
X4941371Y5663940D01*
X4945834Y5641505D01*
X4949936Y5635365D01*
X4939246Y5615365D01*
X3282028D01*
X3274375Y5633843D01*
X4487668Y6847137D01*
X4503203Y6834387D01*
X4497313Y6825573D01*
X4492851Y6803137D01*
X4497313Y6780702D01*
X4510022Y6761682D01*
X4513243Y6759530D01*
Y6322183D01*
X4516153Y6307551D01*
X4524441Y6295147D01*
X4646424Y6173165D01*
X4658828Y6164877D01*
X4673459Y6161966D01*
X4683217D01*
X4692935Y6152248D01*
X4695842Y6137638D01*
X4708550Y6118619D01*
X4727570Y6105910D01*
X4750005Y6101447D01*
X4772441Y6105910D01*
X4791460Y6118619D01*
X4804169Y6137638D01*
X4808632Y6160074D01*
X4805854Y6174038D01*
X4823854Y6186065D01*
X4830070Y6181911D01*
X4852505Y6177448D01*
X4874940Y6181911D01*
X4893960Y6194620D01*
X4906669Y6213640D01*
X4911131Y6236075D01*
X4906669Y6258510D01*
X4893960Y6277530D01*
X4874940Y6290239D01*
X4852505Y6294701D01*
X4830070Y6290239D01*
X4811050Y6277530D01*
X4798341Y6258510D01*
X4793878Y6236075D01*
X4796656Y6222111D01*
X4778656Y6210084D01*
X4772441Y6214238D01*
X4750005Y6218700D01*
X4745435Y6225131D01*
X4739360Y6243546D01*
X4752069Y6262565D01*
X4756532Y6285000D01*
X4755776Y6288800D01*
X4854682Y6387706D01*
X5035593D01*
X5037745Y6384485D01*
X5056765Y6371776D01*
X5079200Y6367313D01*
X5101635Y6371776D01*
X5120655Y6384485D01*
X5133364Y6403505D01*
X5137826Y6425940D01*
X5133364Y6448375D01*
X5120655Y6467395D01*
X5101635Y6480104D01*
X5079200Y6484566D01*
X5056765Y6480104D01*
X5037745Y6467395D01*
X5035593Y6464174D01*
X4838845D01*
X4824213Y6461264D01*
X4811809Y6452976D01*
X4701705Y6342871D01*
X4697905Y6343627D01*
X4675470Y6339164D01*
X4656450Y6326455D01*
X4645680Y6310336D01*
X4624138Y6303594D01*
X4589711Y6338020D01*
Y6759530D01*
X4592932Y6761682D01*
X4605641Y6780702D01*
X4610104Y6803137D01*
X4605641Y6825573D01*
X4592932Y6844592D01*
X4573912Y6857301D01*
X4551477Y6861764D01*
X4529042Y6857301D01*
X4520227Y6851411D01*
X4507478Y6866946D01*
X4543039Y6902508D01*
X5773971D01*
X5788603Y6905418D01*
X5801007Y6913706D01*
X5905597Y7018296D01*
X5924029Y7008444D01*
D02*
G37*
G36*
X6633509Y7013393D02*
X6649822Y7004886D01*
Y6473164D01*
X6652732Y6458532D01*
X6661020Y6446128D01*
X6715864Y6391284D01*
X6716254Y6387326D01*
X6665064Y6336136D01*
X6656776Y6323732D01*
X6653866Y6309100D01*
Y6237980D01*
X6656776Y6223348D01*
X6665064Y6210944D01*
X6700640Y6175368D01*
Y6160503D01*
X6709394Y6139369D01*
X6725569Y6123194D01*
X6746703Y6114440D01*
X6769577D01*
X6790711Y6123194D01*
X6806886Y6139369D01*
X6815640Y6160503D01*
Y6183377D01*
X6806886Y6204511D01*
X6790711Y6220686D01*
X6769577Y6229440D01*
X6767114D01*
X6764995Y6248562D01*
X6786129Y6257316D01*
X6796641Y6267828D01*
X7015048D01*
X7075581Y6207295D01*
X7070888Y6183703D01*
X7067615Y6182347D01*
X7051440Y6166172D01*
X7042686Y6145039D01*
Y6122164D01*
X7051440Y6101030D01*
X7067615Y6084855D01*
X7070523Y6083651D01*
X7073151Y6079718D01*
X7254416Y5898452D01*
X7246763Y5879974D01*
X6596177D01*
X6257894Y6218257D01*
Y6317111D01*
X6277894Y6321089D01*
X6279844Y6316381D01*
X6296019Y6300206D01*
X6317153Y6291452D01*
X6340028D01*
X6361162Y6300206D01*
X6371673Y6310718D01*
X6467005D01*
X6481637Y6313628D01*
X6494041Y6321917D01*
X6573568Y6401444D01*
X6581857Y6413848D01*
X6584767Y6428480D01*
Y6968115D01*
X6630459Y7013807D01*
X6633509Y7013393D01*
D02*
G37*
G36*
X9277519Y6394414D02*
X9275832Y6391492D01*
X9268506Y6364152D01*
Y6335846D01*
X9275832Y6308506D01*
X9278788Y6303385D01*
X9267241Y6283385D01*
X9103771D01*
X9092224Y6303385D01*
X9095180Y6308506D01*
X9102506Y6335846D01*
Y6364152D01*
X9095180Y6391492D01*
X9081028Y6416005D01*
X9061013Y6436020D01*
X9036500Y6450173D01*
X9031452Y6451526D01*
X9034085Y6471526D01*
X9200408D01*
X9277519Y6394414D01*
D02*
G37*
G36*
X8684364Y6482724D02*
X8696768Y6474436D01*
X8711400Y6471526D01*
X8955927D01*
X8958560Y6451526D01*
X8953513Y6450173D01*
X8929000Y6436020D01*
X8908985Y6416005D01*
X8894832Y6391492D01*
X8887506Y6364152D01*
Y6335846D01*
X8894832Y6308506D01*
X8897788Y6303385D01*
X8886241Y6283385D01*
X8722771D01*
X8711224Y6303385D01*
X8714180Y6308506D01*
X8721506Y6335846D01*
Y6364152D01*
X8714180Y6391492D01*
X8700028Y6416005D01*
X8680013Y6436020D01*
X8655500Y6450173D01*
X8650157Y6451605D01*
Y6455354D01*
X8647247Y6469986D01*
X8638958Y6482390D01*
X8542913Y6578435D01*
X8549873Y6595771D01*
X8569301Y6597787D01*
X8684364Y6482724D01*
D02*
G37*
G36*
X8134519Y6394414D02*
X8132832Y6391492D01*
X8125506Y6364152D01*
Y6335846D01*
X8132832Y6308506D01*
X8146985Y6283993D01*
X8165448Y6265529D01*
X8164699Y6258704D01*
X8158953Y6245529D01*
X7926059D01*
X7920313Y6258704D01*
X7919564Y6265529D01*
X7938028Y6283993D01*
X7952180Y6308506D01*
X7959506Y6335846D01*
Y6364152D01*
X7952180Y6391492D01*
X7943362Y6406766D01*
X7954357Y6426766D01*
X8102168D01*
X8134519Y6394414D01*
D02*
G37*
G36*
X7760650Y6406766D02*
X7751832Y6391492D01*
X7744506Y6364152D01*
Y6335846D01*
X7751832Y6308506D01*
X7765985Y6283993D01*
X7784448Y6265529D01*
X7783699Y6258704D01*
X7777953Y6245529D01*
X7545059D01*
X7539313Y6258704D01*
X7538564Y6265529D01*
X7557028Y6283993D01*
X7571180Y6308506D01*
X7578506Y6335846D01*
Y6364152D01*
X7571180Y6391492D01*
X7562362Y6406766D01*
X7573357Y6426766D01*
X7749655D01*
X7760650Y6406766D01*
D02*
G37*
G36*
X7324174Y6211792D02*
X7316521Y6193314D01*
X7197704D01*
X7080211Y6310808D01*
X7087864Y6329286D01*
X7206681D01*
X7324174Y6211792D01*
D02*
G37*
G36*
X9555748Y6096846D02*
X9551654Y6092751D01*
X9542900Y6071617D01*
Y6056751D01*
X9416572Y5930424D01*
X8650190D01*
X8636826Y5950424D01*
X8639898Y5957841D01*
Y5980716D01*
X8631145Y6001850D01*
X8614970Y6018025D01*
X8593836Y6026778D01*
X8570961D01*
X8549827Y6018025D01*
X8533652Y6001850D01*
X8524898Y5980716D01*
Y5957841D01*
X8527971Y5950424D01*
X8514607Y5930424D01*
X8344854D01*
X8331490Y5950424D01*
X8334560Y5957836D01*
Y5980711D01*
X8325806Y6001844D01*
X8309631Y6018019D01*
X8288497Y6026773D01*
X8265623D01*
X8244489Y6018019D01*
X8228314Y6001844D01*
X8219560Y5980711D01*
Y5957836D01*
X8222630Y5950424D01*
X8209266Y5930424D01*
X7330588D01*
X7270744Y5990267D01*
X7274646Y6009883D01*
X7278391Y6011434D01*
X7294566Y6027609D01*
X7303320Y6048743D01*
Y6071617D01*
X7294566Y6092751D01*
X7290472Y6096846D01*
X7298756Y6116846D01*
X7434219D01*
X7444102Y6096845D01*
X7438002Y6082118D01*
Y6059243D01*
X7446756Y6038109D01*
X7462931Y6021934D01*
X7484065Y6013180D01*
X7501004D01*
X7503111Y6011073D01*
X7515515Y6002785D01*
X7530147Y5999875D01*
X7753837D01*
X7768469Y6002785D01*
X7780873Y6011073D01*
X7849979Y6080180D01*
X8814035D01*
X8820839Y6069997D01*
Y6047123D01*
X8829593Y6025989D01*
X8845768Y6009814D01*
X8866901Y6001060D01*
X8889776D01*
X8910910Y6009814D01*
X8927085Y6025989D01*
X8928681Y6029841D01*
X8950329D01*
X8951254Y6027609D01*
X8967429Y6011434D01*
X8988562Y6002680D01*
X9011437D01*
X9032571Y6011434D01*
X9048746Y6027608D01*
X9071111Y6035356D01*
X9085742Y6032446D01*
X9194754D01*
X9202555Y6024645D01*
X9223689Y6015891D01*
X9246563D01*
X9267697Y6024645D01*
X9283872Y6040820D01*
X9292626Y6061954D01*
Y6084828D01*
X9287648Y6096845D01*
X9299120Y6116846D01*
X9547464D01*
X9555748Y6096846D01*
D02*
G37*
G36*
X11347786Y6183043D02*
Y5734671D01*
X11327786Y5730692D01*
X11323006Y5742231D01*
X11306831Y5758406D01*
X11285697Y5767160D01*
X11262823D01*
X11241689Y5758406D01*
X11225514Y5742231D01*
X11216760Y5721097D01*
Y5698223D01*
X11217589Y5696220D01*
X11123429Y5602060D01*
X11108563D01*
X11087429Y5593306D01*
X11071254Y5577131D01*
X11063461Y5558315D01*
X11053317Y5553699D01*
X11042501Y5550991D01*
X10724716Y5868776D01*
X10712312Y5877064D01*
X10697680Y5879974D01*
X9500397D01*
X9492744Y5898452D01*
X9596971Y6002680D01*
X9611837D01*
X9632971Y6011434D01*
X9649146Y6027609D01*
X9657900Y6048743D01*
Y6071617D01*
X9649146Y6092751D01*
X9645052Y6096846D01*
X9653336Y6116846D01*
X10347066D01*
X10355350Y6096846D01*
X10351256Y6092751D01*
X10342502Y6071617D01*
Y6048743D01*
X10351256Y6027609D01*
X10367431Y6011434D01*
X10388565Y6002680D01*
X10411439D01*
X10432573Y6011434D01*
X10443085Y6021946D01*
X11144720D01*
X11159352Y6024856D01*
X11171756Y6033144D01*
X11329308Y6190696D01*
X11347786Y6183043D01*
D02*
G37*
G36*
X6020000Y6472882D02*
X6034021Y6470093D01*
X6164371D01*
X6172656Y6450093D01*
X6171752Y6449189D01*
X6162998Y6428055D01*
Y6405181D01*
X6171752Y6384047D01*
X6186761Y6369038D01*
X6184336Y6365408D01*
X6181426Y6350776D01*
Y6202420D01*
X6184336Y6187788D01*
X6192624Y6175384D01*
X6515276Y5852732D01*
X6507623Y5834254D01*
X6000000D01*
Y6461905D01*
X6019344Y6472977D01*
X6020000Y6472882D01*
D02*
G37*
G36*
X7782736Y5739308D02*
X7736047Y5692618D01*
X7736040Y5692621D01*
X7713165D01*
X7692031Y5683867D01*
X7675856Y5667692D01*
X7667103Y5646558D01*
Y5623684D01*
X7661544Y5615365D01*
X7234562D01*
X7223450Y5631995D01*
X7224580Y5634723D01*
Y5657597D01*
X7215826Y5678731D01*
X7199651Y5694906D01*
X7178517Y5703660D01*
X7178006D01*
Y5723637D01*
X7172146Y5737785D01*
X7182369Y5757786D01*
X7775083D01*
X7782736Y5739308D01*
D02*
G37*
G36*
X9061690Y5665979D02*
X9054036Y5647501D01*
X8934232D01*
X8919600Y5644590D01*
X8907196Y5636302D01*
X8905525Y5634631D01*
X8893741D01*
X8872607Y5625877D01*
X8862095Y5615365D01*
X8030747D01*
X8022463Y5635365D01*
X8029171Y5642074D01*
X8037925Y5663208D01*
Y5686083D01*
X8029171Y5707216D01*
X8012996Y5723391D01*
X7991863Y5732145D01*
X7988515D01*
X7984451Y5737786D01*
X7994692Y5757786D01*
X8969883D01*
X9061690Y5665979D01*
D02*
G37*
G36*
X7068867Y5737785D02*
X7063006Y5723637D01*
Y5700763D01*
X7071760Y5679629D01*
X7087935Y5663454D01*
X7109069Y5654700D01*
X7109580D01*
Y5634723D01*
X7110710Y5631995D01*
X7099598Y5615365D01*
X6000000D01*
Y5757786D01*
X7058643D01*
X7068867Y5737785D01*
D02*
G37*
G36*
X11347786Y5684649D02*
Y5426962D01*
X11327786Y5424992D01*
X11327364Y5427112D01*
X11319076Y5439516D01*
X11253036Y5505556D01*
X11240632Y5513844D01*
X11226000Y5516754D01*
X11188438D01*
X11177501Y5533123D01*
Y5547988D01*
X11281672Y5652160D01*
X11285697D01*
X11306831Y5660914D01*
X11323006Y5677089D01*
X11327786Y5688627D01*
X11347786Y5684649D01*
D02*
G37*
G36*
X8872607Y5528385D02*
X8893741Y5519631D01*
X8916615D01*
X8920670Y5521311D01*
X8944076Y5517068D01*
X8954587Y5506557D01*
Y5489277D01*
X8738113Y5272803D01*
X7814683D01*
X7804171Y5283314D01*
X7783037Y5292068D01*
X7760163D01*
X7739029Y5283314D01*
X7722854Y5267139D01*
X7714100Y5246006D01*
Y5223131D01*
X7710031Y5217041D01*
X7694635D01*
X7683723Y5230929D01*
X7681780Y5234874D01*
Y5256277D01*
X7673026Y5277411D01*
X7656851Y5293586D01*
X7635717Y5302340D01*
X7612843D01*
X7591709Y5293586D01*
X7575534Y5277411D01*
X7574635Y5275241D01*
X7551043Y5270548D01*
X7529396Y5292196D01*
X7516992Y5300484D01*
X7502360Y5303394D01*
X6781000D01*
X6766368Y5300484D01*
X6753964Y5292196D01*
X6574663Y5112894D01*
X6000000D01*
Y5538897D01*
X8862095D01*
X8872607Y5528385D01*
D02*
G37*
G36*
X9551280Y5110348D02*
X9555780Y5097389D01*
X9550784Y5084355D01*
X9541677Y5075247D01*
X9532923Y5054114D01*
Y5031239D01*
X9541677Y5010105D01*
X9557852Y4993930D01*
X9578985Y4985176D01*
X9599999D01*
Y4963563D01*
X9608753Y4942429D01*
X9624928Y4926254D01*
X9646062Y4917500D01*
X9668936D01*
X9690070Y4926254D01*
X9706245Y4942429D01*
X9714999Y4963563D01*
Y4986438D01*
X9706245Y5007572D01*
X9690070Y5023747D01*
X9668936Y5032500D01*
X9647923D01*
Y5054114D01*
X9640388Y5072306D01*
X9645056Y5084193D01*
X9650395Y5092306D01*
X9853768D01*
X9867132Y5072305D01*
X9865480Y5068317D01*
Y5045443D01*
X9874234Y5024309D01*
X9890409Y5008134D01*
X9911543Y4999380D01*
X9934417D01*
X9955551Y5008134D01*
X9971726Y5024309D01*
X9980480Y5045443D01*
Y5068317D01*
X9978828Y5072305D01*
X9992192Y5092306D01*
X10067244D01*
X10073283Y5081582D01*
X10076644Y5072306D01*
X10068680Y5053077D01*
Y5030203D01*
X10077434Y5009069D01*
X10093609Y4992894D01*
X10114743Y4984140D01*
X10137617D01*
X10158751Y4992894D01*
X10169263Y5003406D01*
X11022800D01*
X11037432Y5006316D01*
X11049836Y5014604D01*
X11222571Y5187340D01*
X11237437D01*
X11253806Y5176403D01*
Y4800937D01*
X10606788Y4153920D01*
X10589833Y4165249D01*
X10592498Y4171683D01*
Y4194557D01*
X10583744Y4215691D01*
X10575675Y4223760D01*
X10583744Y4231829D01*
X10592498Y4252963D01*
Y4275837D01*
X10583744Y4296971D01*
X10567569Y4313146D01*
X10546435Y4321900D01*
X10531569D01*
X10036254Y4817216D01*
X10023850Y4825504D01*
X10009218Y4828414D01*
X9366682D01*
X9335739Y4859357D01*
Y4887335D01*
X9332829Y4901967D01*
X9324541Y4914371D01*
X9256596Y4982316D01*
X9244192Y4990604D01*
X9229560Y4993514D01*
X8873009D01*
X8858377Y4990604D01*
X8845973Y4982316D01*
X8828296Y4964638D01*
X8820007Y4952234D01*
X8817296Y4938602D01*
X8797421Y4930370D01*
X8781246Y4914195D01*
X8772492Y4893061D01*
Y4870186D01*
X8781246Y4849052D01*
X8797421Y4832877D01*
X8818555Y4824123D01*
X8841430D01*
X8862564Y4832877D01*
X8878739Y4849052D01*
X8887493Y4870186D01*
Y4893061D01*
X8886122Y4896370D01*
X8890655Y4903155D01*
X8893418Y4917046D01*
X8924244D01*
X8932528Y4897046D01*
X8924274Y4888791D01*
X8915520Y4867657D01*
Y4852791D01*
X8540623Y4477894D01*
X7794363D01*
X7783851Y4488406D01*
X7762717Y4497160D01*
X7739843D01*
X7718709Y4488406D01*
X7702534Y4472231D01*
X7693780Y4451097D01*
Y4428223D01*
X7702534Y4407089D01*
X7718709Y4390914D01*
X7739843Y4382160D01*
X7762717D01*
X7783851Y4390914D01*
X7794363Y4401426D01*
X8556460D01*
X8571092Y4404336D01*
X8583496Y4412624D01*
X8969591Y4798720D01*
X8984457D01*
X9005591Y4807474D01*
X9021766Y4823649D01*
X9030520Y4844783D01*
Y4867657D01*
X9021766Y4888791D01*
X9013512Y4897046D01*
X9021796Y4917046D01*
X9213723D01*
X9259271Y4871498D01*
Y4843520D01*
X9262181Y4828888D01*
X9270469Y4816484D01*
X9323809Y4763144D01*
X9336213Y4754856D01*
X9350845Y4751946D01*
X9993381D01*
X10477498Y4267828D01*
Y4252963D01*
X10486252Y4231829D01*
X10494321Y4223760D01*
X10486252Y4215691D01*
X10477498Y4194557D01*
Y4171683D01*
X10484410Y4154994D01*
X10475675Y4134994D01*
X10054601D01*
X10046316Y4154994D01*
X10048749Y4157427D01*
X10057503Y4178561D01*
Y4201436D01*
X10048749Y4222569D01*
X10032574Y4238744D01*
X10011440Y4247498D01*
X9988565D01*
X9967432Y4238744D01*
X9951257Y4222569D01*
X9943638Y4204177D01*
X9932404Y4199210D01*
X9922503Y4197028D01*
X9914456Y4205076D01*
X9902052Y4213364D01*
X9887420Y4216274D01*
X7711874D01*
X7697243Y4213364D01*
X7684839Y4205076D01*
X7588303Y4108540D01*
X7573437D01*
X7552303Y4099786D01*
X7536128Y4083611D01*
X7533380Y4076976D01*
X7509788Y4072283D01*
X7402396Y4179676D01*
X7389992Y4187964D01*
X7375360Y4190874D01*
X7274502D01*
X7259870Y4187964D01*
X7247466Y4179676D01*
X7178128Y4110338D01*
X7163263D01*
X7146894Y4121275D01*
Y4319683D01*
X7348017Y4520806D01*
X7776680D01*
X7791312Y4523716D01*
X7803716Y4532004D01*
X7849015Y4577304D01*
X7857304Y4589708D01*
X7860214Y4604340D01*
Y5135121D01*
X7857304Y5149752D01*
X7849015Y5162156D01*
X7833316Y5177856D01*
X7840969Y5196334D01*
X8753950D01*
X8768582Y5199244D01*
X8780986Y5207532D01*
X8782774Y5209321D01*
X8806052Y5204314D01*
X8810006Y5194770D01*
X8826181Y5178595D01*
X8847315Y5169841D01*
X8870189D01*
X8891323Y5178595D01*
X8907498Y5194770D01*
X8916252Y5215903D01*
Y5238778D01*
X8907498Y5259912D01*
X8891323Y5276087D01*
X8881778Y5280040D01*
X8876772Y5303319D01*
X9019858Y5446404D01*
X9028146Y5458808D01*
X9031056Y5473440D01*
Y5506557D01*
X9041568Y5517069D01*
X9050322Y5538203D01*
Y5561077D01*
X9056974Y5571032D01*
X9090596D01*
X9551280Y5110348D01*
D02*
G37*
G36*
X11033864Y5451484D02*
X11046268Y5443196D01*
X11060900Y5440286D01*
X11210163D01*
X11253806Y5396643D01*
Y5313277D01*
X11237437Y5302340D01*
X11214563D01*
X11193429Y5293586D01*
X11177254Y5277411D01*
X11168500Y5256277D01*
Y5241411D01*
X11006963Y5079874D01*
X10492334D01*
X10486295Y5090598D01*
X10482934Y5099874D01*
X10490898Y5119103D01*
Y5141977D01*
X10482144Y5163111D01*
X10465969Y5179286D01*
X10444835Y5188040D01*
X10421961D01*
X10400827Y5179286D01*
X10390315Y5168774D01*
X9667037D01*
X9050784Y5785028D01*
X9058437Y5803506D01*
X10681843D01*
X11033864Y5451484D01*
D02*
G37*
G36*
X10961557Y7000000D02*
X10964483Y6985290D01*
X10972815Y6972820D01*
X10985286Y6964488D01*
X10999996Y6961562D01*
X11711558D01*
Y1038441D01*
X10999996D01*
X10985286Y1035515D01*
X10972815Y1027182D01*
X10964483Y1014712D01*
X10961557Y1000002D01*
Y809384D01*
X10952087Y803675D01*
X10941557Y799721D01*
X10922777Y807500D01*
X10899902D01*
X10878768Y798746D01*
X10862593Y782571D01*
X10853840Y761437D01*
Y738563D01*
X10862593Y717429D01*
X10878768Y701254D01*
X10899902Y692500D01*
X10922777D01*
X10941557Y700279D01*
X10952087Y696325D01*
X10961557Y690616D01*
Y626771D01*
X10941557Y613196D01*
X10925492Y617500D01*
X10897187D01*
X10869846Y610175D01*
X10845333Y596022D01*
X10825318Y576007D01*
X10811166Y551494D01*
X10803840Y524153D01*
Y495848D01*
X10811166Y468507D01*
X10825318Y443994D01*
X10845333Y423979D01*
X10869846Y409826D01*
X10897187Y402501D01*
X10925492D01*
X10941557Y406805D01*
X10961557Y393230D01*
Y288440D01*
X6000000D01*
Y915382D01*
X6020000Y926072D01*
X6021406Y925133D01*
Y751580D01*
X6024316Y736948D01*
X6032604Y724544D01*
X6073244Y683904D01*
X6085648Y675616D01*
X6100280Y672706D01*
X6207879D01*
X6222511Y675616D01*
X6234915Y683904D01*
X6276866Y725855D01*
X6315791D01*
X6326303Y715343D01*
X6344683Y707730D01*
X6347104Y698036D01*
X6346672Y686906D01*
X6336845Y682835D01*
X6320670Y666660D01*
X6311916Y645527D01*
Y622652D01*
X6320670Y601518D01*
X6336845Y585343D01*
X6357978Y576589D01*
X6380853D01*
X6401987Y585343D01*
X6418162Y601518D01*
X6426916Y622652D01*
Y645527D01*
X6418162Y666660D01*
X6401987Y682835D01*
X6383606Y690449D01*
X6381185Y700142D01*
X6381617Y711273D01*
X6391445Y715343D01*
X6407620Y731518D01*
X6416374Y752652D01*
Y775527D01*
X6407620Y796661D01*
X6391445Y812836D01*
X6383034Y816320D01*
X6391460Y836663D01*
Y859537D01*
X6388229Y867337D01*
X6404631Y874131D01*
X6420806Y890306D01*
X6424180Y898452D01*
X6444180Y894474D01*
Y846375D01*
X6448061Y826866D01*
X6459112Y810327D01*
X6607450Y661989D01*
X6623989Y650937D01*
X6643498Y647057D01*
X6725485D01*
X6727651Y643816D01*
Y620941D01*
X6736405Y599808D01*
X6752580Y583633D01*
X6761419Y579971D01*
X6757441Y559971D01*
X6743317D01*
X6722184Y551217D01*
X6706009Y535042D01*
X6697255Y513909D01*
Y491034D01*
X6706009Y469900D01*
X6722184Y453725D01*
X6743317Y444971D01*
X6766192D01*
X6787326Y453725D01*
X6803501Y469900D01*
X6812255Y491034D01*
Y513909D01*
X6803501Y535042D01*
X6787326Y551217D01*
X6778487Y554879D01*
X6782465Y574879D01*
X6796588D01*
X6817722Y583633D01*
X6820580Y586491D01*
X6831834D01*
X7051921Y366404D01*
X7064325Y358116D01*
X7078956Y355206D01*
X8299920D01*
X8314552Y358116D01*
X8326956Y366404D01*
X8393651Y433099D01*
X8407933Y447101D01*
X8429066Y438348D01*
X8451941D01*
X8473075Y447102D01*
X8489250Y463277D01*
X8498004Y484411D01*
X8498004Y495451D01*
X8517839Y495847D01*
X8519839Y488386D01*
X8525166Y468507D01*
X8539318Y443994D01*
X8559333Y423979D01*
X8583846Y409826D01*
X8611187Y402501D01*
X8639492D01*
X8666833Y409826D01*
X8691346Y423979D01*
X8711361Y443994D01*
X8725514Y468507D01*
X8732840Y495848D01*
Y524153D01*
X8725514Y551494D01*
X8711361Y576007D01*
X8691346Y596022D01*
X8666833Y610175D01*
X8639492Y617500D01*
X8611187D01*
X8583846Y610175D01*
X8559333Y596022D01*
X8539318Y576007D01*
X8525166Y551494D01*
X8517840Y524153D01*
X8517839Y507682D01*
X8498004Y507286D01*
X8495081Y514342D01*
X8489250Y528419D01*
X8473075Y544594D01*
X8451941Y553348D01*
X8429066D01*
X8424677Y551530D01*
X8408047Y562641D01*
Y601720D01*
X8405137Y616352D01*
X8396849Y628756D01*
X8253433Y772171D01*
X8241029Y780459D01*
X8226398Y783370D01*
X7648334D01*
X7336786Y1094918D01*
Y1136208D01*
X7356786Y1144492D01*
X7363747Y1137531D01*
X7384881Y1128777D01*
X7407756D01*
X7428889Y1137531D01*
X7445064Y1153706D01*
X7453818Y1174840D01*
Y1197715D01*
X7445064Y1218848D01*
X7437005Y1226907D01*
X7445290Y1246907D01*
X7534502D01*
X7542787Y1226907D01*
X7534728Y1218848D01*
X7525974Y1197715D01*
Y1174840D01*
X7534728Y1153706D01*
X7550903Y1137531D01*
X7572036Y1128777D01*
X7594911D01*
X7616045Y1137531D01*
X7632220Y1153706D01*
X7640974Y1174840D01*
Y1197715D01*
X7632220Y1218848D01*
X7624161Y1226907D01*
X7632445Y1246907D01*
X7721551D01*
X7729835Y1226907D01*
X7726748Y1223820D01*
X7717994Y1202686D01*
Y1179812D01*
X7726748Y1158678D01*
X7742923Y1142503D01*
X7764057Y1133749D01*
X7786932D01*
X7808065Y1142503D01*
X7824240Y1158678D01*
X7832994Y1179812D01*
Y1202686D01*
X7824240Y1223820D01*
X7821153Y1226907D01*
X7829438Y1246907D01*
X7916086D01*
X7924370Y1226907D01*
X7916312Y1218848D01*
X7907558Y1197715D01*
Y1174840D01*
X7916312Y1153706D01*
X7932487Y1137531D01*
X7953620Y1128777D01*
X7976495D01*
X7997629Y1137531D01*
X8013804Y1153706D01*
X8022558Y1174840D01*
Y1197715D01*
X8013804Y1218848D01*
X8005745Y1226907D01*
X8014029Y1246907D01*
X8097328D01*
X8105612Y1226907D01*
X8097554Y1218848D01*
X8088800Y1197715D01*
Y1174840D01*
X8097554Y1153706D01*
X8113729Y1137531D01*
X8134862Y1128777D01*
X8157737D01*
X8178871Y1137531D01*
X8195046Y1153706D01*
X8203800Y1174840D01*
Y1197715D01*
X8195046Y1218848D01*
X8186987Y1226907D01*
X8195271Y1246907D01*
X8291588D01*
X8299873Y1226907D01*
X8291814Y1218848D01*
X8283060Y1197715D01*
Y1174840D01*
X8291814Y1153706D01*
X8307989Y1137531D01*
X8329123Y1128777D01*
X8351997D01*
X8373131Y1137531D01*
X8389306Y1153706D01*
X8398060Y1174840D01*
Y1197715D01*
X8389306Y1218848D01*
X8381247Y1226907D01*
X8389532Y1246907D01*
X8474446D01*
X8482731Y1226907D01*
X8474672Y1218848D01*
X8465918Y1197715D01*
Y1174840D01*
X8474672Y1153706D01*
X8490847Y1137531D01*
X8511981Y1128777D01*
X8534855D01*
X8555989Y1137531D01*
X8572164Y1153706D01*
X8580918Y1174840D01*
Y1197715D01*
X8572164Y1218848D01*
X8564105Y1226907D01*
X8572390Y1246907D01*
X8667427D01*
X8675711Y1226907D01*
X8667652Y1218848D01*
X8658899Y1197715D01*
Y1174840D01*
X8667652Y1153706D01*
X8683827Y1137531D01*
X8704961Y1128777D01*
X8727836D01*
X8748970Y1137531D01*
X8765145Y1153706D01*
X8773899Y1174840D01*
Y1197715D01*
X8765145Y1218848D01*
X8757086Y1226907D01*
X8765370Y1246907D01*
X8857194D01*
X8865478Y1226907D01*
X8857419Y1218848D01*
X8848666Y1197715D01*
Y1174840D01*
X8857419Y1153706D01*
X8873594Y1137531D01*
X8894728Y1128777D01*
X8917603D01*
X8938737Y1137531D01*
X8954912Y1153706D01*
X8963666Y1174840D01*
Y1197715D01*
X8954912Y1218848D01*
X8946853Y1226907D01*
X8955137Y1246907D01*
X9059086D01*
X9067370Y1226907D01*
X9059312Y1218848D01*
X9050558Y1197715D01*
Y1174840D01*
X9059312Y1153706D01*
X9075487Y1137531D01*
X9096620Y1128777D01*
X9119495D01*
X9140629Y1137531D01*
X9156804Y1153706D01*
X9165558Y1174840D01*
Y1197715D01*
X9156804Y1218848D01*
X9148745Y1226907D01*
X9157029Y1246907D01*
X9249537D01*
X9257821Y1226907D01*
X9249762Y1218848D01*
X9241008Y1197715D01*
Y1174840D01*
X9249762Y1153706D01*
X9265937Y1137531D01*
X9287071Y1128777D01*
X9309946D01*
X9331080Y1137531D01*
X9347255Y1153706D01*
X9356008Y1174840D01*
Y1197715D01*
X9347255Y1218848D01*
X9339196Y1226907D01*
X9347480Y1246907D01*
X9434588D01*
X9442873Y1226907D01*
X9434814Y1218848D01*
X9426060Y1197715D01*
Y1174840D01*
X9434814Y1153706D01*
X9450989Y1137531D01*
X9472123Y1128777D01*
X9494997D01*
X9516131Y1137531D01*
X9532306Y1153706D01*
X9541060Y1174840D01*
Y1197715D01*
X9532306Y1218848D01*
X9524247Y1226907D01*
X9532532Y1246907D01*
X9625055D01*
X9633339Y1226907D01*
X9625280Y1218848D01*
X9616527Y1197715D01*
Y1174840D01*
X9625280Y1153706D01*
X9641455Y1137531D01*
X9662589Y1128777D01*
X9685464D01*
X9706598Y1137531D01*
X9722773Y1153706D01*
X9731527Y1174840D01*
Y1197715D01*
X9722773Y1218848D01*
X9714714Y1226907D01*
X9722998Y1246907D01*
X9811556D01*
X9819840Y1226907D01*
X9811781Y1218848D01*
X9803028Y1197715D01*
Y1174840D01*
X9811781Y1153706D01*
X9827956Y1137531D01*
X9849090Y1128777D01*
X9871965D01*
X9893099Y1137531D01*
X9909274Y1153706D01*
X9918028Y1174840D01*
Y1197715D01*
X9909274Y1218848D01*
X9901215Y1226907D01*
X9909499Y1246907D01*
X10001029D01*
X10009313Y1226907D01*
X10001254Y1218848D01*
X9992500Y1197715D01*
Y1174840D01*
X10001254Y1153706D01*
X10017429Y1137531D01*
X10038563Y1128777D01*
X10061438D01*
X10082571Y1137531D01*
X10098746Y1153706D01*
X10107500Y1174840D01*
Y1197715D01*
X10098746Y1218848D01*
X10090687Y1226907D01*
X10098972Y1246907D01*
X10395346D01*
X10403631Y1226907D01*
X10395572Y1218848D01*
X10386818Y1197715D01*
Y1174840D01*
X10395572Y1153706D01*
X10411747Y1137531D01*
X10432881Y1128777D01*
X10455756D01*
X10476889Y1137531D01*
X10493064Y1153706D01*
X10501818Y1174840D01*
Y1197715D01*
X10493064Y1218848D01*
X10485005Y1226907D01*
X10493290Y1246907D01*
X10586349D01*
X10594634Y1226907D01*
X10586575Y1218848D01*
X10577821Y1197715D01*
Y1174840D01*
X10586575Y1153706D01*
X10602750Y1137531D01*
X10623884Y1128777D01*
X10646758D01*
X10667892Y1137531D01*
X10684067Y1153706D01*
X10692821Y1174840D01*
Y1197715D01*
X10684067Y1218848D01*
X10676008Y1226907D01*
X10684293Y1246907D01*
X10776028D01*
X10784313Y1226907D01*
X10776254Y1218848D01*
X10767500Y1197715D01*
Y1174840D01*
X10776254Y1153706D01*
X10792429Y1137531D01*
X10813563Y1128777D01*
X10836437D01*
X10857571Y1137531D01*
X10873746Y1153706D01*
X10882500Y1174840D01*
Y1197715D01*
X10873746Y1218848D01*
X10865687Y1226907D01*
X10873972Y1246907D01*
X10949348D01*
X10957633Y1226907D01*
X10949574Y1218848D01*
X10940820Y1197715D01*
Y1174840D01*
X10949574Y1153706D01*
X10965749Y1137531D01*
X10986883Y1128777D01*
X11009757D01*
X11030891Y1137531D01*
X11047066Y1153706D01*
X11055820Y1174840D01*
Y1197715D01*
X11047066Y1218848D01*
X11037684Y1228231D01*
X11043535Y1249786D01*
X11043693Y1249818D01*
X11056097Y1258106D01*
X11410516Y1612525D01*
X11418804Y1624929D01*
X11421714Y1639561D01*
Y1871720D01*
X11418804Y1886352D01*
X11410516Y1898756D01*
X11369876Y1939396D01*
X11357472Y1947684D01*
X11342840Y1950594D01*
X11251400D01*
X11236768Y1947684D01*
X11224364Y1939396D01*
X11202110Y1917142D01*
X11185155Y1928471D01*
X11186369Y1931403D01*
Y1954277D01*
X11177615Y1975411D01*
X11161440Y1991586D01*
X11140307Y2000340D01*
X11117432D01*
X11096298Y1991586D01*
X11080123Y1975411D01*
X11071369Y1954277D01*
Y1939411D01*
X11044452Y1912494D01*
X10832157D01*
X10821220Y1928863D01*
Y1951737D01*
X10812466Y1972871D01*
X10796291Y1989046D01*
X10775157Y1997800D01*
X10752283D01*
X10731149Y1989046D01*
X10714974Y1972871D01*
X10711604Y1964735D01*
X10689956D01*
X10686586Y1972871D01*
X10670411Y1989046D01*
X10649277Y1997800D01*
X10634411D01*
X10571357Y2060854D01*
Y2079457D01*
X10568447Y2094089D01*
X10560158Y2106493D01*
X10463096Y2203556D01*
X10450692Y2211844D01*
X10436060Y2214754D01*
X7131520D01*
X7116888Y2211844D01*
X7104484Y2203556D01*
X6960864Y2059936D01*
X6942387Y2067589D01*
Y2565324D01*
X6948907Y2581065D01*
Y2603940D01*
X6940153Y2625074D01*
X6923978Y2641249D01*
X6923804Y2641321D01*
X6927782Y2661321D01*
X7624456D01*
X7825001Y2460776D01*
Y2446200D01*
X7833755Y2425066D01*
X7849930Y2408891D01*
X7871064Y2400137D01*
X7893939D01*
X7915073Y2408891D01*
X7931248Y2425066D01*
X7940001Y2446200D01*
Y2469074D01*
X7931248Y2490208D01*
X7915073Y2506383D01*
X7893939Y2515137D01*
X7879362D01*
X7686933Y2707566D01*
X7695218Y2727566D01*
X8535543D01*
X8918044Y2345064D01*
X8930448Y2336776D01*
X8945080Y2333866D01*
X11012737D01*
X11023249Y2323354D01*
X11044383Y2314600D01*
X11067257D01*
X11088391Y2323354D01*
X11104566Y2339529D01*
X11113320Y2360663D01*
Y2376102D01*
X11118561Y2379604D01*
X11141435D01*
X11162569Y2388357D01*
X11178744Y2404532D01*
X11187498Y2425666D01*
Y2448541D01*
X11178744Y2469675D01*
X11162569Y2485850D01*
X11141435Y2494604D01*
X11118561D01*
X11097427Y2485850D01*
X11088933Y2477356D01*
X10974137D01*
X10961607Y2489886D01*
X10940473Y2498640D01*
X10917599D01*
X10896465Y2489886D01*
X10880290Y2473711D01*
X10871536Y2452577D01*
Y2429703D01*
X10872670Y2426964D01*
X10861559Y2410334D01*
X9570334D01*
X9545957Y2434711D01*
Y2449577D01*
X9537203Y2470711D01*
X9521028Y2486886D01*
X9499894Y2495640D01*
X9477020D01*
X9455886Y2486886D01*
X9439711Y2470711D01*
X9430957Y2449577D01*
Y2426703D01*
X9420020Y2410334D01*
X8960917D01*
X8578416Y2792836D01*
X8566012Y2801124D01*
X8551380Y2804034D01*
X7340587D01*
X7330075Y2814546D01*
X7308941Y2823300D01*
X7294075D01*
X7261383Y2855992D01*
X7265072Y2874534D01*
X7281246Y2890709D01*
X7283672Y2896565D01*
X7503533Y3116427D01*
X7683220D01*
X7696584Y3096426D01*
X7693780Y3089657D01*
Y3066783D01*
X7702534Y3045649D01*
X7718709Y3029474D01*
X7739843Y3020720D01*
X7762717D01*
X7783851Y3029474D01*
X7800026Y3045649D01*
X7808780Y3066783D01*
Y3089657D01*
X7805976Y3096426D01*
X7819340Y3116427D01*
X8323272D01*
X8337904Y3119337D01*
X8350308Y3127625D01*
X8466946Y3244263D01*
X8557335D01*
X8558286Y3242753D01*
X8563467Y3224263D01*
X8551254Y3212051D01*
X8542501Y3190917D01*
Y3168042D01*
X8551254Y3146908D01*
X8567429Y3130733D01*
X8588563Y3121980D01*
X8611438D01*
X8632572Y3130733D01*
X8648747Y3146908D01*
X8657501Y3168042D01*
Y3190917D01*
X8648747Y3212051D01*
X8636534Y3224263D01*
X8641716Y3242753D01*
X8642666Y3244263D01*
X10957837D01*
X10972469Y3247173D01*
X10984873Y3255462D01*
X11115891Y3386480D01*
X11130757D01*
X11151891Y3395234D01*
X11168066Y3411409D01*
X11176820Y3432543D01*
Y3455417D01*
X11168066Y3476551D01*
X11151891Y3492726D01*
X11130757Y3501480D01*
X11107883D01*
X11086749Y3492726D01*
X11070574Y3476551D01*
X11061820Y3455417D01*
Y3440551D01*
X10942000Y3320732D01*
X9871584D01*
X9866353Y3328560D01*
Y3351435D01*
X9857599Y3372569D01*
X9841424Y3388744D01*
X9820290Y3397497D01*
X9797416D01*
X9776282Y3388744D01*
X9760107Y3372569D01*
X9751353Y3351435D01*
Y3328560D01*
X9746122Y3320732D01*
X8451109D01*
X8436477Y3317821D01*
X8424073Y3309533D01*
X8307435Y3192895D01*
X7487696D01*
X7473065Y3189985D01*
X7460660Y3181697D01*
X7366631Y3087667D01*
X7347015Y3091569D01*
X7345366Y3095551D01*
X7329191Y3111726D01*
X7308057Y3120480D01*
X7293191D01*
X7146894Y3266777D01*
Y3984401D01*
X7163263Y3995338D01*
X7186137D01*
X7207271Y4004092D01*
X7223446Y4020267D01*
X7232200Y4041401D01*
Y4056267D01*
X7290339Y4114406D01*
X7359523D01*
X7402530Y4071398D01*
X7398679Y4046965D01*
X7387350Y4035636D01*
X7378596Y4014502D01*
Y3996890D01*
X7374221Y3988263D01*
X7362179Y3979000D01*
X7346651D01*
X7325517Y3970246D01*
X7309342Y3954071D01*
X7300588Y3932937D01*
Y3910063D01*
X7309342Y3888929D01*
X7325517Y3872754D01*
X7346651Y3864000D01*
X7361516D01*
X7508852Y3716664D01*
X7521256Y3708376D01*
X7535888Y3705466D01*
X10858480D01*
X10873112Y3708376D01*
X10885516Y3716664D01*
X10996511Y3827660D01*
X11011377D01*
X11032511Y3836414D01*
X11048686Y3852589D01*
X11057440Y3873723D01*
Y3896597D01*
X11048686Y3917731D01*
X11032511Y3933906D01*
X11011377Y3942660D01*
X11003099D01*
X10997534Y3949440D01*
Y4036947D01*
X11013568Y4047660D01*
X11036442D01*
X11057576Y4056414D01*
X11073751Y4072589D01*
X11076680Y4079660D01*
X11098328D01*
X11101257Y4072589D01*
X11117432Y4056414D01*
X11138566Y4047660D01*
X11161440D01*
X11182574Y4056414D01*
X11198749Y4072589D01*
X11207503Y4093723D01*
Y4116597D01*
X11198749Y4137731D01*
X11182574Y4153906D01*
X11161440Y4162660D01*
X11138566D01*
X11117432Y4153906D01*
X11101257Y4137731D01*
X11098328Y4130660D01*
X11076680D01*
X11073751Y4137731D01*
X11057576Y4153906D01*
X11036442Y4162660D01*
X11013568D01*
X10997534Y4173373D01*
Y4304443D01*
X11413056Y4719964D01*
X11421344Y4732368D01*
X11424254Y4747000D01*
Y6672547D01*
X11421344Y6687179D01*
X11413056Y6699583D01*
X11347428Y6765210D01*
X11335024Y6773498D01*
X11320393Y6776409D01*
X11042857D01*
X10748238Y7071028D01*
Y7388954D01*
X10751497Y7389828D01*
X10776010Y7403980D01*
X10796025Y7423995D01*
X10810178Y7448508D01*
X10817504Y7475849D01*
Y7504154D01*
X10810178Y7531495D01*
X10796025Y7556008D01*
X10776010Y7576023D01*
X10751497Y7590176D01*
X10724157Y7597502D01*
X10695851D01*
X10668511Y7590176D01*
X10643998Y7576023D01*
X10623983Y7556008D01*
X10609830Y7531495D01*
X10602504Y7504154D01*
Y7475849D01*
X10609830Y7448508D01*
X10623983Y7423995D01*
X10643998Y7403980D01*
X10668511Y7389828D01*
X10671770Y7388954D01*
Y7055190D01*
X10674680Y7040559D01*
X10682968Y7028155D01*
X10974471Y6736652D01*
X10966817Y6718174D01*
X10704686D01*
X10167245Y7255616D01*
X10154841Y7263904D01*
X10140209Y7266814D01*
X7245469D01*
X7145435Y7366848D01*
Y7381714D01*
X7136681Y7402848D01*
X7120506Y7419023D01*
X7099373Y7427777D01*
X7076498D01*
X7055364Y7419023D01*
X7039189Y7402848D01*
X7030435Y7381714D01*
Y7358839D01*
X7039189Y7337705D01*
X7055364Y7321530D01*
X7076498Y7312777D01*
X7091364D01*
X7202596Y7201544D01*
X7215000Y7193256D01*
X7229632Y7190346D01*
X10124372D01*
X10661814Y6652904D01*
X10674218Y6644616D01*
X10688849Y6641706D01*
X11286363D01*
X11302066Y6626003D01*
Y6562461D01*
X11286439Y6552020D01*
X11271573D01*
X11248563Y6575030D01*
X11236159Y6583318D01*
X11221527Y6586229D01*
X10336001D01*
X10321370Y6583318D01*
X10308966Y6575030D01*
X10182422Y6448486D01*
X10179500Y6450173D01*
X10152159Y6457499D01*
X10123854D01*
X10096513Y6450173D01*
X10072000Y6436020D01*
X10051985Y6416005D01*
X10037832Y6391492D01*
X10030506Y6364152D01*
Y6335846D01*
X10037832Y6308506D01*
X10039519Y6305584D01*
X10017321Y6283385D01*
X9865771D01*
X9854224Y6303385D01*
X9857180Y6308506D01*
X9864506Y6335846D01*
Y6364152D01*
X9857180Y6391492D01*
X9843028Y6416005D01*
X9823013Y6436020D01*
X9798500Y6450173D01*
X9771159Y6457499D01*
X9742854D01*
X9715513Y6450173D01*
X9691000Y6436020D01*
X9670985Y6416005D01*
X9656832Y6391492D01*
X9649506Y6364152D01*
Y6335846D01*
X9656832Y6308506D01*
X9659788Y6303385D01*
X9648241Y6283385D01*
X9484771D01*
X9473224Y6303385D01*
X9476180Y6308506D01*
X9483506Y6335846D01*
Y6364152D01*
X9476180Y6391492D01*
X9462028Y6416005D01*
X9442013Y6436020D01*
X9417500Y6450173D01*
X9390159Y6457499D01*
X9361854D01*
X9334513Y6450173D01*
X9331591Y6448486D01*
X9243281Y6536796D01*
X9230877Y6545084D01*
X9221864Y6546877D01*
X9219023Y6566811D01*
X9219019Y6567386D01*
X9235126Y6583493D01*
X9243880Y6604627D01*
Y6627501D01*
X9235126Y6648635D01*
X9218951Y6664810D01*
X9197817Y6673564D01*
X9174943D01*
X9153809Y6664810D01*
X9137634Y6648635D01*
X9128880Y6627501D01*
Y6604627D01*
X9137634Y6583493D01*
X9153132Y6567994D01*
X9152960Y6564396D01*
X9148197Y6547994D01*
X8727237D01*
X8611152Y6664079D01*
X8598748Y6672367D01*
X8584117Y6675277D01*
X7247169D01*
X7236657Y6685789D01*
X7215524Y6694543D01*
X7203321D01*
X7189400Y6713198D01*
X7189444Y6713303D01*
Y6736177D01*
X7180690Y6757311D01*
X7164515Y6773486D01*
X7143381Y6782240D01*
X7120506D01*
X7099373Y6773486D01*
X7083198Y6757311D01*
X7077360Y6743218D01*
X7074444Y6736177D01*
X7054444Y6729807D01*
X6954875Y6829376D01*
Y7067539D01*
X6951965Y7082170D01*
X6943677Y7094575D01*
X6863916Y7174336D01*
X6851512Y7182624D01*
X6836880Y7185534D01*
X6709880D01*
X6695248Y7182624D01*
X6682844Y7174336D01*
X6519497Y7010988D01*
X6511208Y6998584D01*
X6508298Y6983953D01*
Y6974038D01*
X6488298Y6965753D01*
X6454960Y6999091D01*
Y7013957D01*
X6446206Y7035091D01*
X6430031Y7051266D01*
X6408897Y7060020D01*
X6386023D01*
X6364889Y7051266D01*
X6348714Y7035091D01*
X6339960Y7013957D01*
Y6991083D01*
X6348714Y6969949D01*
X6348449Y6968618D01*
X6339489Y6964906D01*
X6323314Y6948731D01*
X6314560Y6927597D01*
Y6904723D01*
X6323314Y6883589D01*
X6339489Y6867414D01*
X6347677Y6864022D01*
X6338995Y6843061D01*
Y6820186D01*
X6347749Y6799052D01*
X6363924Y6782877D01*
X6385057Y6774124D01*
X6407932D01*
X6410345Y6775123D01*
X6430346Y6761760D01*
Y6684513D01*
X6410345Y6671149D01*
X6403817Y6673854D01*
X6380943D01*
X6359809Y6665100D01*
X6343634Y6648925D01*
X6334880Y6627791D01*
Y6604916D01*
X6343634Y6583782D01*
X6357090Y6570326D01*
X6359807Y6567530D01*
X6359457Y6546562D01*
X6049859D01*
X6007920Y6588500D01*
Y6603366D01*
X6000000Y6622487D01*
Y6678752D01*
X6020000Y6682730D01*
X6023594Y6674054D01*
X6039769Y6657879D01*
X6060903Y6649125D01*
X6083777D01*
X6104911Y6657879D01*
X6121086Y6674054D01*
X6129840Y6695188D01*
Y6718063D01*
X6121086Y6739196D01*
X6104911Y6755371D01*
X6083777Y6764125D01*
X6060903D01*
X6039769Y6755371D01*
X6023594Y6739196D01*
X6020000Y6730520D01*
X6000000Y6734498D01*
Y6794428D01*
X6017737D01*
X6038871Y6803182D01*
X6055046Y6819357D01*
X6063800Y6840491D01*
Y6863366D01*
X6055046Y6884500D01*
X6038871Y6900675D01*
X6017737Y6909428D01*
X6000000D01*
Y6954327D01*
X6020000Y6958305D01*
X6023594Y6949629D01*
X6039769Y6933454D01*
X6060903Y6924700D01*
X6083777D01*
X6104911Y6933454D01*
X6121086Y6949629D01*
X6129840Y6970763D01*
Y6993637D01*
X6127136Y7000165D01*
X6140500Y7020166D01*
X6232360D01*
X6246992Y7023076D01*
X6259396Y7031364D01*
X6388951Y7160920D01*
X6403817D01*
X6424951Y7169674D01*
X6441126Y7185849D01*
X6449880Y7206983D01*
Y7229857D01*
X6441126Y7250991D01*
X6424951Y7267166D01*
X6403817Y7275920D01*
X6380943D01*
X6359809Y7267166D01*
X6343634Y7250991D01*
X6334880Y7229857D01*
Y7214991D01*
X6216523Y7096634D01*
X6103916D01*
X6093693Y7116634D01*
X6099553Y7130783D01*
Y7153657D01*
X6090799Y7174791D01*
X6086296Y7179294D01*
X6075749Y7192360D01*
X6086296Y7205426D01*
X6090799Y7209929D01*
X6099553Y7231063D01*
Y7253937D01*
X6090799Y7275071D01*
X6074624Y7291246D01*
X6053490Y7300000D01*
X6030616D01*
X6020000Y7295603D01*
X6000000Y7307895D01*
Y7711563D01*
X10961557D01*
Y7000000D01*
D02*
G37*
G36*
X10923976Y4334911D02*
X10921066Y4320280D01*
Y4056545D01*
X10901065Y4046602D01*
X10886440Y4052660D01*
X10863565D01*
X10842431Y4043906D01*
X10826256Y4027731D01*
X10821054Y4015173D01*
X10820413Y4015052D01*
X10800230Y4017162D01*
X10793748Y4032811D01*
X10777573Y4048986D01*
X10756439Y4057740D01*
X10733565D01*
X10726920Y4054988D01*
X10706920Y4068351D01*
Y4077717D01*
X10698166Y4098851D01*
X10681991Y4115026D01*
X10681004Y4119992D01*
X10907975Y4346963D01*
X10923976Y4334911D01*
D02*
G37*
G36*
X4522657Y4107802D02*
X4522631Y4106849D01*
X4514779Y4087396D01*
X4499707Y4084397D01*
X4480687Y4071689D01*
X4467979Y4052669D01*
X4467013Y4047814D01*
X4445311Y4041231D01*
X4084779Y4401764D01*
X4092432Y4420242D01*
X4210217D01*
X4522657Y4107802D01*
D02*
G37*
G36*
X7783745Y5040890D02*
Y4620177D01*
X7760843Y4597274D01*
X7332180D01*
X7317548Y4594364D01*
X7305144Y4586076D01*
X7081624Y4362556D01*
X7073336Y4350152D01*
X7070426Y4335520D01*
Y3929898D01*
X7051860Y3926435D01*
X7043106Y3947569D01*
X7026931Y3963744D01*
X7005797Y3972498D01*
X6982923D01*
X6967591Y3982742D01*
Y4465815D01*
X7540742Y5038966D01*
X7720800D01*
X7735432Y5041876D01*
X7747836Y5050164D01*
X7747851Y5050180D01*
X7762717D01*
X7767116Y5052002D01*
X7783745Y5040890D01*
D02*
G37*
G36*
X9941664Y4069724D02*
X10020404Y3990984D01*
X10032808Y3982696D01*
X10047440Y3979786D01*
X10432089D01*
X10440654Y3960065D01*
X10431900Y3938932D01*
Y3921634D01*
X9944920D01*
Y3944375D01*
X9936166Y3965508D01*
X9919991Y3981683D01*
X9898857Y3990437D01*
X9875983D01*
X9854849Y3981683D01*
X9838674Y3965508D01*
X9838236Y3964453D01*
X9818621Y3960551D01*
X9762056Y4017116D01*
X9749652Y4025404D01*
X9735020Y4028314D01*
X9566960D01*
X9553596Y4048314D01*
X9556300Y4054843D01*
Y4077717D01*
X9547546Y4098851D01*
X9531371Y4115026D01*
X9519832Y4119806D01*
X9523811Y4139806D01*
X9871583D01*
X9941664Y4069724D01*
D02*
G37*
G36*
X8976667Y4119806D02*
X8967434Y4115981D01*
X8951259Y4099806D01*
X8942505Y4078672D01*
Y4055798D01*
X8951259Y4034664D01*
X8967434Y4018489D01*
X8988567Y4009735D01*
X9011442D01*
X9032576Y4018489D01*
X9048751Y4034664D01*
X9051482Y4041258D01*
X9073130D01*
X9076257Y4033709D01*
X9089992Y4019974D01*
X9093773Y4010792D01*
X9096315Y3998013D01*
X8986568Y3888267D01*
X8965826Y3889575D01*
X8954801Y3906074D01*
X8957505Y3912603D01*
Y3935477D01*
X8948751Y3956611D01*
X8932576Y3972786D01*
X8911442Y3981540D01*
X8899999D01*
Y4004057D01*
X8891246Y4025191D01*
X8875071Y4041366D01*
X8853937Y4050120D01*
X8831062D01*
X8809928Y4041366D01*
X8793753Y4025191D01*
X8784999Y4004057D01*
Y3981183D01*
X8793753Y3960049D01*
X8809928Y3943874D01*
X8831062Y3935120D01*
X8842505D01*
Y3912603D01*
X8845209Y3906074D01*
X8831845Y3886074D01*
X7821943D01*
X7808580Y3906074D01*
X7811285Y3912606D01*
Y3935481D01*
X7802531Y3956615D01*
X7786356Y3972790D01*
X7765222Y3981543D01*
X7742348D01*
X7735184Y4000021D01*
X7740671Y4002294D01*
X7756846Y4018469D01*
X7765600Y4039603D01*
Y4062477D01*
X7756846Y4083611D01*
X7740671Y4099786D01*
X7723646Y4106838D01*
X7718295Y4125497D01*
X7731222Y4139806D01*
X8972688D01*
X8976667Y4119806D01*
D02*
G37*
G36*
X9793463Y3877565D02*
X9792305Y3855104D01*
X9779512Y3842311D01*
X9770758Y3821177D01*
Y3798303D01*
X9759821Y3781934D01*
X9106697D01*
X9099044Y3800412D01*
X9118397Y3819766D01*
X9244800D01*
X9259432Y3822676D01*
X9271836Y3830964D01*
X9322636Y3881764D01*
X9334163Y3882899D01*
X9341769Y3875294D01*
X9362903Y3866540D01*
X9385777D01*
X9406911Y3875294D01*
X9423086Y3891469D01*
X9431840Y3912603D01*
Y3935477D01*
X9442777Y3951846D01*
X9719183D01*
X9793463Y3877565D01*
D02*
G37*
G36*
X7440560Y5206925D02*
X7434700Y5192777D01*
Y5169903D01*
X7443454Y5148769D01*
X7459629Y5132594D01*
X7480763Y5123840D01*
X7491209D01*
X7497425Y5105541D01*
X7497473Y5103840D01*
X6902320Y4508687D01*
X6894032Y4496283D01*
X6891122Y4481652D01*
Y3681704D01*
X6894032Y3667072D01*
X6902320Y3654668D01*
X6915486Y3641503D01*
Y3495135D01*
X6899117Y3484198D01*
X6876243D01*
X6855109Y3475444D01*
X6844597Y3464932D01*
X6000000D01*
Y3890258D01*
X6019449Y3899094D01*
X6040583Y3890340D01*
X6059607D01*
X6059996Y3889757D01*
Y3866883D01*
X6068750Y3845749D01*
X6084925Y3829574D01*
X6106059Y3820820D01*
X6128933D01*
X6150067Y3829574D01*
X6166242Y3845749D01*
X6174996Y3866883D01*
Y3889757D01*
X6166242Y3910891D01*
X6150067Y3927066D01*
X6128933Y3935820D01*
X6109909D01*
X6109520Y3936403D01*
Y3959277D01*
X6100766Y3980411D01*
X6084591Y3996586D01*
X6063457Y4005340D01*
X6040583D01*
X6019449Y3996586D01*
X6000000Y4005422D01*
Y4703648D01*
X6006300Y4709948D01*
X6015054Y4731082D01*
Y4753957D01*
X6006300Y4775091D01*
X6000000Y4781390D01*
Y5036426D01*
X6590500D01*
X6605132Y5039336D01*
X6617536Y5047624D01*
X6796837Y5226926D01*
X7430337D01*
X7440560Y5206925D01*
D02*
G37*
G36*
X10444584Y3820804D02*
X10456988Y3812516D01*
X10471620Y3809606D01*
X10827478D01*
X10837544Y3789606D01*
X10831854Y3781934D01*
X9896695D01*
X9885758Y3798303D01*
Y3821177D01*
X9884106Y3825165D01*
X9897470Y3845166D01*
X10420223D01*
X10444584Y3820804D01*
D02*
G37*
G36*
X3583004Y4756309D02*
X3577236Y4747678D01*
X3572773Y4725242D01*
X3577236Y4702807D01*
X3589945Y4683787D01*
X3608965Y4671079D01*
X3631400Y4666616D01*
X3653835Y4671079D01*
X3658601Y4674263D01*
X5610530D01*
X5937720Y4347072D01*
Y3464932D01*
X5273670D01*
X4285164Y4453438D01*
X4292715Y4474171D01*
X4306615Y4476936D01*
X4325635Y4489645D01*
X4338344Y4508665D01*
X4342806Y4531100D01*
X4338344Y4553535D01*
X4325635Y4572555D01*
X4306615Y4585264D01*
X4284180Y4589726D01*
X4261745Y4585264D01*
X4242725Y4572555D01*
X4230016Y4553535D01*
X4225553Y4531100D01*
X4228548Y4516046D01*
X4228465Y4515405D01*
X4217647Y4499462D01*
X4213950Y4496711D01*
X3906736D01*
X3901565Y4505169D01*
X3898247Y4516711D01*
X3909003Y4532808D01*
X3913466Y4555243D01*
X3909003Y4577678D01*
X3896295Y4596698D01*
X3877275Y4609407D01*
X3854840Y4613870D01*
X3832404Y4609407D01*
X3813385Y4596698D01*
X3800676Y4577678D01*
X3796213Y4555243D01*
X3800676Y4532808D01*
X3811432Y4516711D01*
X3808115Y4505169D01*
X3802944Y4496711D01*
X3725977D01*
X3689958Y4532730D01*
X3689472Y4535173D01*
X3681183Y4547577D01*
X3668779Y4555865D01*
X3661302Y4557352D01*
X3646123Y4570563D01*
X3641660Y4592998D01*
X3628951Y4612017D01*
X3609932Y4624726D01*
X3587496Y4629189D01*
X3565958Y4624904D01*
X3563171Y4626956D01*
X3552046Y4640084D01*
X3556632Y4646947D01*
X3561095Y4669382D01*
X3556632Y4691817D01*
X3543923Y4710837D01*
X3524904Y4723546D01*
X3502468Y4728009D01*
X3488361Y4725202D01*
X3484677Y4743720D01*
X3476265Y4756309D01*
X3484754Y4775926D01*
X3485125Y4776309D01*
X3572313D01*
X3583004Y4756309D01*
D02*
G37*
G36*
X7070426Y3900097D02*
Y3250940D01*
X7073336Y3236308D01*
X7081624Y3223904D01*
X7239120Y3066408D01*
Y3051543D01*
X7247874Y3030409D01*
X7264049Y3014234D01*
X7268030Y3012585D01*
X7271932Y2992969D01*
X7255114Y2976151D01*
X7243938Y2980780D01*
X7221063D01*
X7199929Y2972026D01*
X7186781Y2958878D01*
X7166521Y2952423D01*
X7165212Y2952163D01*
X6991954Y3125421D01*
Y3657340D01*
X6989044Y3671972D01*
X6980756Y3684376D01*
X6967591Y3697541D01*
Y3847253D01*
X6982923Y3857497D01*
X7005797D01*
X7026931Y3866251D01*
X7043106Y3882426D01*
X7051860Y3903560D01*
X7070426Y3900097D01*
D02*
G37*
G36*
X6855109Y3377952D02*
X6876243Y3369198D01*
X6899117D01*
X6915486Y3358261D01*
Y3109584D01*
X6918396Y3094952D01*
X6926684Y3082548D01*
X7186720Y2822512D01*
X7179066Y2804034D01*
X6001220D01*
X6000000Y2805036D01*
Y3388463D01*
X6844597D01*
X6855109Y3377952D01*
D02*
G37*
G36*
X6260001Y2711197D02*
Y2688323D01*
X6268755Y2667189D01*
X6284930Y2651014D01*
X6306063Y2642260D01*
X6328938D01*
X6350072Y2651014D01*
X6360379Y2661321D01*
X6855032D01*
X6859010Y2641321D01*
X6858836Y2641249D01*
X6842661Y2625074D01*
X6833907Y2603940D01*
Y2581065D01*
X6840428Y2565324D01*
Y2462914D01*
X6820428Y2454630D01*
X6811031Y2464026D01*
X6789897Y2472780D01*
X6767023D01*
X6745889Y2464026D01*
X6729714Y2447851D01*
X6726380Y2439802D01*
X6710635Y2429271D01*
X6702819Y2431205D01*
X6688297Y2437220D01*
X6665423D01*
X6644289Y2428466D01*
X6628114Y2412291D01*
X6619360Y2391157D01*
Y2368283D01*
X6628114Y2347149D01*
X6644289Y2330974D01*
X6665423Y2322220D01*
X6688297D01*
X6709431Y2330974D01*
X6725606Y2347149D01*
X6728940Y2355198D01*
X6744685Y2365728D01*
X6752501Y2363795D01*
X6767023Y2357780D01*
X6789897D01*
X6811031Y2366534D01*
X6820428Y2375930D01*
X6840428Y2367646D01*
Y2043349D01*
X6459112Y1662034D01*
X6448061Y1645495D01*
X6444180Y1625986D01*
Y1450960D01*
X6424180Y1446982D01*
X6420806Y1455128D01*
X6404631Y1471303D01*
X6383497Y1480056D01*
X6368631D01*
X6148997Y1699691D01*
Y1714557D01*
X6140243Y1735691D01*
X6124068Y1751866D01*
X6102934Y1760620D01*
X6080059D01*
X6058925Y1751866D01*
X6042750Y1735691D01*
X6033997Y1714557D01*
Y1691682D01*
X6042750Y1670549D01*
X6058925Y1654374D01*
X6080059Y1645620D01*
X6094925D01*
X6314560Y1425985D01*
Y1411119D01*
X6323314Y1389985D01*
X6337964Y1375335D01*
X6328399Y1365770D01*
X6319645Y1344637D01*
Y1321762D01*
X6328399Y1300628D01*
X6335947Y1293080D01*
X6323314Y1280447D01*
X6314560Y1259313D01*
Y1236438D01*
X6323314Y1215304D01*
X6339489Y1199129D01*
X6340315Y1198787D01*
X6344217Y1179171D01*
X6341774Y1176728D01*
X6333021Y1155595D01*
Y1132720D01*
X6340115Y1115593D01*
X6330157Y1111469D01*
X6313982Y1095294D01*
X6305228Y1074160D01*
Y1051285D01*
X6313982Y1030151D01*
X6330157Y1013976D01*
X6351291Y1005223D01*
X6374165D01*
X6395299Y1013976D01*
X6411474Y1030151D01*
X6420228Y1051285D01*
Y1074160D01*
X6419064Y1076971D01*
X6424180Y1082087D01*
X6444180Y1073803D01*
Y951281D01*
X6424180Y947303D01*
X6420806Y955449D01*
X6404631Y971624D01*
X6383497Y980378D01*
X6360623D01*
X6339489Y971624D01*
X6323314Y955449D01*
X6314560Y934315D01*
Y911440D01*
X6317791Y903640D01*
X6301389Y896846D01*
X6285214Y880671D01*
X6276460Y859537D01*
Y836663D01*
X6282399Y822324D01*
X6272287Y802324D01*
X6261029D01*
X6246397Y799413D01*
X6233993Y791125D01*
X6192042Y749174D01*
X6116117D01*
X6097874Y767417D01*
Y944793D01*
X6108386Y955305D01*
X6117140Y976439D01*
Y999313D01*
X6108386Y1020447D01*
X6092211Y1036622D01*
X6084110Y1039978D01*
X6083896Y1052768D01*
X6086099Y1060802D01*
X6104911Y1068594D01*
X6121086Y1084769D01*
X6129840Y1105903D01*
Y1128777D01*
X6121086Y1149911D01*
X6104911Y1166086D01*
X6083777Y1174840D01*
X6060903D01*
X6039769Y1166086D01*
X6023594Y1149911D01*
X6020000Y1141235D01*
X6000000Y1145213D01*
Y1351087D01*
X6020000Y1355065D01*
X6023594Y1346389D01*
X6039769Y1330214D01*
X6060903Y1321460D01*
X6083777D01*
X6104911Y1330214D01*
X6121086Y1346389D01*
X6129840Y1367523D01*
Y1390397D01*
X6121086Y1411531D01*
X6104911Y1427706D01*
X6083777Y1436460D01*
X6060903D01*
X6048240Y1431215D01*
X6030857Y1437684D01*
X6026729Y1442305D01*
X6019486Y1459791D01*
X6003311Y1475966D01*
X6000000Y1477338D01*
Y1515379D01*
X6014318D01*
X6035452Y1524133D01*
X6051627Y1540308D01*
X6060381Y1561441D01*
Y1584316D01*
X6051627Y1605450D01*
X6035452Y1621625D01*
X6014318Y1630379D01*
X6000000D01*
Y2710508D01*
X6017057Y2727566D01*
X6249064D01*
X6260001Y2711197D01*
D02*
G37*
G36*
X7325163Y2138060D02*
X7333801Y2118286D01*
X7329876Y2112412D01*
X7326966Y2097780D01*
Y2060456D01*
X7095659D01*
X7088005Y2078934D01*
X7147357Y2138286D01*
X7324941D01*
X7325163Y2138060D01*
D02*
G37*
G36*
X7922436Y2041068D02*
X7879168Y1997800D01*
X7864303D01*
X7843169Y1989046D01*
X7836350Y1982227D01*
X7823284Y1974940D01*
X7810218Y1982227D01*
X7803399Y1989046D01*
X7782265Y1997800D01*
X7759390D01*
X7738257Y1989046D01*
X7722082Y1972871D01*
X7713328Y1951737D01*
Y1928863D01*
X7695874Y1919337D01*
X7689807Y1918684D01*
X7671620Y1936871D01*
Y1951737D01*
X7662866Y1972871D01*
X7646691Y1989046D01*
X7625557Y1997800D01*
X7602683D01*
X7581549Y1989046D01*
X7575116Y1982613D01*
X7562050Y1974847D01*
X7548984Y1982613D01*
X7542551Y1989046D01*
X7521417Y1997800D01*
X7498543D01*
X7477409Y1989046D01*
X7461234Y1972871D01*
X7452480Y1951737D01*
Y1928863D01*
X7461234Y1907729D01*
X7477409Y1891554D01*
X7498543Y1882800D01*
X7521417D01*
X7542551Y1891554D01*
X7548984Y1897987D01*
X7562050Y1905753D01*
X7575116Y1897987D01*
X7581549Y1891554D01*
X7602683Y1882800D01*
X7617548D01*
X7658204Y1842144D01*
X7670608Y1833856D01*
X7685240Y1830946D01*
X7771934D01*
X7780218Y1810946D01*
X7717758Y1748485D01*
X7714836Y1750172D01*
X7687495Y1757498D01*
X7659190D01*
X7631849Y1750172D01*
X7607336Y1736020D01*
X7587321Y1716005D01*
X7578077Y1699994D01*
X7569272Y1699291D01*
X7555887Y1701559D01*
X7549716Y1710796D01*
X7468436Y1792076D01*
X7456032Y1800364D01*
X7441400Y1803274D01*
X7228040D01*
X7213408Y1800364D01*
X7201004Y1792076D01*
X7150204Y1741276D01*
X7141916Y1728872D01*
X7139006Y1714240D01*
Y1584700D01*
X7141916Y1570068D01*
X7150204Y1557664D01*
X7185318Y1522550D01*
X7180068Y1499516D01*
X7169934Y1495319D01*
X7153759Y1479144D01*
X7145006Y1458010D01*
Y1435135D01*
X7153759Y1414001D01*
X7169934Y1397827D01*
X7191068Y1389073D01*
X7203781D01*
X7217741Y1370762D01*
X7217776Y1370595D01*
X7214432Y1362524D01*
Y1339649D01*
X7223186Y1318516D01*
X7239361Y1302341D01*
X7260495Y1293587D01*
X7283370D01*
X7296889Y1299186D01*
X7308218Y1282231D01*
X7271516Y1245529D01*
X7263228Y1233125D01*
X7262387Y1228899D01*
X7261476Y1228330D01*
X7241043Y1224112D01*
X7230131Y1235023D01*
X7208997Y1243777D01*
X7186123D01*
X7164989Y1235023D01*
X7148814Y1218848D01*
X7140060Y1197715D01*
Y1174840D01*
X7148814Y1153706D01*
X7164989Y1137531D01*
X7186123Y1128777D01*
X7208997D01*
X7230131Y1137531D01*
X7240317Y1147717D01*
X7260317Y1139433D01*
Y1079081D01*
X7263228Y1064449D01*
X7271516Y1052045D01*
X7576229Y747332D01*
X7568575Y728854D01*
X7327697D01*
X7035134Y1021417D01*
Y1750895D01*
X7046648Y1758588D01*
X7069522D01*
X7090656Y1767342D01*
X7106831Y1783517D01*
X7110843Y1793202D01*
X7118820Y1811546D01*
X7141695D01*
X7162828Y1820299D01*
X7179003Y1836474D01*
X7187757Y1857608D01*
Y1880483D01*
X7179003Y1901617D01*
X7162828Y1917792D01*
X7141695Y1926546D01*
X7118820D01*
X7097686Y1917792D01*
X7081511Y1901617D01*
X7077499Y1891931D01*
X7069522Y1873588D01*
X7046648D01*
X7035134Y1881281D01*
Y1942243D01*
X7076879Y1983987D01*
X7226444D01*
X7234728Y1963987D01*
X7232175Y1961434D01*
X7223421Y1940300D01*
Y1917425D01*
X7232175Y1896291D01*
X7248350Y1880116D01*
X7269484Y1871363D01*
X7292359D01*
X7313492Y1880116D01*
X7328779Y1895403D01*
X7332629Y1891554D01*
X7353763Y1882800D01*
X7376637D01*
X7397771Y1891554D01*
X7413946Y1907729D01*
X7422700Y1928863D01*
Y1951737D01*
X7413946Y1972871D01*
X7403434Y1983383D01*
Y2059546D01*
X7914783D01*
X7922436Y2041068D01*
D02*
G37*
G36*
X10494888Y2063620D02*
Y2045017D01*
X10497799Y2030385D01*
X10505389Y2019025D01*
X10505521Y2018250D01*
X10505495Y2016111D01*
X10499287Y1996497D01*
X10487431Y1991586D01*
X10471256Y1975411D01*
X10462502Y1954277D01*
Y1931403D01*
X10463446Y1929124D01*
X10452334Y1912494D01*
X9796577D01*
X9774756Y1934316D01*
X9762352Y1942604D01*
X9747720Y1945514D01*
X9427680D01*
X9421680Y1950439D01*
Y1951737D01*
X9412926Y1972871D01*
X9396751Y1989046D01*
X9375617Y1997800D01*
X9360751D01*
X9240266Y2118286D01*
X9248550Y2138286D01*
X10420223D01*
X10494888Y2063620D01*
D02*
G37*
G36*
X8820844Y1943728D02*
Y1928863D01*
X8821444Y1927414D01*
X8808080Y1907414D01*
X8106085D01*
X8092721Y1927414D01*
X8094047Y1930615D01*
Y1953490D01*
X8085293Y1974624D01*
X8078792Y1981126D01*
X8087076Y2001126D01*
X8763447D01*
X8820844Y1943728D01*
D02*
G37*
G36*
X9306680D02*
Y1928863D01*
X9315434Y1907729D01*
X9331609Y1891554D01*
X9333557Y1890747D01*
X9337459Y1871131D01*
X9299092Y1832764D01*
X9092369D01*
X9086138Y1850790D01*
X9086073Y1852764D01*
X9115653Y1882343D01*
X9130519D01*
X9151653Y1891097D01*
X9167827Y1907272D01*
X9176581Y1928406D01*
Y1951281D01*
X9167827Y1972414D01*
X9151653Y1988589D01*
X9130519Y1997343D01*
X9107644D01*
X9086510Y1988589D01*
X9070335Y1972415D01*
X9048811Y1972714D01*
X9048746Y1972871D01*
X9032571Y1989046D01*
X9011437Y1997800D01*
X8988562D01*
X8967429Y1989046D01*
X8951254Y1972871D01*
X8949996Y1969835D01*
X8928348D01*
X8927090Y1972871D01*
X8910915Y1989046D01*
X8889781Y1997800D01*
X8874915D01*
X8831648Y2041068D01*
X8839301Y2059546D01*
X9190863D01*
X9306680Y1943728D01*
D02*
G37*
G36*
X5230797Y3399662D02*
X5243201Y3391374D01*
X5257833Y3388463D01*
X5937720D01*
Y3120124D01*
X5929498Y3114983D01*
X5917720Y3111543D01*
X5901735Y3122224D01*
X5879300Y3126686D01*
X5856865Y3122224D01*
X5837845Y3109515D01*
X5825136Y3090495D01*
X5820673Y3068060D01*
X5825136Y3045625D01*
X5837845Y3026605D01*
X5856865Y3013896D01*
X5879300Y3009433D01*
X5901735Y3013896D01*
X5917720Y3024577D01*
X5929498Y3021137D01*
X5937720Y3015995D01*
Y2756371D01*
X5910684Y2729336D01*
X5902396Y2716932D01*
X5899486Y2702300D01*
Y1460240D01*
X5902396Y1445608D01*
X5910684Y1433204D01*
X5912869Y1431019D01*
X5912113Y1427220D01*
X5916576Y1404785D01*
X5929285Y1385765D01*
X5937720Y1380129D01*
Y288440D01*
X4500000D01*
Y1981242D01*
X4520000Y1989526D01*
X4647628Y1861899D01*
Y1514152D01*
X4650538Y1499521D01*
X4658826Y1487117D01*
X4912694Y1233250D01*
X4908498Y1219420D01*
X4904860Y1212799D01*
X4887885Y1201457D01*
X4875176Y1182437D01*
X4870713Y1160002D01*
X4875176Y1137566D01*
X4887885Y1118547D01*
X4906905Y1105838D01*
X4929340Y1101375D01*
X4937290Y1102957D01*
X4949317Y1084957D01*
X4946296Y1080436D01*
X4941833Y1058000D01*
X4946296Y1035565D01*
X4959005Y1016545D01*
X4978025Y1003837D01*
X5000460Y999374D01*
X5022895Y1003837D01*
X5041915Y1016545D01*
X5054624Y1035565D01*
X5059086Y1058000D01*
X5054624Y1080436D01*
X5041915Y1099456D01*
X5038694Y1101608D01*
Y1199555D01*
X5035784Y1214186D01*
X5033945Y1216939D01*
X5048364Y1231358D01*
X5049145Y1230837D01*
X5071580Y1226374D01*
X5094015Y1230837D01*
X5113035Y1243545D01*
X5125744Y1262565D01*
X5130206Y1285000D01*
X5125744Y1307436D01*
X5113035Y1326455D01*
X5094015Y1339164D01*
X5071580Y1343627D01*
X5049145Y1339164D01*
X5030125Y1326455D01*
X5017416Y1307436D01*
X5012953Y1285000D01*
X5016823Y1265547D01*
X5009850Y1258665D01*
X5000328Y1253758D01*
X4724096Y1529990D01*
Y1572686D01*
X4744096Y1582952D01*
X4754741Y1575840D01*
X4777176Y1571377D01*
X4799611Y1575840D01*
X4818631Y1588548D01*
X4831340Y1607568D01*
X4835802Y1630003D01*
X4831340Y1652439D01*
X4818631Y1671458D01*
X4799611Y1684167D01*
X4777176Y1688630D01*
X4754741Y1684167D01*
X4744096Y1677055D01*
X4724096Y1687320D01*
Y1877736D01*
X4721186Y1892368D01*
X4712898Y1904772D01*
X4349237Y2268433D01*
Y3008218D01*
X4346326Y3022849D01*
X4338038Y3035253D01*
X4092448Y3280843D01*
X4080044Y3289131D01*
X4065412Y3292042D01*
X4023069D01*
X3919596Y3395515D01*
X3932345Y3411050D01*
X3940069Y3405889D01*
X3962504Y3401427D01*
X3984939Y3405889D01*
X4003959Y3418598D01*
X4008423Y3425279D01*
X4033659Y3428327D01*
X4658826Y2803160D01*
X4658827Y2803159D01*
X4658827Y2803159D01*
X4666135Y2795852D01*
X4671829Y2792047D01*
X4678538Y2787565D01*
X4678539Y2787564D01*
X4678540Y2787564D01*
X4685410Y2786198D01*
X4693169Y2784654D01*
X4704405Y2784654D01*
X4705065Y2784785D01*
X4705730Y2784677D01*
X4921055Y2792140D01*
X4947111Y2767830D01*
X4946707Y2765800D01*
X4951170Y2743365D01*
X4963878Y2724345D01*
X4982898Y2711636D01*
X5005333Y2707173D01*
X5010265Y2708154D01*
X5025726Y2695467D01*
Y2430156D01*
X5012502Y2419304D01*
X4990067Y2414841D01*
X4971047Y2402132D01*
X4958339Y2383113D01*
X4953876Y2360677D01*
X4958339Y2338242D01*
X4971047Y2319222D01*
X4990067Y2306514D01*
X5012502Y2302051D01*
X5025726Y2291199D01*
Y1882307D01*
X5022505Y1880155D01*
X5009796Y1861135D01*
X5005333Y1838700D01*
X5009796Y1816265D01*
X5022505Y1797245D01*
X5041525Y1784536D01*
X5063960Y1780073D01*
X5086395Y1784536D01*
X5105415Y1797245D01*
X5118124Y1816265D01*
X5122586Y1838700D01*
X5118124Y1861135D01*
X5105415Y1880155D01*
X5102194Y1882307D01*
Y3368511D01*
X5099284Y3383143D01*
X5090996Y3395547D01*
X4533140Y3953403D01*
X4539723Y3975104D01*
X4544578Y3976070D01*
X4563597Y3988779D01*
X4576306Y4007798D01*
X4579304Y4022871D01*
X4598758Y4030722D01*
X4599711Y4030748D01*
X5230797Y3399662D01*
D02*
G37*
G36*
X4100000Y288440D02*
X3048982D01*
X3043918Y295581D01*
X3038676Y308440D01*
X3046001Y326123D01*
Y348997D01*
X3037247Y370131D01*
X3021072Y386306D01*
X2999938Y395060D01*
X2977063D01*
X2955929Y386306D01*
X2939754Y370131D01*
X2935824Y360643D01*
X2914177D01*
X2910247Y370131D01*
X2894072Y386306D01*
X2872938Y395060D01*
X2850063D01*
X2828929Y386306D01*
X2812754Y370131D01*
X2804000Y348997D01*
Y326123D01*
X2811325Y308440D01*
X2806083Y295581D01*
X2801019Y288440D01*
X1038439D01*
Y1000002D01*
X1035513Y1014712D01*
X1027181Y1027182D01*
X1014710Y1035515D01*
X1000000Y1038441D01*
Y1850000D01*
X1270108D01*
X1275467Y1830000D01*
X1267251Y1825257D01*
X1249740Y1807746D01*
X1237358Y1786300D01*
X1230949Y1762380D01*
Y1737616D01*
X1237358Y1713696D01*
X1249740Y1692250D01*
X1267251Y1674739D01*
X1288697Y1662358D01*
X1312617Y1655948D01*
X1337381D01*
X1361301Y1662358D01*
X1382747Y1674739D01*
X1400257Y1692250D01*
X1412639Y1713696D01*
X1419048Y1737616D01*
Y1762380D01*
X1412639Y1786300D01*
X1400257Y1807746D01*
X1382747Y1825257D01*
X1374531Y1830000D01*
X1379890Y1850000D01*
X1770107D01*
X1775466Y1830000D01*
X1767250Y1825257D01*
X1749739Y1807746D01*
X1737357Y1786300D01*
X1730948Y1762380D01*
Y1737616D01*
X1737357Y1713696D01*
X1749739Y1692250D01*
X1767250Y1674739D01*
X1788696Y1662358D01*
X1812616Y1655948D01*
X1837380D01*
X1861300Y1662358D01*
X1882746Y1674739D01*
X1900256Y1692250D01*
X1908079Y1705799D01*
X1929630Y1707742D01*
X2235761Y1401611D01*
X2248165Y1393323D01*
X2262797Y1390413D01*
X3149418D01*
X3159930Y1379901D01*
X3181063Y1371147D01*
X3203938D01*
X3225072Y1379901D01*
X3241247Y1396076D01*
X3250001Y1417210D01*
Y1440084D01*
X3241247Y1461218D01*
X3225072Y1477393D01*
X3203938Y1486147D01*
X3181063D01*
X3159930Y1477393D01*
X3149418Y1466881D01*
X2860018D01*
X2846654Y1486882D01*
X2847715Y1489443D01*
Y1512317D01*
X2838961Y1533451D01*
X2822786Y1549626D01*
X2808164Y1555683D01*
X2812142Y1575683D01*
X2896072D01*
X2910704Y1578593D01*
X2923108Y1586882D01*
X3093066Y1756840D01*
X3107932D01*
X3121211Y1747967D01*
X3124880Y1742212D01*
X3133074Y1722431D01*
X3149249Y1706256D01*
X3170383Y1697502D01*
X3193257D01*
X3214391Y1706256D01*
X3230566Y1722431D01*
X3236505Y1736767D01*
X3541320D01*
X3551831Y1726256D01*
X3572965Y1717502D01*
X3595840D01*
X3616974Y1726256D01*
X3633149Y1742431D01*
X3641903Y1763564D01*
Y1786439D01*
X3633149Y1807573D01*
X3616974Y1823748D01*
X3601880Y1830000D01*
X3605858Y1850000D01*
X4100000D01*
Y288440D01*
D02*
G37*
G36*
X11141439Y1884161D02*
X11151921Y1866952D01*
X10834243Y1549274D01*
X10800138D01*
X10792646Y1569274D01*
X10807364Y1583992D01*
X10821517Y1608505D01*
X10828842Y1635846D01*
Y1664151D01*
X10821517Y1691492D01*
X10812675Y1706806D01*
X10823641Y1726806D01*
X10846921D01*
X10857432Y1716294D01*
X10878566Y1707540D01*
X10901441D01*
X10922575Y1716294D01*
X10938750Y1732469D01*
X10947504Y1753603D01*
Y1776477D01*
X10938750Y1797611D01*
X10922575Y1813786D01*
X10917168Y1816026D01*
X10921147Y1836026D01*
X11060289D01*
X11074921Y1838936D01*
X11087325Y1847224D01*
X11124773Y1884672D01*
X11141439Y1884161D01*
D02*
G37*
G36*
X3040743Y1830000D02*
X3038994Y1825777D01*
Y1810911D01*
X2880235Y1652152D01*
X2658627D01*
X2653268Y1672152D01*
X2657750Y1674739D01*
X2675261Y1692250D01*
X2687643Y1713696D01*
X2694052Y1737616D01*
Y1762380D01*
X2687643Y1786300D01*
X2675261Y1807746D01*
X2657750Y1825257D01*
X2649534Y1830000D01*
X2654893Y1850000D01*
X3027380D01*
X3040743Y1830000D01*
D02*
G37*
G36*
X2550470Y1830000D02*
X2542255Y1825257D01*
X2524744Y1807746D01*
X2512362Y1786300D01*
X2505953Y1762380D01*
Y1737616D01*
X2512362Y1713696D01*
X2524744Y1692250D01*
X2542255Y1674739D01*
X2546737Y1672152D01*
X2541377Y1652152D01*
X2251916D01*
X2188216Y1715852D01*
X2194048Y1737616D01*
Y1762380D01*
X2187639Y1786300D01*
X2175257Y1807746D01*
X2157746Y1825257D01*
X2149530Y1830000D01*
X2154889Y1850000D01*
X2545111D01*
X2550470Y1830000D01*
D02*
G37*
G36*
X9753704Y1847224D02*
X9766108Y1838936D01*
X9780740Y1836026D01*
X10858861D01*
X10862839Y1816026D01*
X10857432Y1813786D01*
X10846921Y1803274D01*
X9877260D01*
X9862628Y1800364D01*
X9850224Y1792076D01*
X9705842Y1647694D01*
X9685842Y1655978D01*
Y1664151D01*
X9678517Y1691492D01*
X9664364Y1716005D01*
X9644349Y1736020D01*
X9642137Y1737297D01*
X9643416Y1759474D01*
X9659591Y1775649D01*
X9668344Y1796783D01*
Y1819657D01*
X9659591Y1840791D01*
X9651336Y1849046D01*
X9659621Y1869046D01*
X9731883D01*
X9753704Y1847224D01*
D02*
G37*
G36*
X9432688Y1829932D02*
X9438422Y1816088D01*
X9454597Y1799913D01*
X9475731Y1791159D01*
X9498605D01*
X9519739Y1799913D01*
X9533344Y1813518D01*
X9545479Y1811313D01*
X9553344Y1807387D01*
Y1796783D01*
X9561751Y1776488D01*
X9561773Y1776310D01*
X9561856Y1774985D01*
X9554548Y1754915D01*
X9536849Y1750172D01*
X9512336Y1736020D01*
X9492321Y1716005D01*
X9478168Y1691492D01*
X9470843Y1664151D01*
Y1635846D01*
X9478168Y1608505D01*
X9487620Y1592134D01*
X9477421Y1572134D01*
X9298264D01*
X9288065Y1592134D01*
X9297517Y1608505D01*
X9304842Y1635846D01*
Y1664151D01*
X9297517Y1691492D01*
X9283364Y1716005D01*
X9263349Y1736020D01*
X9262872Y1736295D01*
X9268231Y1756295D01*
X9314929D01*
X9329561Y1759205D01*
X9341965Y1767494D01*
X9411190Y1836719D01*
X9432688Y1829932D01*
D02*
G37*
G36*
X9131813Y1736295D02*
X9131336Y1736020D01*
X9111321Y1716005D01*
X9097168Y1691492D01*
X9089843Y1664151D01*
Y1635846D01*
X9097168Y1608505D01*
X9106620Y1592134D01*
X9096421Y1572134D01*
X8917264D01*
X8907065Y1592134D01*
X8916517Y1608505D01*
X8923842Y1635846D01*
Y1664151D01*
X8916517Y1691492D01*
X8902364Y1716005D01*
X8882349Y1736020D01*
X8881872Y1736295D01*
X8887231Y1756295D01*
X9126454D01*
X9131813Y1736295D01*
D02*
G37*
G36*
X8750813D02*
X8750336Y1736020D01*
X8730321Y1716005D01*
X8716168Y1691492D01*
X8708843Y1664151D01*
Y1635846D01*
X8716168Y1608505D01*
X8725620Y1592134D01*
X8715421Y1572134D01*
X8567278D01*
X8533830Y1605583D01*
X8535517Y1608505D01*
X8542842Y1635846D01*
Y1664151D01*
X8535517Y1691492D01*
X8521364Y1716005D01*
X8501349Y1736020D01*
X8500872Y1736295D01*
X8506231Y1756295D01*
X8745454D01*
X8750813Y1736295D01*
D02*
G37*
G36*
X7988813D02*
X7988336Y1736020D01*
X7968321Y1716005D01*
X7954168Y1691492D01*
X7946843Y1664151D01*
Y1635846D01*
X7954168Y1608505D01*
X7955856Y1605583D01*
X7922407Y1572134D01*
X7774264D01*
X7764065Y1592134D01*
X7773517Y1608505D01*
X7780842Y1635846D01*
Y1664151D01*
X7773517Y1691492D01*
X7771830Y1694414D01*
X7833711Y1756295D01*
X7983454D01*
X7988813Y1736295D01*
D02*
G37*
G36*
X10630010Y1706806D02*
X10621168Y1691492D01*
X10613843Y1664151D01*
Y1635846D01*
X10621168Y1608505D01*
X10635321Y1583992D01*
X10650039Y1569274D01*
X10642547Y1549274D01*
X10495138D01*
X10438830Y1605583D01*
X10440517Y1608505D01*
X10447842Y1635846D01*
Y1664151D01*
X10440517Y1691492D01*
X10431675Y1706806D01*
X10442641Y1726806D01*
X10619044D01*
X10630010Y1706806D01*
D02*
G37*
G36*
X8369813Y1736295D02*
X8369336Y1736020D01*
X8349321Y1716005D01*
X8335168Y1691492D01*
X8327843Y1664151D01*
Y1635846D01*
X8335168Y1608505D01*
X8349321Y1583992D01*
X8369336Y1563977D01*
X8393849Y1549824D01*
X8421190Y1542498D01*
X8449495D01*
X8476836Y1549824D01*
X8479758Y1551511D01*
X8524405Y1506864D01*
X8536809Y1498576D01*
X8551441Y1495666D01*
X9646120D01*
X9660752Y1498576D01*
X9673156Y1506864D01*
X9832833Y1666541D01*
X9851843Y1657267D01*
Y1635846D01*
X9859168Y1608505D01*
X9873321Y1583992D01*
X9893336Y1563977D01*
X9917849Y1549824D01*
X9945190Y1542498D01*
X9973495D01*
X10000836Y1549824D01*
X10025349Y1563977D01*
X10045364Y1583992D01*
X10059517Y1608505D01*
X10066842Y1635846D01*
Y1664151D01*
X10059517Y1691492D01*
X10050675Y1706806D01*
X10061641Y1726806D01*
X10238044D01*
X10249010Y1706806D01*
X10240168Y1691492D01*
X10232843Y1664151D01*
Y1635846D01*
X10240168Y1608505D01*
X10254321Y1583992D01*
X10274336Y1563977D01*
X10298849Y1549824D01*
X10326190Y1542498D01*
X10354495D01*
X10381836Y1549824D01*
X10384758Y1551511D01*
X10452265Y1484004D01*
X10453896Y1482914D01*
X10447829Y1462914D01*
X7533498D01*
X7390830Y1605583D01*
X7392517Y1608505D01*
X7399842Y1635846D01*
Y1664151D01*
X7392517Y1691492D01*
X7383675Y1706806D01*
X7394641Y1726806D01*
X7425563D01*
X7484446Y1667923D01*
Y1574540D01*
X7487356Y1559908D01*
X7495644Y1547504D01*
X7536284Y1506864D01*
X7548688Y1498576D01*
X7563320Y1495666D01*
X7938244D01*
X7952876Y1498576D01*
X7965280Y1506864D01*
X8009927Y1551511D01*
X8012849Y1549824D01*
X8040190Y1542498D01*
X8068495D01*
X8095836Y1549824D01*
X8120349Y1563977D01*
X8140364Y1583992D01*
X8154517Y1608505D01*
X8161842Y1635846D01*
Y1664151D01*
X8154517Y1691492D01*
X8140364Y1716005D01*
X8120349Y1736020D01*
X8119872Y1736295D01*
X8125231Y1756295D01*
X8364454D01*
X8369813Y1736295D01*
D02*
G37*
G36*
X2209043Y1586882D02*
X2221447Y1578593D01*
X2236079Y1575683D01*
X2768288D01*
X2772266Y1555683D01*
X2757644Y1549626D01*
X2741469Y1533451D01*
X2732715Y1512317D01*
Y1489443D01*
X2733776Y1486882D01*
X2720412Y1466881D01*
X2278634D01*
X2107571Y1637944D01*
X2116367Y1656415D01*
X2135376Y1660549D01*
X2209043Y1586882D01*
D02*
G37*
G36*
X11345246Y1851751D02*
Y1655398D01*
X11097001Y1407153D01*
X11074600Y1413037D01*
X11069770Y1424700D01*
X11053595Y1440875D01*
X11032461Y1449629D01*
X11009586D01*
X10988452Y1440875D01*
X10972277Y1424700D01*
X10971453Y1422709D01*
X10964358D01*
X10949726Y1419799D01*
X10937322Y1411511D01*
X10911248Y1385437D01*
X10885573D01*
X10877288Y1405437D01*
X11256876Y1785025D01*
X11261136D01*
X11282270Y1793779D01*
X11298445Y1809954D01*
X11307198Y1831088D01*
Y1853962D01*
X11323339Y1866023D01*
X11329652Y1866521D01*
X11345246Y1851751D01*
D02*
G37*
G36*
X7482832Y1405437D02*
X7474548Y1385437D01*
X7318900D01*
X7311949Y1392387D01*
Y1488225D01*
X7309039Y1502857D01*
X7300750Y1515261D01*
X7293513Y1522498D01*
X7301797Y1542498D01*
X7306495D01*
X7333836Y1549824D01*
X7336758Y1551511D01*
X7482832Y1405437D01*
D02*
G37*
G36*
X6841826Y1718082D02*
Y1166731D01*
X6834117Y1161346D01*
X6810237Y1168638D01*
X6806886Y1176728D01*
X6790711Y1192903D01*
X6769577Y1201657D01*
X6746703D01*
X6725569Y1192903D01*
X6709394Y1176728D01*
X6700640Y1155595D01*
Y1132720D01*
X6709394Y1111586D01*
X6725569Y1095411D01*
X6733311Y1092204D01*
Y1070556D01*
X6729847Y1069122D01*
X6713672Y1052947D01*
X6704918Y1031813D01*
Y1008938D01*
X6713672Y987804D01*
X6729847Y971629D01*
X6742832Y966251D01*
Y944603D01*
X6729804Y939206D01*
X6713629Y923031D01*
X6704875Y901897D01*
Y881299D01*
X6681349D01*
X6651226Y911423D01*
Y1552328D01*
X6784002Y1685104D01*
X6799743Y1691624D01*
X6815918Y1707799D01*
X6821826Y1722060D01*
X6841826Y1718082D01*
D02*
G37*
G36*
X6958666Y1923463D02*
Y1005580D01*
X6961576Y990948D01*
X6969864Y978544D01*
X7042111Y906298D01*
X7037183Y882941D01*
X7033221Y881299D01*
X6819875D01*
Y901897D01*
X6811121Y923031D01*
X6794946Y939206D01*
X6781961Y944585D01*
Y966233D01*
X6794989Y971629D01*
X6811164Y987804D01*
X6819918Y1008938D01*
Y1023804D01*
X6907096Y1110982D01*
X6915384Y1123386D01*
X6918294Y1138017D01*
Y1909223D01*
X6940188Y1931116D01*
X6958666Y1923463D01*
D02*
G37*
G36*
X7284824Y663584D02*
X7297228Y655296D01*
X7311860Y652386D01*
X8047883D01*
X8145853Y554416D01*
X8144166Y551494D01*
X8138585Y530668D01*
X8117535Y529226D01*
X8113748Y538368D01*
X8097573Y554543D01*
X8076439Y563297D01*
X8053564D01*
X8032430Y554543D01*
X8016255Y538368D01*
X8007502Y517234D01*
Y494360D01*
X8016255Y473226D01*
X8032430Y457051D01*
X8045411Y451674D01*
X8041432Y431674D01*
X7963658D01*
X7953795Y451674D01*
X7963514Y468507D01*
X7970840Y495848D01*
Y524153D01*
X7963514Y551494D01*
X7949361Y576007D01*
X7929346Y596022D01*
X7904833Y610175D01*
X7877492Y617500D01*
X7849187D01*
X7821846Y610175D01*
X7797333Y596022D01*
X7777318Y576007D01*
X7763166Y551494D01*
X7755840Y524153D01*
Y495848D01*
X7763166Y468507D01*
X7772884Y451674D01*
X7763021Y431674D01*
X7694487D01*
X7690509Y451674D01*
X7703489Y457051D01*
X7719664Y473226D01*
X7728418Y494360D01*
Y517234D01*
X7719664Y538368D01*
X7703489Y554543D01*
X7682355Y563297D01*
X7659480D01*
X7638347Y554543D01*
X7622172Y538368D01*
X7613418Y517234D01*
Y494360D01*
X7622172Y473226D01*
X7638347Y457051D01*
X7651327Y451674D01*
X7647349Y431674D01*
X7582658D01*
X7572795Y451674D01*
X7582514Y468507D01*
X7589840Y495848D01*
Y524153D01*
X7582514Y551494D01*
X7568361Y576007D01*
X7548346Y596022D01*
X7523833Y610175D01*
X7496492Y617500D01*
X7468187D01*
X7440846Y610175D01*
X7416333Y596022D01*
X7396318Y576007D01*
X7382166Y551494D01*
X7374840Y524153D01*
Y507681D01*
X7355004Y507285D01*
X7346250Y528419D01*
X7330075Y544594D01*
X7308941Y553348D01*
X7286066D01*
X7264933Y544594D01*
X7248758Y528419D01*
X7240004Y507285D01*
Y484411D01*
X7248758Y463277D01*
X7260360Y451674D01*
X7253894Y431674D01*
X7094794D01*
X7035954Y490514D01*
X7043607Y508992D01*
X7151185D01*
X7170694Y512872D01*
X7187233Y523923D01*
X7226751Y563441D01*
X7227652D01*
X7248786Y572195D01*
X7264961Y588370D01*
X7273715Y609504D01*
Y632379D01*
X7264961Y653513D01*
X7248786Y669688D01*
X7227652Y678441D01*
X7204777D01*
X7183643Y669688D01*
X7167469Y653513D01*
X7163818Y644700D01*
X7130069Y610951D01*
X7021485D01*
X7007204Y625232D01*
X7018533Y642187D01*
X7035210Y635279D01*
X7058085D01*
X7079219Y644033D01*
X7095394Y660208D01*
X7104148Y681342D01*
Y704216D01*
X7095394Y725350D01*
X7079219Y741525D01*
X7058085Y750279D01*
X7035210D01*
X7014076Y741525D01*
X6997901Y725350D01*
X6989148Y704216D01*
Y681342D01*
X6996056Y664664D01*
X6979100Y653335D01*
X6898351Y734084D01*
X6881812Y745135D01*
X6862303Y749016D01*
X6843233D01*
X6843229Y749023D01*
Y771897D01*
X6848202Y779340D01*
X7033221D01*
X7048963Y772820D01*
X7071837D01*
X7092971Y781574D01*
X7109146Y797749D01*
X7113021Y807103D01*
X7136378Y812031D01*
X7284824Y663584D01*
D02*
G37*
%LPC*%
G36*
X2106437Y7525322D02*
X2083562D01*
X2062428Y7516568D01*
X2046253Y7500393D01*
X2037500Y7479259D01*
Y7456385D01*
X2046253Y7435251D01*
X2062428Y7419076D01*
X2083562Y7410322D01*
X2106437D01*
X2127571Y7419076D01*
X2143746Y7435251D01*
X2152500Y7456385D01*
Y7479259D01*
X2143746Y7500393D01*
X2127571Y7516568D01*
X2106437Y7525322D01*
D02*
G37*
G36*
X2043259Y7299898D02*
X2020384D01*
X1999251Y7291144D01*
X1983076Y7274969D01*
X1974322Y7253835D01*
Y7230961D01*
X1983076Y7209827D01*
X1999251Y7193652D01*
X2020384Y7184898D01*
X2043259D01*
X2064393Y7193652D01*
X2080568Y7209827D01*
X2089322Y7230961D01*
Y7253835D01*
X2080568Y7274969D01*
X2064393Y7291144D01*
X2043259Y7299898D01*
D02*
G37*
G36*
X1836440Y7266766D02*
X1813565D01*
X1792432Y7258012D01*
X1776257Y7241837D01*
X1767503Y7220703D01*
Y7197828D01*
X1776257Y7176695D01*
X1792432Y7160520D01*
X1813565Y7151766D01*
X1836440D01*
X1857574Y7160520D01*
X1873749Y7176695D01*
X1882503Y7197828D01*
Y7220703D01*
X1873749Y7241837D01*
X1857574Y7258012D01*
X1836440Y7266766D01*
D02*
G37*
G36*
X1387506Y7378363D02*
X1287505D01*
X1261400Y7374926D01*
X1237074Y7364850D01*
X1216185Y7348821D01*
X1200156Y7327931D01*
X1190080Y7303605D01*
X1186643Y7277500D01*
X1190080Y7251395D01*
X1200156Y7227069D01*
X1216185Y7206180D01*
X1237074Y7190151D01*
X1241483Y7188324D01*
Y7166677D01*
X1237074Y7164850D01*
X1216185Y7148821D01*
X1200156Y7127932D01*
X1190080Y7103606D01*
X1186643Y7077501D01*
X1190080Y7051396D01*
X1200156Y7027070D01*
X1216185Y7006180D01*
X1237074Y6990151D01*
X1261400Y6980075D01*
X1287505Y6976638D01*
X1387506D01*
X1413611Y6980075D01*
X1437937Y6990151D01*
X1458826Y7006180D01*
X1474855Y7027070D01*
X1484931Y7051396D01*
X1488368Y7077501D01*
X1484931Y7103606D01*
X1474855Y7127932D01*
X1458826Y7148821D01*
X1437937Y7164850D01*
X1433528Y7166677D01*
Y7188324D01*
X1437937Y7190151D01*
X1458826Y7206180D01*
X1474855Y7227069D01*
X1484931Y7251395D01*
X1488368Y7277500D01*
X1484931Y7303605D01*
X1474855Y7327931D01*
X1458826Y7348821D01*
X1437937Y7364850D01*
X1413611Y7374926D01*
X1387506Y7378363D01*
D02*
G37*
G36*
X5079200Y7482786D02*
X5056765Y7478324D01*
X5037745Y7465615D01*
X5025036Y7446595D01*
X5020573Y7424160D01*
X5025036Y7401725D01*
X5037745Y7382705D01*
X5056765Y7369996D01*
X5079200Y7365533D01*
X5101635Y7369996D01*
X5120655Y7382705D01*
X5133364Y7401725D01*
X5137826Y7424160D01*
X5133364Y7446595D01*
X5120655Y7465615D01*
X5101635Y7478324D01*
X5079200Y7482786D01*
D02*
G37*
G36*
X4899998Y7310066D02*
X4877563Y7305604D01*
X4872797Y7302419D01*
X4738101D01*
X4733335Y7305604D01*
X4710900Y7310066D01*
X4688465Y7305604D01*
X4671397Y7294200D01*
X4664520Y7291975D01*
X4653140D01*
X4646262Y7294200D01*
X4629195Y7305604D01*
X4606760Y7310066D01*
X4584325Y7305604D01*
X4565305Y7292895D01*
X4552596Y7273875D01*
X4548133Y7251440D01*
X4552596Y7229005D01*
X4565305Y7209985D01*
X4584325Y7197276D01*
X4606760Y7192813D01*
X4629195Y7197276D01*
X4646262Y7208680D01*
X4653140Y7210905D01*
X4664520D01*
X4671397Y7208680D01*
X4688465Y7197276D01*
X4710900Y7192813D01*
X4733335Y7197276D01*
X4738101Y7200460D01*
X4872797D01*
X4877563Y7197276D01*
X4899998Y7192813D01*
X4922433Y7197276D01*
X4941453Y7209985D01*
X4954162Y7229005D01*
X4958624Y7251440D01*
X4954162Y7273875D01*
X4941453Y7292895D01*
X4922433Y7305604D01*
X4899998Y7310066D01*
D02*
G37*
G36*
X3619620Y6960824D02*
X3597185Y6956361D01*
X3578165Y6943652D01*
X3565456Y6924633D01*
X3560993Y6902197D01*
X3565456Y6879762D01*
X3578165Y6860742D01*
X3597185Y6848034D01*
X3619620Y6843571D01*
X3642055Y6848034D01*
X3661075Y6860742D01*
X3673784Y6879762D01*
X3678246Y6902197D01*
X3673784Y6924633D01*
X3661075Y6943652D01*
X3642055Y6956361D01*
X3619620Y6960824D01*
D02*
G37*
G36*
X688800Y6900970D02*
X663800D01*
Y6800000D01*
X800625D01*
X798404Y6816868D01*
X787069Y6844235D01*
X769036Y6867736D01*
X745535Y6885768D01*
X718168Y6897104D01*
X688800Y6900970D01*
D02*
G37*
G36*
X638800D02*
X613800D01*
X584431Y6897104D01*
X557064Y6885768D01*
X533564Y6867736D01*
X515531Y6844235D01*
X504196Y6816868D01*
X501975Y6800000D01*
X638800D01*
Y6900970D01*
D02*
G37*
G36*
X3842826Y6816697D02*
X3820391Y6812234D01*
X3801371Y6799526D01*
X3788662Y6780506D01*
X3784200Y6758071D01*
X3788662Y6735635D01*
X3801371Y6716615D01*
X3820391Y6703907D01*
X3842826Y6699444D01*
X3865262Y6703907D01*
X3884281Y6716615D01*
X3896990Y6735635D01*
X3901453Y6758071D01*
X3896990Y6780506D01*
X3884281Y6799526D01*
X3865262Y6812234D01*
X3842826Y6816697D01*
D02*
G37*
G36*
X2247549Y6833725D02*
X2166673D01*
X2154967Y6831396D01*
X2145044Y6824766D01*
X2138414Y6814843D01*
X2136085Y6803137D01*
Y6678259D01*
X2197260D01*
Y6772550D01*
X2247549D01*
X2259254Y6774878D01*
X2269177Y6781509D01*
X2275808Y6791432D01*
X2278136Y6803137D01*
X2275808Y6814843D01*
X2269177Y6824766D01*
X2259254Y6831396D01*
X2247549Y6833725D01*
D02*
G37*
G36*
X800625Y6775000D02*
X663800D01*
Y6674029D01*
X688800D01*
X718168Y6677895D01*
X745535Y6689231D01*
X769036Y6707264D01*
X787069Y6730765D01*
X798404Y6758131D01*
X800625Y6775000D01*
D02*
G37*
G36*
X638800D02*
X501975D01*
X504196Y6758131D01*
X515531Y6730765D01*
X533564Y6707264D01*
X557064Y6689231D01*
X584431Y6677895D01*
X613800Y6674029D01*
X638800D01*
Y6775000D01*
D02*
G37*
G36*
X3771100Y6657286D02*
X3748665Y6652824D01*
X3729645Y6640115D01*
X3716936Y6621095D01*
X3712473Y6598660D01*
X3716936Y6576225D01*
X3729645Y6557205D01*
X3748665Y6544496D01*
X3771100Y6540033D01*
X3793535Y6544496D01*
X3812555Y6557205D01*
X3825264Y6576225D01*
X3829726Y6598660D01*
X3825264Y6621095D01*
X3812555Y6640115D01*
X3793535Y6652824D01*
X3771100Y6657286D01*
D02*
G37*
G36*
X2284572Y6656166D02*
X2210526D01*
X2206094Y6653205D01*
X2193385Y6634185D01*
X2188922Y6611750D01*
X2193385Y6589314D01*
X2206094Y6570295D01*
Y6563915D01*
X2193385Y6544895D01*
X2188922Y6522460D01*
X2193385Y6500025D01*
X2206094Y6481005D01*
X2225113Y6468296D01*
X2247549Y6463833D01*
X2269984Y6468296D01*
X2289004Y6481005D01*
X2301712Y6500025D01*
X2306175Y6522460D01*
X2301712Y6544895D01*
X2289004Y6563915D01*
Y6570295D01*
X2301712Y6589314D01*
X2306175Y6611750D01*
X2301712Y6634185D01*
X2289004Y6653205D01*
X2284572Y6656166D01*
D02*
G37*
G36*
X688800Y6646970D02*
X613800D01*
X584431Y6643104D01*
X557064Y6631768D01*
X533564Y6613736D01*
X515531Y6590235D01*
X504196Y6562868D01*
X500329Y6533500D01*
X504196Y6504131D01*
X515531Y6476765D01*
X533564Y6453264D01*
X557064Y6435231D01*
X584431Y6423895D01*
X613800Y6420029D01*
X688800D01*
X718168Y6423895D01*
X745535Y6435231D01*
X769036Y6453264D01*
X787069Y6476765D01*
X798404Y6504131D01*
X802271Y6533500D01*
X798404Y6562868D01*
X787069Y6590235D01*
X769036Y6613736D01*
X745535Y6631768D01*
X718168Y6643104D01*
X688800Y6646970D01*
D02*
G37*
G36*
X542500Y5948627D02*
X520065Y5944164D01*
X504208Y5933569D01*
X488352Y5944164D01*
X465917Y5948627D01*
X443481Y5944164D01*
X424462Y5931455D01*
X424154D01*
X405135Y5944164D01*
X382700Y5948627D01*
X360264Y5944164D01*
X341244Y5931455D01*
X328536Y5912435D01*
X324073Y5890000D01*
X328536Y5867565D01*
X341244Y5848545D01*
X360264Y5835836D01*
X382700Y5831374D01*
X405135Y5835836D01*
X424154Y5848545D01*
X424462D01*
X443481Y5835836D01*
X465917Y5831374D01*
X488352Y5835836D01*
X504208Y5846431D01*
X520065Y5835836D01*
X542500Y5831374D01*
X564935Y5835836D01*
X583955Y5848545D01*
X596664Y5867565D01*
X601127Y5890000D01*
X596664Y5912435D01*
X583955Y5931455D01*
X564935Y5944164D01*
X542500Y5948627D01*
D02*
G37*
G36*
X5160480Y5463629D02*
X5138045Y5459166D01*
X5119025Y5446457D01*
X5106316Y5427437D01*
X5101853Y5405002D01*
X5106316Y5382567D01*
X5119025Y5363547D01*
X5138045Y5350838D01*
X5160480Y5346376D01*
X5182915Y5350838D01*
X5201935Y5363547D01*
X5214644Y5382567D01*
X5219106Y5405002D01*
X5214644Y5427437D01*
X5201935Y5446457D01*
X5182915Y5459166D01*
X5160480Y5463629D01*
D02*
G37*
G36*
X4840120Y5333626D02*
X4817685Y5329164D01*
X4798665Y5316455D01*
X4785956Y5297435D01*
X4781493Y5275000D01*
X4785956Y5252565D01*
X4798665Y5233545D01*
X4817685Y5220836D01*
X4840120Y5216373D01*
X4862555Y5220836D01*
X4881575Y5233545D01*
X4894284Y5252565D01*
X4898746Y5275000D01*
X4894284Y5297435D01*
X4881575Y5316455D01*
X4862555Y5329164D01*
X4840120Y5333626D01*
D02*
G37*
G36*
X3900640Y5125666D02*
X3878205Y5121204D01*
X3859185Y5108495D01*
X3846476Y5089475D01*
X3842013Y5067040D01*
X3846476Y5044605D01*
X3859185Y5025585D01*
X3878205Y5012876D01*
X3900640Y5008413D01*
X3923075Y5012876D01*
X3942095Y5025585D01*
X3954804Y5044605D01*
X3959266Y5067040D01*
X3954804Y5089475D01*
X3942095Y5108495D01*
X3923075Y5121204D01*
X3900640Y5125666D01*
D02*
G37*
G36*
X3004506Y4780999D02*
X2982071Y4776536D01*
X2963051Y4763827D01*
X2950342Y4744807D01*
X2945880Y4722372D01*
X2950342Y4699937D01*
X2963051Y4680917D01*
X2982071Y4668208D01*
X3004506Y4663746D01*
X3026941Y4668208D01*
X3045961Y4680917D01*
X3058670Y4699937D01*
X3063133Y4722372D01*
X3058670Y4744807D01*
X3045961Y4763827D01*
X3026941Y4776536D01*
X3004506Y4780999D01*
D02*
G37*
G36*
X593560Y4731128D02*
X571125Y4726665D01*
X552105Y4713957D01*
X539396Y4694937D01*
X534933Y4672502D01*
X539396Y4650066D01*
X552105Y4631047D01*
X571125Y4618338D01*
X593560Y4613875D01*
X615995Y4618338D01*
X635015Y4631047D01*
X647724Y4650066D01*
X652186Y4672502D01*
X647724Y4694937D01*
X635015Y4713957D01*
X615995Y4726665D01*
X593560Y4731128D01*
D02*
G37*
G36*
X1055840Y4629030D02*
X1033405Y4624568D01*
X1014385Y4611859D01*
X1001676Y4592839D01*
X997213Y4570404D01*
X1001676Y4547969D01*
X1014385Y4528949D01*
X1033405Y4516240D01*
X1055840Y4511777D01*
X1078275Y4516240D01*
X1097295Y4528949D01*
X1110004Y4547969D01*
X1114466Y4570404D01*
X1110004Y4592839D01*
X1097295Y4611859D01*
X1078275Y4624568D01*
X1055840Y4629030D01*
D02*
G37*
G36*
X3006412Y4588201D02*
X2983977Y4583739D01*
X2964957Y4571030D01*
X2952249Y4552010D01*
X2947786Y4529575D01*
X2949519Y4520860D01*
X2932511Y4503852D01*
X2927607Y4504827D01*
X2905172Y4500364D01*
X2886152Y4487655D01*
X2873444Y4468636D01*
X2868981Y4446200D01*
X2873444Y4423765D01*
X2886152Y4404745D01*
X2905172Y4392037D01*
X2927607Y4387574D01*
X2950043Y4392037D01*
X2969062Y4404745D01*
X2981771Y4423765D01*
X2986234Y4446200D01*
X2984500Y4454915D01*
X3001509Y4471924D01*
X3006412Y4470948D01*
X3028848Y4475411D01*
X3047867Y4488120D01*
X3060576Y4507140D01*
X3065039Y4529575D01*
X3060576Y4552010D01*
X3047867Y4571030D01*
X3028848Y4583739D01*
X3006412Y4588201D01*
D02*
G37*
G36*
X1059299Y4383626D02*
X1036864Y4379163D01*
X1017844Y4366454D01*
X1005135Y4347435D01*
X1000672Y4324999D01*
X1005135Y4302564D01*
X1017844Y4283544D01*
X1036864Y4270836D01*
X1059299Y4266373D01*
X1081734Y4270836D01*
X1100754Y4283544D01*
X1113463Y4302564D01*
X1117925Y4324999D01*
X1113463Y4347435D01*
X1100754Y4366454D01*
X1081734Y4379163D01*
X1059299Y4383626D01*
D02*
G37*
G36*
X3876441Y4350610D02*
X3854005Y4346147D01*
X3834986Y4333438D01*
X3822277Y4314419D01*
X3817814Y4291983D01*
X3822277Y4269548D01*
X3834986Y4250528D01*
X3854005Y4237820D01*
X3876441Y4233357D01*
X3898876Y4237820D01*
X3917896Y4250528D01*
X3930605Y4269548D01*
X3935067Y4291983D01*
X3930605Y4314419D01*
X3917896Y4333438D01*
X3898876Y4346147D01*
X3876441Y4350610D01*
D02*
G37*
G36*
X1159301Y4054139D02*
X1136866Y4049676D01*
X1117846Y4036968D01*
X1105137Y4017948D01*
X1100675Y3995512D01*
X1105137Y3973077D01*
X1117846Y3954057D01*
X1136866Y3941349D01*
X1159301Y3936886D01*
X1181737Y3941349D01*
X1200756Y3954057D01*
X1213465Y3973077D01*
X1217928Y3995512D01*
X1213465Y4017948D01*
X1200756Y4036968D01*
X1181737Y4049676D01*
X1159301Y4054139D01*
D02*
G37*
G36*
X1081435Y3841161D02*
X1058999Y3836698D01*
X1039980Y3823989D01*
X1027271Y3804970D01*
X1022808Y3782534D01*
X1027271Y3760099D01*
X1039980Y3741079D01*
X1058999Y3728370D01*
X1081435Y3723908D01*
X1103870Y3728370D01*
X1122890Y3741079D01*
X1135598Y3760099D01*
X1140061Y3782534D01*
X1135598Y3804970D01*
X1122890Y3823989D01*
X1103870Y3836698D01*
X1081435Y3841161D01*
D02*
G37*
G36*
X3104380Y3688026D02*
X3081945Y3683564D01*
X3062925Y3670855D01*
X3050216Y3651835D01*
X3045753Y3629400D01*
X3050216Y3606965D01*
X3062925Y3587945D01*
X3081945Y3575236D01*
X3104380Y3570773D01*
X3126815Y3575236D01*
X3145835Y3587945D01*
X3158544Y3606965D01*
X3163006Y3629400D01*
X3158544Y3651835D01*
X3145835Y3670855D01*
X3126815Y3683564D01*
X3104380Y3688026D01*
D02*
G37*
G36*
X899998Y3588964D02*
X877563Y3584501D01*
X858543Y3571792D01*
X845834Y3552772D01*
X841372Y3530337D01*
X845834Y3507902D01*
X858543Y3488882D01*
X877563Y3476173D01*
X899998Y3471711D01*
X922434Y3476173D01*
X941453Y3488882D01*
X954162Y3507902D01*
X958625Y3530337D01*
X954162Y3552772D01*
X941453Y3571792D01*
X922434Y3584501D01*
X899998Y3588964D01*
D02*
G37*
G36*
X3122412Y3521122D02*
X3099977Y3516660D01*
X3080957Y3503951D01*
X3068249Y3484931D01*
X3063786Y3462496D01*
X3068249Y3440061D01*
X3080957Y3421041D01*
X3099977Y3408332D01*
X3122412Y3403869D01*
X3144848Y3408332D01*
X3163867Y3421041D01*
X3176576Y3440061D01*
X3181039Y3462496D01*
X3176576Y3484931D01*
X3163867Y3503951D01*
X3144848Y3516660D01*
X3122412Y3521122D01*
D02*
G37*
G36*
X1081435Y3441929D02*
X1058999Y3437466D01*
X1039980Y3424758D01*
X1027271Y3405738D01*
X1022808Y3383303D01*
X1027271Y3360867D01*
X1039980Y3341848D01*
X1058999Y3329139D01*
X1081435Y3324676D01*
X1103870Y3329139D01*
X1122890Y3341848D01*
X1135598Y3360867D01*
X1140061Y3383303D01*
X1135598Y3405738D01*
X1122890Y3424758D01*
X1103870Y3437466D01*
X1081435Y3441929D01*
D02*
G37*
G36*
X2558547Y3427138D02*
X2536112Y3422675D01*
X2517092Y3409967D01*
X2504384Y3390947D01*
X2499921Y3368511D01*
X2504384Y3346076D01*
X2517092Y3327056D01*
X2523383Y3322853D01*
Y3298799D01*
X2516140Y3293960D01*
X2503431Y3274940D01*
X2498969Y3252505D01*
X2503431Y3230069D01*
X2516140Y3211049D01*
X2535160Y3198341D01*
X2557595Y3193878D01*
X2580030Y3198341D01*
X2599050Y3211049D01*
X2611759Y3230069D01*
X2616222Y3252505D01*
X2614292Y3262205D01*
X2629128Y3282205D01*
X3554385D01*
X3569016Y3285115D01*
X3581421Y3293403D01*
X3592041Y3304023D01*
X3595840Y3303268D01*
X3618275Y3307730D01*
X3637295Y3320439D01*
X3650004Y3339459D01*
X3654466Y3361894D01*
X3650004Y3384330D01*
X3637295Y3403349D01*
X3618275Y3416058D01*
X3595840Y3420521D01*
X3573405Y3416058D01*
X3554385Y3403349D01*
X3541676Y3384330D01*
X3537213Y3361894D01*
X3534570Y3358673D01*
X2634606D01*
X2617174Y3368512D01*
X2612711Y3390947D01*
X2600002Y3409967D01*
X2580983Y3422675D01*
X2558547Y3427138D01*
D02*
G37*
G36*
X3775001Y3345126D02*
X3752566Y3340664D01*
X3733546Y3327955D01*
X3720838Y3308935D01*
X3716375Y3286500D01*
X3720838Y3264065D01*
X3733546Y3245045D01*
X3752566Y3232336D01*
X3775001Y3227873D01*
X3797437Y3232336D01*
X3816456Y3245045D01*
X3829165Y3264065D01*
X3833628Y3286500D01*
X3829165Y3308935D01*
X3816456Y3327955D01*
X3797437Y3340664D01*
X3775001Y3345126D01*
D02*
G37*
G36*
X1815000Y3248627D02*
X1792565Y3244164D01*
X1773545Y3231455D01*
X1760836Y3212436D01*
X1756374Y3190000D01*
X1760836Y3167565D01*
X1773545Y3148545D01*
X1792565Y3135837D01*
X1815000Y3131374D01*
X1837435Y3135837D01*
X1856455Y3148545D01*
X1869164Y3167565D01*
X1873627Y3190000D01*
X1869164Y3212436D01*
X1856455Y3231455D01*
X1837435Y3244164D01*
X1815000Y3248627D01*
D02*
G37*
G36*
X2304319Y3234629D02*
X2281883Y3230166D01*
X2262864Y3217458D01*
X2250155Y3198438D01*
X2245692Y3176003D01*
X2250155Y3153567D01*
X2262864Y3134547D01*
X2281883Y3121839D01*
X2304319Y3117376D01*
X2326754Y3121839D01*
X2345774Y3134547D01*
X2358482Y3153567D01*
X2362945Y3176003D01*
X2358482Y3198438D01*
X2345774Y3217458D01*
X2326754Y3230166D01*
X2304319Y3234629D01*
D02*
G37*
G36*
X2955760Y3246066D02*
X2933325Y3241604D01*
X2914305Y3228895D01*
X2901596Y3209875D01*
X2897133Y3187440D01*
X2901596Y3165005D01*
X2904149Y3161184D01*
X2891445Y3152695D01*
X2878736Y3133675D01*
X2874273Y3111240D01*
X2878736Y3088805D01*
X2891445Y3069785D01*
X2910465Y3057076D01*
X2932900Y3052613D01*
X2955335Y3057076D01*
X2974355Y3069785D01*
X2987064Y3088805D01*
X2991526Y3111240D01*
X2987064Y3133675D01*
X2984511Y3137496D01*
X2997215Y3145985D01*
X3009924Y3165005D01*
X3014386Y3187440D01*
X3009924Y3209875D01*
X2997215Y3228895D01*
X2978195Y3241604D01*
X2955760Y3246066D01*
D02*
G37*
G36*
X3245142Y3222348D02*
X3222706Y3217885D01*
X3203687Y3205176D01*
X3190978Y3186157D01*
X3186515Y3163721D01*
X3190726Y3142553D01*
X3171490Y3138726D01*
X3152471Y3126018D01*
X3139762Y3106998D01*
X3135299Y3084563D01*
X3139762Y3062127D01*
X3152471Y3043107D01*
X3171490Y3030399D01*
X3193926Y3025936D01*
X3216361Y3030399D01*
X3235381Y3043107D01*
X3248090Y3062127D01*
X3252552Y3084563D01*
X3248341Y3105731D01*
X3267577Y3109558D01*
X3286597Y3122266D01*
X3299305Y3141286D01*
X3303768Y3163721D01*
X3299305Y3186157D01*
X3286597Y3205176D01*
X3267577Y3217885D01*
X3245142Y3222348D01*
D02*
G37*
G36*
X2269056Y3064446D02*
X2246620Y3059983D01*
X2227601Y3047275D01*
X2214892Y3028255D01*
X2210429Y3005820D01*
X2214892Y2983384D01*
X2227601Y2964365D01*
X2246620Y2951656D01*
X2269056Y2947193D01*
X2291491Y2951656D01*
X2310511Y2964365D01*
X2323219Y2983384D01*
X2327682Y3005820D01*
X2323219Y3028255D01*
X2310511Y3047275D01*
X2291491Y3059983D01*
X2269056Y3064446D01*
D02*
G37*
G36*
X3111234Y3016125D02*
X3088798Y3011662D01*
X3069779Y2998953D01*
X3057070Y2979934D01*
X3052607Y2957498D01*
X3057070Y2935063D01*
X3069779Y2916043D01*
X3088798Y2903335D01*
X3111234Y2898872D01*
X3133669Y2903335D01*
X3152689Y2916043D01*
X3165398Y2935063D01*
X3169860Y2957498D01*
X3165398Y2979934D01*
X3152689Y2998953D01*
X3133669Y3011662D01*
X3111234Y3016125D01*
D02*
G37*
G36*
X1526812Y2706489D02*
X1504376Y2702026D01*
X1485357Y2689318D01*
X1472648Y2670298D01*
X1468185Y2647863D01*
X1472648Y2625427D01*
X1485357Y2606408D01*
X1504376Y2593699D01*
X1526812Y2589236D01*
X1549247Y2593699D01*
X1568267Y2606408D01*
X1580976Y2625427D01*
X1585438Y2647863D01*
X1580976Y2670298D01*
X1568267Y2689318D01*
X1549247Y2702026D01*
X1526812Y2706489D01*
D02*
G37*
G36*
X3957333Y2514573D02*
X3930915Y2511095D01*
X3906296Y2500898D01*
X3897471Y2494126D01*
X3882335Y2486162D01*
X3867198Y2494126D01*
X3858373Y2500898D01*
X3833755Y2511095D01*
X3819836Y2512927D01*
Y2412500D01*
Y2312072D01*
X3833755Y2313905D01*
X3858373Y2324102D01*
X3867198Y2330874D01*
X3882335Y2338838D01*
X3897471Y2330874D01*
X3906296Y2324102D01*
X3930915Y2313905D01*
X3957333Y2310427D01*
X3983752Y2313905D01*
X4008370Y2324102D01*
X4029510Y2340323D01*
X4045731Y2361463D01*
X4055928Y2386081D01*
X4059406Y2412500D01*
X4055928Y2438918D01*
X4045731Y2463536D01*
X4029510Y2484677D01*
X4008370Y2500898D01*
X3983752Y2511095D01*
X3957333Y2514573D01*
D02*
G37*
G36*
X3794836Y2512927D02*
X3780918Y2511095D01*
X3756299Y2500898D01*
X3735159Y2484677D01*
X3718938Y2463536D01*
X3708741Y2438918D01*
X3706909Y2425000D01*
X3794836D01*
Y2512927D01*
D02*
G37*
G36*
Y2400000D02*
X3706909D01*
X3708741Y2386081D01*
X3718938Y2361463D01*
X3735159Y2340323D01*
X3756299Y2324102D01*
X3780918Y2313905D01*
X3794836Y2312072D01*
Y2400000D01*
D02*
G37*
G36*
X2990057Y7327502D02*
X2967183D01*
X2946049Y7318748D01*
X2929874Y7302573D01*
X2921120Y7281440D01*
Y7258565D01*
X2929874Y7237431D01*
X2946049Y7221256D01*
X2967183Y7212502D01*
X2990057D01*
X3011191Y7221256D01*
X3027366Y7237431D01*
X3036120Y7258565D01*
Y7281440D01*
X3027366Y7302573D01*
X3011191Y7318748D01*
X2990057Y7327502D01*
D02*
G37*
G36*
X2977754Y7187503D02*
X2954879D01*
X2933745Y7178749D01*
X2917570Y7162574D01*
X2908816Y7141440D01*
Y7118565D01*
X2917570Y7097431D01*
X2933745Y7081256D01*
X2954879Y7072502D01*
X2977754D01*
X2998887Y7081256D01*
X3015062Y7097431D01*
X3023816Y7118565D01*
Y7141440D01*
X3015062Y7162574D01*
X2998887Y7178749D01*
X2977754Y7187503D01*
D02*
G37*
G36*
X2509997Y7141300D02*
X2487123D01*
X2465989Y7132546D01*
X2449814Y7116371D01*
X2441060Y7095237D01*
Y7072363D01*
X2449814Y7051229D01*
X2465989Y7035054D01*
X2487123Y7026300D01*
X2509997D01*
X2531131Y7035054D01*
X2547306Y7051229D01*
X2556060Y7072363D01*
Y7095237D01*
X2547306Y7116371D01*
X2531131Y7132546D01*
X2509997Y7141300D01*
D02*
G37*
G36*
X6419057Y6262460D02*
X6396183D01*
X6375049Y6253706D01*
X6358874Y6237531D01*
X6350120Y6216397D01*
Y6193523D01*
X6358874Y6172389D01*
X6375049Y6156214D01*
X6396183Y6147460D01*
X6419057D01*
X6440191Y6156214D01*
X6456366Y6172389D01*
X6465120Y6193523D01*
Y6216397D01*
X6456366Y6237531D01*
X6440191Y6253706D01*
X6419057Y6262460D01*
D02*
G37*
G36*
X6925010Y6220914D02*
X6902135D01*
X6881001Y6212161D01*
X6864827Y6195986D01*
X6856073Y6174852D01*
Y6151977D01*
X6864827Y6130843D01*
X6881001Y6114668D01*
X6902135Y6105914D01*
X6925010D01*
X6946144Y6114668D01*
X6962319Y6130843D01*
X6971073Y6151977D01*
Y6174852D01*
X6962319Y6195986D01*
X6946144Y6212161D01*
X6925010Y6220914D01*
D02*
G37*
G36*
X10612597Y4913720D02*
X10589723D01*
X10568589Y4904966D01*
X10552414Y4888791D01*
X10545977Y4873251D01*
X10525182D01*
X10518746Y4888791D01*
X10502571Y4904966D01*
X10481437Y4913720D01*
X10458562D01*
X10437428Y4904966D01*
X10421253Y4888791D01*
X10412499Y4867657D01*
Y4844783D01*
X10421253Y4823649D01*
X10437428Y4807474D01*
X10458562Y4798720D01*
X10481437D01*
X10502571Y4807474D01*
X10518746Y4823649D01*
X10525182Y4839188D01*
X10545977D01*
X10552414Y4823649D01*
X10568589Y4807474D01*
X10589723Y4798720D01*
X10612597D01*
X10633731Y4807474D01*
X10649906Y4823649D01*
X10658660Y4844783D01*
Y4867657D01*
X10649906Y4888791D01*
X10633731Y4904966D01*
X10612597Y4913720D01*
D02*
G37*
G36*
X8853937Y4611460D02*
X8831062D01*
X8809928Y4602706D01*
X8793753Y4586531D01*
X8784999Y4565397D01*
Y4542523D01*
X8793753Y4521389D01*
X8809928Y4505214D01*
X8831062Y4496460D01*
X8853937D01*
X8875071Y4505214D01*
X8891246Y4521389D01*
X8899999Y4542523D01*
Y4565397D01*
X8891246Y4586531D01*
X8875071Y4602706D01*
X8853937Y4611460D01*
D02*
G37*
G36*
X10661436Y5767160D02*
X10638562D01*
X10617428Y5758406D01*
X10601253Y5742231D01*
X10592499Y5721097D01*
Y5698223D01*
X10601253Y5677089D01*
X10617428Y5660914D01*
X10638562Y5652160D01*
X10661436D01*
X10682570Y5660914D01*
X10698745Y5677089D01*
X10707499Y5698223D01*
Y5721097D01*
X10698745Y5742231D01*
X10682570Y5758406D01*
X10661436Y5767160D01*
D02*
G37*
G36*
X10411937Y5764620D02*
X10389063D01*
X10367929Y5755866D01*
X10351754Y5739691D01*
X10343000Y5718557D01*
Y5695683D01*
X10351754Y5674549D01*
X10362266Y5664037D01*
Y5509340D01*
X10365176Y5494709D01*
X10373464Y5482305D01*
X10607160Y5248609D01*
Y5233743D01*
X10592870Y5215980D01*
X10589723D01*
X10568589Y5207226D01*
X10552414Y5191051D01*
X10543660Y5169917D01*
Y5147043D01*
X10552414Y5125909D01*
X10568589Y5109734D01*
X10589723Y5100980D01*
X10612597D01*
X10633731Y5109734D01*
X10649906Y5125909D01*
X10658660Y5147043D01*
Y5169917D01*
X10672950Y5187680D01*
X10676097D01*
X10697231Y5196434D01*
X10713406Y5212609D01*
X10722160Y5233743D01*
Y5256618D01*
X10713406Y5277751D01*
X10697231Y5293926D01*
X10676097Y5302680D01*
X10661231D01*
X10477550Y5486362D01*
X10485622Y5506574D01*
X10502571Y5513594D01*
X10518746Y5529769D01*
X10524942Y5544730D01*
X10545977Y5546210D01*
X10551256Y5533467D01*
X10567430Y5517292D01*
X10588564Y5508538D01*
X10611439D01*
X10632573Y5517292D01*
X10648748Y5533467D01*
X10657502Y5554601D01*
Y5577476D01*
X10648748Y5598609D01*
X10632573Y5614784D01*
X10611439Y5623538D01*
X10588564D01*
X10567430Y5614784D01*
X10551256Y5598609D01*
X10545059Y5583648D01*
X10524024Y5582168D01*
X10518746Y5594911D01*
X10502571Y5611086D01*
X10481437Y5619840D01*
X10458562D01*
X10455364Y5618515D01*
X10438734Y5629627D01*
Y5664037D01*
X10449246Y5674549D01*
X10458000Y5695683D01*
Y5718557D01*
X10449246Y5739691D01*
X10433071Y5755866D01*
X10411937Y5764620D01*
D02*
G37*
G36*
X9936957Y5538560D02*
X9914083D01*
X9892949Y5529806D01*
X9876774Y5513631D01*
X9868020Y5492497D01*
Y5469623D01*
X9876774Y5448489D01*
X9892949Y5432314D01*
X9914083Y5423560D01*
X9928948D01*
X9992464Y5360044D01*
X10004868Y5351756D01*
X10019500Y5348846D01*
X10081918D01*
X10092430Y5338334D01*
X10113564Y5329580D01*
X10136439D01*
X10157573Y5338334D01*
X10173747Y5354509D01*
X10182501Y5375643D01*
Y5398517D01*
X10173747Y5419651D01*
X10157573Y5435826D01*
X10136439Y5444580D01*
X10113564D01*
X10092430Y5435826D01*
X10081918Y5425314D01*
X10035337D01*
X9983020Y5477631D01*
Y5492497D01*
X9974266Y5513631D01*
X9958091Y5529806D01*
X9936957Y5538560D01*
D02*
G37*
G36*
X10343157Y7597502D02*
X10314851D01*
X10287511Y7590176D01*
X10262998Y7576023D01*
X10242983Y7556008D01*
X10228830Y7531495D01*
X10221504Y7504154D01*
Y7475849D01*
X10228830Y7448508D01*
X10242983Y7423995D01*
X10262998Y7403980D01*
X10287511Y7389828D01*
X10314851Y7382502D01*
X10343157D01*
X10370497Y7389828D01*
X10395010Y7403980D01*
X10415025Y7423995D01*
X10429178Y7448508D01*
X10436504Y7475849D01*
Y7504154D01*
X10429178Y7531495D01*
X10415025Y7556008D01*
X10395010Y7576023D01*
X10370497Y7590176D01*
X10343157Y7597502D01*
D02*
G37*
G36*
X9962157D02*
X9933851D01*
X9906511Y7590176D01*
X9881998Y7576023D01*
X9861983Y7556008D01*
X9847830Y7531495D01*
X9840504Y7504154D01*
Y7475849D01*
X9847830Y7448508D01*
X9861983Y7423995D01*
X9881998Y7403980D01*
X9906511Y7389828D01*
X9933851Y7382502D01*
X9962157D01*
X9989497Y7389828D01*
X10014010Y7403980D01*
X10034025Y7423995D01*
X10048178Y7448508D01*
X10055504Y7475849D01*
Y7504154D01*
X10048178Y7531495D01*
X10034025Y7556008D01*
X10014010Y7576023D01*
X9989497Y7590176D01*
X9962157Y7597502D01*
D02*
G37*
G36*
X9581157D02*
X9552851D01*
X9525511Y7590176D01*
X9500998Y7576023D01*
X9480983Y7556008D01*
X9466830Y7531495D01*
X9459504Y7504154D01*
Y7475849D01*
X9466830Y7448508D01*
X9480983Y7423995D01*
X9500998Y7403980D01*
X9525511Y7389828D01*
X9552851Y7382502D01*
X9581157D01*
X9608497Y7389828D01*
X9633010Y7403980D01*
X9653025Y7423995D01*
X9667178Y7448508D01*
X9674504Y7475849D01*
Y7504154D01*
X9667178Y7531495D01*
X9653025Y7556008D01*
X9633010Y7576023D01*
X9608497Y7590176D01*
X9581157Y7597502D01*
D02*
G37*
G36*
X9200157D02*
X9171851D01*
X9144511Y7590176D01*
X9119998Y7576023D01*
X9099983Y7556008D01*
X9085830Y7531495D01*
X9078504Y7504154D01*
Y7475849D01*
X9085830Y7448508D01*
X9099983Y7423995D01*
X9119998Y7403980D01*
X9144511Y7389828D01*
X9171851Y7382502D01*
X9200157D01*
X9227497Y7389828D01*
X9252010Y7403980D01*
X9272025Y7423995D01*
X9286178Y7448508D01*
X9293504Y7475849D01*
Y7504154D01*
X9286178Y7531495D01*
X9272025Y7556008D01*
X9252010Y7576023D01*
X9227497Y7590176D01*
X9200157Y7597502D01*
D02*
G37*
G36*
X8819157D02*
X8790851D01*
X8763511Y7590176D01*
X8738998Y7576023D01*
X8718983Y7556008D01*
X8704830Y7531495D01*
X8697504Y7504154D01*
Y7475849D01*
X8704830Y7448508D01*
X8718983Y7423995D01*
X8738998Y7403980D01*
X8763511Y7389828D01*
X8790851Y7382502D01*
X8819157D01*
X8846497Y7389828D01*
X8871010Y7403980D01*
X8891025Y7423995D01*
X8905178Y7448508D01*
X8912504Y7475849D01*
Y7504154D01*
X8905178Y7531495D01*
X8891025Y7556008D01*
X8871010Y7576023D01*
X8846497Y7590176D01*
X8819157Y7597502D01*
D02*
G37*
G36*
X8438157D02*
X8409851D01*
X8382511Y7590176D01*
X8357998Y7576023D01*
X8337983Y7556008D01*
X8323830Y7531495D01*
X8316504Y7504154D01*
Y7475849D01*
X8323830Y7448508D01*
X8337983Y7423995D01*
X8357998Y7403980D01*
X8382511Y7389828D01*
X8409851Y7382502D01*
X8438157D01*
X8465497Y7389828D01*
X8490010Y7403980D01*
X8510025Y7423995D01*
X8524178Y7448508D01*
X8531504Y7475849D01*
Y7504154D01*
X8524178Y7531495D01*
X8510025Y7556008D01*
X8490010Y7576023D01*
X8465497Y7590176D01*
X8438157Y7597502D01*
D02*
G37*
G36*
X8057157D02*
X8028851D01*
X8001511Y7590176D01*
X7976998Y7576023D01*
X7956983Y7556008D01*
X7942830Y7531495D01*
X7935504Y7504154D01*
Y7475849D01*
X7942830Y7448508D01*
X7956983Y7423995D01*
X7976998Y7403980D01*
X8001511Y7389828D01*
X8028851Y7382502D01*
X8057157D01*
X8084497Y7389828D01*
X8109010Y7403980D01*
X8129025Y7423995D01*
X8143178Y7448508D01*
X8150504Y7475849D01*
Y7504154D01*
X8143178Y7531495D01*
X8129025Y7556008D01*
X8109010Y7576023D01*
X8084497Y7590176D01*
X8057157Y7597502D01*
D02*
G37*
G36*
X7676157D02*
X7647851D01*
X7620511Y7590176D01*
X7595998Y7576023D01*
X7575983Y7556008D01*
X7561830Y7531495D01*
X7554504Y7504154D01*
Y7475849D01*
X7561830Y7448508D01*
X7575983Y7423995D01*
X7595998Y7403980D01*
X7620511Y7389828D01*
X7647851Y7382502D01*
X7676157D01*
X7703497Y7389828D01*
X7728010Y7403980D01*
X7748025Y7423995D01*
X7762178Y7448508D01*
X7769504Y7475849D01*
Y7504154D01*
X7762178Y7531495D01*
X7748025Y7556008D01*
X7728010Y7576023D01*
X7703497Y7590176D01*
X7676157Y7597502D01*
D02*
G37*
G36*
X7295157D02*
X7266851D01*
X7239511Y7590176D01*
X7214998Y7576023D01*
X7194983Y7556008D01*
X7180830Y7531495D01*
X7173504Y7504154D01*
Y7475849D01*
X7180830Y7448508D01*
X7194983Y7423995D01*
X7214998Y7403980D01*
X7239511Y7389828D01*
X7266851Y7382502D01*
X7295157D01*
X7322497Y7389828D01*
X7347010Y7403980D01*
X7367025Y7423995D01*
X7381178Y7448508D01*
X7388504Y7475849D01*
Y7504154D01*
X7381178Y7531495D01*
X7367025Y7556008D01*
X7347010Y7576023D01*
X7322497Y7590176D01*
X7295157Y7597502D01*
D02*
G37*
G36*
X7115866Y7235280D02*
X7092991D01*
X7071857Y7226526D01*
X7055682Y7210351D01*
X7046928Y7189217D01*
Y7166343D01*
X7055682Y7145209D01*
X7071857Y7129034D01*
X7092991Y7120280D01*
X7115866D01*
X7136999Y7129034D01*
X7153174Y7145209D01*
X7161928Y7166343D01*
Y7189217D01*
X7153174Y7210351D01*
X7136999Y7226526D01*
X7115866Y7235280D01*
D02*
G37*
G36*
X7158197Y7062560D02*
X7135323D01*
X7114189Y7053806D01*
X7098014Y7037631D01*
X7089260Y7016497D01*
Y6993623D01*
X7098014Y6972489D01*
X7114189Y6956314D01*
X7135323Y6947560D01*
X7158197D01*
X7179331Y6956314D01*
X7195506Y6972489D01*
X7204260Y6993623D01*
Y7016497D01*
X7195506Y7037631D01*
X7179331Y7053806D01*
X7158197Y7062560D01*
D02*
G37*
G36*
X9512777Y6640920D02*
X9489903D01*
X9468769Y6632166D01*
X9452594Y6615991D01*
X9443840Y6594857D01*
Y6571983D01*
X9452594Y6550849D01*
X9468769Y6534674D01*
X9489903Y6525920D01*
X9512777D01*
X9533911Y6534674D01*
X9550086Y6550849D01*
X9558840Y6571983D01*
Y6594857D01*
X9550086Y6615991D01*
X9533911Y6632166D01*
X9512777Y6640920D01*
D02*
G37*
G36*
X8052242Y3488780D02*
X8029367D01*
X8008233Y3480026D01*
X7992058Y3463851D01*
X7983304Y3442717D01*
Y3419843D01*
X7992058Y3398709D01*
X8008233Y3382534D01*
X8029367Y3373780D01*
X8052242D01*
X8073376Y3382534D01*
X8089550Y3398709D01*
X8098304Y3419843D01*
Y3442717D01*
X8089550Y3463851D01*
X8073376Y3480026D01*
X8052242Y3488780D01*
D02*
G37*
G36*
X8741758Y3484198D02*
X8718884D01*
X8697750Y3475444D01*
X8681575Y3459269D01*
X8672821Y3438135D01*
Y3415260D01*
X8681575Y3394127D01*
X8697750Y3377952D01*
X8718884Y3369198D01*
X8741758D01*
X8762892Y3377952D01*
X8779067Y3394127D01*
X8787821Y3415260D01*
Y3438135D01*
X8779067Y3459269D01*
X8762892Y3475444D01*
X8741758Y3484198D01*
D02*
G37*
G36*
X8256437Y3352504D02*
X8233563D01*
X8212429Y3343750D01*
X8196254Y3327575D01*
X8187500Y3306441D01*
Y3283566D01*
X8196254Y3262433D01*
X8212429Y3246258D01*
X8233563Y3237504D01*
X8256437D01*
X8277571Y3246258D01*
X8293746Y3262433D01*
X8302500Y3283566D01*
Y3306441D01*
X8293746Y3327575D01*
X8277571Y3343750D01*
X8256437Y3352504D01*
D02*
G37*
G36*
X10497543Y3220071D02*
X9596112D01*
X9581481Y3217161D01*
X9569077Y3208872D01*
X9560928Y3200724D01*
X9546062D01*
X9524928Y3191970D01*
X9508753Y3175795D01*
X9499999Y3154661D01*
Y3131786D01*
X9508753Y3110652D01*
X9524928Y3094477D01*
X9546062Y3085724D01*
X9568937D01*
X9590070Y3094477D01*
X9606245Y3110652D01*
X9614999Y3131786D01*
Y3143602D01*
X9680703D01*
X9689744Y3123602D01*
X9683049Y3107437D01*
Y3084563D01*
X9691803Y3063429D01*
X9707978Y3047254D01*
X9729111Y3038500D01*
X9751986D01*
X9773120Y3047254D01*
X9789295Y3063429D01*
X9798049Y3084563D01*
Y3107437D01*
X9791353Y3123602D01*
X9800395Y3143602D01*
X10132374D01*
X10134730Y3139474D01*
X10138505Y3123602D01*
X10125694Y3110791D01*
X10116940Y3089657D01*
Y3074791D01*
X10046843Y3004694D01*
X9930503D01*
X9919991Y3015206D01*
X9898857Y3023960D01*
X9875983D01*
X9854849Y3015206D01*
X9838674Y2999031D01*
X9829920Y2977897D01*
Y2955023D01*
X9832092Y2949780D01*
X9818728Y2929780D01*
X9625420D01*
X9614308Y2946409D01*
X9614720Y2947403D01*
Y2970277D01*
X9605966Y2991411D01*
X9589791Y3007586D01*
X9568657Y3016340D01*
X9545783D01*
X9524649Y3007586D01*
X9508474Y2991411D01*
X9502374Y2976684D01*
X9481242Y2969532D01*
X9465731Y2985043D01*
Y2986877D01*
X9476243Y2997389D01*
X9484997Y3018523D01*
Y3041397D01*
X9476243Y3062531D01*
X9460068Y3078706D01*
X9438934Y3087460D01*
X9416060D01*
X9394926Y3078706D01*
X9378751Y3062531D01*
X9369997Y3041397D01*
Y3018523D01*
X9378751Y2997389D01*
X9389263Y2986877D01*
Y2969205D01*
X9392173Y2954574D01*
X9400461Y2942170D01*
X9478122Y2864509D01*
X9490526Y2856221D01*
X9505157Y2853311D01*
X10917405D01*
X10932037Y2856221D01*
X10944441Y2864509D01*
X11052391Y2972460D01*
X11067257D01*
X11088391Y2981214D01*
X11104566Y2997389D01*
X11113320Y3018523D01*
Y3041397D01*
X11104566Y3062531D01*
X11088391Y3078706D01*
X11089061Y3091006D01*
X11108829Y3092104D01*
X11129963Y3083350D01*
X11152837D01*
X11173971Y3092104D01*
X11190146Y3108279D01*
X11198900Y3129412D01*
Y3152287D01*
X11190146Y3173421D01*
X11173971Y3189596D01*
X11152837Y3198350D01*
X11129963D01*
X11108829Y3189596D01*
X11101727Y3182494D01*
X11058360D01*
X11043728Y3179584D01*
X11031324Y3171296D01*
X10976483Y3116454D01*
X10616997D01*
X10524579Y3208872D01*
X10512175Y3217161D01*
X10497543Y3220071D01*
D02*
G37*
G36*
X11130757Y2813140D02*
X11107883D01*
X11086749Y2804386D01*
X11076237Y2793874D01*
X9536803D01*
X9526291Y2804386D01*
X9505157Y2813140D01*
X9482283D01*
X9461149Y2804386D01*
X9444974Y2788211D01*
X9436220Y2767077D01*
Y2744203D01*
X9444974Y2723069D01*
X9461149Y2706894D01*
X9482283Y2698140D01*
X9505157D01*
X9526291Y2706894D01*
X9536803Y2717406D01*
X11076237D01*
X11086749Y2706894D01*
X11107883Y2698140D01*
X11130757D01*
X11151891Y2706894D01*
X11168066Y2723069D01*
X11176820Y2744203D01*
Y2767077D01*
X11168066Y2788211D01*
X11151891Y2804386D01*
X11130757Y2813140D01*
D02*
G37*
G36*
X11271831Y2657280D02*
X11248956D01*
X11227822Y2648526D01*
X11211647Y2632351D01*
X11202894Y2611217D01*
Y2588343D01*
X11211647Y2567209D01*
X11227822Y2551034D01*
X11248956Y2542280D01*
X11271831D01*
X11292965Y2551034D01*
X11309140Y2567209D01*
X11317894Y2588343D01*
Y2611217D01*
X11309140Y2632351D01*
X11292965Y2648526D01*
X11271831Y2657280D01*
D02*
G37*
G36*
X9718517Y2684997D02*
X9695643D01*
X9674509Y2676243D01*
X9658334Y2660068D01*
X9649580Y2638934D01*
Y2616060D01*
X9658334Y2594926D01*
X9674509Y2578751D01*
X9695643Y2569997D01*
X9700715D01*
X9715620Y2553717D01*
Y2530843D01*
X9724374Y2509709D01*
X9740549Y2493534D01*
X9761683Y2484780D01*
X9784557D01*
X9805691Y2493534D01*
X9821866Y2509709D01*
X9830620Y2530843D01*
Y2553717D01*
X9821866Y2574851D01*
X9805691Y2591026D01*
X9784557Y2599780D01*
X9779485D01*
X9764580Y2616060D01*
Y2638934D01*
X9755826Y2660068D01*
X9739651Y2676243D01*
X9718517Y2684997D01*
D02*
G37*
G36*
X7374097Y2477860D02*
X7351223D01*
X7330089Y2469106D01*
X7313914Y2452931D01*
X7305160Y2431797D01*
Y2416931D01*
X7275703Y2387474D01*
X7149914D01*
X7139402Y2397986D01*
X7118268Y2406740D01*
X7095394D01*
X7074260Y2397986D01*
X7058085Y2381811D01*
X7049331Y2360677D01*
Y2337803D01*
X7058085Y2316669D01*
X7074260Y2300494D01*
X7095394Y2291740D01*
X7118268D01*
X7139402Y2300494D01*
X7149914Y2311006D01*
X7291540D01*
X7306172Y2313916D01*
X7318576Y2322204D01*
X7359231Y2362860D01*
X7374097D01*
X7395231Y2371614D01*
X7411406Y2387789D01*
X7420160Y2408923D01*
Y2431797D01*
X7411406Y2452931D01*
X7395231Y2469106D01*
X7374097Y2477860D01*
D02*
G37*
G36*
X11355065Y2153302D02*
X11332190D01*
X11311057Y2144548D01*
X11294882Y2128373D01*
X11286128Y2107239D01*
Y2084364D01*
X11294882Y2063230D01*
X11311057Y2047055D01*
X11332190Y2038301D01*
X11355065D01*
X11376199Y2047055D01*
X11392374Y2063230D01*
X11401128Y2084364D01*
Y2107239D01*
X11392374Y2128373D01*
X11376199Y2144548D01*
X11355065Y2153302D01*
D02*
G37*
G36*
X10268277Y945006D02*
X10245402D01*
X10224268Y936252D01*
X10208093Y920077D01*
X10199340Y898943D01*
Y876069D01*
X10208093Y854935D01*
X10224268Y838760D01*
X10245402Y830006D01*
X10268277D01*
X10289411Y838760D01*
X10305586Y854935D01*
X10314340Y876069D01*
Y898943D01*
X10305586Y920077D01*
X10289411Y936252D01*
X10268277Y945006D01*
D02*
G37*
G36*
X10544492Y617500D02*
X10516187D01*
X10488846Y610175D01*
X10464333Y596022D01*
X10444318Y576007D01*
X10430166Y551494D01*
X10424585Y530668D01*
X10403535Y529226D01*
X10399748Y538368D01*
X10383573Y554543D01*
X10362439Y563297D01*
X10339564D01*
X10318430Y554543D01*
X10302255Y538368D01*
X10293502Y517234D01*
Y494360D01*
X10302255Y473226D01*
X10318430Y457051D01*
X10339564Y448297D01*
X10362439D01*
X10383573Y457051D01*
X10399748Y473226D01*
X10404877Y485610D01*
X10425953Y484228D01*
X10430166Y468507D01*
X10444318Y443994D01*
X10464333Y423979D01*
X10488846Y409826D01*
X10516187Y402501D01*
X10544492D01*
X10571833Y409826D01*
X10596346Y423979D01*
X10616361Y443994D01*
X10630514Y468507D01*
X10637840Y495848D01*
Y524153D01*
X10630514Y551494D01*
X10616361Y576007D01*
X10596346Y596022D01*
X10571833Y610175D01*
X10544492Y617500D01*
D02*
G37*
G36*
X9401492D02*
X9373187D01*
X9345846Y610175D01*
X9321333Y596022D01*
X9301318Y576007D01*
X9287166Y551494D01*
X9281585Y530668D01*
X9260535Y529226D01*
X9256748Y538368D01*
X9240573Y554543D01*
X9219439Y563297D01*
X9196564D01*
X9175430Y554543D01*
X9159255Y538368D01*
X9150502Y517234D01*
Y494360D01*
X9159255Y473226D01*
X9175430Y457051D01*
X9196564Y448297D01*
X9219439D01*
X9240573Y457051D01*
X9256748Y473226D01*
X9261877Y485610D01*
X9282953Y484228D01*
X9287166Y468507D01*
X9301318Y443994D01*
X9321333Y423979D01*
X9345846Y409826D01*
X9373187Y402501D01*
X9401492D01*
X9428833Y409826D01*
X9453346Y423979D01*
X9473361Y443994D01*
X9487514Y468507D01*
X9494840Y495848D01*
Y524153D01*
X9487514Y551494D01*
X9473361Y576007D01*
X9453346Y596022D01*
X9428833Y610175D01*
X9401492Y617500D01*
D02*
G37*
G36*
X9782492D02*
X9754187D01*
X9726846Y610175D01*
X9702333Y596022D01*
X9682318Y576007D01*
X9668166Y551494D01*
X9660840Y524153D01*
X9660839Y507682D01*
X9641004Y507286D01*
X9638081Y514342D01*
X9632250Y528419D01*
X9616075Y544594D01*
X9594941Y553348D01*
X9572066D01*
X9550933Y544594D01*
X9534758Y528419D01*
X9526004Y507285D01*
Y484411D01*
X9534758Y463277D01*
X9550933Y447102D01*
X9572066Y438348D01*
X9594941D01*
X9616075Y447102D01*
X9632250Y463277D01*
X9641004Y484411D01*
X9641004Y495451D01*
X9660839Y495847D01*
X9662839Y488386D01*
X9668166Y468507D01*
X9682318Y443994D01*
X9702333Y423979D01*
X9726846Y409826D01*
X9754187Y402501D01*
X9782492D01*
X9809833Y409826D01*
X9834346Y423979D01*
X9854361Y443994D01*
X9868514Y468507D01*
X9875840Y495848D01*
Y524153D01*
X9868514Y551494D01*
X9854361Y576007D01*
X9834346Y596022D01*
X9809833Y610175D01*
X9782492Y617500D01*
D02*
G37*
G36*
X9971909Y564785D02*
X9949034D01*
X9927900Y556031D01*
X9911725Y539856D01*
X9902972Y518723D01*
Y495848D01*
X9911725Y474714D01*
X9927900Y458539D01*
X9949034Y449785D01*
X9971909D01*
X9993043Y458539D01*
X10009218Y474714D01*
X10017972Y495848D01*
Y518723D01*
X10009218Y539856D01*
X9993043Y556031D01*
X9971909Y564785D01*
D02*
G37*
G36*
X8827780Y563297D02*
X8804905D01*
X8783771Y554543D01*
X8767596Y538368D01*
X8758843Y517234D01*
Y494360D01*
X8767596Y473226D01*
X8783771Y457051D01*
X8804905Y448297D01*
X8827780D01*
X8848914Y457051D01*
X8865089Y473226D01*
X8873843Y494360D01*
Y517234D01*
X8865089Y538368D01*
X8848914Y554543D01*
X8827780Y563297D01*
D02*
G37*
G36*
X10163492Y617500D02*
X10135187D01*
X10107846Y610175D01*
X10083333Y596022D01*
X10063318Y576007D01*
X10049166Y551494D01*
X10041840Y524153D01*
Y495848D01*
X10049166Y468507D01*
X10063318Y443994D01*
X10083333Y423979D01*
X10107846Y409826D01*
X10135187Y402501D01*
X10163492D01*
X10190833Y409826D01*
X10215346Y423979D01*
X10235361Y443994D01*
X10249514Y468507D01*
X10256840Y495848D01*
Y524153D01*
X10249514Y551494D01*
X10235361Y576007D01*
X10215346Y596022D01*
X10190833Y610175D01*
X10163492Y617500D01*
D02*
G37*
G36*
X9020492D02*
X8992187D01*
X8964846Y610175D01*
X8940333Y596022D01*
X8920318Y576007D01*
X8906166Y551494D01*
X8898840Y524153D01*
Y495848D01*
X8906166Y468507D01*
X8920318Y443994D01*
X8940333Y423979D01*
X8964846Y409826D01*
X8992187Y402501D01*
X9020492D01*
X9047833Y409826D01*
X9072346Y423979D01*
X9092361Y443994D01*
X9106514Y468507D01*
X9113840Y495848D01*
Y524153D01*
X9106514Y551494D01*
X9092361Y576007D01*
X9072346Y596022D01*
X9047833Y610175D01*
X9020492Y617500D01*
D02*
G37*
%LPD*%
G36*
X10574124Y3051184D02*
X10586528Y3042896D01*
X10601160Y3039986D01*
X10983490D01*
X10991774Y3019986D01*
X10901568Y2929780D01*
X10108355D01*
X10100071Y2949779D01*
X10171011Y3020720D01*
X10185877D01*
X10207011Y3029474D01*
X10223186Y3045649D01*
X10231940Y3066783D01*
Y3089657D01*
X10223186Y3110791D01*
X10210375Y3123602D01*
X10214150Y3139474D01*
X10216506Y3143602D01*
X10481706D01*
X10574124Y3051184D01*
D02*
G37*
%LPC*%
G36*
X7244557Y5203280D02*
X7221683D01*
X7200549Y5194526D01*
X7184374Y5178351D01*
X7175620Y5157217D01*
Y5134343D01*
X7184374Y5113209D01*
X7200549Y5097034D01*
X7221683Y5088280D01*
X7244557D01*
X7265691Y5097034D01*
X7281866Y5113209D01*
X7290620Y5134343D01*
Y5157217D01*
X7281866Y5178351D01*
X7265691Y5194526D01*
X7244557Y5203280D01*
D02*
G37*
G36*
X6520937Y4912113D02*
X6498062D01*
X6476928Y4903359D01*
X6460753Y4887184D01*
X6451999Y4866050D01*
Y4843175D01*
X6460753Y4822041D01*
X6476928Y4805866D01*
X6498062Y4797113D01*
X6520937D01*
X6542070Y4805866D01*
X6558245Y4822041D01*
X6566999Y4843175D01*
Y4866050D01*
X6558245Y4887184D01*
X6542070Y4903359D01*
X6520937Y4912113D01*
D02*
G37*
G36*
X6944576Y4862174D02*
X6921701D01*
X6900567Y4853420D01*
X6884392Y4837245D01*
X6875639Y4816111D01*
Y4793237D01*
X6884392Y4772103D01*
X6900567Y4755928D01*
X6921701Y4747174D01*
X6944576D01*
X6965710Y4755928D01*
X6981885Y4772103D01*
X6990639Y4793237D01*
Y4816111D01*
X6981885Y4837245D01*
X6965710Y4853420D01*
X6944576Y4862174D01*
D02*
G37*
G36*
X6820016Y4782498D02*
X6797141D01*
X6776007Y4773745D01*
X6759832Y4757570D01*
X6751078Y4736436D01*
Y4713561D01*
X6759832Y4692427D01*
X6776007Y4676252D01*
X6797141Y4667498D01*
X6820016D01*
X6841149Y4676252D01*
X6857324Y4692427D01*
X6866078Y4713561D01*
Y4736436D01*
X6857324Y4757570D01*
X6841149Y4773745D01*
X6820016Y4782498D01*
D02*
G37*
G36*
X6404371Y4556462D02*
X6381496D01*
X6360362Y4547708D01*
X6344187Y4531533D01*
X6335434Y4510400D01*
Y4487525D01*
X6344187Y4466391D01*
X6360362Y4450216D01*
X6381496Y4441462D01*
X6404371D01*
X6425505Y4450216D01*
X6441680Y4466391D01*
X6450434Y4487525D01*
Y4510400D01*
X6441680Y4531533D01*
X6425505Y4547708D01*
X6404371Y4556462D01*
D02*
G37*
G36*
X6596857Y4390642D02*
X6573983D01*
X6552849Y4381889D01*
X6536674Y4365714D01*
X6527920Y4344580D01*
Y4321705D01*
X6536674Y4300571D01*
X6552849Y4284396D01*
X6573983Y4275642D01*
X6596857D01*
X6617991Y4284396D01*
X6634166Y4300571D01*
X6642920Y4321705D01*
Y4344580D01*
X6634166Y4365714D01*
X6617991Y4381889D01*
X6596857Y4390642D01*
D02*
G37*
G36*
X6335237Y4387940D02*
X6312363D01*
X6291229Y4379186D01*
X6275054Y4363011D01*
X6266300Y4341877D01*
Y4319003D01*
X6275054Y4297869D01*
X6291229Y4281694D01*
X6312363Y4272940D01*
X6335237D01*
X6356371Y4281694D01*
X6372546Y4297869D01*
X6381300Y4319003D01*
Y4341877D01*
X6372546Y4363011D01*
X6356371Y4379186D01*
X6335237Y4387940D01*
D02*
G37*
G36*
X6117496Y4208736D02*
X6094622D01*
X6073488Y4199982D01*
X6057313Y4183807D01*
X6048559Y4162673D01*
Y4139798D01*
X6057313Y4118665D01*
X6073488Y4102490D01*
X6094622Y4093736D01*
X6117496D01*
X6138630Y4102490D01*
X6154805Y4118665D01*
X6163559Y4139798D01*
Y4162673D01*
X6154805Y4183807D01*
X6138630Y4199982D01*
X6117496Y4208736D01*
D02*
G37*
G36*
X6523548Y4207498D02*
X6500673D01*
X6479539Y4198744D01*
X6463364Y4182569D01*
X6454610Y4161436D01*
Y4138561D01*
X6463364Y4117427D01*
X6479539Y4101252D01*
X6500673Y4092498D01*
X6523548D01*
X6544682Y4101252D01*
X6560857Y4117427D01*
X6569610Y4138561D01*
Y4161436D01*
X6560857Y4182569D01*
X6544682Y4198744D01*
X6523548Y4207498D01*
D02*
G37*
G36*
X4735001Y4481837D02*
X4712566Y4477375D01*
X4693546Y4464666D01*
X4680837Y4445646D01*
X4676374Y4423211D01*
X4680837Y4400776D01*
X4693546Y4381756D01*
X4712566Y4369047D01*
X4735001Y4364584D01*
X4757436Y4369047D01*
X4776456Y4381756D01*
X4789165Y4400776D01*
X4793627Y4423211D01*
X4789165Y4445646D01*
X4776456Y4464666D01*
X4757436Y4477375D01*
X4735001Y4481837D01*
D02*
G37*
G36*
X6796588Y3197397D02*
X6773714D01*
X6752580Y3188643D01*
X6736405Y3172468D01*
X6727651Y3151334D01*
Y3128459D01*
X6736405Y3107326D01*
X6752580Y3091151D01*
X6773714Y3082397D01*
X6796588D01*
X6817722Y3091151D01*
X6833897Y3107326D01*
X6842651Y3128459D01*
Y3151334D01*
X6833897Y3172468D01*
X6817722Y3188643D01*
X6796588Y3197397D01*
D02*
G37*
G36*
X6169688Y3192499D02*
X6146814D01*
X6125680Y3183745D01*
X6109505Y3167570D01*
X6100751Y3146436D01*
Y3123562D01*
X6109505Y3102428D01*
X6125680Y3086253D01*
X6146814Y3077499D01*
X6169688D01*
X6190822Y3086253D01*
X6206997Y3102428D01*
X6215751Y3123562D01*
Y3146436D01*
X6206997Y3167570D01*
X6190822Y3183745D01*
X6169688Y3192499D01*
D02*
G37*
G36*
X6899117Y3050000D02*
X6876243D01*
X6855109Y3041246D01*
X6838934Y3025071D01*
X6830180Y3003937D01*
Y2981063D01*
X6838934Y2959929D01*
X6855109Y2943754D01*
X6876243Y2935000D01*
X6899117D01*
X6920251Y2943754D01*
X6936426Y2959929D01*
X6945180Y2981063D01*
Y3003937D01*
X6936426Y3025071D01*
X6920251Y3041246D01*
X6899117Y3050000D01*
D02*
G37*
G36*
X6238717D02*
X6215843D01*
X6194709Y3041246D01*
X6178534Y3025071D01*
X6169780Y3003937D01*
Y2981063D01*
X6178534Y2959929D01*
X6194709Y2943754D01*
X6215843Y2935000D01*
X6238717D01*
X6259851Y2943754D01*
X6276026Y2959929D01*
X6284780Y2981063D01*
Y3003937D01*
X6276026Y3025071D01*
X6259851Y3041246D01*
X6238717Y3050000D01*
D02*
G37*
G36*
X7130257Y1110375D02*
X7107383D01*
X7086249Y1101621D01*
X7070074Y1085446D01*
X7061320Y1064312D01*
Y1041437D01*
X7070074Y1020304D01*
X7086249Y1004129D01*
X7107383Y995375D01*
X7130257D01*
X7151391Y1004129D01*
X7167566Y1020304D01*
X7176320Y1041437D01*
Y1064312D01*
X7167566Y1085446D01*
X7151391Y1101621D01*
X7130257Y1110375D01*
D02*
G37*
G36*
X5189995Y2421486D02*
X5167560Y2417024D01*
X5148540Y2404315D01*
X5135832Y2385295D01*
X5131369Y2362860D01*
X5135832Y2340425D01*
X5148540Y2321405D01*
X5167560Y2308696D01*
X5189995Y2304233D01*
X5212431Y2308696D01*
X5231451Y2321405D01*
X5244159Y2340425D01*
X5248622Y2362860D01*
X5244159Y2385295D01*
X5231451Y2404315D01*
X5212431Y2417024D01*
X5189995Y2421486D01*
D02*
G37*
G36*
X4890000Y1970390D02*
X4867565Y1965927D01*
X4848545Y1953218D01*
X4835837Y1934199D01*
X4831374Y1911763D01*
X4835837Y1889328D01*
X4848545Y1870308D01*
X4867565Y1857600D01*
X4890000Y1853137D01*
X4912436Y1857600D01*
X4931455Y1870308D01*
X4944164Y1889328D01*
X4948627Y1911763D01*
X4944164Y1934199D01*
X4931455Y1953218D01*
X4912436Y1965927D01*
X4890000Y1970390D01*
D02*
G37*
G36*
X5650700Y1813628D02*
X5628265Y1809166D01*
X5609245Y1796457D01*
X5596536Y1777437D01*
X5592073Y1755002D01*
X5596536Y1732567D01*
X5609245Y1713547D01*
X5628265Y1700838D01*
X5650700Y1696375D01*
X5673135Y1700838D01*
X5692155Y1713547D01*
X5704864Y1732567D01*
X5709326Y1755002D01*
X5704864Y1777437D01*
X5692155Y1796457D01*
X5673135Y1809166D01*
X5650700Y1813628D01*
D02*
G37*
G36*
X4599140Y1370627D02*
X4576705Y1366164D01*
X4557685Y1353456D01*
X4544976Y1334436D01*
X4540513Y1312000D01*
X4544976Y1289565D01*
X4557685Y1270545D01*
X4576705Y1257837D01*
X4599140Y1253374D01*
X4621575Y1257837D01*
X4640595Y1270545D01*
X4653304Y1289565D01*
X4657766Y1312000D01*
X4653304Y1334436D01*
X4640595Y1353456D01*
X4621575Y1366164D01*
X4599140Y1370627D01*
D02*
G37*
G36*
X4855680Y863546D02*
X4833245Y859084D01*
X4814225Y846375D01*
X4801516Y827355D01*
X4797053Y804920D01*
X4801516Y782485D01*
X4814225Y763465D01*
X4833245Y750756D01*
X4833539Y750698D01*
X4836270Y737443D01*
X4835650Y729886D01*
X4818544Y718456D01*
X4805835Y699436D01*
X4801373Y677000D01*
X4805835Y654565D01*
X4818544Y635545D01*
X4837564Y622837D01*
X4859999Y618374D01*
X4882434Y622837D01*
X4901454Y635545D01*
X4914163Y654565D01*
X4918626Y677000D01*
X4914163Y699436D01*
X4901454Y718456D01*
X4882434Y731164D01*
X4882140Y731223D01*
X4879409Y744478D01*
X4880029Y752035D01*
X4897135Y763465D01*
X4909844Y782485D01*
X4914306Y804920D01*
X4909844Y827355D01*
X4897135Y846375D01*
X4878115Y859084D01*
X4855680Y863546D01*
D02*
G37*
G36*
X5425383Y800971D02*
X5396014Y797104D01*
X5368647Y785769D01*
X5345147Y767736D01*
X5327114Y744235D01*
X5315778Y716869D01*
X5311912Y687500D01*
Y612500D01*
X5315778Y583131D01*
X5327114Y555765D01*
X5345147Y532264D01*
X5368647Y514231D01*
X5396014Y502896D01*
X5425383Y499029D01*
X5454751Y502896D01*
X5482118Y514231D01*
X5505618Y532264D01*
X5523651Y555765D01*
X5534987Y583131D01*
X5538853Y612500D01*
Y687500D01*
X5534987Y716869D01*
X5523651Y744235D01*
X5505618Y767736D01*
X5482118Y785769D01*
X5454751Y797104D01*
X5425383Y800971D01*
D02*
G37*
G36*
X5171383D02*
X5142014Y797104D01*
X5114647Y785769D01*
X5091147Y767736D01*
X5073114Y744235D01*
X5061778Y716869D01*
X5057912Y687500D01*
Y612500D01*
X5061778Y583131D01*
X5073114Y555765D01*
X5091147Y532264D01*
X5114647Y514231D01*
X5142014Y502896D01*
X5171383Y499029D01*
X5200751Y502896D01*
X5228118Y514231D01*
X5251618Y532264D01*
X5269651Y555765D01*
X5280987Y583131D01*
X5284853Y612500D01*
Y687500D01*
X5280987Y716869D01*
X5269651Y744235D01*
X5251618Y767736D01*
X5228118Y785769D01*
X5200751Y797104D01*
X5171383Y800971D01*
D02*
G37*
G36*
X3625057Y1659980D02*
X3602183D01*
X3581049Y1651226D01*
X3564874Y1635051D01*
X3556120Y1613917D01*
Y1591043D01*
X3564874Y1569909D01*
X3581049Y1553734D01*
X3602183Y1544980D01*
X3625057D01*
X3646191Y1553734D01*
X3662366Y1569909D01*
X3671120Y1591043D01*
Y1613917D01*
X3662366Y1635051D01*
X3646191Y1651226D01*
X3625057Y1659980D01*
D02*
G37*
G36*
X3968771Y1568752D02*
X3945896D01*
X3924762Y1559998D01*
X3908587Y1543823D01*
X3899833Y1522690D01*
Y1499815D01*
X3908587Y1478681D01*
X3924762Y1462506D01*
X3945896Y1453752D01*
X3968771D01*
X3989904Y1462506D01*
X4006079Y1478681D01*
X4014833Y1499815D01*
Y1522690D01*
X4006079Y1543823D01*
X3989904Y1559998D01*
X3968771Y1568752D01*
D02*
G37*
G36*
X3414234Y1494883D02*
X3391359D01*
X3370225Y1486129D01*
X3354050Y1469954D01*
X3345297Y1448820D01*
Y1425946D01*
X3354050Y1404812D01*
X3370225Y1388637D01*
X3391359Y1379883D01*
X3414234D01*
X3435368Y1388637D01*
X3451543Y1404812D01*
X3460297Y1425946D01*
Y1448820D01*
X3451543Y1469954D01*
X3435368Y1486129D01*
X3414234Y1494883D01*
D02*
G37*
G36*
X2637383Y1369048D02*
X2612619D01*
X2588699Y1362638D01*
X2567253Y1350256D01*
X2549742Y1332746D01*
X2537361Y1311300D01*
X2530951Y1287380D01*
Y1262616D01*
X2537361Y1238696D01*
X2549742Y1217250D01*
X2563478Y1203514D01*
X2559288Y1187818D01*
X2556412Y1183514D01*
X2193586D01*
X2190710Y1187818D01*
X2186520Y1203514D01*
X2200256Y1217250D01*
X2212637Y1238696D01*
X2219047Y1262616D01*
Y1287380D01*
X2212637Y1311300D01*
X2200256Y1332746D01*
X2182745Y1350256D01*
X2161299Y1362638D01*
X2137379Y1369048D01*
X2112615D01*
X2088695Y1362638D01*
X2067249Y1350256D01*
X2049738Y1332746D01*
X2037357Y1311300D01*
X2030947Y1287380D01*
Y1262616D01*
X2037357Y1238696D01*
X2049738Y1217250D01*
X2063474Y1203514D01*
X2059284Y1187818D01*
X2056408Y1183514D01*
X1970553D01*
X1913216Y1240851D01*
X1919047Y1262616D01*
Y1287380D01*
X1912638Y1311300D01*
X1900256Y1332746D01*
X1882746Y1350256D01*
X1861300Y1362638D01*
X1837380Y1369048D01*
X1812616D01*
X1788696Y1362638D01*
X1767250Y1350256D01*
X1749739Y1332746D01*
X1737357Y1311300D01*
X1730948Y1287380D01*
Y1262616D01*
X1737357Y1238696D01*
X1749739Y1217250D01*
X1767250Y1199739D01*
X1788696Y1187357D01*
X1812616Y1180948D01*
X1837380D01*
X1859144Y1186780D01*
X1927680Y1118244D01*
X1940084Y1109956D01*
X1954715Y1107046D01*
X3227637D01*
X3238149Y1096534D01*
X3259283Y1087780D01*
X3282157D01*
X3303291Y1096534D01*
X3319466Y1112709D01*
X3328220Y1133843D01*
Y1156717D01*
X3319466Y1177851D01*
X3303291Y1194026D01*
X3282157Y1202780D01*
X3259283D01*
X3238149Y1194026D01*
X3227637Y1183514D01*
X2693590D01*
X2690714Y1187818D01*
X2686524Y1203514D01*
X2700260Y1217250D01*
X2712642Y1238696D01*
X2719051Y1262616D01*
Y1287380D01*
X2712642Y1311300D01*
X2700260Y1332746D01*
X2682749Y1350256D01*
X2661303Y1362638D01*
X2637383Y1369048D01*
D02*
G37*
G36*
X3510757Y1203461D02*
X3487883D01*
X3466749Y1194707D01*
X3450574Y1178532D01*
X3441820Y1157398D01*
Y1134523D01*
X3450574Y1113389D01*
X3466749Y1097214D01*
X3487883Y1088461D01*
X3510757D01*
X3531891Y1097214D01*
X3548066Y1113389D01*
X3556820Y1134523D01*
Y1157398D01*
X3548066Y1178532D01*
X3531891Y1194707D01*
X3510757Y1203461D01*
D02*
G37*
G36*
X3645506Y1110549D02*
X3622632D01*
X3601498Y1101796D01*
X3585323Y1085621D01*
X3576569Y1064487D01*
Y1041612D01*
X3585323Y1020478D01*
X3601498Y1004303D01*
X3622632Y995549D01*
X3645506D01*
X3666640Y1004303D01*
X3682815Y1020478D01*
X3691569Y1041612D01*
Y1064487D01*
X3682815Y1085621D01*
X3666640Y1101796D01*
X3645506Y1110549D01*
D02*
G37*
G36*
X3925452Y1012805D02*
X3902578D01*
X3881444Y1004051D01*
X3865269Y987876D01*
X3856515Y966742D01*
Y943868D01*
X3865269Y922734D01*
X3881444Y906559D01*
X3902578Y897805D01*
X3925452D01*
X3946586Y906559D01*
X3962761Y922734D01*
X3971515Y943868D01*
Y966742D01*
X3962761Y987876D01*
X3946586Y1004051D01*
X3925452Y1012805D01*
D02*
G37*
G36*
X3323196Y812885D02*
X3300322D01*
X3279188Y804131D01*
X3263013Y787956D01*
X3254259Y766822D01*
Y743947D01*
X3263013Y722813D01*
X3279188Y706638D01*
X3300322Y697885D01*
X3323196D01*
X3344330Y706638D01*
X3355809Y718118D01*
X3370039Y720141D01*
X3379901Y717377D01*
X3392428Y704849D01*
X3413562Y696096D01*
X3436437D01*
X3457571Y704849D01*
X3473746Y721024D01*
X3482500Y742158D01*
Y765033D01*
X3473746Y786167D01*
X3457571Y802342D01*
X3436437Y811096D01*
X3413562D01*
X3392428Y802342D01*
X3380949Y790863D01*
X3366719Y788839D01*
X3356857Y791603D01*
X3344330Y804131D01*
X3323196Y812885D01*
D02*
G37*
G36*
X1987500Y799325D02*
Y662500D01*
X2088471D01*
Y687500D01*
X2084604Y716869D01*
X2073268Y744236D01*
X2055236Y767736D01*
X2031735Y785769D01*
X2004368Y797105D01*
X1987500Y799325D01*
D02*
G37*
G36*
X1962500D02*
X1945631Y797105D01*
X1918264Y785769D01*
X1894764Y767736D01*
X1876731Y744236D01*
X1865396Y716869D01*
X1861529Y687500D01*
Y662500D01*
X1962500D01*
Y799325D01*
D02*
G37*
G36*
X3910111Y865737D02*
X3887236D01*
X3866102Y856984D01*
X3849927Y840809D01*
X3841173Y819675D01*
Y796800D01*
X3849927Y775666D01*
X3866102Y759491D01*
X3885447Y751478D01*
X3887346Y745257D01*
X3887637Y730737D01*
X3875588Y725747D01*
X3859413Y709572D01*
X3850659Y688438D01*
Y665563D01*
X3859413Y644429D01*
X3875588Y628254D01*
X3896721Y619500D01*
X3919596D01*
X3940730Y628254D01*
X3956905Y644429D01*
X3965659Y665563D01*
Y688438D01*
X3956905Y709572D01*
X3940730Y725747D01*
X3921385Y733760D01*
X3919486Y739981D01*
X3919196Y754500D01*
X3931245Y759491D01*
X3947420Y775666D01*
X3956173Y796800D01*
Y819675D01*
X3947420Y840809D01*
X3931245Y856984D01*
X3910111Y865737D01*
D02*
G37*
G36*
X2088471Y637500D02*
X1987500D01*
Y500675D01*
X2004368Y502896D01*
X2031735Y514232D01*
X2055236Y532264D01*
X2073268Y555765D01*
X2084604Y583132D01*
X2088471Y612500D01*
Y637500D01*
D02*
G37*
G36*
X1962500D02*
X1861529D01*
Y612500D01*
X1865396Y583132D01*
X1876731Y555765D01*
X1894764Y532264D01*
X1918264Y514232D01*
X1945631Y502896D01*
X1962500Y500675D01*
Y637500D01*
D02*
G37*
G36*
X2483000Y800971D02*
X2453631Y797105D01*
X2426264Y785769D01*
X2402764Y767736D01*
X2384731Y744236D01*
X2373396Y716869D01*
X2369529Y687500D01*
Y612500D01*
X2373396Y583132D01*
X2384731Y555765D01*
X2402764Y532264D01*
X2426264Y514232D01*
X2453631Y502896D01*
X2483000Y499029D01*
X2512368Y502896D01*
X2539735Y514232D01*
X2563236Y532264D01*
X2581268Y555765D01*
X2592604Y583132D01*
X2596471Y612500D01*
Y687500D01*
X2592604Y716869D01*
X2581268Y744236D01*
X2563236Y767736D01*
X2539735Y785769D01*
X2512368Y797105D01*
X2483000Y800971D01*
D02*
G37*
G36*
X2229000D02*
X2199631Y797105D01*
X2172264Y785769D01*
X2148764Y767736D01*
X2130731Y744236D01*
X2119396Y716869D01*
X2115529Y687500D01*
Y612500D01*
X2119396Y583132D01*
X2130731Y555765D01*
X2148764Y532264D01*
X2172264Y514232D01*
X2199631Y502896D01*
X2229000Y499029D01*
X2258368Y502896D01*
X2285735Y514232D01*
X2309236Y532264D01*
X2327268Y555765D01*
X2338604Y583132D01*
X2342471Y612500D01*
Y687500D01*
X2338604Y716869D01*
X2327268Y744236D01*
X2309236Y767736D01*
X2285735Y785769D01*
X2258368Y797105D01*
X2229000Y800971D01*
D02*
G37*
G36*
X1337381Y1369048D02*
X1312617D01*
X1288697Y1362638D01*
X1267251Y1350256D01*
X1249740Y1332746D01*
X1237358Y1311300D01*
X1230949Y1287380D01*
Y1262616D01*
X1237358Y1238696D01*
X1249740Y1217250D01*
X1267251Y1199739D01*
X1288697Y1187357D01*
X1312617Y1180948D01*
X1337381D01*
X1359145Y1186780D01*
X1682765Y863159D01*
Y793432D01*
X1664264Y785769D01*
X1640764Y767736D01*
X1622731Y744236D01*
X1611396Y716869D01*
X1607529Y687500D01*
Y612500D01*
X1611396Y583132D01*
X1622731Y555765D01*
X1640764Y532264D01*
X1664264Y514232D01*
X1691631Y502896D01*
X1721000Y499029D01*
X1750368Y502896D01*
X1777735Y514232D01*
X1801236Y532264D01*
X1819268Y555765D01*
X1830604Y583132D01*
X1834471Y612500D01*
Y687500D01*
X1830604Y716869D01*
X1819268Y744236D01*
X1801236Y767736D01*
X1777735Y785769D01*
X1759234Y793432D01*
Y878996D01*
X1756324Y893628D01*
X1748036Y906032D01*
X1413217Y1240851D01*
X1419048Y1262616D01*
Y1287380D01*
X1412639Y1311300D01*
X1400257Y1332746D01*
X1382747Y1350256D01*
X1361301Y1362638D01*
X1337381Y1369048D01*
D02*
G37*
G36*
X1467000Y800971D02*
X1437631Y797105D01*
X1410264Y785769D01*
X1386764Y767736D01*
X1368731Y744236D01*
X1357396Y716869D01*
X1353529Y687500D01*
Y612500D01*
X1357396Y583132D01*
X1368731Y555765D01*
X1386764Y532264D01*
X1410264Y514232D01*
X1437631Y502896D01*
X1467000Y499029D01*
X1496368Y502896D01*
X1523735Y514232D01*
X1547236Y532264D01*
X1565268Y555765D01*
X1576604Y583132D01*
X1580471Y612500D01*
Y687500D01*
X1576604Y716869D01*
X1565268Y744236D01*
X1547236Y767736D01*
X1523735Y785769D01*
X1496368Y797105D01*
X1467000Y800971D01*
D02*
G37*
G36*
X3472657Y595176D02*
X3449783D01*
X3428649Y586423D01*
X3412474Y570248D01*
X3403720Y549114D01*
Y526239D01*
X3412474Y505105D01*
X3428649Y488930D01*
X3449783Y480176D01*
X3472657D01*
X3493791Y488930D01*
X3509966Y505105D01*
X3518720Y526239D01*
Y549114D01*
X3509966Y570248D01*
X3493791Y586423D01*
X3472657Y595176D01*
D02*
G37*
G36*
X3274456Y589764D02*
X3251581D01*
X3230447Y581011D01*
X3214272Y564836D01*
X3205519Y543702D01*
Y520827D01*
X3214272Y499693D01*
X3230447Y483518D01*
X3251581Y474764D01*
X3274456D01*
X3295590Y483518D01*
X3311765Y499693D01*
X3320519Y520827D01*
Y543702D01*
X3311765Y564836D01*
X3295590Y581011D01*
X3274456Y589764D01*
D02*
G37*
%LPD*%
D14*
X1786324Y1504924D02*
X2095472D01*
X2225396Y1375000D01*
X2262797Y1428647D02*
X3192501D01*
X1824998Y1749998D02*
X1941446D01*
X2262797Y1428647D01*
X3815316Y1504924D02*
X3945240Y1375000D01*
X3989809Y1330431D01*
X2225396Y1375000D02*
X3945240D01*
X2099998Y1749998D02*
X2236079Y1613917D01*
X2896072D02*
X3096494Y1814340D01*
X2236079Y1613917D02*
X2896072D01*
X4685862Y1514152D02*
X5000460Y1199555D01*
X4685862Y1514152D02*
Y1877736D01*
X4311002Y2252596D02*
X4685862Y1877736D01*
X4311002Y2252596D02*
Y3008218D01*
X5000460Y1058000D02*
Y1199555D01*
X4838845Y6425940D02*
X5079200D01*
X4697905Y6285000D02*
X4838845Y6425940D01*
X4551477Y6322183D02*
X4673459Y6200201D01*
X4699054D02*
X4739181Y6160074D01*
X4750005D01*
X4673459Y6200201D02*
X4699054D01*
X4551477Y6322183D02*
Y6803137D01*
X7365200Y1940300D02*
Y2022222D01*
X6996900Y1958080D02*
X7061042Y2022222D01*
X7365200D01*
Y2097780D01*
X6880060Y1138017D02*
Y1925060D01*
X6762418Y1020375D02*
X6880060Y1138017D01*
X2731713Y3764036D02*
X3634627D01*
X1290567Y3345126D02*
X2312803D01*
X2731713Y3764036D01*
X3518622Y4866050D02*
X4319410D01*
X3478510Y4906162D02*
X3518622Y4866050D01*
X4319410D02*
X4528020Y5074660D01*
X4935558Y2830900D02*
X5005333Y2765800D01*
X4704405Y2822888D02*
X4935558Y2830900D01*
X4685862Y2830196D02*
X4693170Y2822888D01*
X4704405Y2822888D01*
X3872060Y3532880D02*
X3983178D01*
X4685862Y2830196D01*
X5063960Y1838700D02*
Y3368511D01*
X4528020Y5074660D02*
X6590500D01*
X2247549Y7074526D02*
X2623020Y7449997D01*
X2247549Y6886061D02*
Y7074526D01*
Y6886061D02*
X2317973Y6815637D01*
X3000325D01*
X3179689Y6995002D01*
X7131520Y2176520D02*
X10436060D01*
X6880060Y1925060D02*
X7131520Y2176520D01*
X11029061Y1285142D02*
X11383480Y1639561D01*
X7365200Y1285142D02*
X11029061D01*
X7298552Y1079081D02*
Y1218493D01*
X7365200Y1285142D01*
X8369813Y463333D02*
Y601720D01*
X7632497Y745135D02*
X8226398D01*
X8369813Y601720D01*
X7298552Y1079081D02*
X7632497Y745135D01*
X8299920Y393440D02*
X8369813Y463333D01*
X7078956Y393440D02*
X8299920D01*
X11383480Y1639561D02*
Y1871720D01*
X10710004Y7055190D02*
X11027020Y6738174D01*
X11320393D01*
X11386020Y6672547D01*
X10710004Y7055190D02*
Y7490002D01*
X11386020Y4747000D02*
Y6672547D01*
X8779284Y2039360D02*
X8878344Y1940300D01*
X7291540Y2349240D02*
X7362660Y2420360D01*
X6059640Y751580D02*
Y987876D01*
X6261029Y764089D02*
X6358874D01*
X6091497Y1703120D02*
X6372060Y1422556D01*
X7271932Y1351087D02*
X7273715Y1352869D01*
Y1488225D01*
X7275817Y1347203D02*
X10927086D01*
X7271932Y1351087D02*
X7275817Y1347203D01*
X7177240Y1584700D02*
X7273715Y1488225D01*
X10927086Y1347203D02*
X10964358Y1384475D01*
X7106831Y2349240D02*
X7291540D01*
X7614120Y1940300D02*
X7685240Y1869180D01*
X6792805Y624725D02*
X6847671D01*
X7078956Y393440D01*
X6785151Y632379D02*
X6792805Y624725D01*
X3169284Y4702108D02*
X3174747D01*
X3114517Y4647340D02*
X3169284Y4702108D01*
X3114517Y4606387D02*
Y4647340D01*
X2718036Y4401764D02*
Y5060319D01*
X3234848Y5577131D02*
X8905178D01*
X2718036Y5060319D02*
X3234848Y5577131D01*
X2789355Y4346600D02*
X2932900Y4203055D01*
X2895683Y4107947D02*
X2932900Y4145164D01*
Y4203055D01*
X2884859Y4107947D02*
X2895683D01*
X3250400Y7358619D02*
Y7571480D01*
X9085742Y6070680D02*
X9232415D01*
X9235126Y6073391D01*
X9038008Y6118414D02*
X9085742Y6070680D01*
X5959552Y7236261D02*
X6035814D01*
X5750056Y7026764D02*
X5959552Y7236261D01*
X6035814D02*
X6042053Y7242500D01*
X4611840Y7116820D02*
X5727169D01*
X5917849Y7307500D01*
X3250400Y7358619D02*
X3290271Y7318748D01*
X3323716D01*
X3358004Y7284460D01*
X3285926Y7268108D02*
X3293580Y7260455D01*
X3265054Y7268108D02*
X3285926D01*
X3201654Y7331509D02*
X3265054Y7268108D01*
X3201654Y7331509D02*
Y7366226D01*
X3016720Y7551160D02*
X3201654Y7366226D01*
X7922925Y5732145D02*
X7980425Y5674645D01*
X7829645Y5732145D02*
X7922925D01*
X7732621Y5635121D02*
X7829645Y5732145D01*
X8905178Y5575040D02*
X8917000Y5586862D01*
Y5592035D02*
X8934232Y5609266D01*
X8917000Y5586862D02*
Y5592035D01*
X8905178Y5575040D02*
Y5577131D01*
X8934232Y5609266D02*
X9106433D01*
X7297504Y2765800D02*
X7297504D01*
X7229632Y7228580D02*
X10140209D01*
X7087935Y7370277D02*
X7229632Y7228580D01*
X800975Y3834719D02*
Y4377025D01*
X725640Y4452360D02*
X800975Y4377025D01*
X6207879Y710940D02*
X6261029Y764089D01*
X3212644Y1775002D02*
X3584403D01*
X3181820Y1755002D02*
X3192644D01*
X3212644Y1775002D01*
X3907503Y1172830D02*
X3918327D01*
X3989809Y1237185D02*
Y1330431D01*
X3968463Y1215839D02*
X3989809Y1237185D01*
X3918327Y1172830D02*
X3961335Y1215839D01*
X3968463D01*
X3753989Y3507051D02*
X4007232Y3253807D01*
X4065412D02*
X4311002Y3008218D01*
X4007232Y3253807D02*
X4065412D01*
X3402594Y3636573D02*
X3405896D01*
X3355142Y3673201D02*
X3365966D01*
X3405896Y3636573D02*
X3420541Y3621928D01*
Y3574251D02*
Y3621928D01*
X3365966Y3673201D02*
X3402594Y3636573D01*
X2606620Y3320439D02*
X3554385D01*
X2558547Y3368511D02*
X2606620Y3320439D01*
X3554385D02*
X3595840Y3361894D01*
X800975Y3834719D02*
X1290567Y3345126D01*
X6929356Y3681704D02*
Y4481652D01*
X7524904Y5077200D02*
X7720800D01*
X6929356Y4481652D02*
X7524904Y5077200D01*
X7592537Y5169903D02*
X7787198D01*
X7821980Y4604340D02*
Y5135121D01*
X7787198Y5169903D02*
X7821980Y5135121D01*
X7558240Y5204200D02*
X7592537Y5169903D01*
X7776680Y4559040D02*
X7821980Y4604340D01*
X8855331Y4937602D02*
X8873009Y4955280D01*
X8855331Y4917786D02*
Y4937602D01*
X8829993Y4881623D02*
Y4892447D01*
X8873009Y4955280D02*
X9229560D01*
X8829993Y4892447D02*
X8855331Y4917786D01*
X8451109Y3282497D02*
X10957837D01*
X8323272Y3154661D02*
X8451109Y3282497D01*
X7256315Y2923280D02*
X7487696Y3154661D01*
X8323272D01*
X10957837Y3282497D02*
X11119320Y3443980D01*
X10062680Y2966460D02*
X10174440Y3078220D01*
X11013370Y1384475D02*
X11021023Y1392129D01*
X10964358Y1384475D02*
X11013370D01*
X10842460Y1424680D02*
X11249698Y1831918D01*
Y1842525D01*
X7517661Y1424680D02*
X10842460D01*
X11060289Y1874260D02*
X11128869Y1942840D01*
X11137990Y3144260D02*
X11141400Y3140850D01*
X11058360Y3144260D02*
X11137990D01*
X10992320Y3078220D02*
X11058360Y3144260D01*
X9493720Y2755640D02*
X11119320D01*
X9887420Y2966460D02*
X10062680D01*
X10140209Y7228580D02*
X10688849Y6679940D01*
X5250000Y7026764D02*
X5750056D01*
X3179689Y6995002D02*
X3291040D01*
X10688849Y6679940D02*
X11302200D01*
X6100280Y710940D02*
X6207879D01*
X3634627Y3764036D02*
X3725530Y3854939D01*
Y3997354D01*
X3834093Y4105917D02*
X3875847D01*
X3879467Y4109537D01*
X3725530Y3997354D02*
X3834093Y4105917D01*
X3114517Y4606387D02*
X3150341Y4570562D01*
X3488361D02*
X3645451Y4413473D01*
X3150341Y4570562D02*
X3488361D01*
X3645451Y4413473D02*
X4018999D01*
X2647666Y4346600D02*
X2789355D01*
X3456408Y3538385D02*
X3517502D01*
X3562372Y3583255D01*
X3821685D01*
X3420541Y3574251D02*
X3456408Y3538385D01*
X3821685Y3583255D02*
X3872060Y3532880D01*
X3637518Y4520541D02*
X3654148D01*
X3587496Y4570562D02*
X3637518Y4520541D01*
X9058578Y1879340D02*
X9119081Y1939843D01*
X9011120Y1879340D02*
X9058578D01*
X7685240Y1869180D02*
X9000960D01*
X9011120Y1879340D01*
X11127980Y2439122D02*
X11129998Y2437104D01*
X10931054Y2439122D02*
X11127980D01*
X10929036Y2441140D02*
X10931054Y2439122D01*
X10533123Y2045017D02*
X10637840Y1940300D01*
X10533123Y2045017D02*
Y2079457D01*
X10436060Y2176520D02*
X10533123Y2079457D01*
X9780740Y1874260D02*
X11060289D01*
X10850080Y1511040D02*
X11251400Y1912360D01*
X11342840D01*
X10858480Y3743700D02*
X10999940Y3885160D01*
X10588460Y4000240D02*
X10745002D01*
X7535888Y3743700D02*
X10858480D01*
X4050500Y7284460D02*
X4210520Y7444480D01*
X3358004Y7284460D02*
X4050500D01*
X3802499Y1504924D02*
X3815316D01*
X3802499D02*
Y1738491D01*
X3807573Y1743564D01*
X3358584Y4814544D02*
X5885530D01*
X5957554Y4742519D01*
X3310876Y4766836D02*
X3358584Y4814544D01*
X4018999Y4413473D02*
X5063960Y3368511D01*
X10019500Y5387080D02*
X10125001D01*
X9925520Y5481060D02*
X10019500Y5387080D01*
X6953720Y3109584D02*
Y3657340D01*
X6001220Y2765800D02*
X7297504D01*
X6953720Y3109584D02*
X7297504Y2765800D01*
X7297504D02*
X8551380D01*
X5937720Y2702300D02*
X6001220Y2765800D01*
X7753837Y6038109D02*
X7834142Y6118414D01*
X9038008D01*
X7495502Y6070680D02*
X7497576D01*
X7530147Y6038109D01*
X7753837D01*
X9505157Y2891545D02*
X10917405D01*
X9427497Y2969205D02*
Y3029960D01*
Y2969205D02*
X9505157Y2891545D01*
X10894983Y6344976D02*
X10900006Y6349999D01*
X10894983Y6244644D02*
Y6344976D01*
X10805419Y6155080D02*
X10894983Y6244644D01*
X7181867Y6155080D02*
X10805419D01*
X7030885Y6306062D02*
X7181867Y6155080D01*
X10184395Y6207295D02*
X10327099Y6349999D01*
X7382743Y6207295D02*
X10184395D01*
X7222518Y6367520D02*
X7382743Y6207295D01*
X10033158Y6245151D02*
X10138006Y6349999D01*
X8502176Y6245151D02*
X10033158D01*
X8226374Y6520952D02*
X8502176Y6245151D01*
X7025872Y6520952D02*
X8226374D01*
X10138006Y6349999D02*
X10336001Y6547994D01*
X7045213Y6567386D02*
X8499891D01*
X8611923Y6352083D02*
X8614006Y6349999D01*
X8499891Y6567386D02*
X8611923Y6455354D01*
Y6352083D02*
Y6455354D01*
X7204086Y6637043D02*
X8584117D01*
X8711400Y6509760D01*
X6954875Y6657724D02*
X7045213Y6567386D01*
X6954875Y6657724D02*
Y6709264D01*
X6753060Y6911080D02*
X6954875Y6709264D01*
X6977639Y6472719D02*
X7025872Y6520952D01*
X6753060Y6472719D02*
X6977639D01*
X6916641Y6813539D02*
X7062940Y6667240D01*
X7724603Y5635121D02*
X7732621D01*
X9106433Y5609266D02*
X9585160Y5130540D01*
X11221527Y6547994D02*
X11275002Y6494520D01*
X10336001Y6547994D02*
X11221527D01*
X2641249Y4525712D02*
Y5054789D01*
X4527202Y6940742D01*
X3308266Y4737753D02*
Y4748919D01*
X3255513Y4685000D02*
X3308266Y4737753D01*
Y4748919D02*
X3310876Y4751528D01*
Y4766836D01*
X3654148Y4514468D02*
Y4520541D01*
Y4514468D02*
X3710140Y4458476D01*
X2780563Y4235556D02*
X2786676Y4229443D01*
X2656619Y4235556D02*
X2780563D01*
X2582524Y4309651D02*
Y5087504D01*
Y4309651D02*
X2656619Y4235556D01*
X2582524Y5087504D02*
X4611840Y7116820D01*
X3710140Y4458476D02*
X4226055D01*
X7751280Y4439660D02*
X8556460D01*
X8945080Y2372100D02*
X9554497D01*
X9585160Y5130540D02*
X9651200D01*
X9968700Y4096760D02*
X10047440Y4018020D01*
X9887420Y4178040D02*
X9968700Y4096760D01*
X8556460Y4439660D02*
X8973020Y4856220D01*
X1782280Y1500880D02*
X1786324Y1504924D01*
X2280120Y7551160D02*
X3016720D01*
X4527202Y6940742D02*
X5773971D01*
X5975449Y7142220D01*
X6042053D01*
X8992822Y5473440D02*
Y5549640D01*
X8753950Y5234568D02*
X8992822Y5473440D01*
X7771600Y5234568D02*
X8753950D01*
X8551380Y2765800D02*
X8945080Y2372100D01*
X9488457Y2438140D02*
X9554497Y2372100D01*
X11055820D01*
X9747720Y1907280D02*
X9780740Y1874260D01*
X9427680Y1907280D02*
X9747720D01*
X9314929Y1794529D02*
X9427680Y1907280D01*
X7817874Y1794529D02*
X9314929D01*
X7673343Y1649998D02*
X7817874Y1794529D01*
X11302200Y6679940D02*
X11340300Y6641840D01*
Y6255760D02*
Y6641840D01*
X11144720Y6060180D02*
X11340300Y6255760D01*
X10400002Y6060180D02*
X11144720D01*
X8118005Y6465000D02*
X8233006Y6349999D01*
X7355040Y6465000D02*
X8118005D01*
X7308360Y6418320D02*
X7355040Y6465000D01*
X6742900Y6418320D02*
X7308360D01*
X6688056Y6473164D02*
X6742900Y6418320D01*
X6688056Y6473164D02*
Y7011176D01*
X6758140Y7081260D01*
X6753558Y6306062D02*
X7030885D01*
X6996900Y1005580D02*
Y1958080D01*
Y1005580D02*
X7311860Y690620D01*
X8063720D01*
X8244340Y510001D01*
X9206700Y2097780D02*
X9364180Y1940300D01*
X7365200Y2097780D02*
X9206700D01*
X9295600Y4066280D02*
X9371800Y3990080D01*
X9735020D01*
X9841700Y3883400D01*
X10436060D01*
X10471620Y3847840D01*
X10857700D01*
X10959300Y3949440D01*
Y4320280D01*
X11386020Y4747000D01*
X6328590Y6348953D02*
X6467005D01*
X6546533Y6428480D01*
Y6983953D01*
X6709880Y7147300D01*
X6836880D01*
X6916641Y7067539D01*
Y6813539D02*
Y7067539D01*
X7358088Y3921500D02*
X7535888Y3743700D01*
X10917405Y2891545D02*
X11055820Y3029960D01*
X6590500Y5074660D02*
X6781000Y5265160D01*
X7502360D01*
X7558240Y5209280D01*
Y5204200D02*
Y5209280D01*
X7332180Y4559040D02*
X7776680D01*
X7108660Y4335520D02*
X7332180Y4559040D01*
X7108660Y3250940D02*
Y4335520D01*
Y3250940D02*
X7296620Y3062980D01*
X10570680Y4018020D02*
X10588460Y4000240D01*
X10047440Y4018020D02*
X10570680D01*
X7711874Y4178040D02*
X9887420D01*
X7584874Y4051040D02*
X7711874Y4178040D01*
X5950420Y6591929D02*
X6034021Y6508327D01*
X6402540D01*
X9295600Y3908800D02*
Y4066280D01*
X9244800Y3858000D02*
X9295600Y3908800D01*
X9102560Y3858000D02*
X9244800D01*
X9046680Y3802120D02*
X9102560Y3858000D01*
X7637041Y3802120D02*
X9046680D01*
X7436096Y4003064D02*
X7637041Y3802120D01*
X6692100Y6237980D02*
X6758140Y6171940D01*
X6692100Y6237980D02*
Y6309100D01*
X6750520Y6367520D01*
X7222518D01*
X10327099Y6349999D02*
X10519006D01*
X8711400Y6509760D02*
X9216245D01*
X9376006Y6349999D01*
X6929356Y3681704D02*
X6953720Y3657340D01*
X7720800Y5077200D02*
X7751280Y5107680D01*
X7232500Y2923280D02*
X7256315D01*
X9651200Y5130540D02*
X10433398D01*
X8985720Y5796020D02*
X9651200Y5130540D01*
X5897080Y5796020D02*
X8985720D01*
X5856440Y5836660D02*
X5897080Y5796020D01*
X5856440Y5836660D02*
Y6649460D01*
X5960580Y6753600D01*
Y6999980D01*
X6019000Y7058400D01*
X6232360D01*
X6392380Y7218420D01*
X5257833Y3426698D02*
X6887680D01*
X4226055Y4458476D02*
X5257833Y3426698D01*
X6397460Y7002520D02*
X6468580Y6931400D01*
Y6476054D02*
Y6931400D01*
X6425400Y6432874D02*
X6468580Y6476054D01*
X6322078Y6432874D02*
X6425400D01*
X6283160Y6393956D02*
X6322078Y6432874D01*
X6262840Y6393956D02*
X6283160D01*
X6219660Y6350776D02*
X6262840Y6393956D01*
X6219660Y6202420D02*
Y6350776D01*
Y6202420D02*
X6580340Y5841740D01*
X10697680D01*
X11060900Y5478520D01*
X11226000D01*
X11292040Y5412480D01*
Y4785100D02*
Y5412480D01*
X10603700Y4096760D02*
X11292040Y4785100D01*
X9968700Y4096760D02*
X10603700D01*
X7174700Y4052838D02*
X7274502Y4152640D01*
X7375360D01*
X7680160Y3847840D01*
X9000213D01*
X9221559Y4069186D01*
Y4082643D01*
X9270200Y4131284D01*
X9433796D01*
X9498800Y4066280D01*
X7100186Y6106753D02*
Y6133601D01*
Y6106753D02*
X7314750Y5892189D01*
X9432409D01*
X9600400Y6060180D01*
X10009218Y4790180D02*
X10534998Y4264400D01*
X9350845Y4790180D02*
X10009218D01*
X9297505Y4843520D02*
X9350845Y4790180D01*
X9297505Y4843520D02*
Y4887335D01*
X9229560Y4955280D02*
X9297505Y4887335D01*
X10126180Y5041640D02*
X11022800D01*
X11226000Y5244840D01*
X7292343Y1649998D02*
X7517661Y1424680D01*
X10340343Y1649998D02*
X10479301Y1511040D01*
X10850080D01*
X11342840Y1912360D02*
X11383480Y1871720D01*
X10400500Y5509340D02*
X10664660Y5245180D01*
X10400500Y5509340D02*
Y5707120D01*
X9877260Y1765040D02*
X10890004D01*
X9646120Y1533900D02*
X9877260Y1765040D01*
X8551441Y1533900D02*
X9646120D01*
X8435343Y1649998D02*
X8551441Y1533900D01*
X7875740Y1940300D02*
X7974800Y2039360D01*
X8779284D01*
X9557499Y3143224D02*
X9596112Y3181837D01*
X10497543D01*
X10601160Y3078220D01*
X10992320D01*
X5937720Y1460240D02*
X5970740Y1427220D01*
X5937720Y1460240D02*
Y2702300D01*
X7177240Y1584700D02*
Y1714240D01*
X7228040Y1765040D01*
X7441400D01*
X7522680Y1683760D01*
Y1574540D02*
Y1683760D01*
Y1574540D02*
X7563320Y1533900D01*
X7938244D01*
X8054343Y1649998D01*
X1721000Y650000D02*
Y878996D01*
X1324999Y1274998D02*
X1721000Y878996D01*
X6059640Y751580D02*
X6100280Y710940D01*
X11274260Y5698819D02*
Y5709660D01*
X11120001Y5544560D02*
X11274260Y5698819D01*
X1954715Y1145280D02*
X3270720D01*
X1824998Y1274998D02*
X1954715Y1145280D01*
D16*
X7640378Y2699760D02*
X7882501Y2457637D01*
X6317501Y2699760D02*
X7640378D01*
D17*
X2166673Y6803137D02*
X2247549D01*
X2143746Y6621095D02*
Y6625431D01*
X2166673Y6648358D01*
Y6803137D01*
D157*
X6291229Y3910575D02*
Y4065660D01*
X6272273Y3732475D02*
Y3891619D01*
X6291229Y3910575D01*
X8521837Y1072524D02*
X8906166D01*
X9299517D01*
X9673054D01*
X6600246Y1573444D02*
X6767172Y1740370D01*
X7212156Y620941D02*
X7216215D01*
X7151185Y559971D02*
X7212156Y620941D01*
X7000368Y559971D02*
X7151185D01*
X6862303Y698036D02*
X7000368Y559971D01*
X6643498Y698036D02*
X6862303D01*
X6495160Y846375D02*
X6643498Y698036D01*
X6495160Y846375D02*
Y1625986D01*
X6891407Y2022233D01*
Y2592503D01*
X6660233Y830320D02*
X7060400D01*
X6600246Y890306D02*
X6660233Y830320D01*
X6600246Y890306D02*
Y1573444D01*
X4452135Y3620019D02*
X4455005Y3617149D01*
X4452135Y3620019D02*
Y3649149D01*
X3985321Y4115963D02*
X4452135Y3649149D01*
X2340430Y6879058D02*
X2413564D01*
X3631400Y4725242D02*
X5631646D01*
X6291229Y4065660D01*
X4710900Y7251440D02*
X4899998D01*
D161*
X3952434Y3664898D02*
X4314831Y3302501D01*
X4929703D01*
X3952434Y3664898D02*
Y3926608D01*
X3859251Y4019790D02*
X3952434Y3926608D01*
D162*
X5171383Y650000D02*
D03*
X5425383D02*
D03*
X1975000Y650000D02*
D03*
X2229000D02*
D03*
X2483000D02*
D03*
X1721000D02*
D03*
X1467000D02*
D03*
D163*
X1337506Y7077501D02*
D03*
Y7277500D02*
D03*
D164*
X651300Y6787500D02*
D03*
Y6533500D02*
D03*
D165*
X1324999Y1274998D02*
D03*
X1824998D02*
D03*
X2625001D02*
D03*
X2124997D02*
D03*
X2600002Y1749998D02*
D03*
X2099998D02*
D03*
X1324999D02*
D03*
X1824998D02*
D03*
D166*
X10149340Y510001D02*
D03*
X9959343Y1649998D02*
D03*
X9578343D02*
D03*
X9768340Y510001D02*
D03*
X8816343Y1649998D02*
D03*
X9006340Y510001D02*
D03*
X8625340D02*
D03*
X8435343Y1649998D02*
D03*
X8054343D02*
D03*
X8244340Y510001D02*
D03*
X7863340D02*
D03*
X7673343Y1649998D02*
D03*
X10340343D02*
D03*
X10530340Y510001D02*
D03*
X7292343Y1649998D02*
D03*
X7482340Y510001D02*
D03*
X9387340D02*
D03*
X9197343Y1649998D02*
D03*
X10911340Y510001D02*
D03*
X10721343Y1649998D02*
D03*
X9186004Y7490002D02*
D03*
X9376006Y6349999D02*
D03*
X8995006D02*
D03*
X8805004Y7490002D02*
D03*
X8424004D02*
D03*
X8614006Y6349999D02*
D03*
X9948004Y7490002D02*
D03*
X10138006Y6349999D02*
D03*
X10519006D02*
D03*
X10329004Y7490002D02*
D03*
X10710004D02*
D03*
X10900006Y6349999D02*
D03*
X7662004Y7490002D02*
D03*
X7852006Y6349999D02*
D03*
X8233006D02*
D03*
X8043004Y7490002D02*
D03*
X9757006Y6349999D02*
D03*
X9567004Y7490002D02*
D03*
X7471006Y6349999D02*
D03*
X7281004Y7490002D02*
D03*
D167*
X11500000Y499998D02*
D03*
Y7499999D02*
D03*
X500002D02*
D03*
Y499998D02*
D03*
D168*
X3192501Y1428647D02*
D03*
X3842826Y6758071D02*
D03*
X3619620Y6902197D02*
D03*
X3773890Y7065814D02*
D03*
X4750005Y6160074D02*
D03*
X4697905Y6285000D02*
D03*
X4551477Y6803137D02*
D03*
X6272273Y3732475D02*
D03*
X6785151Y3139897D02*
D03*
X7280921Y1928863D02*
D03*
X7130257Y1869046D02*
D03*
X7245820Y6060180D02*
D03*
X7495502Y6070680D02*
D03*
X7753785Y3924043D02*
D03*
X6762375Y890460D02*
D03*
X6762418Y1020375D02*
D03*
X3122412Y3462496D02*
D03*
X3104380Y3629400D02*
D03*
X3023923Y3252440D02*
D03*
X1990001Y3401083D02*
D03*
X2634374Y3757204D02*
D03*
X1889063Y3646277D02*
D03*
X2269056Y3005820D02*
D03*
X1059299Y4324999D02*
D03*
X4050500Y4943760D02*
D03*
X5005333Y2765800D02*
D03*
X1081435Y3383303D02*
D03*
Y3782534D02*
D03*
X1159301Y3995512D02*
D03*
X1893940Y6711712D02*
D03*
X2051008D02*
D03*
X1974762Y6710330D02*
D03*
X382700Y5890000D02*
D03*
X542500D02*
D03*
X465917D02*
D03*
X2031822Y7242398D02*
D03*
X899998Y3530337D02*
D03*
X1619243Y3195457D02*
D03*
X1815000Y3190000D02*
D03*
X5189995Y2362860D02*
D03*
X5012502Y2360677D02*
D03*
X4890000Y1911763D02*
D03*
X5063960Y1838700D02*
D03*
X1159369Y3018320D02*
D03*
X4157691Y4608030D02*
D03*
X3478510Y4906162D02*
D03*
X4522142Y4030234D02*
D03*
X4735001Y4423211D02*
D03*
X4464520Y4340600D02*
D03*
X4261320Y4321705D02*
D03*
X4599140Y1312000D02*
D03*
X4929703Y3302501D02*
D03*
X3037077Y6724510D02*
D03*
X2166673Y6803137D02*
D03*
X2247549D02*
D03*
X6996056Y2259424D02*
D03*
X8878344Y1940300D02*
D03*
X7362660Y2420360D02*
D03*
X6758140Y1144157D02*
D03*
X6362728Y1062723D02*
D03*
X6390521Y1144157D02*
D03*
X6059640Y987876D02*
D03*
X6072340Y1117340D02*
D03*
X6369416Y634089D02*
D03*
X6358874Y764089D02*
D03*
X6767172Y1740370D02*
D03*
X6372060Y922878D02*
D03*
X7118820Y1052875D02*
D03*
X7202506Y1446573D02*
D03*
X6372060Y1422556D02*
D03*
X7271932Y1351087D02*
D03*
X7216215Y620941D02*
D03*
X5650700Y1755002D02*
D03*
X7396318Y1186277D02*
D03*
X7365200Y1940300D02*
D03*
X7397837Y1072524D02*
D03*
X7197560Y1186277D02*
D03*
X7060400Y830320D02*
D03*
X7058085Y1816088D02*
D03*
X7106831Y2349240D02*
D03*
X7509980Y1940300D02*
D03*
X7614120D02*
D03*
X8040804Y3431280D02*
D03*
X6785729Y760460D02*
D03*
X7046648Y692779D02*
D03*
X6754755Y502471D02*
D03*
X6785151Y632379D02*
D03*
X1067869Y6250057D02*
D03*
X1413611D02*
D03*
X2076829Y6070000D02*
D03*
X1888566Y6070993D02*
D03*
X2247549Y6611750D02*
D03*
X3201654Y6610097D02*
D03*
X2849963Y6724510D02*
D03*
X1978552Y6070993D02*
D03*
X2247549Y6522460D02*
D03*
X3006412Y4529575D02*
D03*
X3174747Y4702108D02*
D03*
X3191112Y4626549D02*
D03*
X3274829Y4807635D02*
D03*
X3175691Y5021320D02*
D03*
X3032524D02*
D03*
X2792498D02*
D03*
X2927820D02*
D03*
X2414188Y4311140D02*
D03*
X2324692Y4301626D02*
D03*
X2236038Y4286119D02*
D03*
X2146052Y4284534D02*
D03*
X2056052D02*
D03*
X1966052D02*
D03*
X1876067Y4282901D02*
D03*
X1787012Y4269888D02*
D03*
X1701431Y4242034D02*
D03*
X1622310Y4199140D02*
D03*
X1551084Y4144123D02*
D03*
X1489924Y4078097D02*
D03*
X1441466Y4002256D02*
D03*
X1406385Y3919375D02*
D03*
X1385038Y3831943D02*
D03*
X1379324Y3742124D02*
D03*
Y3652124D02*
D03*
Y3562124D02*
D03*
Y3472124D02*
D03*
X1552395Y3457722D02*
D03*
Y3547722D02*
D03*
Y3637722D02*
D03*
Y3727722D02*
D03*
X1558827Y3817492D02*
D03*
X1585873Y3903332D02*
D03*
X1633493Y3979702D02*
D03*
X1698665Y4041771D02*
D03*
X1777261Y4085621D02*
D03*
X1864307Y4108489D02*
D03*
X1954258Y4111464D02*
D03*
X2044258D02*
D03*
X2134258D02*
D03*
X2224258D02*
D03*
X2492119Y4096536D02*
D03*
X2131484Y3927494D02*
D03*
X3516647Y4126559D02*
D03*
X3339547D02*
D03*
X3163562D02*
D03*
X3516647Y3951688D02*
D03*
X3339547D02*
D03*
X3163562D02*
D03*
Y4310341D02*
D03*
X3339547D02*
D03*
X3516647D02*
D03*
X2884859Y4107947D02*
D03*
X477502Y3236186D02*
D03*
X409999Y3965667D02*
D03*
X352501Y3596520D02*
D03*
X659600Y3384522D02*
D03*
X477502Y2971175D02*
D03*
X365001Y2855353D02*
D03*
Y2638005D02*
D03*
X1825003Y7209266D02*
D03*
X3250400Y7571480D02*
D03*
X9235126Y6073391D02*
D03*
X725640Y4452360D02*
D03*
X6158251Y3134999D02*
D03*
X3914015Y955305D02*
D03*
X3304459Y7390455D02*
D03*
X2988500Y337560D02*
D03*
X9887420Y3932937D02*
D03*
X6042053Y7242500D02*
D03*
X5917849Y7307500D02*
D03*
X3293580Y7260455D02*
D03*
X2790215Y1500880D02*
D03*
X11287573Y4341900D02*
D03*
X8905178Y5577131D02*
D03*
X8424004Y6466580D02*
D03*
X7751280Y4439660D02*
D03*
X7297504Y2765800D02*
D03*
X7087935Y7370277D02*
D03*
X3096494Y1814340D02*
D03*
X3584403Y1775002D02*
D03*
X3181820Y1755002D02*
D03*
X3402797Y1437383D02*
D03*
X3263019Y532264D02*
D03*
X3311759Y755385D02*
D03*
X3424999Y753596D02*
D03*
X3461220Y537676D02*
D03*
X2861500Y337560D02*
D03*
X3914015Y545621D02*
D03*
X3898673Y808237D02*
D03*
X3907503Y1172830D02*
D03*
X3634069Y1053049D02*
D03*
X3957333Y1511252D02*
D03*
X3753989Y3507051D02*
D03*
X3355142Y3673201D02*
D03*
X2900002Y3392220D02*
D03*
X2754998Y3397022D02*
D03*
X2426102Y3992585D02*
D03*
X2558547Y3368511D02*
D03*
X2557595Y3252505D02*
D03*
X2304319Y3176003D02*
D03*
X3245142Y3163721D02*
D03*
X3193926Y3084563D02*
D03*
X6933139Y4804674D02*
D03*
X6808578Y4724998D02*
D03*
X6438100Y3342314D02*
D03*
X6289401Y4943760D02*
D03*
X8829993Y4881623D02*
D03*
X6913573Y6163414D02*
D03*
X8600001Y3179480D02*
D03*
X8245000Y3295004D02*
D03*
X7980425Y5674645D02*
D03*
X8858752Y5227341D02*
D03*
X6676860Y2259424D02*
D03*
X10174440Y3078220D02*
D03*
X10998320Y1186277D02*
D03*
X10911340Y750000D02*
D03*
X11021023Y1392129D02*
D03*
X11343628Y2095801D02*
D03*
X11249698Y1842525D02*
D03*
X11128869Y1942840D02*
D03*
X11260394Y2599780D02*
D03*
X11141400Y3140850D02*
D03*
X11119320Y2755640D02*
D03*
X9740549Y3096000D02*
D03*
X9887420Y2966460D02*
D03*
X9808853Y3339997D02*
D03*
X7131944Y6724740D02*
D03*
X5250000Y7026764D02*
D03*
X2413564Y6879058D02*
D03*
X2498560Y7083800D02*
D03*
X2510485Y6879058D02*
D03*
X2095000Y7467822D02*
D03*
X2340430Y6879058D02*
D03*
X2959248Y6944187D02*
D03*
X2980172Y7407503D02*
D03*
X3517501Y6732572D02*
D03*
X3628374Y6803137D02*
D03*
X10807510Y6849153D02*
D03*
X6333960Y848100D02*
D03*
X6891407Y2592503D02*
D03*
X10256840Y887506D02*
D03*
X7759341Y6826177D02*
D03*
X6052020Y3947840D02*
D03*
X6106059Y4151236D02*
D03*
X3859251Y4019790D02*
D03*
X3985321Y4115963D02*
D03*
X4455005Y3617149D02*
D03*
X3878770Y3784340D02*
D03*
X3631400Y4725242D02*
D03*
X4284180Y4531100D02*
D03*
X3785904Y4151236D02*
D03*
X3876441Y4291983D02*
D03*
X3355142Y3594820D02*
D03*
X3482867Y3588760D02*
D03*
X3111234Y2957498D02*
D03*
X3854840Y4555243D02*
D03*
X4029642Y4302028D02*
D03*
X3321112Y4646289D02*
D03*
X3430514Y4721284D02*
D03*
X3486163Y3673201D02*
D03*
X3587496Y4570562D02*
D03*
X3502468Y4669382D02*
D03*
X6887680Y2992500D02*
D03*
X8906166Y1072524D02*
D03*
X10050000D02*
D03*
X10447842D02*
D03*
X10825000D02*
D03*
X7583474Y1186277D02*
D03*
X7775494Y1191249D02*
D03*
X7775003Y1072524D02*
D03*
X7965058Y1186277D02*
D03*
X8146300D02*
D03*
X8523418D02*
D03*
X8906166D02*
D03*
X9298508D02*
D03*
X9674027D02*
D03*
X10444318D02*
D03*
X10050000D02*
D03*
X10825000D02*
D03*
X10635321D02*
D03*
X9108058D02*
D03*
X8716399D02*
D03*
X8340560D02*
D03*
X9483560D02*
D03*
X9860528D02*
D03*
X9960472Y507285D02*
D03*
X9583504Y495848D02*
D03*
X10351002Y505797D02*
D03*
X8440504Y495848D02*
D03*
X8816343Y505797D02*
D03*
X9208002D02*
D03*
X8065002D02*
D03*
X7670918D02*
D03*
X7297504Y495848D02*
D03*
X9119081Y1939843D02*
D03*
X10929036Y2441140D02*
D03*
X10637840Y1940300D02*
D03*
X10745002Y4000240D02*
D03*
X10999940Y3885160D02*
D03*
X11150003Y4105160D02*
D03*
X11025005D02*
D03*
X8519884Y6824720D02*
D03*
X10425001D02*
D03*
X10048178D02*
D03*
X9667178D02*
D03*
X9286178D02*
D03*
X8912504D02*
D03*
X8138884D02*
D03*
X7375004D02*
D03*
X9673054Y1072524D02*
D03*
X9299517D02*
D03*
X8521837D02*
D03*
X8149080D02*
D03*
X4210520Y7444480D02*
D03*
X3654883Y7535781D02*
D03*
X3800000Y7368414D02*
D03*
X3663083Y7369617D02*
D03*
X4099999Y7014080D02*
D03*
X4197820Y7062689D02*
D03*
X4323462D02*
D03*
X3676671Y7064999D02*
D03*
X3570440Y7130783D02*
D03*
X4859999Y677000D02*
D03*
X3807573Y1743564D02*
D03*
X4777176Y1630003D02*
D03*
X3879467Y4109537D02*
D03*
X3834165Y3943497D02*
D03*
X3747966Y4554382D02*
D03*
X5957554Y4742519D02*
D03*
X6697998Y4503160D02*
D03*
X6657306Y2900455D02*
D03*
X6858836Y3705600D02*
D03*
X6392934Y4498962D02*
D03*
X6524998Y4504437D02*
D03*
X6509499Y4854613D02*
D03*
X10125001Y5387080D02*
D03*
X8730321Y3426698D02*
D03*
X7637041Y6096845D02*
D03*
X10957501Y6201143D02*
D03*
X7204086Y6637043D02*
D03*
X6753060Y6911080D02*
D03*
Y6472719D02*
D03*
X7062940Y6667240D02*
D03*
X7724603Y5635121D02*
D03*
X9487168Y1848659D02*
D03*
X3908159Y677000D02*
D03*
X8878339Y6058560D02*
D03*
X4985220Y6543387D02*
D03*
X4984458Y7026764D02*
D03*
X9947479Y4325721D02*
D03*
X10076255D02*
D03*
X9919249Y3577721D02*
D03*
X10047963Y3587751D02*
D03*
X4099999Y6841047D02*
D03*
X2641249Y4525712D02*
D03*
X3255513Y4685000D02*
D03*
X3004506Y4722372D02*
D03*
X3474535Y3481110D02*
D03*
X3595840Y3361894D02*
D03*
X3665090Y3690360D02*
D03*
X2731095Y4294444D02*
D03*
X2786676Y4229443D02*
D03*
X2855867Y4180930D02*
D03*
X2927607Y4446200D02*
D03*
X2647666Y4346600D02*
D03*
X2718036Y4401764D02*
D03*
X5079200Y7424160D02*
D03*
X3775001Y3286500D02*
D03*
X5079200Y6425940D02*
D03*
X6117496Y3878320D02*
D03*
X5000460Y1058000D02*
D03*
X10469999Y5562340D02*
D03*
X1782280Y1500880D02*
D03*
X2152160Y1448236D02*
D03*
X9773120Y2542280D02*
D03*
X3291040Y6995002D02*
D03*
X2280120Y7551160D02*
D03*
X4840120Y5275000D02*
D03*
X3900640Y5067040D02*
D03*
X9925520Y5481060D02*
D03*
X4855680Y804920D02*
D03*
X6042053Y7142220D02*
D03*
X10600002Y5566038D02*
D03*
X8992822Y5549640D02*
D03*
X7771600Y5234568D02*
D03*
X11055820Y2372100D02*
D03*
X9488457Y2438140D02*
D03*
X6676860Y2379720D02*
D03*
X6002881Y1572879D02*
D03*
X7104428Y7177780D02*
D03*
X9557220Y2958840D02*
D03*
X10469999Y4856220D02*
D03*
X10763720Y1940300D02*
D03*
X10489400Y3927494D02*
D03*
X10400002Y6060180D02*
D03*
X10649999Y6483781D02*
D03*
X6758140Y7081260D02*
D03*
X10774998Y6314180D02*
D03*
X7492200Y5181340D02*
D03*
X6753558Y6306062D02*
D03*
X9364180Y1940300D02*
D03*
X7770828D02*
D03*
X9000000D02*
D03*
X8036547Y1942053D02*
D03*
X11129998Y2437104D02*
D03*
X7624280Y5244840D02*
D03*
X7870502Y5659017D02*
D03*
X6091497Y1703120D02*
D03*
X6072340Y6982200D02*
D03*
X6006300Y6851928D02*
D03*
X6407620Y6204960D02*
D03*
X6328590Y6348953D02*
D03*
X7358088Y3921500D02*
D03*
X7708100Y4051040D02*
D03*
X10649420Y4066280D02*
D03*
X9590423Y5042676D02*
D03*
X5160480Y5405002D02*
D03*
X1526812Y2647863D02*
D03*
X3499320Y1145961D02*
D03*
X9427497Y3029960D02*
D03*
X11055820D02*
D03*
X6220498Y6416618D02*
D03*
X6585420Y4333142D02*
D03*
X4832820Y5474999D02*
D03*
X7167080Y5646160D02*
D03*
X7584874Y4051040D02*
D03*
X10875002Y3995160D02*
D03*
X5950420Y6591929D02*
D03*
X6402540Y6508327D02*
D03*
X9295600Y4066280D02*
D03*
X7436096Y4003064D02*
D03*
X6758140Y6171940D02*
D03*
X4243540Y3487160D02*
D03*
X7751280Y5107680D02*
D03*
X7232500Y2923280D02*
D03*
X2932900Y3111240D02*
D03*
X2955760Y3187440D02*
D03*
X6392380Y7218420D02*
D03*
X3962504Y3460053D02*
D03*
X6887680Y3426698D02*
D03*
X5879300Y3068060D02*
D03*
X5856440Y7414000D02*
D03*
X7296620Y3062980D02*
D03*
X9610844Y1808220D02*
D03*
X7146760Y7005060D02*
D03*
X10433398Y5130540D02*
D03*
X7882501Y2457637D02*
D03*
X6317501Y2699760D02*
D03*
X9828258Y3809740D02*
D03*
X7751280Y3078220D02*
D03*
X6397460Y7002520D02*
D03*
X3613620Y1602480D02*
D03*
X6994360Y3914998D02*
D03*
X7174700Y4052838D02*
D03*
X6778460Y2415280D02*
D03*
X8842499Y3992620D02*
D03*
X7100186Y6133601D02*
D03*
X9600400Y6060180D02*
D03*
X10534998Y4264400D02*
D03*
X11119320Y3443980D02*
D03*
X10534998Y4183120D02*
D03*
X9493720Y2755640D02*
D03*
X10126180Y5041640D02*
D03*
X11226000Y5244840D02*
D03*
X6392380Y6616354D02*
D03*
X9229560Y3924040D02*
D03*
X11275002Y6494520D02*
D03*
X4852505Y6236075D02*
D03*
X3771100Y6598660D02*
D03*
X9125003Y4066280D02*
D03*
X6227280Y2992500D02*
D03*
X9374340Y3924040D02*
D03*
X2966316Y7130003D02*
D03*
X2623020Y7449997D02*
D03*
X2978620Y7270002D02*
D03*
X9498800Y4066280D02*
D03*
X9000005Y4067235D02*
D03*
X10601160Y5158480D02*
D03*
X10649999Y5709660D02*
D03*
X10664660Y5245180D02*
D03*
X10400500Y5707120D02*
D03*
X11030420Y6146540D02*
D03*
X9501340Y6583420D02*
D03*
X10598620Y3921500D02*
D03*
X10890004Y1765040D02*
D03*
X4999998Y5663940D02*
D03*
X9922980Y5056880D02*
D03*
X9657499Y4975000D02*
D03*
X4606760Y7251440D02*
D03*
X9000000Y6060180D02*
D03*
X7875740Y1940300D02*
D03*
X9557499Y3143224D02*
D03*
X5970740Y1427220D02*
D03*
X10601160Y4856220D02*
D03*
X8973020D02*
D03*
X6512110Y4149998D02*
D03*
X8277060Y5969273D02*
D03*
X10520002Y1942840D02*
D03*
X9707080Y2627497D02*
D03*
X6323800Y4330440D02*
D03*
X570700Y4101840D02*
D03*
X2511524Y4762504D02*
D03*
X1055840Y4570404D02*
D03*
X5071580Y1285000D02*
D03*
Y1445000D02*
D03*
X6372060Y6916160D02*
D03*
X6072340Y1378960D02*
D03*
X4929340Y1160002D02*
D03*
X11274260Y5709660D02*
D03*
X11120001Y5544560D02*
D03*
X10000003Y4189998D02*
D03*
X6372060Y1247876D02*
D03*
X6377145Y1333199D02*
D03*
X7233120Y5145780D02*
D03*
X7120506Y5712200D02*
D03*
X3270720Y1145280D02*
D03*
X9186380Y6616064D02*
D03*
X6396495Y6831624D02*
D03*
X593560Y4672502D02*
D03*
X6072340Y6706625D02*
D03*
X723999Y4200001D02*
D03*
X8582398Y5969278D02*
D03*
X8842499Y4553960D02*
D03*
X8900005Y3924040D02*
D03*
X4710900Y7251440D02*
D03*
X4899998D02*
D03*
D169*
X3957333Y2412500D02*
D03*
X3807336D02*
D03*
M02*
