G04*
G04 #@! TF.GenerationSoftware,Altium Limited,Altium Designer,25.4.2 (15)*
G04*
G04 Layer_Color=8388736*
%FSLAX45Y45*%
%MOMM*%
G71*
G04*
G04 #@! TF.SameCoordinates,D7BB9B6E-8E0F-4C10-A838-266EBE977BF3*
G04*
G04*
G04 #@! TF.FilePolarity,Negative*
G04*
G01*
G75*
%ADD25R,1.10000X1.00000*%
%ADD29R,1.00000X1.10000*%
%ADD32R,0.90000X1.00000*%
%ADD34R,1.00000X0.90000*%
%ADD69R,1.46200X0.35480*%
%ADD86R,1.80000X0.75000*%
%ADD87R,0.90000X1.10000*%
%ADD88R,1.20000X1.10000*%
%ADD89R,1.10000X2.20000*%
%ADD90R,1.10000X0.90000*%
%ADD91R,2.20000X1.10000*%
%ADD92R,1.10000X1.20000*%
%ADD93R,3.30000X1.10000*%
%ADD94R,0.75000X0.80000*%
%ADD95R,0.80000X0.65000*%
%ADD96R,1.62500X0.75000*%
%ADD97R,2.10000X4.20000*%
%ADD98R,2.50000X0.86000*%
%ADD99R,0.93000X0.72500*%
%ADD100R,2.30000X1.15000*%
%ADD101R,1.15000X1.10000*%
%ADD102R,1.00000X0.90000*%
%ADD103R,0.65000X0.80000*%
%ADD104R,0.80000X0.80000*%
%ADD105R,0.90000X0.75000*%
%ADD106R,1.23000X0.86000*%
%ADD107R,0.72500X0.95000*%
%ADD108R,0.75000X0.90000*%
%ADD109R,0.80000X1.30000*%
%ADD110O,0.45000X0.35000*%
%ADD111R,0.80000X0.75000*%
%ADD112R,0.80000X0.80000*%
%ADD113R,1.20000X1.05000*%
%ADD114R,2.80000X1.40000*%
%ADD115R,2.60000X1.80000*%
%ADD116R,1.00000X1.05000*%
%ADD117R,0.40000X0.95000*%
%ADD118R,0.90000X0.50000*%
%ADD119R,0.70000X1.25000*%
%ADD120R,2.20000X1.40000*%
%ADD121R,0.40000X0.90000*%
%ADD122R,0.95000X1.05000*%
%ADD123R,1.45000X1.10000*%
%ADD124R,3.60000X1.70000*%
%ADD125R,5.50000X3.00000*%
%ADD126R,0.75000X1.62500*%
%ADD127R,1.70000X2.90000*%
%ADD128R,0.95000X2.30000*%
%ADD129R,1.05000X0.95000*%
%ADD130R,1.10000X0.70000*%
%ADD131R,0.70000X1.10000*%
%ADD132R,0.63000X1.43000*%
%ADD133R,1.07200X0.90200*%
%ADD134R,1.30000X0.50000*%
%ADD135R,1.50000X1.40000*%
%ADD136R,1.40000X1.50000*%
%ADD137R,1.80000X2.60000*%
%ADD138O,0.86000X1.37000*%
G04:AMPARAMS|DCode=139|XSize=0.72mm|YSize=0.42mm|CornerRadius=0mm|HoleSize=0mm|Usage=FLASHONLY|Rotation=270.000|XOffset=0mm|YOffset=0mm|HoleType=Round|Shape=Octagon|*
%AMOCTAGOND139*
4,1,8,-0.10500,-0.36000,0.10500,-0.36000,0.21000,-0.25500,0.21000,0.25500,0.10500,0.36000,-0.10500,0.36000,-0.21000,0.25500,-0.21000,-0.25500,-0.10500,-0.36000,0.0*
%
%ADD139OCTAGOND139*%

G04:AMPARAMS|DCode=140|XSize=0.72mm|YSize=0.42mm|CornerRadius=0mm|HoleSize=0mm|Usage=FLASHONLY|Rotation=0.000|XOffset=0mm|YOffset=0mm|HoleType=Round|Shape=Octagon|*
%AMOCTAGOND140*
4,1,8,0.36000,-0.10500,0.36000,0.10500,0.25500,0.21000,-0.25500,0.21000,-0.36000,0.10500,-0.36000,-0.10500,-0.25500,-0.21000,0.25500,-0.21000,0.36000,-0.10500,0.0*
%
%ADD140OCTAGOND140*%

G04:AMPARAMS|DCode=141|XSize=5.76mm|YSize=5.76mm|CornerRadius=0.22mm|HoleSize=0mm|Usage=FLASHONLY|Rotation=0.000|XOffset=0mm|YOffset=0mm|HoleType=Round|Shape=RoundedRectangle|*
%AMROUNDEDRECTD141*
21,1,5.76000,5.32000,0,0,0.0*
21,1,5.32000,5.76000,0,0,0.0*
1,1,0.44000,2.66000,-2.66000*
1,1,0.44000,-2.66000,-2.66000*
1,1,0.44000,-2.66000,2.66000*
1,1,0.44000,2.66000,2.66000*
%
%ADD141ROUNDEDRECTD141*%
%ADD142R,0.40000X1.50000*%
%ADD143O,0.45000X2.20000*%
%ADD144R,0.70000X1.30000*%
%ADD145O,1.85000X2.60000*%
%ADD146O,2.60000X1.60000*%
%ADD147O,2.60000X1.85000*%
%ADD148C,1.48100*%
%ADD149C,1.27000*%
%ADD150C,1.75000*%
%ADD151C,3.10000*%
%ADD152C,0.75000*%
D25*
X2150001Y2875000D02*
D03*
Y3009996D02*
D03*
X1162500Y3114999D02*
D03*
Y3250000D02*
D03*
X812498Y3107501D02*
D03*
Y3242502D02*
D03*
X1716286Y3656529D02*
D03*
Y3521533D02*
D03*
X1950001Y3917497D02*
D03*
Y3782501D02*
D03*
X2325002Y3927494D02*
D03*
Y3792498D02*
D03*
Y4063003D02*
D03*
Y4197999D02*
D03*
X2754998Y3500002D02*
D03*
Y3634998D02*
D03*
X2900002Y3497508D02*
D03*
Y3632504D02*
D03*
X3026880Y3331497D02*
D03*
Y3466493D02*
D03*
X3381118Y3497320D02*
D03*
Y3362324D02*
D03*
X4017140Y4387178D02*
D03*
Y4522174D02*
D03*
X4142143D02*
D03*
Y4387173D02*
D03*
X3177380Y4807630D02*
D03*
Y4942631D02*
D03*
X3032519Y4942636D02*
D03*
Y4807635D02*
D03*
X4999998Y6274998D02*
D03*
Y6139997D02*
D03*
Y5892499D02*
D03*
Y5757498D02*
D03*
X3675002Y7150002D02*
D03*
Y7285003D02*
D03*
X3800000Y7150002D02*
D03*
Y7285003D02*
D03*
X4199999Y7164999D02*
D03*
Y7300000D02*
D03*
X4324998Y7164999D02*
D03*
Y7300000D02*
D03*
X2650000Y7187782D02*
D03*
Y7052781D02*
D03*
X2199998Y7315001D02*
D03*
Y7450002D02*
D03*
X6657500Y3134999D02*
D03*
Y2999998D02*
D03*
X6699999Y4724998D02*
D03*
Y4589997D02*
D03*
X6859999Y4049999D02*
D03*
Y3914998D02*
D03*
X9745637Y3011672D02*
D03*
Y2876676D02*
D03*
X9925002Y3339997D02*
D03*
Y3474998D02*
D03*
X10075004Y4592502D02*
D03*
Y4457501D02*
D03*
D29*
X2199998Y3649999D02*
D03*
X2064997D02*
D03*
X1688559Y3024997D02*
D03*
X1553563D02*
D03*
X1840004Y3025002D02*
D03*
X1975000D02*
D03*
X9657499Y4700000D02*
D03*
X9792500D02*
D03*
X8735002Y3295004D02*
D03*
X8600001D02*
D03*
X845235Y3387132D02*
D03*
X980230D02*
D03*
X1992312Y3512502D02*
D03*
X1857316D02*
D03*
X2472499Y4205162D02*
D03*
X2607495D02*
D03*
X2525001Y3993001D02*
D03*
X2659997D02*
D03*
X3246123Y3259363D02*
D03*
X3381118D02*
D03*
X4090408Y4201951D02*
D03*
X3955407D02*
D03*
X4084638Y4013463D02*
D03*
X3949636D02*
D03*
X4084638Y3888460D02*
D03*
X3949636D02*
D03*
X4299999Y3706911D02*
D03*
X4435000D02*
D03*
X4299999Y4013458D02*
D03*
X4435000D02*
D03*
X4850000Y6549999D02*
D03*
X4714999D02*
D03*
X3517501Y6850003D02*
D03*
X3382500D02*
D03*
X3524999Y7524998D02*
D03*
X3389998D02*
D03*
X10367500Y3295004D02*
D03*
X10232499D02*
D03*
X6347498Y3130000D02*
D03*
X6482499D02*
D03*
X6517500Y3732499D02*
D03*
X6382499D02*
D03*
X6390002Y4587996D02*
D03*
X6524998D02*
D03*
X605295Y3597180D02*
D03*
X470299D02*
D03*
X11290003Y4700000D02*
D03*
X11424999D02*
D03*
D32*
X9950000Y4610002D02*
D03*
Y4440000D02*
D03*
X4599998Y6115003D02*
D03*
Y6285000D02*
D03*
X4000000Y6744860D02*
D03*
Y6914857D02*
D03*
X10050000Y3330005D02*
D03*
Y3500002D02*
D03*
X5012502Y2117496D02*
D03*
Y1947499D02*
D03*
X5550004Y2109997D02*
D03*
Y1940000D02*
D03*
X11150003Y4155718D02*
D03*
Y4325716D02*
D03*
X11025005D02*
D03*
Y4155718D02*
D03*
X10770004Y4155723D02*
D03*
Y4325721D02*
D03*
X10650004Y4155718D02*
D03*
Y4325721D02*
D03*
X9500004Y4155723D02*
D03*
Y4325721D02*
D03*
X9375005Y4155723D02*
D03*
Y4325721D02*
D03*
X9125003D02*
D03*
Y4155718D02*
D03*
X9000005Y4325721D02*
D03*
Y4155718D02*
D03*
X9025004Y3835003D02*
D03*
Y3665001D02*
D03*
X9249997D02*
D03*
Y3835003D02*
D03*
X9375000Y3665001D02*
D03*
Y3835003D02*
D03*
X10600007Y3665006D02*
D03*
Y3835003D02*
D03*
X11000006Y3834998D02*
D03*
Y3665001D02*
D03*
X11275002Y5799281D02*
D03*
Y5969278D02*
D03*
X11149998Y5799281D02*
D03*
Y5969278D02*
D03*
X11029998Y5799276D02*
D03*
Y5969273D02*
D03*
X10900001Y5969278D02*
D03*
Y5799281D02*
D03*
X10774998Y5799276D02*
D03*
Y5969273D02*
D03*
X10649999Y5799281D02*
D03*
Y5969278D02*
D03*
X10520002Y5799276D02*
D03*
Y5969278D02*
D03*
X10400002Y5799281D02*
D03*
Y5969278D02*
D03*
X9600842Y5969273D02*
D03*
Y5799276D02*
D03*
X9475843Y5969273D02*
D03*
Y5799276D02*
D03*
X9353339Y5969273D02*
D03*
Y5799276D02*
D03*
X9116738Y5969273D02*
D03*
Y5799276D02*
D03*
X9235712Y5969273D02*
D03*
Y5799276D02*
D03*
X9000000Y5969273D02*
D03*
Y5799276D02*
D03*
X8753340Y5969273D02*
D03*
Y5799276D02*
D03*
X8878339Y5969273D02*
D03*
Y5799276D02*
D03*
X9610844Y2031013D02*
D03*
Y2201011D02*
D03*
X9485846Y2031013D02*
D03*
Y2201011D02*
D03*
X9363342Y2031008D02*
D03*
Y2201011D02*
D03*
X9238343Y2031013D02*
D03*
Y2201011D02*
D03*
X9120005Y2031013D02*
D03*
Y2201011D02*
D03*
X9000000Y2031013D02*
D03*
Y2201011D02*
D03*
X8878344Y2031013D02*
D03*
Y2201011D02*
D03*
X8753340Y2031013D02*
D03*
Y2201011D02*
D03*
X11129998Y2201006D02*
D03*
Y2031008D02*
D03*
X11009998Y2201011D02*
D03*
Y2031013D02*
D03*
X10890004Y2201006D02*
D03*
Y2031008D02*
D03*
X10765000Y2201006D02*
D03*
Y2031008D02*
D03*
X10640002Y2201006D02*
D03*
Y2031008D02*
D03*
X10520002Y2201006D02*
D03*
Y2031008D02*
D03*
X10400002Y2201006D02*
D03*
Y2031008D02*
D03*
X8900005Y3834998D02*
D03*
Y3665001D02*
D03*
X10469994Y3835003D02*
D03*
Y3665006D02*
D03*
X10875002Y3665001D02*
D03*
Y3834998D02*
D03*
X11255002Y2031008D02*
D03*
Y2201006D02*
D03*
D34*
X1979648Y3174999D02*
D03*
X2149645D02*
D03*
X1985002Y3299322D02*
D03*
X1815000D02*
D03*
X6667934Y6706625D02*
D03*
X6497932D02*
D03*
X6667934Y7331623D02*
D03*
X6497937D02*
D03*
X6667934Y7206624D02*
D03*
X6497932D02*
D03*
X6667929Y7081621D02*
D03*
X6497932D02*
D03*
X6667929Y6956622D02*
D03*
X6497932D02*
D03*
X6667934Y6831624D02*
D03*
X6497932D02*
D03*
X6667934Y6581622D02*
D03*
X6497932D02*
D03*
X6667934Y6456623D02*
D03*
X6497932D02*
D03*
X1159301Y3864792D02*
D03*
X989299D02*
D03*
X1536062Y2850001D02*
D03*
X1706065D02*
D03*
X2867510Y4861193D02*
D03*
X2697508D02*
D03*
X2867500Y4735001D02*
D03*
X2697498D02*
D03*
X4867902Y6924999D02*
D03*
X4697905D02*
D03*
X6859999Y3787500D02*
D03*
X6690002D02*
D03*
X6684998Y3907499D02*
D03*
X6515001D02*
D03*
X6859999Y4232498D02*
D03*
X6690002D02*
D03*
X5389999Y1755002D02*
D03*
X5560002D02*
D03*
X5189995Y2270863D02*
D03*
X5019998D02*
D03*
X6497932Y6172011D02*
D03*
X6667934D02*
D03*
X6497932Y6306062D02*
D03*
X6667934D02*
D03*
X6494650Y516625D02*
D03*
X6664648D02*
D03*
X6498765Y644499D02*
D03*
X6668767D02*
D03*
X6497932Y1269156D02*
D03*
X6667929D02*
D03*
X6497932Y1644156D02*
D03*
X6667934D02*
D03*
X6497932Y1519158D02*
D03*
X6667934D02*
D03*
X6497932Y1394154D02*
D03*
X6667934D02*
D03*
X6497932Y1144157D02*
D03*
X6667934D02*
D03*
X6497937Y894155D02*
D03*
X6667934D02*
D03*
X6497932Y769157D02*
D03*
X6667934D02*
D03*
X6497937Y1019159D02*
D03*
X6667934D02*
D03*
X6515001Y4049999D02*
D03*
X6684998D02*
D03*
D69*
X2849999Y7000000D02*
D03*
Y7064999D02*
D03*
Y7130003D02*
D03*
Y7195001D02*
D03*
Y7260000D02*
D03*
Y7325003D02*
D03*
Y7390002D02*
D03*
X3434199D02*
D03*
Y7325003D02*
D03*
Y7260000D02*
D03*
Y7195001D02*
D03*
Y7130003D02*
D03*
Y7064999D02*
D03*
Y7000000D02*
D03*
D86*
X4725002Y550000D02*
D03*
Y677000D02*
D03*
Y804000D02*
D03*
Y931000D02*
D03*
Y1058000D02*
D03*
Y1185000D02*
D03*
Y1312000D02*
D03*
Y1439000D02*
D03*
X3770003D02*
D03*
Y1312000D02*
D03*
Y1185000D02*
D03*
Y1058000D02*
D03*
Y931000D02*
D03*
Y804000D02*
D03*
Y677000D02*
D03*
Y550000D02*
D03*
D87*
X1665000Y2060000D02*
D03*
X4430000D02*
D03*
Y5005000D02*
D03*
X1605000D02*
D03*
D88*
X1370000Y2060000D02*
D03*
X4725000Y5005000D02*
D03*
X3520001Y1345000D02*
D03*
X3300001Y1249999D02*
D03*
Y1440001D02*
D03*
X3509998Y1675002D02*
D03*
X3289999Y1580001D02*
D03*
Y1769998D02*
D03*
D89*
X1265000Y2115000D02*
D03*
X4830000Y4950000D02*
D03*
D90*
X1265000Y2460000D02*
D03*
X4830000D02*
D03*
Y4605000D02*
D03*
X1205000D02*
D03*
D91*
X4775000Y2060000D02*
D03*
X1260000Y5005000D02*
D03*
D92*
X4830000Y2165000D02*
D03*
X1205000Y4900000D02*
D03*
D93*
X629999Y2150002D02*
D03*
Y1749998D02*
D03*
Y1349999D02*
D03*
D94*
X2660002Y3880840D02*
D03*
X2525001D02*
D03*
X920001Y3250000D02*
D03*
X1055002D02*
D03*
X1716286Y3784340D02*
D03*
X1851287D02*
D03*
X2066083Y3788498D02*
D03*
X2201079D02*
D03*
D95*
X2150001Y3299322D02*
D03*
X2149996Y3389324D02*
D03*
X1423337Y3150981D02*
D03*
X2747500Y3782501D02*
D03*
X3200001Y6700001D02*
D03*
D96*
X10250000Y4189998D02*
D03*
Y4062998D02*
D03*
Y3935998D02*
D03*
Y3808998D02*
D03*
X9707603D02*
D03*
Y3935998D02*
D03*
Y4062998D02*
D03*
Y4189998D02*
D03*
D97*
X1246371Y6250057D02*
D03*
Y5380056D02*
D03*
D98*
X409999Y4070999D02*
D03*
Y4197999D02*
D03*
Y4324999D02*
D03*
Y4451999D02*
D03*
Y4578999D02*
D03*
X889998Y4070999D02*
D03*
Y4197999D02*
D03*
Y4324999D02*
D03*
Y4451999D02*
D03*
Y4578999D02*
D03*
D99*
X1159369Y4292181D02*
D03*
Y4069682D02*
D03*
D100*
X477502Y3384996D02*
D03*
Y3090000D02*
D03*
D101*
X630004Y3237498D02*
D03*
D102*
X1099998Y3513875D02*
D03*
Y3703877D02*
D03*
X899998Y3608876D02*
D03*
D103*
X1324999Y3249324D02*
D03*
X1990001Y2850001D02*
D03*
X1899999D02*
D03*
X2845844Y3880840D02*
D03*
X3023923Y3050001D02*
D03*
X3113926Y3050006D02*
D03*
Y3163721D02*
D03*
X3023923Y3163716D02*
D03*
X4840003Y7575000D02*
D03*
X4750001D02*
D03*
X3101663Y6798339D02*
D03*
X5290005Y1755002D02*
D03*
X5200002D02*
D03*
D104*
X1423337Y3249324D02*
D03*
X3200001Y6798339D02*
D03*
D105*
X1044403Y2890877D02*
D03*
Y2755876D02*
D03*
D106*
X649999Y2750001D02*
D03*
Y2575005D02*
D03*
D107*
X932498Y2750001D02*
D03*
X800001D02*
D03*
D108*
X365001D02*
D03*
X500002D02*
D03*
D109*
X1621061Y3299322D02*
D03*
D110*
X1548559Y3249324D02*
D03*
Y3299322D02*
D03*
Y3349324D02*
D03*
X1693563D02*
D03*
Y3299322D02*
D03*
Y3249324D02*
D03*
D111*
X2525001Y3647500D02*
D03*
Y3782501D02*
D03*
X2772504Y3993001D02*
D03*
Y4128002D02*
D03*
D112*
X2747500Y3880840D02*
D03*
D113*
X4442142Y3863461D02*
D03*
X4292140D02*
D03*
D114*
X1989973Y5968579D02*
D03*
Y5688579D02*
D03*
D115*
X2696996Y5614321D02*
D03*
X2296996D02*
D03*
D116*
X4985001Y5275000D02*
D03*
X4670001D02*
D03*
X4985001Y5474999D02*
D03*
X4670001D02*
D03*
D117*
X4702503Y6067500D02*
D03*
X4752505D02*
D03*
X4802502D02*
D03*
X4852505D02*
D03*
Y6382496D02*
D03*
X4802502D02*
D03*
X4752505D02*
D03*
X4702503D02*
D03*
D118*
X4877504Y6675002D02*
D03*
Y6740001D02*
D03*
Y6804999D02*
D03*
X4662503D02*
D03*
Y6675002D02*
D03*
D119*
X4710001Y7150002D02*
D03*
X4805002D02*
D03*
X4899998D02*
D03*
Y7399999D02*
D03*
X4710001D02*
D03*
D120*
X4000000Y7224999D02*
D03*
D121*
X3900000Y7350002D02*
D03*
X3950002D02*
D03*
X4000000D02*
D03*
X4050002D02*
D03*
X4099999D02*
D03*
Y7100000D02*
D03*
X4050002D02*
D03*
X4000000D02*
D03*
X3950002D02*
D03*
X3900000D02*
D03*
D122*
X2367501Y6977501D02*
D03*
X2497503D02*
D03*
X2367501Y7177501D02*
D03*
X2497503D02*
D03*
X2367501Y7449997D02*
D03*
X2497503D02*
D03*
X6467000Y2992500D02*
D03*
X6336998D02*
D03*
X6509499Y4730500D02*
D03*
X6379502D02*
D03*
D123*
X2200003Y6977501D02*
D03*
Y7177501D02*
D03*
D124*
X1978552Y6190519D02*
D03*
Y6580520D02*
D03*
D125*
X3442315Y6327677D02*
D03*
Y5337682D02*
D03*
D126*
X2624000Y5854999D02*
D03*
X2497000D02*
D03*
X2370000D02*
D03*
X2243000D02*
D03*
Y6397395D02*
D03*
X2370000D02*
D03*
X2497000D02*
D03*
X2624000D02*
D03*
D127*
X1825003Y7407503D02*
D03*
Y6977501D02*
D03*
D128*
X3897500Y7524998D02*
D03*
X4102499D02*
D03*
D129*
X6795000Y3296695D02*
D03*
Y3426698D02*
D03*
D130*
X6344999Y3437498D02*
D03*
Y3342502D02*
D03*
Y3247501D02*
D03*
X6615001D02*
D03*
Y3437498D02*
D03*
X6387498Y5044998D02*
D03*
Y4950002D02*
D03*
Y4855001D02*
D03*
X6657500D02*
D03*
Y5044998D02*
D03*
D131*
X6195002Y3880001D02*
D03*
X6289998D02*
D03*
X6384999D02*
D03*
Y4149998D02*
D03*
X6195002D02*
D03*
D132*
X5195999Y1274998D02*
D03*
X5322999D02*
D03*
X5449999D02*
D03*
Y1580001D02*
D03*
X5322999D02*
D03*
X5195999D02*
D03*
D133*
X4886505Y1820000D02*
D03*
Y1630003D02*
D03*
X5063508Y1725004D02*
D03*
D134*
X5405001Y1979995D02*
D03*
Y2044999D02*
D03*
Y2109997D02*
D03*
X5214998D02*
D03*
Y2044999D02*
D03*
Y1979995D02*
D03*
D135*
X4954999Y1285000D02*
D03*
Y1445000D02*
D03*
D136*
X3957500Y1625000D02*
D03*
X3797501D02*
D03*
D137*
X2949999Y1349999D02*
D03*
Y1749998D02*
D03*
D138*
X2861500Y445002D02*
D03*
X2988500D02*
D03*
X2861500Y855004D02*
D03*
X2988500D02*
D03*
X3298000Y445002D02*
D03*
X3424999D02*
D03*
X3298000Y854999D02*
D03*
X3424999D02*
D03*
D139*
X3613925Y3790162D02*
D03*
X3563922D02*
D03*
X3513925D02*
D03*
X3463922D02*
D03*
X3413925D02*
D03*
X3363923D02*
D03*
X3313925D02*
D03*
X3263923D02*
D03*
X3213925D02*
D03*
X3163923D02*
D03*
X3113926D02*
D03*
X3063923D02*
D03*
X3614636Y4469840D02*
D03*
X3563922D02*
D03*
X3513925D02*
D03*
X3463922D02*
D03*
X3413925D02*
D03*
X3363923D02*
D03*
X3313925D02*
D03*
X3263923D02*
D03*
X3213925D02*
D03*
X3163923D02*
D03*
X3113926D02*
D03*
X3063923D02*
D03*
D140*
X3679883Y4255159D02*
D03*
X3000124Y4405162D02*
D03*
Y4355159D02*
D03*
Y4305162D02*
D03*
Y4255159D02*
D03*
Y4205162D02*
D03*
Y4155160D02*
D03*
Y4105162D02*
D03*
Y4055160D02*
D03*
Y4005162D02*
D03*
Y3955160D02*
D03*
Y3905163D02*
D03*
Y3855160D02*
D03*
X3679883Y4405162D02*
D03*
Y4355159D02*
D03*
Y4305162D02*
D03*
Y4205162D02*
D03*
Y4155160D02*
D03*
Y4105162D02*
D03*
Y4055160D02*
D03*
Y4005162D02*
D03*
Y3955160D02*
D03*
Y3855160D02*
D03*
Y3905163D02*
D03*
D141*
X3340001Y4130003D02*
D03*
D142*
X10074999Y2730001D02*
D03*
X10025002D02*
D03*
X9974999D02*
D03*
X9925002D02*
D03*
X9874999D02*
D03*
Y3170000D02*
D03*
X9925002D02*
D03*
X9974999D02*
D03*
X10025002D02*
D03*
X10074999D02*
D03*
X10125001Y5270001D02*
D03*
X10074999D02*
D03*
X10025002D02*
D03*
X9974999D02*
D03*
X9925002D02*
D03*
Y4830002D02*
D03*
X9974999D02*
D03*
X10025002D02*
D03*
X10074999D02*
D03*
X10125001D02*
D03*
D143*
X8842499Y2605003D02*
D03*
X8907498D02*
D03*
X8972497D02*
D03*
X9037495D02*
D03*
X9102499D02*
D03*
X9167498D02*
D03*
X9232496D02*
D03*
X9297500D02*
D03*
X9362498D02*
D03*
X9427497D02*
D03*
X9492496D02*
D03*
X9557499D02*
D03*
X8842499Y3294999D02*
D03*
X8907498D02*
D03*
X8972497D02*
D03*
X9037495D02*
D03*
X9102499D02*
D03*
X9167498D02*
D03*
X9232496D02*
D03*
X9297500D02*
D03*
X9362498D02*
D03*
X9427497D02*
D03*
X9492496D02*
D03*
X9557499D02*
D03*
X10469999Y2605003D02*
D03*
X10534998D02*
D03*
X10600002D02*
D03*
X10665000D02*
D03*
X10729999D02*
D03*
X10794997D02*
D03*
X10860001D02*
D03*
X10925000D02*
D03*
X10989998D02*
D03*
X11054997D02*
D03*
X11120001D02*
D03*
X11184999D02*
D03*
X10469999Y3294999D02*
D03*
X10534998D02*
D03*
X10600002D02*
D03*
X10665000D02*
D03*
X10729999D02*
D03*
X10794997D02*
D03*
X10860001D02*
D03*
X10925000D02*
D03*
X10989998D02*
D03*
X11054997D02*
D03*
X11120001D02*
D03*
X11184999D02*
D03*
Y5395005D02*
D03*
X11120001D02*
D03*
X11055002D02*
D03*
X10989998D02*
D03*
X10925000D02*
D03*
X10860001D02*
D03*
X10795003D02*
D03*
X10729999D02*
D03*
X10665000D02*
D03*
X10600002D02*
D03*
X10534998D02*
D03*
X10469999D02*
D03*
X11184999Y4705004D02*
D03*
X11120001D02*
D03*
X11055002D02*
D03*
X10989998D02*
D03*
X10925000D02*
D03*
X10860001D02*
D03*
X10795003D02*
D03*
X10729999D02*
D03*
X10665000D02*
D03*
X10600002D02*
D03*
X10534998D02*
D03*
X10469999D02*
D03*
X9557499Y5395000D02*
D03*
X9492501D02*
D03*
X9427502D02*
D03*
X9362498D02*
D03*
X9297500D02*
D03*
X9232501D02*
D03*
X9167503D02*
D03*
X9102499D02*
D03*
X9037500D02*
D03*
X8972502D02*
D03*
X8907498D02*
D03*
X8842499D02*
D03*
X9557499Y4704998D02*
D03*
X9492501D02*
D03*
X9427502D02*
D03*
X9362498D02*
D03*
X9297500D02*
D03*
X9232501D02*
D03*
X9167503D02*
D03*
X9102499D02*
D03*
X9037500D02*
D03*
X8972502D02*
D03*
X8907498D02*
D03*
X8842499D02*
D03*
D144*
X4677900Y5928303D02*
D03*
X4772901D02*
D03*
X4867902D02*
D03*
Y5678301D02*
D03*
X4772901D02*
D03*
X4677900D02*
D03*
D145*
X5171383Y650000D02*
D03*
X5425383D02*
D03*
X1975000Y650000D02*
D03*
X2229000D02*
D03*
X2483000D02*
D03*
X1721000D02*
D03*
X1467000D02*
D03*
D146*
X1337506Y7077501D02*
D03*
Y7277500D02*
D03*
D147*
X651300Y6787500D02*
D03*
Y6533500D02*
D03*
D148*
X1324999Y1274998D02*
D03*
X1824998D02*
D03*
X2625001D02*
D03*
X2124997D02*
D03*
X2600002Y1749998D02*
D03*
X2099998D02*
D03*
X1324999D02*
D03*
X1824998D02*
D03*
D149*
X3957333Y2412500D02*
D03*
X3807336D02*
D03*
D150*
X10149340Y510001D02*
D03*
X9959343Y1649998D02*
D03*
X9578343D02*
D03*
X9768340Y510001D02*
D03*
X8816343Y1649998D02*
D03*
X9006340Y510001D02*
D03*
X8625340D02*
D03*
X8435343Y1649998D02*
D03*
X8054343D02*
D03*
X8244340Y510001D02*
D03*
X7863340D02*
D03*
X7673343Y1649998D02*
D03*
X10340343D02*
D03*
X10530340Y510001D02*
D03*
X7292343Y1649998D02*
D03*
X7482340Y510001D02*
D03*
X9387340D02*
D03*
X9197343Y1649998D02*
D03*
X10911340Y510001D02*
D03*
X10721343Y1649998D02*
D03*
X9186004Y7490002D02*
D03*
X9376006Y6349999D02*
D03*
X8995006D02*
D03*
X8805004Y7490002D02*
D03*
X8424004D02*
D03*
X8614006Y6349999D02*
D03*
X9948004Y7490002D02*
D03*
X10138006Y6349999D02*
D03*
X10519006D02*
D03*
X10329004Y7490002D02*
D03*
X10710004D02*
D03*
X10900006Y6349999D02*
D03*
X7662004Y7490002D02*
D03*
X7852006Y6349999D02*
D03*
X8233006D02*
D03*
X8043004Y7490002D02*
D03*
X9757006Y6349999D02*
D03*
X9567004Y7490002D02*
D03*
X7471006Y6349999D02*
D03*
X7281004Y7490002D02*
D03*
D151*
X11500000Y499998D02*
D03*
Y7499999D02*
D03*
X500002D02*
D03*
Y499998D02*
D03*
D152*
X3192501Y1428647D02*
D03*
X3842826Y6758071D02*
D03*
X3619620Y6902197D02*
D03*
X3773890Y7065814D02*
D03*
X4750005Y6160074D02*
D03*
X4697905Y6285000D02*
D03*
X4551477Y6803137D02*
D03*
X6272273Y3732475D02*
D03*
X6785151Y3139897D02*
D03*
X7280921Y1928863D02*
D03*
X7130257Y1869046D02*
D03*
X7245820Y6060180D02*
D03*
X7495502Y6070680D02*
D03*
X7753785Y3924043D02*
D03*
X6762375Y890460D02*
D03*
X6762418Y1020375D02*
D03*
X3122412Y3462496D02*
D03*
X3104380Y3629400D02*
D03*
X3023923Y3252440D02*
D03*
X1990001Y3401083D02*
D03*
X2634374Y3757204D02*
D03*
X1889063Y3646277D02*
D03*
X2269056Y3005820D02*
D03*
X1059299Y4324999D02*
D03*
X4050500Y4943760D02*
D03*
X5005333Y2765800D02*
D03*
X1081435Y3383303D02*
D03*
Y3782534D02*
D03*
X1159301Y3995512D02*
D03*
X1893940Y6711712D02*
D03*
X2051008D02*
D03*
X1974762Y6710330D02*
D03*
X382700Y5890000D02*
D03*
X542500D02*
D03*
X465917D02*
D03*
X2031822Y7242398D02*
D03*
X899998Y3530337D02*
D03*
X1619243Y3195457D02*
D03*
X1815000Y3190000D02*
D03*
X5189995Y2362860D02*
D03*
X5012502Y2360677D02*
D03*
X4890000Y1911763D02*
D03*
X5063960Y1838700D02*
D03*
X1159369Y3018320D02*
D03*
X4157691Y4608030D02*
D03*
X3478510Y4906162D02*
D03*
X4522142Y4030234D02*
D03*
X4735001Y4423211D02*
D03*
X4464520Y4340600D02*
D03*
X4261320Y4321705D02*
D03*
X4599140Y1312000D02*
D03*
X4929703Y3302501D02*
D03*
X3037077Y6724510D02*
D03*
X2166673Y6803137D02*
D03*
X2247549D02*
D03*
X6996056Y2259424D02*
D03*
X8878344Y1940300D02*
D03*
X7362660Y2420360D02*
D03*
X6758140Y1144157D02*
D03*
X6362728Y1062723D02*
D03*
X6390521Y1144157D02*
D03*
X6059640Y987876D02*
D03*
X6072340Y1117340D02*
D03*
X6369416Y634089D02*
D03*
X6358874Y764089D02*
D03*
X6767172Y1740370D02*
D03*
X6372060Y922878D02*
D03*
X7118820Y1052875D02*
D03*
X7202506Y1446573D02*
D03*
X6372060Y1422556D02*
D03*
X7271932Y1351087D02*
D03*
X7216215Y620941D02*
D03*
X5650700Y1755002D02*
D03*
X7396318Y1186277D02*
D03*
X7365200Y1940300D02*
D03*
X7397837Y1072524D02*
D03*
X7197560Y1186277D02*
D03*
X7060400Y830320D02*
D03*
X7058085Y1816088D02*
D03*
X7106831Y2349240D02*
D03*
X7509980Y1940300D02*
D03*
X7614120D02*
D03*
X8040804Y3431280D02*
D03*
X6785729Y760460D02*
D03*
X7046648Y692779D02*
D03*
X6754755Y502471D02*
D03*
X6785151Y632379D02*
D03*
X1067869Y6250057D02*
D03*
X1413611D02*
D03*
X2076829Y6070000D02*
D03*
X1888566Y6070993D02*
D03*
X2247549Y6611750D02*
D03*
X3201654Y6610097D02*
D03*
X2849963Y6724510D02*
D03*
X1978552Y6070993D02*
D03*
X2247549Y6522460D02*
D03*
X3006412Y4529575D02*
D03*
X3174747Y4702108D02*
D03*
X3191112Y4626549D02*
D03*
X3274829Y4807635D02*
D03*
X3175691Y5021320D02*
D03*
X3032524D02*
D03*
X2792498D02*
D03*
X2927820D02*
D03*
X2414188Y4311140D02*
D03*
X2324692Y4301626D02*
D03*
X2236038Y4286119D02*
D03*
X2146052Y4284534D02*
D03*
X2056052D02*
D03*
X1966052D02*
D03*
X1876067Y4282901D02*
D03*
X1787012Y4269888D02*
D03*
X1701431Y4242034D02*
D03*
X1622310Y4199140D02*
D03*
X1551084Y4144123D02*
D03*
X1489924Y4078097D02*
D03*
X1441466Y4002256D02*
D03*
X1406385Y3919375D02*
D03*
X1385038Y3831943D02*
D03*
X1379324Y3742124D02*
D03*
Y3652124D02*
D03*
Y3562124D02*
D03*
Y3472124D02*
D03*
X1552395Y3457722D02*
D03*
Y3547722D02*
D03*
Y3637722D02*
D03*
Y3727722D02*
D03*
X1558827Y3817492D02*
D03*
X1585873Y3903332D02*
D03*
X1633493Y3979702D02*
D03*
X1698665Y4041771D02*
D03*
X1777261Y4085621D02*
D03*
X1864307Y4108489D02*
D03*
X1954258Y4111464D02*
D03*
X2044258D02*
D03*
X2134258D02*
D03*
X2224258D02*
D03*
X2492119Y4096536D02*
D03*
X2131484Y3927494D02*
D03*
X3516647Y4126559D02*
D03*
X3339547D02*
D03*
X3163562D02*
D03*
X3516647Y3951688D02*
D03*
X3339547D02*
D03*
X3163562D02*
D03*
Y4310341D02*
D03*
X3339547D02*
D03*
X3516647D02*
D03*
X2884859Y4107947D02*
D03*
X477502Y3236186D02*
D03*
X409999Y3965667D02*
D03*
X352501Y3596520D02*
D03*
X659600Y3384522D02*
D03*
X477502Y2971175D02*
D03*
X365001Y2855353D02*
D03*
Y2638005D02*
D03*
X1825003Y7209266D02*
D03*
X3250400Y7571480D02*
D03*
X9235126Y6073391D02*
D03*
X725640Y4452360D02*
D03*
X6158251Y3134999D02*
D03*
X3914015Y955305D02*
D03*
X3304459Y7390455D02*
D03*
X2988500Y337560D02*
D03*
X9887420Y3932937D02*
D03*
X6042053Y7242500D02*
D03*
X5917849Y7307500D02*
D03*
X3293580Y7260455D02*
D03*
X2790215Y1500880D02*
D03*
X11287573Y4341900D02*
D03*
X8905178Y5577131D02*
D03*
X8424004Y6466580D02*
D03*
X7751280Y4439660D02*
D03*
X7297504Y2765800D02*
D03*
X7087935Y7370277D02*
D03*
X3096494Y1814340D02*
D03*
X3584403Y1775002D02*
D03*
X3181820Y1755002D02*
D03*
X3402797Y1437383D02*
D03*
X3263019Y532264D02*
D03*
X3311759Y755385D02*
D03*
X3424999Y753596D02*
D03*
X3461220Y537676D02*
D03*
X2861500Y337560D02*
D03*
X3914015Y545621D02*
D03*
X3898673Y808237D02*
D03*
X3907503Y1172830D02*
D03*
X3634069Y1053049D02*
D03*
X3957333Y1511252D02*
D03*
X3753989Y3507051D02*
D03*
X3355142Y3673201D02*
D03*
X2900002Y3392220D02*
D03*
X2754998Y3397022D02*
D03*
X2426102Y3992585D02*
D03*
X2558547Y3368511D02*
D03*
X2557595Y3252505D02*
D03*
X2304319Y3176003D02*
D03*
X3245142Y3163721D02*
D03*
X3193926Y3084563D02*
D03*
X6933139Y4804674D02*
D03*
X6808578Y4724998D02*
D03*
X6438100Y3342314D02*
D03*
X6289401Y4943760D02*
D03*
X8829993Y4881623D02*
D03*
X6913573Y6163414D02*
D03*
X8600001Y3179480D02*
D03*
X8245000Y3295004D02*
D03*
X7980425Y5674645D02*
D03*
X8858752Y5227341D02*
D03*
X6676860Y2259424D02*
D03*
X10174440Y3078220D02*
D03*
X10998320Y1186277D02*
D03*
X10911340Y750000D02*
D03*
X11021023Y1392129D02*
D03*
X11343628Y2095801D02*
D03*
X11249698Y1842525D02*
D03*
X11128869Y1942840D02*
D03*
X11260394Y2599780D02*
D03*
X11141400Y3140850D02*
D03*
X11119320Y2755640D02*
D03*
X9740549Y3096000D02*
D03*
X9887420Y2966460D02*
D03*
X9808853Y3339997D02*
D03*
X7131944Y6724740D02*
D03*
X5250000Y7026764D02*
D03*
X2413564Y6879058D02*
D03*
X2498560Y7083800D02*
D03*
X2510485Y6879058D02*
D03*
X2095000Y7467822D02*
D03*
X2340430Y6879058D02*
D03*
X2959248Y6944187D02*
D03*
X2980172Y7407503D02*
D03*
X3517501Y6732572D02*
D03*
X3628374Y6803137D02*
D03*
X10807510Y6849153D02*
D03*
X6333960Y848100D02*
D03*
X6891407Y2592503D02*
D03*
X10256840Y887506D02*
D03*
X7759341Y6826177D02*
D03*
X6052020Y3947840D02*
D03*
X6106059Y4151236D02*
D03*
X3859251Y4019790D02*
D03*
X3985321Y4115963D02*
D03*
X4455005Y3617149D02*
D03*
X3878770Y3784340D02*
D03*
X3631400Y4725242D02*
D03*
X4284180Y4531100D02*
D03*
X3785904Y4151236D02*
D03*
X3876441Y4291983D02*
D03*
X3355142Y3594820D02*
D03*
X3482867Y3588760D02*
D03*
X3111234Y2957498D02*
D03*
X3854840Y4555243D02*
D03*
X4029642Y4302028D02*
D03*
X3321112Y4646289D02*
D03*
X3430514Y4721284D02*
D03*
X3486163Y3673201D02*
D03*
X3587496Y4570562D02*
D03*
X3502468Y4669382D02*
D03*
X6887680Y2992500D02*
D03*
X8906166Y1072524D02*
D03*
X10050000D02*
D03*
X10447842D02*
D03*
X10825000D02*
D03*
X7583474Y1186277D02*
D03*
X7775494Y1191249D02*
D03*
X7775003Y1072524D02*
D03*
X7965058Y1186277D02*
D03*
X8146300D02*
D03*
X8523418D02*
D03*
X8906166D02*
D03*
X9298508D02*
D03*
X9674027D02*
D03*
X10444318D02*
D03*
X10050000D02*
D03*
X10825000D02*
D03*
X10635321D02*
D03*
X9108058D02*
D03*
X8716399D02*
D03*
X8340560D02*
D03*
X9483560D02*
D03*
X9860528D02*
D03*
X9960472Y507285D02*
D03*
X9583504Y495848D02*
D03*
X10351002Y505797D02*
D03*
X8440504Y495848D02*
D03*
X8816343Y505797D02*
D03*
X9208002D02*
D03*
X8065002D02*
D03*
X7670918D02*
D03*
X7297504Y495848D02*
D03*
X9119081Y1939843D02*
D03*
X10929036Y2441140D02*
D03*
X10637840Y1940300D02*
D03*
X10745002Y4000240D02*
D03*
X10999940Y3885160D02*
D03*
X11150003Y4105160D02*
D03*
X11025005D02*
D03*
X8519884Y6824720D02*
D03*
X10425001D02*
D03*
X10048178D02*
D03*
X9667178D02*
D03*
X9286178D02*
D03*
X8912504D02*
D03*
X8138884D02*
D03*
X7375004D02*
D03*
X9673054Y1072524D02*
D03*
X9299517D02*
D03*
X8521837D02*
D03*
X8149080D02*
D03*
X4210520Y7444480D02*
D03*
X3654883Y7535781D02*
D03*
X3800000Y7368414D02*
D03*
X3663083Y7369617D02*
D03*
X4099999Y7014080D02*
D03*
X4197820Y7062689D02*
D03*
X4323462D02*
D03*
X3676671Y7064999D02*
D03*
X3570440Y7130783D02*
D03*
X4859999Y677000D02*
D03*
X3807573Y1743564D02*
D03*
X4777176Y1630003D02*
D03*
X3879467Y4109537D02*
D03*
X3834165Y3943497D02*
D03*
X3747966Y4554382D02*
D03*
X5957554Y4742519D02*
D03*
X6697998Y4503160D02*
D03*
X6657306Y2900455D02*
D03*
X6858836Y3705600D02*
D03*
X6392934Y4498962D02*
D03*
X6524998Y4504437D02*
D03*
X6509499Y4854613D02*
D03*
X10125001Y5387080D02*
D03*
X8730321Y3426698D02*
D03*
X7637041Y6096845D02*
D03*
X10957501Y6201143D02*
D03*
X7204086Y6637043D02*
D03*
X6753060Y6911080D02*
D03*
Y6472719D02*
D03*
X7062940Y6667240D02*
D03*
X7724603Y5635121D02*
D03*
X9487168Y1848659D02*
D03*
X3908159Y677000D02*
D03*
X8878339Y6058560D02*
D03*
X4985220Y6543387D02*
D03*
X4984458Y7026764D02*
D03*
X9947479Y4325721D02*
D03*
X10076255D02*
D03*
X9919249Y3577721D02*
D03*
X10047963Y3587751D02*
D03*
X4099999Y6841047D02*
D03*
X2641249Y4525712D02*
D03*
X3255513Y4685000D02*
D03*
X3004506Y4722372D02*
D03*
X3474535Y3481110D02*
D03*
X3595840Y3361894D02*
D03*
X3665090Y3690360D02*
D03*
X2731095Y4294444D02*
D03*
X2786676Y4229443D02*
D03*
X2855867Y4180930D02*
D03*
X2927607Y4446200D02*
D03*
X2647666Y4346600D02*
D03*
X2718036Y4401764D02*
D03*
X5079200Y7424160D02*
D03*
X3775001Y3286500D02*
D03*
X5079200Y6425940D02*
D03*
X6117496Y3878320D02*
D03*
X5000460Y1058000D02*
D03*
X10469999Y5562340D02*
D03*
X1782280Y1500880D02*
D03*
X2152160Y1448236D02*
D03*
X9773120Y2542280D02*
D03*
X3291040Y6995002D02*
D03*
X2280120Y7551160D02*
D03*
X4840120Y5275000D02*
D03*
X3900640Y5067040D02*
D03*
X9925520Y5481060D02*
D03*
X4855680Y804920D02*
D03*
X6042053Y7142220D02*
D03*
X10600002Y5566038D02*
D03*
X8992822Y5549640D02*
D03*
X7771600Y5234568D02*
D03*
X11055820Y2372100D02*
D03*
X9488457Y2438140D02*
D03*
X6676860Y2379720D02*
D03*
X6002881Y1572879D02*
D03*
X7104428Y7177780D02*
D03*
X9557220Y2958840D02*
D03*
X10469999Y4856220D02*
D03*
X10763720Y1940300D02*
D03*
X10489400Y3927494D02*
D03*
X10400002Y6060180D02*
D03*
X10649999Y6483781D02*
D03*
X6758140Y7081260D02*
D03*
X10774998Y6314180D02*
D03*
X7492200Y5181340D02*
D03*
X6753558Y6306062D02*
D03*
X9364180Y1940300D02*
D03*
X7770828D02*
D03*
X9000000D02*
D03*
X8036547Y1942053D02*
D03*
X11129998Y2437104D02*
D03*
X7624280Y5244840D02*
D03*
X7870502Y5659017D02*
D03*
X6091497Y1703120D02*
D03*
X6072340Y6982200D02*
D03*
X6006300Y6851928D02*
D03*
X6407620Y6204960D02*
D03*
X6328590Y6348953D02*
D03*
X7358088Y3921500D02*
D03*
X7708100Y4051040D02*
D03*
X10649420Y4066280D02*
D03*
X9590423Y5042676D02*
D03*
X5160480Y5405002D02*
D03*
X1526812Y2647863D02*
D03*
X3499320Y1145961D02*
D03*
X9427497Y3029960D02*
D03*
X11055820D02*
D03*
X6220498Y6416618D02*
D03*
X6585420Y4333142D02*
D03*
X4832820Y5474999D02*
D03*
X7167080Y5646160D02*
D03*
X7584874Y4051040D02*
D03*
X10875002Y3995160D02*
D03*
X5950420Y6591929D02*
D03*
X6402540Y6508327D02*
D03*
X9295600Y4066280D02*
D03*
X7436096Y4003064D02*
D03*
X6758140Y6171940D02*
D03*
X4243540Y3487160D02*
D03*
X7751280Y5107680D02*
D03*
X7232500Y2923280D02*
D03*
X2932900Y3111240D02*
D03*
X2955760Y3187440D02*
D03*
X6392380Y7218420D02*
D03*
X3962504Y3460053D02*
D03*
X6887680Y3426698D02*
D03*
X5879300Y3068060D02*
D03*
X5856440Y7414000D02*
D03*
X7296620Y3062980D02*
D03*
X9610844Y1808220D02*
D03*
X7146760Y7005060D02*
D03*
X10433398Y5130540D02*
D03*
X7882501Y2457637D02*
D03*
X6317501Y2699760D02*
D03*
X9828258Y3809740D02*
D03*
X7751280Y3078220D02*
D03*
X6397460Y7002520D02*
D03*
X3613620Y1602480D02*
D03*
X6994360Y3914998D02*
D03*
X7174700Y4052838D02*
D03*
X6778460Y2415280D02*
D03*
X8842499Y3992620D02*
D03*
X7100186Y6133601D02*
D03*
X9600400Y6060180D02*
D03*
X10534998Y4264400D02*
D03*
X11119320Y3443980D02*
D03*
X10534998Y4183120D02*
D03*
X9493720Y2755640D02*
D03*
X10126180Y5041640D02*
D03*
X11226000Y5244840D02*
D03*
X6392380Y6616354D02*
D03*
X9229560Y3924040D02*
D03*
X11275002Y6494520D02*
D03*
X4852505Y6236075D02*
D03*
X3771100Y6598660D02*
D03*
X9125003Y4066280D02*
D03*
X6227280Y2992500D02*
D03*
X9374340Y3924040D02*
D03*
X2966316Y7130003D02*
D03*
X2623020Y7449997D02*
D03*
X2978620Y7270002D02*
D03*
X9498800Y4066280D02*
D03*
X9000005Y4067235D02*
D03*
X10601160Y5158480D02*
D03*
X10649999Y5709660D02*
D03*
X10664660Y5245180D02*
D03*
X10400500Y5707120D02*
D03*
X11030420Y6146540D02*
D03*
X9501340Y6583420D02*
D03*
X10598620Y3921500D02*
D03*
X10890004Y1765040D02*
D03*
X4999998Y5663940D02*
D03*
X9922980Y5056880D02*
D03*
X9657499Y4975000D02*
D03*
X4606760Y7251440D02*
D03*
X9000000Y6060180D02*
D03*
X7875740Y1940300D02*
D03*
X9557499Y3143224D02*
D03*
X5970740Y1427220D02*
D03*
X10601160Y4856220D02*
D03*
X8973020D02*
D03*
X6512110Y4149998D02*
D03*
X8277060Y5969273D02*
D03*
X10520002Y1942840D02*
D03*
X9707080Y2627497D02*
D03*
X6323800Y4330440D02*
D03*
X570700Y4101840D02*
D03*
X2511524Y4762504D02*
D03*
X1055840Y4570404D02*
D03*
X5071580Y1285000D02*
D03*
Y1445000D02*
D03*
X6372060Y6916160D02*
D03*
X6072340Y1378960D02*
D03*
X4929340Y1160002D02*
D03*
X11274260Y5709660D02*
D03*
X11120001Y5544560D02*
D03*
X10000003Y4189998D02*
D03*
X6372060Y1247876D02*
D03*
X6377145Y1333199D02*
D03*
X7233120Y5145780D02*
D03*
X7120506Y5712200D02*
D03*
X3270720Y1145280D02*
D03*
X9186380Y6616064D02*
D03*
X6396495Y6831624D02*
D03*
X593560Y4672502D02*
D03*
X6072340Y6706625D02*
D03*
X723999Y4200001D02*
D03*
X8582398Y5969278D02*
D03*
X8842499Y4553960D02*
D03*
X8900005Y3924040D02*
D03*
X4710900Y7251440D02*
D03*
X4899998D02*
D03*
M02*
