G04*
G04 #@! TF.GenerationSoftware,Altium Limited,Altium Designer,25.4.2 (15)*
G04*
G04 Layer_Color=8421504*
%FSLAX45Y45*%
%MOMM*%
G71*
G04*
G04 #@! TF.SameCoordinates,D7BB9B6E-8E0F-4C10-A838-266EBE977BF3*
G04*
G04*
G04 #@! TF.FilePolarity,Positive*
G04*
G01*
G75*
%ADD21R,1.44998X1.44998*%
%ADD22R,1.44998X1.45004*%
%ADD23R,1.70000X0.65000*%
%ADD24R,0.80000X1.00000*%
%ADD25R,1.10000X1.00000*%
%ADD26R,1.00000X2.10000*%
%ADD27R,1.00000X0.80000*%
%ADD28R,2.10000X1.00000*%
%ADD29R,1.00000X1.10000*%
%ADD30R,3.20000X1.00000*%
%ADD31R,0.65000X0.70000*%
%ADD32R,0.90000X1.00000*%
%ADD33R,0.90000X0.80000*%
%ADD34R,1.00000X0.90000*%
%ADD35R,0.70000X0.55000*%
%ADD36R,0.80000X0.90000*%
%ADD37R,1.52500X0.65000*%
%ADD38R,2.00000X4.10000*%
%ADD39R,2.40000X0.76000*%
%ADD40R,0.83000X0.62500*%
%ADD41R,2.20000X1.05000*%
%ADD42R,1.05000X1.00000*%
%ADD43R,0.90000X0.80000*%
%ADD44R,0.55000X0.70000*%
%ADD45R,0.70000X0.70000*%
%ADD46R,0.80000X0.65000*%
%ADD47R,1.13000X0.76000*%
%ADD48R,0.62500X0.85000*%
%ADD49R,0.65000X0.80000*%
%ADD50R,0.70000X1.20000*%
%ADD51O,0.35000X0.25000*%
%ADD52R,0.70000X0.65000*%
%ADD53R,0.70000X0.70000*%
%ADD54R,1.10000X0.95000*%
%ADD55R,2.70000X1.30000*%
%ADD56R,2.50000X1.70000*%
%ADD57R,0.90000X0.95000*%
%ADD58R,0.30000X0.85000*%
%ADD59R,0.80000X0.40000*%
%ADD60R,0.60000X1.15000*%
%ADD61R,2.10000X1.30000*%
%ADD62R,0.30000X0.80000*%
%ADD63R,0.85000X0.95000*%
%ADD64R,1.35000X1.00000*%
%ADD65R,3.50000X1.60000*%
%ADD66R,5.40000X2.90000*%
%ADD67R,0.65000X1.52500*%
%ADD68R,1.60000X2.80000*%
%ADD69R,1.46200X0.35480*%
%ADD70R,0.85000X2.20000*%
%ADD71R,0.95000X0.85000*%
%ADD72R,1.00000X0.60000*%
%ADD73R,0.60000X1.00000*%
%ADD74R,0.53000X1.33000*%
%ADD75R,0.97200X0.80200*%
%ADD76R,1.20000X0.40000*%
%ADD77R,1.40000X1.30000*%
%ADD78R,1.30000X1.40000*%
%ADD79R,1.70000X2.50000*%
%ADD80O,0.76000X1.27000*%
G04:AMPARAMS|DCode=81|XSize=0.6mm|YSize=0.3mm|CornerRadius=0mm|HoleSize=0mm|Usage=FLASHONLY|Rotation=270.000|XOffset=0mm|YOffset=0mm|HoleType=Round|Shape=Octagon|*
%AMOCTAGOND81*
4,1,8,-0.07500,-0.30000,0.07500,-0.30000,0.15000,-0.22500,0.15000,0.22500,0.07500,0.30000,-0.07500,0.30000,-0.15000,0.22500,-0.15000,-0.22500,-0.07500,-0.30000,0.0*
%
%ADD81OCTAGOND81*%

G04:AMPARAMS|DCode=82|XSize=0.6mm|YSize=0.3mm|CornerRadius=0mm|HoleSize=0mm|Usage=FLASHONLY|Rotation=0.000|XOffset=0mm|YOffset=0mm|HoleType=Round|Shape=Octagon|*
%AMOCTAGOND82*
4,1,8,0.30000,-0.07500,0.30000,0.07500,0.22500,0.15000,-0.22500,0.15000,-0.30000,0.07500,-0.30000,-0.07500,-0.22500,-0.15000,0.22500,-0.15000,0.30000,-0.07500,0.0*
%
%ADD82OCTAGOND82*%

%ADD83R,0.30000X1.40000*%
%ADD84O,0.35000X2.10000*%
%ADD85R,0.60000X1.20000*%
D21*
X3518880Y3948478D02*
D03*
Y4128818D02*
D03*
X3341502Y3948376D02*
D03*
Y4128716D02*
D03*
X3163702D02*
D03*
Y3948376D02*
D03*
D22*
X3518878Y4306831D02*
D03*
X3341505Y4306735D02*
D03*
X3163705D02*
D03*
D23*
X4725002Y550000D02*
D03*
Y677000D02*
D03*
Y804000D02*
D03*
Y931000D02*
D03*
Y1058000D02*
D03*
Y1185000D02*
D03*
Y1312000D02*
D03*
Y1439000D02*
D03*
X3770003D02*
D03*
Y1312000D02*
D03*
Y1185000D02*
D03*
Y1058000D02*
D03*
Y931000D02*
D03*
Y804000D02*
D03*
Y677000D02*
D03*
Y550000D02*
D03*
D24*
X1665000Y2060000D02*
D03*
X4430000D02*
D03*
Y5005000D02*
D03*
X1605000D02*
D03*
D25*
X1370000Y2060000D02*
D03*
X4725000Y5005000D02*
D03*
X3520001Y1345000D02*
D03*
X3300001Y1249999D02*
D03*
Y1440001D02*
D03*
X3509998Y1675002D02*
D03*
X3289999Y1580001D02*
D03*
Y1769998D02*
D03*
D26*
X1265000Y2115000D02*
D03*
X4830000Y4950000D02*
D03*
D27*
X1265000Y2460000D02*
D03*
X4830000D02*
D03*
Y4605000D02*
D03*
X1205000D02*
D03*
D28*
X4775000Y2060000D02*
D03*
X1260000Y5005000D02*
D03*
D29*
X4830000Y2165000D02*
D03*
X1205000Y4900000D02*
D03*
D30*
X629999Y2150002D02*
D03*
Y1749998D02*
D03*
Y1349999D02*
D03*
D31*
X2660002Y3880840D02*
D03*
X2525001D02*
D03*
X920001Y3250000D02*
D03*
X1055002D02*
D03*
X1716286Y3784340D02*
D03*
X1851287D02*
D03*
X2066083Y3788498D02*
D03*
X2201079D02*
D03*
D32*
X2199998Y3649999D02*
D03*
X2064997D02*
D03*
X1688559Y3024997D02*
D03*
X1553563D02*
D03*
X1840004Y3025002D02*
D03*
X1975000D02*
D03*
X9657499Y4700000D02*
D03*
X9792500D02*
D03*
X8735002Y3295004D02*
D03*
X8600001D02*
D03*
X845235Y3387132D02*
D03*
X980230D02*
D03*
X1992312Y3512502D02*
D03*
X1857316D02*
D03*
X2472499Y4205162D02*
D03*
X2607495D02*
D03*
X2525001Y3993001D02*
D03*
X2659997D02*
D03*
X3246123Y3259363D02*
D03*
X3381118D02*
D03*
X4090408Y4201951D02*
D03*
X3955407D02*
D03*
X4084638Y4013463D02*
D03*
X3949636D02*
D03*
X4084638Y3888460D02*
D03*
X3949636D02*
D03*
X4299999Y3706911D02*
D03*
X4435000D02*
D03*
X4299999Y4013458D02*
D03*
X4435000D02*
D03*
X4850000Y6549999D02*
D03*
X4714999D02*
D03*
X3517501Y6850003D02*
D03*
X3382500D02*
D03*
X3524999Y7524998D02*
D03*
X3389998D02*
D03*
X10367500Y3295004D02*
D03*
X10232499D02*
D03*
X6347498Y3130000D02*
D03*
X6482499D02*
D03*
X6517500Y3732499D02*
D03*
X6382499D02*
D03*
X6390002Y4587996D02*
D03*
X6524998D02*
D03*
X605295Y3597180D02*
D03*
X470299D02*
D03*
X11290003Y4700000D02*
D03*
X11424999D02*
D03*
D33*
X1979648Y3174999D02*
D03*
X2149645D02*
D03*
X1985002Y3299322D02*
D03*
X1815000D02*
D03*
X6667934Y6706625D02*
D03*
X6497932D02*
D03*
X6667934Y7331623D02*
D03*
X6497937D02*
D03*
X6667934Y7206624D02*
D03*
X6497932D02*
D03*
X6667929Y7081621D02*
D03*
X6497932D02*
D03*
X6667929Y6956622D02*
D03*
X6497932D02*
D03*
X6667934Y6831624D02*
D03*
X6497932D02*
D03*
X6667934Y6581622D02*
D03*
X6497932D02*
D03*
X6667934Y6456623D02*
D03*
X6497932D02*
D03*
X1159301Y3864792D02*
D03*
X989299D02*
D03*
X1536062Y2850001D02*
D03*
X1706065D02*
D03*
X2867510Y4861193D02*
D03*
X2697508D02*
D03*
X2867500Y4735001D02*
D03*
X2697498D02*
D03*
X4867902Y6924999D02*
D03*
X4697905D02*
D03*
X6859999Y3787500D02*
D03*
X6690002D02*
D03*
X6684998Y3907499D02*
D03*
X6515001D02*
D03*
X6859999Y4232498D02*
D03*
X6690002D02*
D03*
X5389999Y1755002D02*
D03*
X5560002D02*
D03*
X5189995Y2270863D02*
D03*
X5019998D02*
D03*
X6497932Y6172011D02*
D03*
X6667934D02*
D03*
X6497932Y6306062D02*
D03*
X6667934D02*
D03*
X6494650Y516625D02*
D03*
X6664648D02*
D03*
X6498765Y644499D02*
D03*
X6668767D02*
D03*
X6497932Y1269156D02*
D03*
X6667929D02*
D03*
X6497932Y1644156D02*
D03*
X6667934D02*
D03*
X6497932Y1519158D02*
D03*
X6667934D02*
D03*
X6497932Y1394154D02*
D03*
X6667934D02*
D03*
X6497932Y1144157D02*
D03*
X6667934D02*
D03*
X6497937Y894155D02*
D03*
X6667934D02*
D03*
X6497932Y769157D02*
D03*
X6667934D02*
D03*
X6497937Y1019159D02*
D03*
X6667934D02*
D03*
X6515001Y4049999D02*
D03*
X6684998D02*
D03*
D34*
X2150001Y2875000D02*
D03*
Y3009996D02*
D03*
X1162500Y3114999D02*
D03*
Y3250000D02*
D03*
X812498Y3107501D02*
D03*
Y3242502D02*
D03*
X1716286Y3656529D02*
D03*
Y3521533D02*
D03*
X1950001Y3917497D02*
D03*
Y3782501D02*
D03*
X2325002Y3927494D02*
D03*
Y3792498D02*
D03*
Y4063003D02*
D03*
Y4197999D02*
D03*
X2754998Y3500002D02*
D03*
Y3634998D02*
D03*
X2900002Y3497508D02*
D03*
Y3632504D02*
D03*
X3026880Y3331497D02*
D03*
Y3466493D02*
D03*
X3381118Y3497320D02*
D03*
Y3362324D02*
D03*
X4017140Y4387178D02*
D03*
Y4522174D02*
D03*
X4142143D02*
D03*
Y4387173D02*
D03*
X3177380Y4807630D02*
D03*
Y4942631D02*
D03*
X3032519Y4942636D02*
D03*
Y4807635D02*
D03*
X4999998Y6274998D02*
D03*
Y6139997D02*
D03*
Y5892499D02*
D03*
Y5757498D02*
D03*
X3675002Y7150002D02*
D03*
Y7285003D02*
D03*
X3800000Y7150002D02*
D03*
Y7285003D02*
D03*
X4199999Y7164999D02*
D03*
Y7300000D02*
D03*
X4324998Y7164999D02*
D03*
Y7300000D02*
D03*
X2650000Y7187782D02*
D03*
Y7052781D02*
D03*
X2199998Y7315001D02*
D03*
Y7450002D02*
D03*
X6657500Y3134999D02*
D03*
Y2999998D02*
D03*
X6699999Y4724998D02*
D03*
Y4589997D02*
D03*
X6859999Y4049999D02*
D03*
Y3914998D02*
D03*
X9745637Y3011672D02*
D03*
Y2876676D02*
D03*
X9925002Y3339997D02*
D03*
Y3474998D02*
D03*
X10075004Y4592502D02*
D03*
Y4457501D02*
D03*
D35*
X2150001Y3299322D02*
D03*
X2149996Y3389324D02*
D03*
X1423337Y3150981D02*
D03*
X2747500Y3782501D02*
D03*
X3200001Y6700001D02*
D03*
D36*
X9950000Y4610002D02*
D03*
Y4440000D02*
D03*
X4599998Y6115003D02*
D03*
Y6285000D02*
D03*
X4000000Y6744860D02*
D03*
Y6914857D02*
D03*
X10050000Y3330005D02*
D03*
Y3500002D02*
D03*
X5012502Y2117496D02*
D03*
Y1947499D02*
D03*
X5550004Y2109997D02*
D03*
Y1940000D02*
D03*
X11150003Y4155718D02*
D03*
Y4325716D02*
D03*
X11025005D02*
D03*
Y4155718D02*
D03*
X10770004Y4155723D02*
D03*
Y4325721D02*
D03*
X10650004Y4155718D02*
D03*
Y4325721D02*
D03*
X9500004Y4155723D02*
D03*
Y4325721D02*
D03*
X9375005Y4155723D02*
D03*
Y4325721D02*
D03*
X9125003D02*
D03*
Y4155718D02*
D03*
X9000005Y4325721D02*
D03*
Y4155718D02*
D03*
X9025004Y3835003D02*
D03*
Y3665001D02*
D03*
X9249997D02*
D03*
Y3835003D02*
D03*
X9375000Y3665001D02*
D03*
Y3835003D02*
D03*
X10600007Y3665006D02*
D03*
Y3835003D02*
D03*
X11000006Y3834998D02*
D03*
Y3665001D02*
D03*
X11275002Y5799281D02*
D03*
Y5969278D02*
D03*
X11149998Y5799281D02*
D03*
Y5969278D02*
D03*
X11029998Y5799276D02*
D03*
Y5969273D02*
D03*
X10900001Y5969278D02*
D03*
Y5799281D02*
D03*
X10774998Y5799276D02*
D03*
Y5969273D02*
D03*
X10649999Y5799281D02*
D03*
Y5969278D02*
D03*
X10520002Y5799276D02*
D03*
Y5969278D02*
D03*
X10400002Y5799281D02*
D03*
Y5969278D02*
D03*
X9600842Y5969273D02*
D03*
Y5799276D02*
D03*
X9475843Y5969273D02*
D03*
Y5799276D02*
D03*
X9353339Y5969273D02*
D03*
Y5799276D02*
D03*
X9116738Y5969273D02*
D03*
Y5799276D02*
D03*
X9235712Y5969273D02*
D03*
Y5799276D02*
D03*
X9000000Y5969273D02*
D03*
Y5799276D02*
D03*
X8753340Y5969273D02*
D03*
Y5799276D02*
D03*
X8878339Y5969273D02*
D03*
Y5799276D02*
D03*
X9610844Y2031013D02*
D03*
Y2201011D02*
D03*
X9485846Y2031013D02*
D03*
Y2201011D02*
D03*
X9363342Y2031008D02*
D03*
Y2201011D02*
D03*
X9238343Y2031013D02*
D03*
Y2201011D02*
D03*
X9120005Y2031013D02*
D03*
Y2201011D02*
D03*
X9000000Y2031013D02*
D03*
Y2201011D02*
D03*
X8878344Y2031013D02*
D03*
Y2201011D02*
D03*
X8753340Y2031013D02*
D03*
Y2201011D02*
D03*
X11129998Y2201006D02*
D03*
Y2031008D02*
D03*
X11009998Y2201011D02*
D03*
Y2031013D02*
D03*
X10890004Y2201006D02*
D03*
Y2031008D02*
D03*
X10765000Y2201006D02*
D03*
Y2031008D02*
D03*
X10640002Y2201006D02*
D03*
Y2031008D02*
D03*
X10520002Y2201006D02*
D03*
Y2031008D02*
D03*
X10400002Y2201006D02*
D03*
Y2031008D02*
D03*
X8900005Y3834998D02*
D03*
Y3665001D02*
D03*
X10469994Y3835003D02*
D03*
Y3665006D02*
D03*
X10875002Y3665001D02*
D03*
Y3834998D02*
D03*
X11255002Y2031008D02*
D03*
Y2201006D02*
D03*
D37*
X10250000Y4189998D02*
D03*
Y4062998D02*
D03*
Y3935998D02*
D03*
Y3808998D02*
D03*
X9707603D02*
D03*
Y3935998D02*
D03*
Y4062998D02*
D03*
Y4189998D02*
D03*
D38*
X1246371Y6250057D02*
D03*
Y5380056D02*
D03*
D39*
X409999Y4070999D02*
D03*
Y4197999D02*
D03*
Y4324999D02*
D03*
Y4451999D02*
D03*
Y4578999D02*
D03*
X889998Y4070999D02*
D03*
Y4197999D02*
D03*
Y4324999D02*
D03*
Y4451999D02*
D03*
Y4578999D02*
D03*
D40*
X1159369Y4292181D02*
D03*
Y4069682D02*
D03*
D41*
X477502Y3384996D02*
D03*
Y3090000D02*
D03*
D42*
X630004Y3237498D02*
D03*
D43*
X1099998Y3513875D02*
D03*
Y3703877D02*
D03*
X899998Y3608876D02*
D03*
D44*
X1324999Y3249324D02*
D03*
X1990001Y2850001D02*
D03*
X1899999D02*
D03*
X2845844Y3880840D02*
D03*
X3023923Y3050001D02*
D03*
X3113926Y3050006D02*
D03*
Y3163721D02*
D03*
X3023923Y3163716D02*
D03*
X4840003Y7575000D02*
D03*
X4750001D02*
D03*
X3101663Y6798339D02*
D03*
X5290005Y1755002D02*
D03*
X5200002D02*
D03*
D45*
X1423337Y3249324D02*
D03*
X3200001Y6798339D02*
D03*
D46*
X1044403Y2890877D02*
D03*
Y2755876D02*
D03*
D47*
X649999Y2750001D02*
D03*
Y2575005D02*
D03*
D48*
X932498Y2750001D02*
D03*
X800001D02*
D03*
D49*
X365001D02*
D03*
X500002D02*
D03*
D50*
X1621061Y3299322D02*
D03*
D51*
X1548559Y3249324D02*
D03*
Y3299322D02*
D03*
Y3349324D02*
D03*
X1693563D02*
D03*
Y3299322D02*
D03*
Y3249324D02*
D03*
D52*
X2525001Y3647500D02*
D03*
Y3782501D02*
D03*
X2772504Y3993001D02*
D03*
Y4128002D02*
D03*
D53*
X2747500Y3880840D02*
D03*
D54*
X4442142Y3863461D02*
D03*
X4292140D02*
D03*
D55*
X1989973Y5968579D02*
D03*
Y5688579D02*
D03*
D56*
X2696996Y5614321D02*
D03*
X2296996D02*
D03*
D57*
X4985001Y5275000D02*
D03*
X4670001D02*
D03*
X4985001Y5474999D02*
D03*
X4670001D02*
D03*
D58*
X4702503Y6067500D02*
D03*
X4752505D02*
D03*
X4802502D02*
D03*
X4852505D02*
D03*
Y6382496D02*
D03*
X4802502D02*
D03*
X4752505D02*
D03*
X4702503D02*
D03*
D59*
X4877504Y6675002D02*
D03*
Y6740001D02*
D03*
Y6804999D02*
D03*
X4662503D02*
D03*
Y6675002D02*
D03*
D60*
X4710001Y7150002D02*
D03*
X4805002D02*
D03*
X4899998D02*
D03*
Y7399999D02*
D03*
X4710001D02*
D03*
D61*
X4000000Y7224999D02*
D03*
D62*
X3900000Y7350002D02*
D03*
X3950002D02*
D03*
X4000000D02*
D03*
X4050002D02*
D03*
X4099999D02*
D03*
Y7100000D02*
D03*
X4050002D02*
D03*
X4000000D02*
D03*
X3950002D02*
D03*
X3900000D02*
D03*
D63*
X2367501Y6977501D02*
D03*
X2497503D02*
D03*
X2367501Y7177501D02*
D03*
X2497503D02*
D03*
X2367501Y7449997D02*
D03*
X2497503D02*
D03*
X6467000Y2992500D02*
D03*
X6336998D02*
D03*
X6509499Y4730500D02*
D03*
X6379502D02*
D03*
D64*
X2200003Y6977501D02*
D03*
Y7177501D02*
D03*
D65*
X1978552Y6190519D02*
D03*
Y6580520D02*
D03*
D66*
X3442315Y6327677D02*
D03*
Y5337682D02*
D03*
D67*
X2624000Y5854999D02*
D03*
X2497000D02*
D03*
X2370000D02*
D03*
X2243000D02*
D03*
Y6397395D02*
D03*
X2370000D02*
D03*
X2497000D02*
D03*
X2624000D02*
D03*
D68*
X1825003Y7407503D02*
D03*
Y6977501D02*
D03*
D69*
X2849999Y7000000D02*
D03*
Y7064999D02*
D03*
Y7130003D02*
D03*
Y7195001D02*
D03*
Y7260000D02*
D03*
Y7325003D02*
D03*
Y7390002D02*
D03*
X3434199D02*
D03*
Y7325003D02*
D03*
Y7260000D02*
D03*
Y7195001D02*
D03*
Y7130003D02*
D03*
Y7064999D02*
D03*
Y7000000D02*
D03*
D70*
X3897500Y7524998D02*
D03*
X4102499D02*
D03*
D71*
X6795000Y3296695D02*
D03*
Y3426698D02*
D03*
D72*
X6344999Y3437498D02*
D03*
Y3342502D02*
D03*
Y3247501D02*
D03*
X6615001D02*
D03*
Y3437498D02*
D03*
X6387498Y5044998D02*
D03*
Y4950002D02*
D03*
Y4855001D02*
D03*
X6657500D02*
D03*
Y5044998D02*
D03*
D73*
X6195002Y3880001D02*
D03*
X6289998D02*
D03*
X6384999D02*
D03*
Y4149998D02*
D03*
X6195002D02*
D03*
D74*
X5195999Y1274998D02*
D03*
X5322999D02*
D03*
X5449999D02*
D03*
Y1580001D02*
D03*
X5322999D02*
D03*
X5195999D02*
D03*
D75*
X4886505Y1820000D02*
D03*
Y1630003D02*
D03*
X5063508Y1725004D02*
D03*
D76*
X5405001Y1979995D02*
D03*
Y2044999D02*
D03*
Y2109997D02*
D03*
X5214998D02*
D03*
Y2044999D02*
D03*
Y1979995D02*
D03*
D77*
X4954999Y1285000D02*
D03*
Y1445000D02*
D03*
D78*
X3957500Y1625000D02*
D03*
X3797501D02*
D03*
D79*
X2949999Y1349999D02*
D03*
Y1749998D02*
D03*
D80*
X2861500Y445002D02*
D03*
X2988500D02*
D03*
X2861500Y855004D02*
D03*
X2988500D02*
D03*
X3298000Y445002D02*
D03*
X3424999D02*
D03*
X3298000Y854999D02*
D03*
X3424999D02*
D03*
D81*
X3613925Y3790162D02*
D03*
X3563922D02*
D03*
X3513925D02*
D03*
X3463922D02*
D03*
X3413925D02*
D03*
X3363923D02*
D03*
X3313925D02*
D03*
X3263923D02*
D03*
X3213925D02*
D03*
X3163923D02*
D03*
X3113926D02*
D03*
X3063923D02*
D03*
X3614636Y4469840D02*
D03*
X3563922D02*
D03*
X3513925D02*
D03*
X3463922D02*
D03*
X3413925D02*
D03*
X3363923D02*
D03*
X3313925D02*
D03*
X3263923D02*
D03*
X3213925D02*
D03*
X3163923D02*
D03*
X3113926D02*
D03*
X3063923D02*
D03*
D82*
X3679883Y4255159D02*
D03*
X3000124Y4405162D02*
D03*
Y4355159D02*
D03*
Y4305162D02*
D03*
Y4255159D02*
D03*
Y4205162D02*
D03*
Y4155160D02*
D03*
Y4105162D02*
D03*
Y4055160D02*
D03*
Y4005162D02*
D03*
Y3955160D02*
D03*
Y3905163D02*
D03*
Y3855160D02*
D03*
X3679883Y4405162D02*
D03*
Y4355159D02*
D03*
Y4305162D02*
D03*
Y4205162D02*
D03*
Y4155160D02*
D03*
Y4105162D02*
D03*
Y4055160D02*
D03*
Y4005162D02*
D03*
Y3955160D02*
D03*
Y3855160D02*
D03*
Y3905163D02*
D03*
D83*
X10074999Y2730001D02*
D03*
X10025002D02*
D03*
X9974999D02*
D03*
X9925002D02*
D03*
X9874999D02*
D03*
Y3170000D02*
D03*
X9925002D02*
D03*
X9974999D02*
D03*
X10025002D02*
D03*
X10074999D02*
D03*
X10125001Y5270001D02*
D03*
X10074999D02*
D03*
X10025002D02*
D03*
X9974999D02*
D03*
X9925002D02*
D03*
Y4830002D02*
D03*
X9974999D02*
D03*
X10025002D02*
D03*
X10074999D02*
D03*
X10125001D02*
D03*
D84*
X8842499Y2605003D02*
D03*
X8907498D02*
D03*
X8972497D02*
D03*
X9037495D02*
D03*
X9102499D02*
D03*
X9167498D02*
D03*
X9232496D02*
D03*
X9297500D02*
D03*
X9362498D02*
D03*
X9427497D02*
D03*
X9492496D02*
D03*
X9557499D02*
D03*
X8842499Y3294999D02*
D03*
X8907498D02*
D03*
X8972497D02*
D03*
X9037495D02*
D03*
X9102499D02*
D03*
X9167498D02*
D03*
X9232496D02*
D03*
X9297500D02*
D03*
X9362498D02*
D03*
X9427497D02*
D03*
X9492496D02*
D03*
X9557499D02*
D03*
X10469999Y2605003D02*
D03*
X10534998D02*
D03*
X10600002D02*
D03*
X10665000D02*
D03*
X10729999D02*
D03*
X10794997D02*
D03*
X10860001D02*
D03*
X10925000D02*
D03*
X10989998D02*
D03*
X11054997D02*
D03*
X11120001D02*
D03*
X11184999D02*
D03*
X10469999Y3294999D02*
D03*
X10534998D02*
D03*
X10600002D02*
D03*
X10665000D02*
D03*
X10729999D02*
D03*
X10794997D02*
D03*
X10860001D02*
D03*
X10925000D02*
D03*
X10989998D02*
D03*
X11054997D02*
D03*
X11120001D02*
D03*
X11184999D02*
D03*
Y5395005D02*
D03*
X11120001D02*
D03*
X11055002D02*
D03*
X10989998D02*
D03*
X10925000D02*
D03*
X10860001D02*
D03*
X10795003D02*
D03*
X10729999D02*
D03*
X10665000D02*
D03*
X10600002D02*
D03*
X10534998D02*
D03*
X10469999D02*
D03*
X11184999Y4705004D02*
D03*
X11120001D02*
D03*
X11055002D02*
D03*
X10989998D02*
D03*
X10925000D02*
D03*
X10860001D02*
D03*
X10795003D02*
D03*
X10729999D02*
D03*
X10665000D02*
D03*
X10600002D02*
D03*
X10534998D02*
D03*
X10469999D02*
D03*
X9557499Y5395000D02*
D03*
X9492501D02*
D03*
X9427502D02*
D03*
X9362498D02*
D03*
X9297500D02*
D03*
X9232501D02*
D03*
X9167503D02*
D03*
X9102499D02*
D03*
X9037500D02*
D03*
X8972502D02*
D03*
X8907498D02*
D03*
X8842499D02*
D03*
X9557499Y4704998D02*
D03*
X9492501D02*
D03*
X9427502D02*
D03*
X9362498D02*
D03*
X9297500D02*
D03*
X9232501D02*
D03*
X9167503D02*
D03*
X9102499D02*
D03*
X9037500D02*
D03*
X8972502D02*
D03*
X8907498D02*
D03*
X8842499D02*
D03*
D85*
X4677900Y5928303D02*
D03*
X4772901D02*
D03*
X4867902D02*
D03*
Y5678301D02*
D03*
X4772901D02*
D03*
X4677900D02*
D03*
M02*
