G04*
G04 #@! TF.GenerationSoftware,Altium Limited,Altium Designer,25.4.2 (15)*
G04*
G04 Layer_Color=32896*
%FSLAX45Y45*%
%MOMM*%
G71*
G04*
G04 #@! TF.SameCoordinates,D7BB9B6E-8E0F-4C10-A838-266EBE977BF3*
G04*
G04*
G04 #@! TF.FilePolarity,Positive*
G04*
G01*
G75*
%ADD11C,0.20000*%
%ADD13C,0.15000*%
%ADD14C,0.25000*%
%ADD16C,0.25400*%
%ADD17C,0.60000*%
%ADD19C,0.16000*%
D11*
X2091249Y4505563D02*
X2351249Y4505562D01*
X2091249Y4505563D02*
Y4645563D01*
X2351248Y4645565D02*
X2351249Y4505562D01*
X2091249Y4645563D02*
X2351248Y4645565D01*
X3251759Y555002D02*
Y735001D01*
X3371764D01*
X3251759Y555002D02*
X3371764D01*
Y735001D01*
X3365005Y554999D02*
Y734999D01*
X3485004D01*
X3365005Y554999D02*
X3485004D01*
Y734999D01*
X2132500Y1645000D02*
X2172500D01*
X2132500Y1354998D02*
Y1645000D01*
Y1354998D02*
X2172500D01*
Y1645000D01*
X2207501Y1669998D02*
X2317504D01*
X1752501Y1354998D02*
X1792501D01*
Y1645000D01*
X1752501D02*
X1792501D01*
X1752501Y1354998D02*
Y1645000D01*
X1607503Y1329999D02*
X1717505D01*
X2346688Y3312504D02*
X2526688D01*
Y3192505D02*
Y3312504D01*
X2346688Y3192505D02*
Y3312504D01*
Y3192505D02*
X2526688D01*
X2809999Y2887496D02*
X3075003D01*
X2809999Y2647497D02*
X3075003D01*
X2809999D02*
Y2887496D01*
X3075003Y2647497D02*
Y2887496D01*
X3269999Y2924997D02*
X3429998D01*
X3380001Y3074999D02*
X3429998D01*
Y2774995D02*
Y3074999D01*
X3380001Y2774995D02*
X3429998D01*
X3269999Y3074999D02*
X3320001D01*
X3269999Y2774995D02*
Y3074999D01*
Y2774995D02*
X3320001D01*
X3725004Y2885002D02*
X3825004D01*
X3735001Y2955005D02*
X3775001Y2885002D01*
X3825004Y2955005D01*
X3735001D02*
X3825004D01*
X3775001Y2865002D02*
Y2885002D01*
Y2955005D02*
Y2985002D01*
X3912502Y2964997D02*
X4012501D01*
X3962504D02*
X4002504Y2895000D01*
X3912502D02*
X3962504Y2964997D01*
X3912502Y2895000D02*
X4002504D01*
X3962504Y2964997D02*
Y2984997D01*
Y2864997D02*
Y2895000D01*
X4167497Y4122500D02*
X4247497D01*
X4167497Y3682501D02*
X4247497D01*
X4167497D02*
Y4122500D01*
X4427502Y3682501D02*
Y4122500D01*
X4347497Y3682501D02*
X4427502D01*
X4347497Y4122500D02*
X4427502D01*
X3270501Y7310002D02*
Y7340005D01*
X3010502D02*
X3270501D01*
X3010502Y7310002D02*
Y7340005D01*
X3140504Y7200005D02*
Y7340005D01*
X3270501Y7200005D02*
Y7230002D01*
X3010502Y7200005D02*
X3270501D01*
X3010502D02*
Y7230002D01*
X2260003Y6842500D02*
Y7022500D01*
X2139998Y6842500D02*
X2260003D01*
X2139998Y7022500D02*
X2260003D01*
X2139998Y6842500D02*
Y7022500D01*
X1669997Y7317505D02*
X1830001D01*
X1669997Y7462504D02*
X1830001D01*
X2194999Y5814999D02*
X2290001D01*
Y6405000D01*
X2194999D02*
X2290001D01*
X1899999D02*
X1995000D01*
X1899999Y5814999D02*
Y6405000D01*
Y5814999D02*
X1995000D01*
X1899999Y6109999D02*
X2290001D01*
X2594999Y5814999D02*
X2690000D01*
Y6405000D01*
X2594999D02*
X2690000D01*
X2299998D02*
X2394999D01*
X2299998Y5814999D02*
Y6405000D01*
Y5814999D02*
X2394999D01*
X2299998Y6109999D02*
X2690000D01*
X2346688Y4515560D02*
X2526688D01*
X2346688D02*
Y4635560D01*
X2526688Y4515560D02*
Y4635560D01*
X2346688D02*
X2526688D01*
X3970002Y3962501D02*
X4150002D01*
X3970002D02*
Y4082500D01*
X4150002Y3962501D02*
Y4082500D01*
X3970002D02*
X4150002D01*
X3975001Y3722501D02*
X4155001D01*
X3975001D02*
Y3842501D01*
X4155001Y3722501D02*
Y3842501D01*
X3975001D02*
X4155001D01*
X3932507Y4629997D02*
Y4734996D01*
X710915Y6075004D02*
X740917D01*
X620917D02*
X640917D01*
X710915Y6025001D02*
Y6115004D01*
X640917Y6075004D02*
X710915Y6025001D01*
X640917Y6075004D02*
X710915Y6115004D01*
X640917Y6025001D02*
Y6125001D01*
X300918Y6255003D02*
X1040917D01*
Y6222501D02*
Y6255003D01*
X300918Y6125001D02*
Y6255003D01*
X1040917Y5894999D02*
Y5927501D01*
X300918Y6125001D02*
X315914D01*
Y6255003D01*
Y5894999D02*
Y6025001D01*
X300918D02*
X315914D01*
X300918Y5894999D02*
X1040917D01*
X300918D02*
Y6025001D01*
X357499Y6360765D02*
Y6520764D01*
X502498Y6360765D02*
Y6520764D01*
X3614997Y4509998D02*
Y4689997D01*
X3734996D01*
X3614997Y4509998D02*
X3734996D01*
Y4689997D01*
X6366919Y6459432D02*
Y7309433D01*
X6766918Y6459432D02*
Y7309433D01*
X6366919Y6459432D02*
X6766918D01*
X6366919Y7309433D02*
X6766918D01*
X6366919Y855380D02*
Y1705375D01*
X6766918Y855380D02*
Y1705375D01*
X6366919Y855380D02*
X6766918D01*
X6366919Y1705375D02*
X6766918D01*
X7100004Y2750001D02*
X7949999D01*
X7100004Y3150000D02*
X7949999D01*
Y2750001D02*
Y3150000D01*
X7100004Y2750001D02*
Y3150000D01*
X7949999Y4849997D02*
Y5249996D01*
X7099998Y4849997D02*
Y5249996D01*
Y4849997D02*
X7949999D01*
X7099998Y5249996D02*
X7949999D01*
X7902501Y6662500D02*
Y6767499D01*
X7607501Y6802500D02*
X7897503D01*
X7607501D02*
Y6847499D01*
X7897503D01*
Y6802500D02*
Y6847499D01*
X7525001Y6662500D02*
Y6767499D01*
X7230001Y6802500D02*
X7520003D01*
X7230001D02*
Y6847499D01*
X7520003D01*
Y6802500D02*
Y6847499D01*
X8669002Y6662500D02*
Y6767499D01*
X8374002Y6802500D02*
X8664003D01*
X8374002D02*
Y6847499D01*
X8664003D01*
Y6802500D02*
Y6847499D01*
X8288002Y6662500D02*
Y6767499D01*
X7993007Y6802500D02*
X8283003D01*
X7993007D02*
Y6847499D01*
X8283003D01*
Y6802500D02*
Y6847499D01*
X9057500Y6662500D02*
Y6767499D01*
X8762500Y6802500D02*
X9052502D01*
X8762500D02*
Y6847499D01*
X9052502D01*
Y6802500D02*
Y6847499D01*
X10575003Y6662500D02*
Y6767499D01*
X10280002Y6802500D02*
X10569999D01*
X10280002D02*
Y6847499D01*
X10569999D01*
Y6802500D02*
Y6847499D01*
X10955002Y6662500D02*
Y6767499D01*
X10660002Y6802500D02*
X10950003D01*
X10660002D02*
Y6847499D01*
X10950003D01*
Y6802500D02*
Y6847499D01*
X10193002Y6662500D02*
Y6767499D01*
X9898002Y6802500D02*
X10188003D01*
X9898002D02*
Y6847499D01*
X10188003D01*
Y6802500D02*
Y6847499D01*
X9431007Y6662500D02*
Y6767499D01*
X9136007Y6802500D02*
X9426004D01*
X9136007D02*
Y6847499D01*
X9426004D01*
Y6802500D02*
Y6847499D01*
X9812007Y6662500D02*
Y6767499D01*
X9517007Y6802500D02*
X9807009D01*
X9517007D02*
Y6847499D01*
X9807009D01*
Y6802500D02*
Y6847499D01*
X9152501Y1052504D02*
Y1097503D01*
Y1052504D02*
X9442503D01*
Y1097503D01*
X9152501D02*
X9442503D01*
X9147503Y1132504D02*
Y1237502D01*
X8762500Y1052499D02*
Y1097503D01*
Y1052499D02*
X9052502D01*
Y1097503D01*
X8762500D02*
X9052502D01*
X8757501Y1132499D02*
Y1237502D01*
X9529996Y1052499D02*
Y1097503D01*
Y1052499D02*
X9819998D01*
Y1097503D01*
X9529996D02*
X9819998D01*
X9524997Y1132499D02*
Y1237502D01*
X10304996Y1052504D02*
Y1097508D01*
Y1052504D02*
X10594998D01*
Y1097508D01*
X10304996D02*
X10594998D01*
X10299997Y1132504D02*
Y1237507D01*
X9905002Y1052504D02*
Y1097503D01*
Y1052504D02*
X10194999D01*
Y1097503D01*
X9905002D02*
X10194999D01*
X9899998Y1132504D02*
Y1237502D01*
X10680001Y1052504D02*
Y1097503D01*
Y1052504D02*
X10969998D01*
Y1097503D01*
X10680001D02*
X10969998D01*
X10675003Y1132504D02*
Y1237502D01*
X8380001Y1052499D02*
Y1097503D01*
Y1052499D02*
X8669998D01*
Y1097503D01*
X8380001D02*
X8669998D01*
X8374997Y1132504D02*
Y1237502D01*
X8005000Y1052499D02*
Y1097503D01*
Y1052499D02*
X8294997D01*
Y1097503D01*
X8005000D02*
X8294997D01*
X8000002Y1132499D02*
Y1237502D01*
X7630005Y1052499D02*
Y1097503D01*
Y1052499D02*
X7920002D01*
Y1097503D01*
X7630005D02*
X7920002D01*
X7625001Y1132499D02*
Y1237502D01*
X7254999Y1052499D02*
Y1097503D01*
Y1052499D02*
X7544996D01*
Y1097503D01*
X7254999D02*
X7544996D01*
X7249996Y1132499D02*
Y1237502D01*
X2949999Y1329999D02*
Y1349999D01*
Y1249999D02*
Y1260002D01*
X2909999Y1329999D02*
X3000002D01*
X2949999Y1260002D02*
X3000002Y1329999D01*
X2909999D02*
X2949999Y1260002D01*
X2900002D02*
X3000002D01*
X2975399Y925001D02*
X3115099D01*
Y1668301D01*
X2975399Y925001D02*
Y944401D01*
X3115099D01*
X2784899D02*
X2924599D01*
Y925001D02*
Y944401D01*
X3067500Y1668301D02*
X3115099D01*
X2784899Y925001D02*
X2924599D01*
X2784899Y1668301D02*
X2832499D01*
X2784899Y925001D02*
Y1668301D01*
X357502Y4627503D02*
Y4807503D01*
X477502D01*
X357502Y4627503D02*
X477502D01*
Y4807503D01*
D13*
X4867501Y1367499D02*
X5047501D01*
X5007501Y1537502D02*
X5047501D01*
Y1197502D02*
Y1537502D01*
X5007501Y1197502D02*
X5047501D01*
X4867501D02*
X4907501D01*
X4867501D02*
Y1537502D01*
X4907501D01*
X4622498Y1417502D02*
X4642498D01*
X4622498Y1077503D02*
Y1417502D01*
Y1077503D02*
X4642498D01*
X4782497Y1417502D02*
X4802497D01*
Y1077503D02*
Y1417502D01*
X4782497Y1077503D02*
X4802497D01*
X4622498Y1247505D02*
X4802497D01*
X3844999Y917503D02*
X3864999D01*
Y1257502D01*
X3844999D02*
X3864999D01*
X3684999Y917503D02*
X3704999D01*
X3684999D02*
Y1257502D01*
X3704999D01*
X3684999Y1087500D02*
X3864999D01*
X2750000Y722502D02*
X2770000D01*
X2750000Y427501D02*
X2770000D01*
X2750000D02*
Y722502D01*
X2880002D02*
X2900002D01*
X2880002Y427501D02*
X2900002D01*
Y722502D01*
X2750000Y575004D02*
X2900002D01*
X2623309Y2907512D02*
X2763309D01*
X2733307Y2767512D02*
X2763309D01*
Y3047511D01*
X2733307D02*
X2763309D01*
X2623309D02*
X2653307D01*
X2623309Y2767512D02*
Y3047511D01*
Y2767512D02*
X2653307D01*
X2770000Y2920491D02*
X2789197D01*
X2770000D02*
Y3174491D01*
X2789197D01*
X2890797D02*
X2909999D01*
Y2920491D02*
Y3174491D01*
X2890797Y2920491D02*
X2909999D01*
X2770000Y3047491D02*
X2909999D01*
X3842504Y3155004D02*
X3866604D01*
Y2696402D02*
Y3155004D01*
Y2683702D02*
Y2696402D01*
X3800401Y2683702D02*
X3866604D01*
X3800401D02*
Y2696402D01*
X3866604D01*
X3683404D02*
X3749601D01*
Y2683702D02*
Y2696402D01*
X3683404Y2683702D02*
X3749601D01*
X3683404D02*
Y2696402D01*
Y3155004D01*
X3707503D01*
X3870902Y2695000D02*
X3895001D01*
X3870902D02*
Y3153597D01*
Y3166297D01*
X3937104D01*
Y3153597D02*
Y3166297D01*
X3870902Y3153597D02*
X3937104D01*
X3987904D02*
X4054102D01*
X3987904D02*
Y3166297D01*
X4054102D01*
Y3153597D02*
Y3166297D01*
Y2695000D02*
Y3153597D01*
X4030002Y2695000D02*
X4054102D01*
X4145806Y2777499D02*
X4165008D01*
Y3077499D01*
X4145806D02*
X4165008D01*
X4045003D02*
X4064206D01*
X4045003Y2777499D02*
X4064206D01*
X4045003D02*
Y3077499D01*
Y2927501D02*
X4165008D01*
X4317500Y3012495D02*
Y3152500D01*
X4177500Y3012495D02*
Y3042497D01*
Y3012495D02*
X4457499D01*
Y3042497D01*
Y3122497D02*
Y3152500D01*
X4177500D02*
X4457499D01*
X4177500Y3122497D02*
Y3152500D01*
X5040795Y5340004D02*
X5059998D01*
Y5640003D01*
X5040795D02*
X5059998D01*
X4939998D02*
X4959195D01*
X4939998Y5340004D02*
X4959195D01*
X4939998D02*
Y5640003D01*
Y5490001D02*
X5059998D01*
X3132498Y6924999D02*
Y7064999D01*
X2992498Y6924999D02*
Y6955002D01*
Y6924999D02*
X3272498D01*
Y6955002D01*
Y7035001D02*
Y7064999D01*
X2992498D02*
X3272498D01*
X2992498Y7035001D02*
Y7064999D01*
X3138005Y7072502D02*
Y7212507D01*
X3011005Y7072502D02*
Y7091704D01*
Y7072502D02*
X3265005D01*
Y7091704D01*
Y7193304D02*
Y7212507D01*
X3011005D02*
X3265005D01*
X3011005Y7193304D02*
Y7212507D01*
X3364197Y7135001D02*
X3504197D01*
X3484999Y7008001D02*
X3504197D01*
Y7262001D01*
X3484999D02*
X3504197D01*
X3364197D02*
X3383399D01*
X3364197Y7008001D02*
Y7262001D01*
Y7008001D02*
X3383399D01*
X2992498Y7447503D02*
Y7477505D01*
X3272498D01*
Y7447503D02*
Y7477505D01*
Y7337500D02*
Y7367503D01*
X2992498Y7337500D02*
X3272498D01*
X2992498D02*
Y7367503D01*
X3132498Y7337500D02*
Y7477505D01*
X2574999Y6907504D02*
Y6937501D01*
X2294999Y6907504D02*
X2574999D01*
X2294999D02*
Y6937501D01*
Y7017501D02*
Y7047503D01*
X2574999D01*
Y7017501D02*
Y7047503D01*
X2434999Y6907504D02*
Y7047503D01*
Y7107498D02*
Y7247498D01*
X2574999Y7217500D02*
Y7247498D01*
X2294999D02*
X2574999D01*
X2294999Y7217500D02*
Y7247498D01*
Y7107498D02*
Y7137501D01*
Y7107498D02*
X2574999D01*
Y7137501D01*
X2159998Y7313863D02*
Y7453863D01*
X2032998Y7313863D02*
Y7333060D01*
Y7313863D02*
X2286998D01*
Y7333060D01*
Y7434660D02*
Y7453863D01*
X2032998D02*
X2286998D01*
X2032998Y7434660D02*
Y7453863D01*
X3807503Y4464999D02*
Y4495001D01*
X4087503D01*
Y4464999D02*
Y4495001D01*
Y4355002D02*
Y4384999D01*
X3807503Y4355002D02*
X4087503D01*
X3807503D02*
Y4384999D01*
X3947503Y4355002D02*
Y4495001D01*
X4290002Y3512504D02*
Y3652504D01*
X4150002Y3512504D02*
Y3542501D01*
Y3512504D02*
X4430001D01*
Y3542501D01*
Y3622501D02*
Y3652504D01*
X4150002D02*
X4430001D01*
X4150002Y3622501D02*
Y3652504D01*
X4290002Y4162500D02*
Y4302500D01*
X4150002Y4162500D02*
Y4192503D01*
Y4162500D02*
X4430001D01*
Y4192503D01*
Y4272503D02*
Y4302500D01*
X4150002D02*
X4430001D01*
X4150002Y4272503D02*
Y4302500D01*
X3105000Y2634995D02*
X3135003D01*
X3105000D02*
Y2915000D01*
X3135003D01*
X3215002D02*
X3245000D01*
Y2634995D02*
Y2915000D01*
X3215002Y2634995D02*
X3245000D01*
X3105000Y2775000D02*
X3245000D01*
X7524874Y4224999D02*
X7644874D01*
X7524874Y4075002D02*
Y4375002D01*
Y4075002D02*
X7544077D01*
X7524874Y4375002D02*
X7544077D01*
X7625677D02*
X7644874D01*
Y4075002D02*
Y4375002D01*
X7625677Y4075002D02*
X7644874D01*
X6843575Y6334332D02*
X6983575D01*
X6953573Y6194333D02*
X6983575D01*
Y6474332D01*
X6953573D02*
X6983575D01*
X6843575D02*
X6873573D01*
X6843575Y6194333D02*
Y6474332D01*
Y6194333D02*
X6873573D01*
X7420780Y3750924D02*
X7540780D01*
Y3600921D02*
Y3900921D01*
X7521583D02*
X7540780D01*
X7521583Y3600921D02*
X7540780D01*
X7420780D02*
X7439983D01*
X7420780D02*
Y3900921D01*
X7439983D01*
X6879725Y760458D02*
X7019725D01*
X6989722Y620459D02*
X7019725D01*
Y900458D01*
X6989722D02*
X7019725D01*
X6879725D02*
X6909722D01*
X6879725Y620459D02*
Y900458D01*
Y620459D02*
X6909722D01*
X10065001Y5182503D02*
X10094999D01*
Y4902504D02*
Y5182503D01*
X10065001Y4902504D02*
X10094999D01*
X9954999D02*
X9985002D01*
X9954999D02*
Y5182503D01*
X9985002D01*
X9954999Y5042504D02*
X10094999D01*
X6724998Y3823298D02*
Y3842501D01*
X6424999D02*
X6724998D01*
X6424999Y3823298D02*
Y3842501D01*
Y3722501D02*
Y3741698D01*
X6724998Y3722501D02*
Y3741698D01*
X6424999Y3722501D02*
X6724998D01*
X6575001D02*
Y3842501D01*
X6430002Y3945000D02*
Y3975002D01*
X6149998Y3945000D02*
X6430002D01*
X6149998D02*
Y3975002D01*
Y4055002D02*
Y4085000D01*
X6430002D01*
Y4055002D02*
Y4085000D01*
X6289998Y3945000D02*
Y4085000D01*
X6475001Y4190801D02*
Y4209998D01*
X6175002D02*
X6475001D01*
X6175002Y4190801D02*
Y4209998D01*
Y4089998D02*
Y4109201D01*
X6475001Y4089998D02*
Y4109201D01*
X6175002Y4089998D02*
X6475001D01*
X6324999D02*
Y4209998D01*
X6289998Y3809999D02*
Y3949999D01*
X6162998Y3809999D02*
Y3829201D01*
Y3809999D02*
X6416998D01*
Y3829201D01*
Y3930801D02*
Y3949999D01*
X6162998D02*
X6416998D01*
X6162998Y3930801D02*
Y3949999D01*
X6415001Y3074999D02*
Y3094202D01*
Y3074999D02*
X6715001D01*
Y3094202D01*
Y3175802D02*
Y3194999D01*
X6415001Y3175802D02*
Y3194999D01*
X6715001D01*
X6564998Y3074999D02*
Y3194999D01*
X6552501Y3033303D02*
Y3052500D01*
X6252497D02*
X6552501D01*
X6252497Y3033303D02*
Y3052500D01*
Y2932500D02*
Y2951703D01*
X6552501Y2932500D02*
Y2951703D01*
X6252497Y2932500D02*
X6552501D01*
X6402499D02*
Y3052500D01*
X6595001Y4628798D02*
Y4648001D01*
X6295001D02*
X6595001D01*
X6295001Y4628798D02*
Y4648001D01*
Y4527996D02*
Y4547198D01*
X6595001Y4527996D02*
Y4547198D01*
X6295001Y4527996D02*
X6595001D01*
X6444999D02*
Y4648001D01*
X6457500Y4670500D02*
Y4689698D01*
Y4670500D02*
X6757500D01*
Y4689698D01*
Y4771298D02*
Y4790500D01*
X6457500Y4771298D02*
Y4790500D01*
X6757500D01*
X6607503Y4670500D02*
Y4790500D01*
X8197502Y3225007D02*
Y3255004D01*
X7917503Y3225007D02*
X8197502D01*
X7917503D02*
Y3255004D01*
Y3335004D02*
Y3365006D01*
X8197502D01*
Y3335004D02*
Y3365006D01*
X8057502Y3225007D02*
Y3365006D01*
X7647536Y4375002D02*
X7666739D01*
X7647536Y4075002D02*
Y4375002D01*
Y4075002D02*
X7666739D01*
X7748339D02*
X7767536D01*
X7748339Y4375002D02*
X7767536D01*
Y4075002D02*
Y4375002D01*
X7647536Y4225005D02*
X7767536D01*
X7398890Y3600916D02*
X7418088D01*
Y3900921D01*
X7398890D02*
X7418088D01*
X7298088D02*
X7317290D01*
X7298088Y3600916D02*
X7317290D01*
X7298088D02*
Y3900921D01*
Y3750919D02*
X7418088D01*
X7338296Y4075002D02*
X7357499D01*
Y4375002D01*
X7338296D02*
X7357499D01*
X7237499D02*
X7256696D01*
X7237499Y4075002D02*
X7256696D01*
X7237499D02*
Y4375002D01*
Y4224999D02*
X7357499D01*
X7215797Y4074997D02*
X7234999D01*
Y4374997D01*
X7215797D02*
X7234999D01*
X7115000D02*
X7134197D01*
X7115000Y4074997D02*
X7134197D01*
X7115000D02*
Y4374997D01*
Y4224999D02*
X7234999D01*
X7310509Y6034277D02*
X7329706D01*
X7310509Y5734278D02*
Y6034277D01*
Y5734278D02*
X7329706D01*
X7411306D02*
X7430508D01*
X7411306Y6034277D02*
X7430508D01*
Y5734278D02*
Y6034277D01*
X7310509Y5884280D02*
X7430508D01*
X7165805Y1966010D02*
X7185002D01*
Y2266009D01*
X7165805D02*
X7185002D01*
X7065002D02*
X7084205D01*
X7065002Y1966010D02*
X7084205D01*
X7065002D02*
Y2266009D01*
Y2116012D02*
X7185002D01*
X7415802Y1966010D02*
X7435004D01*
Y2266009D01*
X7415802D02*
X7435004D01*
X7314999D02*
X7334202D01*
X7314999Y1966010D02*
X7334202D01*
X7314999D02*
Y2266009D01*
Y2116012D02*
X7435004D01*
X7540800Y1966010D02*
X7560003D01*
Y2266009D01*
X7540800D02*
X7560003D01*
X7440003D02*
X7459200D01*
X7440003Y1966010D02*
X7459200D01*
X7440003D02*
Y2266009D01*
Y2116012D02*
X7560003D01*
X7665799Y1966010D02*
X7684996D01*
Y2266009D01*
X7665799D02*
X7684996D01*
X7564996D02*
X7584199D01*
X7564996Y1966010D02*
X7584199D01*
X7564996D02*
Y2266009D01*
Y2116012D02*
X7684996D01*
X7060507Y6034277D02*
X7079704D01*
X7060507Y5734278D02*
Y6034277D01*
Y5734278D02*
X7079704D01*
X7161304D02*
X7180506D01*
X7161304Y6034277D02*
X7180506D01*
Y5734278D02*
Y6034277D01*
X7060507Y5884280D02*
X7180506D01*
X9930000Y4035002D02*
X10070000D01*
X9930000Y4162002D02*
X9949203D01*
X9930000Y3908002D02*
Y4162002D01*
Y3908002D02*
X9949203D01*
X10050803D02*
X10070000D01*
Y4162002D01*
X10050803D02*
X10070000D01*
X7915801Y1966010D02*
X7934998D01*
Y2266009D01*
X7915801D02*
X7934998D01*
X7814998D02*
X7834201D01*
X7814998Y1966010D02*
X7834201D01*
X7814998D02*
Y2266009D01*
Y2116012D02*
X7934998D01*
X7790802Y1966010D02*
X7810000D01*
Y2266009D01*
X7790802D02*
X7810000D01*
X7690000D02*
X7709202D01*
X7690000Y1966010D02*
X7709202D01*
X7690000D02*
Y2266009D01*
Y2116012D02*
X7810000D01*
X8040804Y1966010D02*
X8060002D01*
Y2266009D01*
X8040804D02*
X8060002D01*
X7940002D02*
X7959204D01*
X7940002Y1966010D02*
X7959204D01*
X7940002D02*
Y2266009D01*
Y2116012D02*
X8060002D01*
X7814998Y3900001D02*
X7834196D01*
X7814998Y3600002D02*
Y3900001D01*
Y3600002D02*
X7834196D01*
X7915796D02*
X7934998D01*
X7915796Y3900001D02*
X7934998D01*
Y3600002D02*
Y3900001D01*
X7814998Y3749999D02*
X7934998D01*
X7560500Y6034277D02*
X7579703D01*
X7560500Y5734278D02*
Y6034277D01*
Y5734278D02*
X7579703D01*
X7661303D02*
X7680500D01*
X7661303Y6034277D02*
X7680500D01*
Y5734278D02*
Y6034277D01*
X7560500Y5884275D02*
X7680500D01*
X7185505Y6034277D02*
X7204707D01*
X7185505Y5734278D02*
Y6034277D01*
Y5734278D02*
X7204707D01*
X7286307D02*
X7305505D01*
X7286307Y6034277D02*
X7305505D01*
Y5734278D02*
Y6034277D01*
X7185505Y5884280D02*
X7305505D01*
X7435502Y6034277D02*
X7454704D01*
X7435502Y5734278D02*
Y6034277D01*
Y5734278D02*
X7454704D01*
X7536304D02*
X7555502D01*
X7536304Y6034277D02*
X7555502D01*
Y5734278D02*
Y6034277D01*
X7435502Y5884275D02*
X7555502D01*
X6859999Y4740000D02*
Y4769997D01*
X7139998D01*
Y4740000D02*
Y4769997D01*
Y4629997D02*
Y4660000D01*
X6859999Y4629997D02*
X7139998D01*
X6859999D02*
Y4660000D01*
X6999999Y4629997D02*
Y4769997D01*
X7810503Y6034277D02*
X7829705D01*
X7810503Y5734278D02*
Y6034277D01*
Y5734278D02*
X7829705D01*
X7911305D02*
X7930502D01*
X7911305Y6034277D02*
X7930502D01*
Y5734278D02*
Y6034277D01*
X7810503Y5884275D02*
X7930502D01*
X7935501Y6034277D02*
X7954698D01*
X7935501Y5734278D02*
Y6034277D01*
Y5734278D02*
X7954698D01*
X8036298D02*
X8055501D01*
X8036298Y6034277D02*
X8055501D01*
Y5734278D02*
Y6034277D01*
X7935501Y5884275D02*
X8055501D01*
X7685504Y6034277D02*
X7704701D01*
X7685504Y5734278D02*
Y6034277D01*
Y5734278D02*
X7704701D01*
X7786301D02*
X7805504D01*
X7786301Y6034277D02*
X7805504D01*
Y5734278D02*
Y6034277D01*
X7685504Y5884275D02*
X7805504D01*
X7692504Y3900001D02*
X7711702D01*
X7692504Y3600002D02*
Y3900001D01*
Y3600002D02*
X7711702D01*
X7793302D02*
X7812504D01*
X7793302Y3900001D02*
X7812504D01*
Y3600002D02*
Y3900001D01*
X7692504Y3750004D02*
X7812504D01*
X7290798Y1966010D02*
X7309996D01*
Y2266009D01*
X7290798D02*
X7309996D01*
X7189996D02*
X7209198D01*
X7189996Y1966010D02*
X7209198D01*
X7189996D02*
Y2266009D01*
Y2116012D02*
X7309996D01*
X2934998Y574999D02*
X3114998D01*
X2934998Y745001D02*
X2954998D01*
X2934998Y405002D02*
Y745001D01*
Y405002D02*
X2954998D01*
X3094998Y745001D02*
X3114998D01*
Y405002D02*
Y745001D01*
X3094998Y405002D02*
X3114998D01*
X3685004Y737498D02*
X3865004D01*
X3845004Y567501D02*
X3865004D01*
Y907500D01*
X3845004D02*
X3865004D01*
X3685004Y567501D02*
X3705004D01*
X3685004D02*
Y907500D01*
X3705004D01*
X3564999Y1835002D02*
Y1855002D01*
X3225000D02*
X3564999D01*
X3225000Y1835002D02*
Y1855002D01*
X3564999Y1695002D02*
Y1715002D01*
X3225000Y1695002D02*
X3564999D01*
X3225000D02*
Y1715002D01*
X3394997Y1695002D02*
Y1855002D01*
X3395002Y1345000D02*
Y1505000D01*
X3225000Y1345000D02*
Y1365000D01*
Y1345000D02*
X3564999D01*
Y1365000D01*
X3225000Y1485000D02*
Y1505000D01*
X3564999D01*
Y1485000D02*
Y1505000D01*
Y1660001D02*
Y1680001D01*
X3225000D02*
X3564999D01*
X3225000Y1660001D02*
Y1680001D01*
X3564999Y1520001D02*
Y1540001D01*
X3225000Y1520001D02*
X3564999D01*
X3225000D02*
Y1540001D01*
X3394997Y1520001D02*
Y1680001D01*
X3395002Y1169999D02*
Y1329999D01*
X3225000Y1169999D02*
Y1189999D01*
Y1169999D02*
X3564999D01*
Y1189999D01*
X3225000Y1309999D02*
Y1329999D01*
X3564999D01*
Y1309999D02*
Y1329999D01*
X4052501Y1675002D02*
Y1715002D01*
X3712502D02*
X4052501D01*
X3712502Y1675002D02*
Y1715002D01*
Y1535002D02*
Y1575002D01*
Y1535002D02*
X4052501D01*
Y1575002D01*
X3882499Y1535002D02*
Y1715002D01*
X349999Y4264999D02*
Y4284202D01*
Y4264999D02*
X649999D01*
Y4284202D01*
Y4365802D02*
Y4385004D01*
X349999Y4365802D02*
Y4385004D01*
X649999D01*
X499996Y4264999D02*
Y4385004D01*
X349999Y4510404D02*
Y4529606D01*
Y4510404D02*
X649999D01*
Y4529606D01*
Y4611206D02*
Y4630404D01*
X349999Y4611206D02*
Y4630404D01*
X649999D01*
X499996Y4510404D02*
Y4630404D01*
Y4391994D02*
Y4511994D01*
X349999D02*
X649999D01*
X349999Y4492797D02*
Y4511994D01*
X649999Y4492797D02*
Y4511994D01*
Y4391994D02*
Y4411197D01*
X349999Y4391994D02*
X649999D01*
X349999D02*
Y4411197D01*
Y4140001D02*
Y4159198D01*
Y4140001D02*
X649999D01*
Y4159198D01*
Y4240798D02*
Y4260001D01*
X349999Y4240798D02*
Y4260001D01*
X649999D01*
X499996Y4140001D02*
Y4260001D01*
D14*
X6234421Y6454432D02*
G03*
X6234421Y6454432I-12500J0D01*
G01*
X6234418Y850376D02*
G03*
X6234418Y850376I-12500J0D01*
G01*
X7967500Y2605001D02*
G03*
X7967500Y2605001I-12500J0D01*
G01*
X7107500Y5395000D02*
G03*
X7107500Y5395000I-12500J0D01*
G01*
D16*
X3030000Y2607499D02*
G03*
X3030000Y2607499I-5000J0D01*
G01*
X1461644Y7387500D02*
G03*
X1461644Y7387500I-14142J0D01*
G01*
D17*
X6496920Y6559432D02*
G03*
X6496920Y6559432I-30000J0D01*
G01*
X6496918Y955376D02*
G03*
X6496918Y955376I-30000J0D01*
G01*
X7880000Y2850001D02*
G03*
X7880000Y2850001I-30000J0D01*
G01*
X7230000Y5150000D02*
G03*
X7230000Y5150000I-30000J0D01*
G01*
D19*
X3488986Y4650373D02*
X3507314Y4668701D01*
X3543969D01*
X3562296Y4650373D01*
Y4632046D01*
X3543969Y4613718D01*
X3507314D01*
X3488986Y4595391D01*
Y4577063D01*
X3507314Y4558736D01*
X3543969D01*
X3562296Y4577063D01*
X3452332Y4668701D02*
Y4558736D01*
X3397349D01*
X3379022Y4577063D01*
Y4595391D01*
X3397349Y4613718D01*
X3452332D01*
X3397349D01*
X3379022Y4632046D01*
Y4650373D01*
X3397349Y4668701D01*
X3452332D01*
X3342367Y4558736D02*
X3305712D01*
X3324040D01*
Y4668701D01*
X3342367Y4650373D01*
X3177420Y4558736D02*
X3250730D01*
X3177420Y4632046D01*
Y4650373D01*
X3195748Y4668701D01*
X3232403D01*
X3250730Y4650373D01*
X6717500Y3921500D02*
Y4031464D01*
X6662518D01*
X6644190Y4013137D01*
Y3976482D01*
X6662518Y3958155D01*
X6717500D01*
X6680845D02*
X6644190Y3921500D01*
X6607535D02*
X6570881D01*
X6589208D01*
Y4031464D01*
X6607535Y4013137D01*
X6442589Y4031464D02*
X6515898D01*
Y3976482D01*
X6479244Y3994810D01*
X6460916D01*
X6442589Y3976482D01*
Y3939827D01*
X6460916Y3921500D01*
X6497571D01*
X6515898Y3939827D01*
X6466040Y4289800D02*
Y4399764D01*
X6411058D01*
X6392730Y4381437D01*
Y4344782D01*
X6411058Y4326455D01*
X6466040D01*
X6429385D02*
X6392730Y4289800D01*
X6356075Y4308127D02*
X6337748Y4289800D01*
X6301093D01*
X6282766Y4308127D01*
Y4381437D01*
X6301093Y4399764D01*
X6337748D01*
X6356075Y4381437D01*
Y4363110D01*
X6337748Y4344782D01*
X6282766D01*
X6585420Y4726680D02*
Y4836644D01*
X6530438D01*
X6512110Y4818317D01*
Y4781662D01*
X6530438Y4763335D01*
X6585420D01*
X6548765D02*
X6512110Y4726680D01*
X6475455Y4818317D02*
X6457128Y4836644D01*
X6420473D01*
X6402146Y4818317D01*
Y4799990D01*
X6420473Y4781662D01*
X6402146Y4763335D01*
Y4745007D01*
X6420473Y4726680D01*
X6457128D01*
X6475455Y4745007D01*
Y4763335D01*
X6457128Y4781662D01*
X6475455Y4799990D01*
Y4818317D01*
X6457128Y4781662D02*
X6420473D01*
X6747980Y4868920D02*
Y4978884D01*
X6692998D01*
X6674670Y4960557D01*
Y4923902D01*
X6692998Y4905575D01*
X6747980D01*
X6711325D02*
X6674670Y4868920D01*
X6638015Y4978884D02*
X6564706D01*
Y4960557D01*
X6638015Y4887247D01*
Y4868920D01*
X6412700Y4023100D02*
Y4133064D01*
X6357718D01*
X6339390Y4114737D01*
Y4078082D01*
X6357718Y4059755D01*
X6412700D01*
X6376045D02*
X6339390Y4023100D01*
X6229426Y4133064D02*
X6266081Y4114737D01*
X6302735Y4078082D01*
Y4041427D01*
X6284408Y4023100D01*
X6247753D01*
X6229426Y4041427D01*
Y4059755D01*
X6247753Y4078082D01*
X6302735D01*
X6347010Y4251897D02*
X6365338Y4270224D01*
X6401993D01*
X6420320Y4251897D01*
Y4178587D01*
X6401993Y4160260D01*
X6365338D01*
X6347010Y4178587D01*
X6310355Y4251897D02*
X6292028Y4270224D01*
X6255373D01*
X6237046Y4251897D01*
Y4233570D01*
X6255373Y4215242D01*
X6273701D01*
X6255373D01*
X6237046Y4196915D01*
Y4178587D01*
X6255373Y4160260D01*
X6292028D01*
X6310355Y4178587D01*
X6200391Y4160260D02*
X6163736D01*
X6182064D01*
Y4270224D01*
X6200391Y4251897D01*
X3557740Y1759960D02*
Y1869924D01*
X3502758D01*
X3484430Y1851597D01*
Y1814942D01*
X3502758Y1796615D01*
X3557740D01*
X3521085D02*
X3484430Y1759960D01*
X3392793D02*
Y1869924D01*
X3447775Y1814942D01*
X3374466D01*
X3282829Y1759960D02*
Y1869924D01*
X3337811Y1814942D01*
X3264501D01*
X3543226Y1945018D02*
Y2054982D01*
X3488244D01*
X3469917Y2036655D01*
Y2000000D01*
X3488244Y1981673D01*
X3543226D01*
X3506572D02*
X3469917Y1945018D01*
X3378280D02*
Y2054982D01*
X3433262Y2000000D01*
X3359952D01*
X3323297Y2036655D02*
X3304970Y2054982D01*
X3268315D01*
X3249988Y2036655D01*
Y2018328D01*
X3268315Y2000000D01*
X3286643D01*
X3268315D01*
X3249988Y1981673D01*
Y1963345D01*
X3268315Y1945018D01*
X3304970D01*
X3323297Y1963345D01*
X3035974Y1829984D02*
Y1720020D01*
X2980992D01*
X2962665Y1738347D01*
Y1811657D01*
X2980992Y1829984D01*
X3035974D01*
X2926010D02*
X2852700D01*
Y1811657D01*
X2926010Y1738347D01*
Y1720020D01*
X641820Y4465060D02*
Y4575024D01*
X586838D01*
X568510Y4556697D01*
Y4520042D01*
X586838Y4501715D01*
X641820D01*
X605165D02*
X568510Y4465060D01*
X531855Y4556697D02*
X513528Y4575024D01*
X476873D01*
X458546Y4556697D01*
Y4538370D01*
X476873Y4520042D01*
X495201D01*
X476873D01*
X458546Y4501715D01*
Y4483387D01*
X476873Y4465060D01*
X513528D01*
X531855Y4483387D01*
X348581Y4575024D02*
X385236Y4556697D01*
X421891Y4520042D01*
Y4483387D01*
X403564Y4465060D01*
X366909D01*
X348581Y4483387D01*
Y4501715D01*
X366909Y4520042D01*
X421891D01*
X641820Y4708900D02*
Y4818864D01*
X586838D01*
X568510Y4800537D01*
Y4763882D01*
X586838Y4745555D01*
X641820D01*
X605165D02*
X568510Y4708900D01*
X531855Y4800537D02*
X513528Y4818864D01*
X476873D01*
X458546Y4800537D01*
Y4782210D01*
X476873Y4763882D01*
X495201D01*
X476873D01*
X458546Y4745555D01*
Y4727227D01*
X476873Y4708900D01*
X513528D01*
X531855Y4727227D01*
X348581Y4818864D02*
X421891D01*
Y4763882D01*
X385236Y4782210D01*
X366909D01*
X348581Y4763882D01*
Y4727227D01*
X366909Y4708900D01*
X403564D01*
X421891Y4727227D01*
X244807Y4503345D02*
X134843D01*
Y4448362D01*
X153170Y4430035D01*
X189825D01*
X208152Y4448362D01*
Y4503345D01*
Y4466690D02*
X244807Y4430035D01*
X153170Y4393380D02*
X134843Y4375053D01*
Y4338398D01*
X153170Y4320071D01*
X171497D01*
X189825Y4338398D01*
Y4356726D01*
Y4338398D01*
X208152Y4320071D01*
X226480D01*
X244807Y4338398D01*
Y4375053D01*
X226480Y4393380D01*
X244807Y4228434D02*
X134843D01*
X189825Y4283416D01*
Y4210106D01*
X4577125Y3823632D02*
X4558797D01*
X4522143Y3860286D01*
X4558797Y3896941D01*
X4577125D01*
X4522143Y3860286D02*
X4467160D01*
Y4006906D02*
Y3933596D01*
X4540470Y4006906D01*
X4558797D01*
X4577125Y3988579D01*
Y3951924D01*
X4558797Y3933596D01*
X398330Y4975797D02*
X416658Y4994124D01*
X453313D01*
X471640Y4975797D01*
Y4957470D01*
X453313Y4939142D01*
X416658D01*
X398330Y4920815D01*
Y4902487D01*
X416658Y4884160D01*
X453313D01*
X471640Y4902487D01*
X361675Y4994124D02*
Y4884160D01*
X306693D01*
X288366Y4902487D01*
Y4920815D01*
X306693Y4939142D01*
X361675D01*
X306693D01*
X288366Y4957470D01*
Y4975797D01*
X306693Y4994124D01*
X361675D01*
X251711Y4884160D02*
X215056D01*
X233384D01*
Y4994124D01*
X251711Y4975797D01*
X160074Y4902487D02*
X141746Y4884160D01*
X105091D01*
X86764Y4902487D01*
Y4975797D01*
X105091Y4994124D01*
X141746D01*
X160074Y4975797D01*
Y4957470D01*
X141746Y4939142D01*
X86764D01*
X3532063Y769128D02*
X3513735Y787456D01*
Y824111D01*
X3532063Y842438D01*
X3550390D01*
X3568718Y824111D01*
Y787456D01*
X3587045Y769128D01*
X3605373D01*
X3623700Y787456D01*
Y824111D01*
X3605373Y842438D01*
X3513735Y732474D02*
X3623700D01*
Y677491D01*
X3605373Y659164D01*
X3587045D01*
X3568718Y677491D01*
Y732474D01*
Y677491D01*
X3550390Y659164D01*
X3532063D01*
X3513735Y677491D01*
Y732474D01*
X3623700Y622509D02*
Y585854D01*
Y604182D01*
X3513735D01*
X3532063Y622509D01*
Y530872D02*
X3513735Y512545D01*
Y475890D01*
X3532063Y457562D01*
X3550390D01*
X3568718Y475890D01*
X3587045Y457562D01*
X3605373D01*
X3623700Y475890D01*
Y512545D01*
X3605373Y530872D01*
X3587045D01*
X3568718Y512545D01*
X3550390Y530872D01*
X3532063D01*
X3568718Y512545D02*
Y475890D01*
X3132465Y763557D02*
X3114138Y781885D01*
Y818540D01*
X3132465Y836867D01*
X3150792D01*
X3169120Y818540D01*
Y781885D01*
X3187447Y763557D01*
X3205775D01*
X3224102Y781885D01*
Y818540D01*
X3205775Y836867D01*
X3114138Y726903D02*
X3224102D01*
Y671920D01*
X3205775Y653593D01*
X3187447D01*
X3169120Y671920D01*
Y726903D01*
Y671920D01*
X3150792Y653593D01*
X3132465D01*
X3114138Y671920D01*
Y726903D01*
X3224102Y616938D02*
Y580283D01*
Y598611D01*
X3114138D01*
X3132465Y616938D01*
X3114138Y525301D02*
Y451991D01*
X3132465D01*
X3205775Y525301D01*
X3224102D01*
X2481793Y4450781D02*
X2500120Y4469108D01*
X2536775D01*
X2555103Y4450781D01*
Y4432453D01*
X2536775Y4414126D01*
X2500120D01*
X2481793Y4395798D01*
Y4377471D01*
X2500120Y4359143D01*
X2536775D01*
X2555103Y4377471D01*
X2445138Y4469108D02*
Y4359143D01*
X2390156D01*
X2371829Y4377471D01*
Y4395798D01*
X2390156Y4414126D01*
X2445138D01*
X2390156D01*
X2371829Y4432453D01*
Y4450781D01*
X2390156Y4469108D01*
X2445138D01*
X2335174Y4359143D02*
X2298519D01*
X2316847D01*
Y4469108D01*
X2335174Y4450781D01*
X2243537Y4359143D02*
X2206882D01*
X2225209D01*
Y4469108D01*
X2243537Y4450781D01*
X2084135Y6872946D02*
X2102463Y6854618D01*
Y6817964D01*
X2084135Y6799636D01*
X2065808D01*
X2047481Y6817964D01*
Y6854618D01*
X2029153Y6872946D01*
X2010826D01*
X1992498Y6854618D01*
Y6817964D01*
X2010826Y6799636D01*
X2102463Y6909601D02*
X1992498D01*
Y6964583D01*
X2010826Y6982910D01*
X2029153D01*
X2047481Y6964583D01*
Y6909601D01*
Y6964583D01*
X2065808Y6982910D01*
X2084135D01*
X2102463Y6964583D01*
Y6909601D01*
X1992498Y7074547D02*
X2102463D01*
X2047481Y7019565D01*
Y7092875D01*
X2446748Y3437738D02*
X2465075Y3456065D01*
X2501730D01*
X2520057Y3437738D01*
Y3419410D01*
X2501730Y3401083D01*
X2465075D01*
X2446748Y3382755D01*
Y3364428D01*
X2465075Y3346100D01*
X2501730D01*
X2520057Y3364428D01*
X2410093Y3456065D02*
Y3346100D01*
X2355111D01*
X2336783Y3364428D01*
Y3382755D01*
X2355111Y3401083D01*
X2410093D01*
X2355111D01*
X2336783Y3419410D01*
Y3437738D01*
X2355111Y3456065D01*
X2410093D01*
X2300128Y3437738D02*
X2281801Y3456065D01*
X2245146D01*
X2226819Y3437738D01*
Y3419410D01*
X2245146Y3401083D01*
X2263474D01*
X2245146D01*
X2226819Y3382755D01*
Y3364428D01*
X2245146Y3346100D01*
X2281801D01*
X2300128Y3364428D01*
X3847483Y4061811D02*
X3865810Y4080139D01*
X3902465D01*
X3920793Y4061811D01*
Y4043484D01*
X3902465Y4025157D01*
X3865810D01*
X3847483Y4006829D01*
Y3988502D01*
X3865810Y3970174D01*
X3902465D01*
X3920793Y3988502D01*
X3810828Y4080139D02*
Y3970174D01*
X3755846D01*
X3737519Y3988502D01*
Y4006829D01*
X3755846Y4025157D01*
X3810828D01*
X3755846D01*
X3737519Y4043484D01*
Y4061811D01*
X3755846Y4080139D01*
X3810828D01*
X3627554Y3970174D02*
X3700864D01*
X3627554Y4043484D01*
Y4061811D01*
X3645881Y4080139D01*
X3682536D01*
X3700864Y4061811D01*
X3856191Y3821576D02*
X3874519Y3839903D01*
X3911174D01*
X3929501Y3821576D01*
Y3803248D01*
X3911174Y3784921D01*
X3874519D01*
X3856191Y3766593D01*
Y3748266D01*
X3874519Y3729939D01*
X3911174D01*
X3929501Y3748266D01*
X3819537Y3839903D02*
Y3729939D01*
X3764554D01*
X3746227Y3748266D01*
Y3766593D01*
X3764554Y3784921D01*
X3819537D01*
X3764554D01*
X3746227Y3803248D01*
Y3821576D01*
X3764554Y3839903D01*
X3819537D01*
X3709572Y3729939D02*
X3672917D01*
X3691245D01*
Y3839903D01*
X3709572Y3821576D01*
X2139190Y4463925D02*
Y4353961D01*
X2194172D01*
X2212500Y4372288D01*
Y4408943D01*
X2194172Y4427271D01*
X2139190D01*
X2175845D02*
X2212500Y4463925D01*
X2249155D02*
X2285809D01*
X2267482D01*
Y4353961D01*
X2249155Y4372288D01*
X4034380Y4921032D02*
Y4811068D01*
X3961070D01*
X3851105D02*
X3924415D01*
X3851105Y4884378D01*
Y4902705D01*
X3869433Y4921032D01*
X3906088D01*
X3924415Y4902705D01*
X3989333Y4296067D02*
X4007660Y4314394D01*
X4044315D01*
X4062643Y4296067D01*
Y4222757D01*
X4044315Y4204430D01*
X4007660D01*
X3989333Y4222757D01*
X3952678Y4204430D02*
X3916023D01*
X3934351D01*
Y4314394D01*
X3952678Y4296067D01*
X3861041D02*
X3842714Y4314394D01*
X3806059D01*
X3787731Y4296067D01*
Y4277740D01*
X3806059Y4259412D01*
X3787731Y4241085D01*
Y4222757D01*
X3806059Y4204430D01*
X3842714D01*
X3861041Y4222757D01*
Y4241085D01*
X3842714Y4259412D01*
X3861041Y4277740D01*
Y4296067D01*
X3842714Y4259412D02*
X3806059D01*
X4348326Y4440577D02*
X4366653Y4458905D01*
X4403308D01*
X4421636Y4440577D01*
Y4367268D01*
X4403308Y4348940D01*
X4366653D01*
X4348326Y4367268D01*
X4311671Y4348940D02*
X4275016D01*
X4293344D01*
Y4458905D01*
X4311671Y4440577D01*
X4220034D02*
X4201707Y4458905D01*
X4165052D01*
X4146724Y4440577D01*
Y4367268D01*
X4165052Y4348940D01*
X4201707D01*
X4220034Y4367268D01*
Y4440577D01*
X4589216Y3617309D02*
X4607543Y3635636D01*
X4644198D01*
X4662526Y3617309D01*
Y3543999D01*
X4644198Y3525672D01*
X4607543D01*
X4589216Y3543999D01*
X4552561D02*
X4534234Y3525672D01*
X4497579D01*
X4479251Y3543999D01*
Y3617309D01*
X4497579Y3635636D01*
X4534234D01*
X4552561Y3617309D01*
Y3598981D01*
X4534234Y3580654D01*
X4479251D01*
X4344067Y3279159D02*
X4362395Y3297487D01*
X4399050D01*
X4417377Y3279159D01*
Y3205850D01*
X4399050Y3187522D01*
X4362395D01*
X4344067Y3205850D01*
X4234103Y3297487D02*
X4307413D01*
Y3242505D01*
X4270758Y3260832D01*
X4252430D01*
X4234103Y3242505D01*
Y3205850D01*
X4252430Y3187522D01*
X4289085D01*
X4307413Y3205850D01*
X3006209Y2584163D02*
Y2565836D01*
X2969555Y2529181D01*
X2932900Y2565836D01*
Y2584163D01*
X2969555Y2529181D02*
Y2474199D01*
X2896245D02*
X2859590D01*
X2877918D01*
Y2584163D01*
X2896245Y2565836D01*
X7964640Y5725644D02*
Y5634007D01*
X7946313Y5615680D01*
X7909658D01*
X7891330Y5634007D01*
Y5725644D01*
X7854675Y5634007D02*
X7836348Y5615680D01*
X7799693D01*
X7781366Y5634007D01*
Y5707317D01*
X7799693Y5725644D01*
X7836348D01*
X7854675Y5707317D01*
Y5688990D01*
X7836348Y5670662D01*
X7781366D01*
X7744711Y5597353D02*
X7671401D01*
X7561437Y5707317D02*
X7579764Y5725644D01*
X7616419D01*
X7634746Y5707317D01*
Y5688990D01*
X7616419Y5670662D01*
X7579764D01*
X7561437Y5652335D01*
Y5634007D01*
X7579764Y5615680D01*
X7616419D01*
X7634746Y5634007D01*
X7524782Y5725644D02*
X7488127D01*
X7506455D01*
Y5615680D01*
X7524782D01*
X7488127D01*
X7433145D02*
X7396490D01*
X7414818D01*
Y5725644D01*
X7433145Y5707317D01*
X7964640Y3625064D02*
Y3533427D01*
X7946313Y3515100D01*
X7909658D01*
X7891330Y3533427D01*
Y3625064D01*
X7854675Y3533427D02*
X7836348Y3515100D01*
X7799693D01*
X7781366Y3533427D01*
Y3606737D01*
X7799693Y3625064D01*
X7836348D01*
X7854675Y3606737D01*
Y3588410D01*
X7836348Y3570082D01*
X7781366D01*
X7744711Y3496773D02*
X7671401D01*
X7561437Y3606737D02*
X7579764Y3625064D01*
X7616419D01*
X7634746Y3606737D01*
Y3588410D01*
X7616419Y3570082D01*
X7579764D01*
X7561437Y3551755D01*
Y3533427D01*
X7579764Y3515100D01*
X7616419D01*
X7634746Y3533427D01*
X7524782Y3625064D02*
X7488127D01*
X7506455D01*
Y3515100D01*
X7524782D01*
X7488127D01*
X7433145Y3606737D02*
X7414818Y3625064D01*
X7378163D01*
X7359835Y3606737D01*
Y3533427D01*
X7378163Y3515100D01*
X7414818D01*
X7433145Y3533427D01*
Y3606737D01*
X6552775Y7191304D02*
X6644412D01*
X6662739Y7172977D01*
Y7136322D01*
X6644412Y7117994D01*
X6552775D01*
Y7008030D02*
X6571102Y7044685D01*
X6607757Y7081339D01*
X6644412D01*
X6662739Y7063012D01*
Y7026357D01*
X6644412Y7008030D01*
X6626084D01*
X6607757Y7026357D01*
Y7081339D01*
X6681066Y6971375D02*
Y6898065D01*
X6571102Y6788101D02*
X6552775Y6806428D01*
Y6843083D01*
X6571102Y6861410D01*
X6589429D01*
X6607757Y6843083D01*
Y6806428D01*
X6626084Y6788101D01*
X6644412D01*
X6662739Y6806428D01*
Y6843083D01*
X6644412Y6861410D01*
X6552775Y6751446D02*
Y6714791D01*
Y6733119D01*
X6662739D01*
Y6751446D01*
Y6714791D01*
Y6659809D02*
Y6623154D01*
Y6641482D01*
X6552775D01*
X6571102Y6659809D01*
X6681065Y962171D02*
X6589428D01*
X6571100Y980498D01*
Y1017153D01*
X6589428Y1035481D01*
X6681065D01*
Y1145445D02*
X6662737Y1108790D01*
X6626083Y1072136D01*
X6589428D01*
X6571100Y1090463D01*
Y1127118D01*
X6589428Y1145445D01*
X6607755D01*
X6626083Y1127118D01*
Y1072136D01*
X6552773Y1182100D02*
Y1255410D01*
X6662737Y1365374D02*
X6681065Y1347047D01*
Y1310392D01*
X6662737Y1292064D01*
X6644410D01*
X6626083Y1310392D01*
Y1347047D01*
X6607755Y1365374D01*
X6589428D01*
X6571100Y1347047D01*
Y1310392D01*
X6589428Y1292064D01*
X6681065Y1402029D02*
Y1438684D01*
Y1420356D01*
X6571100D01*
Y1402029D01*
Y1438684D01*
X6662737Y1493666D02*
X6681065Y1511993D01*
Y1548648D01*
X6662737Y1566976D01*
X6589428D01*
X6571100Y1548648D01*
Y1511993D01*
X6589428Y1493666D01*
X6662737D01*
X6544780Y3131560D02*
Y3241524D01*
X6489798D01*
X6471470Y3223197D01*
Y3186542D01*
X6489798Y3168215D01*
X6544780D01*
X6508125D02*
X6471470Y3131560D01*
X6361506Y3241524D02*
X6398161Y3223197D01*
X6434815Y3186542D01*
Y3149887D01*
X6416488Y3131560D01*
X6379833D01*
X6361506Y3149887D01*
Y3168215D01*
X6379833Y3186542D01*
X6434815D01*
X6251541Y3131560D02*
X6324851D01*
X6251541Y3204870D01*
Y3223197D01*
X6269869Y3241524D01*
X6306524D01*
X6324851Y3223197D01*
X6707340Y3273800D02*
Y3383764D01*
X6652358D01*
X6634030Y3365437D01*
Y3328782D01*
X6652358Y3310455D01*
X6707340D01*
X6670685D02*
X6634030Y3273800D01*
X6524066Y3383764D02*
X6560721Y3365437D01*
X6597375Y3328782D01*
Y3292127D01*
X6579048Y3273800D01*
X6542393D01*
X6524066Y3292127D01*
Y3310455D01*
X6542393Y3328782D01*
X6597375D01*
X6487411Y3273800D02*
X6450756D01*
X6469084D01*
Y3383764D01*
X6487411Y3365437D01*
X10062680Y4239000D02*
Y4348964D01*
X10007698D01*
X9989370Y4330637D01*
Y4293982D01*
X10007698Y4275655D01*
X10062680D01*
X10026025D02*
X9989370Y4239000D01*
X9879406Y4348964D02*
X9952715D01*
Y4293982D01*
X9916061Y4312310D01*
X9897733D01*
X9879406Y4293982D01*
Y4257327D01*
X9897733Y4239000D01*
X9934388D01*
X9952715Y4257327D01*
X9769441Y4348964D02*
X9806096Y4330637D01*
X9842751Y4293982D01*
Y4257327D01*
X9824424Y4239000D01*
X9787769D01*
X9769441Y4257327D01*
Y4275655D01*
X9787769Y4293982D01*
X9842751D01*
X3921621Y1358840D02*
Y1468804D01*
X3866638D01*
X3848311Y1450477D01*
Y1413822D01*
X3866638Y1395495D01*
X3921621D01*
X3884966D02*
X3848311Y1358840D01*
X3738346Y1468804D02*
X3811656D01*
Y1413822D01*
X3775001Y1432150D01*
X3756674D01*
X3738346Y1413822D01*
Y1377167D01*
X3756674Y1358840D01*
X3793329D01*
X3811656Y1377167D01*
X3628382Y1468804D02*
X3701692D01*
Y1413822D01*
X3665037Y1432150D01*
X3646709D01*
X3628382Y1413822D01*
Y1377167D01*
X3646709Y1358840D01*
X3683364D01*
X3701692Y1377167D01*
X3942178Y930883D02*
X4052142D01*
Y985865D01*
X4033815Y1004192D01*
X3997160D01*
X3978833Y985865D01*
Y930883D01*
Y967537D02*
X3942178Y1004192D01*
X4052142Y1114157D02*
Y1040847D01*
X3997160D01*
X4015488Y1077502D01*
Y1095829D01*
X3997160Y1114157D01*
X3960505D01*
X3942178Y1095829D01*
Y1059174D01*
X3960505Y1040847D01*
X3942178Y1205794D02*
X4052142D01*
X3997160Y1150812D01*
Y1224121D01*
X3334122Y282578D02*
Y392542D01*
X3279139D01*
X3260812Y374215D01*
Y337560D01*
X3279139Y319233D01*
X3334122D01*
X3297467D02*
X3260812Y282578D01*
X3150847Y392542D02*
X3224157D01*
Y337560D01*
X3187502Y355888D01*
X3169175D01*
X3150847Y337560D01*
Y300905D01*
X3169175Y282578D01*
X3205830D01*
X3224157Y300905D01*
X3040883Y282578D02*
X3114193D01*
X3040883Y355888D01*
Y374215D01*
X3059210Y392542D01*
X3095865D01*
X3114193Y374215D01*
X3557740Y1409440D02*
Y1519404D01*
X3502758D01*
X3484430Y1501077D01*
Y1464422D01*
X3502758Y1446095D01*
X3557740D01*
X3521085D02*
X3484430Y1409440D01*
X3374466Y1519404D02*
X3447775D01*
Y1464422D01*
X3411121Y1482750D01*
X3392793D01*
X3374466Y1464422D01*
Y1427767D01*
X3392793Y1409440D01*
X3429448D01*
X3447775Y1427767D01*
X3337811Y1409440D02*
X3301156D01*
X3319484D01*
Y1519404D01*
X3337811Y1501077D01*
X2679983Y729751D02*
X2570019D01*
Y674769D01*
X2588346Y656441D01*
X2625001D01*
X2643328Y674769D01*
Y729751D01*
Y693096D02*
X2679983Y656441D01*
X2570019Y546477D02*
Y619786D01*
X2625001D01*
X2606673Y583132D01*
Y564804D01*
X2625001Y546477D01*
X2661656D01*
X2679983Y564804D01*
Y601459D01*
X2661656Y619786D01*
X2588346Y509822D02*
X2570019Y491495D01*
Y454840D01*
X2588346Y436512D01*
X2661656D01*
X2679983Y454840D01*
Y491495D01*
X2661656Y509822D01*
X2588346D01*
X3942178Y581705D02*
X4052142D01*
Y636688D01*
X4033815Y655015D01*
X3997160D01*
X3978833Y636688D01*
Y581705D01*
Y618360D02*
X3942178Y655015D01*
Y746652D02*
X4052142D01*
X3997160Y691670D01*
Y764980D01*
X4033815Y801634D02*
X4052142Y819962D01*
Y856617D01*
X4033815Y874944D01*
X4015488D01*
X3997160Y856617D01*
X3978833Y874944D01*
X3960505D01*
X3942178Y856617D01*
Y819962D01*
X3960505Y801634D01*
X3978833D01*
X3997160Y819962D01*
X4015488Y801634D01*
X4033815D01*
X3997160Y819962D02*
Y856617D01*
X4565254Y1396618D02*
X4455289D01*
Y1341636D01*
X4473616Y1323309D01*
X4510271D01*
X4528599Y1341636D01*
Y1396618D01*
Y1359963D02*
X4565254Y1323309D01*
Y1231671D02*
X4455289D01*
X4510271Y1286654D01*
Y1213344D01*
X4455289Y1176689D02*
Y1103380D01*
X4473616D01*
X4546926Y1176689D01*
X4565254D01*
X2902205Y3484183D02*
X2792241D01*
Y3429201D01*
X2810568Y3410874D01*
X2847223D01*
X2865550Y3429201D01*
Y3484183D01*
Y3447529D02*
X2902205Y3410874D01*
Y3319236D02*
X2792241D01*
X2847223Y3374219D01*
Y3300909D01*
X2792241Y3190945D02*
Y3264254D01*
X2847223D01*
X2828895Y3227600D01*
Y3209272D01*
X2847223Y3190945D01*
X2883878D01*
X2902205Y3209272D01*
Y3245927D01*
X2883878Y3264254D01*
X641820Y4592060D02*
Y4702024D01*
X586838D01*
X568510Y4683697D01*
Y4647042D01*
X586838Y4628715D01*
X641820D01*
X605165D02*
X568510Y4592060D01*
X476873D02*
Y4702024D01*
X531855Y4647042D01*
X458546D01*
X421891Y4592060D02*
X385236D01*
X403564D01*
Y4702024D01*
X421891Y4683697D01*
X4164984Y3382805D02*
X4055020D01*
Y3327823D01*
X4073347Y3309496D01*
X4110002D01*
X4128329Y3327823D01*
Y3382805D01*
Y3346151D02*
X4164984Y3309496D01*
X4073347Y3272841D02*
X4055020Y3254513D01*
Y3217858D01*
X4073347Y3199531D01*
X4091674D01*
X4110002Y3217858D01*
Y3236186D01*
Y3217858D01*
X4128329Y3199531D01*
X4146657D01*
X4164984Y3217858D01*
Y3254513D01*
X4146657Y3272841D01*
Y3162876D02*
X4164984Y3144549D01*
Y3107894D01*
X4146657Y3089567D01*
X4073347D01*
X4055020Y3107894D01*
Y3144549D01*
X4073347Y3162876D01*
X4091674D01*
X4110002Y3144549D01*
Y3089567D01*
X4794094Y5373173D02*
X4904059D01*
Y5428156D01*
X4885731Y5446483D01*
X4849077D01*
X4830749Y5428156D01*
Y5373173D01*
Y5409828D02*
X4794094Y5446483D01*
X4885731Y5483138D02*
X4904059Y5501465D01*
Y5538120D01*
X4885731Y5556447D01*
X4867404D01*
X4849077Y5538120D01*
Y5519792D01*
Y5538120D01*
X4830749Y5556447D01*
X4812422D01*
X4794094Y5538120D01*
Y5501465D01*
X4812422Y5483138D01*
X4794094Y5593102D02*
Y5629757D01*
Y5611429D01*
X4904059D01*
X4885731Y5593102D01*
X2292671Y7477431D02*
Y7587395D01*
X2237689D01*
X2219362Y7569068D01*
Y7532413D01*
X2237689Y7514086D01*
X2292671D01*
X2256017D02*
X2219362Y7477431D01*
X2109397D02*
X2182707D01*
X2109397Y7550741D01*
Y7569068D01*
X2127724Y7587395D01*
X2164379D01*
X2182707Y7569068D01*
X2072742Y7587395D02*
X1999433D01*
Y7569068D01*
X2072742Y7495758D01*
Y7477431D01*
X3541265Y6956987D02*
X3651230D01*
Y7011969D01*
X3632902Y7030296D01*
X3596248D01*
X3577920Y7011969D01*
Y6956987D01*
Y6993641D02*
X3541265Y7030296D01*
Y7140261D02*
Y7066951D01*
X3614575Y7140261D01*
X3632902D01*
X3651230Y7121933D01*
Y7085278D01*
X3632902Y7066951D01*
X3651230Y7250225D02*
Y7176916D01*
X3596248D01*
X3614575Y7213570D01*
Y7231898D01*
X3596248Y7250225D01*
X3559593D01*
X3541265Y7231898D01*
Y7195243D01*
X3559593Y7176916D01*
X2949221Y7223148D02*
Y7333113D01*
X2894239D01*
X2875911Y7314785D01*
Y7278130D01*
X2894239Y7259803D01*
X2949221D01*
X2912566D02*
X2875911Y7223148D01*
X2765947D02*
X2839257D01*
X2765947Y7296458D01*
Y7314785D01*
X2784274Y7333113D01*
X2820929D01*
X2839257Y7314785D01*
X2674310Y7223148D02*
Y7333113D01*
X2729292Y7278130D01*
X2655982D01*
X2949221Y7088743D02*
Y7198708D01*
X2894239D01*
X2875911Y7180380D01*
Y7143726D01*
X2894239Y7125398D01*
X2949221D01*
X2912566D02*
X2875911Y7088743D01*
X2765947D02*
X2839257D01*
X2765947Y7162053D01*
Y7180380D01*
X2784274Y7198708D01*
X2820929D01*
X2839257Y7180380D01*
X2729292D02*
X2710965Y7198708D01*
X2674310D01*
X2655982Y7180380D01*
Y7162053D01*
X2674310Y7143726D01*
X2692637D01*
X2674310D01*
X2655982Y7125398D01*
Y7107071D01*
X2674310Y7088743D01*
X2710965D01*
X2729292Y7107071D01*
X7355040Y4467600D02*
Y4577564D01*
X7300058D01*
X7281730Y4559237D01*
Y4522582D01*
X7300058Y4504255D01*
X7355040D01*
X7318385D02*
X7281730Y4467600D01*
X7171766D02*
X7245075D01*
X7171766Y4540910D01*
Y4559237D01*
X7190093Y4577564D01*
X7226748D01*
X7245075Y4559237D01*
X7135111Y4467600D02*
X7098456D01*
X7116784D01*
Y4577564D01*
X7135111Y4559237D01*
X7043474Y4449273D02*
X6970164D01*
X6933509Y4577564D02*
Y4467600D01*
X6896855Y4504255D01*
X6860200Y4467600D01*
Y4577564D01*
X6750235Y4559237D02*
X6768563Y4577564D01*
X6805218D01*
X6823545Y4559237D01*
Y4540910D01*
X6805218Y4522582D01*
X6768563D01*
X6750235Y4504255D01*
Y4485927D01*
X6768563Y4467600D01*
X6805218D01*
X6823545Y4485927D01*
X6640271Y4467600D02*
X6713580D01*
X6640271Y4540910D01*
Y4559237D01*
X6658598Y4577564D01*
X6695253D01*
X6713580Y4559237D01*
X6603616D02*
X6585289Y4577564D01*
X6548634D01*
X6530306Y4559237D01*
Y4485927D01*
X6548634Y4467600D01*
X6585289D01*
X6603616Y4485927D01*
Y4559237D01*
X7230580Y4467600D02*
Y4577564D01*
X7175598D01*
X7157270Y4559237D01*
Y4522582D01*
X7175598Y4504255D01*
X7230580D01*
X7193925D02*
X7157270Y4467600D01*
X7047306D02*
X7120615D01*
X7047306Y4540910D01*
Y4559237D01*
X7065633Y4577564D01*
X7102288D01*
X7120615Y4559237D01*
X7010651Y4467600D02*
X6973996D01*
X6992324D01*
Y4577564D01*
X7010651Y4559237D01*
X6919014Y4449273D02*
X6845704D01*
X6809049Y4577564D02*
Y4467600D01*
X6772395Y4504255D01*
X6735740Y4467600D01*
Y4577564D01*
X6625775Y4559237D02*
X6644103Y4577564D01*
X6680758D01*
X6699085Y4559237D01*
Y4540910D01*
X6680758Y4522582D01*
X6644103D01*
X6625775Y4504255D01*
Y4485927D01*
X6644103Y4467600D01*
X6680758D01*
X6699085Y4485927D01*
X6589120Y4467600D02*
X6552466D01*
X6570793D01*
Y4577564D01*
X6589120Y4559237D01*
X6497483Y4485927D02*
X6479156Y4467600D01*
X6442501D01*
X6424174Y4485927D01*
Y4559237D01*
X6442501Y4577564D01*
X6479156D01*
X6497483Y4559237D01*
Y4540910D01*
X6479156Y4522582D01*
X6424174D01*
X7177240Y6126220D02*
Y6236184D01*
X7122258D01*
X7103930Y6217857D01*
Y6181202D01*
X7122258Y6162875D01*
X7177240D01*
X7140585D02*
X7103930Y6126220D01*
X6993966D02*
X7067275D01*
X6993966Y6199530D01*
Y6217857D01*
X7012293Y6236184D01*
X7048948D01*
X7067275Y6217857D01*
X6957311Y6126220D02*
X6920656D01*
X6938984D01*
Y6236184D01*
X6957311Y6217857D01*
X6865674Y6107893D02*
X6792364D01*
X6755709Y6236184D02*
Y6126220D01*
X6719055Y6162875D01*
X6682400Y6126220D01*
Y6236184D01*
X6572435Y6217857D02*
X6590763Y6236184D01*
X6627418D01*
X6645745Y6217857D01*
Y6199530D01*
X6627418Y6181202D01*
X6590763D01*
X6572435Y6162875D01*
Y6144547D01*
X6590763Y6126220D01*
X6627418D01*
X6645745Y6144547D01*
X6535780Y6126220D02*
X6499126D01*
X6517453D01*
Y6236184D01*
X6535780Y6217857D01*
X6444143D02*
X6425816Y6236184D01*
X6389161D01*
X6370834Y6217857D01*
Y6199530D01*
X6389161Y6181202D01*
X6370834Y6162875D01*
Y6144547D01*
X6389161Y6126220D01*
X6425816D01*
X6444143Y6144547D01*
Y6162875D01*
X6425816Y6181202D01*
X6444143Y6199530D01*
Y6217857D01*
X6425816Y6181202D02*
X6389161D01*
X7301700Y6126220D02*
Y6236184D01*
X7246718D01*
X7228390Y6217857D01*
Y6181202D01*
X7246718Y6162875D01*
X7301700D01*
X7265045D02*
X7228390Y6126220D01*
X7118426D02*
X7191735D01*
X7118426Y6199530D01*
Y6217857D01*
X7136753Y6236184D01*
X7173408D01*
X7191735Y6217857D01*
X7081771Y6126220D02*
X7045116D01*
X7063444D01*
Y6236184D01*
X7081771Y6217857D01*
X6990134Y6107893D02*
X6916824D01*
X6880169Y6236184D02*
Y6126220D01*
X6843515Y6162875D01*
X6806860Y6126220D01*
Y6236184D01*
X6696895Y6217857D02*
X6715223Y6236184D01*
X6751878D01*
X6770205Y6217857D01*
Y6199530D01*
X6751878Y6181202D01*
X6715223D01*
X6696895Y6162875D01*
Y6144547D01*
X6715223Y6126220D01*
X6751878D01*
X6770205Y6144547D01*
X6660240Y6126220D02*
X6623586D01*
X6641913D01*
Y6236184D01*
X6660240Y6217857D01*
X6568603Y6236184D02*
X6495294D01*
Y6217857D01*
X6568603Y6144547D01*
Y6126220D01*
X7426160D02*
Y6236184D01*
X7371178D01*
X7352850Y6217857D01*
Y6181202D01*
X7371178Y6162875D01*
X7426160D01*
X7389505D02*
X7352850Y6126220D01*
X7242886D02*
X7316195D01*
X7242886Y6199530D01*
Y6217857D01*
X7261213Y6236184D01*
X7297868D01*
X7316195Y6217857D01*
X7206231Y6126220D02*
X7169576D01*
X7187904D01*
Y6236184D01*
X7206231Y6217857D01*
X7114594Y6107893D02*
X7041284D01*
X7004629Y6236184D02*
Y6126220D01*
X6967975Y6162875D01*
X6931320Y6126220D01*
Y6236184D01*
X6821355Y6217857D02*
X6839683Y6236184D01*
X6876338D01*
X6894665Y6217857D01*
Y6199530D01*
X6876338Y6181202D01*
X6839683D01*
X6821355Y6162875D01*
Y6144547D01*
X6839683Y6126220D01*
X6876338D01*
X6894665Y6144547D01*
X6784700Y6126220D02*
X6748046D01*
X6766373D01*
Y6236184D01*
X6784700Y6217857D01*
X6619754Y6236184D02*
X6656409Y6217857D01*
X6693063Y6181202D01*
Y6144547D01*
X6674736Y6126220D01*
X6638081D01*
X6619754Y6144547D01*
Y6162875D01*
X6638081Y6181202D01*
X6693063D01*
X7553160Y6126220D02*
Y6236184D01*
X7498178D01*
X7479850Y6217857D01*
Y6181202D01*
X7498178Y6162875D01*
X7553160D01*
X7516505D02*
X7479850Y6126220D01*
X7369886D02*
X7443195D01*
X7369886Y6199530D01*
Y6217857D01*
X7388213Y6236184D01*
X7424868D01*
X7443195Y6217857D01*
X7333231Y6126220D02*
X7296576D01*
X7314904D01*
Y6236184D01*
X7333231Y6217857D01*
X7241594Y6107893D02*
X7168284D01*
X7131629Y6236184D02*
Y6126220D01*
X7094975Y6162875D01*
X7058320Y6126220D01*
Y6236184D01*
X6948355Y6217857D02*
X6966683Y6236184D01*
X7003338D01*
X7021665Y6217857D01*
Y6199530D01*
X7003338Y6181202D01*
X6966683D01*
X6948355Y6162875D01*
Y6144547D01*
X6966683Y6126220D01*
X7003338D01*
X7021665Y6144547D01*
X6911700Y6126220D02*
X6875046D01*
X6893373D01*
Y6236184D01*
X6911700Y6217857D01*
X6746754Y6236184D02*
X6820063D01*
Y6181202D01*
X6783409Y6199530D01*
X6765081D01*
X6746754Y6181202D01*
Y6144547D01*
X6765081Y6126220D01*
X6801736D01*
X6820063Y6144547D01*
X7677620Y6126220D02*
Y6236184D01*
X7622638D01*
X7604310Y6217857D01*
Y6181202D01*
X7622638Y6162875D01*
X7677620D01*
X7640965D02*
X7604310Y6126220D01*
X7494346D02*
X7567655D01*
X7494346Y6199530D01*
Y6217857D01*
X7512673Y6236184D01*
X7549328D01*
X7567655Y6217857D01*
X7457691Y6126220D02*
X7421036D01*
X7439364D01*
Y6236184D01*
X7457691Y6217857D01*
X7366054Y6107893D02*
X7292744D01*
X7256089Y6236184D02*
Y6126220D01*
X7219435Y6162875D01*
X7182780Y6126220D01*
Y6236184D01*
X7072815Y6217857D02*
X7091143Y6236184D01*
X7127798D01*
X7146125Y6217857D01*
Y6199530D01*
X7127798Y6181202D01*
X7091143D01*
X7072815Y6162875D01*
Y6144547D01*
X7091143Y6126220D01*
X7127798D01*
X7146125Y6144547D01*
X7036160Y6126220D02*
X6999506D01*
X7017833D01*
Y6236184D01*
X7036160Y6217857D01*
X6889541Y6126220D02*
Y6236184D01*
X6944523Y6181202D01*
X6871214D01*
X7802080Y6126220D02*
Y6236184D01*
X7747098D01*
X7728770Y6217857D01*
Y6181202D01*
X7747098Y6162875D01*
X7802080D01*
X7765425D02*
X7728770Y6126220D01*
X7618806D02*
X7692115D01*
X7618806Y6199530D01*
Y6217857D01*
X7637133Y6236184D01*
X7673788D01*
X7692115Y6217857D01*
X7582151Y6126220D02*
X7545496D01*
X7563824D01*
Y6236184D01*
X7582151Y6217857D01*
X7490514Y6107893D02*
X7417204D01*
X7380549Y6236184D02*
Y6126220D01*
X7343895Y6162875D01*
X7307240Y6126220D01*
Y6236184D01*
X7197275Y6217857D02*
X7215603Y6236184D01*
X7252258D01*
X7270585Y6217857D01*
Y6199530D01*
X7252258Y6181202D01*
X7215603D01*
X7197275Y6162875D01*
Y6144547D01*
X7215603Y6126220D01*
X7252258D01*
X7270585Y6144547D01*
X7160620Y6126220D02*
X7123966D01*
X7142293D01*
Y6236184D01*
X7160620Y6217857D01*
X7068983D02*
X7050656Y6236184D01*
X7014001D01*
X6995674Y6217857D01*
Y6199530D01*
X7014001Y6181202D01*
X7032329D01*
X7014001D01*
X6995674Y6162875D01*
Y6144547D01*
X7014001Y6126220D01*
X7050656D01*
X7068983Y6144547D01*
X7926540Y6126220D02*
Y6236184D01*
X7871558D01*
X7853230Y6217857D01*
Y6181202D01*
X7871558Y6162875D01*
X7926540D01*
X7889885D02*
X7853230Y6126220D01*
X7743266D02*
X7816575D01*
X7743266Y6199530D01*
Y6217857D01*
X7761593Y6236184D01*
X7798248D01*
X7816575Y6217857D01*
X7706611Y6126220D02*
X7669956D01*
X7688284D01*
Y6236184D01*
X7706611Y6217857D01*
X7614974Y6107893D02*
X7541664D01*
X7505009Y6236184D02*
Y6126220D01*
X7468355Y6162875D01*
X7431700Y6126220D01*
Y6236184D01*
X7321735Y6217857D02*
X7340063Y6236184D01*
X7376718D01*
X7395045Y6217857D01*
Y6199530D01*
X7376718Y6181202D01*
X7340063D01*
X7321735Y6162875D01*
Y6144547D01*
X7340063Y6126220D01*
X7376718D01*
X7395045Y6144547D01*
X7285080Y6126220D02*
X7248426D01*
X7266753D01*
Y6236184D01*
X7285080Y6217857D01*
X7120134Y6126220D02*
X7193443D01*
X7120134Y6199530D01*
Y6217857D01*
X7138461Y6236184D01*
X7175116D01*
X7193443Y6217857D01*
X8051000Y6126220D02*
Y6236184D01*
X7996018D01*
X7977690Y6217857D01*
Y6181202D01*
X7996018Y6162875D01*
X8051000D01*
X8014345D02*
X7977690Y6126220D01*
X7867726D02*
X7941035D01*
X7867726Y6199530D01*
Y6217857D01*
X7886053Y6236184D01*
X7922708D01*
X7941035Y6217857D01*
X7831071Y6126220D02*
X7794416D01*
X7812744D01*
Y6236184D01*
X7831071Y6217857D01*
X7739434Y6107893D02*
X7666124D01*
X7629469Y6236184D02*
Y6126220D01*
X7592815Y6162875D01*
X7556160Y6126220D01*
Y6236184D01*
X7446195Y6217857D02*
X7464523Y6236184D01*
X7501178D01*
X7519505Y6217857D01*
Y6199530D01*
X7501178Y6181202D01*
X7464523D01*
X7446195Y6162875D01*
Y6144547D01*
X7464523Y6126220D01*
X7501178D01*
X7519505Y6144547D01*
X7409540Y6126220D02*
X7372886D01*
X7391213D01*
Y6236184D01*
X7409540Y6217857D01*
X7317903Y6126220D02*
X7281249D01*
X7299576D01*
Y6236184D01*
X7317903Y6217857D01*
X7809700Y3992620D02*
Y4102584D01*
X7754718D01*
X7736390Y4084257D01*
Y4047602D01*
X7754718Y4029275D01*
X7809700D01*
X7773045D02*
X7736390Y3992620D01*
X7626426D02*
X7699735D01*
X7626426Y4065930D01*
Y4084257D01*
X7644753Y4102584D01*
X7681408D01*
X7699735Y4084257D01*
X7589771Y3992620D02*
X7553116D01*
X7571444D01*
Y4102584D01*
X7589771Y4084257D01*
X7498134Y3974293D02*
X7424824D01*
X7388169Y4102584D02*
Y3992620D01*
X7351515Y4029275D01*
X7314860Y3992620D01*
Y4102584D01*
X7204895Y4084257D02*
X7223223Y4102584D01*
X7259878D01*
X7278205Y4084257D01*
Y4065930D01*
X7259878Y4047602D01*
X7223223D01*
X7204895Y4029275D01*
Y4010947D01*
X7223223Y3992620D01*
X7259878D01*
X7278205Y4010947D01*
X7168240Y3992620D02*
X7131586D01*
X7149913D01*
Y4102584D01*
X7168240Y4084257D01*
X7076603D02*
X7058276Y4102584D01*
X7021621D01*
X7003294Y4084257D01*
Y4010947D01*
X7021621Y3992620D01*
X7058276D01*
X7076603Y4010947D01*
Y4084257D01*
X7931620Y3992620D02*
Y4102584D01*
X7876638D01*
X7858310Y4084257D01*
Y4047602D01*
X7876638Y4029275D01*
X7931620D01*
X7894965D02*
X7858310Y3992620D01*
X7748346D02*
X7821655D01*
X7748346Y4065930D01*
Y4084257D01*
X7766673Y4102584D01*
X7803328D01*
X7821655Y4084257D01*
X7711691Y3992620D02*
X7675036D01*
X7693364D01*
Y4102584D01*
X7711691Y4084257D01*
X7620054Y3974293D02*
X7546744D01*
X7510089Y4102584D02*
Y3992620D01*
X7473435Y4029275D01*
X7436780Y3992620D01*
Y4102584D01*
X7326815Y4084257D02*
X7345143Y4102584D01*
X7381798D01*
X7400125Y4084257D01*
Y4065930D01*
X7381798Y4047602D01*
X7345143D01*
X7326815Y4029275D01*
Y4010947D01*
X7345143Y3992620D01*
X7381798D01*
X7400125Y4010947D01*
X7290160D02*
X7271833Y3992620D01*
X7235178D01*
X7216851Y4010947D01*
Y4084257D01*
X7235178Y4102584D01*
X7271833D01*
X7290160Y4084257D01*
Y4065930D01*
X7271833Y4047602D01*
X7216851D01*
X8056080Y2359400D02*
Y2469364D01*
X8001098D01*
X7982770Y2451037D01*
Y2414382D01*
X8001098Y2396055D01*
X8056080D01*
X8019425D02*
X7982770Y2359400D01*
X7872806D02*
X7946115D01*
X7872806Y2432710D01*
Y2451037D01*
X7891133Y2469364D01*
X7927788D01*
X7946115Y2451037D01*
X7836151Y2359400D02*
X7799496D01*
X7817824D01*
Y2469364D01*
X7836151Y2451037D01*
X7744514Y2341073D02*
X7671204D01*
X7634549Y2469364D02*
Y2359400D01*
X7597895Y2396055D01*
X7561240Y2359400D01*
Y2469364D01*
X7451275Y2451037D02*
X7469603Y2469364D01*
X7506258D01*
X7524585Y2451037D01*
Y2432710D01*
X7506258Y2414382D01*
X7469603D01*
X7451275Y2396055D01*
Y2377727D01*
X7469603Y2359400D01*
X7506258D01*
X7524585Y2377727D01*
X7414620Y2451037D02*
X7396293Y2469364D01*
X7359638D01*
X7341311Y2451037D01*
Y2432710D01*
X7359638Y2414382D01*
X7341311Y2396055D01*
Y2377727D01*
X7359638Y2359400D01*
X7396293D01*
X7414620Y2377727D01*
Y2396055D01*
X7396293Y2414382D01*
X7414620Y2432710D01*
Y2451037D01*
X7396293Y2414382D02*
X7359638D01*
X7931620Y2359400D02*
Y2469364D01*
X7876638D01*
X7858310Y2451037D01*
Y2414382D01*
X7876638Y2396055D01*
X7931620D01*
X7894965D02*
X7858310Y2359400D01*
X7748346D02*
X7821655D01*
X7748346Y2432710D01*
Y2451037D01*
X7766673Y2469364D01*
X7803328D01*
X7821655Y2451037D01*
X7711691Y2359400D02*
X7675036D01*
X7693364D01*
Y2469364D01*
X7711691Y2451037D01*
X7620054Y2341073D02*
X7546744D01*
X7510089Y2469364D02*
Y2359400D01*
X7473435Y2396055D01*
X7436780Y2359400D01*
Y2469364D01*
X7326815Y2451037D02*
X7345143Y2469364D01*
X7381798D01*
X7400125Y2451037D01*
Y2432710D01*
X7381798Y2414382D01*
X7345143D01*
X7326815Y2396055D01*
Y2377727D01*
X7345143Y2359400D01*
X7381798D01*
X7400125Y2377727D01*
X7290160Y2469364D02*
X7216851D01*
Y2451037D01*
X7290160Y2377727D01*
Y2359400D01*
X8556104Y2393890D02*
Y2503854D01*
X8501122D01*
X8482795Y2485527D01*
Y2448872D01*
X8501122Y2430545D01*
X8556104D01*
X8519450D02*
X8482795Y2393890D01*
X8372830D02*
X8446140D01*
X8372830Y2467200D01*
Y2485527D01*
X8391157Y2503854D01*
X8427812D01*
X8446140Y2485527D01*
X8336175Y2393890D02*
X8299521D01*
X8317848D01*
Y2503854D01*
X8336175Y2485527D01*
X8244538Y2375562D02*
X8171229D01*
X8134574Y2503854D02*
Y2393890D01*
X8097919Y2430545D01*
X8061264Y2393890D01*
Y2503854D01*
X7951300Y2485527D02*
X7969627Y2503854D01*
X8006282D01*
X8024609Y2485527D01*
Y2467200D01*
X8006282Y2448872D01*
X7969627D01*
X7951300Y2430545D01*
Y2412217D01*
X7969627Y2393890D01*
X8006282D01*
X8024609Y2412217D01*
X7841335Y2503854D02*
X7877990Y2485527D01*
X7914645Y2448872D01*
Y2412217D01*
X7896317Y2393890D01*
X7859662D01*
X7841335Y2412217D01*
Y2430545D01*
X7859662Y2448872D01*
X7914645D01*
X7682700Y2359400D02*
Y2469364D01*
X7627718D01*
X7609390Y2451037D01*
Y2414382D01*
X7627718Y2396055D01*
X7682700D01*
X7646045D02*
X7609390Y2359400D01*
X7499426D02*
X7572735D01*
X7499426Y2432710D01*
Y2451037D01*
X7517753Y2469364D01*
X7554408D01*
X7572735Y2451037D01*
X7462771Y2359400D02*
X7426116D01*
X7444444D01*
Y2469364D01*
X7462771Y2451037D01*
X7371134Y2341073D02*
X7297824D01*
X7261169Y2469364D02*
Y2359400D01*
X7224515Y2396055D01*
X7187860Y2359400D01*
Y2469364D01*
X7077895Y2451037D02*
X7096223Y2469364D01*
X7132878D01*
X7151205Y2451037D01*
Y2432710D01*
X7132878Y2414382D01*
X7096223D01*
X7077895Y2396055D01*
Y2377727D01*
X7096223Y2359400D01*
X7132878D01*
X7151205Y2377727D01*
X6967931Y2469364D02*
X7041240D01*
Y2414382D01*
X7004586Y2432710D01*
X6986258D01*
X6967931Y2414382D01*
Y2377727D01*
X6986258Y2359400D01*
X7022913D01*
X7041240Y2377727D01*
X7555700Y2359400D02*
Y2469364D01*
X7500718D01*
X7482390Y2451037D01*
Y2414382D01*
X7500718Y2396055D01*
X7555700D01*
X7519045D02*
X7482390Y2359400D01*
X7372426D02*
X7445735D01*
X7372426Y2432710D01*
Y2451037D01*
X7390753Y2469364D01*
X7427408D01*
X7445735Y2451037D01*
X7335771Y2359400D02*
X7299116D01*
X7317444D01*
Y2469364D01*
X7335771Y2451037D01*
X7244134Y2341073D02*
X7170824D01*
X7134169Y2469364D02*
Y2359400D01*
X7097515Y2396055D01*
X7060860Y2359400D01*
Y2469364D01*
X6950895Y2451037D02*
X6969223Y2469364D01*
X7005878D01*
X7024205Y2451037D01*
Y2432710D01*
X7005878Y2414382D01*
X6969223D01*
X6950895Y2396055D01*
Y2377727D01*
X6969223Y2359400D01*
X7005878D01*
X7024205Y2377727D01*
X6859258Y2359400D02*
Y2469364D01*
X6914240Y2414382D01*
X6840931D01*
X7431240Y2359400D02*
Y2469364D01*
X7376258D01*
X7357930Y2451037D01*
Y2414382D01*
X7376258Y2396055D01*
X7431240D01*
X7394585D02*
X7357930Y2359400D01*
X7247966D02*
X7321275D01*
X7247966Y2432710D01*
Y2451037D01*
X7266293Y2469364D01*
X7302948D01*
X7321275Y2451037D01*
X7211311Y2359400D02*
X7174656D01*
X7192984D01*
Y2469364D01*
X7211311Y2451037D01*
X7119674Y2341073D02*
X7046364D01*
X7009709Y2469364D02*
Y2359400D01*
X6973055Y2396055D01*
X6936400Y2359400D01*
Y2469364D01*
X6826435Y2451037D02*
X6844763Y2469364D01*
X6881418D01*
X6899745Y2451037D01*
Y2432710D01*
X6881418Y2414382D01*
X6844763D01*
X6826435Y2396055D01*
Y2377727D01*
X6844763Y2359400D01*
X6881418D01*
X6899745Y2377727D01*
X6789780Y2451037D02*
X6771453Y2469364D01*
X6734798D01*
X6716471Y2451037D01*
Y2432710D01*
X6734798Y2414382D01*
X6753126D01*
X6734798D01*
X6716471Y2396055D01*
Y2377727D01*
X6734798Y2359400D01*
X6771453D01*
X6789780Y2377727D01*
X7306780Y2359400D02*
Y2469364D01*
X7251798D01*
X7233470Y2451037D01*
Y2414382D01*
X7251798Y2396055D01*
X7306780D01*
X7270125D02*
X7233470Y2359400D01*
X7123506D02*
X7196815D01*
X7123506Y2432710D01*
Y2451037D01*
X7141833Y2469364D01*
X7178488D01*
X7196815Y2451037D01*
X7086851Y2359400D02*
X7050196D01*
X7068524D01*
Y2469364D01*
X7086851Y2451037D01*
X6995214Y2341073D02*
X6921904D01*
X6885249Y2469364D02*
Y2359400D01*
X6848595Y2396055D01*
X6811940Y2359400D01*
Y2469364D01*
X6701975Y2451037D02*
X6720303Y2469364D01*
X6756958D01*
X6775285Y2451037D01*
Y2432710D01*
X6756958Y2414382D01*
X6720303D01*
X6701975Y2396055D01*
Y2377727D01*
X6720303Y2359400D01*
X6756958D01*
X6775285Y2377727D01*
X6592011Y2359400D02*
X6665320D01*
X6592011Y2432710D01*
Y2451037D01*
X6610338Y2469364D01*
X6646993D01*
X6665320Y2451037D01*
X7182320Y2359400D02*
Y2469364D01*
X7127338D01*
X7109010Y2451037D01*
Y2414382D01*
X7127338Y2396055D01*
X7182320D01*
X7145665D02*
X7109010Y2359400D01*
X6999046D02*
X7072355D01*
X6999046Y2432710D01*
Y2451037D01*
X7017373Y2469364D01*
X7054028D01*
X7072355Y2451037D01*
X6962391Y2359400D02*
X6925736D01*
X6944064D01*
Y2469364D01*
X6962391Y2451037D01*
X6870754Y2341073D02*
X6797444D01*
X6760789Y2469364D02*
Y2359400D01*
X6724135Y2396055D01*
X6687480Y2359400D01*
Y2469364D01*
X6577515Y2451037D02*
X6595843Y2469364D01*
X6632498D01*
X6650825Y2451037D01*
Y2432710D01*
X6632498Y2414382D01*
X6595843D01*
X6577515Y2396055D01*
Y2377727D01*
X6595843Y2359400D01*
X6632498D01*
X6650825Y2377727D01*
X6540860Y2359400D02*
X6504206D01*
X6522533D01*
Y2469364D01*
X6540860Y2451037D01*
X7689132Y4204428D02*
Y4094463D01*
X7744114D01*
X7762442Y4112791D01*
Y4149446D01*
X7744114Y4167773D01*
X7689132D01*
X7725787D02*
X7762442Y4204428D01*
X7799096D02*
X7835751D01*
X7817424D01*
Y4094463D01*
X7799096Y4112791D01*
X7890734Y4094463D02*
X7964043D01*
Y4112791D01*
X7890734Y4186101D01*
Y4204428D01*
X8000698Y4222755D02*
X8074008D01*
X8183972Y4112791D02*
X8165645Y4094463D01*
X8128990D01*
X8110662Y4112791D01*
Y4131118D01*
X8128990Y4149446D01*
X8165645D01*
X8183972Y4167773D01*
Y4186101D01*
X8165645Y4204428D01*
X8128990D01*
X8110662Y4186101D01*
X8220627Y4094463D02*
X8257282D01*
X8238954D01*
Y4204428D01*
X8220627D01*
X8257282D01*
X8312264D02*
X8348919D01*
X8330591D01*
Y4094463D01*
X8312264Y4112791D01*
X7275777Y3469068D02*
X7385742D01*
Y3524050D01*
X7367414Y3542378D01*
X7330760D01*
X7312432Y3524050D01*
Y3469068D01*
Y3505723D02*
X7275777Y3542378D01*
Y3579032D02*
Y3615687D01*
Y3597360D01*
X7385742D01*
X7367414Y3579032D01*
X7385742Y3670670D02*
Y3743979D01*
X7367414D01*
X7294105Y3670670D01*
X7275777D01*
X7257450Y3780634D02*
Y3853944D01*
X7367414Y3963908D02*
X7385742Y3945581D01*
Y3908926D01*
X7367414Y3890599D01*
X7349087D01*
X7330760Y3908926D01*
Y3945581D01*
X7312432Y3963908D01*
X7294105D01*
X7275777Y3945581D01*
Y3908926D01*
X7294105Y3890599D01*
X7385742Y4000563D02*
Y4037218D01*
Y4018890D01*
X7275777D01*
Y4000563D01*
Y4037218D01*
X7367414Y4092200D02*
X7385742Y4110527D01*
Y4147182D01*
X7367414Y4165510D01*
X7294105D01*
X7275777Y4147182D01*
Y4110527D01*
X7294105Y4092200D01*
X7367414D01*
X7763980Y4466962D02*
Y4576927D01*
X7708998D01*
X7690670Y4558599D01*
Y4521944D01*
X7708998Y4503617D01*
X7763980D01*
X7727325D02*
X7690670Y4466962D01*
X7654015D02*
X7617361D01*
X7635688D01*
Y4576927D01*
X7654015Y4558599D01*
X7562378D02*
X7544051Y4576927D01*
X7507396D01*
X7489069Y4558599D01*
Y4540272D01*
X7507396Y4521944D01*
X7525724D01*
X7507396D01*
X7489069Y4503617D01*
Y4485289D01*
X7507396Y4466962D01*
X7544051D01*
X7562378Y4485289D01*
X7452414Y4448635D02*
X7379104D01*
X7269140Y4558599D02*
X7287467Y4576927D01*
X7324122D01*
X7342449Y4558599D01*
Y4540272D01*
X7324122Y4521944D01*
X7287467D01*
X7269140Y4503617D01*
Y4485289D01*
X7287467Y4466962D01*
X7324122D01*
X7342449Y4485289D01*
X7232485Y4576927D02*
X7195830D01*
X7214158D01*
Y4466962D01*
X7232485D01*
X7195830D01*
X7140848D02*
X7104193D01*
X7122520D01*
Y4576927D01*
X7140848Y4558599D01*
X7413460Y3992620D02*
Y4102584D01*
X7358478D01*
X7340150Y4084257D01*
Y4047602D01*
X7358478Y4029275D01*
X7413460D01*
X7376805D02*
X7340150Y3992620D01*
X7303495D02*
X7266841D01*
X7285168D01*
Y4102584D01*
X7303495Y4084257D01*
X7211858D02*
X7193531Y4102584D01*
X7156876D01*
X7138549Y4084257D01*
Y4065930D01*
X7156876Y4047602D01*
X7175204D01*
X7156876D01*
X7138549Y4029275D01*
Y4010947D01*
X7156876Y3992620D01*
X7193531D01*
X7211858Y4010947D01*
X7101894Y3974293D02*
X7028584D01*
X6918620Y4084257D02*
X6936947Y4102584D01*
X6973602D01*
X6991929Y4084257D01*
Y4065930D01*
X6973602Y4047602D01*
X6936947D01*
X6918620Y4029275D01*
Y4010947D01*
X6936947Y3992620D01*
X6973602D01*
X6991929Y4010947D01*
X6881965Y4102584D02*
X6845310D01*
X6863638D01*
Y3992620D01*
X6881965D01*
X6845310D01*
X6790328Y4084257D02*
X6772000Y4102584D01*
X6735345D01*
X6717018Y4084257D01*
Y4010947D01*
X6735345Y3992620D01*
X6772000D01*
X6790328Y4010947D01*
Y4084257D01*
X3295016Y3399863D02*
X3404980D01*
Y3326553D01*
Y3289898D02*
Y3253244D01*
Y3271571D01*
X3295016D01*
X3313343Y3289898D01*
X3404980Y3124952D02*
Y3198261D01*
X3331671Y3124952D01*
X3313343D01*
X3295016Y3143279D01*
Y3179934D01*
X3313343Y3198261D01*
X191576Y6468477D02*
Y6541787D01*
X246558D01*
Y6505132D01*
Y6541787D01*
X301540D01*
Y6358513D02*
Y6431822D01*
X228230Y6358513D01*
X209903D01*
X191576Y6376840D01*
Y6413495D01*
X209903Y6431822D01*
X1750000Y7447479D02*
X1823310D01*
Y7392497D01*
X1786655D01*
X1823310D01*
Y7337515D01*
X1713345D02*
X1676690D01*
X1695018D01*
Y7447479D01*
X1713345Y7429152D01*
X1439258Y1630380D02*
X1549223D01*
Y1575398D01*
X1530895Y1557071D01*
X1457586D01*
X1439258Y1575398D01*
Y1630380D01*
X1549223Y1520416D02*
Y1483761D01*
Y1502088D01*
X1439258D01*
X1457586Y1520416D01*
X1549223Y1428779D02*
Y1392124D01*
Y1410451D01*
X1439258D01*
X1457586Y1428779D01*
X2348534Y1638336D02*
X2458498D01*
Y1583353D01*
X2440171Y1565026D01*
X2366861D01*
X2348534Y1583353D01*
Y1638336D01*
X2458498Y1528371D02*
Y1491716D01*
Y1510044D01*
X2348534D01*
X2366861Y1528371D01*
Y1436734D02*
X2348534Y1418407D01*
Y1381752D01*
X2366861Y1363424D01*
X2440171D01*
X2458498Y1381752D01*
Y1418407D01*
X2440171Y1436734D01*
X2366861D01*
X3901340Y3387399D02*
X4011305D01*
Y3332417D01*
X3992978Y3314089D01*
X3919668D01*
X3901340Y3332417D01*
Y3387399D01*
X3992978Y3277435D02*
X4011305Y3259107D01*
Y3222452D01*
X3992978Y3204125D01*
X3919668D01*
X3901340Y3222452D01*
Y3259107D01*
X3919668Y3277435D01*
X3937995D01*
X3956323Y3259107D01*
Y3204125D01*
X3720019Y3378137D02*
X3829983D01*
Y3323155D01*
X3811656Y3304827D01*
X3738346D01*
X3720019Y3323155D01*
Y3378137D01*
X3738346Y3268173D02*
X3720019Y3249845D01*
Y3213190D01*
X3738346Y3194863D01*
X3756674D01*
X3775001Y3213190D01*
X3793329Y3194863D01*
X3811656D01*
X3829983Y3213190D01*
Y3249845D01*
X3811656Y3268173D01*
X3793329D01*
X3775001Y3249845D01*
X3756674Y3268173D01*
X3738346D01*
X3775001Y3249845D02*
Y3213190D01*
X244995Y5961411D02*
X135030D01*
Y6016394D01*
X153358Y6034721D01*
X226668D01*
X244995Y6016394D01*
Y5961411D01*
Y6144685D02*
Y6071376D01*
X190013D01*
X208340Y6108030D01*
Y6126358D01*
X190013Y6144685D01*
X153358D01*
X135030Y6126358D01*
Y6089703D01*
X153358Y6071376D01*
X10966920Y7209004D02*
Y7099040D01*
X10911938D01*
X10893610Y7117367D01*
Y7190677D01*
X10911938Y7209004D01*
X10966920D01*
X10856955Y7190677D02*
X10838628Y7209004D01*
X10801973D01*
X10783646Y7190677D01*
Y7172350D01*
X10801973Y7154022D01*
X10820301D01*
X10801973D01*
X10783646Y7135695D01*
Y7117367D01*
X10801973Y7099040D01*
X10838628D01*
X10856955Y7117367D01*
X10746991Y7080713D02*
X10673681D01*
X10637026Y7209004D02*
Y7099040D01*
X10600372Y7135695D01*
X10563717Y7099040D01*
Y7209004D01*
X10453752Y7190677D02*
X10472080Y7209004D01*
X10508735D01*
X10527062Y7190677D01*
Y7172350D01*
X10508735Y7154022D01*
X10472080D01*
X10453752Y7135695D01*
Y7117367D01*
X10472080Y7099040D01*
X10508735D01*
X10527062Y7117367D01*
X10343788Y7099040D02*
X10417098D01*
X10343788Y7172350D01*
Y7190677D01*
X10362115Y7209004D01*
X10398770D01*
X10417098Y7190677D01*
X10307133D02*
X10288806Y7209004D01*
X10252151D01*
X10233823Y7190677D01*
Y7117367D01*
X10252151Y7099040D01*
X10288806D01*
X10307133Y7117367D01*
Y7190677D01*
X10585920Y7209004D02*
Y7099040D01*
X10530938D01*
X10512610Y7117367D01*
Y7190677D01*
X10530938Y7209004D01*
X10585920D01*
X10475955Y7190677D02*
X10457628Y7209004D01*
X10420973D01*
X10402646Y7190677D01*
Y7172350D01*
X10420973Y7154022D01*
X10439301D01*
X10420973D01*
X10402646Y7135695D01*
Y7117367D01*
X10420973Y7099040D01*
X10457628D01*
X10475955Y7117367D01*
X10365991Y7080713D02*
X10292681D01*
X10256026Y7209004D02*
Y7099040D01*
X10219372Y7135695D01*
X10182717Y7099040D01*
Y7209004D01*
X10072752Y7190677D02*
X10091080Y7209004D01*
X10127735D01*
X10146062Y7190677D01*
Y7172350D01*
X10127735Y7154022D01*
X10091080D01*
X10072752Y7135695D01*
Y7117367D01*
X10091080Y7099040D01*
X10127735D01*
X10146062Y7117367D01*
X10036098Y7099040D02*
X9999443D01*
X10017770D01*
Y7209004D01*
X10036098Y7190677D01*
X9944460Y7117367D02*
X9926133Y7099040D01*
X9889478D01*
X9871151Y7117367D01*
Y7190677D01*
X9889478Y7209004D01*
X9926133D01*
X9944460Y7190677D01*
Y7172350D01*
X9926133Y7154022D01*
X9871151D01*
X10204920Y7209004D02*
Y7099040D01*
X10149938D01*
X10131610Y7117367D01*
Y7190677D01*
X10149938Y7209004D01*
X10204920D01*
X10094955Y7190677D02*
X10076628Y7209004D01*
X10039973D01*
X10021646Y7190677D01*
Y7172350D01*
X10039973Y7154022D01*
X10058301D01*
X10039973D01*
X10021646Y7135695D01*
Y7117367D01*
X10039973Y7099040D01*
X10076628D01*
X10094955Y7117367D01*
X9984991Y7080713D02*
X9911681D01*
X9875026Y7209004D02*
Y7099040D01*
X9838372Y7135695D01*
X9801717Y7099040D01*
Y7209004D01*
X9691752Y7190677D02*
X9710080Y7209004D01*
X9746735D01*
X9765062Y7190677D01*
Y7172350D01*
X9746735Y7154022D01*
X9710080D01*
X9691752Y7135695D01*
Y7117367D01*
X9710080Y7099040D01*
X9746735D01*
X9765062Y7117367D01*
X9655098Y7099040D02*
X9618443D01*
X9636770D01*
Y7209004D01*
X9655098Y7190677D01*
X9563460D02*
X9545133Y7209004D01*
X9508478D01*
X9490151Y7190677D01*
Y7172350D01*
X9508478Y7154022D01*
X9490151Y7135695D01*
Y7117367D01*
X9508478Y7099040D01*
X9545133D01*
X9563460Y7117367D01*
Y7135695D01*
X9545133Y7154022D01*
X9563460Y7172350D01*
Y7190677D01*
X9545133Y7154022D02*
X9508478D01*
X9823920Y7209004D02*
Y7099040D01*
X9768938D01*
X9750610Y7117367D01*
Y7190677D01*
X9768938Y7209004D01*
X9823920D01*
X9713955Y7190677D02*
X9695628Y7209004D01*
X9658973D01*
X9640646Y7190677D01*
Y7172350D01*
X9658973Y7154022D01*
X9677301D01*
X9658973D01*
X9640646Y7135695D01*
Y7117367D01*
X9658973Y7099040D01*
X9695628D01*
X9713955Y7117367D01*
X9603991Y7080713D02*
X9530681D01*
X9494026Y7209004D02*
Y7099040D01*
X9457372Y7135695D01*
X9420717Y7099040D01*
Y7209004D01*
X9310752Y7190677D02*
X9329080Y7209004D01*
X9365735D01*
X9384062Y7190677D01*
Y7172350D01*
X9365735Y7154022D01*
X9329080D01*
X9310752Y7135695D01*
Y7117367D01*
X9329080Y7099040D01*
X9365735D01*
X9384062Y7117367D01*
X9274098Y7099040D02*
X9237443D01*
X9255770D01*
Y7209004D01*
X9274098Y7190677D01*
X9182460Y7209004D02*
X9109151D01*
Y7190677D01*
X9182460Y7117367D01*
Y7099040D01*
X9442920Y7209004D02*
Y7099040D01*
X9387938D01*
X9369610Y7117367D01*
Y7190677D01*
X9387938Y7209004D01*
X9442920D01*
X9332955Y7190677D02*
X9314628Y7209004D01*
X9277973D01*
X9259646Y7190677D01*
Y7172350D01*
X9277973Y7154022D01*
X9296301D01*
X9277973D01*
X9259646Y7135695D01*
Y7117367D01*
X9277973Y7099040D01*
X9314628D01*
X9332955Y7117367D01*
X9222991Y7080713D02*
X9149681D01*
X9113026Y7209004D02*
Y7099040D01*
X9076372Y7135695D01*
X9039717Y7099040D01*
Y7209004D01*
X8929752Y7190677D02*
X8948080Y7209004D01*
X8984735D01*
X9003062Y7190677D01*
Y7172350D01*
X8984735Y7154022D01*
X8948080D01*
X8929752Y7135695D01*
Y7117367D01*
X8948080Y7099040D01*
X8984735D01*
X9003062Y7117367D01*
X8893098Y7099040D02*
X8856443D01*
X8874770D01*
Y7209004D01*
X8893098Y7190677D01*
X8728151Y7209004D02*
X8764806Y7190677D01*
X8801460Y7154022D01*
Y7117367D01*
X8783133Y7099040D01*
X8746478D01*
X8728151Y7117367D01*
Y7135695D01*
X8746478Y7154022D01*
X8801460D01*
X9069540Y7209004D02*
Y7099040D01*
X9014558D01*
X8996230Y7117367D01*
Y7190677D01*
X9014558Y7209004D01*
X9069540D01*
X8959575Y7190677D02*
X8941248Y7209004D01*
X8904593D01*
X8886266Y7190677D01*
Y7172350D01*
X8904593Y7154022D01*
X8922921D01*
X8904593D01*
X8886266Y7135695D01*
Y7117367D01*
X8904593Y7099040D01*
X8941248D01*
X8959575Y7117367D01*
X8849611Y7080713D02*
X8776301D01*
X8739646Y7209004D02*
Y7099040D01*
X8702992Y7135695D01*
X8666337Y7099040D01*
Y7209004D01*
X8556372Y7190677D02*
X8574700Y7209004D01*
X8611355D01*
X8629682Y7190677D01*
Y7172350D01*
X8611355Y7154022D01*
X8574700D01*
X8556372Y7135695D01*
Y7117367D01*
X8574700Y7099040D01*
X8611355D01*
X8629682Y7117367D01*
X8519718Y7099040D02*
X8483063D01*
X8501390D01*
Y7209004D01*
X8519718Y7190677D01*
X8354771Y7209004D02*
X8428080D01*
Y7154022D01*
X8391426Y7172350D01*
X8373098D01*
X8354771Y7154022D01*
Y7117367D01*
X8373098Y7099040D01*
X8409753D01*
X8428080Y7117367D01*
X8680920Y7209004D02*
Y7099040D01*
X8625938D01*
X8607610Y7117367D01*
Y7190677D01*
X8625938Y7209004D01*
X8680920D01*
X8570955Y7190677D02*
X8552628Y7209004D01*
X8515973D01*
X8497646Y7190677D01*
Y7172350D01*
X8515973Y7154022D01*
X8534301D01*
X8515973D01*
X8497646Y7135695D01*
Y7117367D01*
X8515973Y7099040D01*
X8552628D01*
X8570955Y7117367D01*
X8460991Y7080713D02*
X8387681D01*
X8351026Y7209004D02*
Y7099040D01*
X8314372Y7135695D01*
X8277717Y7099040D01*
Y7209004D01*
X8167752Y7190677D02*
X8186080Y7209004D01*
X8222735D01*
X8241062Y7190677D01*
Y7172350D01*
X8222735Y7154022D01*
X8186080D01*
X8167752Y7135695D01*
Y7117367D01*
X8186080Y7099040D01*
X8222735D01*
X8241062Y7117367D01*
X8131098Y7099040D02*
X8094443D01*
X8112770D01*
Y7209004D01*
X8131098Y7190677D01*
X7984478Y7099040D02*
Y7209004D01*
X8039460Y7154022D01*
X7966151D01*
X8299920Y7209004D02*
Y7099040D01*
X8244938D01*
X8226610Y7117367D01*
Y7190677D01*
X8244938Y7209004D01*
X8299920D01*
X8189955Y7190677D02*
X8171628Y7209004D01*
X8134973D01*
X8116646Y7190677D01*
Y7172350D01*
X8134973Y7154022D01*
X8153301D01*
X8134973D01*
X8116646Y7135695D01*
Y7117367D01*
X8134973Y7099040D01*
X8171628D01*
X8189955Y7117367D01*
X8079991Y7080713D02*
X8006681D01*
X7970026Y7209004D02*
Y7099040D01*
X7933372Y7135695D01*
X7896717Y7099040D01*
Y7209004D01*
X7786752Y7190677D02*
X7805080Y7209004D01*
X7841735D01*
X7860062Y7190677D01*
Y7172350D01*
X7841735Y7154022D01*
X7805080D01*
X7786752Y7135695D01*
Y7117367D01*
X7805080Y7099040D01*
X7841735D01*
X7860062Y7117367D01*
X7750098Y7099040D02*
X7713443D01*
X7731770D01*
Y7209004D01*
X7750098Y7190677D01*
X7658460D02*
X7640133Y7209004D01*
X7603478D01*
X7585151Y7190677D01*
Y7172350D01*
X7603478Y7154022D01*
X7621806D01*
X7603478D01*
X7585151Y7135695D01*
Y7117367D01*
X7603478Y7099040D01*
X7640133D01*
X7658460Y7117367D01*
X7913840Y7209004D02*
Y7099040D01*
X7858858D01*
X7840530Y7117367D01*
Y7190677D01*
X7858858Y7209004D01*
X7913840D01*
X7803875Y7190677D02*
X7785548Y7209004D01*
X7748893D01*
X7730566Y7190677D01*
Y7172350D01*
X7748893Y7154022D01*
X7767221D01*
X7748893D01*
X7730566Y7135695D01*
Y7117367D01*
X7748893Y7099040D01*
X7785548D01*
X7803875Y7117367D01*
X7693911Y7080713D02*
X7620601D01*
X7583946Y7209004D02*
Y7099040D01*
X7547292Y7135695D01*
X7510637Y7099040D01*
Y7209004D01*
X7400672Y7190677D02*
X7419000Y7209004D01*
X7455655D01*
X7473982Y7190677D01*
Y7172350D01*
X7455655Y7154022D01*
X7419000D01*
X7400672Y7135695D01*
Y7117367D01*
X7419000Y7099040D01*
X7455655D01*
X7473982Y7117367D01*
X7364018Y7099040D02*
X7327363D01*
X7345690D01*
Y7209004D01*
X7364018Y7190677D01*
X7199071Y7099040D02*
X7272380D01*
X7199071Y7172350D01*
Y7190677D01*
X7217398Y7209004D01*
X7254053D01*
X7272380Y7190677D01*
X7135901Y6420910D02*
Y6530875D01*
X7190884D01*
X7209211Y6512547D01*
Y6439238D01*
X7190884Y6420910D01*
X7135901D01*
X7245866Y6439238D02*
X7264193Y6420910D01*
X7300848D01*
X7319176Y6439238D01*
Y6457565D01*
X7300848Y6475892D01*
X7282521D01*
X7300848D01*
X7319176Y6494220D01*
Y6512547D01*
X7300848Y6530875D01*
X7264193D01*
X7245866Y6512547D01*
X7355830Y6549202D02*
X7429140D01*
X7465795Y6420910D02*
Y6530875D01*
X7502450Y6494220D01*
X7539105Y6530875D01*
Y6420910D01*
X7649069Y6439238D02*
X7630742Y6420910D01*
X7594087D01*
X7575759Y6439238D01*
Y6457565D01*
X7594087Y6475892D01*
X7630742D01*
X7649069Y6494220D01*
Y6512547D01*
X7630742Y6530875D01*
X7594087D01*
X7575759Y6512547D01*
X7685724Y6530875D02*
X7722379D01*
X7704051D01*
Y6420910D01*
X7685724Y6439238D01*
X7777361Y6530875D02*
X7814016D01*
X7795688D01*
Y6420910D01*
X7777361Y6439238D01*
X10987240Y1460984D02*
Y1351020D01*
X10932258D01*
X10913930Y1369347D01*
Y1442657D01*
X10932258Y1460984D01*
X10987240D01*
X10877275Y1442657D02*
X10858948Y1460984D01*
X10822293D01*
X10803966Y1442657D01*
Y1424330D01*
X10822293Y1406002D01*
X10840621D01*
X10822293D01*
X10803966Y1387675D01*
Y1369347D01*
X10822293Y1351020D01*
X10858948D01*
X10877275Y1369347D01*
X10767311Y1332693D02*
X10694001D01*
X10657346Y1460984D02*
Y1351020D01*
X10620692Y1387675D01*
X10584037Y1351020D01*
Y1460984D01*
X10474072Y1442657D02*
X10492400Y1460984D01*
X10529055D01*
X10547382Y1442657D01*
Y1424330D01*
X10529055Y1406002D01*
X10492400D01*
X10474072Y1387675D01*
Y1369347D01*
X10492400Y1351020D01*
X10529055D01*
X10547382Y1369347D01*
X10437418Y1351020D02*
X10400763D01*
X10419090D01*
Y1460984D01*
X10437418Y1442657D01*
X10345780D02*
X10327453Y1460984D01*
X10290798D01*
X10272471Y1442657D01*
Y1369347D01*
X10290798Y1351020D01*
X10327453D01*
X10345780Y1369347D01*
Y1442657D01*
X10611320Y1460984D02*
Y1351020D01*
X10556338D01*
X10538010Y1369347D01*
Y1442657D01*
X10556338Y1460984D01*
X10611320D01*
X10501355Y1442657D02*
X10483028Y1460984D01*
X10446373D01*
X10428046Y1442657D01*
Y1424330D01*
X10446373Y1406002D01*
X10464701D01*
X10446373D01*
X10428046Y1387675D01*
Y1369347D01*
X10446373Y1351020D01*
X10483028D01*
X10501355Y1369347D01*
X10391391Y1332693D02*
X10318081D01*
X10281426Y1460984D02*
Y1351020D01*
X10244772Y1387675D01*
X10208117Y1351020D01*
Y1460984D01*
X10098152Y1442657D02*
X10116480Y1460984D01*
X10153135D01*
X10171462Y1442657D01*
Y1424330D01*
X10153135Y1406002D01*
X10116480D01*
X10098152Y1387675D01*
Y1369347D01*
X10116480Y1351020D01*
X10153135D01*
X10171462Y1369347D01*
X10061498D02*
X10043170Y1351020D01*
X10006515D01*
X9988188Y1369347D01*
Y1442657D01*
X10006515Y1460984D01*
X10043170D01*
X10061498Y1442657D01*
Y1424330D01*
X10043170Y1406002D01*
X9988188D01*
X9458914Y656874D02*
Y766838D01*
X9513896D01*
X9532224Y748511D01*
Y675201D01*
X9513896Y656874D01*
X9458914D01*
X9568878Y675201D02*
X9587206Y656874D01*
X9623861D01*
X9642188Y675201D01*
Y693528D01*
X9623861Y711856D01*
X9605533D01*
X9623861D01*
X9642188Y730183D01*
Y748511D01*
X9623861Y766838D01*
X9587206D01*
X9568878Y748511D01*
X9678843Y785166D02*
X9752153D01*
X9788807Y656874D02*
Y766838D01*
X9825462Y730183D01*
X9862117Y766838D01*
Y656874D01*
X9972082Y675201D02*
X9953754Y656874D01*
X9917099D01*
X9898772Y675201D01*
Y693528D01*
X9917099Y711856D01*
X9953754D01*
X9972082Y730183D01*
Y748511D01*
X9953754Y766838D01*
X9917099D01*
X9898772Y748511D01*
X10008736Y675201D02*
X10027064Y656874D01*
X10063719D01*
X10082046Y675201D01*
Y693528D01*
X10063719Y711856D01*
X10082046Y730183D01*
Y748511D01*
X10063719Y766838D01*
X10027064D01*
X10008736Y748511D01*
Y730183D01*
X10027064Y711856D01*
X10008736Y693528D01*
Y675201D01*
X10027064Y711856D02*
X10063719D01*
X9836620Y1460984D02*
Y1351020D01*
X9781638D01*
X9763310Y1369347D01*
Y1442657D01*
X9781638Y1460984D01*
X9836620D01*
X9726655Y1442657D02*
X9708328Y1460984D01*
X9671673D01*
X9653346Y1442657D01*
Y1424330D01*
X9671673Y1406002D01*
X9690001D01*
X9671673D01*
X9653346Y1387675D01*
Y1369347D01*
X9671673Y1351020D01*
X9708328D01*
X9726655Y1369347D01*
X9616691Y1332693D02*
X9543381D01*
X9506726Y1460984D02*
Y1351020D01*
X9470072Y1387675D01*
X9433417Y1351020D01*
Y1460984D01*
X9323452Y1442657D02*
X9341780Y1460984D01*
X9378435D01*
X9396762Y1442657D01*
Y1424330D01*
X9378435Y1406002D01*
X9341780D01*
X9323452Y1387675D01*
Y1369347D01*
X9341780Y1351020D01*
X9378435D01*
X9396762Y1369347D01*
X9286798Y1460984D02*
X9213488D01*
Y1442657D01*
X9286798Y1369347D01*
Y1351020D01*
X9458160Y1460984D02*
Y1351020D01*
X9403178D01*
X9384850Y1369347D01*
Y1442657D01*
X9403178Y1460984D01*
X9458160D01*
X9348195Y1442657D02*
X9329868Y1460984D01*
X9293213D01*
X9274886Y1442657D01*
Y1424330D01*
X9293213Y1406002D01*
X9311541D01*
X9293213D01*
X9274886Y1387675D01*
Y1369347D01*
X9293213Y1351020D01*
X9329868D01*
X9348195Y1369347D01*
X9238231Y1332693D02*
X9164921D01*
X9128266Y1460984D02*
Y1351020D01*
X9091612Y1387675D01*
X9054957Y1351020D01*
Y1460984D01*
X8944992Y1442657D02*
X8963320Y1460984D01*
X8999975D01*
X9018302Y1442657D01*
Y1424330D01*
X8999975Y1406002D01*
X8963320D01*
X8944992Y1387675D01*
Y1369347D01*
X8963320Y1351020D01*
X8999975D01*
X9018302Y1369347D01*
X8835028Y1460984D02*
X8871683Y1442657D01*
X8908338Y1406002D01*
Y1369347D01*
X8890010Y1351020D01*
X8853355D01*
X8835028Y1369347D01*
Y1387675D01*
X8853355Y1406002D01*
X8908338D01*
X9069540Y1460984D02*
Y1351020D01*
X9014558D01*
X8996230Y1369347D01*
Y1442657D01*
X9014558Y1460984D01*
X9069540D01*
X8959575Y1442657D02*
X8941248Y1460984D01*
X8904593D01*
X8886266Y1442657D01*
Y1424330D01*
X8904593Y1406002D01*
X8922921D01*
X8904593D01*
X8886266Y1387675D01*
Y1369347D01*
X8904593Y1351020D01*
X8941248D01*
X8959575Y1369347D01*
X8849611Y1332693D02*
X8776301D01*
X8739646Y1460984D02*
Y1351020D01*
X8702992Y1387675D01*
X8666337Y1351020D01*
Y1460984D01*
X8556372Y1442657D02*
X8574700Y1460984D01*
X8611355D01*
X8629682Y1442657D01*
Y1424330D01*
X8611355Y1406002D01*
X8574700D01*
X8556372Y1387675D01*
Y1369347D01*
X8574700Y1351020D01*
X8611355D01*
X8629682Y1369347D01*
X8446408Y1460984D02*
X8519718D01*
Y1406002D01*
X8483063Y1424330D01*
X8464735D01*
X8446408Y1406002D01*
Y1369347D01*
X8464735Y1351020D01*
X8501390D01*
X8519718Y1369347D01*
X8686000Y1460984D02*
Y1351020D01*
X8631018D01*
X8612690Y1369347D01*
Y1442657D01*
X8631018Y1460984D01*
X8686000D01*
X8576035Y1442657D02*
X8557708Y1460984D01*
X8521053D01*
X8502726Y1442657D01*
Y1424330D01*
X8521053Y1406002D01*
X8539381D01*
X8521053D01*
X8502726Y1387675D01*
Y1369347D01*
X8521053Y1351020D01*
X8557708D01*
X8576035Y1369347D01*
X8466071Y1332693D02*
X8392761D01*
X8356106Y1460984D02*
Y1351020D01*
X8319452Y1387675D01*
X8282797Y1351020D01*
Y1460984D01*
X8172832Y1442657D02*
X8191160Y1460984D01*
X8227815D01*
X8246142Y1442657D01*
Y1424330D01*
X8227815Y1406002D01*
X8191160D01*
X8172832Y1387675D01*
Y1369347D01*
X8191160Y1351020D01*
X8227815D01*
X8246142Y1369347D01*
X8081195Y1351020D02*
Y1460984D01*
X8136178Y1406002D01*
X8062868D01*
X8312620Y1460984D02*
Y1351020D01*
X8257638D01*
X8239310Y1369347D01*
Y1442657D01*
X8257638Y1460984D01*
X8312620D01*
X8202655Y1442657D02*
X8184328Y1460984D01*
X8147673D01*
X8129346Y1442657D01*
Y1424330D01*
X8147673Y1406002D01*
X8166001D01*
X8147673D01*
X8129346Y1387675D01*
Y1369347D01*
X8147673Y1351020D01*
X8184328D01*
X8202655Y1369347D01*
X8092691Y1332693D02*
X8019381D01*
X7982726Y1460984D02*
Y1351020D01*
X7946072Y1387675D01*
X7909417Y1351020D01*
Y1460984D01*
X7799452Y1442657D02*
X7817780Y1460984D01*
X7854435D01*
X7872762Y1442657D01*
Y1424330D01*
X7854435Y1406002D01*
X7817780D01*
X7799452Y1387675D01*
Y1369347D01*
X7817780Y1351020D01*
X7854435D01*
X7872762Y1369347D01*
X7762798Y1442657D02*
X7744470Y1460984D01*
X7707815D01*
X7689488Y1442657D01*
Y1424330D01*
X7707815Y1406002D01*
X7726143D01*
X7707815D01*
X7689488Y1387675D01*
Y1369347D01*
X7707815Y1351020D01*
X7744470D01*
X7762798Y1369347D01*
X7936700Y1460984D02*
Y1351020D01*
X7881718D01*
X7863390Y1369347D01*
Y1442657D01*
X7881718Y1460984D01*
X7936700D01*
X7826735Y1442657D02*
X7808408Y1460984D01*
X7771753D01*
X7753426Y1442657D01*
Y1424330D01*
X7771753Y1406002D01*
X7790081D01*
X7771753D01*
X7753426Y1387675D01*
Y1369347D01*
X7771753Y1351020D01*
X7808408D01*
X7826735Y1369347D01*
X7716771Y1332693D02*
X7643461D01*
X7606806Y1460984D02*
Y1351020D01*
X7570152Y1387675D01*
X7533497Y1351020D01*
Y1460984D01*
X7423532Y1442657D02*
X7441860Y1460984D01*
X7478515D01*
X7496842Y1442657D01*
Y1424330D01*
X7478515Y1406002D01*
X7441860D01*
X7423532Y1387675D01*
Y1369347D01*
X7441860Y1351020D01*
X7478515D01*
X7496842Y1369347D01*
X7313568Y1351020D02*
X7386878D01*
X7313568Y1424330D01*
Y1442657D01*
X7331895Y1460984D01*
X7368550D01*
X7386878Y1442657D01*
X6851870Y656874D02*
Y766838D01*
X6906853D01*
X6925180Y748511D01*
Y675201D01*
X6906853Y656874D01*
X6851870D01*
X6961835Y675201D02*
X6980162Y656874D01*
X7016817D01*
X7035144Y675201D01*
Y693528D01*
X7016817Y711856D01*
X6998489D01*
X7016817D01*
X7035144Y730183D01*
Y748511D01*
X7016817Y766838D01*
X6980162D01*
X6961835Y748511D01*
X7071799Y785166D02*
X7145109D01*
X7181764Y656874D02*
Y766838D01*
X7218418Y730183D01*
X7255073Y766838D01*
Y656874D01*
X7365038Y675201D02*
X7346710Y656874D01*
X7310055D01*
X7291728Y675201D01*
Y693528D01*
X7310055Y711856D01*
X7346710D01*
X7365038Y730183D01*
Y748511D01*
X7346710Y766838D01*
X7310055D01*
X7291728Y748511D01*
X7401693Y766838D02*
X7438347D01*
X7420020D01*
Y656874D01*
X7401693Y675201D01*
X5113068Y1451187D02*
X5094740Y1469515D01*
Y1506170D01*
X5113068Y1524497D01*
X5186377D01*
X5204705Y1506170D01*
Y1469515D01*
X5186377Y1451187D01*
X5113068Y1414533D02*
X5094740Y1396205D01*
Y1359550D01*
X5113068Y1341223D01*
X5131395D01*
X5149722Y1359550D01*
X5168050Y1341223D01*
X5186377D01*
X5204705Y1359550D01*
Y1396205D01*
X5186377Y1414533D01*
X5168050D01*
X5149722Y1396205D01*
X5131395Y1414533D01*
X5113068D01*
X5149722Y1396205D02*
Y1359550D01*
X5094740Y1231258D02*
X5113068Y1267913D01*
X5149722Y1304568D01*
X5186377D01*
X5204705Y1286241D01*
Y1249586D01*
X5186377Y1231258D01*
X5168050D01*
X5149722Y1249586D01*
Y1304568D01*
X3969570Y1882077D02*
X3987898Y1900404D01*
X4024553D01*
X4042880Y1882077D01*
Y1808767D01*
X4024553Y1790440D01*
X3987898D01*
X3969570Y1808767D01*
X3932915Y1882077D02*
X3914588Y1900404D01*
X3877933D01*
X3859606Y1882077D01*
Y1863750D01*
X3877933Y1845422D01*
X3859606Y1827095D01*
Y1808767D01*
X3877933Y1790440D01*
X3914588D01*
X3932915Y1808767D01*
Y1827095D01*
X3914588Y1845422D01*
X3932915Y1863750D01*
Y1882077D01*
X3914588Y1845422D02*
X3877933D01*
X3767969Y1790440D02*
Y1900404D01*
X3822951Y1845422D01*
X3749641D01*
X3139036Y3112748D02*
X3120709Y3131075D01*
Y3167730D01*
X3139036Y3186058D01*
X3212346D01*
X3230673Y3167730D01*
Y3131075D01*
X3212346Y3112748D01*
X3139036Y3076093D02*
X3120709Y3057766D01*
Y3021111D01*
X3139036Y3002783D01*
X3157363D01*
X3175691Y3021111D01*
X3194018Y3002783D01*
X3212346D01*
X3230673Y3021111D01*
Y3057766D01*
X3212346Y3076093D01*
X3194018D01*
X3175691Y3057766D01*
X3157363Y3076093D01*
X3139036D01*
X3175691Y3057766D02*
Y3021111D01*
X3230673Y2966129D02*
Y2929474D01*
Y2947801D01*
X3120709D01*
X3139036Y2966129D01*
X2642700Y3297377D02*
X2624373Y3315704D01*
Y3352359D01*
X2642700Y3370686D01*
X2716010D01*
X2734337Y3352359D01*
Y3315704D01*
X2716010Y3297377D01*
X2642700Y3260722D02*
X2624373Y3242395D01*
Y3205740D01*
X2642700Y3187412D01*
X2661028D01*
X2679355Y3205740D01*
X2697683Y3187412D01*
X2716010D01*
X2734337Y3205740D01*
Y3242395D01*
X2716010Y3260722D01*
X2697683D01*
X2679355Y3242395D01*
X2661028Y3260722D01*
X2642700D01*
X2679355Y3242395D02*
Y3205740D01*
X2642700Y3150757D02*
X2624373Y3132430D01*
Y3095775D01*
X2642700Y3077448D01*
X2716010D01*
X2734337Y3095775D01*
Y3132430D01*
X2716010Y3150757D01*
X2642700D01*
X2175172Y6526334D02*
X2193499Y6544662D01*
X2230154D01*
X2248482Y6526334D01*
Y6453025D01*
X2230154Y6434697D01*
X2193499D01*
X2175172Y6453025D01*
X2138517Y6544662D02*
X2065207D01*
Y6526334D01*
X2138517Y6453025D01*
Y6434697D01*
X2028553Y6526334D02*
X2010225Y6544662D01*
X1973570D01*
X1955243Y6526334D01*
Y6453025D01*
X1973570Y6434697D01*
X2010225D01*
X2028553Y6453025D01*
Y6526334D01*
X2580808Y6531296D02*
X2599136Y6549623D01*
X2635791D01*
X2654118Y6531296D01*
Y6457986D01*
X2635791Y6439659D01*
X2599136D01*
X2580808Y6457986D01*
X2470844Y6549623D02*
X2507499Y6531296D01*
X2544153Y6494641D01*
Y6457986D01*
X2525826Y6439659D01*
X2489171D01*
X2470844Y6457986D01*
Y6476314D01*
X2489171Y6494641D01*
X2544153D01*
X2434189Y6457986D02*
X2415862Y6439659D01*
X2379207D01*
X2360879Y6457986D01*
Y6531296D01*
X2379207Y6549623D01*
X2415862D01*
X2434189Y6531296D01*
Y6512969D01*
X2415862Y6494641D01*
X2360879D01*
X2519444Y6839792D02*
X2537772Y6858120D01*
X2574427D01*
X2592754Y6839792D01*
Y6766483D01*
X2574427Y6748155D01*
X2537772D01*
X2519444Y6766483D01*
X2409480Y6858120D02*
X2482790D01*
Y6803138D01*
X2446135Y6821465D01*
X2427807D01*
X2409480Y6803138D01*
Y6766483D01*
X2427807Y6748155D01*
X2464462D01*
X2482790Y6766483D01*
X2299515Y6858120D02*
X2372825D01*
Y6803138D01*
X2336170Y6821465D01*
X2317843D01*
X2299515Y6803138D01*
Y6766483D01*
X2317843Y6748155D01*
X2354498D01*
X2372825Y6766483D01*
X2535334Y7377376D02*
X2553661Y7395703D01*
X2590316D01*
X2608644Y7377376D01*
Y7304066D01*
X2590316Y7285739D01*
X2553661D01*
X2535334Y7304066D01*
X2425370Y7395703D02*
X2498679D01*
Y7340721D01*
X2462025Y7359049D01*
X2443697D01*
X2425370Y7340721D01*
Y7304066D01*
X2443697Y7285739D01*
X2480352D01*
X2498679Y7304066D01*
X2333732Y7285739D02*
Y7395703D01*
X2388715Y7340721D01*
X2315405D01*
X3188125Y6883142D02*
X3206453Y6901469D01*
X3243108D01*
X3261435Y6883142D01*
Y6809832D01*
X3243108Y6791505D01*
X3206453D01*
X3188125Y6809832D01*
X3078161Y6901469D02*
X3151470D01*
Y6846487D01*
X3114816Y6864814D01*
X3096488D01*
X3078161Y6846487D01*
Y6809832D01*
X3096488Y6791505D01*
X3133143D01*
X3151470Y6809832D01*
X3041506Y6883142D02*
X3023179Y6901469D01*
X2986524D01*
X2968196Y6883142D01*
Y6809832D01*
X2986524Y6791505D01*
X3023179D01*
X3041506Y6809832D01*
Y6883142D01*
X2875911Y7449787D02*
X2894239Y7468115D01*
X2930894D01*
X2949221Y7449787D01*
Y7376478D01*
X2930894Y7358150D01*
X2894239D01*
X2875911Y7376478D01*
X2784274Y7358150D02*
Y7468115D01*
X2839257Y7413132D01*
X2765947D01*
X2729292Y7468115D02*
X2655982D01*
Y7449787D01*
X2729292Y7376478D01*
Y7358150D01*
X7058210Y4955477D02*
X7076538Y4973804D01*
X7113193D01*
X7131520Y4955477D01*
Y4882167D01*
X7113193Y4863840D01*
X7076538D01*
X7058210Y4882167D01*
X6966573Y4863840D02*
Y4973804D01*
X7021555Y4918822D01*
X6948246D01*
X6838281Y4863840D02*
X6911591D01*
X6838281Y4937150D01*
Y4955477D01*
X6856609Y4973804D01*
X6893264D01*
X6911591Y4955477D01*
X6801626Y4845513D02*
X6728317D01*
X6618352Y4955477D02*
X6636680Y4973804D01*
X6673335D01*
X6691662Y4955477D01*
Y4937150D01*
X6673335Y4918822D01*
X6636680D01*
X6618352Y4900495D01*
Y4882167D01*
X6636680Y4863840D01*
X6673335D01*
X6691662Y4882167D01*
X6581698Y4973804D02*
X6545043D01*
X6563370D01*
Y4863840D01*
X6581698D01*
X6545043D01*
X6490060D02*
X6453406D01*
X6471733D01*
Y4973804D01*
X6490060Y4955477D01*
X10012230Y5366957D02*
X10030558Y5385284D01*
X10067213D01*
X10085540Y5366957D01*
Y5293647D01*
X10067213Y5275320D01*
X10030558D01*
X10012230Y5293647D01*
X9975575Y5366957D02*
X9957248Y5385284D01*
X9920593D01*
X9902266Y5366957D01*
Y5348630D01*
X9920593Y5330302D01*
X9938921D01*
X9920593D01*
X9902266Y5311975D01*
Y5293647D01*
X9920593Y5275320D01*
X9957248D01*
X9975575Y5293647D01*
X9865611D02*
X9847284Y5275320D01*
X9810629D01*
X9792301Y5293647D01*
Y5366957D01*
X9810629Y5385284D01*
X9847284D01*
X9865611Y5366957D01*
Y5348630D01*
X9847284Y5330302D01*
X9792301D01*
X9755646Y5256993D02*
X9682337D01*
X9572372Y5366957D02*
X9590700Y5385284D01*
X9627355D01*
X9645682Y5366957D01*
Y5348630D01*
X9627355Y5330302D01*
X9590700D01*
X9572372Y5311975D01*
Y5293647D01*
X9590700Y5275320D01*
X9627355D01*
X9645682Y5293647D01*
X9535718Y5385284D02*
X9499063D01*
X9517390D01*
Y5275320D01*
X9535718D01*
X9499063D01*
X9444080D02*
X9407426D01*
X9425753D01*
Y5385284D01*
X9444080Y5366957D01*
X8114850Y3548317D02*
X8133178Y3566644D01*
X8169833D01*
X8188160Y3548317D01*
Y3475007D01*
X8169833Y3456680D01*
X8133178D01*
X8114850Y3475007D01*
X8078195Y3548317D02*
X8059868Y3566644D01*
X8023213D01*
X8004886Y3548317D01*
Y3529990D01*
X8023213Y3511662D01*
X8041541D01*
X8023213D01*
X8004886Y3493335D01*
Y3475007D01*
X8023213Y3456680D01*
X8059868D01*
X8078195Y3475007D01*
X7968231D02*
X7949904Y3456680D01*
X7913249D01*
X7894921Y3475007D01*
Y3548317D01*
X7913249Y3566644D01*
X7949904D01*
X7968231Y3548317D01*
Y3529990D01*
X7949904Y3511662D01*
X7894921D01*
X7858266Y3438353D02*
X7784957D01*
X7674992Y3548317D02*
X7693320Y3566644D01*
X7729975D01*
X7748302Y3548317D01*
Y3529990D01*
X7729975Y3511662D01*
X7693320D01*
X7674992Y3493335D01*
Y3475007D01*
X7693320Y3456680D01*
X7729975D01*
X7748302Y3475007D01*
X7638338Y3566644D02*
X7601683D01*
X7620010D01*
Y3456680D01*
X7638338D01*
X7601683D01*
X7546700Y3548317D02*
X7528373Y3566644D01*
X7491718D01*
X7473391Y3548317D01*
Y3475007D01*
X7491718Y3456680D01*
X7528373D01*
X7546700Y3475007D01*
Y3548317D01*
X6690221Y6303292D02*
X6671894Y6321620D01*
Y6358275D01*
X6690221Y6376602D01*
X6763531D01*
X6781858Y6358275D01*
Y6321620D01*
X6763531Y6303292D01*
X6690221Y6266638D02*
X6671894Y6248310D01*
Y6211655D01*
X6690221Y6193328D01*
X6708549D01*
X6726876Y6211655D01*
Y6229983D01*
Y6211655D01*
X6745204Y6193328D01*
X6763531D01*
X6781858Y6211655D01*
Y6248310D01*
X6763531Y6266638D01*
X6690221Y6156673D02*
X6671894Y6138346D01*
Y6101691D01*
X6690221Y6083364D01*
X6708549D01*
X6726876Y6101691D01*
X6745204Y6083364D01*
X6763531D01*
X6781858Y6101691D01*
Y6138346D01*
X6763531Y6156673D01*
X6745204D01*
X6726876Y6138346D01*
X6708549Y6156673D01*
X6690221D01*
X6726876Y6138346D02*
Y6101691D01*
X6800186Y6046709D02*
Y5973399D01*
X6690221Y5863435D02*
X6671894Y5881762D01*
Y5918417D01*
X6690221Y5936744D01*
X6708549D01*
X6726876Y5918417D01*
Y5881762D01*
X6745204Y5863435D01*
X6763531D01*
X6781858Y5881762D01*
Y5918417D01*
X6763531Y5936744D01*
X6671894Y5826780D02*
Y5790125D01*
Y5808452D01*
X6781858D01*
Y5826780D01*
Y5790125D01*
Y5735143D02*
Y5698488D01*
Y5716815D01*
X6671894D01*
X6690221Y5735143D01*
X6938830Y1084517D02*
X6957158Y1102844D01*
X6993813D01*
X7012140Y1084517D01*
Y1011207D01*
X6993813Y992880D01*
X6957158D01*
X6938830Y1011207D01*
X6902175Y1084517D02*
X6883848Y1102844D01*
X6847193D01*
X6828866Y1084517D01*
Y1066190D01*
X6847193Y1047862D01*
X6865521D01*
X6847193D01*
X6828866Y1029535D01*
Y1011207D01*
X6847193Y992880D01*
X6883848D01*
X6902175Y1011207D01*
X6792211Y1084517D02*
X6773884Y1102844D01*
X6737229D01*
X6718901Y1084517D01*
Y1066190D01*
X6737229Y1047862D01*
X6718901Y1029535D01*
Y1011207D01*
X6737229Y992880D01*
X6773884D01*
X6792211Y1011207D01*
Y1029535D01*
X6773884Y1047862D01*
X6792211Y1066190D01*
Y1084517D01*
X6773884Y1047862D02*
X6737229D01*
X6682246Y974553D02*
X6608937D01*
X6498972Y1084517D02*
X6517300Y1102844D01*
X6553955D01*
X6572282Y1084517D01*
Y1066190D01*
X6553955Y1047862D01*
X6517300D01*
X6498972Y1029535D01*
Y1011207D01*
X6517300Y992880D01*
X6553955D01*
X6572282Y1011207D01*
X6462318Y1102844D02*
X6425663D01*
X6443990D01*
Y992880D01*
X6462318D01*
X6425663D01*
X6370680Y1084517D02*
X6352353Y1102844D01*
X6315698D01*
X6297371Y1084517D01*
Y1011207D01*
X6315698Y992880D01*
X6352353D01*
X6370680Y1011207D01*
Y1084517D01*
M02*
