%TF.GenerationSoftware,Altium Limited,Altium Designer,25.4.2 (15)*%
G04 Layer_Color=32896*
%FSLAX45Y45*%
%MOMM*%
%TF.SameCoordinates,A7C97D9D-A6D5-46C4-92C3-49603A3EC6F4*%
%TF.FilePolarity,Positive*%
%TF.FileFunction,Legend,Bot*%
%TF.Part,Single*%
G01*
G75*
%TA.AperFunction,NonConductor*%
%ADD114C,0.20000*%
%ADD115C,0.15000*%
%ADD116C,0.25000*%
%ADD117C,0.10000*%
%ADD120C,0.60000*%
%ADD122C,0.16000*%
%ADD124C,0.25400*%
D114*
X10950003Y6802500D02*
Y6847499D01*
X10660002D02*
X10950003D01*
X10660002Y6802500D02*
Y6847499D01*
Y6802500D02*
X10950003D01*
X10955002Y6662500D02*
Y6767499D01*
X711231Y6070996D02*
X741234D01*
X621234D02*
X641234D01*
X711231Y6020994D02*
Y6110996D01*
X641234Y6070996D02*
X711231Y6020994D01*
X641234Y6070996D02*
X711231Y6110996D01*
X641234Y6020994D02*
Y6120994D01*
X301235Y6250996D02*
X1041233D01*
Y6218494D02*
Y6250996D01*
X301235Y6120994D02*
Y6250996D01*
X1041233Y5890992D02*
Y5923494D01*
X301235Y6120994D02*
X316231D01*
Y6250996D01*
Y5890992D02*
Y6020994D01*
X301235D02*
X316231D01*
X301235Y5890992D02*
X1041233D01*
X301235D02*
Y6020994D01*
X309135Y6369949D02*
Y6529949D01*
X454133Y6369949D02*
Y6529949D01*
X2897100Y7310603D02*
Y7340605D01*
X2637101D02*
X2897100D01*
X2637101Y7310603D02*
Y7340605D01*
X2767103Y7200605D02*
Y7340605D01*
X2897100Y7200605D02*
Y7230603D01*
X2637101Y7200605D02*
X2897100D01*
X2637101D02*
Y7230603D01*
X7949999Y4849997D02*
Y5249996D01*
X7099998Y4849997D02*
Y5249996D01*
Y4849997D02*
X7949999D01*
X7099998Y5249996D02*
X7949999D01*
X3965001Y4622498D02*
Y4727497D01*
X4347497Y4122500D02*
X4427502D01*
X4347497Y3682501D02*
X4427502D01*
Y4122500D01*
X4167497Y3682501D02*
Y4122500D01*
Y3682501D02*
X4247497D01*
X4167497Y4122500D02*
X4247497D01*
X2870606Y6506248D02*
Y6556248D01*
X2660606D02*
X2870606D01*
X2660606Y6506248D02*
Y6556248D01*
Y6506248D02*
X2870606D01*
X2880606Y6423748D02*
Y6471248D01*
X3564455Y2505917D02*
Y2685917D01*
X3444455Y2505917D02*
X3564455Y2505917D01*
X3444455Y2685917D02*
X3564455Y2685917D01*
X3444455Y2505917D02*
Y2685917D01*
X3235613Y2484887D02*
Y2724887D01*
X2970613D02*
X3235613D01*
X2970613Y2484887D02*
X3235613D01*
X2970613D02*
Y2724887D01*
X6366919Y6459432D02*
Y7309433D01*
X6766918Y6459432D02*
Y7309433D01*
X6366919Y6459432D02*
X6766918D01*
X6366919Y7309433D02*
X6766918D01*
X6366919Y855380D02*
Y1705375D01*
X6766918Y855380D02*
Y1705375D01*
X6366919Y855380D02*
X6766918D01*
X6366919Y1705375D02*
X6766918D01*
X7100004Y2750001D02*
Y3150000D01*
X7949999Y2750001D02*
Y3150000D01*
X7100004D02*
X7949999D01*
X7100004Y2750001D02*
X7949999D01*
X3784999Y4590000D02*
Y4770000D01*
X3664999Y4589999D02*
X3784999Y4590000D01*
X3664999Y4769999D02*
X3784999Y4770000D01*
X3664999Y4589999D02*
Y4769999D01*
X3042693Y1452350D02*
Y1632349D01*
X2922693Y1452350D02*
X3042693D01*
X2922693Y1632349D02*
X3042693D01*
X2922693Y1452350D02*
Y1632349D01*
X2918142Y1452350D02*
Y1632349D01*
X2798137Y1452350D02*
X2918142D01*
X2798137Y1632349D02*
X2918142D01*
X2798137Y1452350D02*
Y1632349D01*
X1252230Y7672503D02*
X1412234D01*
X1252230Y7527504D02*
X1412234D01*
X3499998Y2827747D02*
Y2987747D01*
X3650001Y2827747D02*
Y2877745D01*
X3349996Y2827747D02*
X3650001D01*
X3349996D02*
Y2877745D01*
X3650001Y2937745D02*
Y2987747D01*
X3349996D02*
X3650001D01*
X3349996Y2937745D02*
Y2987747D01*
X7902501Y6662500D02*
Y6767499D01*
X7607501Y6802500D02*
X7897503D01*
X7607501D02*
Y6847499D01*
X7897503D01*
Y6802500D02*
Y6847499D01*
X7525001Y6662500D02*
Y6767499D01*
X7230001Y6802500D02*
X7520003D01*
X7230001D02*
Y6847499D01*
X7520003D01*
Y6802500D02*
Y6847499D01*
X8669002Y6662500D02*
Y6767499D01*
X8374002Y6802500D02*
X8664003D01*
X8374002D02*
Y6847499D01*
X8664003D01*
Y6802500D02*
Y6847499D01*
X8288002Y6662500D02*
Y6767499D01*
X7993007Y6802500D02*
X8283003D01*
X7993007D02*
Y6847499D01*
X8283003D01*
Y6802500D02*
Y6847499D01*
X9057500Y6662500D02*
Y6767499D01*
X8762500Y6802500D02*
X9052502D01*
X8762500D02*
Y6847499D01*
X9052502D01*
Y6802500D02*
Y6847499D01*
X10575003Y6662500D02*
Y6767499D01*
X10280002Y6802500D02*
X10569999D01*
X10280002D02*
Y6847499D01*
X10569999D01*
Y6802500D02*
Y6847499D01*
X10193002Y6662500D02*
Y6767499D01*
X9898002Y6802500D02*
X10188003D01*
X9898002D02*
Y6847499D01*
X10188003D01*
Y6802500D02*
Y6847499D01*
X9431007Y6662500D02*
Y6767499D01*
X9136007Y6802500D02*
X9426004D01*
X9136007D02*
Y6847499D01*
X9426004D01*
Y6802500D02*
Y6847499D01*
X9812007Y6662500D02*
Y6767499D01*
X9517007Y6802500D02*
X9807009D01*
X9517007D02*
Y6847499D01*
X9807009D01*
Y6802500D02*
Y6847499D01*
X9152501Y1052504D02*
Y1097503D01*
Y1052504D02*
X9442503D01*
Y1097503D01*
X9152501D02*
X9442503D01*
X9147503Y1132504D02*
Y1237502D01*
X8762500Y1052499D02*
Y1097503D01*
Y1052499D02*
X9052502D01*
Y1097503D01*
X8762500D02*
X9052502D01*
X8757501Y1132499D02*
Y1237502D01*
X9529996Y1052499D02*
Y1097503D01*
Y1052499D02*
X9819998D01*
Y1097503D01*
X9529996D02*
X9819998D01*
X9524997Y1132499D02*
Y1237502D01*
X10304996Y1052504D02*
Y1097508D01*
Y1052504D02*
X10594998D01*
Y1097508D01*
X10304996D02*
X10594998D01*
X10299997Y1132504D02*
Y1237507D01*
X9905002Y1052504D02*
Y1097503D01*
Y1052504D02*
X10194999D01*
Y1097503D01*
X9905002D02*
X10194999D01*
X9899998Y1132504D02*
Y1237502D01*
X10680001Y1052504D02*
Y1097503D01*
Y1052504D02*
X10969998D01*
Y1097503D01*
X10680001D02*
X10969998D01*
X10675003Y1132504D02*
Y1237502D01*
X8380001Y1052499D02*
Y1097503D01*
Y1052499D02*
X8669998D01*
Y1097503D01*
X8380001D02*
X8669998D01*
X8374997Y1132504D02*
Y1237502D01*
X8005000Y1052499D02*
Y1097503D01*
Y1052499D02*
X8294997D01*
Y1097503D01*
X8005000D02*
X8294997D01*
X8000002Y1132499D02*
Y1237502D01*
X7630005Y1052499D02*
Y1097503D01*
Y1052499D02*
X7920002D01*
Y1097503D01*
X7630005D02*
X7920002D01*
X7625001Y1132499D02*
Y1237502D01*
X7254999Y1052499D02*
Y1097503D01*
Y1052499D02*
X7544996D01*
Y1097503D01*
X7254999D02*
X7544996D01*
X7249996Y1132499D02*
Y1237502D01*
D115*
X2750000Y575004D02*
X2900002D01*
Y427501D02*
Y722502D01*
X2880002Y427501D02*
X2900002D01*
X2880002Y722502D02*
X2900002D01*
X2750000Y427501D02*
Y722502D01*
Y427501D02*
X2770000D01*
X2750000Y722502D02*
X2770000D01*
X665000Y4275000D02*
X785000D01*
X665000Y4125000D02*
Y4425000D01*
Y4125000D02*
X684200D01*
X665000Y4425000D02*
X684200D01*
X765800D02*
X785000D01*
Y4125000D02*
Y4425000D01*
X765800Y4125000D02*
X785000D01*
X3365232Y2736889D02*
X3384432D01*
Y2482889D02*
Y2736889D01*
X3365232Y2482889D02*
X3384432D01*
X3244432D02*
X3263632D01*
X3244432D02*
Y2736889D01*
X3263632D01*
X3244432Y2609889D02*
X3384432D01*
X2609794Y3148653D02*
Y3167853D01*
X2863794D01*
Y3148653D02*
Y3167853D01*
Y3027852D02*
Y3047053D01*
X2609794Y3027852D02*
X2863794D01*
X2609794D02*
Y3047053D01*
X2736794Y3027852D02*
Y3167853D01*
X3674218Y2693864D02*
Y2833865D01*
X3814218Y2803864D02*
Y2833865D01*
X3534218D02*
X3814218D01*
X3534218Y2803864D02*
Y2833865D01*
Y2693864D02*
Y2723865D01*
Y2693864D02*
X3814218D01*
Y2723865D01*
X3794996Y3057852D02*
Y3087853D01*
X3514996Y3057852D02*
X3794996D01*
X3514996D02*
Y3087853D01*
Y3167852D02*
Y3197853D01*
X3794996D01*
Y3167852D02*
Y3197853D01*
X3654996Y3057852D02*
Y3197853D01*
X500000Y3890000D02*
Y4010000D01*
X350000D02*
X650000D01*
X350000Y3990800D02*
Y4010000D01*
X650000Y3990800D02*
Y4010000D01*
Y3890000D02*
Y3909200D01*
X350000Y3890000D02*
X650000D01*
X350000D02*
Y3909200D01*
X2572548Y2803620D02*
X2712548D01*
X2682545Y2663620D02*
X2712548D01*
Y2943620D01*
X2682545D02*
X2712548D01*
X2572548D02*
X2602545D01*
X2572548Y2663620D02*
Y2943620D01*
Y2663620D02*
X2602545D01*
X2864510Y2833220D02*
Y2973220D01*
X2737510Y2833220D02*
Y2852423D01*
Y2833220D02*
X2991510D01*
Y2852423D01*
Y2954023D02*
Y2973220D01*
X2737510D02*
X2991510D01*
X2737510Y2954023D02*
Y2973220D01*
X2733935Y2505984D02*
X2763935D01*
X2733935D02*
Y2785984D01*
X2763935D01*
X2843935D02*
X2873935D01*
Y2505984D02*
Y2785984D01*
X2843935Y2505984D02*
X2873935D01*
X2733935Y2645984D02*
X2873935D01*
X3219649Y2816337D02*
Y2956337D01*
X3079644Y2816337D02*
Y2846335D01*
Y2816337D02*
X3359649D01*
Y2846335D01*
Y2926335D02*
Y2956337D01*
X3079644D02*
X3359649D01*
X3079644Y2926335D02*
Y2956337D01*
X3399432Y2244114D02*
Y2274114D01*
X3119432Y2244114D02*
X3399432D01*
X3119432D02*
Y2274114D01*
Y2354114D02*
Y2384114D01*
X3399432D01*
Y2354114D02*
Y2384114D01*
X3259432Y2244114D02*
Y2384114D01*
X2952261Y2244114D02*
Y2384114D01*
X2825261Y2244114D02*
Y2263314D01*
Y2244114D02*
X3079261D01*
Y2263314D01*
Y2364914D02*
Y2384114D01*
X2825261D02*
X3079261D01*
X2825261Y2364914D02*
Y2384114D01*
X1966038Y5715753D02*
X2106039D01*
X2086839Y5588753D02*
X2106039D01*
Y5842753D01*
X2086839D02*
X2106039D01*
X1966038D02*
X1985239D01*
X1966038Y5588753D02*
Y5842753D01*
Y5588753D02*
X1985239D01*
X1846039Y6017040D02*
X1865239D01*
X1846039Y5717040D02*
Y6017040D01*
Y5717040D02*
X1865239D01*
X1946839D02*
X1966039D01*
X1946839Y6017040D02*
X1966039D01*
Y5717040D02*
Y6017040D01*
X1846039Y5867040D02*
X1966039D01*
X349207Y4633683D02*
Y4652883D01*
Y4633683D02*
X649207D01*
Y4652883D01*
Y4734483D02*
Y4753683D01*
X349207Y4734483D02*
Y4753683D01*
X649207D01*
X499207Y4633683D02*
Y4753683D01*
X2622760Y6259713D02*
X2762760D01*
X2743560Y6132713D02*
X2762760D01*
Y6386713D01*
X2743560D02*
X2762760D01*
X2622760D02*
X2641960D01*
X2622760Y6132713D02*
Y6386713D01*
Y6132713D02*
X2641960D01*
X3039007Y6700032D02*
Y6840032D01*
X2912007Y6700032D02*
Y6719232D01*
Y6700032D02*
X3166007D01*
Y6719232D01*
Y6820832D02*
Y6840032D01*
X2912007D02*
X3166007D01*
X2912007Y6820832D02*
Y6840032D01*
X2437129Y6487360D02*
X2577129D01*
X2437129Y6614360D02*
X2456329D01*
X2437129Y6360360D02*
Y6614360D01*
Y6360360D02*
X2456329D01*
X2557929D02*
X2577129D01*
Y6614360D01*
X2557929D02*
X2577129D01*
X2965310Y6932150D02*
X2984512D01*
X2965310D02*
Y7186150D01*
X2984512D01*
X3086112D02*
X3105310D01*
Y6932150D02*
Y7186150D01*
X3086112Y6932150D02*
X3105310D01*
X2965310Y7059150D02*
X3105310D01*
X2621822Y7193304D02*
Y7212507D01*
X2875822D01*
Y7193304D02*
Y7212507D01*
Y7072502D02*
Y7091704D01*
X2621822Y7072502D02*
X2875822D01*
X2621822D02*
Y7091704D01*
X2748822Y7072502D02*
Y7212507D01*
X2603315Y7035001D02*
Y7064999D01*
X2883315D01*
Y7035001D02*
Y7064999D01*
Y6924999D02*
Y6955002D01*
X2603315Y6924999D02*
X2883315D01*
X2603315D02*
Y6955002D01*
X2743315Y6924999D02*
Y7064999D01*
Y7337500D02*
Y7477505D01*
X2603315Y7337500D02*
Y7367503D01*
Y7337500D02*
X2883315D01*
Y7367503D01*
Y7447503D02*
Y7477505D01*
X2603315D02*
X2883315D01*
X2603315Y7447503D02*
Y7477505D01*
X7625677Y4075002D02*
X7644874D01*
Y4375002D01*
X7625677D02*
X7644874D01*
X7524874D02*
X7544077D01*
X7524874Y4075002D02*
X7544077D01*
X7524874D02*
Y4375002D01*
Y4224999D02*
X7644874D01*
X7647536Y4225005D02*
X7767536D01*
Y4075002D02*
Y4375002D01*
X7748339D02*
X7767536D01*
X7748339Y4075002D02*
X7767536D01*
X7647536D02*
X7666739D01*
X7647536D02*
Y4375002D01*
X7666739D01*
X6999999Y4629997D02*
Y4769997D01*
X6859999Y4629997D02*
Y4660000D01*
Y4629997D02*
X7139998D01*
Y4660000D01*
Y4740000D02*
Y4769997D01*
X6859999D02*
X7139998D01*
X6859999Y4740000D02*
Y4769997D01*
X6843575Y6194333D02*
X6873573D01*
X6843575D02*
Y6474332D01*
X6873573D01*
X6953573D02*
X6983575D01*
Y6194333D02*
Y6474332D01*
X6953573Y6194333D02*
X6983575D01*
X6843575Y6334332D02*
X6983575D01*
X3807503Y4464999D02*
Y4495001D01*
X4087503D01*
Y4464999D02*
Y4495001D01*
Y4355002D02*
Y4384999D01*
X3807503Y4355002D02*
X4087503D01*
X3807503D02*
Y4384999D01*
X3947503Y4355002D02*
Y4495001D01*
X4230435Y3533262D02*
Y3673262D01*
X4090435Y3533262D02*
Y3563260D01*
Y3533262D02*
X4370434D01*
Y3563260D01*
Y3643259D02*
Y3673262D01*
X4090435D02*
X4370434D01*
X4090435Y3643259D02*
Y3673262D01*
X4220900Y4151309D02*
Y4291308D01*
X4080901Y4151309D02*
Y4181311D01*
Y4151309D02*
X4360900D01*
Y4181311D01*
Y4261311D02*
Y4291308D01*
X4080901D02*
X4360900D01*
X4080901Y4261311D02*
Y4291308D01*
X7420780Y3750924D02*
X7540780D01*
Y3600921D02*
Y3900921D01*
X7521583D02*
X7540780D01*
X7521583Y3600921D02*
X7540780D01*
X7420780D02*
X7439983D01*
X7420780D02*
Y3900921D01*
X7439983D01*
X6879725Y754783D02*
X7019725D01*
X6989723Y614783D02*
X7019725D01*
Y894783D01*
X6989723D02*
X7019725D01*
X6879725D02*
X6909723D01*
X6879725Y614783D02*
Y894783D01*
Y614783D02*
X6909723D01*
X6724998Y3823298D02*
Y3842501D01*
X6424999D02*
X6724998D01*
X6424999Y3823298D02*
Y3842501D01*
Y3722501D02*
Y3741698D01*
X6724998Y3722501D02*
Y3741698D01*
X6424999Y3722501D02*
X6724998D01*
X6575001D02*
Y3842501D01*
X6430002Y3945000D02*
Y3975002D01*
X6149998Y3945000D02*
X6430002D01*
X6149998D02*
Y3975002D01*
Y4055002D02*
Y4085000D01*
X6430002D01*
Y4055002D02*
Y4085000D01*
X6289998Y3945000D02*
Y4085000D01*
X6475001Y4190801D02*
Y4209998D01*
X6175002D02*
X6475001D01*
X6175002Y4190801D02*
Y4209998D01*
Y4089998D02*
Y4109201D01*
X6475001Y4089998D02*
Y4109201D01*
X6175002Y4089998D02*
X6475001D01*
X6324999D02*
Y4209998D01*
X6289998Y3809999D02*
Y3949999D01*
X6162998Y3809999D02*
Y3829201D01*
Y3809999D02*
X6416998D01*
Y3829201D01*
Y3930801D02*
Y3949999D01*
X6162998D02*
X6416998D01*
X6162998Y3930801D02*
Y3949999D01*
X8197502Y3225007D02*
Y3255004D01*
X7917503Y3225007D02*
X8197502D01*
X7917503D02*
Y3255004D01*
Y3335004D02*
Y3365006D01*
X8197502D01*
Y3335004D02*
Y3365006D01*
X8057502Y3225007D02*
Y3365006D01*
X7398890Y3600916D02*
X7418088D01*
Y3900921D01*
X7398890D02*
X7418088D01*
X7298088D02*
X7317290D01*
X7298088Y3600916D02*
X7317290D01*
X7298088D02*
Y3900921D01*
Y3750919D02*
X7418088D01*
X7338296Y4075002D02*
X7357499D01*
Y4375002D01*
X7338296D02*
X7357499D01*
X7237499D02*
X7256696D01*
X7237499Y4075002D02*
X7256696D01*
X7237499D02*
Y4375002D01*
Y4224999D02*
X7357499D01*
X7215797Y4074997D02*
X7234999D01*
Y4374997D01*
X7215797D02*
X7234999D01*
X7115000D02*
X7134197D01*
X7115000Y4074997D02*
X7134197D01*
X7115000D02*
Y4374997D01*
Y4224999D02*
X7234999D01*
X7310509Y6034277D02*
X7329706D01*
X7310509Y5734278D02*
Y6034277D01*
Y5734278D02*
X7329706D01*
X7411306D02*
X7430508D01*
X7411306Y6034277D02*
X7430508D01*
Y5734278D02*
Y6034277D01*
X7310509Y5884280D02*
X7430508D01*
X7165805Y1966010D02*
X7185002D01*
Y2266009D01*
X7165805D02*
X7185002D01*
X7065002D02*
X7084205D01*
X7065002Y1966010D02*
X7084205D01*
X7065002D02*
Y2266009D01*
Y2116012D02*
X7185002D01*
X7415802Y1966010D02*
X7435004D01*
Y2266009D01*
X7415802D02*
X7435004D01*
X7314999D02*
X7334202D01*
X7314999Y1966010D02*
X7334202D01*
X7314999D02*
Y2266009D01*
Y2116012D02*
X7435004D01*
X7540800Y1966010D02*
X7560003D01*
Y2266009D01*
X7540800D02*
X7560003D01*
X7440003D02*
X7459200D01*
X7440003Y1966010D02*
X7459200D01*
X7440003D02*
Y2266009D01*
Y2116012D02*
X7560003D01*
X7665799Y1966010D02*
X7684996D01*
Y2266009D01*
X7665799D02*
X7684996D01*
X7564996D02*
X7584199D01*
X7564996Y1966010D02*
X7584199D01*
X7564996D02*
Y2266009D01*
Y2116012D02*
X7684996D01*
X7060507Y6034277D02*
X7079704D01*
X7060507Y5734278D02*
Y6034277D01*
Y5734278D02*
X7079704D01*
X7161304D02*
X7180506D01*
X7161304Y6034277D02*
X7180506D01*
Y5734278D02*
Y6034277D01*
X7060507Y5884280D02*
X7180506D01*
X7915801Y1966010D02*
X7934998D01*
Y2266009D01*
X7915801D02*
X7934998D01*
X7814998D02*
X7834201D01*
X7814998Y1966010D02*
X7834201D01*
X7814998D02*
Y2266009D01*
Y2116012D02*
X7934998D01*
X7790802Y1966010D02*
X7810000D01*
Y2266009D01*
X7790802D02*
X7810000D01*
X7690000D02*
X7709202D01*
X7690000Y1966010D02*
X7709202D01*
X7690000D02*
Y2266009D01*
Y2116012D02*
X7810000D01*
X8040804Y1966010D02*
X8060002D01*
Y2266009D01*
X8040804D02*
X8060002D01*
X7940002D02*
X7959204D01*
X7940002Y1966010D02*
X7959204D01*
X7940002D02*
Y2266009D01*
Y2116012D02*
X8060002D01*
X7814998Y3900001D02*
X7834196D01*
X7814998Y3600002D02*
Y3900001D01*
Y3600002D02*
X7834196D01*
X7915796D02*
X7934998D01*
X7915796Y3900001D02*
X7934998D01*
Y3600002D02*
Y3900001D01*
X7814998Y3749999D02*
X7934998D01*
X7560500Y6034277D02*
X7579703D01*
X7560500Y5734278D02*
Y6034277D01*
Y5734278D02*
X7579703D01*
X7661303D02*
X7680500D01*
X7661303Y6034277D02*
X7680500D01*
Y5734278D02*
Y6034277D01*
X7560500Y5884275D02*
X7680500D01*
X7185505Y6034277D02*
X7204707D01*
X7185505Y5734278D02*
Y6034277D01*
Y5734278D02*
X7204707D01*
X7286307D02*
X7305505D01*
X7286307Y6034277D02*
X7305505D01*
Y5734278D02*
Y6034277D01*
X7185505Y5884280D02*
X7305505D01*
X7435502Y6034277D02*
X7454704D01*
X7435502Y5734278D02*
Y6034277D01*
Y5734278D02*
X7454704D01*
X7536304D02*
X7555502D01*
X7536304Y6034277D02*
X7555502D01*
Y5734278D02*
Y6034277D01*
X7435502Y5884275D02*
X7555502D01*
X7810503Y6034277D02*
X7829705D01*
X7810503Y5734278D02*
Y6034277D01*
Y5734278D02*
X7829705D01*
X7911305D02*
X7930502D01*
X7911305Y6034277D02*
X7930502D01*
Y5734278D02*
Y6034277D01*
X7810503Y5884275D02*
X7930502D01*
X7935501Y6034277D02*
X7954698D01*
X7935501Y5734278D02*
Y6034277D01*
Y5734278D02*
X7954698D01*
X8036298D02*
X8055501D01*
X8036298Y6034277D02*
X8055501D01*
Y5734278D02*
Y6034277D01*
X7935501Y5884275D02*
X8055501D01*
X7685504Y6034277D02*
X7704701D01*
X7685504Y5734278D02*
Y6034277D01*
Y5734278D02*
X7704701D01*
X7786301D02*
X7805504D01*
X7786301Y6034277D02*
X7805504D01*
Y5734278D02*
Y6034277D01*
X7685504Y5884275D02*
X7805504D01*
X7692504Y3900001D02*
X7711702D01*
X7692504Y3600002D02*
Y3900001D01*
Y3600002D02*
X7711702D01*
X7793302D02*
X7812504D01*
X7793302Y3900001D02*
X7812504D01*
Y3600002D02*
Y3900001D01*
X7692504Y3750004D02*
X7812504D01*
X7290798Y1966010D02*
X7309996D01*
Y2266009D01*
X7290798D02*
X7309996D01*
X7189996D02*
X7209198D01*
X7189996Y1966010D02*
X7209198D01*
X7189996D02*
Y2266009D01*
Y2116012D02*
X7309996D01*
X2934998Y574999D02*
X3114998D01*
X2934998Y745001D02*
X2954998D01*
X2934998Y405002D02*
Y745001D01*
Y405002D02*
X2954998D01*
X3094998Y745001D02*
X3114998D01*
Y405002D02*
Y745001D01*
X3094998Y405002D02*
X3114998D01*
X2894778Y1917517D02*
X3004743D01*
Y1972500D01*
X2986415Y1990827D01*
X2949761D01*
X2931433Y1972500D01*
Y1917517D01*
Y1954172D02*
X2894778Y1990827D01*
X3004743Y2100792D02*
Y2027482D01*
X2949761D01*
X2968088Y2064137D01*
Y2082464D01*
X2949761Y2100792D01*
X2913106D01*
X2894778Y2082464D01*
Y2045809D01*
X2913106Y2027482D01*
X2894778Y2137446D02*
Y2174101D01*
Y2155774D01*
X3004743D01*
X2986415Y2137446D01*
X3245685Y2047311D02*
X3227357Y2065638D01*
Y2102293D01*
X3245685Y2120621D01*
X3318994D01*
X3337322Y2102293D01*
Y2065638D01*
X3318994Y2047311D01*
X3227357Y1937347D02*
Y2010656D01*
X3282339D01*
X3264012Y1974002D01*
Y1955674D01*
X3282339Y1937347D01*
X3318994D01*
X3337322Y1955674D01*
Y1992329D01*
X3318994Y2010656D01*
X3227357Y1827382D02*
X3245685Y1864037D01*
X3282339Y1900692D01*
X3318994D01*
X3337322Y1882365D01*
Y1845710D01*
X3318994Y1827382D01*
X3300667D01*
X3282339Y1845710D01*
Y1900692D01*
X2537445Y2682253D02*
X2555772Y2700581D01*
X2592427D01*
X2610754Y2682253D01*
Y2608944D01*
X2592427Y2590616D01*
X2555772D01*
X2537445Y2608944D01*
X2427480Y2700581D02*
X2500790D01*
Y2645599D01*
X2464135Y2663926D01*
X2445807D01*
X2427480Y2645599D01*
Y2608944D01*
X2445807Y2590616D01*
X2482462D01*
X2500790Y2608944D01*
X2390825Y2590616D02*
X2354171D01*
X2372498D01*
Y2700581D01*
X2390825Y2682253D01*
X3478450Y3069046D02*
X3460122Y3087374D01*
Y3124029D01*
X3478450Y3142356D01*
X3496777D01*
X3515104Y3124029D01*
Y3087374D01*
X3533432Y3069046D01*
X3551759D01*
X3570087Y3087374D01*
Y3124029D01*
X3551759Y3142356D01*
X3460122Y3032392D02*
X3570087D01*
Y2977409D01*
X3551759Y2959082D01*
X3533432D01*
X3515104Y2977409D01*
Y3032392D01*
Y2977409D01*
X3496777Y2959082D01*
X3478450D01*
X3460122Y2977409D01*
Y3032392D01*
X3570087Y2922427D02*
Y2885772D01*
Y2904100D01*
X3460122D01*
X3478450Y2922427D01*
X3551759Y2830790D02*
X3570087Y2812463D01*
Y2775808D01*
X3551759Y2757480D01*
X3478450D01*
X3460122Y2775808D01*
Y2812463D01*
X3478450Y2830790D01*
X3496777D01*
X3515104Y2812463D01*
Y2757480D01*
D116*
X7107500Y5395000D02*
G03*
X7107500Y5395000I-12500J0D01*
G01*
X6234421Y6454432D02*
G03*
X6234421Y6454432I-12500J0D01*
G01*
X6234418Y850376D02*
G03*
X6234418Y850376I-12500J0D01*
G01*
X7967500Y2605001D02*
G03*
X7967500Y2605001I-12500J0D01*
G01*
D117*
X3486106Y3073008D02*
G03*
X3486106Y3073008I-75000J0D01*
G01*
X3187500Y2156008D02*
G03*
X3187500Y2156008I-75000J0D01*
G01*
X2672263Y2564992D02*
G03*
X2672263Y2564992I-75000J0D01*
G01*
X3110312Y6613431D02*
G03*
X3110312Y6613431I-75000J0D01*
G01*
D120*
X7230000Y5150000D02*
G03*
X7230000Y5150000I-30000J0D01*
G01*
X6496920Y6559432D02*
G03*
X6496920Y6559432I-30000J0D01*
G01*
X6496918Y955376D02*
G03*
X6496918Y955376I-30000J0D01*
G01*
X7880000Y2850001D02*
G03*
X7880000Y2850001I-30000J0D01*
G01*
D122*
X6717500Y3921500D02*
Y4031464D01*
X6662518D01*
X6644190Y4013137D01*
Y3976482D01*
X6662518Y3958155D01*
X6717500D01*
X6680845D02*
X6644190Y3921500D01*
X6607535D02*
X6570881D01*
X6589208D01*
Y4031464D01*
X6607535Y4013137D01*
X6442589Y4031464D02*
X6515898D01*
Y3976482D01*
X6479244Y3994810D01*
X6460916D01*
X6442589Y3976482D01*
Y3939827D01*
X6460916Y3921500D01*
X6497571D01*
X6515898Y3939827D01*
X6466040Y4289800D02*
Y4399764D01*
X6411058D01*
X6392730Y4381437D01*
Y4344782D01*
X6411058Y4326455D01*
X6466040D01*
X6429385D02*
X6392730Y4289800D01*
X6356075Y4308127D02*
X6337748Y4289800D01*
X6301093D01*
X6282766Y4308127D01*
Y4381437D01*
X6301093Y4399764D01*
X6337748D01*
X6356075Y4381437D01*
Y4363110D01*
X6337748Y4344782D01*
X6282766D01*
X6412700Y4023100D02*
Y4133064D01*
X6357718D01*
X6339390Y4114737D01*
Y4078082D01*
X6357718Y4059755D01*
X6412700D01*
X6376045D02*
X6339390Y4023100D01*
X6229426Y4133064D02*
X6266081Y4114737D01*
X6302735Y4078082D01*
Y4041427D01*
X6284408Y4023100D01*
X6247753D01*
X6229426Y4041427D01*
Y4059755D01*
X6247753Y4078082D01*
X6302735D01*
X6347010Y4251897D02*
X6365338Y4270224D01*
X6401993D01*
X6420320Y4251897D01*
Y4178587D01*
X6401993Y4160260D01*
X6365338D01*
X6347010Y4178587D01*
X6310355Y4251897D02*
X6292028Y4270224D01*
X6255373D01*
X6237046Y4251897D01*
Y4233570D01*
X6255373Y4215242D01*
X6273701D01*
X6255373D01*
X6237046Y4196915D01*
Y4178587D01*
X6255373Y4160260D01*
X6292028D01*
X6310355Y4178587D01*
X6200391Y4160260D02*
X6163736D01*
X6182064D01*
Y4270224D01*
X6200391Y4251897D01*
X4577124Y3823631D02*
X4558797D01*
X4522142Y3860286D01*
X4558797Y3896941D01*
X4577124D01*
X4522142Y3860286D02*
X4467160D01*
Y4006906D02*
Y3933596D01*
X4540470Y4006906D01*
X4558797D01*
X4577124Y3988578D01*
Y3951923D01*
X4558797Y3933596D01*
X3089752Y1666479D02*
X3071424Y1684806D01*
Y1721461D01*
X3089752Y1739788D01*
X3108079D01*
X3126406Y1721461D01*
Y1684806D01*
X3144734Y1666479D01*
X3163061D01*
X3181389Y1684806D01*
Y1721461D01*
X3163061Y1739788D01*
X3071424Y1629824D02*
X3181389D01*
Y1574842D01*
X3163061Y1556514D01*
X3144734D01*
X3126406Y1574842D01*
Y1629824D01*
Y1574842D01*
X3108079Y1556514D01*
X3089752D01*
X3071424Y1574842D01*
Y1629824D01*
X3181389Y1519860D02*
Y1483205D01*
Y1501532D01*
X3071424D01*
X3089752Y1519860D01*
Y1428222D02*
X3071424Y1409895D01*
Y1373240D01*
X3089752Y1354913D01*
X3108079D01*
X3126406Y1373240D01*
X3144734Y1354913D01*
X3163061D01*
X3181389Y1373240D01*
Y1409895D01*
X3163061Y1428222D01*
X3144734D01*
X3126406Y1409895D01*
X3108079Y1428222D01*
X3089752D01*
X3126406Y1409895D02*
Y1373240D01*
X2678843Y1660905D02*
X2660516Y1679233D01*
Y1715888D01*
X2678843Y1734215D01*
X2697171D01*
X2715498Y1715888D01*
Y1679233D01*
X2733826Y1660905D01*
X2752153D01*
X2770480Y1679233D01*
Y1715888D01*
X2752153Y1734215D01*
X2660516Y1624250D02*
X2770480D01*
Y1569268D01*
X2752153Y1550941D01*
X2733826D01*
X2715498Y1569268D01*
Y1624250D01*
Y1569268D01*
X2697171Y1550941D01*
X2678843D01*
X2660516Y1569268D01*
Y1624250D01*
X2770480Y1514286D02*
Y1477631D01*
Y1495959D01*
X2660516D01*
X2678843Y1514286D01*
X2660516Y1422649D02*
Y1349339D01*
X2678843D01*
X2752153Y1422649D01*
X2770480D01*
X4066874Y4913533D02*
Y4803569D01*
X3993565D01*
X3883600D02*
X3956910D01*
X3883600Y4876878D01*
Y4895206D01*
X3901927Y4913533D01*
X3938582D01*
X3956910Y4895206D01*
X3989333Y4296067D02*
X4007660Y4314394D01*
X4044315D01*
X4062643Y4296067D01*
Y4222757D01*
X4044315Y4204430D01*
X4007660D01*
X3989333Y4222757D01*
X3952678Y4204430D02*
X3916023D01*
X3934351D01*
Y4314394D01*
X3952678Y4296067D01*
X3861041D02*
X3842714Y4314394D01*
X3806059D01*
X3787731Y4296067D01*
Y4277740D01*
X3806059Y4259412D01*
X3787731Y4241085D01*
Y4222757D01*
X3806059Y4204430D01*
X3842714D01*
X3861041Y4222757D01*
Y4241085D01*
X3842714Y4259412D01*
X3861041Y4277740D01*
Y4296067D01*
X3842714Y4259412D02*
X3806059D01*
X4279225Y4429386D02*
X4297552Y4447713D01*
X4334207D01*
X4352534Y4429386D01*
Y4356076D01*
X4334207Y4337749D01*
X4297552D01*
X4279225Y4356076D01*
X4242570Y4337749D02*
X4205915D01*
X4224243D01*
Y4447713D01*
X4242570Y4429386D01*
X4150933D02*
X4132605Y4447713D01*
X4095950D01*
X4077623Y4429386D01*
Y4356076D01*
X4095950Y4337749D01*
X4132605D01*
X4150933Y4356076D01*
Y4429386D01*
X4529649Y3638067D02*
X4547976Y3656394D01*
X4584631D01*
X4602959Y3638067D01*
Y3564757D01*
X4584631Y3546430D01*
X4547976D01*
X4529649Y3564757D01*
X4492994D02*
X4474667Y3546430D01*
X4438012D01*
X4419684Y3564757D01*
Y3638067D01*
X4438012Y3656394D01*
X4474667D01*
X4492994Y3638067D01*
Y3619740D01*
X4474667Y3601412D01*
X4419684D01*
X7964640Y5725644D02*
Y5634007D01*
X7946313Y5615680D01*
X7909658D01*
X7891330Y5634007D01*
Y5725644D01*
X7854675Y5634007D02*
X7836348Y5615680D01*
X7799693D01*
X7781366Y5634007D01*
Y5707317D01*
X7799693Y5725644D01*
X7836348D01*
X7854675Y5707317D01*
Y5688990D01*
X7836348Y5670662D01*
X7781366D01*
X7744711Y5597353D02*
X7671401D01*
X7561437Y5707317D02*
X7579764Y5725644D01*
X7616419D01*
X7634746Y5707317D01*
Y5688990D01*
X7616419Y5670662D01*
X7579764D01*
X7561437Y5652335D01*
Y5634007D01*
X7579764Y5615680D01*
X7616419D01*
X7634746Y5634007D01*
X7524782Y5725644D02*
X7488127D01*
X7506455D01*
Y5615680D01*
X7524782D01*
X7488127D01*
X7433145D02*
X7396490D01*
X7414818D01*
Y5725644D01*
X7433145Y5707317D01*
X7964640Y3625064D02*
Y3533427D01*
X7946313Y3515100D01*
X7909658D01*
X7891330Y3533427D01*
Y3625064D01*
X7854675Y3533427D02*
X7836348Y3515100D01*
X7799693D01*
X7781366Y3533427D01*
Y3606737D01*
X7799693Y3625064D01*
X7836348D01*
X7854675Y3606737D01*
Y3588410D01*
X7836348Y3570082D01*
X7781366D01*
X7744711Y3496773D02*
X7671401D01*
X7561437Y3606737D02*
X7579764Y3625064D01*
X7616419D01*
X7634746Y3606737D01*
Y3588410D01*
X7616419Y3570082D01*
X7579764D01*
X7561437Y3551755D01*
Y3533427D01*
X7579764Y3515100D01*
X7616419D01*
X7634746Y3533427D01*
X7524782Y3625064D02*
X7488127D01*
X7506455D01*
Y3515100D01*
X7524782D01*
X7488127D01*
X7433145Y3606737D02*
X7414818Y3625064D01*
X7378163D01*
X7359835Y3606737D01*
Y3533427D01*
X7378163Y3515100D01*
X7414818D01*
X7433145Y3533427D01*
Y3606737D01*
X6552775Y7191304D02*
X6644412D01*
X6662739Y7172977D01*
Y7136322D01*
X6644412Y7117994D01*
X6552775D01*
Y7008030D02*
X6571102Y7044685D01*
X6607757Y7081339D01*
X6644412D01*
X6662739Y7063012D01*
Y7026357D01*
X6644412Y7008030D01*
X6626084D01*
X6607757Y7026357D01*
Y7081339D01*
X6681066Y6971375D02*
Y6898065D01*
X6571102Y6788101D02*
X6552775Y6806428D01*
Y6843083D01*
X6571102Y6861410D01*
X6589429D01*
X6607757Y6843083D01*
Y6806428D01*
X6626084Y6788101D01*
X6644412D01*
X6662739Y6806428D01*
Y6843083D01*
X6644412Y6861410D01*
X6552775Y6751446D02*
Y6714791D01*
Y6733119D01*
X6662739D01*
Y6751446D01*
Y6714791D01*
Y6659809D02*
Y6623154D01*
Y6641482D01*
X6552775D01*
X6571102Y6659809D01*
X6681065Y962171D02*
X6589428D01*
X6571100Y980498D01*
Y1017153D01*
X6589428Y1035481D01*
X6681065D01*
Y1145445D02*
X6662737Y1108790D01*
X6626083Y1072136D01*
X6589428D01*
X6571100Y1090463D01*
Y1127118D01*
X6589428Y1145445D01*
X6607755D01*
X6626083Y1127118D01*
Y1072136D01*
X6552773Y1182100D02*
Y1255410D01*
X6662737Y1365374D02*
X6681065Y1347047D01*
Y1310392D01*
X6662737Y1292064D01*
X6644410D01*
X6626083Y1310392D01*
Y1347047D01*
X6607755Y1365374D01*
X6589428D01*
X6571100Y1347047D01*
Y1310392D01*
X6589428Y1292064D01*
X6681065Y1402029D02*
Y1438684D01*
Y1420356D01*
X6571100D01*
Y1402029D01*
Y1438684D01*
X6662737Y1493666D02*
X6681065Y1511993D01*
Y1548648D01*
X6662737Y1566976D01*
X6589428D01*
X6571100Y1548648D01*
Y1511993D01*
X6589428Y1493666D01*
X6662737D01*
X3334122Y282578D02*
Y392542D01*
X3279139D01*
X3260812Y374215D01*
Y337560D01*
X3279139Y319233D01*
X3334122D01*
X3297467D02*
X3260812Y282578D01*
X3150847Y392542D02*
X3224157D01*
Y337560D01*
X3187502Y355888D01*
X3169175D01*
X3150847Y337560D01*
Y300905D01*
X3169175Y282578D01*
X3205830D01*
X3224157Y300905D01*
X3040883Y282578D02*
X3114193D01*
X3040883Y355888D01*
Y374215D01*
X3059210Y392542D01*
X3095865D01*
X3114193Y374215D01*
X2679983Y729751D02*
X2570019D01*
Y674769D01*
X2588346Y656441D01*
X2625001D01*
X2643328Y674769D01*
Y729751D01*
Y693096D02*
X2679983Y656441D01*
X2570019Y546477D02*
Y619786D01*
X2625001D01*
X2606673Y583132D01*
Y564804D01*
X2625001Y546477D01*
X2661656D01*
X2679983Y564804D01*
Y601459D01*
X2661656Y619786D01*
X2588346Y509822D02*
X2570019Y491495D01*
Y454840D01*
X2588346Y436512D01*
X2661656D01*
X2679983Y454840D01*
Y491495D01*
X2661656Y509822D01*
X2588346D01*
X3010454Y3005129D02*
Y3115093D01*
X2955471D01*
X2937144Y3096766D01*
Y3060111D01*
X2955471Y3041783D01*
X3010454D01*
X2973799D02*
X2937144Y3005129D01*
X2845507D02*
Y3115093D01*
X2900489Y3060111D01*
X2827180D01*
X2717215Y3115093D02*
X2790525D01*
Y3060111D01*
X2753870Y3078438D01*
X2735542D01*
X2717215Y3060111D01*
Y3023456D01*
X2735542Y3005129D01*
X2772197D01*
X2790525Y3023456D01*
X3142378Y6881135D02*
X3252342D01*
Y6936118D01*
X3234015Y6954445D01*
X3197360D01*
X3179033Y6936118D01*
Y6881135D01*
Y6917790D02*
X3142378Y6954445D01*
Y7064410D02*
Y6991100D01*
X3215688Y7064410D01*
X3234015D01*
X3252342Y7046082D01*
Y7009427D01*
X3234015Y6991100D01*
X3252342Y7174374D02*
Y7101064D01*
X3197360D01*
X3215688Y7137719D01*
Y7156047D01*
X3197360Y7174374D01*
X3160705D01*
X3142378Y7156047D01*
Y7119392D01*
X3160705Y7101064D01*
X2575820Y7223749D02*
Y7333713D01*
X2520837D01*
X2502510Y7315386D01*
Y7278731D01*
X2520837Y7260403D01*
X2575820D01*
X2539165D02*
X2502510Y7223749D01*
X2392546D02*
X2465855D01*
X2392546Y7297058D01*
Y7315386D01*
X2410873Y7333713D01*
X2447528D01*
X2465855Y7315386D01*
X2300909Y7223749D02*
Y7333713D01*
X2355891Y7278731D01*
X2282581D01*
X2560038Y7088743D02*
Y7198708D01*
X2505055D01*
X2486728Y7180380D01*
Y7143726D01*
X2505055Y7125398D01*
X2560038D01*
X2523383D02*
X2486728Y7088743D01*
X2376764D02*
X2450073D01*
X2376764Y7162053D01*
Y7180380D01*
X2395091Y7198708D01*
X2431746D01*
X2450073Y7180380D01*
X2340109D02*
X2321781Y7198708D01*
X2285126D01*
X2266799Y7180380D01*
Y7162053D01*
X2285126Y7143726D01*
X2303454D01*
X2285126D01*
X2266799Y7125398D01*
Y7107071D01*
X2285126Y7088743D01*
X2321781D01*
X2340109Y7107071D01*
X7355040Y4467600D02*
Y4577564D01*
X7300058D01*
X7281730Y4559237D01*
Y4522582D01*
X7300058Y4504255D01*
X7355040D01*
X7318385D02*
X7281730Y4467600D01*
X7171766D02*
X7245075D01*
X7171766Y4540910D01*
Y4559237D01*
X7190093Y4577564D01*
X7226748D01*
X7245075Y4559237D01*
X7135111Y4467600D02*
X7098456D01*
X7116784D01*
Y4577564D01*
X7135111Y4559237D01*
X7043474Y4449273D02*
X6970164D01*
X6933509Y4577564D02*
Y4467600D01*
X6896855Y4504255D01*
X6860200Y4467600D01*
Y4577564D01*
X6750235Y4559237D02*
X6768563Y4577564D01*
X6805218D01*
X6823545Y4559237D01*
Y4540910D01*
X6805218Y4522582D01*
X6768563D01*
X6750235Y4504255D01*
Y4485927D01*
X6768563Y4467600D01*
X6805218D01*
X6823545Y4485927D01*
X6640271Y4467600D02*
X6713580D01*
X6640271Y4540910D01*
Y4559237D01*
X6658598Y4577564D01*
X6695253D01*
X6713580Y4559237D01*
X6603616D02*
X6585289Y4577564D01*
X6548634D01*
X6530306Y4559237D01*
Y4485927D01*
X6548634Y4467600D01*
X6585289D01*
X6603616Y4485927D01*
Y4559237D01*
X7230580Y4467600D02*
Y4577564D01*
X7175598D01*
X7157270Y4559237D01*
Y4522582D01*
X7175598Y4504255D01*
X7230580D01*
X7193925D02*
X7157270Y4467600D01*
X7047306D02*
X7120615D01*
X7047306Y4540910D01*
Y4559237D01*
X7065633Y4577564D01*
X7102288D01*
X7120615Y4559237D01*
X7010651Y4467600D02*
X6973996D01*
X6992324D01*
Y4577564D01*
X7010651Y4559237D01*
X6919014Y4449273D02*
X6845704D01*
X6809049Y4577564D02*
Y4467600D01*
X6772395Y4504255D01*
X6735740Y4467600D01*
Y4577564D01*
X6625775Y4559237D02*
X6644103Y4577564D01*
X6680758D01*
X6699085Y4559237D01*
Y4540910D01*
X6680758Y4522582D01*
X6644103D01*
X6625775Y4504255D01*
Y4485927D01*
X6644103Y4467600D01*
X6680758D01*
X6699085Y4485927D01*
X6589120Y4467600D02*
X6552466D01*
X6570793D01*
Y4577564D01*
X6589120Y4559237D01*
X6497483Y4485927D02*
X6479156Y4467600D01*
X6442501D01*
X6424174Y4485927D01*
Y4559237D01*
X6442501Y4577564D01*
X6479156D01*
X6497483Y4559237D01*
Y4540910D01*
X6479156Y4522582D01*
X6424174D01*
X7177240Y6126220D02*
Y6236184D01*
X7122258D01*
X7103930Y6217857D01*
Y6181202D01*
X7122258Y6162875D01*
X7177240D01*
X7140585D02*
X7103930Y6126220D01*
X6993966D02*
X7067275D01*
X6993966Y6199530D01*
Y6217857D01*
X7012293Y6236184D01*
X7048948D01*
X7067275Y6217857D01*
X6957311Y6126220D02*
X6920656D01*
X6938984D01*
Y6236184D01*
X6957311Y6217857D01*
X6865674Y6107893D02*
X6792364D01*
X6755709Y6236184D02*
Y6126220D01*
X6719055Y6162875D01*
X6682400Y6126220D01*
Y6236184D01*
X6572435Y6217857D02*
X6590763Y6236184D01*
X6627418D01*
X6645745Y6217857D01*
Y6199530D01*
X6627418Y6181202D01*
X6590763D01*
X6572435Y6162875D01*
Y6144547D01*
X6590763Y6126220D01*
X6627418D01*
X6645745Y6144547D01*
X6535780Y6126220D02*
X6499126D01*
X6517453D01*
Y6236184D01*
X6535780Y6217857D01*
X6444143D02*
X6425816Y6236184D01*
X6389161D01*
X6370834Y6217857D01*
Y6199530D01*
X6389161Y6181202D01*
X6370834Y6162875D01*
Y6144547D01*
X6389161Y6126220D01*
X6425816D01*
X6444143Y6144547D01*
Y6162875D01*
X6425816Y6181202D01*
X6444143Y6199530D01*
Y6217857D01*
X6425816Y6181202D02*
X6389161D01*
X7301700Y6126220D02*
Y6236184D01*
X7246718D01*
X7228390Y6217857D01*
Y6181202D01*
X7246718Y6162875D01*
X7301700D01*
X7265045D02*
X7228390Y6126220D01*
X7118426D02*
X7191735D01*
X7118426Y6199530D01*
Y6217857D01*
X7136753Y6236184D01*
X7173408D01*
X7191735Y6217857D01*
X7081771Y6126220D02*
X7045116D01*
X7063444D01*
Y6236184D01*
X7081771Y6217857D01*
X6990134Y6107893D02*
X6916824D01*
X6880169Y6236184D02*
Y6126220D01*
X6843515Y6162875D01*
X6806860Y6126220D01*
Y6236184D01*
X6696895Y6217857D02*
X6715223Y6236184D01*
X6751878D01*
X6770205Y6217857D01*
Y6199530D01*
X6751878Y6181202D01*
X6715223D01*
X6696895Y6162875D01*
Y6144547D01*
X6715223Y6126220D01*
X6751878D01*
X6770205Y6144547D01*
X6660240Y6126220D02*
X6623586D01*
X6641913D01*
Y6236184D01*
X6660240Y6217857D01*
X6568603Y6236184D02*
X6495294D01*
Y6217857D01*
X6568603Y6144547D01*
Y6126220D01*
X7426160D02*
Y6236184D01*
X7371178D01*
X7352850Y6217857D01*
Y6181202D01*
X7371178Y6162875D01*
X7426160D01*
X7389505D02*
X7352850Y6126220D01*
X7242886D02*
X7316195D01*
X7242886Y6199530D01*
Y6217857D01*
X7261213Y6236184D01*
X7297868D01*
X7316195Y6217857D01*
X7206231Y6126220D02*
X7169576D01*
X7187904D01*
Y6236184D01*
X7206231Y6217857D01*
X7114594Y6107893D02*
X7041284D01*
X7004629Y6236184D02*
Y6126220D01*
X6967975Y6162875D01*
X6931320Y6126220D01*
Y6236184D01*
X6821355Y6217857D02*
X6839683Y6236184D01*
X6876338D01*
X6894665Y6217857D01*
Y6199530D01*
X6876338Y6181202D01*
X6839683D01*
X6821355Y6162875D01*
Y6144547D01*
X6839683Y6126220D01*
X6876338D01*
X6894665Y6144547D01*
X6784700Y6126220D02*
X6748046D01*
X6766373D01*
Y6236184D01*
X6784700Y6217857D01*
X6619754Y6236184D02*
X6656409Y6217857D01*
X6693063Y6181202D01*
Y6144547D01*
X6674736Y6126220D01*
X6638081D01*
X6619754Y6144547D01*
Y6162875D01*
X6638081Y6181202D01*
X6693063D01*
X7553160Y6126220D02*
Y6236184D01*
X7498178D01*
X7479850Y6217857D01*
Y6181202D01*
X7498178Y6162875D01*
X7553160D01*
X7516505D02*
X7479850Y6126220D01*
X7369886D02*
X7443195D01*
X7369886Y6199530D01*
Y6217857D01*
X7388213Y6236184D01*
X7424868D01*
X7443195Y6217857D01*
X7333231Y6126220D02*
X7296576D01*
X7314904D01*
Y6236184D01*
X7333231Y6217857D01*
X7241594Y6107893D02*
X7168284D01*
X7131629Y6236184D02*
Y6126220D01*
X7094975Y6162875D01*
X7058320Y6126220D01*
Y6236184D01*
X6948355Y6217857D02*
X6966683Y6236184D01*
X7003338D01*
X7021665Y6217857D01*
Y6199530D01*
X7003338Y6181202D01*
X6966683D01*
X6948355Y6162875D01*
Y6144547D01*
X6966683Y6126220D01*
X7003338D01*
X7021665Y6144547D01*
X6911700Y6126220D02*
X6875046D01*
X6893373D01*
Y6236184D01*
X6911700Y6217857D01*
X6746754Y6236184D02*
X6820063D01*
Y6181202D01*
X6783409Y6199530D01*
X6765081D01*
X6746754Y6181202D01*
Y6144547D01*
X6765081Y6126220D01*
X6801736D01*
X6820063Y6144547D01*
X7677620Y6126220D02*
Y6236184D01*
X7622638D01*
X7604310Y6217857D01*
Y6181202D01*
X7622638Y6162875D01*
X7677620D01*
X7640965D02*
X7604310Y6126220D01*
X7494346D02*
X7567655D01*
X7494346Y6199530D01*
Y6217857D01*
X7512673Y6236184D01*
X7549328D01*
X7567655Y6217857D01*
X7457691Y6126220D02*
X7421036D01*
X7439364D01*
Y6236184D01*
X7457691Y6217857D01*
X7366054Y6107893D02*
X7292744D01*
X7256089Y6236184D02*
Y6126220D01*
X7219435Y6162875D01*
X7182780Y6126220D01*
Y6236184D01*
X7072815Y6217857D02*
X7091143Y6236184D01*
X7127798D01*
X7146125Y6217857D01*
Y6199530D01*
X7127798Y6181202D01*
X7091143D01*
X7072815Y6162875D01*
Y6144547D01*
X7091143Y6126220D01*
X7127798D01*
X7146125Y6144547D01*
X7036160Y6126220D02*
X6999506D01*
X7017833D01*
Y6236184D01*
X7036160Y6217857D01*
X6889541Y6126220D02*
Y6236184D01*
X6944523Y6181202D01*
X6871214D01*
X7802080Y6126220D02*
Y6236184D01*
X7747098D01*
X7728770Y6217857D01*
Y6181202D01*
X7747098Y6162875D01*
X7802080D01*
X7765425D02*
X7728770Y6126220D01*
X7618806D02*
X7692115D01*
X7618806Y6199530D01*
Y6217857D01*
X7637133Y6236184D01*
X7673788D01*
X7692115Y6217857D01*
X7582151Y6126220D02*
X7545496D01*
X7563824D01*
Y6236184D01*
X7582151Y6217857D01*
X7490514Y6107893D02*
X7417204D01*
X7380549Y6236184D02*
Y6126220D01*
X7343895Y6162875D01*
X7307240Y6126220D01*
Y6236184D01*
X7197275Y6217857D02*
X7215603Y6236184D01*
X7252258D01*
X7270585Y6217857D01*
Y6199530D01*
X7252258Y6181202D01*
X7215603D01*
X7197275Y6162875D01*
Y6144547D01*
X7215603Y6126220D01*
X7252258D01*
X7270585Y6144547D01*
X7160620Y6126220D02*
X7123966D01*
X7142293D01*
Y6236184D01*
X7160620Y6217857D01*
X7068983D02*
X7050656Y6236184D01*
X7014001D01*
X6995674Y6217857D01*
Y6199530D01*
X7014001Y6181202D01*
X7032329D01*
X7014001D01*
X6995674Y6162875D01*
Y6144547D01*
X7014001Y6126220D01*
X7050656D01*
X7068983Y6144547D01*
X7926540Y6126220D02*
Y6236184D01*
X7871558D01*
X7853230Y6217857D01*
Y6181202D01*
X7871558Y6162875D01*
X7926540D01*
X7889885D02*
X7853230Y6126220D01*
X7743266D02*
X7816575D01*
X7743266Y6199530D01*
Y6217857D01*
X7761593Y6236184D01*
X7798248D01*
X7816575Y6217857D01*
X7706611Y6126220D02*
X7669956D01*
X7688284D01*
Y6236184D01*
X7706611Y6217857D01*
X7614974Y6107893D02*
X7541664D01*
X7505009Y6236184D02*
Y6126220D01*
X7468355Y6162875D01*
X7431700Y6126220D01*
Y6236184D01*
X7321735Y6217857D02*
X7340063Y6236184D01*
X7376718D01*
X7395045Y6217857D01*
Y6199530D01*
X7376718Y6181202D01*
X7340063D01*
X7321735Y6162875D01*
Y6144547D01*
X7340063Y6126220D01*
X7376718D01*
X7395045Y6144547D01*
X7285080Y6126220D02*
X7248426D01*
X7266753D01*
Y6236184D01*
X7285080Y6217857D01*
X7120134Y6126220D02*
X7193443D01*
X7120134Y6199530D01*
Y6217857D01*
X7138461Y6236184D01*
X7175116D01*
X7193443Y6217857D01*
X8051000Y6126220D02*
Y6236184D01*
X7996018D01*
X7977690Y6217857D01*
Y6181202D01*
X7996018Y6162875D01*
X8051000D01*
X8014345D02*
X7977690Y6126220D01*
X7867726D02*
X7941035D01*
X7867726Y6199530D01*
Y6217857D01*
X7886053Y6236184D01*
X7922708D01*
X7941035Y6217857D01*
X7831071Y6126220D02*
X7794416D01*
X7812744D01*
Y6236184D01*
X7831071Y6217857D01*
X7739434Y6107893D02*
X7666124D01*
X7629469Y6236184D02*
Y6126220D01*
X7592815Y6162875D01*
X7556160Y6126220D01*
Y6236184D01*
X7446195Y6217857D02*
X7464523Y6236184D01*
X7501178D01*
X7519505Y6217857D01*
Y6199530D01*
X7501178Y6181202D01*
X7464523D01*
X7446195Y6162875D01*
Y6144547D01*
X7464523Y6126220D01*
X7501178D01*
X7519505Y6144547D01*
X7409540Y6126220D02*
X7372886D01*
X7391213D01*
Y6236184D01*
X7409540Y6217857D01*
X7317903Y6126220D02*
X7281249D01*
X7299576D01*
Y6236184D01*
X7317903Y6217857D01*
X7809700Y3992620D02*
Y4102584D01*
X7754718D01*
X7736390Y4084257D01*
Y4047602D01*
X7754718Y4029275D01*
X7809700D01*
X7773045D02*
X7736390Y3992620D01*
X7626426D02*
X7699735D01*
X7626426Y4065930D01*
Y4084257D01*
X7644753Y4102584D01*
X7681408D01*
X7699735Y4084257D01*
X7589771Y3992620D02*
X7553116D01*
X7571444D01*
Y4102584D01*
X7589771Y4084257D01*
X7498134Y3974293D02*
X7424824D01*
X7388169Y4102584D02*
Y3992620D01*
X7351515Y4029275D01*
X7314860Y3992620D01*
Y4102584D01*
X7204895Y4084257D02*
X7223223Y4102584D01*
X7259878D01*
X7278205Y4084257D01*
Y4065930D01*
X7259878Y4047602D01*
X7223223D01*
X7204895Y4029275D01*
Y4010947D01*
X7223223Y3992620D01*
X7259878D01*
X7278205Y4010947D01*
X7168240Y3992620D02*
X7131586D01*
X7149913D01*
Y4102584D01*
X7168240Y4084257D01*
X7076603D02*
X7058276Y4102584D01*
X7021621D01*
X7003294Y4084257D01*
Y4010947D01*
X7021621Y3992620D01*
X7058276D01*
X7076603Y4010947D01*
Y4084257D01*
X7931620Y3992620D02*
Y4102584D01*
X7876638D01*
X7858310Y4084257D01*
Y4047602D01*
X7876638Y4029275D01*
X7931620D01*
X7894965D02*
X7858310Y3992620D01*
X7748346D02*
X7821655D01*
X7748346Y4065930D01*
Y4084257D01*
X7766673Y4102584D01*
X7803328D01*
X7821655Y4084257D01*
X7711691Y3992620D02*
X7675036D01*
X7693364D01*
Y4102584D01*
X7711691Y4084257D01*
X7620054Y3974293D02*
X7546744D01*
X7510089Y4102584D02*
Y3992620D01*
X7473435Y4029275D01*
X7436780Y3992620D01*
Y4102584D01*
X7326815Y4084257D02*
X7345143Y4102584D01*
X7381798D01*
X7400125Y4084257D01*
Y4065930D01*
X7381798Y4047602D01*
X7345143D01*
X7326815Y4029275D01*
Y4010947D01*
X7345143Y3992620D01*
X7381798D01*
X7400125Y4010947D01*
X7290160D02*
X7271833Y3992620D01*
X7235178D01*
X7216851Y4010947D01*
Y4084257D01*
X7235178Y4102584D01*
X7271833D01*
X7290160Y4084257D01*
Y4065930D01*
X7271833Y4047602D01*
X7216851D01*
X8056080Y2359400D02*
Y2469364D01*
X8001098D01*
X7982770Y2451037D01*
Y2414382D01*
X8001098Y2396055D01*
X8056080D01*
X8019425D02*
X7982770Y2359400D01*
X7872806D02*
X7946115D01*
X7872806Y2432710D01*
Y2451037D01*
X7891133Y2469364D01*
X7927788D01*
X7946115Y2451037D01*
X7836151Y2359400D02*
X7799496D01*
X7817824D01*
Y2469364D01*
X7836151Y2451037D01*
X7744514Y2341073D02*
X7671204D01*
X7634549Y2469364D02*
Y2359400D01*
X7597895Y2396055D01*
X7561240Y2359400D01*
Y2469364D01*
X7451275Y2451037D02*
X7469603Y2469364D01*
X7506258D01*
X7524585Y2451037D01*
Y2432710D01*
X7506258Y2414382D01*
X7469603D01*
X7451275Y2396055D01*
Y2377727D01*
X7469603Y2359400D01*
X7506258D01*
X7524585Y2377727D01*
X7414620Y2451037D02*
X7396293Y2469364D01*
X7359638D01*
X7341311Y2451037D01*
Y2432710D01*
X7359638Y2414382D01*
X7341311Y2396055D01*
Y2377727D01*
X7359638Y2359400D01*
X7396293D01*
X7414620Y2377727D01*
Y2396055D01*
X7396293Y2414382D01*
X7414620Y2432710D01*
Y2451037D01*
X7396293Y2414382D02*
X7359638D01*
X7931620Y2359400D02*
Y2469364D01*
X7876638D01*
X7858310Y2451037D01*
Y2414382D01*
X7876638Y2396055D01*
X7931620D01*
X7894965D02*
X7858310Y2359400D01*
X7748346D02*
X7821655D01*
X7748346Y2432710D01*
Y2451037D01*
X7766673Y2469364D01*
X7803328D01*
X7821655Y2451037D01*
X7711691Y2359400D02*
X7675036D01*
X7693364D01*
Y2469364D01*
X7711691Y2451037D01*
X7620054Y2341073D02*
X7546744D01*
X7510089Y2469364D02*
Y2359400D01*
X7473435Y2396055D01*
X7436780Y2359400D01*
Y2469364D01*
X7326815Y2451037D02*
X7345143Y2469364D01*
X7381798D01*
X7400125Y2451037D01*
Y2432710D01*
X7381798Y2414382D01*
X7345143D01*
X7326815Y2396055D01*
Y2377727D01*
X7345143Y2359400D01*
X7381798D01*
X7400125Y2377727D01*
X7290160Y2469364D02*
X7216851D01*
Y2451037D01*
X7290160Y2377727D01*
Y2359400D01*
X8556104Y2393890D02*
Y2503854D01*
X8501122D01*
X8482795Y2485527D01*
Y2448872D01*
X8501122Y2430545D01*
X8556104D01*
X8519450D02*
X8482795Y2393890D01*
X8372830D02*
X8446140D01*
X8372830Y2467200D01*
Y2485527D01*
X8391157Y2503854D01*
X8427812D01*
X8446140Y2485527D01*
X8336175Y2393890D02*
X8299521D01*
X8317848D01*
Y2503854D01*
X8336175Y2485527D01*
X8244538Y2375562D02*
X8171229D01*
X8134574Y2503854D02*
Y2393890D01*
X8097919Y2430545D01*
X8061264Y2393890D01*
Y2503854D01*
X7951300Y2485527D02*
X7969627Y2503854D01*
X8006282D01*
X8024609Y2485527D01*
Y2467200D01*
X8006282Y2448872D01*
X7969627D01*
X7951300Y2430545D01*
Y2412217D01*
X7969627Y2393890D01*
X8006282D01*
X8024609Y2412217D01*
X7841335Y2503854D02*
X7877990Y2485527D01*
X7914645Y2448872D01*
Y2412217D01*
X7896317Y2393890D01*
X7859662D01*
X7841335Y2412217D01*
Y2430545D01*
X7859662Y2448872D01*
X7914645D01*
X7682700Y2359400D02*
Y2469364D01*
X7627718D01*
X7609390Y2451037D01*
Y2414382D01*
X7627718Y2396055D01*
X7682700D01*
X7646045D02*
X7609390Y2359400D01*
X7499426D02*
X7572735D01*
X7499426Y2432710D01*
Y2451037D01*
X7517753Y2469364D01*
X7554408D01*
X7572735Y2451037D01*
X7462771Y2359400D02*
X7426116D01*
X7444444D01*
Y2469364D01*
X7462771Y2451037D01*
X7371134Y2341073D02*
X7297824D01*
X7261169Y2469364D02*
Y2359400D01*
X7224515Y2396055D01*
X7187860Y2359400D01*
Y2469364D01*
X7077895Y2451037D02*
X7096223Y2469364D01*
X7132878D01*
X7151205Y2451037D01*
Y2432710D01*
X7132878Y2414382D01*
X7096223D01*
X7077895Y2396055D01*
Y2377727D01*
X7096223Y2359400D01*
X7132878D01*
X7151205Y2377727D01*
X6967931Y2469364D02*
X7041240D01*
Y2414382D01*
X7004586Y2432710D01*
X6986258D01*
X6967931Y2414382D01*
Y2377727D01*
X6986258Y2359400D01*
X7022913D01*
X7041240Y2377727D01*
X7555700Y2359400D02*
Y2469364D01*
X7500718D01*
X7482390Y2451037D01*
Y2414382D01*
X7500718Y2396055D01*
X7555700D01*
X7519045D02*
X7482390Y2359400D01*
X7372426D02*
X7445735D01*
X7372426Y2432710D01*
Y2451037D01*
X7390753Y2469364D01*
X7427408D01*
X7445735Y2451037D01*
X7335771Y2359400D02*
X7299116D01*
X7317444D01*
Y2469364D01*
X7335771Y2451037D01*
X7244134Y2341073D02*
X7170824D01*
X7134169Y2469364D02*
Y2359400D01*
X7097515Y2396055D01*
X7060860Y2359400D01*
Y2469364D01*
X6950895Y2451037D02*
X6969223Y2469364D01*
X7005878D01*
X7024205Y2451037D01*
Y2432710D01*
X7005878Y2414382D01*
X6969223D01*
X6950895Y2396055D01*
Y2377727D01*
X6969223Y2359400D01*
X7005878D01*
X7024205Y2377727D01*
X6859258Y2359400D02*
Y2469364D01*
X6914240Y2414382D01*
X6840931D01*
X7431240Y2359400D02*
Y2469364D01*
X7376258D01*
X7357930Y2451037D01*
Y2414382D01*
X7376258Y2396055D01*
X7431240D01*
X7394585D02*
X7357930Y2359400D01*
X7247966D02*
X7321275D01*
X7247966Y2432710D01*
Y2451037D01*
X7266293Y2469364D01*
X7302948D01*
X7321275Y2451037D01*
X7211311Y2359400D02*
X7174656D01*
X7192984D01*
Y2469364D01*
X7211311Y2451037D01*
X7119674Y2341073D02*
X7046364D01*
X7009709Y2469364D02*
Y2359400D01*
X6973055Y2396055D01*
X6936400Y2359400D01*
Y2469364D01*
X6826435Y2451037D02*
X6844763Y2469364D01*
X6881418D01*
X6899745Y2451037D01*
Y2432710D01*
X6881418Y2414382D01*
X6844763D01*
X6826435Y2396055D01*
Y2377727D01*
X6844763Y2359400D01*
X6881418D01*
X6899745Y2377727D01*
X6789780Y2451037D02*
X6771453Y2469364D01*
X6734798D01*
X6716471Y2451037D01*
Y2432710D01*
X6734798Y2414382D01*
X6753126D01*
X6734798D01*
X6716471Y2396055D01*
Y2377727D01*
X6734798Y2359400D01*
X6771453D01*
X6789780Y2377727D01*
X7306780Y2359400D02*
Y2469364D01*
X7251798D01*
X7233470Y2451037D01*
Y2414382D01*
X7251798Y2396055D01*
X7306780D01*
X7270125D02*
X7233470Y2359400D01*
X7123506D02*
X7196815D01*
X7123506Y2432710D01*
Y2451037D01*
X7141833Y2469364D01*
X7178488D01*
X7196815Y2451037D01*
X7086851Y2359400D02*
X7050196D01*
X7068524D01*
Y2469364D01*
X7086851Y2451037D01*
X6995214Y2341073D02*
X6921904D01*
X6885249Y2469364D02*
Y2359400D01*
X6848595Y2396055D01*
X6811940Y2359400D01*
Y2469364D01*
X6701975Y2451037D02*
X6720303Y2469364D01*
X6756958D01*
X6775285Y2451037D01*
Y2432710D01*
X6756958Y2414382D01*
X6720303D01*
X6701975Y2396055D01*
Y2377727D01*
X6720303Y2359400D01*
X6756958D01*
X6775285Y2377727D01*
X6592011Y2359400D02*
X6665320D01*
X6592011Y2432710D01*
Y2451037D01*
X6610338Y2469364D01*
X6646993D01*
X6665320Y2451037D01*
X7182320Y2359400D02*
Y2469364D01*
X7127338D01*
X7109010Y2451037D01*
Y2414382D01*
X7127338Y2396055D01*
X7182320D01*
X7145665D02*
X7109010Y2359400D01*
X6999046D02*
X7072355D01*
X6999046Y2432710D01*
Y2451037D01*
X7017373Y2469364D01*
X7054028D01*
X7072355Y2451037D01*
X6962391Y2359400D02*
X6925736D01*
X6944064D01*
Y2469364D01*
X6962391Y2451037D01*
X6870754Y2341073D02*
X6797444D01*
X6760789Y2469364D02*
Y2359400D01*
X6724135Y2396055D01*
X6687480Y2359400D01*
Y2469364D01*
X6577515Y2451037D02*
X6595843Y2469364D01*
X6632498D01*
X6650825Y2451037D01*
Y2432710D01*
X6632498Y2414382D01*
X6595843D01*
X6577515Y2396055D01*
Y2377727D01*
X6595843Y2359400D01*
X6632498D01*
X6650825Y2377727D01*
X6540860Y2359400D02*
X6504206D01*
X6522533D01*
Y2469364D01*
X6540860Y2451037D01*
X7689132Y4204428D02*
Y4094463D01*
X7744114D01*
X7762442Y4112791D01*
Y4149446D01*
X7744114Y4167773D01*
X7689132D01*
X7725787D02*
X7762442Y4204428D01*
X7799096D02*
X7835751D01*
X7817424D01*
Y4094463D01*
X7799096Y4112791D01*
X7890734Y4094463D02*
X7964043D01*
Y4112791D01*
X7890734Y4186101D01*
Y4204428D01*
X8000698Y4222755D02*
X8074008D01*
X8183972Y4112791D02*
X8165645Y4094463D01*
X8128990D01*
X8110662Y4112791D01*
Y4131118D01*
X8128990Y4149446D01*
X8165645D01*
X8183972Y4167773D01*
Y4186101D01*
X8165645Y4204428D01*
X8128990D01*
X8110662Y4186101D01*
X8220627Y4094463D02*
X8257282D01*
X8238954D01*
Y4204428D01*
X8220627D01*
X8257282D01*
X8312264D02*
X8348919D01*
X8330591D01*
Y4094463D01*
X8312264Y4112791D01*
X7275777Y3469068D02*
X7385742D01*
Y3524050D01*
X7367414Y3542378D01*
X7330760D01*
X7312432Y3524050D01*
Y3469068D01*
Y3505723D02*
X7275777Y3542378D01*
Y3579032D02*
Y3615687D01*
Y3597360D01*
X7385742D01*
X7367414Y3579032D01*
X7385742Y3670670D02*
Y3743979D01*
X7367414D01*
X7294105Y3670670D01*
X7275777D01*
X7257450Y3780634D02*
Y3853944D01*
X7367414Y3963908D02*
X7385742Y3945581D01*
Y3908926D01*
X7367414Y3890599D01*
X7349087D01*
X7330760Y3908926D01*
Y3945581D01*
X7312432Y3963908D01*
X7294105D01*
X7275777Y3945581D01*
Y3908926D01*
X7294105Y3890599D01*
X7385742Y4000563D02*
Y4037218D01*
Y4018890D01*
X7275777D01*
Y4000563D01*
Y4037218D01*
X7367414Y4092200D02*
X7385742Y4110527D01*
Y4147182D01*
X7367414Y4165510D01*
X7294105D01*
X7275777Y4147182D01*
Y4110527D01*
X7294105Y4092200D01*
X7367414D01*
X7763980Y4466962D02*
Y4576927D01*
X7708998D01*
X7690670Y4558599D01*
Y4521944D01*
X7708998Y4503617D01*
X7763980D01*
X7727325D02*
X7690670Y4466962D01*
X7654015D02*
X7617361D01*
X7635688D01*
Y4576927D01*
X7654015Y4558599D01*
X7562378D02*
X7544051Y4576927D01*
X7507396D01*
X7489069Y4558599D01*
Y4540272D01*
X7507396Y4521944D01*
X7525724D01*
X7507396D01*
X7489069Y4503617D01*
Y4485289D01*
X7507396Y4466962D01*
X7544051D01*
X7562378Y4485289D01*
X7452414Y4448635D02*
X7379104D01*
X7269140Y4558599D02*
X7287467Y4576927D01*
X7324122D01*
X7342449Y4558599D01*
Y4540272D01*
X7324122Y4521944D01*
X7287467D01*
X7269140Y4503617D01*
Y4485289D01*
X7287467Y4466962D01*
X7324122D01*
X7342449Y4485289D01*
X7232485Y4576927D02*
X7195830D01*
X7214158D01*
Y4466962D01*
X7232485D01*
X7195830D01*
X7140848D02*
X7104193D01*
X7122520D01*
Y4576927D01*
X7140848Y4558599D01*
X7413460Y3992620D02*
Y4102584D01*
X7358478D01*
X7340150Y4084257D01*
Y4047602D01*
X7358478Y4029275D01*
X7413460D01*
X7376805D02*
X7340150Y3992620D01*
X7303495D02*
X7266841D01*
X7285168D01*
Y4102584D01*
X7303495Y4084257D01*
X7211858D02*
X7193531Y4102584D01*
X7156876D01*
X7138549Y4084257D01*
Y4065930D01*
X7156876Y4047602D01*
X7175204D01*
X7156876D01*
X7138549Y4029275D01*
Y4010947D01*
X7156876Y3992620D01*
X7193531D01*
X7211858Y4010947D01*
X7101894Y3974293D02*
X7028584D01*
X6918620Y4084257D02*
X6936947Y4102584D01*
X6973602D01*
X6991929Y4084257D01*
Y4065930D01*
X6973602Y4047602D01*
X6936947D01*
X6918620Y4029275D01*
Y4010947D01*
X6936947Y3992620D01*
X6973602D01*
X6991929Y4010947D01*
X6881965Y4102584D02*
X6845310D01*
X6863638D01*
Y3992620D01*
X6881965D01*
X6845310D01*
X6790328Y4084257D02*
X6772000Y4102584D01*
X6735345D01*
X6717018Y4084257D01*
Y4010947D01*
X6735345Y3992620D01*
X6772000D01*
X6790328Y4010947D01*
Y4084257D01*
X3974864Y2962730D02*
Y2852765D01*
X3901555D01*
X3864900D02*
X3828245D01*
X3846572D01*
Y2962730D01*
X3864900Y2944402D01*
X3699953Y2852765D02*
X3773263D01*
X3699953Y2926075D01*
Y2944402D01*
X3718280Y2962730D01*
X3754935D01*
X3773263Y2944402D01*
X143211Y6477661D02*
Y6550971D01*
X198193D01*
Y6514316D01*
Y6550971D01*
X253176D01*
Y6367697D02*
Y6441006D01*
X179866Y6367697D01*
X161539D01*
X143211Y6386024D01*
Y6422679D01*
X161539Y6441006D01*
X1332233Y7657478D02*
X1405543D01*
Y7602496D01*
X1368888D01*
X1405543D01*
Y7547513D01*
X1295578D02*
X1258923D01*
X1277251D01*
Y7657478D01*
X1295578Y7639151D01*
X245311Y5957404D02*
X135347D01*
Y6012387D01*
X153674Y6030714D01*
X226984D01*
X245311Y6012387D01*
Y5957404D01*
Y6140678D02*
Y6067369D01*
X190329D01*
X208657Y6104023D01*
Y6122351D01*
X190329Y6140678D01*
X153674D01*
X135347Y6122351D01*
Y6085696D01*
X153674Y6067369D01*
X10966920Y7209004D02*
Y7099040D01*
X10911938D01*
X10893610Y7117367D01*
Y7190677D01*
X10911938Y7209004D01*
X10966920D01*
X10856955Y7190677D02*
X10838628Y7209004D01*
X10801973D01*
X10783646Y7190677D01*
Y7172350D01*
X10801973Y7154022D01*
X10820301D01*
X10801973D01*
X10783646Y7135695D01*
Y7117367D01*
X10801973Y7099040D01*
X10838628D01*
X10856955Y7117367D01*
X10746991Y7080713D02*
X10673681D01*
X10637026Y7209004D02*
Y7099040D01*
X10600372Y7135695D01*
X10563717Y7099040D01*
Y7209004D01*
X10453752Y7190677D02*
X10472080Y7209004D01*
X10508735D01*
X10527062Y7190677D01*
Y7172350D01*
X10508735Y7154022D01*
X10472080D01*
X10453752Y7135695D01*
Y7117367D01*
X10472080Y7099040D01*
X10508735D01*
X10527062Y7117367D01*
X10343788Y7099040D02*
X10417098D01*
X10343788Y7172350D01*
Y7190677D01*
X10362115Y7209004D01*
X10398770D01*
X10417098Y7190677D01*
X10307133D02*
X10288806Y7209004D01*
X10252151D01*
X10233823Y7190677D01*
Y7117367D01*
X10252151Y7099040D01*
X10288806D01*
X10307133Y7117367D01*
Y7190677D01*
X10585920Y7209004D02*
Y7099040D01*
X10530938D01*
X10512610Y7117367D01*
Y7190677D01*
X10530938Y7209004D01*
X10585920D01*
X10475955Y7190677D02*
X10457628Y7209004D01*
X10420973D01*
X10402646Y7190677D01*
Y7172350D01*
X10420973Y7154022D01*
X10439301D01*
X10420973D01*
X10402646Y7135695D01*
Y7117367D01*
X10420973Y7099040D01*
X10457628D01*
X10475955Y7117367D01*
X10365991Y7080713D02*
X10292681D01*
X10256026Y7209004D02*
Y7099040D01*
X10219372Y7135695D01*
X10182717Y7099040D01*
Y7209004D01*
X10072752Y7190677D02*
X10091080Y7209004D01*
X10127735D01*
X10146062Y7190677D01*
Y7172350D01*
X10127735Y7154022D01*
X10091080D01*
X10072752Y7135695D01*
Y7117367D01*
X10091080Y7099040D01*
X10127735D01*
X10146062Y7117367D01*
X10036098Y7099040D02*
X9999443D01*
X10017770D01*
Y7209004D01*
X10036098Y7190677D01*
X9944460Y7117367D02*
X9926133Y7099040D01*
X9889478D01*
X9871151Y7117367D01*
Y7190677D01*
X9889478Y7209004D01*
X9926133D01*
X9944460Y7190677D01*
Y7172350D01*
X9926133Y7154022D01*
X9871151D01*
X10204920Y7209004D02*
Y7099040D01*
X10149938D01*
X10131610Y7117367D01*
Y7190677D01*
X10149938Y7209004D01*
X10204920D01*
X10094955Y7190677D02*
X10076628Y7209004D01*
X10039973D01*
X10021646Y7190677D01*
Y7172350D01*
X10039973Y7154022D01*
X10058301D01*
X10039973D01*
X10021646Y7135695D01*
Y7117367D01*
X10039973Y7099040D01*
X10076628D01*
X10094955Y7117367D01*
X9984991Y7080713D02*
X9911681D01*
X9875026Y7209004D02*
Y7099040D01*
X9838372Y7135695D01*
X9801717Y7099040D01*
Y7209004D01*
X9691752Y7190677D02*
X9710080Y7209004D01*
X9746735D01*
X9765062Y7190677D01*
Y7172350D01*
X9746735Y7154022D01*
X9710080D01*
X9691752Y7135695D01*
Y7117367D01*
X9710080Y7099040D01*
X9746735D01*
X9765062Y7117367D01*
X9655098Y7099040D02*
X9618443D01*
X9636770D01*
Y7209004D01*
X9655098Y7190677D01*
X9563460D02*
X9545133Y7209004D01*
X9508478D01*
X9490151Y7190677D01*
Y7172350D01*
X9508478Y7154022D01*
X9490151Y7135695D01*
Y7117367D01*
X9508478Y7099040D01*
X9545133D01*
X9563460Y7117367D01*
Y7135695D01*
X9545133Y7154022D01*
X9563460Y7172350D01*
Y7190677D01*
X9545133Y7154022D02*
X9508478D01*
X9823920Y7209004D02*
Y7099040D01*
X9768938D01*
X9750610Y7117367D01*
Y7190677D01*
X9768938Y7209004D01*
X9823920D01*
X9713955Y7190677D02*
X9695628Y7209004D01*
X9658973D01*
X9640646Y7190677D01*
Y7172350D01*
X9658973Y7154022D01*
X9677301D01*
X9658973D01*
X9640646Y7135695D01*
Y7117367D01*
X9658973Y7099040D01*
X9695628D01*
X9713955Y7117367D01*
X9603991Y7080713D02*
X9530681D01*
X9494026Y7209004D02*
Y7099040D01*
X9457372Y7135695D01*
X9420717Y7099040D01*
Y7209004D01*
X9310752Y7190677D02*
X9329080Y7209004D01*
X9365735D01*
X9384062Y7190677D01*
Y7172350D01*
X9365735Y7154022D01*
X9329080D01*
X9310752Y7135695D01*
Y7117367D01*
X9329080Y7099040D01*
X9365735D01*
X9384062Y7117367D01*
X9274098Y7099040D02*
X9237443D01*
X9255770D01*
Y7209004D01*
X9274098Y7190677D01*
X9182460Y7209004D02*
X9109151D01*
Y7190677D01*
X9182460Y7117367D01*
Y7099040D01*
X9442920Y7209004D02*
Y7099040D01*
X9387938D01*
X9369610Y7117367D01*
Y7190677D01*
X9387938Y7209004D01*
X9442920D01*
X9332955Y7190677D02*
X9314628Y7209004D01*
X9277973D01*
X9259646Y7190677D01*
Y7172350D01*
X9277973Y7154022D01*
X9296301D01*
X9277973D01*
X9259646Y7135695D01*
Y7117367D01*
X9277973Y7099040D01*
X9314628D01*
X9332955Y7117367D01*
X9222991Y7080713D02*
X9149681D01*
X9113026Y7209004D02*
Y7099040D01*
X9076372Y7135695D01*
X9039717Y7099040D01*
Y7209004D01*
X8929752Y7190677D02*
X8948080Y7209004D01*
X8984735D01*
X9003062Y7190677D01*
Y7172350D01*
X8984735Y7154022D01*
X8948080D01*
X8929752Y7135695D01*
Y7117367D01*
X8948080Y7099040D01*
X8984735D01*
X9003062Y7117367D01*
X8893098Y7099040D02*
X8856443D01*
X8874770D01*
Y7209004D01*
X8893098Y7190677D01*
X8728151Y7209004D02*
X8764806Y7190677D01*
X8801460Y7154022D01*
Y7117367D01*
X8783133Y7099040D01*
X8746478D01*
X8728151Y7117367D01*
Y7135695D01*
X8746478Y7154022D01*
X8801460D01*
X9069540Y7209004D02*
Y7099040D01*
X9014558D01*
X8996230Y7117367D01*
Y7190677D01*
X9014558Y7209004D01*
X9069540D01*
X8959575Y7190677D02*
X8941248Y7209004D01*
X8904593D01*
X8886266Y7190677D01*
Y7172350D01*
X8904593Y7154022D01*
X8922921D01*
X8904593D01*
X8886266Y7135695D01*
Y7117367D01*
X8904593Y7099040D01*
X8941248D01*
X8959575Y7117367D01*
X8849611Y7080713D02*
X8776301D01*
X8739646Y7209004D02*
Y7099040D01*
X8702992Y7135695D01*
X8666337Y7099040D01*
Y7209004D01*
X8556372Y7190677D02*
X8574700Y7209004D01*
X8611355D01*
X8629682Y7190677D01*
Y7172350D01*
X8611355Y7154022D01*
X8574700D01*
X8556372Y7135695D01*
Y7117367D01*
X8574700Y7099040D01*
X8611355D01*
X8629682Y7117367D01*
X8519718Y7099040D02*
X8483063D01*
X8501390D01*
Y7209004D01*
X8519718Y7190677D01*
X8354771Y7209004D02*
X8428080D01*
Y7154022D01*
X8391426Y7172350D01*
X8373098D01*
X8354771Y7154022D01*
Y7117367D01*
X8373098Y7099040D01*
X8409753D01*
X8428080Y7117367D01*
X8680920Y7209004D02*
Y7099040D01*
X8625938D01*
X8607610Y7117367D01*
Y7190677D01*
X8625938Y7209004D01*
X8680920D01*
X8570955Y7190677D02*
X8552628Y7209004D01*
X8515973D01*
X8497646Y7190677D01*
Y7172350D01*
X8515973Y7154022D01*
X8534301D01*
X8515973D01*
X8497646Y7135695D01*
Y7117367D01*
X8515973Y7099040D01*
X8552628D01*
X8570955Y7117367D01*
X8460991Y7080713D02*
X8387681D01*
X8351026Y7209004D02*
Y7099040D01*
X8314372Y7135695D01*
X8277717Y7099040D01*
Y7209004D01*
X8167752Y7190677D02*
X8186080Y7209004D01*
X8222735D01*
X8241062Y7190677D01*
Y7172350D01*
X8222735Y7154022D01*
X8186080D01*
X8167752Y7135695D01*
Y7117367D01*
X8186080Y7099040D01*
X8222735D01*
X8241062Y7117367D01*
X8131098Y7099040D02*
X8094443D01*
X8112770D01*
Y7209004D01*
X8131098Y7190677D01*
X7984478Y7099040D02*
Y7209004D01*
X8039460Y7154022D01*
X7966151D01*
X8299920Y7209004D02*
Y7099040D01*
X8244938D01*
X8226610Y7117367D01*
Y7190677D01*
X8244938Y7209004D01*
X8299920D01*
X8189955Y7190677D02*
X8171628Y7209004D01*
X8134973D01*
X8116646Y7190677D01*
Y7172350D01*
X8134973Y7154022D01*
X8153301D01*
X8134973D01*
X8116646Y7135695D01*
Y7117367D01*
X8134973Y7099040D01*
X8171628D01*
X8189955Y7117367D01*
X8079991Y7080713D02*
X8006681D01*
X7970026Y7209004D02*
Y7099040D01*
X7933372Y7135695D01*
X7896717Y7099040D01*
Y7209004D01*
X7786752Y7190677D02*
X7805080Y7209004D01*
X7841735D01*
X7860062Y7190677D01*
Y7172350D01*
X7841735Y7154022D01*
X7805080D01*
X7786752Y7135695D01*
Y7117367D01*
X7805080Y7099040D01*
X7841735D01*
X7860062Y7117367D01*
X7750098Y7099040D02*
X7713443D01*
X7731770D01*
Y7209004D01*
X7750098Y7190677D01*
X7658460D02*
X7640133Y7209004D01*
X7603478D01*
X7585151Y7190677D01*
Y7172350D01*
X7603478Y7154022D01*
X7621806D01*
X7603478D01*
X7585151Y7135695D01*
Y7117367D01*
X7603478Y7099040D01*
X7640133D01*
X7658460Y7117367D01*
X7913840Y7209004D02*
Y7099040D01*
X7858858D01*
X7840530Y7117367D01*
Y7190677D01*
X7858858Y7209004D01*
X7913840D01*
X7803875Y7190677D02*
X7785548Y7209004D01*
X7748893D01*
X7730566Y7190677D01*
Y7172350D01*
X7748893Y7154022D01*
X7767221D01*
X7748893D01*
X7730566Y7135695D01*
Y7117367D01*
X7748893Y7099040D01*
X7785548D01*
X7803875Y7117367D01*
X7693911Y7080713D02*
X7620601D01*
X7583946Y7209004D02*
Y7099040D01*
X7547292Y7135695D01*
X7510637Y7099040D01*
Y7209004D01*
X7400672Y7190677D02*
X7419000Y7209004D01*
X7455655D01*
X7473982Y7190677D01*
Y7172350D01*
X7455655Y7154022D01*
X7419000D01*
X7400672Y7135695D01*
Y7117367D01*
X7419000Y7099040D01*
X7455655D01*
X7473982Y7117367D01*
X7364018Y7099040D02*
X7327363D01*
X7345690D01*
Y7209004D01*
X7364018Y7190677D01*
X7199071Y7099040D02*
X7272380D01*
X7199071Y7172350D01*
Y7190677D01*
X7217398Y7209004D01*
X7254053D01*
X7272380Y7190677D01*
X7135901Y6420910D02*
Y6530875D01*
X7190884D01*
X7209211Y6512547D01*
Y6439238D01*
X7190884Y6420910D01*
X7135901D01*
X7245866Y6439238D02*
X7264193Y6420910D01*
X7300848D01*
X7319176Y6439238D01*
Y6457565D01*
X7300848Y6475892D01*
X7282521D01*
X7300848D01*
X7319176Y6494220D01*
Y6512547D01*
X7300848Y6530875D01*
X7264193D01*
X7245866Y6512547D01*
X7355830Y6549202D02*
X7429140D01*
X7465795Y6420910D02*
Y6530875D01*
X7502450Y6494220D01*
X7539105Y6530875D01*
Y6420910D01*
X7649069Y6439238D02*
X7630742Y6420910D01*
X7594087D01*
X7575759Y6439238D01*
Y6457565D01*
X7594087Y6475892D01*
X7630742D01*
X7649069Y6494220D01*
Y6512547D01*
X7630742Y6530875D01*
X7594087D01*
X7575759Y6512547D01*
X7685724Y6530875D02*
X7722379D01*
X7704051D01*
Y6420910D01*
X7685724Y6439238D01*
X7777361Y6530875D02*
X7814016D01*
X7795688D01*
Y6420910D01*
X7777361Y6439238D01*
X10987240Y1460984D02*
Y1351020D01*
X10932258D01*
X10913930Y1369347D01*
Y1442657D01*
X10932258Y1460984D01*
X10987240D01*
X10877275Y1442657D02*
X10858948Y1460984D01*
X10822293D01*
X10803966Y1442657D01*
Y1424330D01*
X10822293Y1406002D01*
X10840621D01*
X10822293D01*
X10803966Y1387675D01*
Y1369347D01*
X10822293Y1351020D01*
X10858948D01*
X10877275Y1369347D01*
X10767311Y1332693D02*
X10694001D01*
X10657346Y1460984D02*
Y1351020D01*
X10620692Y1387675D01*
X10584037Y1351020D01*
Y1460984D01*
X10474072Y1442657D02*
X10492400Y1460984D01*
X10529055D01*
X10547382Y1442657D01*
Y1424330D01*
X10529055Y1406002D01*
X10492400D01*
X10474072Y1387675D01*
Y1369347D01*
X10492400Y1351020D01*
X10529055D01*
X10547382Y1369347D01*
X10437418Y1351020D02*
X10400763D01*
X10419090D01*
Y1460984D01*
X10437418Y1442657D01*
X10345780D02*
X10327453Y1460984D01*
X10290798D01*
X10272471Y1442657D01*
Y1369347D01*
X10290798Y1351020D01*
X10327453D01*
X10345780Y1369347D01*
Y1442657D01*
X10611320Y1460984D02*
Y1351020D01*
X10556338D01*
X10538010Y1369347D01*
Y1442657D01*
X10556338Y1460984D01*
X10611320D01*
X10501355Y1442657D02*
X10483028Y1460984D01*
X10446373D01*
X10428046Y1442657D01*
Y1424330D01*
X10446373Y1406002D01*
X10464701D01*
X10446373D01*
X10428046Y1387675D01*
Y1369347D01*
X10446373Y1351020D01*
X10483028D01*
X10501355Y1369347D01*
X10391391Y1332693D02*
X10318081D01*
X10281426Y1460984D02*
Y1351020D01*
X10244772Y1387675D01*
X10208117Y1351020D01*
Y1460984D01*
X10098152Y1442657D02*
X10116480Y1460984D01*
X10153135D01*
X10171462Y1442657D01*
Y1424330D01*
X10153135Y1406002D01*
X10116480D01*
X10098152Y1387675D01*
Y1369347D01*
X10116480Y1351020D01*
X10153135D01*
X10171462Y1369347D01*
X10061498D02*
X10043170Y1351020D01*
X10006515D01*
X9988188Y1369347D01*
Y1442657D01*
X10006515Y1460984D01*
X10043170D01*
X10061498Y1442657D01*
Y1424330D01*
X10043170Y1406002D01*
X9988188D01*
X9458914Y656874D02*
Y766838D01*
X9513896D01*
X9532224Y748511D01*
Y675201D01*
X9513896Y656874D01*
X9458914D01*
X9568878Y675201D02*
X9587206Y656874D01*
X9623861D01*
X9642188Y675201D01*
Y693528D01*
X9623861Y711856D01*
X9605533D01*
X9623861D01*
X9642188Y730183D01*
Y748511D01*
X9623861Y766838D01*
X9587206D01*
X9568878Y748511D01*
X9678843Y785166D02*
X9752153D01*
X9788807Y656874D02*
Y766838D01*
X9825462Y730183D01*
X9862117Y766838D01*
Y656874D01*
X9972082Y675201D02*
X9953754Y656874D01*
X9917099D01*
X9898772Y675201D01*
Y693528D01*
X9917099Y711856D01*
X9953754D01*
X9972082Y730183D01*
Y748511D01*
X9953754Y766838D01*
X9917099D01*
X9898772Y748511D01*
X10008736Y675201D02*
X10027064Y656874D01*
X10063719D01*
X10082046Y675201D01*
Y693528D01*
X10063719Y711856D01*
X10082046Y730183D01*
Y748511D01*
X10063719Y766838D01*
X10027064D01*
X10008736Y748511D01*
Y730183D01*
X10027064Y711856D01*
X10008736Y693528D01*
Y675201D01*
X10027064Y711856D02*
X10063719D01*
X9836620Y1460984D02*
Y1351020D01*
X9781638D01*
X9763310Y1369347D01*
Y1442657D01*
X9781638Y1460984D01*
X9836620D01*
X9726655Y1442657D02*
X9708328Y1460984D01*
X9671673D01*
X9653346Y1442657D01*
Y1424330D01*
X9671673Y1406002D01*
X9690001D01*
X9671673D01*
X9653346Y1387675D01*
Y1369347D01*
X9671673Y1351020D01*
X9708328D01*
X9726655Y1369347D01*
X9616691Y1332693D02*
X9543381D01*
X9506726Y1460984D02*
Y1351020D01*
X9470072Y1387675D01*
X9433417Y1351020D01*
Y1460984D01*
X9323452Y1442657D02*
X9341780Y1460984D01*
X9378435D01*
X9396762Y1442657D01*
Y1424330D01*
X9378435Y1406002D01*
X9341780D01*
X9323452Y1387675D01*
Y1369347D01*
X9341780Y1351020D01*
X9378435D01*
X9396762Y1369347D01*
X9286798Y1460984D02*
X9213488D01*
Y1442657D01*
X9286798Y1369347D01*
Y1351020D01*
X9458160Y1460984D02*
Y1351020D01*
X9403178D01*
X9384850Y1369347D01*
Y1442657D01*
X9403178Y1460984D01*
X9458160D01*
X9348195Y1442657D02*
X9329868Y1460984D01*
X9293213D01*
X9274886Y1442657D01*
Y1424330D01*
X9293213Y1406002D01*
X9311541D01*
X9293213D01*
X9274886Y1387675D01*
Y1369347D01*
X9293213Y1351020D01*
X9329868D01*
X9348195Y1369347D01*
X9238231Y1332693D02*
X9164921D01*
X9128266Y1460984D02*
Y1351020D01*
X9091612Y1387675D01*
X9054957Y1351020D01*
Y1460984D01*
X8944992Y1442657D02*
X8963320Y1460984D01*
X8999975D01*
X9018302Y1442657D01*
Y1424330D01*
X8999975Y1406002D01*
X8963320D01*
X8944992Y1387675D01*
Y1369347D01*
X8963320Y1351020D01*
X8999975D01*
X9018302Y1369347D01*
X8835028Y1460984D02*
X8871683Y1442657D01*
X8908338Y1406002D01*
Y1369347D01*
X8890010Y1351020D01*
X8853355D01*
X8835028Y1369347D01*
Y1387675D01*
X8853355Y1406002D01*
X8908338D01*
X9069540Y1460984D02*
Y1351020D01*
X9014558D01*
X8996230Y1369347D01*
Y1442657D01*
X9014558Y1460984D01*
X9069540D01*
X8959575Y1442657D02*
X8941248Y1460984D01*
X8904593D01*
X8886266Y1442657D01*
Y1424330D01*
X8904593Y1406002D01*
X8922921D01*
X8904593D01*
X8886266Y1387675D01*
Y1369347D01*
X8904593Y1351020D01*
X8941248D01*
X8959575Y1369347D01*
X8849611Y1332693D02*
X8776301D01*
X8739646Y1460984D02*
Y1351020D01*
X8702992Y1387675D01*
X8666337Y1351020D01*
Y1460984D01*
X8556372Y1442657D02*
X8574700Y1460984D01*
X8611355D01*
X8629682Y1442657D01*
Y1424330D01*
X8611355Y1406002D01*
X8574700D01*
X8556372Y1387675D01*
Y1369347D01*
X8574700Y1351020D01*
X8611355D01*
X8629682Y1369347D01*
X8446408Y1460984D02*
X8519718D01*
Y1406002D01*
X8483063Y1424330D01*
X8464735D01*
X8446408Y1406002D01*
Y1369347D01*
X8464735Y1351020D01*
X8501390D01*
X8519718Y1369347D01*
X8686000Y1460984D02*
Y1351020D01*
X8631018D01*
X8612690Y1369347D01*
Y1442657D01*
X8631018Y1460984D01*
X8686000D01*
X8576035Y1442657D02*
X8557708Y1460984D01*
X8521053D01*
X8502726Y1442657D01*
Y1424330D01*
X8521053Y1406002D01*
X8539381D01*
X8521053D01*
X8502726Y1387675D01*
Y1369347D01*
X8521053Y1351020D01*
X8557708D01*
X8576035Y1369347D01*
X8466071Y1332693D02*
X8392761D01*
X8356106Y1460984D02*
Y1351020D01*
X8319452Y1387675D01*
X8282797Y1351020D01*
Y1460984D01*
X8172832Y1442657D02*
X8191160Y1460984D01*
X8227815D01*
X8246142Y1442657D01*
Y1424330D01*
X8227815Y1406002D01*
X8191160D01*
X8172832Y1387675D01*
Y1369347D01*
X8191160Y1351020D01*
X8227815D01*
X8246142Y1369347D01*
X8081195Y1351020D02*
Y1460984D01*
X8136178Y1406002D01*
X8062868D01*
X8312620Y1460984D02*
Y1351020D01*
X8257638D01*
X8239310Y1369347D01*
Y1442657D01*
X8257638Y1460984D01*
X8312620D01*
X8202655Y1442657D02*
X8184328Y1460984D01*
X8147673D01*
X8129346Y1442657D01*
Y1424330D01*
X8147673Y1406002D01*
X8166001D01*
X8147673D01*
X8129346Y1387675D01*
Y1369347D01*
X8147673Y1351020D01*
X8184328D01*
X8202655Y1369347D01*
X8092691Y1332693D02*
X8019381D01*
X7982726Y1460984D02*
Y1351020D01*
X7946072Y1387675D01*
X7909417Y1351020D01*
Y1460984D01*
X7799452Y1442657D02*
X7817780Y1460984D01*
X7854435D01*
X7872762Y1442657D01*
Y1424330D01*
X7854435Y1406002D01*
X7817780D01*
X7799452Y1387675D01*
Y1369347D01*
X7817780Y1351020D01*
X7854435D01*
X7872762Y1369347D01*
X7762798Y1442657D02*
X7744470Y1460984D01*
X7707815D01*
X7689488Y1442657D01*
Y1424330D01*
X7707815Y1406002D01*
X7726143D01*
X7707815D01*
X7689488Y1387675D01*
Y1369347D01*
X7707815Y1351020D01*
X7744470D01*
X7762798Y1369347D01*
X7936700Y1460984D02*
Y1351020D01*
X7881718D01*
X7863390Y1369347D01*
Y1442657D01*
X7881718Y1460984D01*
X7936700D01*
X7826735Y1442657D02*
X7808408Y1460984D01*
X7771753D01*
X7753426Y1442657D01*
Y1424330D01*
X7771753Y1406002D01*
X7790081D01*
X7771753D01*
X7753426Y1387675D01*
Y1369347D01*
X7771753Y1351020D01*
X7808408D01*
X7826735Y1369347D01*
X7716771Y1332693D02*
X7643461D01*
X7606806Y1460984D02*
Y1351020D01*
X7570152Y1387675D01*
X7533497Y1351020D01*
Y1460984D01*
X7423532Y1442657D02*
X7441860Y1460984D01*
X7478515D01*
X7496842Y1442657D01*
Y1424330D01*
X7478515Y1406002D01*
X7441860D01*
X7423532Y1387675D01*
Y1369347D01*
X7441860Y1351020D01*
X7478515D01*
X7496842Y1369347D01*
X7313568Y1351020D02*
X7386878D01*
X7313568Y1424330D01*
Y1442657D01*
X7331895Y1460984D01*
X7368550D01*
X7386878Y1442657D01*
X6851870Y656874D02*
Y766838D01*
X6906853D01*
X6925180Y748511D01*
Y675201D01*
X6906853Y656874D01*
X6851870D01*
X6961835Y675201D02*
X6980162Y656874D01*
X7016817D01*
X7035144Y675201D01*
Y693528D01*
X7016817Y711856D01*
X6998489D01*
X7016817D01*
X7035144Y730183D01*
Y748511D01*
X7016817Y766838D01*
X6980162D01*
X6961835Y748511D01*
X7071799Y785166D02*
X7145109D01*
X7181764Y656874D02*
Y766838D01*
X7218418Y730183D01*
X7255073Y766838D01*
Y656874D01*
X7365038Y675201D02*
X7346710Y656874D01*
X7310055D01*
X7291728Y675201D01*
Y693528D01*
X7310055Y711856D01*
X7346710D01*
X7365038Y730183D01*
Y748511D01*
X7346710Y766838D01*
X7310055D01*
X7291728Y748511D01*
X7401693Y766838D02*
X7438347D01*
X7420020D01*
Y656874D01*
X7401693Y675201D01*
X3557397Y2922301D02*
X3575724Y2940628D01*
X3612379D01*
X3630706Y2922301D01*
Y2848991D01*
X3612379Y2830664D01*
X3575724D01*
X3557397Y2848991D01*
X3520742Y2922301D02*
X3502415Y2940628D01*
X3465760D01*
X3447432Y2922301D01*
Y2903974D01*
X3465760Y2885646D01*
X3447432Y2867319D01*
Y2848991D01*
X3465760Y2830664D01*
X3502415D01*
X3520742Y2848991D01*
Y2867319D01*
X3502415Y2885646D01*
X3520742Y2903974D01*
Y2922301D01*
X3502415Y2885646D02*
X3465760D01*
X3410778Y2830664D02*
X3374123D01*
X3392450D01*
Y2940628D01*
X3410778Y2922301D01*
X2591939Y3193485D02*
X2573611Y3211812D01*
Y3248467D01*
X2591939Y3266795D01*
X2665248D01*
X2683576Y3248467D01*
Y3211812D01*
X2665248Y3193485D01*
X2591939Y3156830D02*
X2573611Y3138503D01*
Y3101848D01*
X2591939Y3083521D01*
X2610266D01*
X2628593Y3101848D01*
X2646921Y3083521D01*
X2665248D01*
X2683576Y3101848D01*
Y3138503D01*
X2665248Y3156830D01*
X2646921D01*
X2628593Y3138503D01*
X2610266Y3156830D01*
X2591939D01*
X2628593Y3138503D02*
Y3101848D01*
X2591939Y3046866D02*
X2573611Y3028539D01*
Y2991884D01*
X2591939Y2973556D01*
X2665248D01*
X2683576Y2991884D01*
Y3028539D01*
X2665248Y3046866D01*
X2591939D01*
X2798942Y6883142D02*
X2817269Y6901469D01*
X2853924D01*
X2872252Y6883142D01*
Y6809832D01*
X2853924Y6791505D01*
X2817269D01*
X2798942Y6809832D01*
X2688977Y6901469D02*
X2762287D01*
Y6846487D01*
X2725632Y6864814D01*
X2707305D01*
X2688977Y6846487D01*
Y6809832D01*
X2707305Y6791505D01*
X2743960D01*
X2762287Y6809832D01*
X2652323Y6883142D02*
X2633995Y6901469D01*
X2597340D01*
X2579013Y6883142D01*
Y6809832D01*
X2597340Y6791505D01*
X2633995D01*
X2652323Y6809832D01*
Y6883142D01*
X2486728Y7449787D02*
X2505055Y7468115D01*
X2541710D01*
X2560038Y7449787D01*
Y7376478D01*
X2541710Y7358150D01*
X2505055D01*
X2486728Y7376478D01*
X2395091Y7358150D02*
Y7468115D01*
X2450073Y7413132D01*
X2376764D01*
X2340109Y7468115D02*
X2266799D01*
Y7449787D01*
X2340109Y7376478D01*
Y7358150D01*
X7058210Y4955477D02*
X7076538Y4973804D01*
X7113193D01*
X7131520Y4955477D01*
Y4882167D01*
X7113193Y4863840D01*
X7076538D01*
X7058210Y4882167D01*
X6966573Y4863840D02*
Y4973804D01*
X7021555Y4918822D01*
X6948246D01*
X6838281Y4863840D02*
X6911591D01*
X6838281Y4937150D01*
Y4955477D01*
X6856609Y4973804D01*
X6893264D01*
X6911591Y4955477D01*
X6801626Y4845513D02*
X6728317D01*
X6618352Y4955477D02*
X6636680Y4973804D01*
X6673335D01*
X6691662Y4955477D01*
Y4937150D01*
X6673335Y4918822D01*
X6636680D01*
X6618352Y4900495D01*
Y4882167D01*
X6636680Y4863840D01*
X6673335D01*
X6691662Y4882167D01*
X6581698Y4973804D02*
X6545043D01*
X6563370D01*
Y4863840D01*
X6581698D01*
X6545043D01*
X6490060D02*
X6453406D01*
X6471733D01*
Y4973804D01*
X6490060Y4955477D01*
X8114850Y3548317D02*
X8133178Y3566644D01*
X8169833D01*
X8188160Y3548317D01*
Y3475007D01*
X8169833Y3456680D01*
X8133178D01*
X8114850Y3475007D01*
X8078195Y3548317D02*
X8059868Y3566644D01*
X8023213D01*
X8004886Y3548317D01*
Y3529990D01*
X8023213Y3511662D01*
X8041541D01*
X8023213D01*
X8004886Y3493335D01*
Y3475007D01*
X8023213Y3456680D01*
X8059868D01*
X8078195Y3475007D01*
X7968231D02*
X7949904Y3456680D01*
X7913249D01*
X7894921Y3475007D01*
Y3548317D01*
X7913249Y3566644D01*
X7949904D01*
X7968231Y3548317D01*
Y3529990D01*
X7949904Y3511662D01*
X7894921D01*
X7858266Y3438353D02*
X7784957D01*
X7674992Y3548317D02*
X7693320Y3566644D01*
X7729975D01*
X7748302Y3548317D01*
Y3529990D01*
X7729975Y3511662D01*
X7693320D01*
X7674992Y3493335D01*
Y3475007D01*
X7693320Y3456680D01*
X7729975D01*
X7748302Y3475007D01*
X7638338Y3566644D02*
X7601683D01*
X7620010D01*
Y3456680D01*
X7638338D01*
X7601683D01*
X7546700Y3548317D02*
X7528373Y3566644D01*
X7491718D01*
X7473391Y3548317D01*
Y3475007D01*
X7491718Y3456680D01*
X7528373D01*
X7546700Y3475007D01*
Y3548317D01*
X6690221Y6303292D02*
X6671894Y6321620D01*
Y6358275D01*
X6690221Y6376602D01*
X6763531D01*
X6781858Y6358275D01*
Y6321620D01*
X6763531Y6303292D01*
X6690221Y6266638D02*
X6671894Y6248310D01*
Y6211655D01*
X6690221Y6193328D01*
X6708549D01*
X6726876Y6211655D01*
Y6229983D01*
Y6211655D01*
X6745204Y6193328D01*
X6763531D01*
X6781858Y6211655D01*
Y6248310D01*
X6763531Y6266638D01*
X6690221Y6156673D02*
X6671894Y6138346D01*
Y6101691D01*
X6690221Y6083364D01*
X6708549D01*
X6726876Y6101691D01*
X6745204Y6083364D01*
X6763531D01*
X6781858Y6101691D01*
Y6138346D01*
X6763531Y6156673D01*
X6745204D01*
X6726876Y6138346D01*
X6708549Y6156673D01*
X6690221D01*
X6726876Y6138346D02*
Y6101691D01*
X6800186Y6046709D02*
Y5973399D01*
X6690221Y5863435D02*
X6671894Y5881762D01*
Y5918417D01*
X6690221Y5936744D01*
X6708549D01*
X6726876Y5918417D01*
Y5881762D01*
X6745204Y5863435D01*
X6763531D01*
X6781858Y5881762D01*
Y5918417D01*
X6763531Y5936744D01*
X6671894Y5826780D02*
Y5790125D01*
Y5808452D01*
X6781858D01*
Y5826780D01*
Y5790125D01*
Y5735143D02*
Y5698488D01*
Y5716815D01*
X6671894D01*
X6690221Y5735143D01*
X6938830Y1079437D02*
X6957158Y1097764D01*
X6993813D01*
X7012140Y1079437D01*
Y1006127D01*
X6993813Y987800D01*
X6957158D01*
X6938830Y1006127D01*
X6902175Y1079437D02*
X6883848Y1097764D01*
X6847193D01*
X6828866Y1079437D01*
Y1061110D01*
X6847193Y1042782D01*
X6865521D01*
X6847193D01*
X6828866Y1024455D01*
Y1006127D01*
X6847193Y987800D01*
X6883848D01*
X6902175Y1006127D01*
X6792211Y1079437D02*
X6773884Y1097764D01*
X6737229D01*
X6718901Y1079437D01*
Y1061110D01*
X6737229Y1042782D01*
X6718901Y1024455D01*
Y1006127D01*
X6737229Y987800D01*
X6773884D01*
X6792211Y1006127D01*
Y1024455D01*
X6773884Y1042782D01*
X6792211Y1061110D01*
Y1079437D01*
X6773884Y1042782D02*
X6737229D01*
X6682246Y969473D02*
X6608937D01*
X6498972Y1079437D02*
X6517300Y1097764D01*
X6553955D01*
X6572282Y1079437D01*
Y1061110D01*
X6553955Y1042782D01*
X6517300D01*
X6498972Y1024455D01*
Y1006127D01*
X6517300Y987800D01*
X6553955D01*
X6572282Y1006127D01*
X6462318Y1097764D02*
X6425663D01*
X6443990D01*
Y987800D01*
X6462318D01*
X6425663D01*
X6370680Y1079437D02*
X6352353Y1097764D01*
X6315698D01*
X6297371Y1079437D01*
Y1006127D01*
X6315698Y987800D01*
X6352353D01*
X6370680Y1006127D01*
Y1079437D01*
D124*
X1499121Y7471957D02*
G03*
X1499121Y7471957I-14142J0D01*
G01*
X3190613Y2444887D02*
G03*
X3190613Y2444887I-5000J0D01*
G01*
X3694933Y3045159D02*
X3720325Y3070551D01*
X3771108D01*
X3796500Y3045159D01*
Y2943592D01*
X3771108Y2918200D01*
X3720325D01*
X3694933Y2943592D01*
X3542582Y3070551D02*
X3593366Y3045159D01*
X3644149Y2994375D01*
Y2943592D01*
X3618757Y2918200D01*
X3567974D01*
X3542582Y2943592D01*
Y2968983D01*
X3567974Y2994375D01*
X3644149D01*
X3491798Y3045159D02*
X3466407Y3070551D01*
X3415623D01*
X3390231Y3045159D01*
Y3019767D01*
X3415623Y2994375D01*
X3390231Y2968983D01*
Y2943592D01*
X3415623Y2918200D01*
X3466407D01*
X3491798Y2943592D01*
Y2968983D01*
X3466407Y2994375D01*
X3491798Y3019767D01*
Y3045159D01*
X3466407Y2994375D02*
X3415623D01*
X3674613Y3408379D02*
X3700005Y3433771D01*
X3750788D01*
X3776180Y3408379D01*
Y3306812D01*
X3750788Y3281420D01*
X3700005D01*
X3674613Y3306812D01*
X3522262Y3433771D02*
X3573046Y3408379D01*
X3623829Y3357595D01*
Y3306812D01*
X3598437Y3281420D01*
X3547654D01*
X3522262Y3306812D01*
Y3332203D01*
X3547654Y3357595D01*
X3623829D01*
X3471478Y3306812D02*
X3446087Y3281420D01*
X3395303D01*
X3369911Y3306812D01*
Y3408379D01*
X3395303Y3433771D01*
X3446087D01*
X3471478Y3408379D01*
Y3382987D01*
X3446087Y3357595D01*
X3369911D01*
X3031960Y3250940D02*
Y3403291D01*
X2955785D01*
X2930393Y3377899D01*
Y3327115D01*
X2955785Y3301723D01*
X3031960D01*
X2981176D02*
X2930393Y3250940D01*
X2778042Y3403291D02*
X2828826Y3377899D01*
X2879609Y3327115D01*
Y3276332D01*
X2854217Y3250940D01*
X2803434D01*
X2778042Y3276332D01*
Y3301723D01*
X2803434Y3327115D01*
X2879609D01*
X2727258Y3276332D02*
X2701867Y3250940D01*
X2651083D01*
X2625691Y3276332D01*
Y3377899D01*
X2651083Y3403291D01*
X2701867D01*
X2727258Y3377899D01*
Y3352507D01*
X2701867Y3327115D01*
X2625691D01*
X3585508Y2468359D02*
X3483941D01*
X3534725D01*
Y2316009D01*
X3433157D02*
Y2468359D01*
X3356982D01*
X3331590Y2442967D01*
Y2392184D01*
X3356982Y2366792D01*
X3433157D01*
X3280807Y2316009D02*
X3230023D01*
X3255415D01*
Y2468359D01*
X3280807Y2442967D01*
X3153848Y2468359D02*
X3052281D01*
Y2442967D01*
X3153848Y2341400D01*
Y2316009D01*
X3070753Y2877343D02*
X2969186D01*
X3019970D01*
Y2724992D01*
X2918403D02*
Y2877343D01*
X2842227D01*
X2816835Y2851951D01*
Y2801168D01*
X2842227Y2775776D01*
X2918403D01*
X2766052Y2724992D02*
X2715268D01*
X2740660D01*
Y2877343D01*
X2766052Y2851951D01*
X2537526Y2877343D02*
X2588310Y2851951D01*
X2639093Y2801168D01*
Y2750384D01*
X2613701Y2724992D01*
X2562918D01*
X2537526Y2750384D01*
Y2775776D01*
X2562918Y2801168D01*
X2639093D01*
X3471380Y3385511D02*
X3369813D01*
X3420596D01*
Y3233160D01*
X3319029D02*
Y3385511D01*
X3242854D01*
X3217462Y3360119D01*
Y3309335D01*
X3242854Y3283943D01*
X3319029D01*
X3166678Y3385511D02*
X3065111D01*
Y3360119D01*
X3166678Y3258552D01*
Y3233160D01*
X3668937Y2824140D02*
Y2976491D01*
X3592762D01*
X3567370Y2951099D01*
Y2900315D01*
X3592762Y2874923D01*
X3668937D01*
X3618154D02*
X3567370Y2824140D01*
X3415019Y2976491D02*
X3516587D01*
Y2900315D01*
X3465803Y2925707D01*
X3440411D01*
X3415019Y2900315D01*
Y2849532D01*
X3440411Y2824140D01*
X3491195D01*
X3516587Y2849532D01*
X3262669Y2976491D02*
X3364236D01*
Y2900315D01*
X3313452Y2925707D01*
X3288060D01*
X3262669Y2900315D01*
Y2849532D01*
X3288060Y2824140D01*
X3338844D01*
X3364236Y2849532D01*
X3092920Y3037531D02*
Y3012139D01*
X3042136Y2961355D01*
X2991353Y3012139D01*
Y3037531D01*
X3042136Y2961355D02*
Y2885180D01*
X2940569D02*
X2889786D01*
X2915177D01*
Y3037531D01*
X2940569Y3012139D01*
X4112454Y4982606D02*
X4137846Y5007998D01*
X4188630D01*
X4214022Y4982606D01*
Y4957214D01*
X4188630Y4931822D01*
X4137846D01*
X4112454Y4906430D01*
Y4881039D01*
X4137846Y4855647D01*
X4188630D01*
X4214022Y4881039D01*
X4061671Y5007998D02*
Y4855647D01*
X3985495D01*
X3960104Y4881039D01*
Y4906430D01*
X3985495Y4931822D01*
X4061671D01*
X3985495D01*
X3960104Y4957214D01*
Y4982606D01*
X3985495Y5007998D01*
X4061671D01*
X3909320Y4855647D02*
X3858537D01*
X3883928D01*
Y5007998D01*
X3909320Y4982606D01*
X3680794Y4855647D02*
X3782361D01*
X3680794Y4957214D01*
Y4982606D01*
X3706186Y5007998D01*
X3756969D01*
X3782361Y4982606D01*
X771360Y4508240D02*
Y4660591D01*
X695185D01*
X669793Y4635199D01*
Y4584415D01*
X695185Y4559023D01*
X771360D01*
X720576D02*
X669793Y4508240D01*
X542834D02*
Y4660591D01*
X619009Y4584415D01*
X517442D01*
X390483Y4508240D02*
Y4660591D01*
X466658Y4584415D01*
X365091D01*
X631660Y4099300D02*
Y4251651D01*
X555485D01*
X530093Y4226259D01*
Y4175475D01*
X555485Y4150083D01*
X631660D01*
X580876D02*
X530093Y4099300D01*
X403134D02*
Y4251651D01*
X479309Y4175475D01*
X377742D01*
X326958Y4226259D02*
X301567Y4251651D01*
X250783D01*
X225391Y4226259D01*
Y4200867D01*
X250783Y4175475D01*
X276175D01*
X250783D01*
X225391Y4150083D01*
Y4124692D01*
X250783Y4099300D01*
X301567D01*
X326958Y4124692D01*
X2264565Y6101981D02*
Y6254332D01*
X2188389D01*
X2162997Y6228940D01*
Y6178156D01*
X2188389Y6152764D01*
X2264565D01*
X2213781D02*
X2162997Y6101981D01*
X2010647Y6254332D02*
X2061430Y6228940D01*
X2112214Y6178156D01*
Y6127373D01*
X2086822Y6101981D01*
X2036039D01*
X2010647Y6127373D01*
Y6152764D01*
X2036039Y6178156D01*
X2112214D01*
X1959863Y6254332D02*
X1858296D01*
Y6228940D01*
X1959863Y6127373D01*
Y6101981D01*
X2087080Y5930640D02*
Y6082991D01*
X2010905D01*
X1985513Y6057599D01*
Y6006815D01*
X2010905Y5981423D01*
X2087080D01*
X2036296D02*
X1985513Y5930640D01*
X1833162Y6082991D02*
X1883946Y6057599D01*
X1934729Y6006815D01*
Y5956032D01*
X1909337Y5930640D01*
X1858554D01*
X1833162Y5956032D01*
Y5981423D01*
X1858554Y6006815D01*
X1934729D01*
X1680811Y6082991D02*
X1782378D01*
Y6006815D01*
X1731595Y6032207D01*
X1706203D01*
X1680811Y6006815D01*
Y5956032D01*
X1706203Y5930640D01*
X1756987D01*
X1782378Y5956032D01*
X3047200Y6474200D02*
Y6626551D01*
X2971025D01*
X2945633Y6601159D01*
Y6550375D01*
X2971025Y6524983D01*
X3047200D01*
X2996416D02*
X2945633Y6474200D01*
X2793282Y6626551D02*
X2844066Y6601159D01*
X2894849Y6550375D01*
Y6499592D01*
X2869457Y6474200D01*
X2818674D01*
X2793282Y6499592D01*
Y6524983D01*
X2818674Y6550375D01*
X2894849D01*
X2666323Y6474200D02*
Y6626551D01*
X2742498Y6550375D01*
X2640931D01*
X2826070Y7125128D02*
X2673719D01*
Y7048952D01*
X2699111Y7023561D01*
X2749894D01*
X2775286Y7048952D01*
Y7125128D01*
Y7074344D02*
X2826070Y7023561D01*
X2673719Y6871210D02*
X2699111Y6921994D01*
X2749894Y6972777D01*
X2800678D01*
X2826070Y6947385D01*
Y6896602D01*
X2800678Y6871210D01*
X2775286D01*
X2749894Y6896602D01*
Y6972777D01*
X2699111Y6820426D02*
X2673719Y6795034D01*
Y6744251D01*
X2699111Y6718859D01*
X2800678D01*
X2826070Y6744251D01*
Y6795034D01*
X2800678Y6820426D01*
X2699111D01*
X2559520Y6700260D02*
Y6852611D01*
X2483345D01*
X2457953Y6827219D01*
Y6776435D01*
X2483345Y6751043D01*
X2559520D01*
X2508736D02*
X2457953Y6700260D01*
X2305602Y6852611D02*
X2407169D01*
Y6776435D01*
X2356386Y6801827D01*
X2330994D01*
X2305602Y6776435D01*
Y6725652D01*
X2330994Y6700260D01*
X2381777D01*
X2407169Y6725652D01*
X773900Y4843520D02*
Y4995871D01*
X697725D01*
X672333Y4970479D01*
Y4919695D01*
X697725Y4894303D01*
X773900D01*
X723116D02*
X672333Y4843520D01*
X519982Y4995871D02*
X570766Y4970479D01*
X621549Y4919695D01*
Y4868912D01*
X596157Y4843520D01*
X545374D01*
X519982Y4868912D01*
Y4894303D01*
X545374Y4919695D01*
X621549D01*
X367631Y4995871D02*
X418415Y4970479D01*
X469198Y4919695D01*
Y4868912D01*
X443807Y4843520D01*
X393023D01*
X367631Y4868912D01*
Y4894303D01*
X393023Y4919695D01*
X469198D01*
X3381519Y6927649D02*
X3279952D01*
X3330736D01*
Y6775298D01*
X3229169D02*
Y6927649D01*
X3152993D01*
X3127601Y6902257D01*
Y6851473D01*
X3152993Y6826081D01*
X3229169D01*
X2975251Y6927649D02*
X3026034Y6902257D01*
X3076818Y6851473D01*
Y6800690D01*
X3051426Y6775298D01*
X3000642D01*
X2975251Y6800690D01*
Y6826081D01*
X3000642Y6851473D01*
X3076818D01*
X2487864Y6178328D02*
X2538647D01*
X2513256D01*
Y6330679D01*
X2487864D01*
X2538647D01*
X2716390Y6203720D02*
X2690998Y6178328D01*
X2640215D01*
X2614823Y6203720D01*
Y6305287D01*
X2640215Y6330679D01*
X2690998D01*
X2716390Y6305287D01*
X2843349Y6330679D02*
Y6178328D01*
X2767174Y6254503D01*
X2868741D01*
%TF.MD5,a2f87efa62866af4f30f3a8853018d31*%
M02*
