%TF.GenerationSoftware,Altium Limited,Altium Designer,25.4.2 (15)*%
G04 Layer_Color=8388736*
%FSLAX45Y45*%
%MOMM*%
%TF.SameCoordinates,244FAB98-5257-4605-B12F-362C43534D49*%
%TF.FilePolarity,Negative*%
%TF.FileFunction,Soldermask,Top*%
%TF.Part,Single*%
G01*
G75*
%TA.AperFunction,SMDPad,CuDef*%
%ADD14R,1.00000X0.90000*%
%ADD19R,1.10000X1.00000*%
%ADD21R,1.00000X1.10000*%
%ADD33R,0.90000X1.00000*%
%ADD40R,1.05000X1.00000*%
%ADD43C,2.00000*%
%ADD61R,1.46200X0.35480*%
%ADD128R,0.40000X1.50000*%
%ADD129R,0.90000X0.75000*%
%ADD130R,1.10000X0.90000*%
%ADD131R,1.10000X2.20000*%
%ADD132R,1.20000X1.10000*%
%ADD133R,0.90000X1.10000*%
%ADD134R,1.10000X1.20000*%
%ADD135R,2.20000X1.10000*%
%ADD136R,0.95000X1.05000*%
G04:AMPARAMS|DCode=137|XSize=0.72mm|YSize=0.42mm|CornerRadius=0mm|HoleSize=0mm|Usage=FLASHONLY|Rotation=0.000|XOffset=0mm|YOffset=0mm|HoleType=Round|Shape=Octagon|*
%AMOCTAGOND137*
4,1,8,0.36000,-0.10500,0.36000,0.10500,0.25500,0.21000,-0.25500,0.21000,-0.36000,0.10500,-0.36000,-0.10500,-0.25500,-0.21000,0.25500,-0.21000,0.36000,-0.10500,0.0*
%
%ADD137OCTAGOND137*%

G04:AMPARAMS|DCode=138|XSize=5.76mm|YSize=5.76mm|CornerRadius=0.22mm|HoleSize=0mm|Usage=FLASHONLY|Rotation=0.000|XOffset=0mm|YOffset=0mm|HoleType=Round|Shape=RoundedRectangle|*
%AMROUNDEDRECTD138*
21,1,5.76000,5.32000,0,0,0.0*
21,1,5.32000,5.76000,0,0,0.0*
1,1,0.44000,2.66000,-2.66000*
1,1,0.44000,-2.66000,-2.66000*
1,1,0.44000,-2.66000,2.66000*
1,1,0.44000,2.66000,2.66000*
%
%ADD138ROUNDEDRECTD138*%
G04:AMPARAMS|DCode=139|XSize=0.72mm|YSize=0.42mm|CornerRadius=0mm|HoleSize=0mm|Usage=FLASHONLY|Rotation=270.000|XOffset=0mm|YOffset=0mm|HoleType=Round|Shape=Octagon|*
%AMOCTAGOND139*
4,1,8,-0.10500,-0.36000,0.10500,-0.36000,0.21000,-0.25500,0.21000,0.25500,0.10500,0.36000,-0.10500,0.36000,-0.21000,0.25500,-0.21000,-0.25500,-0.10500,-0.36000,0.0*
%
%ADD139OCTAGOND139*%

%ADD140R,1.30000X0.50000*%
%ADD141R,0.80000X0.75000*%
%ADD142R,0.65000X0.80000*%
%ADD143R,1.05000X0.95000*%
%ADD144O,0.45000X2.20000*%
%TA.AperFunction,TestPad*%
%ADD145C,1.30000*%
%TA.AperFunction,SMDPad,CuDef*%
%ADD146R,1.50000X1.40000*%
%ADD147R,1.45000X1.25000*%
%ADD148R,2.64000X0.75000*%
%ADD149R,2.60000X1.80000*%
%ADD150R,2.50000X2.26000*%
%ADD151R,1.15000X1.10000*%
%ADD152R,2.30000X1.15000*%
%ADD153R,0.75000X0.80000*%
%ADD154R,1.40000X1.50000*%
%ADD155R,0.90000X1.25000*%
%ADD156R,0.50000X1.30000*%
%ADD157R,0.82500X1.10000*%
%ADD158R,0.70000X1.30000*%
%ADD159R,2.20000X1.40000*%
%ADD160R,0.40000X0.90000*%
%ADD161R,3.60000X1.70000*%
%ADD162R,2.10000X4.20000*%
%ADD163R,5.50000X3.00000*%
%ADD164R,0.75000X1.62500*%
%ADD165R,2.80000X1.40000*%
%ADD166R,0.80000X0.80000*%
%ADD167R,0.80000X0.65000*%
%ADD168R,1.70000X2.90000*%
%ADD169R,0.95000X2.30000*%
%ADD170R,1.45000X1.10000*%
%ADD171R,1.25000X0.70000*%
%ADD172R,1.80000X0.75000*%
%ADD173R,3.30000X1.10000*%
%ADD174R,1.62500X0.75000*%
%ADD175R,2.50000X0.86000*%
%ADD176R,0.93000X0.72500*%
%ADD177R,1.23000X0.86000*%
%ADD178R,0.72500X0.95000*%
%ADD179R,0.75000X0.90000*%
%ADD180R,0.80000X1.30000*%
%ADD181O,0.45000X0.35000*%
%ADD182R,0.80000X0.80000*%
%ADD183R,1.20000X1.05000*%
%ADD184R,0.95000X0.40000*%
%ADD185R,1.10000X0.70000*%
%ADD186R,0.70000X1.10000*%
%ADD187R,0.63000X1.43000*%
%ADD188R,1.07200X0.90200*%
%ADD189O,0.86000X1.37000*%
%TA.AperFunction,ComponentPad*%
%ADD190O,1.85000X2.60000*%
%ADD191O,2.60000X1.85000*%
%ADD192O,2.60000X1.60000*%
%ADD193C,1.75000*%
%TA.AperFunction,WasherPad*%
%ADD194C,3.10000*%
%TA.AperFunction,ViaPad*%
%ADD195C,0.75000*%
D14*
X6498307Y6955141D02*
D03*
X6668304D02*
D03*
X6615149Y3139897D02*
D03*
X6785151D02*
D03*
X6468279Y2869825D02*
D03*
X6298282D02*
D03*
X6479381Y4591607D02*
D03*
X6309379D02*
D03*
X3526687Y2680519D02*
D03*
X3696690D02*
D03*
X4364564Y6900700D02*
D03*
X4534561D02*
D03*
X6668309Y6705144D02*
D03*
X6498307D02*
D03*
X6668309Y7330141D02*
D03*
X6498312D02*
D03*
X6668309Y7205143D02*
D03*
X6498307D02*
D03*
X6668304Y7080139D02*
D03*
X6498307D02*
D03*
X6668309Y6830142D02*
D03*
X6498307D02*
D03*
X6668309Y6580140D02*
D03*
X6498307D02*
D03*
X6668309Y6455142D02*
D03*
X6498307D02*
D03*
X4109568Y5626157D02*
D03*
X4279565D02*
D03*
X6859999Y3787500D02*
D03*
X6690002D02*
D03*
X6684998Y3907499D02*
D03*
X6515001D02*
D03*
X6859999Y4232498D02*
D03*
X6690002D02*
D03*
X5410184Y1755003D02*
D03*
X5580186D02*
D03*
X5189995Y2342860D02*
D03*
X5019998D02*
D03*
X5560189Y2113035D02*
D03*
X5730186D02*
D03*
X6498307Y6170530D02*
D03*
X6668309D02*
D03*
X6498307Y6304581D02*
D03*
X6668309D02*
D03*
X6489650Y516625D02*
D03*
X6659648D02*
D03*
X6493765Y644499D02*
D03*
X6663767D02*
D03*
X6492932Y1269156D02*
D03*
X6662929D02*
D03*
X6492932Y1644156D02*
D03*
X6662934D02*
D03*
X6492932Y1519158D02*
D03*
X6662934D02*
D03*
X6492932Y1394154D02*
D03*
X6662934D02*
D03*
X6492932Y1144157D02*
D03*
X6662934D02*
D03*
X6492937Y894155D02*
D03*
X6662934D02*
D03*
X6492932Y769157D02*
D03*
X6662934D02*
D03*
X6492937Y1019159D02*
D03*
X6662934D02*
D03*
X6515001Y4049999D02*
D03*
X6684998D02*
D03*
D19*
X1110498Y3113765D02*
D03*
Y3248766D02*
D03*
X9797751Y5054633D02*
D03*
Y5189634D02*
D03*
X2339155Y4145165D02*
D03*
Y4010169D02*
D03*
X2075197Y2758087D02*
D03*
Y2893083D02*
D03*
X9745637Y2876676D02*
D03*
Y3011672D02*
D03*
X9916002Y3548303D02*
D03*
Y3413302D02*
D03*
X4142143Y4387173D02*
D03*
Y4522174D02*
D03*
X758819Y3249156D02*
D03*
Y3114155D02*
D03*
X1693563Y3510514D02*
D03*
Y3645510D02*
D03*
X4759512Y5660126D02*
D03*
Y5795126D02*
D03*
X3876902Y3527953D02*
D03*
Y3392952D02*
D03*
X1642638Y7448900D02*
D03*
Y7313900D02*
D03*
X4108994Y7220399D02*
D03*
Y7085398D02*
D03*
X4637627Y7386968D02*
D03*
Y7521969D02*
D03*
X4637628Y7220399D02*
D03*
Y7085398D02*
D03*
X4108994Y7386968D02*
D03*
Y7521969D02*
D03*
X2260811Y6777082D02*
D03*
Y6912083D02*
D03*
X2255947Y7315001D02*
D03*
Y7450002D02*
D03*
X2260816Y7052781D02*
D03*
Y7187782D02*
D03*
X1810815Y7450002D02*
D03*
Y7315001D02*
D03*
X10107230Y4460452D02*
D03*
Y4595453D02*
D03*
X1918264Y2893083D02*
D03*
Y2758087D02*
D03*
X1917566Y3041782D02*
D03*
Y3176778D02*
D03*
X2074829Y3041782D02*
D03*
Y3176778D02*
D03*
X1945464Y3927494D02*
D03*
Y3792498D02*
D03*
X2342946Y3656018D02*
D03*
Y3791013D02*
D03*
X2891369Y3527292D02*
D03*
Y3662288D02*
D03*
X2620910Y3528033D02*
D03*
Y3663028D02*
D03*
X3406510Y3505737D02*
D03*
Y3370741D02*
D03*
X4017140Y4387178D02*
D03*
Y4522174D02*
D03*
X2627281Y4740740D02*
D03*
Y4875741D02*
D03*
X3053908Y4878123D02*
D03*
Y4743122D02*
D03*
X6620174Y3005480D02*
D03*
Y2870479D02*
D03*
X6617804Y4724998D02*
D03*
Y4589997D02*
D03*
X6859999Y4049999D02*
D03*
Y3914998D02*
D03*
D21*
X3276891Y3231912D02*
D03*
X3411887D02*
D03*
X4838502Y6074993D02*
D03*
X4973503D02*
D03*
X4970764Y6243499D02*
D03*
X4835763D02*
D03*
X3267161Y7187088D02*
D03*
X3402162D02*
D03*
X3268198Y6784119D02*
D03*
X3403199D02*
D03*
X9792500Y4700000D02*
D03*
X9657499D02*
D03*
X11424999D02*
D03*
X11290003D02*
D03*
X2199949Y3649107D02*
D03*
X2064948D02*
D03*
X8735002Y3295004D02*
D03*
X8600001D02*
D03*
X1982538Y3509587D02*
D03*
X1847542D02*
D03*
X2483984Y4151051D02*
D03*
X2618980D02*
D03*
X2483087Y4008652D02*
D03*
X2618083D02*
D03*
X2892039Y3388831D02*
D03*
X3027035D02*
D03*
X4152141Y4224678D02*
D03*
X4017140D02*
D03*
X4089637Y4013463D02*
D03*
X3954636D02*
D03*
X4090235Y3872600D02*
D03*
X3955234D02*
D03*
X4299999Y3706911D02*
D03*
X4435000D02*
D03*
X4299999Y4013458D02*
D03*
X4435000D02*
D03*
X10367500Y3295004D02*
D03*
X10232499D02*
D03*
X6321389Y3007687D02*
D03*
X6456390D02*
D03*
X6517500Y3732499D02*
D03*
X6382499D02*
D03*
X6347503Y4727672D02*
D03*
X6482499D02*
D03*
X605295Y3597180D02*
D03*
X470299D02*
D03*
D33*
X6754633Y4850934D02*
D03*
Y4680931D02*
D03*
X10875002Y3834998D02*
D03*
Y3665001D02*
D03*
X11000006D02*
D03*
Y3834998D02*
D03*
X4621935Y6079759D02*
D03*
Y6249757D02*
D03*
X2214880Y2891522D02*
D03*
Y2721520D02*
D03*
X10770004Y4325721D02*
D03*
Y4155723D02*
D03*
X9125003Y4155718D02*
D03*
Y4325721D02*
D03*
X10650004D02*
D03*
Y4155718D02*
D03*
X9000005D02*
D03*
Y4325721D02*
D03*
X2214879Y3190872D02*
D03*
Y3020875D02*
D03*
X2899811Y4913124D02*
D03*
Y4743122D02*
D03*
X2777348Y4913124D02*
D03*
Y4743122D02*
D03*
X5032488Y1992571D02*
D03*
Y2162568D02*
D03*
X11150003Y4155718D02*
D03*
Y4325716D02*
D03*
X11025005D02*
D03*
Y4155718D02*
D03*
X9500004Y4155723D02*
D03*
Y4325721D02*
D03*
X9375005Y4155723D02*
D03*
Y4325721D02*
D03*
X9025004Y3835003D02*
D03*
Y3665001D02*
D03*
X9249997D02*
D03*
Y3835003D02*
D03*
X9375000Y3665001D02*
D03*
Y3835003D02*
D03*
X10600007Y3665006D02*
D03*
Y3835003D02*
D03*
X11275002Y5799281D02*
D03*
Y5969278D02*
D03*
X11149998Y5799281D02*
D03*
Y5969278D02*
D03*
X11029998Y5799276D02*
D03*
Y5969273D02*
D03*
X10900001Y5969278D02*
D03*
Y5799281D02*
D03*
X10774998Y5799276D02*
D03*
Y5969273D02*
D03*
X10649999Y5799281D02*
D03*
Y5969278D02*
D03*
X10520002Y5799276D02*
D03*
Y5969278D02*
D03*
X10400002Y5799281D02*
D03*
Y5969278D02*
D03*
X9600842Y5969273D02*
D03*
Y5799276D02*
D03*
X9475843Y5969273D02*
D03*
Y5799276D02*
D03*
X9353339Y5969273D02*
D03*
Y5799276D02*
D03*
X9116738Y5969273D02*
D03*
Y5799276D02*
D03*
X9235712Y5969273D02*
D03*
Y5799276D02*
D03*
X9000000Y5969273D02*
D03*
Y5799276D02*
D03*
X8753340Y5969273D02*
D03*
Y5799276D02*
D03*
X8878339Y5969273D02*
D03*
Y5799276D02*
D03*
X9610844Y2031013D02*
D03*
Y2201011D02*
D03*
X9485846Y2031013D02*
D03*
Y2201011D02*
D03*
X9363342Y2031008D02*
D03*
Y2201011D02*
D03*
X9238343Y2031013D02*
D03*
Y2201011D02*
D03*
X9120005Y2031013D02*
D03*
Y2201011D02*
D03*
X9000000Y2031013D02*
D03*
Y2201011D02*
D03*
X8878344Y2031013D02*
D03*
Y2201011D02*
D03*
X8753340Y2031013D02*
D03*
Y2201011D02*
D03*
X11129998Y2201006D02*
D03*
Y2031008D02*
D03*
X11009998Y2201011D02*
D03*
Y2031013D02*
D03*
X10890004Y2201006D02*
D03*
Y2031008D02*
D03*
X10765000Y2201006D02*
D03*
Y2031008D02*
D03*
X10640002Y2201006D02*
D03*
Y2031008D02*
D03*
X10520002Y2201006D02*
D03*
Y2031008D02*
D03*
X10400002Y2201006D02*
D03*
Y2031008D02*
D03*
X8900005Y3834998D02*
D03*
Y3665001D02*
D03*
X10469994Y3835003D02*
D03*
Y3665006D02*
D03*
X11255002Y2031008D02*
D03*
Y2201006D02*
D03*
D40*
X4929855Y5626144D02*
D03*
Y5941144D02*
D03*
X3813770Y2934824D02*
D03*
Y3249820D02*
D03*
D43*
X200000Y7800000D02*
D03*
Y200000D02*
D03*
X11800000D02*
D03*
Y7800000D02*
D03*
D61*
X3082108Y6824336D02*
D03*
Y6889335D02*
D03*
Y6954338D02*
D03*
Y7019337D02*
D03*
Y7084336D02*
D03*
Y7149339D02*
D03*
Y7214338D02*
D03*
X2497908D02*
D03*
Y7149339D02*
D03*
Y7084336D02*
D03*
Y7019337D02*
D03*
Y6954338D02*
D03*
Y6889335D02*
D03*
Y6824336D02*
D03*
D128*
X10125001Y5270001D02*
D03*
X10074999D02*
D03*
X10025002D02*
D03*
X9974999D02*
D03*
X9925002D02*
D03*
Y4830002D02*
D03*
X9974999D02*
D03*
X10025002D02*
D03*
X10074999D02*
D03*
X10125001D02*
D03*
X10074999Y3170000D02*
D03*
X10025002D02*
D03*
X9974999D02*
D03*
X9925002D02*
D03*
X9874999D02*
D03*
Y2730001D02*
D03*
X9925002D02*
D03*
X9974999D02*
D03*
X10025002D02*
D03*
X10074999D02*
D03*
D129*
X1109999Y2755686D02*
D03*
Y2890687D02*
D03*
D130*
X1205447Y2453983D02*
D03*
X1207500Y4655000D02*
D03*
X4805867Y2455286D02*
D03*
X4807500Y4655000D02*
D03*
D131*
X1205447Y2108983D02*
D03*
X4807500Y5000000D02*
D03*
D132*
X1310447Y2053983D02*
D03*
X4702500Y5055000D02*
D03*
D133*
X1605447Y2053983D02*
D03*
X1607500Y5055000D02*
D03*
X4405867Y2055286D02*
D03*
X4407500Y5055000D02*
D03*
D134*
X1207500Y4950000D02*
D03*
X2317901Y1664848D02*
D03*
X2222905Y1884848D02*
D03*
X2412902D02*
D03*
X1516213Y1664848D02*
D03*
X1421217Y1884848D02*
D03*
X1611214D02*
D03*
X4805867Y2160286D02*
D03*
D135*
X1262500Y5055000D02*
D03*
X4750867Y2055286D02*
D03*
D136*
X9839696Y4341900D02*
D03*
X9709698D02*
D03*
X4623114Y5933069D02*
D03*
X4753114D02*
D03*
X2111733Y6976641D02*
D03*
X1981730D02*
D03*
X2107813Y7178748D02*
D03*
X1977811D02*
D03*
X2095317Y7452867D02*
D03*
X1965315D02*
D03*
D137*
X3679883Y3905163D02*
D03*
Y3855160D02*
D03*
Y3955160D02*
D03*
Y4005162D02*
D03*
Y4055160D02*
D03*
Y4105162D02*
D03*
Y4155160D02*
D03*
Y4205162D02*
D03*
Y4305162D02*
D03*
Y4355159D02*
D03*
Y4405162D02*
D03*
X3000124Y3855160D02*
D03*
Y3905163D02*
D03*
Y3955160D02*
D03*
Y4005162D02*
D03*
Y4055160D02*
D03*
Y4105162D02*
D03*
Y4155160D02*
D03*
Y4205162D02*
D03*
Y4255159D02*
D03*
Y4305162D02*
D03*
Y4355159D02*
D03*
Y4405162D02*
D03*
X3679883Y4255159D02*
D03*
D138*
X3340001Y4130003D02*
D03*
D139*
X3063923Y4469840D02*
D03*
X3113926D02*
D03*
X3163923D02*
D03*
X3213925D02*
D03*
X3263923D02*
D03*
X3313925D02*
D03*
X3363923D02*
D03*
X3413925D02*
D03*
X3463922D02*
D03*
X3513925D02*
D03*
X3563922D02*
D03*
X3614636D02*
D03*
X3063923Y3790162D02*
D03*
X3113926D02*
D03*
X3163923D02*
D03*
X3213925D02*
D03*
X3263923D02*
D03*
X3313925D02*
D03*
X3363923D02*
D03*
X3413925D02*
D03*
X3463922D02*
D03*
X3513925D02*
D03*
X3563922D02*
D03*
X3613925D02*
D03*
D140*
X2842183Y3151005D02*
D03*
Y3086005D02*
D03*
Y3021005D02*
D03*
X2652183D02*
D03*
Y3086005D02*
D03*
Y3151005D02*
D03*
X5405001Y1979995D02*
D03*
Y2044999D02*
D03*
Y2109997D02*
D03*
X5214998D02*
D03*
Y2044999D02*
D03*
Y1979995D02*
D03*
D141*
X2748125Y4138061D02*
D03*
Y4003060D02*
D03*
D142*
X3159959Y3148087D02*
D03*
X3069957Y3148082D02*
D03*
X3159959Y3019052D02*
D03*
X3069957Y3019047D02*
D03*
X5414115Y2342862D02*
D03*
X5324114Y2342860D02*
D03*
X2389043Y4424851D02*
D03*
X2479045D02*
D03*
X2717920Y6690145D02*
D03*
X1336913Y3249324D02*
D03*
X2845844Y3880840D02*
D03*
X5290005Y1755002D02*
D03*
X5200002D02*
D03*
D143*
X9976070Y4462546D02*
D03*
Y4592546D02*
D03*
X10055015Y3532914D02*
D03*
Y3402914D02*
D03*
X4621935Y5660270D02*
D03*
Y5790270D02*
D03*
D144*
X9557499Y3294999D02*
D03*
X9492496D02*
D03*
X9427497D02*
D03*
X9362498D02*
D03*
X9297500D02*
D03*
X9232496D02*
D03*
X9167498D02*
D03*
X9102499D02*
D03*
X9037495D02*
D03*
X8972497D02*
D03*
X8907498D02*
D03*
X8842499D02*
D03*
X9557499Y2605003D02*
D03*
X9492496D02*
D03*
X9427497D02*
D03*
X9362498D02*
D03*
X9297500D02*
D03*
X9232496D02*
D03*
X9167498D02*
D03*
X9102499D02*
D03*
X9037495D02*
D03*
X8972497D02*
D03*
X8907498D02*
D03*
X8842499D02*
D03*
X11184999Y3294999D02*
D03*
X11120001D02*
D03*
X11054997D02*
D03*
X10989998D02*
D03*
X10925000D02*
D03*
X10860001D02*
D03*
X10794997D02*
D03*
X10729999D02*
D03*
X10665000D02*
D03*
X10600002D02*
D03*
X10534998D02*
D03*
X10469999D02*
D03*
X11184999Y2605003D02*
D03*
X11120001D02*
D03*
X11054997D02*
D03*
X10989998D02*
D03*
X10925000D02*
D03*
X10860001D02*
D03*
X10794997D02*
D03*
X10729999D02*
D03*
X10665000D02*
D03*
X10600002D02*
D03*
X10534998D02*
D03*
X10469999D02*
D03*
X8842499Y4704998D02*
D03*
X8907498D02*
D03*
X8972502D02*
D03*
X9037500D02*
D03*
X9102499D02*
D03*
X9167503D02*
D03*
X9232501D02*
D03*
X9297500D02*
D03*
X9362498D02*
D03*
X9427502D02*
D03*
X9492501D02*
D03*
X9557499D02*
D03*
X8842499Y5395000D02*
D03*
X8907498D02*
D03*
X8972502D02*
D03*
X9037500D02*
D03*
X9102499D02*
D03*
X9167503D02*
D03*
X9232501D02*
D03*
X9297500D02*
D03*
X9362498D02*
D03*
X9427502D02*
D03*
X9492501D02*
D03*
X9557499D02*
D03*
X10469999Y4705004D02*
D03*
X10534998D02*
D03*
X10600002D02*
D03*
X10665000D02*
D03*
X10729999D02*
D03*
X10795003D02*
D03*
X10860001D02*
D03*
X10925000D02*
D03*
X10989998D02*
D03*
X11055002D02*
D03*
X11120001D02*
D03*
X11184999D02*
D03*
X10469999Y5395005D02*
D03*
X10534998D02*
D03*
X10600002D02*
D03*
X10665000D02*
D03*
X10729999D02*
D03*
X10795003D02*
D03*
X10860001D02*
D03*
X10925000D02*
D03*
X10989998D02*
D03*
X11055002D02*
D03*
X11120001D02*
D03*
X11184999D02*
D03*
D145*
X4266961Y5313076D02*
D03*
X4059614Y6442534D02*
D03*
X3976754Y6603923D02*
D03*
X2267754Y6589640D02*
D03*
X4343540Y6754294D02*
D03*
X4868267Y7388637D02*
D03*
X3764396Y7555288D02*
D03*
X3335029Y7560001D02*
D03*
X3082108Y7333211D02*
D03*
X3357821Y6956732D02*
D03*
X3049186Y6686901D02*
D03*
X2773295Y5174092D02*
D03*
X2941806Y5169891D02*
D03*
X6150881Y3742996D02*
D03*
X6917295Y3141813D02*
D03*
X6878955Y4590802D02*
D03*
D146*
X4935315Y1578561D02*
D03*
Y1418561D02*
D03*
X4622700Y1713290D02*
D03*
Y1873290D02*
D03*
D147*
X4937518Y1088253D02*
D03*
Y1263254D02*
D03*
X3394102Y1774851D02*
D03*
Y1599850D02*
D03*
X3304254Y808153D02*
D03*
Y983154D02*
D03*
D148*
X3317732Y2525000D02*
D03*
Y2675000D02*
D03*
D149*
X2664244Y5615295D02*
D03*
X2264245D02*
D03*
D150*
X1715542Y1097376D02*
D03*
Y1567376D02*
D03*
X1309542Y1097376D02*
D03*
Y1567376D02*
D03*
X2115000D02*
D03*
Y1097376D02*
D03*
X2525000Y1567376D02*
D03*
Y1097376D02*
D03*
D151*
X613514Y3246361D02*
D03*
D152*
X461012Y3098863D02*
D03*
Y3393858D02*
D03*
D153*
X1002502Y3248687D02*
D03*
X867501D02*
D03*
X2616434Y3880090D02*
D03*
X2481433D02*
D03*
X1698284Y3788498D02*
D03*
X1833285D02*
D03*
X2066083D02*
D03*
X2201079D02*
D03*
X2617501Y3774486D02*
D03*
X2482500D02*
D03*
D154*
X3611426Y395502D02*
D03*
X3771426D02*
D03*
X3416812Y396871D02*
D03*
X3256812D02*
D03*
D155*
X3523828Y1012491D02*
D03*
Y662491D02*
D03*
D156*
X1475642Y4451236D02*
D03*
X1410642D02*
D03*
X1345641D02*
D03*
Y4261236D02*
D03*
X1475642D02*
D03*
D157*
X2268220Y4423252D02*
D03*
X2125720Y4424852D02*
D03*
D158*
X4272321Y5789254D02*
D03*
X4367322D02*
D03*
X4462323D02*
D03*
Y6039256D02*
D03*
X4367322D02*
D03*
X4272321D02*
D03*
D159*
X4364564Y7182487D02*
D03*
D160*
X4264564Y7307491D02*
D03*
X4314567D02*
D03*
X4364564D02*
D03*
X4414567D02*
D03*
X4464564D02*
D03*
Y7057489D02*
D03*
X4414567D02*
D03*
X4364564D02*
D03*
X4314567D02*
D03*
X4264564D02*
D03*
D161*
X1948552Y6580520D02*
D03*
Y6190519D02*
D03*
D162*
X1216371Y5380056D02*
D03*
Y6250057D02*
D03*
D163*
X3442315Y5337682D02*
D03*
Y6327677D02*
D03*
D164*
X2624000Y6397395D02*
D03*
X2497000D02*
D03*
X2370000D02*
D03*
X2243000D02*
D03*
Y5854999D02*
D03*
X2370000D02*
D03*
X2497000D02*
D03*
X2624000D02*
D03*
D165*
X1923565Y5689379D02*
D03*
Y5969378D02*
D03*
D166*
X2816259Y6690145D02*
D03*
X1435252Y3249324D02*
D03*
D167*
X2816259Y6591806D02*
D03*
X3069788Y7469999D02*
D03*
Y7560001D02*
D03*
X1435252Y3150981D02*
D03*
X2747500Y3782501D02*
D03*
D168*
X3768667Y6885661D02*
D03*
Y7315662D02*
D03*
D169*
X4467063Y7483487D02*
D03*
X4262065D02*
D03*
D170*
X1810820Y7177501D02*
D03*
Y6977501D02*
D03*
D171*
X2928995Y7634072D02*
D03*
Y7444075D02*
D03*
X2678998D02*
D03*
Y7539071D02*
D03*
Y7634072D02*
D03*
D172*
X4725002Y550000D02*
D03*
Y677000D02*
D03*
Y804000D02*
D03*
Y931000D02*
D03*
Y1058000D02*
D03*
Y1185000D02*
D03*
Y1312000D02*
D03*
Y1439000D02*
D03*
X3770003D02*
D03*
Y1312000D02*
D03*
Y1185000D02*
D03*
Y1058000D02*
D03*
Y931000D02*
D03*
Y804000D02*
D03*
Y677000D02*
D03*
Y550000D02*
D03*
D173*
X629999Y2150002D02*
D03*
Y1749998D02*
D03*
Y1349999D02*
D03*
D174*
X10250000Y4189998D02*
D03*
Y4062998D02*
D03*
Y3935998D02*
D03*
Y3808998D02*
D03*
X9707603D02*
D03*
Y3935998D02*
D03*
Y4062998D02*
D03*
Y4189998D02*
D03*
D175*
X409999Y4070999D02*
D03*
Y4197999D02*
D03*
Y4324999D02*
D03*
Y4451999D02*
D03*
Y4578999D02*
D03*
X889998Y4070999D02*
D03*
Y4197999D02*
D03*
Y4324999D02*
D03*
Y4451999D02*
D03*
Y4578999D02*
D03*
D176*
X1098123Y3845700D02*
D03*
Y4068199D02*
D03*
D177*
X732412Y2756875D02*
D03*
Y2581880D02*
D03*
D178*
X1000000Y2755582D02*
D03*
X867503D02*
D03*
D179*
X448878Y2753722D02*
D03*
X583879D02*
D03*
D180*
X1621061Y3299322D02*
D03*
D181*
X1548559Y3249324D02*
D03*
Y3299322D02*
D03*
Y3349324D02*
D03*
X1693563D02*
D03*
Y3299322D02*
D03*
Y3249324D02*
D03*
D182*
X2747500Y3880840D02*
D03*
D183*
X4442142Y3863461D02*
D03*
X4292140D02*
D03*
D184*
X4520916Y6337902D02*
D03*
Y6387904D02*
D03*
Y6437902D02*
D03*
Y6487904D02*
D03*
X4205920D02*
D03*
Y6437902D02*
D03*
Y6387904D02*
D03*
Y6337902D02*
D03*
D185*
X6344999Y3437498D02*
D03*
Y3342502D02*
D03*
Y3247501D02*
D03*
X6615001D02*
D03*
Y3437498D02*
D03*
X6344999Y5044998D02*
D03*
Y4950002D02*
D03*
Y4855001D02*
D03*
X6615001D02*
D03*
Y5044998D02*
D03*
D186*
X6195002Y3880001D02*
D03*
X6289998D02*
D03*
X6384999D02*
D03*
Y4149998D02*
D03*
X6195002D02*
D03*
D187*
X5195999Y1274998D02*
D03*
X5322999D02*
D03*
X5449999D02*
D03*
Y1580001D02*
D03*
X5322999D02*
D03*
X5195999D02*
D03*
D188*
X4860979Y1918757D02*
D03*
Y1728760D02*
D03*
X5037982Y1823761D02*
D03*
D189*
X2861500Y445002D02*
D03*
X2988500D02*
D03*
X2861500Y855004D02*
D03*
X2988500D02*
D03*
X2861502Y1227502D02*
D03*
X2988502D02*
D03*
X2861502Y1637499D02*
D03*
X2988502D02*
D03*
D190*
X5425383Y650000D02*
D03*
X5171383D02*
D03*
X1975000Y650000D02*
D03*
X2229000D02*
D03*
X2483000D02*
D03*
X1721000D02*
D03*
X1467000D02*
D03*
D191*
X651300Y6533500D02*
D03*
Y6787500D02*
D03*
D192*
X1374983Y7361958D02*
D03*
Y7161958D02*
D03*
D193*
X10149340Y510001D02*
D03*
X9959343Y1649998D02*
D03*
X9578343D02*
D03*
X9768340Y510001D02*
D03*
X8816343Y1649998D02*
D03*
X9006340Y510001D02*
D03*
X8625340D02*
D03*
X8435343Y1649998D02*
D03*
X8054343D02*
D03*
X8244340Y510001D02*
D03*
X7863340D02*
D03*
X7673343Y1649998D02*
D03*
X10340343D02*
D03*
X10530340Y510001D02*
D03*
X7292343Y1649998D02*
D03*
X7482340Y510001D02*
D03*
X9387340D02*
D03*
X9197343Y1649998D02*
D03*
X10911340Y510001D02*
D03*
X10721343Y1649998D02*
D03*
X9186004Y7490002D02*
D03*
X9376006Y6349999D02*
D03*
X8995006D02*
D03*
X8805004Y7490002D02*
D03*
X8424004D02*
D03*
X8614006Y6349999D02*
D03*
X9948004Y7490002D02*
D03*
X10138006Y6349999D02*
D03*
X10519006D02*
D03*
X10329004Y7490002D02*
D03*
X10710004D02*
D03*
X10900006Y6349999D02*
D03*
X7662004Y7490002D02*
D03*
X7852006Y6349999D02*
D03*
X8233006D02*
D03*
X8043004Y7490002D02*
D03*
X9757006Y6349999D02*
D03*
X9567004Y7490002D02*
D03*
X7471006Y6349999D02*
D03*
X7281004Y7490002D02*
D03*
D194*
X11500000Y499998D02*
D03*
Y7499999D02*
D03*
X500002D02*
D03*
Y499998D02*
D03*
D195*
X6395336Y6734609D02*
D03*
X6387498Y6851928D02*
D03*
X6747797Y939058D02*
D03*
Y1024058D02*
D03*
X6390199Y1459459D02*
D03*
X6380853Y1354664D02*
D03*
X6385575Y1249789D02*
D03*
X6384880Y1052875D02*
D03*
X6385797Y920552D02*
D03*
X6385575Y1150450D02*
D03*
X6752518Y1144157D02*
D03*
X6381728Y6956603D02*
D03*
X3309021Y3590759D02*
D03*
X3091214Y3671706D02*
D03*
X9186380Y6594857D02*
D03*
X7381178Y6807464D02*
D03*
X7759341Y6813283D02*
D03*
X6755566Y7079432D02*
D03*
Y6949431D02*
D03*
X2927703Y7225404D02*
D03*
X2530110Y1321527D02*
D03*
X2859535Y1354664D02*
D03*
X2115000Y1321527D02*
D03*
X1721000D02*
D03*
X1312873D02*
D03*
X11020647Y1185377D02*
D03*
X10825000Y1101127D02*
D03*
X7196759Y6627501D02*
D03*
X7158337Y6734609D02*
D03*
X6387498Y6458063D02*
D03*
Y6173239D02*
D03*
Y6303268D02*
D03*
Y6559430D02*
D03*
X4750867Y1707427D02*
D03*
X10649999Y4038968D02*
D03*
X11375000Y2101013D02*
D03*
X6784382Y490536D02*
D03*
X10805005Y6813283D02*
D03*
X8904843D02*
D03*
X6387498Y7138760D02*
D03*
X6779123Y6466830D02*
D03*
X6790570Y6291830D02*
D03*
Y6171166D02*
D03*
X7006768Y2259424D02*
D03*
X7620500Y6090080D02*
D03*
X7495502D02*
D03*
X3536450Y3490929D02*
D03*
X7812473Y3944194D02*
D03*
X7704083Y4019652D02*
D03*
X7584874Y4023100D02*
D03*
X9514791Y4047706D02*
D03*
X9444891Y3933351D02*
D03*
X7175620Y4031089D02*
D03*
X7245505Y6084855D02*
D03*
X7370003Y1922622D02*
D03*
X7292359Y1871363D02*
D03*
X7500003Y1922762D02*
D03*
X7628763Y1922622D02*
D03*
X10516187Y1927302D02*
D03*
X10638236D02*
D03*
X10765000D02*
D03*
X11128678Y1916745D02*
D03*
X10400827Y6081222D02*
D03*
X3539801Y3596149D02*
D03*
X2540797Y1889435D02*
D03*
X2102233Y1885790D02*
D03*
X2968841Y3020875D02*
D03*
Y3151796D02*
D03*
X9844044Y3808998D02*
D03*
X4573552Y1310198D02*
D03*
Y1180755D02*
D03*
X4872203Y678036D02*
D03*
Y803804D02*
D03*
X3725000Y4542897D02*
D03*
X2820597Y4218384D02*
D03*
X1305105Y1886261D02*
D03*
X1718716Y1889435D02*
D03*
X697500Y4475345D02*
D03*
X4932379Y2067786D02*
D03*
X8000002Y1918968D02*
D03*
X7874998D02*
D03*
X7751280Y1922762D02*
D03*
X2254761Y7563335D02*
D03*
X2095317Y7574773D02*
D03*
X2901857Y5018859D02*
D03*
X2777047Y5020137D02*
D03*
X6387498Y7265912D02*
D03*
X3566567Y3378599D02*
D03*
X3579307Y3248599D02*
D03*
X3698991Y3251455D02*
D03*
X3098923Y3559681D02*
D03*
X3358925Y3679084D02*
D03*
X3275360Y3010245D02*
D03*
X3278742Y3114155D02*
D03*
X2899499Y3276758D02*
D03*
X2747737Y3222489D02*
D03*
X4273241Y6165161D02*
D03*
X4465661D02*
D03*
X6465432Y3343212D02*
D03*
X6103702Y4149060D02*
D03*
X6024984Y4009648D02*
D03*
X1262500Y4255195D02*
D03*
X2138220Y6777082D02*
D03*
X5846729Y2109997D02*
D03*
X9780000Y3402914D02*
D03*
X9925001Y3305782D02*
D03*
X2919817Y7000199D02*
D03*
X1463022Y3054282D02*
D03*
X3488926Y3676135D02*
D03*
X3696690Y3686728D02*
D03*
X3899283Y3756019D02*
D03*
X2612602Y6686901D02*
D03*
X2619654Y6782574D02*
D03*
X2910039Y6686901D02*
D03*
X1472161Y4574159D02*
D03*
X596012Y4197221D02*
D03*
Y4071028D02*
D03*
X7106657Y6656933D02*
D03*
X5683271Y1756173D02*
D03*
X5414115Y1875178D02*
D03*
X5337644Y2450927D02*
D03*
X5200751Y2455286D02*
D03*
X5024007Y2452931D02*
D03*
X5214998Y1874016D02*
D03*
X2859535Y315201D02*
D03*
X2988500D02*
D03*
X4152210Y4135250D02*
D03*
X10125001Y5474902D02*
D03*
X2860518Y1766439D02*
D03*
X2988502Y1767809D02*
D03*
Y1354664D02*
D03*
X6523548Y4149998D02*
D03*
X4723521Y6080211D02*
D03*
X7062940Y692955D02*
D03*
X4022779Y4132592D02*
D03*
X4182036Y4630779D02*
D03*
X4227500Y4392484D02*
D03*
X3865341Y4105917D02*
D03*
X3847016Y4017654D02*
D03*
X352501Y2755582D02*
D03*
X4747084Y7217166D02*
D03*
X4748075Y7384987D02*
D03*
X3165576Y7560001D02*
D03*
X6042338Y6718063D02*
D03*
X8843015Y4534174D02*
D03*
X9000005Y5574457D02*
D03*
X9557499Y3129924D02*
D03*
X9492321Y2782317D02*
D03*
X11118716Y2770880D02*
D03*
X2363364Y6570777D02*
D03*
X2818061Y6791083D02*
D03*
X2714133D02*
D03*
X2934428Y6450051D02*
D03*
X2839445Y6355763D02*
D03*
X2646289Y6533646D02*
D03*
X6298282Y763377D02*
D03*
X6383497Y824283D02*
D03*
X5171383Y1429478D02*
D03*
X2434014Y6672681D02*
D03*
X1897815Y6844235D02*
D03*
X1099056Y3978130D02*
D03*
X5062910Y1403410D02*
D03*
X688800Y4693683D02*
D03*
X414207Y4795075D02*
D03*
X6104969Y3878049D02*
D03*
X10427582Y6813283D02*
D03*
X6215896Y3007687D02*
D03*
X4785685Y6374518D02*
D03*
X10053620Y3655234D02*
D03*
X9917900D02*
D03*
X10104620Y4348269D02*
D03*
X10077499Y4700000D02*
D03*
X649643Y3392693D02*
D03*
X1642638Y7533823D02*
D03*
X1640937Y7671759D02*
D03*
X1763565Y6844235D02*
D03*
X6051395Y987804D02*
D03*
Y1117878D02*
D03*
Y1374965D02*
D03*
X7297499Y2788211D02*
D03*
X7875737Y2437220D02*
D03*
X10668511Y6263978D02*
D03*
X10753682Y6308506D02*
D03*
X11000006Y3959985D02*
D03*
X2904717Y4594858D02*
D03*
X2046938Y6070000D02*
D03*
X7620500Y5224900D02*
D03*
X7750753D02*
D03*
X2029506Y6844235D02*
D03*
X2750123Y4292340D02*
D03*
X2866807Y4486782D02*
D03*
X2646289Y4300767D02*
D03*
X2596777Y4387818D02*
D03*
X3439021Y4741341D02*
D03*
X3309021Y4729933D02*
D03*
X3185424Y4725242D02*
D03*
X3229561Y4822836D02*
D03*
X3502468Y4658558D02*
D03*
X3848986Y3925082D02*
D03*
X360510Y5890000D02*
D03*
X580000D02*
D03*
X4692410Y7632919D02*
D03*
X7161928Y5621954D02*
D03*
X8813780Y3992556D02*
D03*
X11134168Y3844968D02*
D03*
X4403855Y6336529D02*
D03*
X4330450Y6438614D02*
D03*
X2756654Y3531757D02*
D03*
X2627682Y3397413D02*
D03*
X2475686Y3555837D02*
D03*
X10186755Y3076740D02*
D03*
X2518673Y3148926D02*
D03*
X2576173Y3233926D02*
D03*
X3692383Y2934824D02*
D03*
X2322901Y3019572D02*
D03*
X1807173Y2796241D02*
D03*
X2138220Y3320114D02*
D03*
X1556808Y3163148D02*
D03*
X1377959Y3351688D02*
D03*
X1378450Y3484226D02*
D03*
X1553269Y3531757D02*
D03*
Y3441757D02*
D03*
X2363364Y4248792D02*
D03*
X2269949Y4252021D02*
D03*
X2183706Y4238460D02*
D03*
X2093706D02*
D03*
X2003706D02*
D03*
X1913706D02*
D03*
X1823731Y4236357D02*
D03*
X1734998Y4221308D02*
D03*
X1651021Y4188936D02*
D03*
X1573819Y4142676D02*
D03*
X1507224Y4082137D02*
D03*
X1452554Y4010645D02*
D03*
X1411846Y3930377D02*
D03*
X1387433Y3843751D02*
D03*
X1378198Y3754226D02*
D03*
X1378450Y3664226D02*
D03*
Y3574226D02*
D03*
X1553269Y3621757D02*
D03*
Y3711757D02*
D03*
X1556808Y3801688D02*
D03*
X1583937Y3887501D02*
D03*
X1634456Y3961985D02*
D03*
X1704175Y4018901D02*
D03*
X1787269Y4053474D02*
D03*
X1876693Y4063641D02*
D03*
X1966693D02*
D03*
X2056693D02*
D03*
X9377233Y4049005D02*
D03*
X8899883Y3948775D02*
D03*
X9117820Y4046705D02*
D03*
X8992822D02*
D03*
X7870502Y5641740D02*
D03*
X8995488Y6081222D02*
D03*
X8875990D02*
D03*
X9602940D02*
D03*
X9119081Y1915865D02*
D03*
X9000000D02*
D03*
X9365060D02*
D03*
X8878344D02*
D03*
X9243880Y3944848D02*
D03*
X8973020Y4884689D02*
D03*
X11117432Y3469836D02*
D03*
X11190146Y3108279D02*
D03*
X10454532Y3981468D02*
D03*
X10567430Y3972714D02*
D03*
X10870083Y3995401D02*
D03*
X11013567Y4049207D02*
D03*
X11138566Y4047660D02*
D03*
X10601160Y4873251D02*
D03*
X10469999D02*
D03*
X11185322Y5227341D02*
D03*
X10665007D02*
D03*
X10605028Y5562340D02*
D03*
X10395010Y5690908D02*
D03*
X10651573D02*
D03*
X10752283Y3530487D02*
D03*
X2237078Y3520337D02*
D03*
X6979514Y3912586D02*
D03*
X6810018Y1740370D02*
D03*
X6858831Y2625079D02*
D03*
X7046648Y1809166D02*
D03*
X6858836Y3705600D02*
D03*
X6867518Y3424486D02*
D03*
X6810018Y2415280D02*
D03*
X6116327Y4398230D02*
D03*
X6323800Y4324371D02*
D03*
X6585233Y4319831D02*
D03*
X6272273Y3732475D02*
D03*
X6612370Y3528033D02*
D03*
X6676860Y2379720D02*
D03*
Y2259424D02*
D03*
X6317501Y2699760D02*
D03*
X6913573Y6163414D02*
D03*
X6427908Y4942194D02*
D03*
X7489403Y5156677D02*
D03*
X7233120Y5145780D02*
D03*
X7750753Y5087356D02*
D03*
X6728643Y5044998D02*
D03*
X6777389Y4503160D02*
D03*
X6611107D02*
D03*
X7234934Y2923280D02*
D03*
X6891582Y2996402D02*
D03*
X5879300Y3068060D02*
D03*
X6920001Y4810208D02*
D03*
X3149380Y3346544D02*
D03*
X3006179Y4528967D02*
D03*
X2482500Y4269738D02*
D03*
X2341170Y3901950D02*
D03*
X1698284Y3888460D02*
D03*
X1827500D02*
D03*
X2079256Y3901950D02*
D03*
X2201615D02*
D03*
X2140659Y3520337D02*
D03*
X1688559Y3163148D02*
D03*
X2335842Y3518513D02*
D03*
X1943181Y3653003D02*
D03*
X3195013Y4626549D02*
D03*
X3482221Y4880336D02*
D03*
X3350992Y4898036D02*
D03*
X3226522Y5012631D02*
D03*
Y4916089D02*
D03*
X3876747Y4538234D02*
D03*
X7130257Y1869046D02*
D03*
X1807173Y3401083D02*
D03*
X2476523Y3665055D02*
D03*
X1038323Y6250358D02*
D03*
X4433923Y3585533D02*
D03*
X9868004Y4049808D02*
D03*
X2850840Y4125485D02*
D03*
X3785904Y4151236D02*
D03*
X3899283Y4309676D02*
D03*
X9722751Y3658198D02*
D03*
X9487168Y1848659D02*
D03*
X7724603Y5635121D02*
D03*
X7980425Y5674645D02*
D03*
X4517323Y4013458D02*
D03*
X1990001Y3401083D02*
D03*
X2685000Y4463339D02*
D03*
X2616245Y4523674D02*
D03*
X3325013Y4636966D02*
D03*
X3635013Y4535722D02*
D03*
X3946473Y6237531D02*
D03*
X4278399Y4531459D02*
D03*
X4473404Y4349484D02*
D03*
X4735001Y4423211D02*
D03*
X4573552Y1058000D02*
D03*
X1923565Y5561159D02*
D03*
X1936052Y6070000D02*
D03*
X1833285Y6070993D02*
D03*
X4257859Y3455056D02*
D03*
X8831062Y4888791D02*
D03*
X8858752Y5227341D02*
D03*
X9195267Y5205731D02*
D03*
X9140733Y3530487D02*
D03*
X9243880Y4477770D02*
D03*
X10274336Y3519583D02*
D03*
X9175492Y3059551D02*
D03*
X9805000Y4950893D02*
D03*
X9769017Y4528082D02*
D03*
X9593957Y4962330D02*
D03*
X3523828Y526693D02*
D03*
X3175142Y1766439D02*
D03*
X3768766Y1532996D02*
D03*
X3914015Y1440237D02*
D03*
X3025000Y662502D02*
D03*
X877792Y3462342D02*
D03*
X1159608Y2996749D02*
D03*
X1815000Y3652555D02*
D03*
X4266961Y5507364D02*
D03*
X3808909Y5141235D02*
D03*
X3753989Y3505692D02*
D03*
X3268198Y7277136D02*
D03*
X3267220Y6692839D02*
D03*
X4922332Y5517102D02*
D03*
X4363021Y6246369D02*
D03*
X4623235Y6389868D02*
D03*
X4126338Y5772207D02*
D03*
X3259093Y6891619D02*
D03*
X3992938Y6760626D02*
D03*
X4067579Y6973709D02*
D03*
X4132235Y6605496D02*
D03*
X4139232Y6975378D02*
D03*
X4227391Y6715559D02*
D03*
X4464564Y6798536D02*
D03*
X465917Y5890000D02*
D03*
X1413611Y6250057D02*
D03*
X2370000Y6982014D02*
D03*
X3962504Y3527586D02*
D03*
X2464249Y3461616D02*
D03*
X617366Y2576182D02*
D03*
X4034216Y4951199D02*
D03*
X10048178Y6813283D02*
D03*
X9286178D02*
D03*
X9667178D02*
D03*
X5005410Y2779664D02*
D03*
X9887420Y2966460D02*
D03*
X6784190Y620536D02*
D03*
X6772520Y775536D02*
D03*
X6369416Y634089D02*
D03*
X11256677Y1844506D02*
D03*
X9235126Y6081222D02*
D03*
X10534998Y4264400D02*
D03*
X9983399Y3933351D02*
D03*
X7445758Y3998518D02*
D03*
X7122375Y5718454D02*
D03*
X6220498Y6393063D02*
D03*
X2458383Y4762504D02*
D03*
X1304054Y3151796D02*
D03*
X1210253Y2855353D02*
D03*
X1270107Y2914453D02*
D03*
X1271964Y3079995D02*
D03*
Y3002104D02*
D03*
X1009337Y2654456D02*
D03*
X1098768Y2664559D02*
D03*
X1188641Y2669341D02*
D03*
X1277944Y2680519D02*
D03*
X1358063Y2721520D02*
D03*
X1418160Y2788514D02*
D03*
X1444530Y2874564D02*
D03*
X1445034Y2964563D02*
D03*
X7296620Y3062980D02*
D03*
X7358088Y3921500D02*
D03*
X2626420Y7270162D02*
D03*
X4650127Y6972900D02*
D03*
X4723521Y6972852D02*
D03*
X4574489Y7632919D02*
D03*
X3973506Y7466899D02*
D03*
X3628748Y7239299D02*
D03*
Y7375766D02*
D03*
X1809713Y7567115D02*
D03*
X2013136Y7318748D02*
D03*
X5957554Y4742519D02*
D03*
X7751280Y4439660D02*
D03*
X9922980Y5056880D02*
D03*
X9925520Y5481060D02*
D03*
X8905178Y5577131D02*
D03*
X10745002Y4000240D02*
D03*
X11287573Y4341900D02*
D03*
X10126180Y5041640D02*
D03*
X10433398Y5130540D02*
D03*
X10601160Y5158480D02*
D03*
X10469999Y5562340D02*
D03*
X7100186Y6133601D02*
D03*
X5950420Y6591929D02*
D03*
X5856440Y7414000D02*
D03*
X5917849Y7307500D02*
D03*
X6006300Y6851928D02*
D03*
X6042053Y7142220D02*
D03*
Y7242500D02*
D03*
X7087935Y7370277D02*
D03*
X8277060Y5969273D02*
D03*
X8582398Y5969278D02*
D03*
X11030420Y6146540D02*
D03*
X10957501Y6201143D02*
D03*
X8138884Y6813283D02*
D03*
X8424004Y6466580D02*
D03*
X8519884Y6813283D02*
D03*
X9501340Y6583420D02*
D03*
X11275002Y6494520D02*
D03*
X7104428Y7177780D02*
D03*
X7146760Y7005060D02*
D03*
X4929703Y3302501D02*
D03*
X7362660Y2420360D02*
D03*
X7118820Y1052875D02*
D03*
X7202506Y1446573D02*
D03*
X7271932Y1351087D02*
D03*
X7216215Y620941D02*
D03*
X7396318Y1186277D02*
D03*
X7397837Y1075024D02*
D03*
X7197560Y1186277D02*
D03*
X7060400Y830320D02*
D03*
X7106831Y2349240D02*
D03*
X8040804Y3431280D02*
D03*
X3516647Y4126559D02*
D03*
X3339547D02*
D03*
X3163562D02*
D03*
X3516647Y3951688D02*
D03*
X3339547D02*
D03*
X3163562D02*
D03*
Y4310341D02*
D03*
X3339547D02*
D03*
X3516647D02*
D03*
X352501Y3596520D02*
D03*
X459957Y2970724D02*
D03*
X3914015Y545621D02*
D03*
X8600001Y3179480D02*
D03*
X8245000Y3295004D02*
D03*
X10911340Y750000D02*
D03*
X11021023Y1392129D02*
D03*
X11260394Y2599780D02*
D03*
X9740549Y3096000D02*
D03*
X10256840Y887506D02*
D03*
X3631400Y4725242D02*
D03*
X8906166Y1075024D02*
D03*
X10050000D02*
D03*
X10447842D02*
D03*
X7583474Y1186277D02*
D03*
X7775494Y1191249D02*
D03*
X7775003Y1075024D02*
D03*
X7965058Y1186277D02*
D03*
X8146300D02*
D03*
X8523418D02*
D03*
X8906166D02*
D03*
X9298508D02*
D03*
X9674027D02*
D03*
X10444318D02*
D03*
X10050000D02*
D03*
X10635321D02*
D03*
X8716399D02*
D03*
X8340560D02*
D03*
X9483560D02*
D03*
X9860528D02*
D03*
X9960472Y507285D02*
D03*
X9583504Y495848D02*
D03*
X10351002Y505797D02*
D03*
X8440504Y495848D02*
D03*
X8812346Y503872D02*
D03*
X9208002Y505797D02*
D03*
X8065002D02*
D03*
X7670918D02*
D03*
X7297504Y495848D02*
D03*
X10929036Y2441140D02*
D03*
X9673054Y1075024D02*
D03*
X9299517D02*
D03*
X8521837D02*
D03*
X8149080D02*
D03*
X8730321Y3426698D02*
D03*
X11055820Y2372100D02*
D03*
X9488457Y2438140D02*
D03*
X6002881Y1572879D02*
D03*
X9557220Y2958840D02*
D03*
X11129998Y2437104D02*
D03*
X6091497Y1703120D02*
D03*
X9427497Y3029960D02*
D03*
X11055820D02*
D03*
X9610844Y1808220D02*
D03*
X7751280Y3078220D02*
D03*
X10890004Y1765040D02*
D03*
X5970740Y1427220D02*
D03*
X9707080Y2627497D02*
D03*
%TF.MD5,717a1400762f8f7cfcb4064ef7e27e4a*%
M02*
