M48
;Layer_Color=9474304
;FILE_FORMAT=4:4
METRIC,LZ
;TYPE=PLATED
T01F00S00C0.3000
T02F00S00C0.7000
T03F00S00C1.1000
;TYPE=NON_PLATED
T04F00S00C3.2000
%
T01
X00285954Y0003152
X0029885
X003025Y0006625
X00352383Y00052669
X00391401Y00054562
X0048722Y00067804
Y0008038
X00629828Y00076338
X0063835Y00082428
X0063858Y00092055
X00636942Y00063409
X00678419Y00062054
X00678438Y00049054
X00677252Y00077554
X0067478Y00093906
X0070604Y00083032
X00706294Y00069296
X00721621Y00062094
X0072975Y00049585
X00767092Y0005058
X008065
X0084405Y00049585
X00881235Y00050387
X009208Y0005058
X0095835Y00049585
X00996047Y00050729
X010351Y0005058
X01025684Y00088751
X01091134Y00075
X010825Y00110113
X01063532Y00118628
X01044432
X01044784Y00107502
X01005
Y00118628
X00986053
X00967403
X00967305Y00107502
X00948356Y00118628
X00929851
X00929952Y00107502
X00890617
Y00118628
X00887834Y00191586
X009
X00911908
X00936506
X00948717Y00184866
X00961084Y00180822
X00948846Y00243814
X00949232Y00278232
X00955722Y00295884
X0095575Y00312992
X00974055Y003096
X00988742Y00296646
X009925Y00330578
X00978Y00340291
X00972275Y0036582
X0099179Y00365523
X01005362
X0099834Y00393335
X009868Y00404981
X00984404Y003809
X00944489Y00393335
X00937723Y00404901
X00951479Y00404771
X00924388Y00394485
X00911782Y0040467
X00899282
X00889988Y00394878
X00881378Y00399256
X00884302Y00453417
X00883106Y00488879
X00897302Y00488469
X00924388Y00447777
X00976902Y00452808
X0100775Y0047
X01010462Y00434827
X010535Y0042644
X01056743Y00397271
X01045453Y00398147
X01065Y00403897
X010745Y00400024
X01087008Y0039954
X01100001Y00395998
X01101357Y00404921
X01113857Y00404766
X01113417Y00384497
X01111743Y00346984
X01075228Y00353049
X01027434Y00351958
X01018676Y00307674
X0094275Y00302996
X00917549Y00305955
X00914073Y00353049
X00970708Y0026275
X01092904Y00244114
X01105582Y0023721
X01113Y0024371
X01126039Y00259978
X01111872Y00277088
X01105582Y00302996
X01119015Y00310828
X011375Y00210101
X01125668Y00184451
X01112868Y00191674
X010765Y0019273
X01063824
X01051619
X01089Y00176504
X01102102Y00139213
X01102065Y00118538
X01128757Y0043419
X01060116Y00487325
X01047
X00775128Y00443966
X00770408Y00401965
X00758487Y0040231
X00744576Y00399852
X00735809Y0039215
X00717562Y00403109
X00697951Y00391259
X00685884Y0037056
X00686752Y00342449
X00661237Y00352803
X00646543Y00334321
X00627227Y00373247
X00610497Y00387805
X00602498Y00400965
X0061037Y00414906
X00611633Y00439823
X0063238Y00432437
X00658523Y00431983
X00661111Y00450316
X00677739
X00692Y00481021
X00595755Y00474252
X00652355Y00415
X0062159Y00300769
X0058793Y00306806
X0063175Y00269976
X00685883Y00262508
X00681002Y00241528
X00667686Y00237972
Y00225942
X00700677
X00710683Y00234924
X00736266Y00242036
X0072975Y00278821
X00723493Y00292328
X00729662Y00306298
X00775128Y00307822
X0080408Y00343128
X008245Y003295
X0086Y00317948
X00873032Y0034267
X00781247Y00394419
X00787574Y00243722
X007875Y00191897
X008
X00775128Y00192276
X00762876Y00192262
X0075Y00192276
X00737Y00192262
X00729236Y00187136
X00713026Y00186905
X00704665Y00180917
X00681002Y00174037
X00675252Y00114416
X0067478Y00102406
X00638488Y00105288
X00638558Y00115045
Y00124979
X00638085Y00135466
X0063902Y00145946
X0060514Y00137497
X00597074Y00142722
X00600288Y00157288
X0060915Y00170312
X00568327Y00175617
X00541412Y00187518
X005215Y00187402
X00493238Y00206779
X00502401Y00245293
X00520075Y00245529
X00533764Y00245093
X00500541Y00277966
X0049297Y0033025
X00506291Y00140341
X00517138Y00142948
X0060514Y00111788
Y0009878
X00711882Y00105288
X00719756Y00118628
X00739632
X00739784Y00107502
X00758347Y00118628
X00777549Y00119125
X007775Y00107502
X00796506Y00118628
X0081463
X00814908Y00107502
X00834056Y00118628
X00852342
X00852184Y00107502
X0087164Y00118628
X00727193Y00135109
X00720251Y00144657
X00689158Y0029964
X00584673Y00211
X00475087Y00170743
X00457355Y0013102
Y00118076
Y001058
X00391401Y00144024
X00376877Y001533
X00317514Y00176644
X0029885Y00176781
X00286052Y00176644
X00285954Y00135466
X0029885
X00253011Y00132153
X002115
X001721
X00131287
X00130511Y00188626
X00171872Y00188944
X00210223Y00188579
X0025408Y00188944
X00251867Y00314893
X00257617Y00323393
X00274774Y00322249
X0028995Y00327676
X00296884Y0031518
Y00302087
X00327536Y00301024
X00327874Y00311416
X00314938Y00334654
X00309892Y00355968
X00309121Y00367171
X00335892Y00367908
X00348893Y00367613
X0035398Y00359615
X00353645Y00349093
X00356657Y0033786
X00357931Y0032486
X00369899Y00325145
X00375399Y00350569
X0039625Y00352759
X00389928Y00375602
X00384899Y00392508
X00384702Y00401765
X00386534Y00410592
X0037859Y00415124
X00402278Y00413259
X00415221Y00413525
X0042275Y00439248
X0042784Y00453146
X00418204Y00463078
X00387675Y00453823
X003725Y0045429
X00363501Y00453572
X0036314Y00472524
X00350247Y00465856
X00343902Y00474134
X00330902Y00472993
X00332501Y00463697
X00319501Y00462655
X00318542Y00472524
X00322956Y00482284
X00322652Y00491609
X00335099Y00489804
X00348222Y00488034
X00351665Y00431034
X00333955
X00316356
Y00412656
Y00395169
X00333955
Y00412656
X00351665
Y00395169
X00369669Y00368673
X00330902Y00359076
X00275665Y00353176
X00262768Y00339741
X00246425Y00346162
X00247569Y00355584
X00247652Y00366506
X00233584Y00351851
X00223708Y00352034
X00214066
X00213822Y00332011
X00199Y00340108
X00180717
X001815Y00365256
X00194318Y003653
X0018275Y00388846
X00169828
X00158394Y0038875
X00155681Y00380169
X00155327Y00371176
Y00362176
Y00353176
Y00344176
X00137845Y00348423
Y00357423
Y00366423
X0013782Y00375423
X00138743Y00384375
X00141185Y00393038
X00145255Y00401064
X00150722Y00408214
X00157382Y00414268
X00165102Y00418894
X001735Y00422131
X00182373Y00423636
X00191371Y00423846
X00200371
X00209371
X00218371
X00226995Y00425202
X00236336Y00424879
X0024825Y00426974
X00264629Y00430077
X00275012Y00429234
X0028206Y00421838
X00285084Y00412548
X00286681Y00448678
X00290472Y00459486
X00300618Y00452897
X002685Y00446334
X00261625Y00452367
X00259678Y00438782
X00245838Y0047625
X00234117Y00390195
X00220161
X00207926
X00205669Y00406364
X00196669
X00187669
X00178727Y00405347
X00170417Y0040189
X00163446Y00396199
X00109906Y00397813
X0012625Y00425519
X00147216Y00457416
X00136796Y00335169
X00130405Y0031518
X00127196Y00307999
Y0030021
X00127011Y00291445
X00121025Y00285535
X00115961Y00299675
X00144503Y00296456
X00144453Y00287456
X00141816Y00278851
X00135806Y00272152
X00127794Y00268052
X00118864Y00266934
X00109877Y00266456
X00100934Y00265446
X00146302Y00305428
X00155681Y00316315
X00168856
X00180717Y00279624
X0023229Y00301957
X00369238Y00293482
X00425786Y00345506
X00443392Y00358553
X00451732Y00401346
X0044734Y00434948
X004735Y00442321
X00389928Y00430968
X00087779Y00346234
X00064964Y00339269
X0003525Y00359652
X00059601Y00407103
Y00419722
X0006975Y00447534
X0006888Y00469368
X00041421Y00479507
X00045996Y00297072
X0003525Y00275558
X00061737Y00257618
X00058Y00589
X00046592
X00036051
X00103832Y00625036
X00141361Y00625006
X00183328Y00607099
X00193605Y00607
X00204694
X00192356Y00556116
X00189781Y00684424
X00202951
X00213822Y00677708
X00243401Y00667268
X00236336Y00657078
X00264629Y00653365
X0026126Y0066869
X00261965Y00678257
X00271413Y00679108
X00281806
X00291004Y0066869
X00293443Y00645005
X00283944Y00635576
X00291982Y0070002
X0029277Y0072254
X00262642Y00727016
X00237Y00698201
X00201314Y00731875
X00209532Y00757477
X00225476Y00756333
X00180971Y00756712
X00164264Y00753382
X00164094Y00767176
X00176357Y00684424
X00325909Y00689162
X00326722Y00669284
X0032682Y00727714
X00316558Y00756
X00362875Y00737577
Y0072393
X00397351Y0074669
X00406758Y00697371
X00413923Y00697538
X00422739Y00671556
X00413223Y0066055
X00399294Y00676063
X00446456Y00679854
X00465013Y0069729
X00472352Y00697285
X00474708Y00721717
X00474808Y00738499
X00469241Y00763292
X00457449
X00462323Y00638987
X00478568Y00637452
X00472352Y00608021
X00446566Y00616516
X00436302Y00624637
X00440386Y00633653
X00433045Y00643861
X00427324Y00616516
X00394647Y00623753
X00412634Y00577221
X00426696Y00550736
X00403422Y0049512
X00380891Y00514123
X00322652Y00501263
X00290186Y00501886
X00277705Y00502014
X00492233Y0055171
X00642791Y00494219
X00672864Y005045
X00723312Y00514578
X0074894Y00515668
X0076205Y0052249
X00775075
Y00508736
X0077246Y00563512
X0078705Y00564174
X00798043Y00567464
X00827706Y00596927
X0085824Y00596928
X008424Y00646658
X00851988Y00681328
X00813888
X00775934
X00738118Y00680746
X00715834Y00673461
X00710666Y00665693
X00719676Y0066275
X00714676Y00700506
X00710443Y00717778
X00708793Y00737028
X00675557Y00707943
Y00694943
X00638173Y0069566
X0063875Y00685193
X00639534Y00673461
X0063875Y00655943
Y00645806
Y00630327
Y00617324
X0062205Y00639306
X00595042Y00659193
X00604234Y00671806
X0060063Y00685193
X00604205Y00714222
Y0072425
X00591785Y0073075
X00585644Y007414
X0063875Y00726591
Y00713876
X00677912Y00646683
X00679057Y00629183
Y00617117
X00691357Y00616341
X00710019Y0061336
X0072455Y00608485
X0074955Y00609008
X0076205
X00712237Y00571845
X00716193Y00562195
X00890518Y00557713
X00900001Y00557446
X00885875Y00522734
X00919527Y00520573
X00959396Y00496233
X009805Y00495089
X00992298Y00505688
X01012618Y00504164
X0104334Y00513054
X01060116Y00515848
X01066501Y00522734
X01060503Y00556234
X01047
X01039501Y00569091
X01065157
X01066851Y00626398
X01075368Y00630851
X0109575Y00620114
X01103042Y00614654
X011275Y00649452
X010805Y00681328
X01042758
X01004818
X00966718
X00928618
X00918638Y00659486
X00950134Y00658342
X00960294Y00608122
X00923513
X00899549
X00887599
X00890484Y00681328
X01040083Y00608122
X010125Y0054749
X00992552Y00548106
X01118532Y00522734
T02
X00137498Y00716196
Y00736196
T03
X001467Y00065
X001721
X001975
X002229
X002483
X00517138Y00065
X00542538
X00748234Y00051
X00786334
X00824434
X00862534
X00900634
X00938734
X00976834
X01014934
X01053034
X01091134
X01072134Y00165
X01034034
X00995934
X00957834
X00919734
X00881634
X00843534
X00805434
X00767334
X00729234
X0006513Y0065335
Y0067875
X00747101Y00635
X00785201
X00823301
X00861401
X008424Y00749
X008043
X007662
X007281
X008805
X009186
X009567
X009948
X010329
X01071
X01090001Y00635
X01051901
X01013801
X00975701
X00937601
X00899501
T04
X0005Y0005
X0115
X0005Y0075
X0115
M30
