%TF.GenerationSoftware,Altium Limited,Altium Designer,25.4.2 (15)*%
G04 Layer_Color=16711935*
%FSLAX45Y45*%
%MOMM*%
%TF.SameCoordinates,A7C97D9D-A6D5-46C4-92C3-49603A3EC6F4*%
%TF.FilePolarity,Negative*%
%TF.FileFunction,Soldermask,Bot*%
%TF.Part,Single*%
G01*
G75*
%TA.AperFunction,SMDPad,CuDef*%
%ADD150R,1.55320X1.35320*%
%ADD151R,1.10320X1.00320*%
%ADD161R,0.90320X0.75320*%
%TA.AperFunction,TestPad*%
%ADD176C,1.40320*%
%TA.AperFunction,SMDPad,CuDef*%
%ADD178R,1.20320X1.10320*%
%ADD181R,1.05320X1.15320*%
%ADD182R,1.00320X1.10320*%
%ADD183R,1.15320X1.05320*%
%ADD184O,0.55320X2.30320*%
%ADD185R,1.10320X1.20320*%
%ADD187R,0.85320X0.90320*%
%TA.AperFunction,ComponentPad*%
%ADD192O,2.70320X1.70320*%
%ADD193O,1.95320X2.70320*%
%ADD194C,1.85320*%
%ADD195O,2.70320X1.95320*%
%TA.AperFunction,WasherPad*%
%ADD196C,3.20320*%
%TA.AperFunction,SMDPad,CuDef*%
%ADD197R,0.80320X1.25320*%
%ADD198R,2.65320X2.35320*%
%ADD199R,1.85320X1.45320*%
%ADD200R,1.25320X0.80320*%
%ADD201R,1.40320X1.65320*%
%ADD202R,2.10320X1.60320*%
%ADD203R,0.50320X0.67820*%
%ADD204R,1.10320X1.20320*%
%ADD205O,2.30320X0.55320*%
%ADD206C,1.40320*%
%ADD207R,1.45320X1.85320*%
%ADD208R,0.96320X1.33320*%
D150*
X3025000Y662502D02*
D03*
Y487501D02*
D03*
D151*
X585000Y3950000D02*
D03*
X415000D02*
D03*
X414207Y4693683D02*
D03*
X584207D02*
D03*
X6659999Y3782501D02*
D03*
X6490002D02*
D03*
X6410002Y4149998D02*
D03*
X6240000D02*
D03*
D161*
X3504456Y2640917D02*
D03*
X3504454Y2550916D02*
D03*
X3725000Y4725000D02*
D03*
X3724997Y4634999D02*
D03*
X2982693Y1587351D02*
D03*
X2982688Y1497348D02*
D03*
X2858142Y1587351D02*
D03*
X2858137Y1497348D02*
D03*
D176*
X3411106Y3073008D02*
D03*
X3112500Y2156008D02*
D03*
X2597263Y2564992D02*
D03*
D178*
X2642545Y2871118D02*
D03*
Y2736122D02*
D03*
X2803935Y2578484D02*
D03*
Y2713484D02*
D03*
X6913573Y6266829D02*
D03*
Y6401830D02*
D03*
X6949723Y822281D02*
D03*
Y687280D02*
D03*
D181*
X2801794Y3097853D02*
D03*
X2671794D02*
D03*
X2799512Y2903223D02*
D03*
X2929514D02*
D03*
X2887261Y2314114D02*
D03*
X3017261D02*
D03*
X2974007Y6770032D02*
D03*
X3104007D02*
D03*
X2813820Y7142504D02*
D03*
X2683818D02*
D03*
X6224999Y3880001D02*
D03*
X6355001D02*
D03*
D182*
X725000Y4360000D02*
D03*
Y4190000D02*
D03*
X1906039Y5952040D02*
D03*
Y5782040D02*
D03*
X7584874Y4140001D02*
D03*
Y4310003D02*
D03*
X7707536Y4140001D02*
D03*
Y4310003D02*
D03*
X7480780Y3665920D02*
D03*
Y3835922D02*
D03*
X7358088Y3665920D02*
D03*
Y3835917D02*
D03*
X7297499Y4140001D02*
D03*
Y4309998D02*
D03*
X7175000Y4139996D02*
D03*
Y4309998D02*
D03*
X7370508Y5969278D02*
D03*
Y5799281D02*
D03*
X7125002Y2031008D02*
D03*
Y2201011D02*
D03*
X7374999Y2031008D02*
D03*
Y2201011D02*
D03*
X7500003Y2031008D02*
D03*
Y2201011D02*
D03*
X7624996Y2031008D02*
D03*
Y2201011D02*
D03*
X7120506Y5969278D02*
D03*
Y5799281D02*
D03*
X7874998Y2031008D02*
D03*
Y2201011D02*
D03*
X7750000Y2031008D02*
D03*
Y2201011D02*
D03*
X8000002Y2031008D02*
D03*
Y2201011D02*
D03*
X7874998Y3834998D02*
D03*
Y3665001D02*
D03*
X7620500Y5969273D02*
D03*
Y5799276D02*
D03*
X7245505Y5969278D02*
D03*
Y5799281D02*
D03*
X7495502Y5969278D02*
D03*
Y5799276D02*
D03*
X7870502Y5969278D02*
D03*
Y5799276D02*
D03*
X7995501Y5969278D02*
D03*
Y5799276D02*
D03*
X7745504Y5969278D02*
D03*
Y5799276D02*
D03*
X7752504Y3835003D02*
D03*
Y3665006D02*
D03*
X7249996Y2031008D02*
D03*
Y2201011D02*
D03*
D183*
X3314432Y2544889D02*
D03*
Y2674889D02*
D03*
X2036039Y5650753D02*
D03*
Y5780753D02*
D03*
X2692760Y6194713D02*
D03*
Y6324713D02*
D03*
X2507129Y6552360D02*
D03*
Y6422360D02*
D03*
X3035312Y7124149D02*
D03*
Y6994146D02*
D03*
D184*
X7882496Y4704998D02*
D03*
X7817498D02*
D03*
X7752499D02*
D03*
X7687495D02*
D03*
X7622497D02*
D03*
X7557498D02*
D03*
X7492495D02*
D03*
X7427496D02*
D03*
X7362497D02*
D03*
X7297499D02*
D03*
X7232495D02*
D03*
X7167496D02*
D03*
X7882496Y5394995D02*
D03*
X7817498D02*
D03*
X7752499D02*
D03*
X7687495D02*
D03*
X7622497D02*
D03*
X7557498D02*
D03*
X7492495D02*
D03*
X7427496D02*
D03*
X7362497D02*
D03*
X7297499D02*
D03*
X7232495D02*
D03*
X7167496D02*
D03*
X7167502Y3295004D02*
D03*
X7232500D02*
D03*
X7297504D02*
D03*
X7362502D02*
D03*
X7427501D02*
D03*
X7492500D02*
D03*
X7557503D02*
D03*
X7622502D02*
D03*
X7687500D02*
D03*
X7752504D02*
D03*
X7817503D02*
D03*
X7882501D02*
D03*
X7167502Y2605003D02*
D03*
X7232500D02*
D03*
X7297504D02*
D03*
X7362502D02*
D03*
X7427501D02*
D03*
X7492500D02*
D03*
X7557503D02*
D03*
X7622502D02*
D03*
X7687500D02*
D03*
X7752504D02*
D03*
X7817503D02*
D03*
X7882501D02*
D03*
D185*
X3606718Y2763864D02*
D03*
X3741718D02*
D03*
X3722496Y3127853D02*
D03*
X3587496D02*
D03*
X3287147Y2886335D02*
D03*
X3152146D02*
D03*
X3326932Y2314114D02*
D03*
X3191932D02*
D03*
X2675817Y6995002D02*
D03*
X2810818D02*
D03*
Y7407503D02*
D03*
X2675817D02*
D03*
X7067497Y4700000D02*
D03*
X6932501D02*
D03*
X3880005Y4424999D02*
D03*
X4015001D02*
D03*
X4297938Y3603259D02*
D03*
X4162937D02*
D03*
X4288398Y4221311D02*
D03*
X4153402D02*
D03*
X6357501Y4015002D02*
D03*
X6222500D02*
D03*
X8125000Y3295004D02*
D03*
X7990004D02*
D03*
D187*
X2834601Y7270603D02*
D03*
X2699600D02*
D03*
D192*
X1374983Y7161958D02*
D03*
Y7361958D02*
D03*
D193*
X1467000Y650000D02*
D03*
X1721000D02*
D03*
X2483000D02*
D03*
X2229000D02*
D03*
X1975000D02*
D03*
X5171383Y650000D02*
D03*
X5425383D02*
D03*
D194*
X10900006Y6349999D02*
D03*
X10710004Y7490002D02*
D03*
X10149340Y510001D02*
D03*
X9959343Y1649998D02*
D03*
X9578343D02*
D03*
X9768340Y510001D02*
D03*
X8816343Y1649998D02*
D03*
X9006340Y510001D02*
D03*
X8625340D02*
D03*
X8435343Y1649998D02*
D03*
X8054343D02*
D03*
X8244340Y510001D02*
D03*
X7863340D02*
D03*
X7673343Y1649998D02*
D03*
X10340343D02*
D03*
X10530340Y510001D02*
D03*
X7292343Y1649998D02*
D03*
X7482340Y510001D02*
D03*
X9387340D02*
D03*
X9197343Y1649998D02*
D03*
X10911340Y510001D02*
D03*
X10721343Y1649998D02*
D03*
X9186004Y7490002D02*
D03*
X9376006Y6349999D02*
D03*
X8995006D02*
D03*
X8805004Y7490002D02*
D03*
X8424004D02*
D03*
X8614006Y6349999D02*
D03*
X9948004Y7490002D02*
D03*
X10138006Y6349999D02*
D03*
X10519006D02*
D03*
X10329004Y7490002D02*
D03*
X7662004D02*
D03*
X7852006Y6349999D02*
D03*
X8233006D02*
D03*
X8043004Y7490002D02*
D03*
X9757006Y6349999D02*
D03*
X9567004Y7490002D02*
D03*
X7471006Y6349999D02*
D03*
X7281004Y7490002D02*
D03*
D195*
X651300Y6533500D02*
D03*
Y6787500D02*
D03*
D196*
X11500000Y499998D02*
D03*
Y7499999D02*
D03*
X500002D02*
D03*
Y499998D02*
D03*
D197*
X10900001Y6714997D02*
D03*
X10710004D02*
D03*
X10805005Y6934997D02*
D03*
X7752499D02*
D03*
X7657498Y6714997D02*
D03*
X7847500D02*
D03*
X7375004Y6934997D02*
D03*
X7280003Y6714997D02*
D03*
X7470000D02*
D03*
X8519005Y6934997D02*
D03*
X8424004Y6714997D02*
D03*
X8614001D02*
D03*
X8138005Y6934997D02*
D03*
X8043004Y6714997D02*
D03*
X8233006D02*
D03*
X8907498Y6934997D02*
D03*
X8812502Y6714997D02*
D03*
X9002499D02*
D03*
X10425001Y6934997D02*
D03*
X10330000Y6714997D02*
D03*
X10520002D02*
D03*
X10043000Y6934997D02*
D03*
X9948004Y6714997D02*
D03*
X10138001D02*
D03*
X9281005Y6934997D02*
D03*
X9186004Y6714997D02*
D03*
X9376006D02*
D03*
X9662010Y6934997D02*
D03*
X9567009Y6714997D02*
D03*
X9757006D02*
D03*
X9202504Y1185006D02*
D03*
X9392501D02*
D03*
X9297500Y965006D02*
D03*
X8812497Y1185000D02*
D03*
X9002499D02*
D03*
X8907498Y965001D02*
D03*
X9579999Y1185000D02*
D03*
X9769996D02*
D03*
X9675000Y965001D02*
D03*
X10354998Y1185006D02*
D03*
X10544995D02*
D03*
X10449999Y965006D02*
D03*
X9954999Y1185000D02*
D03*
X10145001D02*
D03*
X10050000Y965001D02*
D03*
X10729999Y1185006D02*
D03*
X10920001D02*
D03*
X10825000Y965006D02*
D03*
X8429998Y1185000D02*
D03*
X8620001D02*
D03*
X8524999Y965001D02*
D03*
X8054998Y1185000D02*
D03*
X8245000D02*
D03*
X8149999Y965001D02*
D03*
X7680002Y1185000D02*
D03*
X7870005D02*
D03*
X7775003Y965001D02*
D03*
X7304997Y1185000D02*
D03*
X7494999D02*
D03*
X7399998Y965001D02*
D03*
D198*
X896235Y6070996D02*
D03*
X466233D02*
D03*
D199*
X381637Y6622450D02*
D03*
Y6277447D02*
D03*
D200*
X2825001Y670005D02*
D03*
Y480003D02*
D03*
D201*
X4050000Y4675000D02*
D03*
X3879998D02*
D03*
D202*
X4297500Y4022500D02*
D03*
Y3782501D02*
D03*
D203*
X2840606Y6447448D02*
D03*
X2790606D02*
D03*
X2740606D02*
D03*
X2690606D02*
D03*
Y6615048D02*
D03*
X2740606D02*
D03*
X2790606D02*
D03*
X2840606D02*
D03*
D204*
X3020613Y2674887D02*
D03*
X3185613D02*
D03*
X3020613Y2544887D02*
D03*
X3185613D02*
D03*
D205*
X6221920Y6526930D02*
D03*
Y6591929D02*
D03*
Y6656933D02*
D03*
Y6721931D02*
D03*
Y6786930D02*
D03*
Y6851928D02*
D03*
Y6916932D02*
D03*
Y6981931D02*
D03*
Y7046929D02*
D03*
Y7111933D02*
D03*
Y7176932D02*
D03*
Y7241930D02*
D03*
X6911917Y6526930D02*
D03*
Y6591929D02*
D03*
Y6656933D02*
D03*
Y6721931D02*
D03*
Y6786930D02*
D03*
Y6851928D02*
D03*
Y6916932D02*
D03*
Y6981931D02*
D03*
Y7046929D02*
D03*
Y7111933D02*
D03*
Y7176932D02*
D03*
Y7241930D02*
D03*
X6221920Y922878D02*
D03*
Y987876D02*
D03*
Y1052875D02*
D03*
Y1117878D02*
D03*
Y1182877D02*
D03*
Y1247876D02*
D03*
Y1312879D02*
D03*
Y1377878D02*
D03*
Y1442876D02*
D03*
Y1507875D02*
D03*
Y1572879D02*
D03*
Y1637877D02*
D03*
X6911917Y922878D02*
D03*
Y987876D02*
D03*
Y1052875D02*
D03*
Y1117878D02*
D03*
Y1182877D02*
D03*
Y1247876D02*
D03*
Y1312879D02*
D03*
Y1377878D02*
D03*
Y1442876D02*
D03*
Y1507875D02*
D03*
Y1572879D02*
D03*
Y1637877D02*
D03*
D206*
X3035312Y6613431D02*
D03*
D207*
X1504731Y7600001D02*
D03*
X1159733D02*
D03*
D208*
X3412500Y2907747D02*
D03*
X3587496D02*
D03*
%TF.MD5,ee9abff5e073411a078f66ec35a0d0cc*%
M02*
