%TF.GenerationSoftware,Altium Limited,Altium Designer,25.4.2 (15)*%
G04 Layer_Color=128*
%FSLAX45Y45*%
%MOMM*%
%TF.SameCoordinates,244FAB98-5257-4605-B12F-362C43534D49*%
%TF.FilePolarity,Positive*%
%TF.FileFunction,Drillmap*%
%TF.Part,Single*%
G01*
G75*
%TA.AperFunction,NonConductor*%
%ADD221C,0.12700*%
D221*
X5370383Y650000D02*
X5480382D01*
X5425383Y595000D02*
Y705000D01*
X5116383Y650000D02*
X5226382D01*
X5171383Y595000D02*
Y705000D01*
X596300Y6533500D02*
X706300D01*
X651300Y6478500D02*
Y6588500D01*
X596300Y6787500D02*
X706300D01*
X651300Y6732500D02*
Y6842500D01*
X1339983Y7361958D02*
X1409983D01*
X1374983Y7326958D02*
Y7396958D01*
X1339983Y7161958D02*
X1409983D01*
X1374983Y7126958D02*
Y7196958D01*
X1920000Y650000D02*
X2030000D01*
X1975000Y595000D02*
Y705000D01*
X2174000Y650000D02*
X2284000D01*
X2229000Y595000D02*
Y705000D01*
X2428000Y650000D02*
X2538000D01*
X2483000Y595000D02*
Y705000D01*
X1666000Y650000D02*
X1776000D01*
X1721000Y595000D02*
Y705000D01*
X1412000Y650000D02*
X1522000D01*
X1467000Y595000D02*
Y705000D01*
X10094340Y510001D02*
X10204340D01*
X10149340Y455001D02*
Y565000D01*
X9904343Y1649998D02*
X10014342D01*
X9959343Y1594998D02*
Y1704998D01*
X9523343Y1649998D02*
X9633342D01*
X9578343Y1594998D02*
Y1704998D01*
X9713340Y510001D02*
X9823340D01*
X9768340Y455001D02*
Y565000D01*
X8761343Y1649998D02*
X8871342D01*
X8816343Y1594998D02*
Y1704998D01*
X8951340Y510001D02*
X9061340D01*
X9006340Y455001D02*
Y565000D01*
X8570340Y510001D02*
X8680340D01*
X8625340Y455001D02*
Y565000D01*
X8380343Y1649998D02*
X8490342D01*
X8435343Y1594998D02*
Y1704998D01*
X7999343Y1649998D02*
X8109342D01*
X8054343Y1594998D02*
Y1704998D01*
X8189340Y510001D02*
X8299340D01*
X8244340Y455001D02*
Y565000D01*
X7808340Y510001D02*
X7918340D01*
X7863340Y455001D02*
Y565000D01*
X7618343Y1649998D02*
X7728342D01*
X7673343Y1594998D02*
Y1704998D01*
X10285343Y1649998D02*
X10395342D01*
X10340343Y1594998D02*
Y1704998D01*
X10475340Y510001D02*
X10585340D01*
X10530340Y455001D02*
Y565000D01*
X7237343Y1649998D02*
X7347342D01*
X7292343Y1594998D02*
Y1704998D01*
X7427340Y510001D02*
X7537340D01*
X7482340Y455001D02*
Y565000D01*
X9332340Y510001D02*
X9442340D01*
X9387340Y455001D02*
Y565000D01*
X9142343Y1649998D02*
X9252342D01*
X9197343Y1594998D02*
Y1704998D01*
X10856340Y510001D02*
X10966340D01*
X10911340Y455001D02*
Y565000D01*
X10666343Y1649998D02*
X10776342D01*
X10721343Y1594998D02*
Y1704998D01*
X9131004Y7490002D02*
X9241004D01*
X9186004Y7435002D02*
Y7545002D01*
X9321006Y6349999D02*
X9431006D01*
X9376006Y6294999D02*
Y6404999D01*
X8940006Y6349999D02*
X9050006D01*
X8995006Y6294999D02*
Y6404999D01*
X8750004Y7490002D02*
X8860004D01*
X8805004Y7435002D02*
Y7545002D01*
X8369004Y7490002D02*
X8479004D01*
X8424004Y7435002D02*
Y7545002D01*
X8559006Y6349999D02*
X8669006D01*
X8614006Y6294999D02*
Y6404999D01*
X9893004Y7490002D02*
X10003004D01*
X9948004Y7435002D02*
Y7545002D01*
X10083006Y6349999D02*
X10193006D01*
X10138006Y6294999D02*
Y6404999D01*
X10464006Y6349999D02*
X10574006D01*
X10519006Y6294999D02*
Y6404999D01*
X10274004Y7490002D02*
X10384004D01*
X10329004Y7435002D02*
Y7545002D01*
X10655004Y7490002D02*
X10765004D01*
X10710004Y7435002D02*
Y7545002D01*
X10845006Y6349999D02*
X10955006D01*
X10900006Y6294999D02*
Y6404999D01*
X7607004Y7490002D02*
X7717004D01*
X7662004Y7435002D02*
Y7545002D01*
X7797006Y6349999D02*
X7907006D01*
X7852006Y6294999D02*
Y6404999D01*
X8178006Y6349999D02*
X8288006D01*
X8233006Y6294999D02*
Y6404999D01*
X7988004Y7490002D02*
X8098004D01*
X8043004Y7435002D02*
Y7545002D01*
X9702006Y6349999D02*
X9812006D01*
X9757006Y6294999D02*
Y6404999D01*
X9512004Y7490002D02*
X9622004D01*
X9567004Y7435002D02*
Y7545002D01*
X7416006Y6349999D02*
X7526006D01*
X7471006Y6294999D02*
Y6404999D01*
X7226004Y7490002D02*
X7336004D01*
X7281004Y7435002D02*
Y7545002D01*
X11340000Y499998D02*
X11660000D01*
X11500000Y339998D02*
Y659998D01*
X11340000Y7499999D02*
X11660000D01*
X11500000Y7339999D02*
Y7659999D01*
X340002Y7499999D02*
X660001D01*
X500002Y7339999D02*
Y7659999D01*
X340002Y499998D02*
X660001D01*
X500002Y339998D02*
Y659998D01*
X6380336Y6734609D02*
X6410336D01*
X6395336Y6719609D02*
Y6749609D01*
X6372498Y6851928D02*
X6402498D01*
X6387498Y6836928D02*
Y6866928D01*
X6732797Y939058D02*
X6762796D01*
X6747797Y924058D02*
Y954058D01*
X6732797Y1024058D02*
X6762796D01*
X6747797Y1009058D02*
Y1039058D01*
X6375199Y1459459D02*
X6405199D01*
X6390199Y1444459D02*
Y1474459D01*
X6365853Y1354664D02*
X6395853D01*
X6380853Y1339664D02*
Y1369664D01*
X6370575Y1249789D02*
X6400575D01*
X6385575Y1234789D02*
Y1264789D01*
X6369880Y1052875D02*
X6399880D01*
X6384880Y1037875D02*
Y1067875D01*
X6370798Y920552D02*
X6400797D01*
X6385797Y905552D02*
Y935552D01*
X6370575Y1150450D02*
X6400575D01*
X6385575Y1135450D02*
Y1165450D01*
X6737518Y1144157D02*
X6767518D01*
X6752518Y1129157D02*
Y1159157D01*
X6366728Y6956603D02*
X6396728D01*
X6381728Y6941603D02*
Y6971603D01*
X3294021Y3590759D02*
X3324021D01*
X3309021Y3575759D02*
Y3605759D01*
X3076214Y3671706D02*
X3106214D01*
X3091214Y3656706D02*
Y3686706D01*
X9171380Y6594857D02*
X9201380D01*
X9186380Y6579857D02*
Y6609857D01*
X7366178Y6807464D02*
X7396178D01*
X7381178Y6792464D02*
Y6822464D01*
X7744341Y6813283D02*
X7774341D01*
X7759341Y6798283D02*
Y6828283D01*
X6740566Y7079432D02*
X6770566D01*
X6755566Y7064432D02*
Y7094432D01*
X6740566Y6949431D02*
X6770566D01*
X6755566Y6934431D02*
Y6964431D01*
X2912703Y7225404D02*
X2942703D01*
X2927703Y7210404D02*
Y7240404D01*
X2515110Y1321527D02*
X2545110D01*
X2530110Y1306527D02*
Y1336527D01*
X2844535Y1354664D02*
X2874535D01*
X2859535Y1339664D02*
Y1369664D01*
X2100000Y1321527D02*
X2130000D01*
X2115000Y1306527D02*
Y1336527D01*
X1706000Y1321527D02*
X1736000D01*
X1721000Y1306527D02*
Y1336527D01*
X1297873Y1321527D02*
X1327873D01*
X1312873Y1306527D02*
Y1336527D01*
X11005647Y1185377D02*
X11035647D01*
X11020647Y1170377D02*
Y1200377D01*
X10810000Y1101127D02*
X10840000D01*
X10825000Y1086127D02*
Y1116127D01*
X7181759Y6627501D02*
X7211759D01*
X7196759Y6612501D02*
Y6642501D01*
X7143337Y6734609D02*
X7173337D01*
X7158337Y6719609D02*
Y6749609D01*
X6372498Y6458063D02*
X6402498D01*
X6387498Y6443063D02*
Y6473063D01*
X6372498Y6173239D02*
X6402498D01*
X6387498Y6158239D02*
Y6188239D01*
X6372498Y6303268D02*
X6402498D01*
X6387498Y6288268D02*
Y6318268D01*
X6372498Y6559430D02*
X6402498D01*
X6387498Y6544430D02*
Y6574430D01*
X4735867Y1707427D02*
X4765867D01*
X4750867Y1692427D02*
Y1722427D01*
X10634999Y4038968D02*
X10664999D01*
X10649999Y4023968D02*
Y4053968D01*
X11360000Y2101013D02*
X11390000D01*
X11375000Y2086013D02*
Y2116013D01*
X6769382Y490536D02*
X6799382D01*
X6784382Y475536D02*
Y505536D01*
X10790005Y6813283D02*
X10820005D01*
X10805005Y6798283D02*
Y6828283D01*
X8889843Y6813283D02*
X8919843D01*
X8904843Y6798283D02*
Y6828283D01*
X6372498Y7138760D02*
X6402498D01*
X6387498Y7123760D02*
Y7153760D01*
X6764123Y6466830D02*
X6794123D01*
X6779123Y6451830D02*
Y6481830D01*
X6775570Y6291830D02*
X6805570D01*
X6790570Y6276830D02*
Y6306830D01*
X6775570Y6171166D02*
X6805570D01*
X6790570Y6156167D02*
Y6186166D01*
X6991768Y2259424D02*
X7021768D01*
X7006768Y2244424D02*
Y2274424D01*
X7605500Y6090080D02*
X7635500D01*
X7620500Y6075080D02*
Y6105080D01*
X7480502Y6090080D02*
X7510502D01*
X7495502Y6075080D02*
Y6105080D01*
X3521450Y3490929D02*
X3551450D01*
X3536450Y3475929D02*
Y3505929D01*
X7797473Y3944194D02*
X7827473D01*
X7812473Y3929194D02*
Y3959194D01*
X7689083Y4019652D02*
X7719083D01*
X7704083Y4004652D02*
Y4034652D01*
X7569874Y4023100D02*
X7599874D01*
X7584874Y4008100D02*
Y4038100D01*
X9499791Y4047706D02*
X9529791D01*
X9514791Y4032706D02*
Y4062706D01*
X9429891Y3933351D02*
X9459891D01*
X9444891Y3918351D02*
Y3948351D01*
X7160620Y4031089D02*
X7190620D01*
X7175620Y4016089D02*
Y4046089D01*
X7230505Y6084855D02*
X7260505D01*
X7245505Y6069855D02*
Y6099855D01*
X7355003Y1922622D02*
X7385003D01*
X7370003Y1907622D02*
Y1937622D01*
X7277359Y1871363D02*
X7307359D01*
X7292359Y1856363D02*
Y1886362D01*
X7485003Y1922762D02*
X7515003D01*
X7500003Y1907762D02*
Y1937762D01*
X7613763Y1922622D02*
X7643763D01*
X7628763Y1907622D02*
Y1937622D01*
X10501187Y1927302D02*
X10531187D01*
X10516187Y1912302D02*
Y1942302D01*
X10623236Y1927302D02*
X10653236D01*
X10638236Y1912302D02*
Y1942302D01*
X10750000Y1927302D02*
X10780000D01*
X10765000Y1912302D02*
Y1942302D01*
X11113678Y1916745D02*
X11143678D01*
X11128678Y1901745D02*
Y1931745D01*
X10385827Y6081222D02*
X10415827D01*
X10400827Y6066222D02*
Y6096221D01*
X3524801Y3596149D02*
X3554801D01*
X3539801Y3581149D02*
Y3611148D01*
X2525797Y1889435D02*
X2555797D01*
X2540797Y1874435D02*
Y1904435D01*
X2087233Y1885790D02*
X2117233D01*
X2102233Y1870790D02*
Y1900790D01*
X2953841Y3020875D02*
X2983841D01*
X2968841Y3005875D02*
Y3035875D01*
X2953841Y3151796D02*
X2983841D01*
X2968841Y3136796D02*
Y3166796D01*
X9829044Y3808998D02*
X9859044D01*
X9844044Y3793998D02*
Y3823998D01*
X4558552Y1310198D02*
X4588552D01*
X4573552Y1295198D02*
Y1325198D01*
X4558552Y1180755D02*
X4588552D01*
X4573552Y1165755D02*
Y1195755D01*
X4857203Y678036D02*
X4887203D01*
X4872203Y663037D02*
Y693036D01*
X4857203Y803804D02*
X4887203D01*
X4872203Y788804D02*
Y818804D01*
X3710000Y4542897D02*
X3740000D01*
X3725000Y4527897D02*
Y4557897D01*
X2805597Y4218384D02*
X2835597D01*
X2820597Y4203384D02*
Y4233384D01*
X1290105Y1886261D02*
X1320105D01*
X1305105Y1871261D02*
Y1901261D01*
X1703716Y1889435D02*
X1733716D01*
X1718716Y1874435D02*
Y1904435D01*
X682500Y4475345D02*
X712500D01*
X697500Y4460345D02*
Y4490345D01*
X4917379Y2067786D02*
X4947378D01*
X4932379Y2052786D02*
Y2082786D01*
X7985002Y1918968D02*
X8015002D01*
X8000002Y1903969D02*
Y1933968D01*
X7859998Y1918968D02*
X7889998D01*
X7874998Y1903969D02*
Y1933968D01*
X7736280Y1922762D02*
X7766280D01*
X7751280Y1907762D02*
Y1937762D01*
X2239761Y7563335D02*
X2269761D01*
X2254761Y7548335D02*
Y7578335D01*
X2080317Y7574773D02*
X2110317D01*
X2095317Y7559773D02*
Y7589772D01*
X2886857Y5018859D02*
X2916856D01*
X2901857Y5003859D02*
Y5033859D01*
X2762047Y5020137D02*
X2792047D01*
X2777047Y5005137D02*
Y5035136D01*
X6372498Y7265912D02*
X6402498D01*
X6387498Y7250912D02*
Y7280912D01*
X3551567Y3378599D02*
X3581567D01*
X3566567Y3363599D02*
Y3393599D01*
X3564307Y3248599D02*
X3594307D01*
X3579307Y3233599D02*
Y3263599D01*
X3683991Y3251455D02*
X3713991D01*
X3698991Y3236455D02*
Y3266455D01*
X3083923Y3559681D02*
X3113923D01*
X3098923Y3544682D02*
Y3574681D01*
X3343925Y3679084D02*
X3373925D01*
X3358925Y3664084D02*
Y3694084D01*
X3260360Y3010245D02*
X3290360D01*
X3275360Y2995245D02*
Y3025245D01*
X3263743Y3114155D02*
X3293742D01*
X3278742Y3099155D02*
Y3129155D01*
X2884499Y3276758D02*
X2914499D01*
X2899499Y3261758D02*
Y3291758D01*
X2732737Y3222489D02*
X2762737D01*
X2747737Y3207489D02*
Y3237489D01*
X4258241Y6165161D02*
X4288241D01*
X4273241Y6150161D02*
Y6180161D01*
X4450661Y6165161D02*
X4480661D01*
X4465661Y6150161D02*
Y6180161D01*
X6450432Y3343212D02*
X6480432D01*
X6465432Y3328212D02*
Y3358212D01*
X6088702Y4149060D02*
X6118702D01*
X6103702Y4134060D02*
Y4164060D01*
X6009984Y4009648D02*
X6039984D01*
X6024984Y3994648D02*
Y4024648D01*
X1247500Y4255195D02*
X1277500D01*
X1262500Y4240195D02*
Y4270195D01*
X2123220Y6777082D02*
X2153220D01*
X2138220Y6762082D02*
Y6792082D01*
X5831729Y2109997D02*
X5861729D01*
X5846729Y2094997D02*
Y2124997D01*
X9765000Y3402914D02*
X9795000D01*
X9780000Y3387914D02*
Y3417914D01*
X9910001Y3305782D02*
X9940001D01*
X9925001Y3290782D02*
Y3320782D01*
X2904817Y7000199D02*
X2934817D01*
X2919817Y6985199D02*
Y7015199D01*
X1448022Y3054282D02*
X1478022D01*
X1463022Y3039282D02*
Y3069282D01*
X3473926Y3676135D02*
X3503926D01*
X3488926Y3661135D02*
Y3691135D01*
X3681690Y3686728D02*
X3711690D01*
X3696690Y3671728D02*
Y3701728D01*
X3884283Y3756019D02*
X3914283D01*
X3899283Y3741019D02*
Y3771019D01*
X2597602Y6686901D02*
X2627602D01*
X2612602Y6671901D02*
Y6701901D01*
X2604654Y6782574D02*
X2634654D01*
X2619654Y6767574D02*
Y6797574D01*
X2895039Y6686901D02*
X2925039D01*
X2910039Y6671901D02*
Y6701901D01*
X1457161Y4574159D02*
X1487161D01*
X1472161Y4559159D02*
Y4589159D01*
X581012Y4197221D02*
X611012D01*
X596012Y4182222D02*
Y4212221D01*
X581012Y4071028D02*
X611012D01*
X596012Y4056028D02*
Y4086028D01*
X7091657Y6656933D02*
X7121657D01*
X7106657Y6641933D02*
Y6671933D01*
X5668271Y1756173D02*
X5698271D01*
X5683271Y1741173D02*
Y1771173D01*
X5399115Y1875178D02*
X5429115D01*
X5414115Y1860178D02*
Y1890178D01*
X5322644Y2450927D02*
X5352644D01*
X5337644Y2435927D02*
Y2465927D01*
X5185751Y2455286D02*
X5215751D01*
X5200751Y2440286D02*
Y2470286D01*
X5009007Y2452931D02*
X5039007D01*
X5024007Y2437931D02*
Y2467931D01*
X5199998Y1874016D02*
X5229998D01*
X5214998Y1859016D02*
Y1889016D01*
X2844535Y315201D02*
X2874535D01*
X2859535Y300201D02*
Y330201D01*
X2973501Y315201D02*
X3003500D01*
X2988500Y300201D02*
Y330201D01*
X4137210Y4135250D02*
X4167210D01*
X4152210Y4120250D02*
Y4150250D01*
X10110001Y5474902D02*
X10140001D01*
X10125001Y5459902D02*
Y5489902D01*
X2845518Y1766439D02*
X2875518D01*
X2860518Y1751439D02*
Y1781439D01*
X2973502Y1767809D02*
X3003501D01*
X2988502Y1752809D02*
Y1782809D01*
X2973502Y1354664D02*
X3003501D01*
X2988502Y1339664D02*
Y1369664D01*
X6508548Y4149998D02*
X6538548D01*
X6523548Y4134998D02*
Y4164998D01*
X4708521Y6080211D02*
X4738521D01*
X4723521Y6065211D02*
Y6095211D01*
X7047940Y692955D02*
X7077940D01*
X7062940Y677955D02*
Y707955D01*
X4007779Y4132592D02*
X4037779D01*
X4022779Y4117592D02*
Y4147592D01*
X4167036Y4630779D02*
X4197036D01*
X4182036Y4615779D02*
Y4645779D01*
X4212500Y4392484D02*
X4242500D01*
X4227500Y4377485D02*
Y4407484D01*
X3850341Y4105917D02*
X3880341D01*
X3865341Y4090917D02*
Y4120917D01*
X3832016Y4017654D02*
X3862016D01*
X3847016Y4002654D02*
Y4032654D01*
X337501Y2755582D02*
X367501D01*
X352501Y2740583D02*
Y2770582D01*
X4732084Y7217166D02*
X4762084D01*
X4747084Y7202166D02*
Y7232166D01*
X4733075Y7384987D02*
X4763075D01*
X4748075Y7369987D02*
Y7399987D01*
X3150576Y7560001D02*
X3180576D01*
X3165576Y7545001D02*
Y7575001D01*
X6027338Y6718063D02*
X6057338D01*
X6042338Y6703063D02*
Y6733062D01*
X8828015Y4534174D02*
X8858015D01*
X8843015Y4519174D02*
Y4549174D01*
X8985005Y5574457D02*
X9015005D01*
X9000005Y5559457D02*
Y5589457D01*
X9542499Y3129924D02*
X9572499D01*
X9557499Y3114924D02*
Y3144924D01*
X9477321Y2782317D02*
X9507321D01*
X9492321Y2767317D02*
Y2797317D01*
X11103716Y2770880D02*
X11133716D01*
X11118716Y2755880D02*
Y2785880D01*
X2348364Y6570777D02*
X2378364D01*
X2363364Y6555777D02*
Y6585777D01*
X2803061Y6791083D02*
X2833061D01*
X2818061Y6776083D02*
Y6806083D01*
X2699133Y6791083D02*
X2729133D01*
X2714133Y6776083D02*
Y6806083D01*
X2919428Y6450051D02*
X2949428D01*
X2934428Y6435051D02*
Y6465051D01*
X2824445Y6355763D02*
X2854445D01*
X2839445Y6340763D02*
Y6370763D01*
X2631289Y6533646D02*
X2661289D01*
X2646289Y6518646D02*
Y6548646D01*
X6283282Y763377D02*
X6313282D01*
X6298282Y748377D02*
Y778377D01*
X6368497Y824283D02*
X6398497D01*
X6383497Y809283D02*
Y839283D01*
X5156383Y1429478D02*
X5186383D01*
X5171383Y1414478D02*
Y1444478D01*
X2419014Y6672681D02*
X2449014D01*
X2434014Y6657681D02*
Y6687681D01*
X1882815Y6844235D02*
X1912815D01*
X1897815Y6829235D02*
Y6859235D01*
X1084056Y3978130D02*
X1114056D01*
X1099056Y3963130D02*
Y3993130D01*
X5047910Y1403410D02*
X5077910D01*
X5062910Y1388410D02*
Y1418410D01*
X673800Y4693683D02*
X703800D01*
X688800Y4678683D02*
Y4708683D01*
X399207Y4795075D02*
X429207D01*
X414207Y4780075D02*
Y4810075D01*
X6089969Y3878049D02*
X6119969D01*
X6104969Y3863049D02*
Y3893049D01*
X10412582Y6813283D02*
X10442582D01*
X10427582Y6798283D02*
Y6828283D01*
X6200896Y3007687D02*
X6230896D01*
X6215896Y2992687D02*
Y3022687D01*
X4770685Y6374518D02*
X4800685D01*
X4785685Y6359518D02*
Y6389518D01*
X10038621Y3655234D02*
X10068620D01*
X10053620Y3640234D02*
Y3670234D01*
X9902900Y3655234D02*
X9932900D01*
X9917900Y3640234D02*
Y3670234D01*
X10089620Y4348269D02*
X10119620D01*
X10104620Y4333269D02*
Y4363269D01*
X10062499Y4700000D02*
X10092499D01*
X10077499Y4685000D02*
Y4715000D01*
X634643Y3392693D02*
X664643D01*
X649643Y3377693D02*
Y3407693D01*
X1627638Y7533823D02*
X1657638D01*
X1642638Y7518823D02*
Y7548823D01*
X1625937Y7671759D02*
X1655936D01*
X1640937Y7656759D02*
Y7686759D01*
X1748565Y6844235D02*
X1778565D01*
X1763565Y6829235D02*
Y6859235D01*
X6036395Y987804D02*
X6066395D01*
X6051395Y972804D02*
Y1002804D01*
X6036395Y1117878D02*
X6066395D01*
X6051395Y1102878D02*
Y1132878D01*
X6036395Y1374965D02*
X6066395D01*
X6051395Y1359965D02*
Y1389965D01*
X7282499Y2788211D02*
X7312499D01*
X7297499Y2773211D02*
Y2803211D01*
X7860737Y2437220D02*
X7890737D01*
X7875737Y2422220D02*
Y2452220D01*
X10653511Y6263978D02*
X10683511D01*
X10668511Y6248978D02*
Y6278978D01*
X10738682Y6308506D02*
X10768682D01*
X10753682Y6293506D02*
Y6323506D01*
X10985006Y3959985D02*
X11015006D01*
X11000006Y3944985D02*
Y3974985D01*
X2889717Y4594858D02*
X2919717D01*
X2904717Y4579859D02*
Y4609858D01*
X2031938Y6070000D02*
X2061938D01*
X2046938Y6055000D02*
Y6085000D01*
X7605500Y5224900D02*
X7635500D01*
X7620500Y5209900D02*
Y5239900D01*
X7735753Y5224900D02*
X7765753D01*
X7750753Y5209900D02*
Y5239900D01*
X2014507Y6844235D02*
X2044506D01*
X2029506Y6829235D02*
Y6859235D01*
X2735123Y4292340D02*
X2765123D01*
X2750123Y4277340D02*
Y4307340D01*
X2851807Y4486782D02*
X2881807D01*
X2866807Y4471782D02*
Y4501782D01*
X2631289Y4300767D02*
X2661289D01*
X2646289Y4285767D02*
Y4315767D01*
X2581777Y4387818D02*
X2611777D01*
X2596777Y4372818D02*
Y4402818D01*
X3424021Y4741341D02*
X3454021D01*
X3439021Y4726341D02*
Y4756341D01*
X3294021Y4729933D02*
X3324021D01*
X3309021Y4714933D02*
Y4744933D01*
X3170424Y4725242D02*
X3200424D01*
X3185424Y4710242D02*
Y4740242D01*
X3214561Y4822836D02*
X3244561D01*
X3229561Y4807836D02*
Y4837836D01*
X3487468Y4658558D02*
X3517468D01*
X3502468Y4643558D02*
Y4673558D01*
X3833986Y3925082D02*
X3863986D01*
X3848986Y3910082D02*
Y3940082D01*
X345510Y5890000D02*
X375510D01*
X360510Y5875000D02*
Y5905000D01*
X565000Y5890000D02*
X595000D01*
X580000Y5875000D02*
Y5905000D01*
X4677411Y7632919D02*
X4707410D01*
X4692410Y7617919D02*
Y7647919D01*
X7146928Y5621954D02*
X7176928D01*
X7161928Y5606954D02*
Y5636954D01*
X8798780Y3992556D02*
X8828780D01*
X8813780Y3977556D02*
Y4007556D01*
X11119168Y3844968D02*
X11149168D01*
X11134168Y3829968D02*
Y3859968D01*
X4388855Y6336529D02*
X4418855D01*
X4403855Y6321529D02*
Y6351529D01*
X4315450Y6438614D02*
X4345450D01*
X4330450Y6423614D02*
Y6453614D01*
X2741654Y3531757D02*
X2771654D01*
X2756654Y3516757D02*
Y3546757D01*
X2612682Y3397413D02*
X2642682D01*
X2627682Y3382413D02*
Y3412413D01*
X2460686Y3555837D02*
X2490686D01*
X2475686Y3540837D02*
Y3570837D01*
X10171755Y3076740D02*
X10201755D01*
X10186755Y3061740D02*
Y3091740D01*
X2503673Y3148926D02*
X2533673D01*
X2518673Y3133926D02*
Y3163926D01*
X2561173Y3233926D02*
X2591173D01*
X2576173Y3218927D02*
Y3248926D01*
X3677383Y2934824D02*
X3707383D01*
X3692383Y2919824D02*
Y2949824D01*
X2307901Y3019572D02*
X2337901D01*
X2322901Y3004572D02*
Y3034572D01*
X1792173Y2796241D02*
X1822173D01*
X1807173Y2781241D02*
Y2811241D01*
X2123220Y3320114D02*
X2153220D01*
X2138220Y3305114D02*
Y3335114D01*
X1541808Y3163148D02*
X1571808D01*
X1556808Y3148148D02*
Y3178148D01*
X1362959Y3351688D02*
X1392959D01*
X1377959Y3336688D02*
Y3366688D01*
X1363450Y3484226D02*
X1393450D01*
X1378450Y3469226D02*
Y3499226D01*
X1538269Y3531757D02*
X1568269D01*
X1553269Y3516757D02*
Y3546757D01*
X1538269Y3441757D02*
X1568269D01*
X1553269Y3426757D02*
Y3456757D01*
X2348364Y4248792D02*
X2378364D01*
X2363364Y4233792D02*
Y4263792D01*
X2254949Y4252021D02*
X2284949D01*
X2269949Y4237021D02*
Y4267021D01*
X2168706Y4238460D02*
X2198706D01*
X2183706Y4223460D02*
Y4253460D01*
X2078706Y4238460D02*
X2108706D01*
X2093706Y4223460D02*
Y4253460D01*
X1988706Y4238460D02*
X2018706D01*
X2003706Y4223460D02*
Y4253460D01*
X1898706Y4238460D02*
X1928706D01*
X1913706Y4223460D02*
Y4253460D01*
X1808731Y4236357D02*
X1838731D01*
X1823731Y4221357D02*
Y4251357D01*
X1719998Y4221308D02*
X1749998D01*
X1734998Y4206308D02*
Y4236308D01*
X1636021Y4188936D02*
X1666021D01*
X1651021Y4173936D02*
Y4203936D01*
X1558819Y4142676D02*
X1588819D01*
X1573819Y4127677D02*
Y4157676D01*
X1492224Y4082137D02*
X1522224D01*
X1507224Y4067137D02*
Y4097137D01*
X1437554Y4010645D02*
X1467554D01*
X1452554Y3995645D02*
Y4025644D01*
X1396846Y3930377D02*
X1426846D01*
X1411846Y3915377D02*
Y3945377D01*
X1372433Y3843751D02*
X1402433D01*
X1387433Y3828751D02*
Y3858751D01*
X1363198Y3754226D02*
X1393198D01*
X1378198Y3739226D02*
Y3769226D01*
X1363450Y3664226D02*
X1393450D01*
X1378450Y3649226D02*
Y3679226D01*
X1363450Y3574226D02*
X1393450D01*
X1378450Y3559226D02*
Y3589226D01*
X1538269Y3621757D02*
X1568269D01*
X1553269Y3606757D02*
Y3636757D01*
X1538269Y3711757D02*
X1568269D01*
X1553269Y3696757D02*
Y3726757D01*
X1541808Y3801688D02*
X1571808D01*
X1556808Y3786688D02*
Y3816688D01*
X1568937Y3887501D02*
X1598937D01*
X1583937Y3872501D02*
Y3902501D01*
X1619457Y3961985D02*
X1649456D01*
X1634456Y3946985D02*
Y3976985D01*
X1689175Y4018901D02*
X1719175D01*
X1704175Y4003901D02*
Y4033900D01*
X1772269Y4053474D02*
X1802269D01*
X1787269Y4038475D02*
Y4068474D01*
X1861693Y4063641D02*
X1891693D01*
X1876693Y4048641D02*
Y4078641D01*
X1951693Y4063641D02*
X1981693D01*
X1966693Y4048641D02*
Y4078641D01*
X2041693Y4063641D02*
X2071693D01*
X2056693Y4048641D02*
Y4078641D01*
X9362233Y4049005D02*
X9392233D01*
X9377233Y4034005D02*
Y4064005D01*
X8884883Y3948775D02*
X8914883D01*
X8899883Y3933775D02*
Y3963775D01*
X9102820Y4046705D02*
X9132820D01*
X9117820Y4031705D02*
Y4061705D01*
X8977822Y4046705D02*
X9007822D01*
X8992822Y4031705D02*
Y4061705D01*
X7855502Y5641740D02*
X7885502D01*
X7870502Y5626740D02*
Y5656740D01*
X8980489Y6081222D02*
X9010488D01*
X8995488Y6066222D02*
Y6096221D01*
X8860990Y6081222D02*
X8890990D01*
X8875990Y6066222D02*
Y6096221D01*
X9587940Y6081222D02*
X9617940D01*
X9602940Y6066222D02*
Y6096221D01*
X9104081Y1915865D02*
X9134081D01*
X9119081Y1900865D02*
Y1930865D01*
X8985000Y1915865D02*
X9015000D01*
X9000000Y1900865D02*
Y1930865D01*
X9350060Y1915865D02*
X9380060D01*
X9365060Y1900865D02*
Y1930865D01*
X8863344Y1915865D02*
X8893344D01*
X8878344Y1900865D02*
Y1930865D01*
X9228880Y3944848D02*
X9258880D01*
X9243880Y3929848D02*
Y3959848D01*
X8958020Y4884689D02*
X8988020D01*
X8973020Y4869689D02*
Y4899689D01*
X11102432Y3469836D02*
X11132432D01*
X11117432Y3454836D02*
Y3484836D01*
X11175146Y3108279D02*
X11205146D01*
X11190146Y3093279D02*
Y3123278D01*
X10439532Y3981468D02*
X10469532D01*
X10454532Y3966468D02*
Y3996468D01*
X10552431Y3972714D02*
X10582430D01*
X10567430Y3957714D02*
Y3987714D01*
X10855083Y3995401D02*
X10885083D01*
X10870083Y3980401D02*
Y4010401D01*
X10998567Y4049207D02*
X11028567D01*
X11013567Y4034207D02*
Y4064207D01*
X11123566Y4047660D02*
X11153566D01*
X11138566Y4032660D02*
Y4062660D01*
X10586160Y4873251D02*
X10616160D01*
X10601160Y4858251D02*
Y4888251D01*
X10454999Y4873251D02*
X10484999D01*
X10469999Y4858251D02*
Y4888251D01*
X11170322Y5227341D02*
X11200322D01*
X11185322Y5212341D02*
Y5242341D01*
X10650007Y5227341D02*
X10680007D01*
X10665007Y5212341D02*
Y5242341D01*
X10590028Y5562340D02*
X10620028D01*
X10605028Y5547340D02*
Y5577340D01*
X10380010Y5690908D02*
X10410010D01*
X10395010Y5675908D02*
Y5705908D01*
X10636573Y5690908D02*
X10666573D01*
X10651573Y5675908D02*
Y5705908D01*
X10737283Y3530487D02*
X10767283D01*
X10752283Y3515487D02*
Y3545487D01*
X2222078Y3520337D02*
X2252078D01*
X2237078Y3505337D02*
Y3535337D01*
X6964514Y3912586D02*
X6994514D01*
X6979514Y3897586D02*
Y3927586D01*
X6795018Y1740370D02*
X6825018D01*
X6810018Y1725370D02*
Y1755370D01*
X6843831Y2625079D02*
X6873831D01*
X6858831Y2610079D02*
Y2640079D01*
X7031648Y1809166D02*
X7061648D01*
X7046648Y1794166D02*
Y1824166D01*
X6843836Y3705600D02*
X6873836D01*
X6858836Y3690600D02*
Y3720600D01*
X6852518Y3424486D02*
X6882518D01*
X6867518Y3409486D02*
Y3439486D01*
X6795018Y2415280D02*
X6825018D01*
X6810018Y2400280D02*
Y2430280D01*
X6101327Y4398230D02*
X6131327D01*
X6116327Y4383230D02*
Y4413230D01*
X6308800Y4324371D02*
X6338800D01*
X6323800Y4309371D02*
Y4339371D01*
X6570233Y4319831D02*
X6600233D01*
X6585233Y4304831D02*
Y4334831D01*
X6257273Y3732475D02*
X6287273D01*
X6272273Y3717475D02*
Y3747475D01*
X6597370Y3528033D02*
X6627370D01*
X6612370Y3513033D02*
Y3543033D01*
X6661860Y2379720D02*
X6691860D01*
X6676860Y2364720D02*
Y2394720D01*
X6661860Y2259424D02*
X6691860D01*
X6676860Y2244424D02*
Y2274424D01*
X6302501Y2699760D02*
X6332501D01*
X6317501Y2684760D02*
Y2714760D01*
X6898573Y6163414D02*
X6928573D01*
X6913573Y6148414D02*
Y6178414D01*
X6412908Y4942194D02*
X6442908D01*
X6427908Y4927194D02*
Y4957194D01*
X7474403Y5156677D02*
X7504403D01*
X7489403Y5141677D02*
Y5171677D01*
X7218120Y5145780D02*
X7248120D01*
X7233120Y5130780D02*
Y5160780D01*
X7735753Y5087356D02*
X7765753D01*
X7750753Y5072356D02*
Y5102356D01*
X6713643Y5044998D02*
X6743643D01*
X6728643Y5029998D02*
Y5059998D01*
X6762389Y4503160D02*
X6792389D01*
X6777389Y4488160D02*
Y4518160D01*
X6596107Y4503160D02*
X6626107D01*
X6611107Y4488160D02*
Y4518160D01*
X7219935Y2923280D02*
X7249934D01*
X7234934Y2908280D02*
Y2938280D01*
X6876582Y2996402D02*
X6906582D01*
X6891582Y2981402D02*
Y3011402D01*
X5864300Y3068060D02*
X5894300D01*
X5879300Y3053060D02*
Y3083060D01*
X6905001Y4810208D02*
X6935001D01*
X6920001Y4795208D02*
Y4825208D01*
X3134380Y3346544D02*
X3164380D01*
X3149380Y3331544D02*
Y3361544D01*
X2991179Y4528967D02*
X3021179D01*
X3006179Y4513967D02*
Y4543967D01*
X2467500Y4269738D02*
X2497500D01*
X2482500Y4254738D02*
Y4284738D01*
X2326170Y3901950D02*
X2356170D01*
X2341170Y3886950D02*
Y3916950D01*
X1683284Y3888460D02*
X1713284D01*
X1698284Y3873460D02*
Y3903460D01*
X1812500Y3888460D02*
X1842500D01*
X1827500Y3873460D02*
Y3903460D01*
X2064256Y3901950D02*
X2094256D01*
X2079256Y3886950D02*
Y3916950D01*
X2186615Y3901950D02*
X2216615D01*
X2201615Y3886950D02*
Y3916950D01*
X2125659Y3520337D02*
X2155659D01*
X2140659Y3505337D02*
Y3535337D01*
X1673559Y3163148D02*
X1703559D01*
X1688559Y3148148D02*
Y3178148D01*
X2320842Y3518513D02*
X2350842D01*
X2335842Y3503513D02*
Y3533513D01*
X1928181Y3653003D02*
X1958180D01*
X1943181Y3638003D02*
Y3668003D01*
X3180013Y4626549D02*
X3210013D01*
X3195013Y4611549D02*
Y4641549D01*
X3467221Y4880336D02*
X3497221D01*
X3482221Y4865336D02*
Y4895336D01*
X3335992Y4898036D02*
X3365992D01*
X3350992Y4883036D02*
Y4913036D01*
X3211522Y5012631D02*
X3241522D01*
X3226522Y4997631D02*
Y5027631D01*
X3211522Y4916089D02*
X3241522D01*
X3226522Y4901089D02*
Y4931089D01*
X3861747Y4538234D02*
X3891747D01*
X3876747Y4523234D02*
Y4553234D01*
X7115257Y1869046D02*
X7145257D01*
X7130257Y1854046D02*
Y1884046D01*
X1792173Y3401083D02*
X1822173D01*
X1807173Y3386083D02*
Y3416083D01*
X2461523Y3665055D02*
X2491523D01*
X2476523Y3650055D02*
Y3680055D01*
X1023323Y6250358D02*
X1053323D01*
X1038323Y6235358D02*
Y6265358D01*
X4418923Y3585533D02*
X4448923D01*
X4433923Y3570533D02*
Y3600533D01*
X9853004Y4049808D02*
X9883004D01*
X9868004Y4034808D02*
Y4064808D01*
X2835840Y4125485D02*
X2865840D01*
X2850840Y4110485D02*
Y4140485D01*
X3770904Y4151236D02*
X3800904D01*
X3785904Y4136236D02*
Y4166236D01*
X3884283Y4309676D02*
X3914283D01*
X3899283Y4294676D02*
Y4324676D01*
X9707751Y3658198D02*
X9737751D01*
X9722751Y3643198D02*
Y3673198D01*
X9472168Y1848659D02*
X9502168D01*
X9487168Y1833659D02*
Y1863659D01*
X7709603Y5635121D02*
X7739603D01*
X7724603Y5620121D02*
Y5650121D01*
X7965425Y5674645D02*
X7995425D01*
X7980425Y5659645D02*
Y5689645D01*
X4502323Y4013458D02*
X4532323D01*
X4517323Y3998458D02*
Y4028458D01*
X1975001Y3401083D02*
X2005001D01*
X1990001Y3386083D02*
Y3416083D01*
X2670000Y4463339D02*
X2700000D01*
X2685000Y4448339D02*
Y4478339D01*
X2601245Y4523674D02*
X2631245D01*
X2616245Y4508674D02*
Y4538674D01*
X3310013Y4636966D02*
X3340013D01*
X3325013Y4621966D02*
Y4651966D01*
X3620013Y4535722D02*
X3650013D01*
X3635013Y4520722D02*
Y4550722D01*
X3931473Y6237531D02*
X3961473D01*
X3946473Y6222531D02*
Y6252531D01*
X4263399Y4531459D02*
X4293399D01*
X4278399Y4516459D02*
Y4546459D01*
X4458404Y4349484D02*
X4488404D01*
X4473404Y4334484D02*
Y4364484D01*
X4720001Y4423211D02*
X4750001D01*
X4735001Y4408211D02*
Y4438211D01*
X4558552Y1058000D02*
X4588552D01*
X4573552Y1043000D02*
Y1073000D01*
X1908565Y5561159D02*
X1938565D01*
X1923565Y5546159D02*
Y5576159D01*
X1921052Y6070000D02*
X1951052D01*
X1936052Y6055000D02*
Y6085000D01*
X1818285Y6070993D02*
X1848285D01*
X1833285Y6055993D02*
Y6085993D01*
X4242859Y3455056D02*
X4272859D01*
X4257859Y3440056D02*
Y3470056D01*
X8816062Y4888791D02*
X8846062D01*
X8831062Y4873791D02*
Y4903791D01*
X8843752Y5227341D02*
X8873752D01*
X8858752Y5212341D02*
Y5242341D01*
X9180267Y5205731D02*
X9210267D01*
X9195267Y5190731D02*
Y5220731D01*
X9125733Y3530487D02*
X9155733D01*
X9140733Y3515487D02*
Y3545487D01*
X9228880Y4477770D02*
X9258880D01*
X9243880Y4462770D02*
Y4492770D01*
X10259336Y3519583D02*
X10289336D01*
X10274336Y3504583D02*
Y3534583D01*
X9160492Y3059551D02*
X9190492D01*
X9175492Y3044551D02*
Y3074551D01*
X9790000Y4950893D02*
X9820000D01*
X9805000Y4935893D02*
Y4965893D01*
X9754017Y4528082D02*
X9784016D01*
X9769017Y4513082D02*
Y4543082D01*
X9578957Y4962330D02*
X9608957D01*
X9593957Y4947330D02*
Y4977330D01*
X3508828Y526693D02*
X3538828D01*
X3523828Y511693D02*
Y541693D01*
X3160142Y1766439D02*
X3190142D01*
X3175142Y1751439D02*
Y1781439D01*
X3753766Y1532996D02*
X3783766D01*
X3768766Y1517996D02*
Y1547996D01*
X3899015Y1440237D02*
X3929015D01*
X3914015Y1425237D02*
Y1455237D01*
X3010000Y662502D02*
X3040000D01*
X3025000Y647502D02*
Y677502D01*
X862792Y3462342D02*
X892792D01*
X877792Y3447342D02*
Y3477342D01*
X1144608Y2996749D02*
X1174608D01*
X1159608Y2981749D02*
Y3011749D01*
X1800000Y3652555D02*
X1830000D01*
X1815000Y3637555D02*
Y3667555D01*
X4251961Y5507364D02*
X4281961D01*
X4266961Y5492364D02*
Y5522364D01*
X3793909Y5141235D02*
X3823909D01*
X3808909Y5126235D02*
Y5156235D01*
X3738989Y3505692D02*
X3768989D01*
X3753989Y3490692D02*
Y3520692D01*
X3253198Y7277136D02*
X3283198D01*
X3268198Y7262136D02*
Y7292136D01*
X3252220Y6692839D02*
X3282220D01*
X3267220Y6677839D02*
Y6707839D01*
X4907332Y5517102D02*
X4937332D01*
X4922332Y5502102D02*
Y5532102D01*
X4348021Y6246369D02*
X4378021D01*
X4363021Y6231369D02*
Y6261369D01*
X4608235Y6389868D02*
X4638235D01*
X4623235Y6374868D02*
Y6404868D01*
X4111338Y5772207D02*
X4141338D01*
X4126338Y5757207D02*
Y5787207D01*
X3244093Y6891619D02*
X3274093D01*
X3259093Y6876619D02*
Y6906619D01*
X3977938Y6760626D02*
X4007938D01*
X3992938Y6745626D02*
Y6775626D01*
X4052579Y6973709D02*
X4082579D01*
X4067579Y6958709D02*
Y6988709D01*
X4117235Y6605496D02*
X4147235D01*
X4132235Y6590496D02*
Y6620496D01*
X4124232Y6975378D02*
X4154232D01*
X4139232Y6960379D02*
Y6990378D01*
X4212391Y6715559D02*
X4242391D01*
X4227391Y6700559D02*
Y6730559D01*
X4449564Y6798536D02*
X4479564D01*
X4464564Y6783536D02*
Y6813536D01*
X450917Y5890000D02*
X480916D01*
X465917Y5875000D02*
Y5905000D01*
X1398611Y6250057D02*
X1428611D01*
X1413611Y6235057D02*
Y6265057D01*
X2355000Y6982014D02*
X2385000D01*
X2370000Y6967014D02*
Y6997014D01*
X3947504Y3527586D02*
X3977504D01*
X3962504Y3512586D02*
Y3542586D01*
X2449249Y3461616D02*
X2479249D01*
X2464249Y3446616D02*
Y3476616D01*
X602366Y2576182D02*
X632366D01*
X617366Y2561182D02*
Y2591182D01*
X4019216Y4951199D02*
X4049216D01*
X4034216Y4936199D02*
Y4966199D01*
X10033178Y6813283D02*
X10063178D01*
X10048178Y6798283D02*
Y6828283D01*
X9271178Y6813283D02*
X9301178D01*
X9286178Y6798283D02*
Y6828283D01*
X9652178Y6813283D02*
X9682178D01*
X9667178Y6798283D02*
Y6828283D01*
X4990410Y2779664D02*
X5020410D01*
X5005410Y2764664D02*
Y2794664D01*
X9872420Y2966460D02*
X9902420D01*
X9887420Y2951460D02*
Y2981460D01*
X6769190Y620536D02*
X6799190D01*
X6784190Y605537D02*
Y635536D01*
X6757520Y775536D02*
X6787520D01*
X6772520Y760536D02*
Y790536D01*
X6354416Y634089D02*
X6384416D01*
X6369416Y619089D02*
Y649089D01*
X11241677Y1844506D02*
X11271677D01*
X11256677Y1829506D02*
Y1859506D01*
X9220126Y6081222D02*
X9250126D01*
X9235126Y6066222D02*
Y6096221D01*
X10519998Y4264400D02*
X10549998D01*
X10534998Y4249400D02*
Y4279400D01*
X9968399Y3933351D02*
X9998399D01*
X9983399Y3918351D02*
Y3948351D01*
X7430758Y3998518D02*
X7460757D01*
X7445758Y3983518D02*
Y4013518D01*
X7107375Y5718454D02*
X7137375D01*
X7122375Y5703454D02*
Y5733454D01*
X6205498Y6393063D02*
X6235498D01*
X6220498Y6378063D02*
Y6408063D01*
X2443383Y4762504D02*
X2473383D01*
X2458383Y4747504D02*
Y4777504D01*
X1289054Y3151796D02*
X1319054D01*
X1304054Y3136796D02*
Y3166796D01*
X1195253Y2855353D02*
X1225253D01*
X1210253Y2840353D02*
Y2870353D01*
X1255107Y2914453D02*
X1285107D01*
X1270107Y2899453D02*
Y2929453D01*
X1256964Y3079995D02*
X1286964D01*
X1271964Y3064995D02*
Y3094995D01*
X1256964Y3002104D02*
X1286964D01*
X1271964Y2987105D02*
Y3017104D01*
X994337Y2654456D02*
X1024337D01*
X1009337Y2639456D02*
Y2669456D01*
X1083768Y2664559D02*
X1113768D01*
X1098768Y2649559D02*
Y2679559D01*
X1173641Y2669341D02*
X1203641D01*
X1188641Y2654341D02*
Y2684341D01*
X1262944Y2680519D02*
X1292944D01*
X1277944Y2665519D02*
Y2695519D01*
X1343063Y2721520D02*
X1373063D01*
X1358063Y2706520D02*
Y2736520D01*
X1403161Y2788514D02*
X1433160D01*
X1418160Y2773514D02*
Y2803514D01*
X1429530Y2874564D02*
X1459530D01*
X1444530Y2859565D02*
Y2889564D01*
X1430034Y2964563D02*
X1460034D01*
X1445034Y2949563D02*
Y2979563D01*
X7281620Y3062980D02*
X7311620D01*
X7296620Y3047980D02*
Y3077980D01*
X7343088Y3921500D02*
X7373088D01*
X7358088Y3906500D02*
Y3936500D01*
X2611420Y7270162D02*
X2641420D01*
X2626420Y7255162D02*
Y7285162D01*
X4635127Y6972900D02*
X4665127D01*
X4650127Y6957900D02*
Y6987900D01*
X4708521Y6972852D02*
X4738521D01*
X4723521Y6957852D02*
Y6987852D01*
X4559489Y7632919D02*
X4589489D01*
X4574489Y7617919D02*
Y7647919D01*
X3958506Y7466899D02*
X3988506D01*
X3973506Y7451899D02*
Y7481899D01*
X3613748Y7239299D02*
X3643748D01*
X3628748Y7224299D02*
Y7254299D01*
X3613748Y7375766D02*
X3643748D01*
X3628748Y7360766D02*
Y7390766D01*
X1794713Y7567115D02*
X1824713D01*
X1809713Y7552115D02*
Y7582115D01*
X1998136Y7318748D02*
X2028136D01*
X2013136Y7303748D02*
Y7333748D01*
X5942554Y4742519D02*
X5972554D01*
X5957554Y4727519D02*
Y4757519D01*
X7736280Y4439660D02*
X7766280D01*
X7751280Y4424660D02*
Y4454660D01*
X9907980Y5056880D02*
X9937980D01*
X9922980Y5041880D02*
Y5071880D01*
X9910520Y5481060D02*
X9940520D01*
X9925520Y5466060D02*
Y5496060D01*
X8890178Y5577131D02*
X8920178D01*
X8905178Y5562131D02*
Y5592131D01*
X10730002Y4000240D02*
X10760002D01*
X10745002Y3985240D02*
Y4015240D01*
X11272573Y4341900D02*
X11302573D01*
X11287573Y4326900D02*
Y4356900D01*
X10111180Y5041640D02*
X10141180D01*
X10126180Y5026640D02*
Y5056640D01*
X10418398Y5130540D02*
X10448398D01*
X10433398Y5115540D02*
Y5145540D01*
X10586160Y5158480D02*
X10616160D01*
X10601160Y5143480D02*
Y5173480D01*
X10454999Y5562340D02*
X10484999D01*
X10469999Y5547340D02*
Y5577340D01*
X7085186Y6133601D02*
X7115186D01*
X7100186Y6118601D02*
Y6148601D01*
X5935420Y6591929D02*
X5965420D01*
X5950420Y6576929D02*
Y6606929D01*
X5841440Y7414000D02*
X5871440D01*
X5856440Y7399000D02*
Y7429000D01*
X5902849Y7307500D02*
X5932849D01*
X5917849Y7292500D02*
Y7322500D01*
X5991300Y6851928D02*
X6021300D01*
X6006300Y6836928D02*
Y6866928D01*
X6027053Y7142220D02*
X6057053D01*
X6042053Y7127220D02*
Y7157220D01*
X6027053Y7242500D02*
X6057053D01*
X6042053Y7227500D02*
Y7257500D01*
X7072935Y7370277D02*
X7102935D01*
X7087935Y7355277D02*
Y7385277D01*
X8262060Y5969273D02*
X8292060D01*
X8277060Y5954273D02*
Y5984273D01*
X8567398Y5969278D02*
X8597398D01*
X8582398Y5954278D02*
Y5984278D01*
X11015420Y6146540D02*
X11045420D01*
X11030420Y6131540D02*
Y6161540D01*
X10942501Y6201143D02*
X10972501D01*
X10957501Y6186143D02*
Y6216143D01*
X8123884Y6813283D02*
X8153884D01*
X8138884Y6798283D02*
Y6828283D01*
X8409004Y6466580D02*
X8439004D01*
X8424004Y6451580D02*
Y6481580D01*
X8504884Y6813283D02*
X8534884D01*
X8519884Y6798283D02*
Y6828283D01*
X9486340Y6583420D02*
X9516340D01*
X9501340Y6568420D02*
Y6598420D01*
X11260002Y6494520D02*
X11290002D01*
X11275002Y6479520D02*
Y6509520D01*
X7089428Y7177780D02*
X7119428D01*
X7104428Y7162780D02*
Y7192780D01*
X7131760Y7005060D02*
X7161760D01*
X7146760Y6990060D02*
Y7020060D01*
X4914703Y3302501D02*
X4944703D01*
X4929703Y3287501D02*
Y3317501D01*
X7347660Y2420360D02*
X7377660D01*
X7362660Y2405360D02*
Y2435360D01*
X7103820Y1052875D02*
X7133820D01*
X7118820Y1037875D02*
Y1067875D01*
X7187506Y1446573D02*
X7217506D01*
X7202506Y1431573D02*
Y1461573D01*
X7256932Y1351087D02*
X7286932D01*
X7271932Y1336087D02*
Y1366087D01*
X7201215Y620941D02*
X7231215D01*
X7216215Y605941D02*
Y635941D01*
X7381318Y1186277D02*
X7411318D01*
X7396318Y1171277D02*
Y1201277D01*
X7382837Y1075024D02*
X7412837D01*
X7397837Y1060024D02*
Y1090024D01*
X7182560Y1186277D02*
X7212560D01*
X7197560Y1171277D02*
Y1201277D01*
X7045400Y830320D02*
X7075400D01*
X7060400Y815320D02*
Y845320D01*
X7091831Y2349240D02*
X7121831D01*
X7106831Y2334240D02*
Y2364240D01*
X8025804Y3431280D02*
X8055804D01*
X8040804Y3416280D02*
Y3446280D01*
X3501647Y4126559D02*
X3531647D01*
X3516647Y4111559D02*
Y4141559D01*
X3324547Y4126559D02*
X3354547D01*
X3339547Y4111559D02*
Y4141559D01*
X3148562Y4126559D02*
X3178562D01*
X3163562Y4111559D02*
Y4141559D01*
X3501647Y3951688D02*
X3531647D01*
X3516647Y3936688D02*
Y3966688D01*
X3324547Y3951688D02*
X3354547D01*
X3339547Y3936688D02*
Y3966688D01*
X3148562Y3951688D02*
X3178562D01*
X3163562Y3936688D02*
Y3966688D01*
X3148562Y4310341D02*
X3178562D01*
X3163562Y4295341D02*
Y4325341D01*
X3324547Y4310341D02*
X3354547D01*
X3339547Y4295341D02*
Y4325341D01*
X3501647Y4310341D02*
X3531647D01*
X3516647Y4295341D02*
Y4325341D01*
X337501Y3596520D02*
X367501D01*
X352501Y3581520D02*
Y3611520D01*
X444957Y2970724D02*
X474957D01*
X459957Y2955724D02*
Y2985724D01*
X3899015Y545621D02*
X3929015D01*
X3914015Y530621D02*
Y560621D01*
X8585001Y3179480D02*
X8615001D01*
X8600001Y3164480D02*
Y3194480D01*
X8230000Y3295004D02*
X8260000D01*
X8245000Y3280004D02*
Y3310004D01*
X10896340Y750000D02*
X10926340D01*
X10911340Y735000D02*
Y765000D01*
X11006023Y1392129D02*
X11036023D01*
X11021023Y1377129D02*
Y1407129D01*
X11245394Y2599780D02*
X11275394D01*
X11260394Y2584780D02*
Y2614780D01*
X9725549Y3096000D02*
X9755549D01*
X9740549Y3081000D02*
Y3111000D01*
X10241840Y887506D02*
X10271840D01*
X10256840Y872506D02*
Y902506D01*
X3616400Y4725242D02*
X3646400D01*
X3631400Y4710242D02*
Y4740242D01*
X8891166Y1075024D02*
X8921166D01*
X8906166Y1060024D02*
Y1090024D01*
X10035000Y1075024D02*
X10065000D01*
X10050000Y1060024D02*
Y1090024D01*
X10432842Y1075024D02*
X10462842D01*
X10447842Y1060024D02*
Y1090024D01*
X7568474Y1186277D02*
X7598474D01*
X7583474Y1171277D02*
Y1201277D01*
X7760494Y1191249D02*
X7790494D01*
X7775494Y1176249D02*
Y1206249D01*
X7760004Y1075024D02*
X7790003D01*
X7775003Y1060024D02*
Y1090024D01*
X7950058Y1186277D02*
X7980058D01*
X7965058Y1171277D02*
Y1201277D01*
X8131300Y1186277D02*
X8161300D01*
X8146300Y1171277D02*
Y1201277D01*
X8508418Y1186277D02*
X8538418D01*
X8523418Y1171277D02*
Y1201277D01*
X8891166Y1186277D02*
X8921166D01*
X8906166Y1171277D02*
Y1201277D01*
X9283508Y1186277D02*
X9313508D01*
X9298508Y1171277D02*
Y1201277D01*
X9659027Y1186277D02*
X9689027D01*
X9674027Y1171277D02*
Y1201277D01*
X10429318Y1186277D02*
X10459318D01*
X10444318Y1171277D02*
Y1201277D01*
X10035000Y1186277D02*
X10065000D01*
X10050000Y1171277D02*
Y1201277D01*
X10620321Y1186277D02*
X10650321D01*
X10635321Y1171277D02*
Y1201277D01*
X8701399Y1186277D02*
X8731399D01*
X8716399Y1171277D02*
Y1201277D01*
X8325560Y1186277D02*
X8355560D01*
X8340560Y1171277D02*
Y1201277D01*
X9468560Y1186277D02*
X9498560D01*
X9483560Y1171277D02*
Y1201277D01*
X9845528Y1186277D02*
X9875528D01*
X9860528Y1171277D02*
Y1201277D01*
X9945472Y507285D02*
X9975472D01*
X9960472Y492285D02*
Y522285D01*
X9568504Y495848D02*
X9598504D01*
X9583504Y480848D02*
Y510848D01*
X10336002Y505797D02*
X10366002D01*
X10351002Y490797D02*
Y520797D01*
X8425504Y495848D02*
X8455504D01*
X8440504Y480848D02*
Y510848D01*
X8797346Y503872D02*
X8827346D01*
X8812346Y488872D02*
Y518872D01*
X9193002Y505797D02*
X9223002D01*
X9208002Y490797D02*
Y520797D01*
X8050002Y505797D02*
X8080002D01*
X8065002Y490797D02*
Y520797D01*
X7655918Y505797D02*
X7685918D01*
X7670918Y490797D02*
Y520797D01*
X7282504Y495848D02*
X7312504D01*
X7297504Y480848D02*
Y510848D01*
X10914036Y2441140D02*
X10944036D01*
X10929036Y2426140D02*
Y2456140D01*
X9658054Y1075024D02*
X9688054D01*
X9673054Y1060024D02*
Y1090024D01*
X9284517Y1075024D02*
X9314517D01*
X9299517Y1060024D02*
Y1090024D01*
X8506837Y1075024D02*
X8536837D01*
X8521837Y1060024D02*
Y1090024D01*
X8134080Y1075024D02*
X8164080D01*
X8149080Y1060024D02*
Y1090024D01*
X8715321Y3426698D02*
X8745321D01*
X8730321Y3411698D02*
Y3441698D01*
X11040820Y2372100D02*
X11070820D01*
X11055820Y2357100D02*
Y2387100D01*
X9473457Y2438140D02*
X9503457D01*
X9488457Y2423140D02*
Y2453140D01*
X5987881Y1572879D02*
X6017881D01*
X6002881Y1557879D02*
Y1587879D01*
X9542220Y2958840D02*
X9572220D01*
X9557220Y2943840D02*
Y2973840D01*
X11114998Y2437104D02*
X11144998D01*
X11129998Y2422104D02*
Y2452104D01*
X6076497Y1703120D02*
X6106497D01*
X6091497Y1688120D02*
Y1718120D01*
X9412497Y3029960D02*
X9442497D01*
X9427497Y3014960D02*
Y3044960D01*
X11040820Y3029960D02*
X11070820D01*
X11055820Y3014960D02*
Y3044960D01*
X9595844Y1808220D02*
X9625844D01*
X9610844Y1793220D02*
Y1823220D01*
X7736280Y3078220D02*
X7766280D01*
X7751280Y3063220D02*
Y3093220D01*
X10875004Y1765040D02*
X10905004D01*
X10890004Y1750040D02*
Y1780040D01*
X5955740Y1427220D02*
X5985740D01*
X5970740Y1412220D02*
Y1442220D01*
X9692080Y2627497D02*
X9722080D01*
X9707080Y2612497D02*
Y2642497D01*
%TF.MD5,0bfc698c13e4d6b9cd3e726253c5d2f8*%
M02*
